<svg xmlns="http://www.w3.org/2000/svg" xmlns:xlink="http://www.w3.org/1999/xlink" width="643.166" height="628.176" viewBox="0 0 643.166 628.176">
  <defs>
    <linearGradient id="linear-gradient" x1="0.5" x2="0.5" y2="1" gradientUnits="objectBoundingBox">
      <stop offset="0" stop-color="#039be5"/>
      <stop offset="1" stop-color="#027fbc"/>
    </linearGradient>
    <clipPath id="clip-path">
      <rect id="Rectángulo_58424" data-name="Rectángulo 58424" width="610" height="610" fill="none"/>
    </clipPath>
    <clipPath id="clip-path-4">
      <path id="Trazado_232018" data-name="Trazado 232018" d="M610,305c0,168.446-136.554,305-305,305S0,473.446,0,305,136.554,0,305,0,610,136.554,610,305" fill="none"/>
    </clipPath>
    <radialGradient id="radial-gradient" cx="0.543" cy="-0.071" r="0.793" gradientTransform="matrix(0, 1, 1, 0, -0.981, 0.981)" gradientUnits="objectBoundingBox">
      <stop offset="0" stop-color="#e3e1e2"/>
      <stop offset="1" stop-color="#c8c2c6"/>
    </radialGradient>
    <clipPath id="clip-path-5">
      <rect id="Rectángulo_58388" data-name="Rectángulo 58388" width="469.438" height="469.438" fill="none"/>
    </clipPath>
    <clipPath id="clip-path-6">
      <path id="Trazado_232019" data-name="Trazado 232019" d="M517.171,282.452c0,129.631-105.089,234.72-234.72,234.72S47.732,412.083,47.732,282.452s105.089-234.72,234.72-234.72,234.72,105.087,234.72,234.72" transform="translate(-47.732 -47.732)" fill="none"/>
    </clipPath>
    <radialGradient id="radial-gradient-2" cx="0.543" cy="-0.071" r="0.793" gradientTransform="matrix(0, 1, 1, 0, -1.37, 1.37)" xlink:href="#radial-gradient"/>
    <clipPath id="clip-path-7">
      <path id="Trazado_232020" data-name="Trazado 232020" d="M69.134,216.557A148.471,148.471,0,1,0,217.6,68.086,148.471,148.471,0,0,0,69.134,216.557" transform="translate(-69.134 -68.086)" fill="url(#linear-gradient)"/>
    </clipPath>
    <clipPath id="clip-path-8">
      <path id="Trazado_238524" data-name="Trazado 238524" d="M93.053,205.343A113.339,113.339,0,1,0,206.391,92,113.338,113.338,0,0,0,93.053,205.343" transform="translate(-93.053 -92.005)" fill="none"/>
    </clipPath>
    <linearGradient id="linear-gradient-3" x1="-0.603" y1="1.586" x2="-0.596" y2="1.586" gradientUnits="objectBoundingBox">
      <stop offset="0" stop-color="#c8c2c6"/>
      <stop offset="0.475" stop-color="#e3e1e2"/>
      <stop offset="0.964" stop-color="#fff"/>
      <stop offset="1" stop-color="#fff"/>
    </linearGradient>
    <clipPath id="clip-path-9">
      <rect id="Rectángulo_58430" data-name="Rectángulo 58430" width="64.641" height="64.651" fill="#12263f"/>
    </clipPath>
    <linearGradient id="linear-gradient-4" x1="-0.13" y1="1.123" x2="-0.126" y2="1.123" gradientUnits="objectBoundingBox">
      <stop offset="0" stop-color="#7d3aeb"/>
      <stop offset="0.536" stop-color="#3a8aff"/>
      <stop offset="1" stop-color="#3688ff"/>
    </linearGradient>
    <linearGradient id="linear-gradient-5" x1="-1.812" y1="6.805" x2="-1.79" y2="6.805" gradientUnits="objectBoundingBox">
      <stop offset="0" stop-color="#8b898b"/>
      <stop offset="0.464" stop-color="#c8c2c6"/>
      <stop offset="0.916" stop-color="#6d6d6d"/>
      <stop offset="1" stop-color="#6d6d6d"/>
    </linearGradient>
    <linearGradient id="linear-gradient-6" x1="-1.812" y1="1.673" x2="-1.79" y2="1.673" xlink:href="#linear-gradient-5"/>
    <linearGradient id="linear-gradient-7" x1="-6.286" y1="4.321" x2="-6.264" y2="4.321" xlink:href="#linear-gradient-5"/>
    <linearGradient id="linear-gradient-8" x1="-4.792" y1="6.805" x2="-4.769" y2="6.805" xlink:href="#linear-gradient-5"/>
    <linearGradient id="linear-gradient-9" x1="-0.323" y1="4.321" x2="-0.301" y2="4.321" xlink:href="#linear-gradient-5"/>
    <clipPath id="clip-path-22">
      <path id="Trazado_232048" data-name="Trazado 232048" d="M115.086,36.516a75.7,75.7,0,0,0-27.7,103.4l1.173,2.031A75.7,75.7,0,0,0,219.664,66.254l-1.173-2.031a75.661,75.661,0,0,0-103.4-27.707" transform="translate(-77.227 -26.361)" fill="#636363"/>
    </clipPath>
    <clipPath id="clip-path-23">
      <path id="Trazado_232027" data-name="Trazado 232027" d="M112.777,39.786a60.527,60.527,0,0,0-22.153,82.68l.939,1.625a60.528,60.528,0,0,0,82.677,22.156v0a60.524,60.524,0,0,0,22.153-82.68l-.939-1.622a60.5,60.5,0,0,0-82.677-22.156" transform="translate(-82.505 -31.668)" fill="none"/>
    </clipPath>
    <linearGradient id="linear-gradient-10" x1="-1.097" y1="4.814" x2="-1.081" y2="4.814" xlink:href="#linear-gradient-3"/>
    <clipPath id="clip-path-32">
      <rect id="Rectángulo_60148" data-name="Rectángulo 60148" width="40.497" height="40.501" fill="#12263f"/>
    </clipPath>
    <clipPath id="clip-path-37">
      <rect id="Rectángulo_60145" data-name="Rectángulo 60145" width="39.665" height="42.316" fill="#12263f"/>
    </clipPath>
    <clipPath id="clip-path-38">
      <rect id="Rectángulo_60149" data-name="Rectángulo 60149" width="45.401" height="46.117" fill="#12263f"/>
    </clipPath>
    <clipPath id="clip-path-39">
      <rect id="Rectángulo_58133" data-name="Rectángulo 58133" width="40.589" height="39.251" fill="#12263f"/>
    </clipPath>
    <clipPath id="clip-path-40">
      <rect id="Rectángulo_37044" data-name="Rectángulo 37044" width="45.591" height="50.22" fill="#12263f"/>
    </clipPath>
  </defs>
  <g id="Grupo_889634" data-name="Grupo 889634" transform="translate(-12719.917 8627.146)">
    <g id="Grupo_874577" data-name="Grupo 874577" transform="translate(12734.815 -8608.97)">
      <g id="Grupo_180545" data-name="Grupo 180545" clip-path="url(#clip-path)">
        <g id="Grupo_180483" data-name="Grupo 180483">
          <g id="Grupo_180482" data-name="Grupo 180482" clip-path="url(#clip-path)">
            <g id="Grupo_180471" data-name="Grupo 180471" opacity="0.17" style="mix-blend-mode: multiply;isolation: isolate">
              <g id="Grupo_180470" data-name="Grupo 180470">
                <g id="Grupo_180469" data-name="Grupo 180469" clip-path="url(#clip-path)">
                  <g id="Grupo_180468" data-name="Grupo 180468">
                    <g id="Grupo_180467" data-name="Grupo 180467" clip-path="url(#clip-path-4)">
                      <rect id="Rectángulo_58385" data-name="Rectángulo 58385" width="621.579" height="621.579" transform="matrix(1, -0.019, 0.019, 1, -11.689, 0.224)" fill="url(#radial-gradient)"/>
                    </g>
                  </g>
                </g>
              </g>
            </g>
            <g id="Grupo_183512" data-name="Grupo 183512" transform="translate(70.281 70.28)" opacity="0.17" style="mix-blend-mode: multiply;isolation: isolate">
              <g id="Grupo_180475" data-name="Grupo 180475">
                <g id="Grupo_180474" data-name="Grupo 180474" clip-path="url(#clip-path-5)">
                  <g id="Grupo_180473" data-name="Grupo 180473" transform="translate(-0.001 0)">
                    <g id="Grupo_180472" data-name="Grupo 180472" clip-path="url(#clip-path-6)">
                      <rect id="Rectángulo_58387" data-name="Rectángulo 58387" width="478.351" height="478.351" transform="matrix(1, -0.019, 0.019, 1, -8.996, 0.172)" fill="url(#radial-gradient-2)"/>
                    </g>
                  </g>
                </g>
              </g>
            </g>
            <g id="Grupo_183513" data-name="Grupo 183513" transform="translate(159.207 157.668)">
              <g id="Grupo_180484" data-name="Grupo 180484" clip-path="url(#clip-path-7)">
                <path id="Trazado_232050" data-name="Trazado 232050" d="M0,0H296.941V296.941H0Z" transform="translate(0 0)" fill="url(#linear-gradient)"/>
              </g>
            </g>
            <g id="Grupo_183514" data-name="Grupo 183514" transform="translate(194.34 192.8)" clip-path="url(#clip-path-8)">
              <rect id="Rectángulo_60448" data-name="Rectángulo 60448" width="226.677" height="226.677" transform="translate(0 0)" fill="url(#linear-gradient-3)"/>
            </g>
            <text id="Diseño_UX" data-name="Diseño UX" transform="translate(307 344.674)" fill="#12263f" font-size="18" font-family="Roboto-Bold, Roboto" font-weight="700"><tspan x="-41.739" y="0">Diseño UX</tspan></text>
            <g id="Grupo_888930" data-name="Grupo 888930" transform="translate(273.562 252.286)">
              <g id="Grupo_180576" data-name="Grupo 180576" clip-path="url(#clip-path-9)">
                <path id="Trazado_232052" data-name="Trazado 232052" d="M0,248.828q0-7.853,0-15.706c0-1.2.3-1.5,1.5-1.5H25.609c1.2,0,1.5.3,1.5,1.5q0,15.706,0,31.413c0,1.2-.3,1.5-1.5,1.5H1.432C.325,266.034,0,265.71,0,264.6q0-7.886,0-15.772m24.98-15.072H2.141v30.175H24.98Z" transform="translate(0 -201.383)" fill="#12263f"/>
                <path id="Trazado_232053" data-name="Trazado 232053" d="M301.393,88.317c-1.053,0-2.007.011-2.96,0-1.065-.015-1.532-.845-.952-1.729q1.982-3.021,4.01-6.012a1.055,1.055,0,0,1,1.874-.022q2.05,3.015,4.046,6.067a1.037,1.037,0,0,1-.945,1.7c-.972.017-1.944,0-2.987,0v.816q0,18.243,0,36.487a6.234,6.234,0,0,1-4.682,6.275,7.182,7.182,0,0,1-1.737.21q-5.57.027-11.14.007a6.244,6.244,0,0,1-6.418-6.424c-.011-4.626,0-9.252,0-13.878v-.5h2.085v.685q0,6.776,0,13.552a4.193,4.193,0,0,0,4.476,4.482q5.44,0,10.88,0a4.18,4.18,0,0,0,4.453-4.438q0-18.211,0-36.421v-.85m-1.152-2.124h4.386L302.435,82.9l-2.194,3.289" transform="translate(-243.005 -69.548)" fill="#12263f"/>
                <path id="Trazado_232054" data-name="Trazado 232054" d="M47.464,88.343c-.423-.2-.794-.362-1.161-.538a1.2,1.2,0,0,0-1.571.949c-.033,1.257-.176,1.43-1.409,1.695a9.438,9.438,0,0,1-4.2-.058c-.836-.2-1.087-.5-1.105-1.351a1.176,1.176,0,0,0-1.855-1.089c-.914.469-1.178.427-1.882-.306a9.176,9.176,0,0,1-2.155-3.671c-.275-.882-.143-1.212.644-1.661.348-.2.71-.313.684-.882s-.1-.95-.68-1.22c-.8-.375-.914-.752-.663-1.584A9.159,9.159,0,0,1,34.382,74.8c.593-.6.977-.734,1.663-.25.7.5,1.216.2,1.744-.178a.863.863,0,0,0,.218-.606c.048-1.224.187-1.4,1.373-1.665a9.565,9.565,0,0,1,4.26.053c.826.19,1.067.495,1.087,1.366A1.174,1.174,0,0,0,46.549,74.6c.953-.492,1.214-.454,1.933.312a9.167,9.167,0,0,1,2.159,3.741,1.11,1.11,0,0,1-.633,1.558c-.7.408-.867.718-.677,1.509.044.185.278.359.465.47,1.029.612,1.13.871.744,2.008a9.052,9.052,0,0,1-2.258,3.607,4.989,4.989,0,0,1-.818.533m1.037-9.7c-.354-.587-.65-1.139-1.015-1.642a.682.682,0,0,0-.612-.169,3.866,3.866,0,0,1-4.029-1.663.725.725,0,0,1-.116-.3c.042-.9-.558-.92-1.2-.892a7.552,7.552,0,0,0-1.037.064.575.575,0,0,0-.382.33,3.793,3.793,0,0,1-2.974,2.609,1.458,1.458,0,0,1-.832-.035c-.844-.5-1.143.089-1.467.657-.19.334-.355.683-.543,1.05.17.111.29.2.417.271.918.53.987.682.847,1.724a2.365,2.365,0,0,0-.022.906A1.692,1.692,0,0,1,34.4,83.82c-.028.011-.034.074-.084.192.287.474.6.989.91,1.508.169.286.342.344.686.205a3.664,3.664,0,0,1,4.05,1.793c.024.061.072.123.068.181-.069.9.557.868,1.152.861a6.372,6.372,0,0,0,1.1-.075.563.563,0,0,0,.354-.354,3.773,3.773,0,0,1,3.4-2.6.9.9,0,0,1,.447.061c.768.535,1.069-.034,1.377-.568.212-.369.4-.754.6-1.146-.2-.119-.325-.2-.456-.275-.873-.505-.936-.684-.822-1.681a5.239,5.239,0,0,0-.028-1.423,1.233,1.233,0,0,1,.738-1.489c.175-.082.333-.2.614-.367" transform="translate(-27.82 -62.501)" fill="#12263f"/>
                <path id="Trazado_232055" data-name="Trazado 232055" d="M122.156,36.1h-2.089v-.792q0-10.295,0-20.589c0-2.971-1.676-4.658-4.626-4.659H103c-2.941,0-4.386,1.219-4.879,4.135H96.141A6.152,6.152,0,0,1,101.118,8.1a8.765,8.765,0,0,1,1.553-.126q6.45-.014,12.9,0a6.257,6.257,0,0,1,6.586,6.584q.006,10.425,0,20.85Z" transform="translate(-83.579 -6.93)" fill="#12263f"/>
                <path id="Trazado_232056" data-name="Trazado 232056" d="M427.455,8.341a4.17,4.17,0,1,1,4.157-4.2,4.172,4.172,0,0,1-4.157,4.2m0-2.091a2.081,2.081,0,1,0-2.1-2.048,2.081,2.081,0,0,0,2.1,2.048" transform="translate(-368.012 0)" fill="#12263f"/>
                <path id="Trazado_232057" data-name="Trazado 232057" d="M263.906,243.8a4.171,4.171,0,1,1-4.174-4.186,4.192,4.192,0,0,1,4.174,4.186m-4.152-2.1a2.082,2.082,0,1,0,2.062,2.084,2.091,2.091,0,0,0-2.062-2.084" transform="translate(-222.198 -208.334)" fill="#12263f"/>
                <path id="Trazado_232058" data-name="Trazado 232058" d="M35.569,263.549c.824,0,1.647-.01,2.471,0a1.049,1.049,0,0,1,1.171,1.165q.02,2.471,0,4.942A1.063,1.063,0,0,1,38,270.849q-2.438.011-4.876,0a1.06,1.06,0,0,1-1.207-1.195q-.016-2.438,0-4.877c.005-.845.387-1.213,1.244-1.223.8-.009,1.6,0,2.405,0m-1.533,5.174h3.048v-3.06H34.036Z" transform="translate(-27.745 -229.138)" fill="#12263f"/>
                <path id="Trazado_232059" data-name="Trazado 232059" d="M31.9,339.053c0-.825-.011-1.651,0-2.476a1.05,1.05,0,0,1,1.176-1.163q2.476-.018,4.952,0a1.051,1.051,0,0,1,1.163,1.178q.017,2.476,0,4.953a1.047,1.047,0,0,1-1.176,1.163q-2.476.017-4.952,0a1.053,1.053,0,0,1-1.166-1.176c-.014-.825,0-1.651,0-2.476Zm2.1,1.529h3.067v-3.031H34Z" transform="translate(-27.728 -291.614)" fill="#12263f"/>
                <path id="Trazado_232060" data-name="Trazado 232060" d="M35.634,407.317c.8,0,1.6-.009,2.406,0a1.05,1.05,0,0,1,1.176,1.158q.016,2.471,0,4.943a1.06,1.06,0,0,1-1.209,1.193q-2.439.015-4.877,0a1.058,1.058,0,0,1-1.207-1.193q-.013-2.439,0-4.878c0-.845.388-1.218,1.241-1.227.824-.008,1.647,0,2.471,0M37.1,409.44H34.049v3.065H37.1Z" transform="translate(-27.748 -354.136)" fill="#12263f"/>
                <rect id="Rectángulo_58427" data-name="Rectángulo 58427" width="9.31" height="2.027" transform="translate(13.595 37.575)" fill="#12263f"/>
                <rect id="Rectángulo_58428" data-name="Rectángulo 58428" width="9.292" height="2.033" transform="translate(13.595 46.955)" fill="#12263f"/>
                <rect id="Rectángulo_58429" data-name="Rectángulo 58429" width="9.318" height="2.015" transform="translate(13.593 56.339)" fill="#12263f"/>
                <path id="Trazado_232061" data-name="Trazado 232061" d="M76.072,111.82a4.17,4.17,0,1,1-4.187,4.168,4.175,4.175,0,0,1,4.187-4.168m2.063,4.14a2.08,2.08,0,1,0-2.033,2.111,2.086,2.086,0,0,0,2.033-2.111" transform="translate(-62.5 -97.221)" fill="#12263f"/>
              </g>
            </g>
          </g>
        </g>
        <g id="Grupo_180498" data-name="Grupo 180498">
          <g id="Grupo_180497" data-name="Grupo 180497" clip-path="url(#clip-path)">
            <path id="Trazado_232023" data-name="Trazado 232023" d="M524.807,278.065h0c0,135.233-109.628,244.861-244.861,244.861S35.083,413.3,35.083,278.065,144.713,33.2,279.946,33.2s244.861,109.63,244.861,244.863h0C524.807,142.832,415.179,33.2,279.946,33.2S35.083,142.832,35.083,278.065s109.63,244.861,244.863,244.861S524.807,413.3,524.807,278.065Z" transform="translate(28.461 26.935)" fill="url(#linear-gradient-4)"/>
          </g>
        </g>
        <g id="Grupo_180502" data-name="Grupo 180502">
          <g id="Grupo_180501" data-name="Grupo 180501" clip-path="url(#clip-path)">
            <path id="Trazado_232026" data-name="Trazado 232026" d="M142.78,105.753h0l-1.578.911A38.981,38.981,0,0,1,87.93,92.389L86.4,89.739a38.976,38.976,0,0,1,14.274-53.272l1.578-.911A38.981,38.981,0,0,1,155.524,49.83l1.531,2.65a38.981,38.981,0,0,1-14.274,53.272h0A38.981,38.981,0,0,0,157.055,52.48l-1.531-2.65a38.981,38.981,0,0,0-53.272-14.274l-1.578.911A38.976,38.976,0,0,0,86.4,89.739l1.531,2.65A38.981,38.981,0,0,0,141.2,106.664l1.578-.911Z" transform="translate(65.847 24.601)" fill="url(#linear-gradient-5)"/>
          </g>
        </g>
        <g id="Grupo_180514" data-name="Grupo 180514">
          <g id="Grupo_180513" data-name="Grupo 180513" clip-path="url(#clip-path)">
            <path id="Trazado_232034" data-name="Trazado 232034" d="M141.2,266.655h0l1.578.911a38.976,38.976,0,0,1,14.274,53.272l-1.529,2.65a38.981,38.981,0,0,1-53.272,14.274l-1.579-.911A38.981,38.981,0,0,1,86.4,283.579l1.531-2.65A38.981,38.981,0,0,1,141.2,266.655h0a38.981,38.981,0,0,0-53.272,14.274l-1.531,2.65a38.981,38.981,0,0,0,14.274,53.272l1.579.911a38.981,38.981,0,0,0,53.272-14.274l1.529-2.65a38.976,38.976,0,0,0-14.274-53.272l-1.578-.911Z" transform="translate(65.847 212.08)" fill="url(#linear-gradient-6)"/>
          </g>
        </g>
        <g id="Grupo_180526" data-name="Grupo 180526">
          <g id="Grupo_180525" data-name="Grupo 180525" clip-path="url(#clip-path)">
            <path id="Trazado_232042" data-name="Trazado 232042" d="M281.322,187.178h0v-1.822a39,39,0,0,1,39-39h3.059a39,39,0,0,1,39,39v1.822a39,39,0,0,1-39,39H320.32a39,39,0,0,1-39-39h0a39,39,0,0,0,39,39h3.059a39,39,0,0,0,39-39v-1.822a39,39,0,0,0-39-39H320.32a39,39,0,0,0-39,39v1.822Z" transform="translate(228.222 118.733)" fill="url(#linear-gradient-7)"/>
          </g>
        </g>
        <g id="Grupo_180532" data-name="Grupo 180532">
          <g id="Grupo_180531" data-name="Grupo 180531" clip-path="url(#clip-path)">
            <path id="Trazado_232046" data-name="Trazado 232046" d="M235.676,106.664h0l-1.578-.911A38.981,38.981,0,0,1,219.824,52.48l1.529-2.65a38.981,38.981,0,0,1,53.272-14.274l1.579.911a38.981,38.981,0,0,1,14.274,53.272l-1.53,2.65a38.981,38.981,0,0,1-53.273,14.274h0a38.981,38.981,0,0,0,53.273-14.274l1.53-2.65A38.981,38.981,0,0,0,276.2,36.467l-1.579-.911A38.981,38.981,0,0,0,221.353,49.83l-1.529,2.65A38.981,38.981,0,0,0,234.1,105.753l1.578.911Z" transform="translate(174.089 24.601)" fill="url(#linear-gradient-8)"/>
          </g>
        </g>
      </g>
    </g>
    <g id="Grupo_874578" data-name="Grupo 874578" transform="translate(12734.815 -8608.971)">
      <g id="Grupo_180507" data-name="Grupo 180507" clip-path="url(#clip-path)">
        <path id="Trazado_232030" data-name="Trazado 232030" d="M95.528,185.356h0v1.822a39,39,0,0,1-39,39H53.471a39,39,0,0,1-39-39v-1.822a39,39,0,0,1,39-39H56.53a39,39,0,0,1,39,39h0a39,39,0,0,0-39-39H53.471a39,39,0,0,0-39,39v1.822a39,39,0,0,0,39,39H56.53a39,39,0,0,0,39-39v-1.822Z" transform="translate(11.74 118.733)" fill="url(#linear-gradient-9)"/>
      </g>
    </g>
    <g id="Grupo_874579" data-name="Grupo 874579" transform="translate(13210.493 -8387.379)">
      <g id="Grupo_180550" data-name="Grupo 180550" transform="translate(0 0)" clip-path="url(#clip-path-22)">
        <path id="Trazado_232051" data-name="Trazado 232051" d="M0,0H236.835V238.435H0Z" transform="translate(-90.703 100.741) rotate(-51.563)" fill="#636363"/>
      </g>
      <path id="Trazado_232049" data-name="Trazado 232049" d="M179.723,150.98l-2.524,1.457A62.381,62.381,0,0,1,91.984,129.6l-2.448-4.239A62.382,62.382,0,0,1,112.37,40.15l2.524-1.457a62.381,62.381,0,0,1,85.216,22.834l2.448,4.239a62.382,62.382,0,0,1-22.834,85.215" transform="translate(-69.751 -18.841)" fill="#c8c2c6"/>
      <g id="Grupo_180551" data-name="Grupo 180551" transform="translate(15.29 15.376)">
        <g id="Grupo_180503" data-name="Grupo 180503" clip-path="url(#clip-path-23)">
          <rect id="Rectángulo_58403" data-name="Rectángulo 58403" width="187.909" height="189.697" transform="translate(-70.883 86.372) rotate(-54.203)" fill="url(#linear-gradient-10)"/>
        </g>
      </g>
    </g>
    <g id="Grupo_874580" data-name="Grupo 874580" transform="translate(13143.852 -8211.551)">
      <g id="Grupo_180550-2" data-name="Grupo 180550" transform="translate(0 0)" clip-path="url(#clip-path-22)">
        <path id="Trazado_232051-2" data-name="Trazado 232051" d="M0,0H236.835V238.435H0Z" transform="translate(-90.703 100.741) rotate(-51.563)" fill="#636363"/>
      </g>
      <path id="Trazado_232049-2" data-name="Trazado 232049" d="M179.723,150.98l-2.524,1.457A62.381,62.381,0,0,1,91.984,129.6l-2.448-4.239A62.382,62.382,0,0,1,112.37,40.15l2.524-1.457a62.381,62.381,0,0,1,85.216,22.834l2.448,4.239a62.382,62.382,0,0,1-22.834,85.215" transform="translate(-69.751 -18.841)" fill="#c8c2c6"/>
      <g id="Grupo_180551-2" data-name="Grupo 180551" transform="translate(15.29 15.376)">
        <g id="Grupo_180503-2" data-name="Grupo 180503" clip-path="url(#clip-path-23)">
          <rect id="Rectángulo_58403-2" data-name="Rectángulo 58403" width="187.909" height="189.697" transform="translate(-70.883 86.372) rotate(-54.203)" fill="url(#linear-gradient-10)"/>
        </g>
      </g>
    </g>
    <g id="Grupo_874581" data-name="Grupo 874581" transform="translate(12799.634 -8207.832)">
      <g id="Grupo_180550-3" data-name="Grupo 180550" transform="translate(0 0)" clip-path="url(#clip-path-22)">
        <path id="Trazado_232051-3" data-name="Trazado 232051" d="M0,0H236.835V238.435H0Z" transform="translate(-90.703 100.741) rotate(-51.563)" fill="#636363"/>
      </g>
      <path id="Trazado_232049-3" data-name="Trazado 232049" d="M179.723,150.98l-2.524,1.457A62.381,62.381,0,0,1,91.984,129.6l-2.448-4.239A62.382,62.382,0,0,1,112.37,40.15l2.524-1.457a62.381,62.381,0,0,1,85.216,22.834l2.448,4.239a62.382,62.382,0,0,1-22.834,85.215" transform="translate(-69.751 -18.841)" fill="#c8c2c6"/>
      <g id="Grupo_180551-3" data-name="Grupo 180551" transform="translate(15.29 15.376)">
        <g id="Grupo_180503-3" data-name="Grupo 180503" clip-path="url(#clip-path-23)">
          <rect id="Rectángulo_58403-3" data-name="Rectángulo 58403" width="187.909" height="189.697" transform="translate(-70.883 86.372) rotate(-54.203)" fill="url(#linear-gradient-10)"/>
        </g>
      </g>
    </g>
    <g id="Grupo_874582" data-name="Grupo 874582" transform="translate(12719.917 -8372.193)">
      <g id="Grupo_180550-4" data-name="Grupo 180550" transform="translate(0 0)" clip-path="url(#clip-path-22)">
        <path id="Trazado_232051-4" data-name="Trazado 232051" d="M0,0H236.835V238.435H0Z" transform="translate(-90.703 100.741) rotate(-51.563)" fill="#636363"/>
      </g>
      <path id="Trazado_232049-4" data-name="Trazado 232049" d="M179.723,150.98l-2.524,1.457A62.381,62.381,0,0,1,91.984,129.6l-2.448-4.239A62.382,62.382,0,0,1,112.37,40.15l2.524-1.457a62.381,62.381,0,0,1,85.216,22.834l2.448,4.239a62.382,62.382,0,0,1-22.834,85.215" transform="translate(-69.751 -18.841)" fill="#c8c2c6"/>
      <g id="Grupo_180551-4" data-name="Grupo 180551" transform="translate(15.29 15.376)">
        <g id="Grupo_180503-4" data-name="Grupo 180503" clip-path="url(#clip-path-23)">
          <rect id="Rectángulo_58403-4" data-name="Rectángulo 58403" width="187.909" height="189.697" transform="translate(-70.883 86.372) rotate(-54.203)" fill="url(#linear-gradient-10)"/>
        </g>
      </g>
    </g>
    <g id="Grupo_874583" data-name="Grupo 874583" transform="translate(12774.339 -8547.25)">
      <g id="Grupo_180550-5" data-name="Grupo 180550" transform="translate(0 0)" clip-path="url(#clip-path-22)">
        <path id="Trazado_232051-5" data-name="Trazado 232051" d="M0,0H236.835V238.435H0Z" transform="translate(-90.703 100.741) rotate(-51.563)" fill="#636363"/>
      </g>
      <path id="Trazado_232049-5" data-name="Trazado 232049" d="M179.723,150.98l-2.524,1.457A62.381,62.381,0,0,1,91.984,129.6l-2.448-4.239A62.382,62.382,0,0,1,112.37,40.15l2.524-1.457a62.381,62.381,0,0,1,85.216,22.834l2.448,4.239a62.382,62.382,0,0,1-22.834,85.215" transform="translate(-69.751 -18.841)" fill="#c8c2c6"/>
      <g id="Grupo_180551-5" data-name="Grupo 180551" transform="translate(15.29 15.376)">
        <g id="Grupo_180503-5" data-name="Grupo 180503" clip-path="url(#clip-path-23)">
          <rect id="Rectángulo_58403-5" data-name="Rectángulo 58403" width="187.909" height="189.697" transform="translate(-70.883 86.372) rotate(-54.203)" fill="url(#linear-gradient-10)"/>
        </g>
      </g>
    </g>
    <path id="Trazado_605942" data-name="Trazado 605942" d="M-32.849-4.636h-4.219v2.871h4.951V0h-7.148V-10.664h7.134v1.78h-4.937v2.542h4.219Zm3.831-3.289.066.916a2.767,2.767,0,0,1,2.278-1.062,2.3,2.3,0,0,1,1.875.74,3.451,3.451,0,0,1,.63,2.212V0h-2.117V-5.08a1.379,1.379,0,0,0-.293-.98,1.31,1.31,0,0,0-.974-.3,1.456,1.456,0,0,0-1.34.763V0h-2.117V-7.925ZM-19.27-1.56a1.388,1.388,0,0,0,.952-.322,1.129,1.129,0,0,0,.381-.857h1.985a2.715,2.715,0,0,1-.439,1.476,2.9,2.9,0,0,1-1.183,1.04,3.7,3.7,0,0,1-1.659.37,3.44,3.44,0,0,1-2.681-1.08A4.275,4.275,0,0,1-22.9-3.918v-.139a4.226,4.226,0,0,1,.974-2.922,3.4,3.4,0,0,1,2.673-1.091,3.333,3.333,0,0,1,2.384.846,3,3,0,0,1,.912,2.252h-1.985a1.455,1.455,0,0,0-.381-1.005,1.27,1.27,0,0,0-.967-.387,1.275,1.275,0,0,0-1.117.539,3.125,3.125,0,0,0-.377,1.749v.22A3.164,3.164,0,0,0-20.405-2.1,1.291,1.291,0,0,0-19.27-1.56Zm4.2-2.476a4.7,4.7,0,0,1,.454-2.1,3.324,3.324,0,0,1,1.307-1.428,3.814,3.814,0,0,1,1.981-.505,3.609,3.609,0,0,1,2.618.981A3.939,3.939,0,0,1-7.581-4.424l.015.542A4.142,4.142,0,0,1-8.584-.956a3.539,3.539,0,0,1-2.732,1.1,3.556,3.556,0,0,1-2.736-1.1A4.215,4.215,0,0,1-15.073-3.94Zm2.117.15a2.962,2.962,0,0,0,.425,1.727,1.4,1.4,0,0,0,1.216.6,1.4,1.4,0,0,0,1.2-.591,3.241,3.241,0,0,0,.432-1.889,2.933,2.933,0,0,0-.432-1.716,1.4,1.4,0,0,0-1.216-.609,1.382,1.382,0,0,0-1.2.605A3.3,3.3,0,0,0-12.957-3.885Zm8.643-4.039.066.916A2.767,2.767,0,0,1-1.97-8.071,2.3,2.3,0,0,1-.1-7.332,3.451,3.451,0,0,1,.535-5.12V0H-1.582V-5.08a1.379,1.379,0,0,0-.293-.98,1.31,1.31,0,0,0-.974-.3,1.456,1.456,0,0,0-1.34.763V0H-6.306V-7.925ZM4.673-9.873v1.948H6.028v1.553H4.673v3.955a.944.944,0,0,0,.168.63.846.846,0,0,0,.645.19,3.376,3.376,0,0,0,.623-.051v1.6a4.358,4.358,0,0,1-1.282.19A2.021,2.021,0,0,1,2.556-2.1v-4.27H1.4V-7.925H2.556V-9.873ZM11.66-5.94A5.751,5.751,0,0,0,10.9-6a1.55,1.55,0,0,0-1.575.813V0H7.207V-7.925h2l.059.945A1.961,1.961,0,0,1,11.03-8.071a2.218,2.218,0,0,1,.659.1ZM17.051,0a2.351,2.351,0,0,1-.212-.71,2.561,2.561,0,0,1-2,.857,2.814,2.814,0,0,1-1.93-.674,2.167,2.167,0,0,1-.765-1.7,2.24,2.24,0,0,1,.934-1.934,4.608,4.608,0,0,1,2.7-.681h.974V-5.3a1.306,1.306,0,0,0-.282-.879,1.109,1.109,0,0,0-.89-.33,1.261,1.261,0,0,0-.839.256.871.871,0,0,0-.3.7H12.319a2.126,2.126,0,0,1,.425-1.274,2.808,2.808,0,0,1,1.2-.919,4.378,4.378,0,0,1,1.743-.333,3.459,3.459,0,0,1,2.325.736,2.575,2.575,0,0,1,.861,2.069v3.435a3.789,3.789,0,0,0,.315,1.707V0ZM15.3-1.472a1.823,1.823,0,0,0,.864-.209,1.371,1.371,0,0,0,.586-.56V-3.6h-.791q-1.589,0-1.692,1.1l-.007.125a.847.847,0,0,0,.278.652A1.081,1.081,0,0,0,15.3-1.472ZM27.642-3.889a4.8,4.8,0,0,1-.813,2.97A2.693,2.693,0,0,1,24.558.146,2.474,2.474,0,0,1,22.5-.842L22.4,0H20.5V-11.25h2.117v4.036a2.411,2.411,0,0,1,1.926-.857,2.715,2.715,0,0,1,2.274,1.066,4.806,4.806,0,0,1,.824,3Zm-2.117-.161a3.17,3.17,0,0,0-.381-1.76,1.287,1.287,0,0,0-1.135-.555,1.4,1.4,0,0,0-1.392.83V-2.4a1.415,1.415,0,0,0,1.406.837,1.307,1.307,0,0,0,1.348-1.014A5.245,5.245,0,0,0,25.525-4.051ZM31.179,0H29.055V-11.25h2.124ZM36.57.146A3.89,3.89,0,0,1,33.732-.923a3.8,3.8,0,0,1-1.095-2.849v-.205A4.787,4.787,0,0,1,33.1-6.112a3.386,3.386,0,0,1,1.307-1.45,3.669,3.669,0,0,1,1.93-.509A3.289,3.289,0,0,1,38.9-7.046a4.167,4.167,0,0,1,.934,2.908v.864H34.783A1.966,1.966,0,0,0,35.4-2.029a1.871,1.871,0,0,0,1.307.469,2.285,2.285,0,0,0,1.912-.886l1.04,1.165A3.178,3.178,0,0,1,38.372-.231,4.229,4.229,0,0,1,36.57.146Zm-.242-6.511a1.323,1.323,0,0,0-1.022.427,2.209,2.209,0,0,0-.5,1.221h2.944v-.169a1.576,1.576,0,0,0-.381-1.092A1.365,1.365,0,0,0,36.328-6.365Z" transform="translate(13287.168 -8287.97)" fill="#12263f"/>
    <path id="Trazado_605943" data-name="Trazado 605943" d="M-27.59-5.09a6.425,6.425,0,0,1-.483,2.6,4.457,4.457,0,0,1-1.34,1.769L-27.642.667l-1.4,1.238L-31.311.081a4.806,4.806,0,0,1-.806.066,4.437,4.437,0,0,1-2.366-.637,4.233,4.233,0,0,1-1.611-1.82,6.253,6.253,0,0,1-.579-2.721v-.527A6.4,6.4,0,0,1-36.1-8.331a4.226,4.226,0,0,1,1.6-1.838,4.412,4.412,0,0,1,2.369-.641,4.412,4.412,0,0,1,2.369.641,4.226,4.226,0,0,1,1.6,1.838,6.386,6.386,0,0,1,.568,2.765Zm-2.227-.483a4.488,4.488,0,0,0-.6-2.549,1.957,1.957,0,0,0-1.714-.872,1.958,1.958,0,0,0-1.707.861,4.436,4.436,0,0,0-.608,2.523v.52a4.544,4.544,0,0,0,.6,2.534,1.952,1.952,0,0,0,1.729.9,1.935,1.935,0,0,0,1.7-.868,4.517,4.517,0,0,0,.6-2.531Zm8.445,4.768A2.654,2.654,0,0,1-23.54.146a2.5,2.5,0,0,1-1.945-.732,3.127,3.127,0,0,1-.685-2.146V-7.925h2.117V-2.8q0,1.239,1.128,1.239a1.528,1.528,0,0,0,1.479-.748V-7.925h2.124V0h-1.992Zm7.295.952A3.89,3.89,0,0,1-16.915-.923,3.8,3.8,0,0,1-18.01-3.772v-.205a4.787,4.787,0,0,1,.461-2.135,3.386,3.386,0,0,1,1.307-1.45,3.669,3.669,0,0,1,1.93-.509,3.289,3.289,0,0,1,2.56,1.025,4.167,4.167,0,0,1,.934,2.908v.864h-5.046a1.966,1.966,0,0,0,.619,1.245,1.871,1.871,0,0,0,1.307.469,2.285,2.285,0,0,0,1.912-.886l1.04,1.165A3.178,3.178,0,0,1-12.275-.231,4.229,4.229,0,0,1-14.077.146Zm-.242-6.511a1.323,1.323,0,0,0-1.022.427,2.209,2.209,0,0,0-.5,1.221H-12.9v-.169a1.576,1.576,0,0,0-.381-1.092A1.365,1.365,0,0,0-14.319-6.365ZM-1.289,0A2.351,2.351,0,0,1-1.5-.71a2.561,2.561,0,0,1-2,.857,2.814,2.814,0,0,1-1.93-.674,2.167,2.167,0,0,1-.765-1.7A2.24,2.24,0,0,1-5.262-4.16a4.608,4.608,0,0,1,2.7-.681h.974V-5.3a1.306,1.306,0,0,0-.282-.879,1.109,1.109,0,0,0-.89-.33,1.261,1.261,0,0,0-.839.256.871.871,0,0,0-.3.7H-6.021A2.126,2.126,0,0,1-5.6-6.819a2.808,2.808,0,0,1,1.2-.919,4.378,4.378,0,0,1,1.743-.333,3.459,3.459,0,0,1,2.325.736A2.575,2.575,0,0,1,.535-5.266v3.435A3.789,3.789,0,0,0,.85-.125V0ZM-3.04-1.472a1.823,1.823,0,0,0,.864-.209,1.371,1.371,0,0,0,.586-.56V-3.6H-2.38q-1.589,0-1.692,1.1l-.007.125a.847.847,0,0,0,.278.652A1.081,1.081,0,0,0-3.04-1.472ZM9.294-3.889A4.753,4.753,0,0,1,8.463-.956,2.665,2.665,0,0,1,6.218.146,2.469,2.469,0,0,1,4.277-.688V3.047H2.161V-7.925H4.124l.073.776A2.488,2.488,0,0,1,6.2-8.071,2.683,2.683,0,0,1,8.481-6.987,4.882,4.882,0,0,1,9.294-4ZM7.178-4.051a3.136,3.136,0,0,0-.392-1.712,1.275,1.275,0,0,0-1.139-.6,1.385,1.385,0,0,0-1.37.764v3.255a1.409,1.409,0,0,0,1.384.786Q7.178-1.56,7.178-4.051Zm3.1.015a4.7,4.7,0,0,1,.454-2.1,3.324,3.324,0,0,1,1.307-1.428,3.814,3.814,0,0,1,1.981-.505,3.609,3.609,0,0,1,2.618.981,3.939,3.939,0,0,1,1.132,2.666l.015.542A4.142,4.142,0,0,1,16.765-.956a3.539,3.539,0,0,1-2.732,1.1A3.556,3.556,0,0,1,11.3-.952,4.215,4.215,0,0,1,10.276-3.94Zm2.117.15a2.962,2.962,0,0,0,.425,1.727,1.4,1.4,0,0,0,1.216.6,1.4,1.4,0,0,0,1.2-.591,3.241,3.241,0,0,0,.432-1.889,2.933,2.933,0,0,0-.432-1.716,1.4,1.4,0,0,0-1.216-.609,1.382,1.382,0,0,0-1.2.605A3.3,3.3,0,0,0,12.393-3.885ZM23.54-5.94A5.751,5.751,0,0,0,22.778-6a1.55,1.55,0,0,0-1.575.813V0H19.087V-7.925h2l.059.945A1.961,1.961,0,0,1,22.91-8.071a2.218,2.218,0,0,1,.659.1Zm3.918-3.933v1.948h1.355v1.553H27.458v3.955a.944.944,0,0,0,.168.63.846.846,0,0,0,.645.19,3.376,3.376,0,0,0,.623-.051v1.6a4.358,4.358,0,0,1-1.282.19A2.021,2.021,0,0,1,25.342-2.1v-4.27H24.185V-7.925h1.157V-9.873ZM33.64.146A3.89,3.89,0,0,1,30.8-.923a3.8,3.8,0,0,1-1.095-2.849v-.205a4.787,4.787,0,0,1,.461-2.135,3.386,3.386,0,0,1,1.307-1.45,3.669,3.669,0,0,1,1.93-.509,3.289,3.289,0,0,1,2.56,1.025A4.167,4.167,0,0,1,36.9-4.138v.864H31.853a1.966,1.966,0,0,0,.619,1.245,1.871,1.871,0,0,0,1.307.469,2.285,2.285,0,0,0,1.912-.886l1.04,1.165A3.178,3.178,0,0,1,35.442-.231,4.229,4.229,0,0,1,33.64.146ZM33.4-6.365a1.323,1.323,0,0,0-1.022.427,2.209,2.209,0,0,0-.5,1.221h2.944v-.169a1.576,1.576,0,0,0-.381-1.092A1.365,1.365,0,0,0,33.4-6.365ZM-12.828,12.356l2.417-8.02h2.446L-11.678,15h-2.292l-3.7-10.664h2.439ZM-2.845,15a2.351,2.351,0,0,1-.212-.71,2.561,2.561,0,0,1-2,.857,2.814,2.814,0,0,1-1.93-.674,2.167,2.167,0,0,1-.765-1.7,2.24,2.24,0,0,1,.934-1.934,4.608,4.608,0,0,1,2.7-.681h.974V9.7a1.306,1.306,0,0,0-.282-.879,1.109,1.109,0,0,0-.89-.33,1.261,1.261,0,0,0-.839.256.871.871,0,0,0-.3.7H-7.577a2.126,2.126,0,0,1,.425-1.274,2.808,2.808,0,0,1,1.2-.919,4.378,4.378,0,0,1,1.743-.333,3.459,3.459,0,0,1,2.325.736,2.575,2.575,0,0,1,.861,2.069v3.435a3.789,3.789,0,0,0,.315,1.707V15ZM-4.6,13.528a1.823,1.823,0,0,0,.864-.209,1.371,1.371,0,0,0,.586-.56V11.4h-.791q-1.589,0-1.692,1.1l-.007.125a.847.847,0,0,0,.278.652A1.081,1.081,0,0,0-4.6,13.528ZM2.838,15H.714V3.75H2.838Zm1.414-4.036a4.7,4.7,0,0,1,.454-2.1A3.324,3.324,0,0,1,6.013,7.434a3.814,3.814,0,0,1,1.981-.505,3.609,3.609,0,0,1,2.618.981,3.939,3.939,0,0,1,1.132,2.666l.015.542a4.142,4.142,0,0,1-1.018,2.926,3.539,3.539,0,0,1-2.732,1.1,3.556,3.556,0,0,1-2.736-1.1A4.215,4.215,0,0,1,4.252,11.06Zm2.117.15a2.962,2.962,0,0,0,.425,1.727,1.4,1.4,0,0,0,1.216.6,1.4,1.4,0,0,0,1.2-.591,3.241,3.241,0,0,0,.432-1.889A2.933,2.933,0,0,0,9.21,9.244a1.4,1.4,0,0,0-1.216-.609,1.382,1.382,0,0,0-1.2.605A3.3,3.3,0,0,0,6.368,11.115ZM17.516,9.06A5.751,5.751,0,0,0,16.754,9a1.55,1.55,0,0,0-1.575.813V15H13.063V7.075h2l.059.945a1.961,1.961,0,0,1,1.765-1.091,2.218,2.218,0,0,1,.659.1Z" transform="translate(13221.168 -8117.109)" fill="#12263f"/>
    <g id="Grupo_874586" data-name="Grupo 874586" transform="translate(13202.667 -8183.034)">
      <g id="Grupo_183182" data-name="Grupo 183182" clip-path="url(#clip-path-32)">
        <path id="Trazado_237961" data-name="Trazado 237961" d="M40.5,40.1a.806.806,0,0,1-.792.4c-1.621-.015-3.243-.006-4.864-.007-.571,0-.762-.185-.767-.748-.005-.6,0-1.2,0-1.877-.333.176-.606.324-.882.466-1,.519-2,1.068-3.021,1.543a7.054,7.054,0,0,1-2.994.616H24.25c-.568,0-.841-.2-.834-.6s.269-.575.815-.582c1.185-.016,2.371-.013,3.555-.063a6.323,6.323,0,0,0,2.695-.826c1.092-.58,2.179-1.171,3.277-1.74a.532.532,0,0,0,.32-.554c-.01-2.834,0-5.668-.017-8.5a.954.954,0,0,0-.255-.608c-1.177-1.172-2.374-2.323-3.565-3.48A5.171,5.171,0,0,1,28.6,19.687c0-1.055.01-2.109,0-3.163a1.71,1.71,0,0,0-1.553-1.819,1.673,1.673,0,0,0-1.805,1.756c-.011,1.648,0,3.3,0,4.943,0,.721-.165.888-.876.889-3.177,0-6.353,0-9.53,0a1.661,1.661,0,0,0-1.715,1.761,1.643,1.643,0,0,0,1.575,1.572c.566.016,1.134,0,1.7.005.518,0,.8.219.8.608s-.264.59-.809.592c-1,0-2-.014-3.005.005a1.684,1.684,0,1,0,.009,3.362c1.015.01,2.03,0,3.045,0,.5,0,.765.21.762.594s-.283.593-.772.6c-.554,0-1.107-.006-1.661,0a1.667,1.667,0,0,0-.038,3.334c.474.015.949,0,1.423.007.451.006.738.236.753.589.014.336-.242.577-.673.633a1.656,1.656,0,0,0-1.6,1.79,1.725,1.725,0,0,0,1.821,1.558c1.542.007,3.084,0,4.627,0,.5,0,.759.214.752.6s-.261.58-.736.58q-9.451,0-18.9,0A2.146,2.146,0,0,1,0,38.284Q0,25.294,0,12.3c0-.5.211-.759.6-.754s.583.262.583.772q0,12.812,0,25.624c0,1.036.33,1.365,1.369,1.365h11.4A2.957,2.957,0,0,1,14,35.868a2.951,2.951,0,0,1-1.532-4.558,2.9,2.9,0,0,1,.009-5.566,3.027,3.027,0,0,1-.085-3.43c-.149-.007-.286-.019-.423-.019H3.429c-.7,0-.887-.187-.887-.892q0-6.5,0-13.01c0-.712.169-.88.885-.88q4.073,0,8.146,0a.692.692,0,0,1,.684.295.591.591,0,0,1-.565.892c-1.213.009-2.425,0-3.638,0H4.768L11.059,14.1l6.254-5.367c-.152-.018-.244-.037-.336-.037-.791,0-1.582,0-2.373,0-.426,0-.683-.234-.682-.6s.255-.586.689-.587q2.1-.006,4.192,0c.564,0,.762.19.763.758.006,1.634,0,3.269,0,4.9q0,3.7,0,7.395v.49h1.323V6.023H1.185c0,.944,0,1.877,0,2.809,0,.185.008.37,0,.553A.578.578,0,0,1,.6,9.962a.571.571,0,0,1-.6-.594C0,8.511,0,7.654,0,6.8Q0,4.563,0,2.329A2.157,2.157,0,0,1,1.643.063.449.449,0,0,0,1.74,0H20.406a2.513,2.513,0,0,1,1.743,2.745c-.033,5.944-.014,11.888-.014,17.832v.483h1.913v-.453c0-1.41-.034-2.822.019-4.23a3.463,3.463,0,0,1,.4-1.459,2.781,2.781,0,0,1,3.143-1.331,2.926,2.926,0,0,1,2.2,2.808c.018,1.054.021,2.109,0,3.163a4.114,4.114,0,0,0,1.272,3.121c.9.893,1.774,1.8,2.661,2.707.086.088.181.167.336.309,0-.454,0-.818,0-1.183,0-.667.182-.85.836-.85,1.581,0,3.163.007,4.745-.006a.9.9,0,0,1,.843.39ZM1.188,4.744H20.926c0-.771,0-1.507,0-2.243,0-1-.324-1.317-1.332-1.317H2.516c-.119,0-.238-.005-.356,0a.977.977,0,0,0-.966.962C1.17,3,1.188,3.86,1.188,4.744m34.1,34.542h3.99v-14.4h-3.99ZM10.139,14.894,3.786,9.44V20.349l6.353-5.455m8.208-5.465L11.982,14.9l6.365,5.461ZM17.322,21.06,11.06,15.685,4.8,21.06Z" transform="translate(0 0.001)" fill="#12263f"/>
        <path id="Trazado_237962" data-name="Trazado 237962" d="M35.688,339.732c-.922,0-1.844,0-2.766,0-.487,0-.776-.227-.785-.592s.3-.621.8-.622q2.766,0,5.533,0c.534,0,.809.249.769.674-.033.35-.276.535-.743.538-.935.006-1.871,0-2.806,0" transform="translate(-29.59 -311.688)" fill="#12263f"/>
        <path id="Trazado_237963" data-name="Trazado 237963" d="M35.68,299.614q-1.4,0-2.806,0c-.46,0-.736-.218-.745-.578s.278-.6.759-.6q2.806,0,5.611,0c.475,0,.726.2.733.579.007.4-.246.6-.747.6q-1.4,0-2.806,0" transform="translate(-29.583 -274.78)" fill="#12263f"/>
        <path id="Trazado_237964" data-name="Trazado 237964" d="M35.7,380.253c-.935,0-1.87,0-2.806,0-.475,0-.768-.241-.76-.612s.283-.58.745-.581q2.825-.005,5.651,0c.47,0,.715.221.707.605s-.266.585-.732.587c-.935,0-1.87,0-2.806,0" transform="translate(-29.587 -349.017)" fill="#12263f"/>
        <path id="Trazado_237965" data-name="Trazado 237965" d="M33.593,30.047c.25,0,.5-.011.749,0a.625.625,0,0,1,.626.588.589.589,0,0,1-.6.6c-.538.021-1.078.015-1.616,0a.567.567,0,0,1-.582-.577.6.6,0,0,1,.6-.611c.275-.018.552,0,.828,0" transform="translate(-29.618 -27.661)" fill="#12263f"/>
      </g>
    </g>
    <path id="Trazado_605944" data-name="Trazado 605944" d="M-2.424-10.664V-3.64A3.6,3.6,0,0,1-3.519-.872,4.221,4.221,0,0,1-6.511.146,4.269,4.269,0,0,1-9.478-.842,3.535,3.535,0,0,1-10.6-3.56v-7.1h2.2v7.039A2.032,2.032,0,0,0-7.9-2.1a1.926,1.926,0,0,0,1.388.48q1.853,0,1.882-1.948v-7.1Zm-3.691-2.856h2.307L-5.837-11.25H-7.559ZM1.772-9.873v1.948H3.127v1.553H1.772v3.955a.944.944,0,0,0,.168.63.846.846,0,0,0,.645.19,3.376,3.376,0,0,0,.623-.051v1.6a4.358,4.358,0,0,1-1.282.19A2.021,2.021,0,0,1-.344-2.1v-4.27H-1.5V-7.925H-.344V-9.873ZM6.541,0H4.417V-7.925H6.541ZM4.292-9.976a1.042,1.042,0,0,1,.319-.784,1.2,1.2,0,0,1,.868-.308,1.2,1.2,0,0,1,.864.308,1.036,1.036,0,0,1,.322.784,1.039,1.039,0,0,1-.326.791,1.2,1.2,0,0,1-.861.308,1.2,1.2,0,0,1-.861-.308A1.039,1.039,0,0,1,4.292-9.976ZM10.518,0H8.394V-11.25h2.124Z" transform="translate(12877.929 -8094.997)" fill="#12263f"/>
    <path id="Trazado_605940" data-name="Trazado 605940" d="M-14.623-3.552a3.774,3.774,0,0,1-1.271,2.71,4.463,4.463,0,0,1-3.021.989,4.013,4.013,0,0,1-3.226-1.381,5.661,5.661,0,0,1-1.176-3.79v-.652a6.393,6.393,0,0,1,.542-2.71,4.062,4.062,0,0,1,1.549-1.8,4.339,4.339,0,0,1,2.34-.626,4.348,4.348,0,0,1,2.974.989,4.055,4.055,0,0,1,1.3,2.776h-2.2a2.227,2.227,0,0,0-.575-1.5,2.129,2.129,0,0,0-1.505-.465,1.867,1.867,0,0,0-1.644.787,4.413,4.413,0,0,0-.56,2.443v.806a4.723,4.723,0,0,0,.524,2.527,1.832,1.832,0,0,0,1.652.8,2.169,2.169,0,0,0,1.52-.465,2.1,2.1,0,0,0,.575-1.439ZM-8.866-5.94A5.751,5.751,0,0,0-9.628-6a1.55,1.55,0,0,0-1.575.813V0h-2.117V-7.925h2l.059.945A1.961,1.961,0,0,1-9.5-8.071a2.218,2.218,0,0,1,.659.1ZM-4.34.146A3.89,3.89,0,0,1-7.178-.923,3.8,3.8,0,0,1-8.273-3.772v-.205a4.787,4.787,0,0,1,.461-2.135A3.386,3.386,0,0,1-6.5-7.562a3.669,3.669,0,0,1,1.93-.509,3.289,3.289,0,0,1,2.56,1.025A4.167,4.167,0,0,1-1.08-4.138v.864H-6.127a1.966,1.966,0,0,0,.619,1.245A1.871,1.871,0,0,0-4.2-1.56a2.285,2.285,0,0,0,1.912-.886l1.04,1.165A3.178,3.178,0,0,1-2.538-.231,4.229,4.229,0,0,1-4.34.146Zm-.242-6.511A1.323,1.323,0,0,0-5.6-5.938a2.209,2.209,0,0,0-.5,1.221H-3.16v-.169a1.576,1.576,0,0,0-.381-1.092A1.365,1.365,0,0,0-4.581-6.365ZM2.406,0H.289V-7.925H2.406ZM1.783-11.14H4.091L2.062-8.87H.341Zm9.587,7.251a4.8,4.8,0,0,1-.813,2.97A2.693,2.693,0,0,1,8.287.146,2.474,2.474,0,0,1,6.229-.842L6.134,0H4.23V-11.25H6.346v4.036a2.411,2.411,0,0,1,1.926-.857,2.715,2.715,0,0,1,2.274,1.066,4.806,4.806,0,0,1,.824,3ZM9.254-4.051a3.17,3.17,0,0,0-.381-1.76,1.287,1.287,0,0,0-1.135-.555,1.4,1.4,0,0,0-1.392.83V-2.4a1.415,1.415,0,0,0,1.406.837A1.307,1.307,0,0,0,9.1-2.574,5.245,5.245,0,0,0,9.254-4.051ZM14.908,0H12.784V-11.25h2.124ZM20.3.146A3.89,3.89,0,0,1,17.461-.923a3.8,3.8,0,0,1-1.095-2.849v-.205a4.787,4.787,0,0,1,.461-2.135,3.386,3.386,0,0,1,1.307-1.45,3.669,3.669,0,0,1,1.93-.509,3.289,3.289,0,0,1,2.56,1.025,4.167,4.167,0,0,1,.934,2.908v.864H18.512a1.966,1.966,0,0,0,.619,1.245,1.871,1.871,0,0,0,1.307.469,2.285,2.285,0,0,0,1.912-.886l1.04,1.165A3.178,3.178,0,0,1,22.1-.231,4.229,4.229,0,0,1,20.3.146Zm-.242-6.511a1.323,1.323,0,0,0-1.022.427,2.209,2.209,0,0,0-.5,1.221h2.944v-.169A1.576,1.576,0,0,0,21.1-5.979,1.365,1.365,0,0,0,20.057-6.365Z" transform="translate(12798.382 -8269.136)" fill="#12263f"/>
    <path id="Trazado_605938" data-name="Trazado 605938" d="M-30.172,0V-10.664h3.281a4.983,4.983,0,0,1,2.516.634,4.418,4.418,0,0,1,1.732,1.8,5.557,5.557,0,0,1,.623,2.655v.491a5.573,5.573,0,0,1-.612,2.644A4.38,4.38,0,0,1-24.357-.645,5.021,5.021,0,0,1-26.869,0Zm2.2-8.884v7.119h1.062a2.386,2.386,0,0,0,1.97-.842,3.806,3.806,0,0,0,.7-2.41v-.564a3.867,3.867,0,0,0-.674-2.465,2.378,2.378,0,0,0-1.97-.839ZM-16.915.146A3.89,3.89,0,0,1-19.753-.923a3.8,3.8,0,0,1-1.095-2.849v-.205a4.787,4.787,0,0,1,.461-2.135,3.386,3.386,0,0,1,1.307-1.45,3.669,3.669,0,0,1,1.93-.509,3.289,3.289,0,0,1,2.56,1.025,4.167,4.167,0,0,1,.934,2.908v.864H-18.7a1.966,1.966,0,0,0,.619,1.245,1.871,1.871,0,0,0,1.307.469,2.285,2.285,0,0,0,1.912-.886l1.04,1.165A3.178,3.178,0,0,1-15.114-.231,4.229,4.229,0,0,1-16.915.146Zm-.242-6.511a1.323,1.323,0,0,0-1.022.427,2.209,2.209,0,0,0-.5,1.221h2.944v-.169a1.576,1.576,0,0,0-.381-1.092A1.365,1.365,0,0,0-17.157-6.365ZM-8.163-2.19A.682.682,0,0,0-8.547-2.8a4.368,4.368,0,0,0-1.234-.4q-2.827-.593-2.827-2.4a2.178,2.178,0,0,1,.875-1.761,3.531,3.531,0,0,1,2.289-.707,3.8,3.8,0,0,1,2.413.71,2.239,2.239,0,0,1,.9,1.846H-8.243a1.024,1.024,0,0,0-.293-.751,1.24,1.24,0,0,0-.916-.3,1.267,1.267,0,0,0-.828.242.763.763,0,0,0-.293.615.652.652,0,0,0,.333.568,3.428,3.428,0,0,0,1.124.374,9.183,9.183,0,0,1,1.333.355A2.19,2.19,0,0,1-6.1-2.278a2.067,2.067,0,0,1-.93,1.754,4.013,4.013,0,0,1-2.4.67,4.191,4.191,0,0,1-1.769-.355,2.968,2.968,0,0,1-1.212-.974,2.263,2.263,0,0,1-.439-1.337h2.007a1.105,1.105,0,0,0,.417.864,1.656,1.656,0,0,0,1.04.3,1.533,1.533,0,0,0,.919-.231A.718.718,0,0,0-8.163-2.19ZM-1.095.146A3.89,3.89,0,0,1-3.933-.923,3.8,3.8,0,0,1-5.028-3.772v-.205a4.787,4.787,0,0,1,.461-2.135,3.386,3.386,0,0,1,1.307-1.45,3.669,3.669,0,0,1,1.93-.509A3.289,3.289,0,0,1,1.23-7.046a4.167,4.167,0,0,1,.934,2.908v.864H-2.882a1.966,1.966,0,0,0,.619,1.245A1.871,1.871,0,0,0-.956-1.56,2.285,2.285,0,0,0,.956-2.446L2-1.282A3.178,3.178,0,0,1,.707-.231,4.229,4.229,0,0,1-1.095.146Zm-.242-6.511a1.323,1.323,0,0,0-1.022.427,2.209,2.209,0,0,0-.5,1.221H.084v-.169A1.576,1.576,0,0,0-.3-5.979,1.365,1.365,0,0,0-1.337-6.365ZM7.958,0a2.351,2.351,0,0,1-.212-.71,2.561,2.561,0,0,1-2,.857,2.814,2.814,0,0,1-1.93-.674,2.167,2.167,0,0,1-.765-1.7A2.24,2.24,0,0,1,3.984-4.16a4.608,4.608,0,0,1,2.7-.681h.974V-5.3a1.306,1.306,0,0,0-.282-.879,1.109,1.109,0,0,0-.89-.33,1.261,1.261,0,0,0-.839.256.871.871,0,0,0-.3.7H3.226a2.126,2.126,0,0,1,.425-1.274,2.808,2.808,0,0,1,1.2-.919A4.378,4.378,0,0,1,6.6-8.071a3.459,3.459,0,0,1,2.325.736,2.575,2.575,0,0,1,.861,2.069v3.435A3.789,3.789,0,0,0,10.1-.125V0ZM6.207-1.472a1.823,1.823,0,0,0,.864-.209,1.371,1.371,0,0,0,.586-.56V-3.6H6.866q-1.589,0-1.692,1.1l-.007.125a.847.847,0,0,0,.278.652A1.081,1.081,0,0,0,6.207-1.472ZM18.549-3.889a4.8,4.8,0,0,1-.813,2.97A2.693,2.693,0,0,1,15.465.146a2.474,2.474,0,0,1-2.058-.989l-.1.842h-1.9V-11.25h2.117v4.036a2.411,2.411,0,0,1,1.926-.857,2.715,2.715,0,0,1,2.274,1.066,4.806,4.806,0,0,1,.824,3Zm-2.117-.161a3.17,3.17,0,0,0-.381-1.76,1.287,1.287,0,0,0-1.135-.555,1.4,1.4,0,0,0-1.392.83V-2.4a1.415,1.415,0,0,0,1.406.837,1.307,1.307,0,0,0,1.348-1.014A5.245,5.245,0,0,0,16.432-4.051ZM22.086,0H19.962V-11.25h2.124Zm5.391.146A3.89,3.89,0,0,1,24.639-.923a3.8,3.8,0,0,1-1.095-2.849v-.205a4.787,4.787,0,0,1,.461-2.135,3.386,3.386,0,0,1,1.307-1.45,3.669,3.669,0,0,1,1.93-.509A3.289,3.289,0,0,1,29.8-7.046a4.167,4.167,0,0,1,.934,2.908v.864H25.69a1.966,1.966,0,0,0,.619,1.245,1.871,1.871,0,0,0,1.307.469,2.285,2.285,0,0,0,1.912-.886l1.04,1.165A3.178,3.178,0,0,1,29.279-.231,4.229,4.229,0,0,1,27.477.146Zm-.242-6.511a1.323,1.323,0,0,0-1.022.427,2.209,2.209,0,0,0-.5,1.221h2.944v-.169a1.576,1.576,0,0,0-.381-1.092A1.365,1.365,0,0,0,27.235-6.365Z" transform="translate(12850.634 -8447.74)" fill="#12263f"/>
    <g id="Grupo_874590" data-name="Grupo 874590" transform="translate(13144.873 -8547.25)">
      <g id="Grupo_180550-6" data-name="Grupo 180550" transform="translate(0 0)" clip-path="url(#clip-path-22)">
        <path id="Trazado_232051-6" data-name="Trazado 232051" d="M0,0H236.835V238.435H0Z" transform="translate(-90.703 100.741) rotate(-51.563)" fill="#636363"/>
      </g>
      <path id="Trazado_232049-6" data-name="Trazado 232049" d="M179.723,150.98l-2.524,1.457A62.381,62.381,0,0,1,91.984,129.6l-2.448-4.239A62.382,62.382,0,0,1,112.37,40.15l2.524-1.457a62.381,62.381,0,0,1,85.216,22.834l2.448,4.239a62.382,62.382,0,0,1-22.834,85.215" transform="translate(-69.751 -18.841)" fill="#c8c2c6"/>
      <g id="Grupo_180551-6" data-name="Grupo 180551" transform="translate(15.29 15.376)">
        <g id="Grupo_180503-6" data-name="Grupo 180503" clip-path="url(#clip-path-23)">
          <rect id="Rectángulo_58403-6" data-name="Rectángulo 58403" width="187.909" height="189.697" transform="translate(-70.883 86.372) rotate(-54.203)" fill="url(#linear-gradient-10)"/>
        </g>
      </g>
    </g>
    <path id="Trazado_605941" data-name="Trazado 605941" d="M-14.055-10.664V-3.64A3.6,3.6,0,0,1-15.15-.872,4.221,4.221,0,0,1-18.142.146a4.269,4.269,0,0,1-2.966-.989A3.535,3.535,0,0,1-22.229-3.56v-7.1h2.2v7.039a2.032,2.032,0,0,0,.5,1.527,1.926,1.926,0,0,0,1.388.48q1.853,0,1.882-1.948v-7.1ZM-8.1-2.19A.682.682,0,0,0-8.485-2.8a4.368,4.368,0,0,0-1.234-.4q-2.827-.593-2.827-2.4a2.178,2.178,0,0,1,.875-1.761,3.531,3.531,0,0,1,2.289-.707,3.8,3.8,0,0,1,2.413.71,2.239,2.239,0,0,1,.9,1.846H-8.181a1.024,1.024,0,0,0-.293-.751,1.24,1.24,0,0,0-.916-.3,1.267,1.267,0,0,0-.828.242.763.763,0,0,0-.293.615.652.652,0,0,0,.333.568,3.428,3.428,0,0,0,1.124.374,9.183,9.183,0,0,1,1.333.355A2.19,2.19,0,0,1-6.042-2.278a2.067,2.067,0,0,1-.93,1.754,4.013,4.013,0,0,1-2.4.67,4.191,4.191,0,0,1-1.769-.355,2.968,2.968,0,0,1-1.212-.974A2.263,2.263,0,0,1-12.8-2.52h2.007a1.105,1.105,0,0,0,.417.864,1.656,1.656,0,0,0,1.04.3,1.533,1.533,0,0,0,.919-.231A.718.718,0,0,0-8.1-2.19ZM-.088,0A2.351,2.351,0,0,1-.3-.71a2.561,2.561,0,0,1-2,.857A2.814,2.814,0,0,1-4.23-.527,2.167,2.167,0,0,1-5-2.227,2.24,2.24,0,0,1-4.061-4.16a4.608,4.608,0,0,1,2.7-.681h.974V-5.3A1.306,1.306,0,0,0-.67-6.174a1.109,1.109,0,0,0-.89-.33,1.261,1.261,0,0,0-.839.256.871.871,0,0,0-.3.7H-4.819a2.126,2.126,0,0,1,.425-1.274,2.808,2.808,0,0,1,1.2-.919A4.378,4.378,0,0,1-1.45-8.071a3.459,3.459,0,0,1,2.325.736,2.575,2.575,0,0,1,.861,2.069v3.435A3.789,3.789,0,0,0,2.051-.125V0Zm-1.75-1.472a1.823,1.823,0,0,0,.864-.209,1.371,1.371,0,0,0,.586-.56V-3.6h-.791q-1.589,0-1.692,1.1l-.007.125a.847.847,0,0,0,.278.652A1.081,1.081,0,0,0-1.838-1.472ZM10.5-3.889A4.8,4.8,0,0,1,9.69-.919,2.693,2.693,0,0,1,7.419.146,2.474,2.474,0,0,1,5.361-.842L5.266,0h-1.9V-11.25H5.479v4.036A2.411,2.411,0,0,1,7.4-8.071,2.715,2.715,0,0,1,9.679-7.006a4.806,4.806,0,0,1,.824,3ZM8.386-4.051a3.17,3.17,0,0,0-.381-1.76A1.287,1.287,0,0,0,6.87-6.365a1.4,1.4,0,0,0-1.392.83V-2.4a1.415,1.415,0,0,0,1.406.837A1.307,1.307,0,0,0,8.232-2.574,5.245,5.245,0,0,0,8.386-4.051ZM14.041,0H11.917V-11.25h2.124Zm5.391.146A3.89,3.89,0,0,1,16.593-.923,3.8,3.8,0,0,1,15.5-3.772v-.205a4.787,4.787,0,0,1,.461-2.135,3.386,3.386,0,0,1,1.307-1.45,3.669,3.669,0,0,1,1.93-.509,3.289,3.289,0,0,1,2.56,1.025,4.167,4.167,0,0,1,.934,2.908v.864H17.644a1.966,1.966,0,0,0,.619,1.245,1.871,1.871,0,0,0,1.307.469,2.285,2.285,0,0,0,1.912-.886l1.04,1.165A3.178,3.178,0,0,1,21.233-.231,4.229,4.229,0,0,1,19.431.146Zm-.242-6.511a1.323,1.323,0,0,0-1.022.427,2.209,2.209,0,0,0-.5,1.221H20.61v-.169a1.576,1.576,0,0,0-.381-1.092A1.365,1.365,0,0,0,19.189-6.365Z" transform="translate(13223.146 -8444.698)" fill="#12263f"/>
    <g id="Grupo_874592" data-name="Grupo 874592" transform="translate(12963.521 -8627.146)">
      <g id="Grupo_180550-7" data-name="Grupo 180550" transform="translate(0 0)" clip-path="url(#clip-path-22)">
        <path id="Trazado_232051-7" data-name="Trazado 232051" d="M0,0H236.835V238.435H0Z" transform="translate(-90.703 100.741) rotate(-51.563)" fill="#636363"/>
      </g>
      <path id="Trazado_232049-7" data-name="Trazado 232049" d="M179.723,150.98l-2.524,1.457A62.381,62.381,0,0,1,91.984,129.6l-2.448-4.239A62.382,62.382,0,0,1,112.37,40.15l2.524-1.457a62.381,62.381,0,0,1,85.216,22.834l2.448,4.239a62.382,62.382,0,0,1-22.834,85.215" transform="translate(-69.751 -18.841)" fill="#c8c2c6"/>
      <g id="Grupo_180551-7" data-name="Grupo 180551" transform="translate(15.29 15.376)">
        <g id="Grupo_180503-7" data-name="Grupo 180503" clip-path="url(#clip-path-23)">
          <rect id="Rectángulo_58403-7" data-name="Rectángulo 58403" width="187.909" height="189.697" transform="translate(-70.883 86.372) rotate(-54.203)" fill="url(#linear-gradient-10)"/>
        </g>
      </g>
    </g>
    <path id="Trazado_605939" data-name="Trazado 605939" d="M-26.06-2.2h-3.853L-30.645,0h-2.336l3.97-10.664h2.036L-22.983,0H-25.32Zm-3.259-1.78h2.666l-1.34-3.992ZM-18.831-1.56a1.388,1.388,0,0,0,.952-.322,1.129,1.129,0,0,0,.381-.857h1.985a2.715,2.715,0,0,1-.439,1.476,2.9,2.9,0,0,1-1.183,1.04,3.7,3.7,0,0,1-1.659.37,3.44,3.44,0,0,1-2.681-1.08,4.275,4.275,0,0,1-.981-2.985v-.139a4.226,4.226,0,0,1,.974-2.922,3.4,3.4,0,0,1,2.673-1.091,3.333,3.333,0,0,1,2.384.846,3,3,0,0,1,.912,2.252H-17.5a1.455,1.455,0,0,0-.381-1.005,1.27,1.27,0,0,0-.967-.387,1.275,1.275,0,0,0-1.117.539,3.125,3.125,0,0,0-.377,1.749v.22A3.164,3.164,0,0,0-19.966-2.1,1.291,1.291,0,0,0-18.831-1.56Zm7.822,0a1.388,1.388,0,0,0,.952-.322,1.129,1.129,0,0,0,.381-.857H-7.69A2.715,2.715,0,0,1-8.13-1.263,2.9,2.9,0,0,1-9.313-.223a3.7,3.7,0,0,1-1.659.37,3.44,3.44,0,0,1-2.681-1.08,4.275,4.275,0,0,1-.981-2.985v-.139A4.226,4.226,0,0,1-13.66-6.98a3.4,3.4,0,0,1,2.673-1.091A3.333,3.333,0,0,1-8.6-7.225,3,3,0,0,1-7.69-4.973H-9.675a1.455,1.455,0,0,0-.381-1.005,1.27,1.27,0,0,0-.967-.387,1.275,1.275,0,0,0-1.117.539,3.125,3.125,0,0,0-.377,1.749v.22A3.164,3.164,0,0,0-12.144-2.1,1.291,1.291,0,0,0-11.008-1.56ZM-2.834.146A3.89,3.89,0,0,1-5.673-.923,3.8,3.8,0,0,1-6.768-3.772v-.205a4.787,4.787,0,0,1,.461-2.135A3.386,3.386,0,0,1-5-7.562a3.669,3.669,0,0,1,1.93-.509A3.289,3.289,0,0,1-.509-7.046,4.167,4.167,0,0,1,.425-4.138v.864H-4.622A1.966,1.966,0,0,0-4-2.029,1.871,1.871,0,0,0-2.7-1.56,2.285,2.285,0,0,0-.784-2.446L.256-1.282A3.178,3.178,0,0,1-1.033-.231,4.229,4.229,0,0,1-2.834.146Zm-.242-6.511A1.323,1.323,0,0,0-4.1-5.938a2.209,2.209,0,0,0-.5,1.221h2.944v-.169a1.576,1.576,0,0,0-.381-1.092A1.365,1.365,0,0,0-3.076-6.365ZM5.918-2.19A.682.682,0,0,0,5.533-2.8,4.368,4.368,0,0,0,4.3-3.2Q1.472-3.794,1.472-5.6a2.178,2.178,0,0,1,.875-1.761,3.531,3.531,0,0,1,2.289-.707,3.8,3.8,0,0,1,2.413.71,2.239,2.239,0,0,1,.9,1.846H5.837a1.024,1.024,0,0,0-.293-.751,1.24,1.24,0,0,0-.916-.3,1.267,1.267,0,0,0-.828.242.763.763,0,0,0-.293.615.652.652,0,0,0,.333.568,3.428,3.428,0,0,0,1.124.374A9.183,9.183,0,0,1,6.3-4.409,2.19,2.19,0,0,1,7.976-2.278a2.067,2.067,0,0,1-.93,1.754,4.013,4.013,0,0,1-2.4.67A4.191,4.191,0,0,1,2.875-.209a2.968,2.968,0,0,1-1.212-.974A2.263,2.263,0,0,1,1.223-2.52H3.23a1.105,1.105,0,0,0,.417.864,1.656,1.656,0,0,0,1.04.3,1.533,1.533,0,0,0,.919-.231A.718.718,0,0,0,5.918-2.19ZM11.572,0H9.448V-7.925h2.124ZM9.324-9.976a1.042,1.042,0,0,1,.319-.784,1.2,1.2,0,0,1,.868-.308,1.2,1.2,0,0,1,.864.308,1.036,1.036,0,0,1,.322.784,1.039,1.039,0,0,1-.326.791,1.2,1.2,0,0,1-.861.308,1.2,1.2,0,0,1-.861-.308A1.039,1.039,0,0,1,9.324-9.976ZM20.457-3.889a4.8,4.8,0,0,1-.813,2.97A2.693,2.693,0,0,1,17.373.146a2.474,2.474,0,0,1-2.058-.989L15.22,0h-1.9V-11.25h2.117v4.036a2.411,2.411,0,0,1,1.926-.857,2.715,2.715,0,0,1,2.274,1.066,4.806,4.806,0,0,1,.824,3ZM18.34-4.051a3.17,3.17,0,0,0-.381-1.76,1.287,1.287,0,0,0-1.135-.555,1.4,1.4,0,0,0-1.392.83V-2.4a1.415,1.415,0,0,0,1.406.837,1.307,1.307,0,0,0,1.348-1.014A5.245,5.245,0,0,0,18.34-4.051ZM23.994,0H21.87V-11.25h2.124Zm5.391.146A3.89,3.89,0,0,1,26.547-.923a3.8,3.8,0,0,1-1.095-2.849v-.205a4.787,4.787,0,0,1,.461-2.135,3.386,3.386,0,0,1,1.307-1.45,3.669,3.669,0,0,1,1.93-.509,3.289,3.289,0,0,1,2.56,1.025,4.167,4.167,0,0,1,.934,2.908v.864H27.6a1.966,1.966,0,0,0,.619,1.245,1.871,1.871,0,0,0,1.307.469,2.285,2.285,0,0,0,1.912-.886l1.04,1.165A3.178,3.178,0,0,1,31.187-.231,4.229,4.229,0,0,1,29.385.146Zm-.242-6.511a1.323,1.323,0,0,0-1.022.427,2.209,2.209,0,0,0-.5,1.221h2.944v-.169a1.576,1.576,0,0,0-.381-1.092A1.365,1.365,0,0,0,29.143-6.365Z" transform="translate(13041.096 -8525.275)" fill="#12263f"/>
    <g id="Grupo_874593" data-name="Grupo 874593" transform="translate(13021.982 -8584.738)">
      <g id="Grupo_183176" data-name="Grupo 183176" transform="translate(0 0)" clip-path="url(#clip-path-37)">
        <path id="Trazado_237940" data-name="Trazado 237940" d="M2.408,38.751H3.855q7.669,0,15.339,0a3.4,3.4,0,0,1,.812.035,1.114,1.114,0,0,1,.941,1.079,1.1,1.1,0,0,1-.859,1.219,2.912,2.912,0,0,1-.806.069q-8.771.005-17.541,0C.346,41.156,0,40.816,0,39.435Q0,20.543,0,1.652C0,.318.31,0,1.621,0Q19.693,0,37.765,0c1.25,0,1.591.349,1.591,1.6q0,8.854,0,17.708a4.572,4.572,0,0,1-.005.489A1.178,1.178,0,0,1,37,19.838a5.228,5.228,0,0,1-.017-.733q0-5.508,0-11.017V7.1H2.408ZM36.974,2.346H3.463a4.174,4.174,0,0,1-.489,0c-.52-.062-.659.2-.639.671a11.855,11.855,0,0,1-.008,1.874c-.1.849.227,1.033,1.04,1.031Q19.676,5.878,35.986,5.9a1.651,1.651,0,0,0,.565-.018c.164-.063.4-.236.4-.367.033-1.024.018-2.049.018-3.169" transform="translate(0 0)" fill="#12263f"/>
        <path id="Trazado_237941" data-name="Trazado 237941" d="M138.025,98.178c1.855.39,3.656.774,5.459,1.148a3.745,3.745,0,0,1,3.342,4.043c0,.952-.03,1.906.008,2.857a7.063,7.063,0,0,1-.648,3.23,7.552,7.552,0,0,0-.261,2.392c-.007.089.073.257.133.267,1.028.176.746.978.761,1.61.025,1.034-.008,2.068.011,3.1.012.645-.241.946-.913.944q-6.733-.017-13.466,0c-.669,0-.924-.3-.912-.945.02-1.142,0-2.285.006-3.428s.014-1.158,1.2-1.205c.158-.006.316-.033.522-.055a2.557,2.557,0,0,0-.635-2.446,10.982,10.982,0,0,1-1.885-2.732c-.876-1.625-1.639-3.312-2.447-4.974a1.345,1.345,0,0,1,.382-1.876,2.327,2.327,0,0,1,3.291.125c.395.393.757.818,1.135,1.228l.218-.124v-2c0-2.177,0-4.354,0-6.53a2.366,2.366,0,0,1,2.36-2.637c1.41-.005,2.332,1.034,2.339,2.657.007,1.765,0,3.53,0,5.354m6.6,13.95a13.144,13.144,0,0,1,.45-3.049,7.157,7.157,0,0,0,.569-2.993c-.034-.924,0-1.849-.008-2.774a2.561,2.561,0,0,0-2.335-2.837c-1.86-.389-3.719-.785-5.585-1.144-.613-.118-.893-.39-.872-1.035.034-1.005.011-2.012.007-3.019,0-.952.015-1.9-.032-2.854a1.06,1.06,0,0,0-1.016-1.088,1.126,1.126,0,0,0-1.25.83,2.55,2.55,0,0,0-.082.8c-.005,2.937.012,5.875-.026,8.812,0,.325-.255.857-.5.926a1.4,1.4,0,0,1-1.623-.416,11.675,11.675,0,0,0-1.075-1.115c-.745-.736-1.235-.72-1.982.068.867,1.805,1.715,3.627,2.618,5.421a5.543,5.543,0,0,0,1.212,1.817,3.578,3.578,0,0,1,1.4,3.466c-.005.04.05.088.105.18Zm1,1.285H132.7c0,.839.033,1.625-.011,2.406-.034.6.158.81.779.8,1.985-.035,3.971-.013,5.957-.013,1.823,0,3.646.015,5.467-.018.248,0,.693-.234.7-.385.066-.912.033-1.831.033-2.789" transform="translate(-107.178 -75.455)" fill="#12263f"/>
        <path id="Trazado_237942" data-name="Trazado 237942" d="M41.476,154.839c1.467,0,2.935.021,4.4-.009.72-.015,1.032.232,1.024.989q-.041,3.995,0,7.99c.007.726-.25,1.029-1,1.023q-4.442-.034-8.885,0c-.682,0-.978-.235-.971-.955q.04-4.035,0-8.071c-.007-.7.245-.983.946-.971,1.494.025,2.989.008,4.483.007m-4.213,8.727h8.392v-7.5H37.263Z" transform="translate(-30.165 -129.566)" fill="#12263f"/>
        <path id="Trazado_237943" data-name="Trazado 237943" d="M37.275,69.509v7.6h8.484c0-.809,0-1.639,0-2.469,0-.447-.015-.947.614-.933.585.013.545.5.548.909.005.979-.006,1.957,0,2.936,0,.539-.223.787-.784.784q-4.648-.018-9.3,0c-.57,0-.758-.276-.756-.809q.014-4.159,0-8.319c0-.579.228-.851.818-.849,2.174.009,4.349-.017,6.523.029a1.023,1.023,0,0,1,.8.547c.1.579-.41.578-.83.578H37.275" transform="translate(-30.199 -57.202)" fill="#12263f"/>
        <path id="Trazado_237944" data-name="Trazado 237944" d="M130.206,74.892q-3.257,0-6.515,0a1.516,1.516,0,0,1-.711-.088.793.793,0,0,1-.35-.559c-.007-.15.209-.379.377-.452a1.866,1.866,0,0,1,.719-.079q6.515-.006,13.03,0c.109,0,.243-.038.321.011.267.17.514.37.769.559-.266.2-.529.58-.8.585-2.279.047-4.56.027-6.84.027" transform="translate(-102.621 -61.67)" fill="#12263f"/>
        <path id="Trazado_237945" data-name="Trazado 237945" d="M56.346,75.233l3.71-4.321a10.75,10.75,0,0,1,1.131-1.276c.2-.168.593-.106.9-.148-.006.29.108.681-.037.855-1.682,2.024-3.4,4.016-5.117,6.013a.629.629,0,0,1-1.046.01c-.8-.808-1.636-1.59-2.4-2.437-.168-.187-.085-.6-.117-.907.312.037.725-.04.917.132.706.629,1.339,1.339,2.057,2.078" transform="translate(-44.664 -58.15)" fill="#12263f"/>
        <path id="Trazado_237946" data-name="Trazado 237946" d="M124.756,96.466a10.8,10.8,0,0,1-1.616-.025c-.247-.038-.454-.34-.679-.522.212-.2.416-.561.638-.573a32.717,32.717,0,0,1,3.4,0c.22.012.421.375.631.577-.224.18-.431.483-.676.517a12.289,12.289,0,0,1-1.7.024" transform="translate(-102.48 -79.753)" fill="#12263f"/>
        <path id="Trazado_237947" data-name="Trazado 237947" d="M124.875,117.071a10.478,10.478,0,0,1,1.616.026c.24.038.437.352.653.542-.218.195-.428.546-.655.557a32.727,32.727,0,0,1-3.4,0c-.214-.012-.409-.387-.613-.594.2-.175.395-.473.618-.5a14.866,14.866,0,0,1,1.779-.024Z" transform="translate(-102.494 -97.953)" fill="#12263f"/>
        <path id="Trazado_237948" data-name="Trazado 237948" d="M43.11,19.875a3.146,3.146,0,0,1,.888.019c.212.064.534.333.515.469-.033.232-.275.59-.466.615a7.3,7.3,0,0,1-1.859,0c-.2-.026-.445-.376-.488-.61-.023-.129.308-.407.523-.473a3.16,3.16,0,0,1,.887-.021" transform="translate(-34.894 -16.612)" fill="#12263f"/>
        <path id="Trazado_237949" data-name="Trazado 237949" d="M21.71,19.9a2.915,2.915,0,0,1,.883.021c.208.069.485.328.489.508a.722.722,0,0,1-.434.561,9.263,9.263,0,0,1-1.934,0,.717.717,0,0,1-.434-.552.745.745,0,0,1,.465-.518,3.52,3.52,0,0,1,.965-.023" transform="translate(-16.971 -16.63)" fill="#12263f"/>
      </g>
    </g>
    <g id="Grupo_874611" data-name="Grupo 874611" transform="translate(12829.088 -8506.969)">
      <g id="Grupo_183184" data-name="Grupo 183184" clip-path="url(#clip-path-38)">
        <path id="Trazado_237966" data-name="Trazado 237966" d="M0,115.865c.246-.3.47-.613.74-.885q4.019-4.034,8.05-8.055a1.226,1.226,0,0,1,2.045,0q2.087,2.083,4.17,4.169c.958.958.983,1.261.206,2.289l3.622,3.624c.272-.309.558-.675.886-1a4.829,4.829,0,0,1,5.328-1.216,3.634,3.634,0,0,0,4.074-.93c.413-.413.844-.808,1.292-1.236-.193-.212-.347-.368-.486-.536a1.1,1.1,0,0,1,.026-1.551q2.4-2.436,4.839-4.836a1.109,1.109,0,0,1,1.619.057q2.082,2.056,4.139,4.136a.676.676,0,0,1,.052,1,.688.688,0,0,1-1.031-.065q-1.821-1.808-3.631-3.626c-.115-.114-.234-.224-.324-.309l-4.435,4.441,8.235,8.242,4.451-4.462c-.574-.569-1.21-1.2-1.841-1.829-.115-.115-.294-.257-.29-.382a1.339,1.339,0,0,1,.2-.762.543.543,0,0,1,.811-.025c.821.79,1.64,1.586,2.406,2.428a1.114,1.114,0,0,1-.209,1.576c-1.034,1.046-2.077,2.082-3.117,3.121q-.668.668-1.337,1.337a1.249,1.249,0,0,1-2.079.01c-.063-.061-.131-.117-.166-.148l-5.663,5.664c.677.66,1.419,1.337,2.108,2.064a2.77,2.77,0,0,1-.321,4.189,9.6,9.6,0,0,1-1.86.775,2.852,2.852,0,0,1-.85,2,2.819,2.819,0,0,1-2.172.812,2.935,2.935,0,0,1-.81,2.171,2.969,2.969,0,0,1-2.177.863,7,7,0,0,1-.081.707,2.718,2.718,0,0,1-1.9,2.147,2.664,2.664,0,0,1-2.791-.635c-.609-.574-1.174-1.2-1.8-1.839a2.826,2.826,0,0,1-2.64,1.257,2.5,2.5,0,0,1-2.1-1.888,2.5,2.5,0,0,1-2.313-.3,2.575,2.575,0,0,1-1.087-2.055c-1.783-.4-2.348-.97-2.552-2.553a7.22,7.22,0,0,1-.865-.19,2.475,2.475,0,0,1-.941-4.079c1.084-1.123,2.2-2.212,3.307-3.314.116-.116.248-.216.369-.321l-4.291-4.138.124-.144a4.82,4.82,0,0,1-.425.323,1.184,1.184,0,0,1-1.54-.3q-2.265-2.255-4.517-4.523A4.82,4.82,0,0,1,0,116.5v-.63m17.744,2.167-3.664-3.681c-.3.338-.589.7-.922,1.025a.634.634,0,0,1-.96-.022.662.662,0,0,1,.01-.933c.188-.213.4-.407.6-.608l1.4-1.395-4.454-4.457-8.207,8.219,4.435,4.438c.077-.073.187-.171.292-.275q1.8-1.8,3.6-3.6c.384-.382.755-.413,1.063-.106s.283.679-.1,1.062q-1.155,1.169-2.324,2.323c-.2.2-.422.372-.667.586l4.383,4.294a2.484,2.484,0,0,1,2.232-.019,2.54,2.54,0,0,1,1.385,1.862,2.538,2.538,0,0,1,2.875,3.4,2.66,2.66,0,0,1,1.651,1.408,2.516,2.516,0,0,1-.045,2.174,2.5,2.5,0,0,1,1.8,2.139,2.82,2.82,0,0,1-1.239,2.544c.63.637,1.2,1.273,1.836,1.846a1.418,1.418,0,0,0,2.325-.717,1.453,1.453,0,0,0-.376-1.408.636.636,0,0,1,.008-.931.655.655,0,0,1,.934-.045c.073.052.135.121.209.171a1.413,1.413,0,0,0,1.531.1,1.249,1.249,0,0,0,.732-1.287,2.3,2.3,0,0,0-.354-.938c-.27-.426-.319-.726-.047-1.012s.616-.286,1.037.038c.036.027.069.059.105.085a1.429,1.429,0,0,0,2.257-.859,1.509,1.509,0,0,0-.4-1.363.652.652,0,0,1,.037-.931.661.661,0,0,1,.9-.032c.085.061.16.136.247.2a1.42,1.42,0,0,0,2.2-.8,1.554,1.554,0,0,0-.542-1.609c-2.729-2.682-5.475-5.346-8.167-8.065a1.718,1.718,0,0,0-2.564.023c-.6.651-1.23,1.275-1.88,1.875a2.805,2.805,0,0,1-3.924-4.007c.237-.25.5-.474.752-.71m13.838,6.928,5.542-5.553-5.851-5.839c-.362.383-.746.8-1.142,1.207a4.954,4.954,0,0,1-5.589,1.288,3.453,3.453,0,0,0-3.772.832c-.914.889-1.81,1.8-2.705,2.7A1.433,1.433,0,0,0,18,121.72a1.457,1.457,0,0,0,2.124-.092c.609-.6,1.207-1.211,1.815-1.811a2.963,2.963,0,0,1,3.707-.5,1.908,1.908,0,0,0,1.592.185c1.059-.32,2.124-.619,3.19-.915a.695.695,0,1,1,.386,1.315c-.544.163-1.094.308-1.639.465-.564.162-1.127.329-1.692.494l4.1,4.1M11.814,135.045a3.844,3.844,0,0,0,.779-.469q2.279-2.239,4.524-4.514a1.12,1.12,0,1,0-1.566-1.59q-2.27,2.249-4.52,4.517a1.508,1.508,0,0,0-.246.319,1.189,1.189,0,0,0,1.03,1.736m1.5-9.112a4.609,4.609,0,0,0-.809.5c-.657.615-1.281,1.265-1.917,1.9-.721.722-1.444,1.441-2.162,2.167a1.119,1.119,0,0,0,.6,1.9,1.216,1.216,0,0,0,1.114-.453q1.922-1.929,3.848-3.854a2,2,0,0,0,.335-.42,1.175,1.175,0,0,0-1.01-1.744M14.356,137.6a4.479,4.479,0,0,0,.843-.521c1.213-1.181,2.4-2.385,3.6-3.586a1.14,1.14,0,0,0,.093-1.708,1.122,1.122,0,0,0-1.671.124q-1.118,1.107-2.226,2.224c-.5.5-1,.991-1.489,1.5a1.06,1.06,0,0,0-.2,1.246,1.272,1.272,0,0,0,1.056.722m3.376,1.7a1.5,1.5,0,0,0,.545-.233c.78-.743,1.555-1.494,2.282-2.287a1.035,1.035,0,0,0-.109-1.427,1.051,1.051,0,0,0-1.43-.1c-.79.732-1.547,1.5-2.283,2.286a.976.976,0,0,0-.094,1.139,1.15,1.15,0,0,0,1.089.625" transform="translate(0 -95.876)" fill="#12263f"/>
        <path id="Trazado_237967" data-name="Trazado 237967" d="M172.971,0a18.286,18.286,0,0,1,1.921.562,7.687,7.687,0,0,1,4.677,5.228c.145.505-.014.854-.425.977s-.718-.083-.878-.6a6.419,6.419,0,0,0-5.024-4.678,6.507,6.507,0,1,0,5.039,8c.029-.116.053-.234.089-.348a.659.659,0,0,1,.845-.519.685.685,0,0,1,.466.887,7.818,7.818,0,0,1-1.546,3.257,7.771,7.771,0,0,1-8.269,2.669,7.622,7.622,0,0,1-5.682-6.521A7.834,7.834,0,0,1,170.828.083,1.54,1.54,0,0,0,171.08,0Z" transform="translate(-149.291)" fill="#12263f"/>
        <path id="Trazado_237968" data-name="Trazado 237968" d="M209.272,63.478l3.191-3.194c.1-.1.187-.2.29-.282a.675.675,0,0,1,.941.968c-.168.191-.357.364-.537.544q-1.621,1.622-3.244,3.244c-.5.5-.791.494-1.289,0q-1.338-1.333-2.671-2.671c-.4-.4-.441-.783-.134-1.094s.707-.262,1.1.128c.775.771,1.544,1.548,2.353,2.36" transform="translate(-187.069 -54.417)" fill="#12263f"/>
      </g>
    </g>
    <g id="WGXxTz.tif" transform="translate(12783.248 -8327.446)">
      <g id="Grupo_154920" data-name="Grupo 154920" transform="translate(0 0)">
        <path id="Trazado_195249" data-name="Trazado 195249" d="M-988,219.384c1.638,1.646,3.262,3.306,4.921,4.93a1.833,1.833,0,0,1,.613,1.457c-.033,2.4-.014,4.8-.014,7.2v.457l.082.012c.084-.163.173-.323.253-.488.811-1.668,1.611-3.342,2.436-5a3.049,3.049,0,0,1,3.062-1.7A3.09,3.09,0,0,1-974,228.49a3.164,3.164,0,0,1-.281,2.334q-3.16,6.479-6.307,12.964c-.568,1.169-1.145,2.334-1.7,3.511a1.946,1.946,0,0,0-.184.791c-.013,2.942-.008,5.885-.008,8.827,0,.759-.174.936-.918.936q-11.722,0-23.444.008a.948.948,0,0,1-.915-.446V219.384Zm-18.45,1.249V256.6h22.69v-7.771c-.14.091-.237.147-.326.214-.914.682-1.818,1.379-2.746,2.041a1.441,1.441,0,0,1-.755.253c-1.082.028-2.165.012-3.248.012q-2.831,0-5.663,0c-.544,0-.846-.329-.719-.782.107-.381.4-.447.756-.446q3.973.008,7.945,0h.5c0-.141,0-.226,0-.311-.029-1.346-.073-2.692-.076-4.039a2.383,2.383,0,0,1,.211-1.005c1.312-2.739,2.652-5.465,3.971-8.2a1.8,1.8,0,0,0,.176-.752c.012-3.176.008-6.352.008-9.528v-.5c-1.493,0-2.926,0-4.358,0-.624,0-.817-.183-.82-.8-.006-1.186,0-2.371,0-3.557v-.8Zm26.268,11.162c-.1.191-.18.329-.25.471-1.789,3.677-3.518,7.385-5.392,11.018a7.99,7.99,0,0,0-1,4.9,10.648,10.648,0,0,1,.008,1.345c1.04-.779,1.969-1.46,2.879-2.167a1.857,1.857,0,0,0,.514-.627q3.16-6.451,6.3-12.914c.068-.14.125-.285.2-.447Zm.521-1.133,3.3,1.6c.385-.819.788-1.582,1.108-2.378a1.763,1.763,0,0,0-.869-2.2,1.748,1.748,0,0,0-2.3.544C-978.884,229-979.241,229.836-979.658,230.662Zm-7.973-9.023v2.9h2.869Z" transform="translate(1007.753 -219.384)" fill="#12263f"/>
        <path id="Trazado_195250" data-name="Trazado 195250" d="M-962.094,401.962c.467,0,.935-.007,1.4,0a.608.608,0,0,1,.667.649q.022,1.446,0,2.893a.617.617,0,0,1-.695.666q-1.424.01-2.848,0c-.438,0-.668-.2-.676-.628q-.026-1.468,0-2.936c.007-.45.236-.639.7-.645S-962.576,401.962-962.094,401.962Zm.791,2.973v-1.717h-1.669v1.717Z" transform="translate(968.086 -385.887)" fill="#12263f"/>
        <path id="Trazado_195251" data-name="Trazado 195251" d="M-962.137,481c-.467,0-.935,0-1.4,0-.507-.005-.721-.2-.727-.715q-.017-1.4,0-2.8c.007-.483.227-.687.708-.69q1.4-.009,2.8,0a.628.628,0,0,1,.714.693q.018,1.4,0,2.8c-.005.487-.244.707-.74.712C-961.231,481-961.684,481-962.137,481Zm.823-1.244V478.04h-1.679v1.717Z" transform="translate(968.102 -454.126)" fill="#12263f"/>
        <path id="Trazado_195252" data-name="Trazado 195252" d="M-962.126,555.826c-.482,0-.964.006-1.446,0-.435-.007-.662-.2-.669-.634q-.025-1.468,0-2.936a.585.585,0,0,1,.668-.638q1.424-.012,2.848,0a.619.619,0,0,1,.7.659q.022,1.446,0,2.893c-.007.436-.255.652-.7.657C-961.191,555.831-961.659,555.826-962.126,555.826Zm.825-1.239V552.87h-1.667v1.717Z" transform="translate(968.083 -522.365)" fill="#12263f"/>
        <path id="Trazado_195253" data-name="Trazado 195253" d="M-883.135,420.131q-2.192,0-4.384,0c-.518,0-.779-.212-.776-.617s.265-.608.785-.608c2.937,0,5.874,0,8.812,0,.365,0,.675.1.725.474a.961.961,0,0,1-.247.637c-.084.1-.32.114-.487.115C-880.183,420.135-881.659,420.131-883.135,420.131Z" transform="translate(898.811 -401.337)" fill="#12263f"/>
        <path id="Trazado_195254" data-name="Trazado 195254" d="M-885.308,345.33c-.759,0-1.518,0-2.277,0-.469,0-.726-.237-.714-.633.011-.375.26-.59.712-.591q2.32-.005,4.641,0a.635.635,0,0,1,.707.61.637.637,0,0,1-.7.613C-883.732,345.335-884.52,345.33-885.308,345.33Z" transform="translate(898.815 -333.124)" fill="#12263f"/>
        <path id="Trazado_195255" data-name="Trazado 195255" d="M-885.292,494.993c-.759,0-1.518,0-2.277,0-.477,0-.732-.226-.726-.621s.262-.6.744-.6q2.277,0,4.553,0c.463,0,.753.234.762.6s-.292.624-.78.626C-883.775,494.995-884.534,494.993-885.292,494.993Z" transform="translate(898.812 -469.611)" fill="#12263f"/>
        <path id="Trazado_195256" data-name="Trazado 195256" d="M-957.792,338.707c.428-.56.78-1.026,1.139-1.487.285-.365.645-.451.942-.236a.645.645,0,0,1,.06.968c-.491.655-.985,1.308-1.491,1.952a.629.629,0,0,1-1.077.065c-.306-.294-.6-.6-.9-.9-.328-.339-.35-.692-.072-.964s.628-.228.963.1C-958.083,338.348-957.961,338.511-957.792,338.707Z" transform="translate(963.641 -326.525)" fill="#12263f"/>
      </g>
    </g>
    <g id="Grupo_888914" data-name="Grupo 888914" transform="translate(12857.635 -8162.159)">
      <g id="Grupo_180306" data-name="Grupo 180306" clip-path="url(#clip-path-39)">
        <path id="Trazado_231727" data-name="Trazado 231727" d="M39.26,6.764H1.4V25.757H18.718a2.088,2.088,0,0,1,.762.022,3.547,3.547,0,0,1,.734.559,3.433,3.433,0,0,1-.756.649,2.226,2.226,0,0,1-.856.029H1.329c0,1.169,0,2.223,0,3.277,0,.753.483.87,1.1.869,2.919-.008,5.837,0,8.756,0,3.977,0,7.954.026,11.931-.019.947-.011,1.25.315,1.2,1.224-.06,1.023-.026,2.052-.011,3.078.025,1.7.792,2.456,2.482,2.462.353,0,.706,0,1.059,0,.512,0,1.165-.081,1.174.639.01.794-.688.684-1.223.687-1.123.007-2.245,0-3.368,0q-5.436,0-10.873,0c-.256,0-.564.07-.755-.045a1.075,1.075,0,0,1-.5-.679c-.017-.176.292-.5.51-.557A4.635,4.635,0,0,1,13.95,37.9a2.108,2.108,0,0,0,2.337-2.221,4.722,4.722,0,0,1,.044-1.146c.085-.262.417-.444.638-.662.184.222.531.449.525.665-.033,1.1-.157,2.193-.252,3.318h6.071c-.123-1.781-.244-3.54-.373-5.407H21.816q-9.573,0-19.147,0C.7,32.451,0,31.755,0,29.8Q0,16.234,0,2.667C0,.706.7,0,2.659,0Q20.315,0,37.971,0c1.888,0,2.615.727,2.616,2.612q0,5.436,0,10.872c0,.1,0,.192,0,.289,0,.5-.03,1.089-.692.985-.255-.04-.591-.613-.607-.956-.066-1.5-.029-3.013-.029-4.521V6.764M2.78,1.32c-.192,0-.385,0-.577,0-.6-.009-.879.289-.876.885.006,1.022,0,2.044,0,3.142H39.26c0-.9,0-1.734,0-2.564,0-1.431-.032-1.463-1.453-1.463" transform="translate(0 0)" fill="#12263f"/>
        <path id="Trazado_231728" data-name="Trazado 231728" d="M112.8,87.192a9.447,9.447,0,0,1,13.964-8.577c.14.077.343.128.4.248a7.862,7.862,0,0,1,.336.956,2.71,2.71,0,0,1-1.011.107,23.453,23.453,0,0,0-3.149-1.069,8.1,8.1,0,0,0-9.3,7.813,8.152,8.152,0,1,0,16.152-1.336A3.405,3.405,0,0,1,130,84.4a3.089,3.089,0,0,1,.375-.87c.284.186.737.315.823.568a8.771,8.771,0,0,1,.255,4.735,9.452,9.452,0,0,1-18.6-.585,8.407,8.407,0,0,1-.054-1.057" transform="translate(-91.087 -62.53)" fill="#12263f"/>
        <path id="Trazado_231729" data-name="Trazado 231729" d="M142.194,97.583l6.556-7.239a23.675,23.675,0,0,1,1.7-1.829c.246-.22.708-.2,1.071-.286-.032.367.08.861-.116,1.081-2.83,3.182-5.7,6.326-8.563,9.482-.47.519-.9.526-1.351-.025-1-1.211-2.035-2.39-2.992-3.631-.193-.249-.1-.718-.14-1.085.382.1.893.083,1.122.328.934,1,1.781,2.084,2.717,3.2" transform="translate(-111.723 -71.246)" fill="#12263f"/>
        <path id="Trazado_231730" data-name="Trazado 231730" d="M28.83,50.592c-2.117,0-4.234.027-6.349-.027-.35-.009-.956-.337-.984-.573-.08-.66.517-.67,1.011-.67,4.233,0,8.467-.015,12.7.026.339,0,.923.341.964.593.116.713-.515.648-.992.649q-3.175.007-6.35,0" transform="translate(-17.352 -39.826)" fill="#12263f"/>
        <path id="Trazado_231731" data-name="Trazado 231731" d="M120.306,50.588q-3.175,0-6.35,0c-.456,0-1.038.019-.925-.62.047-.263.605-.618.934-.622q6.4-.063,12.8,0c.335,0,.667.4,1,.62-.336.208-.668.586-1.009.595-2.147.055-4.3.028-6.445.028" transform="translate(-91.262 -39.822)" fill="#12263f"/>
        <path id="Trazado_231732" data-name="Trazado 231732" d="M28.8,64.732c-2.115,0-4.232.027-6.346-.028-.341-.009-.925-.35-.957-.595-.078-.6.485-.623.949-.623q6.394,0,12.789,0c.44,0,.973-.049.975.621s-.517.618-.967.619q-3.221,0-6.443,0" transform="translate(-17.356 -51.265)" fill="#12263f"/>
        <path id="Trazado_231733" data-name="Trazado 231733" d="M120.2,64.732q-3.173,0-6.346,0c-.451,0-.97.05-.966-.621s.537-.619.978-.62q6.395-.01,12.789,0c.465,0,1.027.028.947.626-.033.245-.618.584-.96.593-2.146.054-4.294.027-6.442.027" transform="translate(-91.158 -51.265)" fill="#12263f"/>
        <path id="Trazado_231734" data-name="Trazado 231734" d="M23.876,78.773a11.676,11.676,0,0,1-1.824-.028c-.29-.046-.533-.392-.8-.6.245-.2.483-.557.737-.569,1.28-.059,2.566-.059,3.846,0,.252.011.489.367.733.564-.257.212-.493.566-.776.607a13.3,13.3,0,0,1-1.92.029" transform="translate(-17.164 -62.606)" fill="#12263f"/>
        <path id="Trazado_231735" data-name="Trazado 231735" d="M114.129,78.6c-.19,0-.416.064-.564-.015a4.848,4.848,0,0,1-.714-.565c.248-.216.464-.523.752-.623a1.681,1.681,0,0,1,1.031,0c.29.1.511.4.763.615a8,8,0,0,1-.8.578c-.12.068-.311.011-.47.01" transform="translate(-91.129 -62.433)" fill="#12263f"/>
        <path id="Trazado_231736" data-name="Trazado 231736" d="M15.037,12.886c-.284.341-.639.59-.608.774.044.259.374.471.582.7.216-.224.555-.423.608-.681.038-.183-.31-.445-.582-.8m2.748-.06c-.325.4-.673.651-.642.837.044.259.371.47.577.7.212-.193.584-.378.6-.583.014-.253-.272-.522-.531-.955m2.639,1.751c.281-.35.625-.6.595-.783-.043-.259-.365-.472-.568-.7-.212.225-.544.425-.6.682-.037.184.3.445.57.805" transform="translate(-11.65 -10.357)" fill="#12263f"/>
        <path id="Trazado_231737" data-name="Trazado 231737" d="M15.036,13.137c.272.351.619.613.582.8-.053.258-.392.457-.608.681-.208-.232-.538-.443-.582-.7-.031-.184.325-.433.608-.774" transform="translate(-11.649 -10.608)" fill="#12263f"/>
        <path id="Trazado_231738" data-name="Trazado 231738" d="M29.175,12.826c.259.433.545.7.531.955-.011.2-.383.389-.6.583-.206-.231-.534-.442-.577-.7-.031-.186.317-.435.642-.837" transform="translate(-23.04 -10.357)" fill="#12263f"/>
        <path id="Trazado_231739" data-name="Trazado 231739" d="M43.178,15.68c-.271-.361-.608-.621-.57-.805.052-.257.384-.457.6-.682.2.233.525.446.568.7.031.186-.313.433-.595.783" transform="translate(-34.404 -11.461)" fill="#12263f"/>
      </g>
    </g>
    <g id="Grupo_888923" data-name="Grupo 888923" transform="translate(13200.533 -8512.304)">
      <path id="Trazado_97027" data-name="Trazado 97027" d="M-2568.023,1752.243a1.12,1.12,0,0,1,.494,1.1c-.024.525,0,1.052-.009,1.576s-.317.871-.748.868-.72-.341-.729-.879.018-1.085-.009-1.625a1.044,1.044,0,0,1,.5-1.038Z" transform="translate(2591.509 -1752.243)" fill="#12263f"/>
      <path id="Trazado_97028" data-name="Trazado 97028" d="M-2712.249,1847.838c0,.859,0,1.631,0,2.4a1.638,1.638,0,0,1-1.824,1.833q-3.136.006-6.271,0a1.637,1.637,0,0,1-1.819-1.835c-.006-.772,0-1.543,0-2.4-.371,0-.709.008-1.048,0a1.663,1.663,0,0,1-1.744-1.589,14.42,14.42,0,0,1,.009-1.871,1.655,1.655,0,0,1,.852-1.362.655.655,0,0,0,.241-.465c.028-.657-.01-1.317.024-1.974a.568.568,0,0,0-.405-.624,16.268,16.268,0,0,1-5.938-4.632,16.537,16.537,0,0,1-3.745-9.778,16.473,16.473,0,0,1,3.721-11.51,16.334,16.334,0,0,1,10.811-6.1,16.136,16.136,0,0,1,7.489.725,1.046,1.046,0,0,0,.968-.025,1.125,1.125,0,0,1,1.361.253,9.183,9.183,0,0,1,.7.7.485.485,0,0,0,.633.166.487.487,0,0,0,.329-.568c-.015-.328-.017-.659,0-.987a1.255,1.255,0,0,1,1.3-1.267q1.282-.02,2.566,0a1.227,1.227,0,0,1,1.281,1.271,10.33,10.33,0,0,0,.019,1.084.641.641,0,0,0,.338.431.656.656,0,0,0,.542-.079,8.684,8.684,0,0,0,.707-.687,1.259,1.259,0,0,1,1.922.008q.9.877,1.771,1.79a1.244,1.244,0,0,1-.009,1.81c-.212.229-.428.457-.662.664a.51.51,0,0,0-.175.674c.132.318.329.354.612.34.312-.016.625-.014.938,0a1.231,1.231,0,0,1,1.252,1.2c.031.92.031,1.843,0,2.764a1.23,1.23,0,0,1-1.264,1.191c-.312.009-.626.018-.938,0a.519.519,0,0,0-.605.351c-.137.318-.016.479.19.67.242.223.473.459.693.7a1.219,1.219,0,0,1,.025,1.7c-.617.662-1.245,1.317-1.92,1.917a4.824,4.824,0,0,1-1.134.54c-.032.388-.066.908-.122,1.425-.063.582-.368.867-.837.813-.452-.052-.665-.415-.623-1,.052-.722.083-1.445.111-2.168a3.642,3.642,0,0,0-.053-.522c-.722.077-.77.129-.773.762,0,.329.008.659-.015.986a1.186,1.186,0,0,1-1.115,1.12q-1.43.04-2.862,0a1.229,1.229,0,0,1-1.152-1.2,9.851,9.851,0,0,1,0-1.036c.008-.263-.021-.454-.325-.572a.49.49,0,0,0-.635.157,7.857,7.857,0,0,1-.734.731,1.183,1.183,0,0,1-1.695,0c-.687-.638-1.345-1.309-1.983-2a1.2,1.2,0,0,1,0-1.586,3.756,3.756,0,0,1,.619-.636c.454-.339.473-.7.1-1.156-.419,0-.879.01-1.339,0a1.232,1.232,0,0,1-1.246-1.256c-.015-.889-.019-1.777,0-2.666a1.228,1.228,0,0,1,1.218-1.233c.345-.015.692-.014,1.037,0,.253.011.425-.03.526-.31.093-.259.132-.449-.109-.65a7.948,7.948,0,0,1-.664-.661,1.269,1.269,0,0,1,.007-1.921,6.437,6.437,0,0,1,.693-.542l-.094-.247c-1.127-.2-2.246-.486-3.382-.576a14.752,14.752,0,0,0-10.612,3.156,14.632,14.632,0,0,0-5.781,10.135c-.731,6.533,1.751,11.618,7.247,15.216a15.513,15.513,0,0,0,2.062,1.048.97.97,0,0,1,.644.994c-.015.951,0,1.9,0,2.882h.977v-5.211c-1.182-.3-1.388-.562-1.388-1.771,0-.494-.012-.988.008-1.481a1.2,1.2,0,0,1,1.2-1.192c.625-.02,1.251-.017,1.876,0a1.232,1.232,0,0,1,1.255,1.2c.033.657.034,1.318,0,1.975-.034.695-.414,1.018-1.414,1.278v5.194h2.224v-.5c0-1.843,0-3.686,0-5.529,0-.576.295-.9.769-.872.455.023.707.348.708.946.005,1.81,0,3.621,0,5.431v.526h1.517v-3.165c0-.741.025-1.483-.014-2.221a1.233,1.233,0,0,0-.293-.742c-1.722-1.77-3.467-3.516-5.206-5.268a1.612,1.612,0,0,0-.184-.146c-.98.563-1.346.512-2.13-.282-.334-.34-.678-.673-1-1.023a1.235,1.235,0,0,1-.008-1.772q.606-.649,1.252-1.261a1.243,1.243,0,0,1,1.915,0c.3.281.582.581.874.873.917.918.95,1.349.111,2.46.284.247.6.49.875.768,1.513,1.512,3.012,3.039,4.529,4.548a2.443,2.443,0,0,1,.767,1.851c-.018,1.613-.005,3.225-.005,4.839v.552h1.047v-8.231c-.074-.014-.149-.03-.225-.039a1.252,1.252,0,0,1-1.2-1.26c-.027-.607-.029-1.218-.008-1.826a1.254,1.254,0,0,1,1.309-1.308c.575-.02,1.152-.015,1.728,0a1.243,1.243,0,0,1,1.312,1.3c.02.509.008,1.02.005,1.53,0,1.023-.351,1.433-1.406,1.607v4.031c.858-.539,1.642-.972,2.36-1.494a15.038,15.038,0,0,0,4.631-5.492c.364-.724.73-.93,1.191-.7s.5.647.13,1.369a16.524,16.524,0,0,1-7.867,7.669.658.658,0,0,0-.455.747,9.872,9.872,0,0,1,.006,1.184,1.471,1.471,0,0,0,.576,1.461c.883.654.868,3.268.045,4.01a2.624,2.624,0,0,1-1.137.5A5.389,5.389,0,0,1-2712.249,1847.838Zm.265-25.89,1.549,1.558c.691-.62,1.216-1.511,2.444-1.135,1.471.45,1.732,1.488,1.538,2.816h2.221c-.069-1.142-.062-2.149,1.255-2.7,1.352-.569,2.012.271,2.71.995l1.6-1.528c-.814-.741-1.58-1.435-1.039-2.771s1.6-1.3,2.7-1.263V1815.7c-1.134.078-2.142.056-2.694-1.249-.57-1.349.26-2.04.991-2.746l-1.552-1.564c-.719.791-1.407,1.562-2.747.989-1.314-.561-1.263-1.6-1.231-2.683h-2.216c.147,1.245.014,2.257-1.381,2.756-1.285.458-1.877-.385-2.537-1.034l-1.586,1.525c.817.734,1.54,1.453,1,2.776s-1.588,1.274-2.669,1.241v2.214c1.182-.1,2.191-.024,2.708,1.321C-2710.428,1820.551-2711.2,1821.215-2711.984,1821.948Zm-5.219,24.414v0c1.923,0,3.845-.006,5.768.005.377,0,.551-.119.529-.51a7.665,7.665,0,0,1,0-.985c.033-.443-.128-.613-.59-.606-1.511.023-3.024.009-4.536.009-2.3,0-4.6.008-6.9-.008-.428,0-.606.139-.579.567a6.959,6.959,0,0,1,0,.936c-.031.438.12.609.588.6C-2721.017,1846.349-2719.11,1846.362-2717.2,1846.362Zm3.427,3.557h-6.875c-.059.672-.059.672.549.672,1.937,0,3.875-.019,5.812.01C-2713.774,1850.61-2713.646,1850.429-2713.777,1849.919Zm.021-2.04h-6.928l.037.489h6.89Zm-7.521-17.927c.344-.332.66-.636,1-.964l-.979-.942-.927.982Zm9.265,3.03h1.328v-1.354h-1.328Zm-7.925,2.994v-1.361h-1.324v1.361Z" transform="translate(2740.109 -1801.512)" fill="#12263f"/>
      <path id="Trazado_97029" data-name="Trazado 97029" d="M-2582.192,1958.271c-1.289-.362-1.448-.578-1.448-1.924,0-.411-.012-.823,0-1.232a1.273,1.273,0,0,1,1.35-1.317c.56-.007,1.117-.008,1.676,0a1.245,1.245,0,0,1,1.323,1.282c.02.475.008.953.008,1.429,0,1.158-.246,1.469-1.43,1.748v.949q0,1.626,0,3.253c0,.7-.257,1.053-.757,1.046-.484-.008-.722-.34-.723-1.02q0-1.873,0-3.746C-2582.192,1958.58-2582.192,1958.418-2582.192,1958.271Zm1.389-1.576v-1.39h-1.314v1.39Z" transform="translate(2604.681 -1933.851)" fill="#12263f"/>
      <path id="Trazado_97030" data-name="Trazado 97030" d="M-2650.19,1936.9c.3,0,.592-.008.888,0a1.242,1.242,0,0,1,1.285,1.223,19.332,19.332,0,0,1-.007,1.969,1.2,1.2,0,0,1-1.2,1.2,17.928,17.928,0,0,1-1.92.005,1.222,1.222,0,0,1-1.21-1.243c-.029-.606-.025-1.216-.007-1.823a1.27,1.27,0,0,1,1.382-1.33C-2650.714,1936.892-2650.452,1936.895-2650.19,1936.9Zm.667,1.5h-1.324v1.389h1.324Z" transform="translate(2666.61 -1918.623)" fill="#12263f"/>
      <path id="Trazado_97031" data-name="Trazado 97031" d="M-2615.915,1883.942c-.311,0-.624.01-.937,0a1.213,1.213,0,0,1-1.206-1.184c-.022-.672-.022-1.347,0-2.019a1.181,1.181,0,0,1,1.164-1.167c.655-.029,1.313-.029,1.969,0a1.216,1.216,0,0,1,1.2,1.2c.031.656.032,1.314,0,1.97a1.244,1.244,0,0,1-1.3,1.2c-.3.006-.591,0-.887,0Zm.683-1.5v-1.363h-1.323v1.363Z" transform="translate(2635.704 -1866.952)" fill="#12263f"/>
      <path id="Trazado_97032" data-name="Trazado 97032" d="M-2779,1893.7a4.131,4.131,0,0,1,.421.11c.634.267,1.273.521,1.895.814a.693.693,0,0,1,.4.937.716.716,0,0,1-.975.41c-.64-.25-1.268-.532-1.89-.825a.638.638,0,0,1-.389-.849A2.362,2.362,0,0,1-2779,1893.7Z" transform="translate(2781.238 -1879.707)" fill="#12263f"/>
      <path id="Trazado_97033" data-name="Trazado 97033" d="M-2795.352,1959.232c.631.079,1.3.148,1.963.252a.72.72,0,0,1,.647.789.756.756,0,0,1-.835.663c-.668-.063-1.336-.144-2-.248a.731.731,0,0,1-.672-.818A.789.789,0,0,1-2795.352,1959.232Z" transform="translate(2796.255 -1938.751)" fill="#12263f"/>
      <path id="Trazado_97034" data-name="Trazado 97034" d="M-2694.383,1791.633a2.123,2.123,0,0,1,.522.411c.371.5.7,1.027,1.029,1.555a.752.752,0,0,1-.153,1.089.739.739,0,0,1-1.063-.265c-.375-.536-.739-1.082-1.072-1.645C-2695.436,1792.243-2695.118,1791.65-2694.383,1791.633Z" transform="translate(2705.237 -1787.735)" fill="#12263f"/>
      <path id="Trazado_97035" data-name="Trazado 97035" d="M-2790.878,2022.639c.492.014.784.192.854.61a.663.663,0,0,1-.521.825c-.717.163-1.443.3-2.173.389a.652.652,0,0,1-.744-.571.659.659,0,0,1,.5-.838C-2792.251,2022.879-2791.521,2022.764-2790.878,2022.639Z" transform="translate(2793.756 -1995.885)" fill="#12263f"/>
      <path id="Trazado_97036" data-name="Trazado 97036" d="M-2633.982,1762.651c.116.121.414.3.517.563a15.553,15.553,0,0,1,.576,1.877.733.733,0,0,1-.5.975.745.745,0,0,1-.923-.594c-.192-.592-.378-1.187-.537-1.788C-2634.993,1763.12-2634.688,1762.672-2633.982,1762.651Z" transform="translate(2650.849 -1761.621)" fill="#12263f"/>
      <path id="Trazado_97037" data-name="Trazado 97037" d="M-2742.115,1839.1c.011.645-.6,1.045-1.065.718a17.9,17.9,0,0,1-1.775-1.485.591.591,0,0,1-.012-.887c.2-.174.656-.333.81-.226a22.88,22.88,0,0,1,1.931,1.594C-2742.142,1838.887-2742.133,1839.049-2742.115,1839.1Z" transform="translate(2750.218 -1828.779)" fill="#12263f"/>
      <path id="Trazado_97038" data-name="Trazado 97038" d="M-2768.578,2079.036a3.237,3.237,0,0,1,.652.635.59.59,0,0,1-.242.815c-.67.375-1.356.725-2.054,1.043a.573.573,0,0,1-.8-.289c-.095-.238-.117-.71.015-.8C-2770.248,2079.941-2769.439,2079.523-2768.578,2079.036Z" transform="translate(2773.584 -2046.701)" fill="#12263f"/>
      <path id="Trazado_97039" data-name="Trazado 97039" d="M-2730.652,2129.643c.168.134.444.25.533.449a.816.816,0,0,1-.036.72,19.222,19.222,0,0,1-1.693,1.634.631.631,0,0,1-.924-.125.631.631,0,0,1-.042-.9c.526-.559,1.1-1.077,1.665-1.6A1.715,1.715,0,0,1-2730.652,2129.643Z" transform="translate(2739.242 -2092.301)" fill="#12263f"/>
      <path id="Trazado_97050" data-name="Trazado 97050" d="M-2496.321,1860.2a5.122,5.122,0,0,1,6.629-4.929.752.752,0,0,1,.614.957c-.119.421-.507.619-1.042.464a3.629,3.629,0,0,0-2.946.345,3.691,3.691,0,0,0-1.471,4.6,3.6,3.6,0,0,0,4.513,1.984,3.669,3.669,0,0,0,2.348-4.175c-.031-.144-.072-.287-.1-.432a.737.737,0,0,1,.532-.917.731.731,0,0,1,.9.562,5.118,5.118,0,0,1-.1,3.34,5.119,5.119,0,0,1-6.5,3.015A5.182,5.182,0,0,1-2496.321,1860.2Z" transform="translate(2525.998 -1844.87)" fill="#12263f"/>
      <path id="Trazado_97051" data-name="Trazado 97051" d="M-2468.363,1885.909a2.6,2.6,0,0,1-2.6-2.6,2.607,2.607,0,0,1,2.582-2.574,2.585,2.585,0,0,1,2.59,2.6A2.579,2.579,0,0,1-2468.363,1885.909Zm1.078-2.606a1.086,1.086,0,0,0-1.106-1.083,1.123,1.123,0,0,0-1.082,1.12,1.116,1.116,0,0,0,1.119,1.083A1.086,1.086,0,0,0-2467.284,1883.3Z" transform="translate(2503.15 -1868.019)" fill="#12263f"/>
    </g>
    <g id="Grupo_141597" data-name="Grupo 141597" transform="translate(13264 -8358.506)" clip-path="url(#clip-path-40)">
      <path id="Trazado_183339" data-name="Trazado 183339" d="M127.956,54.073a4.163,4.163,0,1,1,4.163-4.163,4.168,4.168,0,0,1-4.163,4.163m0-6.738a2.575,2.575,0,1,0,2.575,2.575,2.578,2.578,0,0,0-2.575-2.575" transform="translate(-105.067 -38.826)" fill="#12263f"/>
      <path id="Trazado_183340" data-name="Trazado 183340" d="M120.211,211.2a2.552,2.552,0,0,1-.414-.034,2.592,2.592,0,0,1-2.1-2.579V190.464a.794.794,0,0,1,1.588,0v18.123a1.007,1.007,0,0,0,.77,1.012.934.934,0,0,0,1.1-.919V195.556a1.618,1.618,0,1,1,3.237,0v13.031a1.006,1.006,0,0,0,.77,1.012.934.934,0,0,0,1.095-.919V207.23a.794.794,0,1,1,1.588,0v1.449a2.522,2.522,0,0,1-2.938,2.487,2.592,2.592,0,0,1-2.1-2.579V195.556c0-.033-.06-.033-.06,0v13.123a2.52,2.52,0,0,1-2.525,2.52" transform="translate(-99.891 -160.979)" fill="#12263f"/>
      <path id="Trazado_183341" data-name="Trazado 183341" d="M175.045,218.512a.794.794,0,0,1-.794-.794v-14.9a.794.794,0,1,1,1.588,0v14.9a.794.794,0,0,1-.794.794" transform="translate(-147.893 -171.467)" fill="#12263f"/>
      <path id="Trazado_183342" data-name="Trazado 183342" d="M104.039,187.859a2.147,2.147,0,0,1-2.145-2.145V180.8a.794.794,0,0,1,1.588,0v4.914a.557.557,0,0,0,.557.557.549.549,0,0,0,.257-.063.794.794,0,0,1,.739,1.406,2.152,2.152,0,0,1-1,.245" transform="translate(-86.481 -152.777)" fill="#12263f"/>
      <path id="Trazado_183343" data-name="Trazado 183343" d="M116.339,106.428a.791.791,0,0,1-.557-.228,8.234,8.234,0,0,0-5.811-2.384h-.235a8.234,8.234,0,0,0-5.811,2.384.794.794,0,1,1-1.115-1.131,9.813,9.813,0,0,1,6.925-2.84h.235a9.813,9.813,0,0,1,6.925,2.84.794.794,0,0,1-.557,1.36" transform="translate(-87.058 -86.764)" fill="#12263f"/>
      <path id="Trazado_183344" data-name="Trazado 183344" d="M177.353,218.379a2.151,2.151,0,0,1-1-.245.794.794,0,0,1,.739-1.406.549.549,0,0,0,.257.063.557.557,0,0,0,.513-.34.794.794,0,0,1,1.463.619,2.141,2.141,0,0,1-1.976,1.31" transform="translate(-149.32 -183.297)" fill="#12263f"/>
      <path id="Trazado_183345" data-name="Trazado 183345" d="M245.659,64.1a.794.794,0,0,1,0-1.588,2.063,2.063,0,1,0-.387-4.089.794.794,0,0,1-.3-1.561,3.651,3.651,0,1,1,.683,7.238" transform="translate(-207.371 -48.203)" fill="#12263f"/>
      <path id="Trazado_183346" data-name="Trazado 183346" d="M222.106,273.591q-.12,0-.24-.011A2.581,2.581,0,0,1,219.59,271v-7.021a.794.794,0,1,1,1.588,0V271a.981.981,0,0,0,.838,1,.933.933,0,0,0,1.027-.928v-6.65a.794.794,0,1,1,1.588,0v6.65a2.52,2.52,0,0,1-2.526,2.521" transform="translate(-186.374 -223.371)" fill="#12263f"/>
      <path id="Trazado_183347" data-name="Trazado 183347" d="M255.833,243.272c-.08,0-.16,0-.24-.011a2.581,2.581,0,0,1-2.276-2.583V230.127a.794.794,0,1,1,1.588,0v10.551a.981.981,0,0,0,.838,1,.933.933,0,0,0,1.027-.928v-12.5a.794.794,0,1,1,1.588,0v12.5a2.52,2.52,0,0,1-2.526,2.52" transform="translate(-214.999 -193.052)" fill="#12263f"/>
      <path id="Trazado_183348" data-name="Trazado 183348" d="M276.941,162.024a.794.794,0,0,1-.794-.794V149.284a.794.794,0,0,1,1.588,0v11.945a.794.794,0,0,1-.794.794" transform="translate(-234.375 -126.029)" fill="#12263f"/>
      <path id="Trazado_183349" data-name="Trazado 183349" d="M283.1,224.183a.794.794,0,0,1-.794-.794v-1.173a.794.794,0,1,1,1.588,0v1.173a.794.794,0,0,1-.794.794" transform="translate(-239.605 -187.928)" fill="#12263f"/>
      <path id="Trazado_183350" data-name="Trazado 183350" d="M252.818,123.933a2.152,2.152,0,0,1-1-.245.794.794,0,0,1,.739-1.406.548.548,0,0,0,.257.063.557.557,0,0,0,.556-.557V110.314a2.9,2.9,0,0,0-.852-2.052,6.862,6.862,0,0,0-4.842-1.986h-.2a.794.794,0,0,1,0-1.588h.2a8.441,8.441,0,0,1,5.957,2.443,4.493,4.493,0,0,1,1.326,3.184v11.474a2.147,2.147,0,0,1-2.145,2.145" transform="translate(-209.371 -88.851)" fill="#12263f"/>
      <path id="Trazado_183351" data-name="Trazado 183351" d="M79.312,224.183a.794.794,0,0,1-.794-.794v-1.173a.794.794,0,0,1,1.588,0v1.173a.794.794,0,0,1-.794.794" transform="translate(-66.641 -187.928)" fill="#12263f"/>
      <path id="Trazado_183352" data-name="Trazado 183352" d="M73.319,240.713h-2.6a.794.794,0,0,1-.794-.794v-8.6a.794.794,0,0,1,.794-.794h2.6a.794.794,0,0,1,.794.794v8.6a.794.794,0,0,1-.794.794m-1.805-1.588h1.011v-7.014H71.514Z" transform="translate(-59.349 -195.653)" fill="#12263f"/>
      <path id="Trazado_183353" data-name="Trazado 183353" d="M28.664,64.09l-.049,0a3.651,3.651,0,0,1,.227-7.295.794.794,0,1,1,0,1.588,2.063,2.063,0,0,0-.13,4.121.794.794,0,0,1-.048,1.587" transform="translate(-21.38 -48.203)" fill="#12263f"/>
      <path id="Trazado_183354" data-name="Trazado 183354" d="M23.418,176.249a2.56,2.56,0,0,1-.413-.034,2.592,2.592,0,0,1-2.1-2.579V160.6c0-.033-.06-.033-.06,0v13.123a2.522,2.522,0,0,1-2.938,2.487,2.592,2.592,0,0,1-2.1-2.579V149.284a.794.794,0,1,1,1.588,0v24.352a1.006,1.006,0,0,0,.77,1.012.934.934,0,0,0,1.1-.919V160.6a1.618,1.618,0,1,1,3.237,0v13.031a1.006,1.006,0,0,0,.77,1.012.934.934,0,0,0,1.095-.919v-1.573a.794.794,0,1,1,1.588,0v1.573a2.52,2.52,0,0,1-2.525,2.52" transform="translate(-13.409 -126.029)" fill="#12263f"/>
      <path id="Trazado_183355" data-name="Trazado 183355" d="M73.149,170.125a.794.794,0,0,1-.794-.794V158.523a.794.794,0,1,1,1.588,0v10.807a.794.794,0,0,1-.794.794" transform="translate(-61.41 -133.87)" fill="#12263f"/>
      <path id="Trazado_183356" data-name="Trazado 183356" d="M2.145,123.933A2.147,2.147,0,0,1,0,121.788V110.314a4.492,4.492,0,0,1,1.326-3.184,8.44,8.44,0,0,1,5.957-2.443.794.794,0,0,1,0,1.588,6.862,6.862,0,0,0-4.842,1.986,2.9,2.9,0,0,0-.852,2.052v11.474a.557.557,0,0,0,.557.557.548.548,0,0,0,.257-.063.794.794,0,0,1,.739,1.406,2.152,2.152,0,0,1-1,.245" transform="translate(0 -88.851)" fill="#12263f"/>
      <path id="Trazado_183357" data-name="Trazado 183357" d="M75.458,180.767a2.151,2.151,0,0,1-1-.245.794.794,0,0,1,.739-1.406.548.548,0,0,0,.257.063.557.557,0,0,0,.557-.557v-6.178a.794.794,0,0,1,1.588,0v6.178a2.147,2.147,0,0,1-2.145,2.145" transform="translate(-62.838 -145.685)" fill="#12263f"/>
      <path id="Trazado_183358" data-name="Trazado 183358" d="M184.124,171.874a3.514,3.514,0,0,1-.843-.1,3.472,3.472,0,0,1-2.155-1.585l-6.578-10.874a.794.794,0,0,1,1.359-.822l6.578,10.874a1.907,1.907,0,0,0,2.619.645l.014-.008a1.907,1.907,0,0,0,.635-2.613l-6.49-10.729a.794.794,0,1,1,1.359-.822l6.49,10.729a3.5,3.5,0,0,1-1.181,4.8l-.014.008a3.454,3.454,0,0,1-1.792.5" transform="translate(-148.047 -131.939)" fill="#12263f"/>
      <path id="Trazado_183359" data-name="Trazado 183359" d="M69.9,28.383a14.277,14.277,0,0,1-3.416-.417A14.186,14.186,0,0,1,62.53,2.054,14.186,14.186,0,0,1,83.648,17.583a14.2,14.2,0,0,1-13.75,10.8M69.851,1.589A12.6,12.6,0,0,0,59.094,20.712,12.6,12.6,0,1,0,80.651,7.671a12.514,12.514,0,0,0-7.767-5.712,12.681,12.681,0,0,0-3.033-.37m.041,23.86a11.329,11.329,0,0,1-2.709-.331A11.251,11.251,0,0,1,64.049,4.565,11.251,11.251,0,1,1,75.7,23.819a11.176,11.176,0,0,1-5.8,1.63M69.856,4.524a9.666,9.666,0,0,0-2.293,19.052,9.6,9.6,0,0,0,7.311-1.116h0A9.664,9.664,0,0,0,72.183,4.807a9.735,9.735,0,0,0-2.327-.284" transform="translate(-47.258 0)" fill="#12263f"/>
      <path id="Trazado_183360" data-name="Trazado 183360" d="M222.9,153.768a.794.794,0,0,1-.794-.794v-1.53a.794.794,0,1,1,1.588,0v1.53a.794.794,0,0,1-.794.794" transform="translate(-188.507 -127.862)" fill="#12263f"/>
    </g>
  </g>
</svg>
