<svg xmlns="http://www.w3.org/2000/svg" width="205.962" height="176.9" viewBox="0 0 205.962 176.9">
  <g id="Grupo_888854" data-name="Grupo 888854" transform="translate(44.926 44.403)">
    <rect id="Rect치ngulo_49533" data-name="Rect치ngulo 49533" width="144.8" height="111.233" transform="translate(16.236 21.265)" fill="#ffde96"/>
    <g id="Grupo_169217" data-name="Grupo 169217" transform="translate(-44.926 -44.403)">
      <rect id="Rect치ngulo_49754" data-name="Rect치ngulo 49754" width="166.13" height="153.889" transform="translate(0 0)" fill="none"/>
      <g id="analizar" transform="translate(25.895 24.096)">
        <g id="Grupo_165727" data-name="Grupo 165727" transform="translate(1.844 1.844)">
          <g id="Grupo_165714" data-name="Grupo 165714" transform="translate(18.442 95.898)">
            <path id="Trazado_177889" data-name="Trazado 177889" d="M12,54H41.507A14.754,14.754,0,1,1,12,54Z" transform="translate(-12 -54)" fill="#a4a3ff"/>
          </g>
          <g id="Grupo_165715" data-name="Grupo 165715" transform="translate(18.442 81.145)">
            <path id="Trazado_177890" data-name="Trazado 177890" d="M41.507,46V60.754H12V46H41.507Z" transform="translate(-12 -46)" fill="#ccd1d9"/>
          </g>
          <g id="Grupo_165716" data-name="Grupo 165716" transform="translate(0 7.377)">
            <path id="Trazado_177891" data-name="Trazado 177891" d="M68.391,39.2a33.7,33.7,0,0,0-1.7-10.493,32.28,32.28,0,0,0-3.688-7.617c-.387-.609-.811-1.217-1.254-1.807A33.2,33.2,0,0,0,35.2,6V17.065a3.7,3.7,0,0,1-3.688,3.688H29.663v5.09a2.28,2.28,0,0,1-4.315,1.033l-3.061-6.123H7.569v.037a32.929,32.929,0,0,0-4.131,8.778A32.55,32.55,0,0,0,2,39.2a46.09,46.09,0,0,0,8.576,26.759l9.866,13.813H49.949l9.866-13.813c.461-.645.9-1.309,1.328-1.973a25.115,25.115,0,0,1-.129-2.656,25.752,25.752,0,0,1,7.174-17.852c.129-1.42.2-2.84.2-4.279Z" transform="translate(-2 -6)" fill="#ffde96"/>
          </g>
          <g id="Grupo_165717" data-name="Grupo 165717">
            <path id="Trazado_177892" data-name="Trazado 177892" d="M35.2,9.377V20.442a3.7,3.7,0,0,1-3.688,3.688H29.663v5.09a2.28,2.28,0,0,1-4.315,1.033L22.286,24.13H5.688A3.7,3.7,0,0,1,2,20.442V5.688A3.7,3.7,0,0,1,5.688,2H31.507A3.7,3.7,0,0,1,35.2,5.688Z" transform="translate(-2 -2)" fill="#e6e9ed"/>
          </g>
          <g id="Grupo_165718" data-name="Grupo 165718" transform="translate(44.261 29.507)">
            <path id="Trazado_177893" data-name="Trazado 177893" d="M26,18h7.377V51.2H26Z" transform="translate(-26 -18)" fill="#ff8578"/>
          </g>
          <g id="Grupo_165719" data-name="Grupo 165719" transform="translate(29.507 36.884)">
            <path id="Trazado_177894" data-name="Trazado 177894" d="M18,22h7.377V47.819H18Z" transform="translate(-18 -22)" fill="#ff8578"/>
          </g>
          <g id="Grupo_165720" data-name="Grupo 165720" transform="translate(14.754 44.261)">
            <path id="Trazado_177895" data-name="Trazado 177895" d="M10,26h7.377V44.442H10Z" transform="translate(-10 -26)" fill="#ff8578"/>
          </g>
          <g id="Grupo_165721" data-name="Grupo 165721" transform="translate(92.21)">
            <path id="Trazado_177896" data-name="Trazado 177896" d="M61.221,2A9.233,9.233,0,1,1,52,11.221,9.224,9.224,0,0,1,61.221,2Z" transform="translate(-52 -2)" fill="#ff8578"/>
          </g>
          <g id="Grupo_165722" data-name="Grupo 165722" transform="translate(81.145 22.13)">
            <path id="Trazado_177897" data-name="Trazado 177897" d="M52.289,15.088a3.606,3.606,0,0,1,1.088,2.6,3.688,3.688,0,0,1-7.377,0,3.677,3.677,0,0,1,6.289-2.6Z" transform="translate(-46 -14)" fill="#ff826e"/>
          </g>
          <g id="Grupo_165723" data-name="Grupo 165723" transform="translate(66.391 7.377)">
            <path id="Trazado_177898" data-name="Trazado 177898" d="M43.533,6a5.533,5.533,0,1,1-4.168,9.166A5.462,5.462,0,0,1,38,11.533,5.525,5.525,0,0,1,43.533,6Z" transform="translate(-38 -6)" fill="#ff826e"/>
          </g>
          <g id="Grupo_165724" data-name="Grupo 165724" transform="translate(77.456 87.452)">
            <path id="Trazado_177899" data-name="Trazado 177899" d="M58.754,49.42V67.087a5.525,5.525,0,0,1-5.533,5.533H49.533A5.525,5.525,0,0,1,44,67.087V49.42a25.972,25.972,0,0,0,14.754,0Z" transform="translate(-44 -49.42)" fill="#a4a3ff"/>
          </g>
          <g id="Grupo_165725" data-name="Grupo 165725" transform="translate(59.014 36.884)">
            <path id="Trazado_177900" data-name="Trazado 177900" d="M52.442,72.568A25.872,25.872,0,0,1,34.129,50.474,25.114,25.114,0,0,1,34,47.819,25.793,25.793,0,1,1,52.442,72.568Z" transform="translate(-34 -22)" fill="#e6e9ed"/>
          </g>
          <g id="Grupo_165726" data-name="Grupo 165726" transform="translate(66.357 44.295)">
            <circle id="Elipse_5192" data-name="Elipse 5192" cx="18.362" cy="18.362" r="18.362" fill="#acfcff"/>
          </g>
        </g>
        <g id="Grupo_165728" data-name="Grupo 165728">
          <path id="Trazado_177901" data-name="Trazado 177901" d="M87.677,37.884a27.488,27.488,0,0,0-16.6,5.586c0-.017,0-.035,0-.053a35.271,35.271,0,0,0-4.856-17.736l4.389-3.84a7.251,7.251,0,0,0,7.878.243L82.7,26.291a5.481,5.481,0,0,0-.553,2.372,5.533,5.533,0,0,0,11.065,0,5.442,5.442,0,0,0-.555-2.37l5.219-5.219a11.1,11.1,0,1,0-2.608-2.608l-5.219,5.219a5.336,5.336,0,0,0-4.74,0L81.1,19.479a7.308,7.308,0,0,0,1.044-3.725,7.377,7.377,0,0,0-14.754,0,7.29,7.29,0,0,0,.811,3.294L64.188,22.56c-.041-.055-.074-.112-.114-.168A35.218,35.218,0,0,0,37.884,8.432v-1.9A5.539,5.539,0,0,0,32.351,1H6.533A5.539,5.539,0,0,0,1,6.533V21.286a5.535,5.535,0,0,0,4.28,5.378A34.887,34.887,0,0,0,1,43.417,47.616,47.616,0,0,0,9.919,71.247l9.523,13.332V98.742a16.6,16.6,0,0,0,33.2,0V84.579l8.386-11.738A27.743,27.743,0,0,0,78.456,91.6v16.367a7.384,7.384,0,0,0,7.377,7.377h3.688a7.384,7.384,0,0,0,7.377-7.377V91.6a27.644,27.644,0,0,0-9.221-53.712Zm16.6-33.2A7.377,7.377,0,1,1,96.9,12.065,7.384,7.384,0,0,1,104.275,4.688Zm-16.6,22.13a1.844,1.844,0,1,1-1.844,1.844A1.845,1.845,0,0,1,87.677,26.819ZM74.768,12.065a3.688,3.688,0,1,1-3.688,3.688A3.692,3.692,0,0,1,74.768,12.065ZM4.688,21.286V6.533A1.845,1.845,0,0,1,6.533,4.688H32.351A1.845,1.845,0,0,1,34.2,6.533V21.286a1.845,1.845,0,0,1-1.844,1.844H28.663v6.942a.451.451,0,0,1-.824.194L24.27,23.13H6.533A1.845,1.845,0,0,1,4.688,21.286ZM23.13,85.833H48.949v3.688H23.13Zm0,7.377H48.949V96.9H23.13ZM36.04,111.652a12.92,12.92,0,0,1-12.762-11.065H48.8A12.92,12.92,0,0,1,36.04,111.652ZM59.16,69.1l-9.315,13.04H41.572V67.391H56.326V30.507H45.261V60.014h3.688V34.2h3.688V63.7H37.884V82.145H34.2V63.7H19.442V48.949H23.13V60.014h3.688V45.261H15.754v22.13H30.507V82.145H22.234L12.917,69.1A43.969,43.969,0,0,1,4.688,43.417a31.224,31.224,0,0,1,4.778-16.6H21.991l2.551,5.1a4.123,4.123,0,0,0,7.81-1.846V26.819a5.539,5.539,0,0,0,5.533-5.533V12.121A31.52,31.52,0,0,1,61.123,24.606c.1.129.179.267.273.4L58.8,27.274l2.427,2.777,2.167-1.9a31.543,31.543,0,0,1,4,15.261c0,1.186-.07,2.383-.166,3.569a27.521,27.521,0,0,0-7.211,18.562c0,.719.053,1.426.109,2.132-.315.479-.629.957-.963,1.426ZM93.21,107.963a3.692,3.692,0,0,1-3.688,3.688H85.833a3.692,3.692,0,0,1-3.688-3.688V92.653a27.758,27.758,0,0,0,11.065,0ZM87.677,89.521a23.975,23.975,0,1,1,23.975-23.975A24,24,0,0,1,87.677,89.521Z" transform="translate(-1 -1)"/>
          <path id="Trazado_177902" data-name="Trazado 177902" d="M57.286,25A20.286,20.286,0,1,0,77.572,45.286,20.31,20.31,0,0,0,57.286,25Zm0,36.884a16.6,16.6,0,1,1,16.6-16.6A16.616,16.616,0,0,1,57.286,61.884Z" transform="translate(29.391 19.261)"/>
          <path id="Trazado_177903" data-name="Trazado 177903" d="M43,35h3.688v3.688H43Z" transform="translate(34.456 27.703)"/>
          <path id="Trazado_177904" data-name="Trazado 177904" d="M47,35h3.688v3.688H47Z" transform="translate(37.833 27.703)"/>
          <path id="Trazado_177905" data-name="Trazado 177905" d="M51,35h3.688v3.688H51Z" transform="translate(41.21 27.703)"/>
          <path id="Trazado_177906" data-name="Trazado 177906" d="M17,43.13h3.688V24.688h3.688V43.13h3.688V21H17Z" transform="translate(12.507 15.884)"/>
          <path id="Trazado_177907" data-name="Trazado 177907" d="M5,5h7.377V8.688H5Z" transform="translate(2.377 2.377)"/>
          <path id="Trazado_177908" data-name="Trazado 177908" d="M5,9h7.377v3.688H5Z" transform="translate(2.377 5.754)"/>
          <path id="Trazado_177909" data-name="Trazado 177909" d="M11,5H22.065V8.688H11Z" transform="translate(7.442 2.377)"/>
          <path id="Trazado_177910" data-name="Trazado 177910" d="M11,9h3.688v3.688H11Z" transform="translate(7.442 5.754)"/>
          <path id="Trazado_177911" data-name="Trazado 177911" d="M15,9h3.688v3.688H15Z" transform="translate(10.819 5.754)"/>
        </g>
      </g>
    </g>
  </g>
</svg>
