<svg xmlns="http://www.w3.org/2000/svg" xmlns:xlink="http://www.w3.org/1999/xlink" width="286.393" height="237.302" viewBox="0 0 286.393 237.302">
  <defs>
    <linearGradient id="linear-gradient" x1="0.5" x2="0.5" y2="1" gradientUnits="objectBoundingBox">
      <stop offset="0" stop-color="#fff"/>
      <stop offset="1" stop-color="#d2e6ee"/>
    </linearGradient>
  </defs>
  <g id="Grupo_888966" data-name="Grupo 888966" transform="translate(-149.259 -59)">
    <g id="Grupo_47578" data-name="Grupo 47578" transform="translate(373.334 122.139)">
      <g id="Grupo_47575" data-name="Grupo 47575" transform="translate(0)">
        <g id="Grupo_47574" data-name="Grupo 47574">
          <path id="Trazado_97681" data-name="Trazado 97681" d="M774.793,234.456a1.159,1.159,0,0,1,.258.2c.648.759.531,1.542.944,2.446.184.4,1.313.568.815,1.349-.184.288-.734.932-1.131,1.543a6.537,6.537,0,0,0-.714,3.573c.24,4.728,1.76,9.259,3.4,13.694a1.7,1.7,0,0,0,.395.7,1.781,1.781,0,0,0,1.383.246,36.167,36.167,0,0,1,6.708.011,13.51,13.51,0,0,1,5.727,1.588,6.077,6.077,0,0,1,3.124,4.819,4.743,4.743,0,0,1-1.9,3.875c-2.992,2.195-7.642-.591-10.628-1.682a64.391,64.391,0,0,1-8.234-3.681,2.773,2.773,0,0,1-.9-.65,2.811,2.811,0,0,1-.452-1.088,140.576,140.576,0,0,1-2.832-15.023c-.2-1.392.356-2.712.158-4-.126-.82-.814-1.373-1.1-2.121a7.74,7.74,0,0,1-.469-2.576c.012-1.563,1.32-2.509,2.383-3.448a1.676,1.676,0,0,1,.763-.47,2.426,2.426,0,0,1,1.482.275A4.691,4.691,0,0,1,774.793,234.456Z" transform="translate(-769.346 -233.727)" fill="#e2bd9c"/>
        </g>
      </g>
      <g id="Grupo_47577" data-name="Grupo 47577" transform="translate(15.081 23.38)">
        <g id="Grupo_47576" data-name="Grupo 47576">
          <path id="Trazado_97682" data-name="Trazado 97682" d="M811.2,307.7q.181-4.5.363-8.993c-.008.192,13.636-.283,14.449-.284,3.1,0,6.32.02,9.14,1.314,6.023,2.764,5.676,11.482-.948,13.25a36.939,36.939,0,0,1-22.59-1.554.936.936,0,0,1-.4-.255.955.955,0,0,1-.125-.638Q811.141,309.123,811.2,307.7Z" transform="translate(-811.081 -298.426)" fill="#f9c869"/>
        </g>
      </g>
    </g>
    <g id="Grupo_47605" data-name="Grupo 47605" transform="translate(372.547 114.052)">
      <g id="Grupo_47586" data-name="Grupo 47586" transform="translate(0 77.693)">
        <g id="Grupo_47584" data-name="Grupo 47584" transform="translate(0 60.74)">
          <g id="Grupo_47583" data-name="Grupo 47583">
            <g id="Grupo_47580" data-name="Grupo 47580" transform="translate(7.999)">
              <g id="Grupo_47579" data-name="Grupo 47579">
                <path id="Trazado_97683" data-name="Trazado 97683" d="M792.254,625.245a23.893,23.893,0,0,1-2.949-.725c.937-9.97,3.393-20.2,5.258-30.085l7.566,1.526a89.792,89.792,0,0,0-6.171,15.793C795.711,612.616,792.4,625.261,792.254,625.245Z" transform="translate(-789.305 -594.435)" fill="#e2bd9c"/>
              </g>
            </g>
            <g id="Grupo_47582" data-name="Grupo 47582" transform="translate(0 28.043)">
              <g id="Grupo_47581" data-name="Grupo 47581">
                <path id="Trazado_97684" data-name="Trazado 97684" d="M775.143,672.116a1.551,1.551,0,0,0-1.5.342,4.1,4.1,0,0,1-.8.592,2.338,2.338,0,0,1-.962.089c-1.861-.085-6.074-.781-4.273,2.616,1.635,3.085,7.226,2.773,10.473,2.476a1.089,1.089,0,0,0,.61-.156,1.492,1.492,0,0,0,.409-.576c.55-1.258,1.279-2.823-.252-3.608-.653-.335-1.352.027-2.043-.332C776.239,673.265,775.754,672.32,775.143,672.116Z" transform="translate(-767.17 -672.038)" fill="#f5ca56"/>
              </g>
            </g>
          </g>
        </g>
        <g id="Grupo_47585" data-name="Grupo 47585" transform="translate(7.923)">
          <path id="Trazado_97685" data-name="Trazado 97685" d="M789.1,494.61l15.6,1.98c7.122-19.346,17.986-35.121,19.9-58.551.13-1.593.955-3.115.728-4.7-.431-2.992-3.261-5.079-6.121-6.06-4.444-1.524-13.014-1.567-16.054,2.84-3.213,4.657-4.113,13.685-5.528,19.145A340.787,340.787,0,0,0,789.1,494.61Z" transform="translate(-789.096 -426.349)" fill="#00223d"/>
        </g>
      </g>
      <g id="Grupo_47594" data-name="Grupo 47594" transform="translate(33.726 74.141)">
        <g id="Grupo_47592" data-name="Grupo 47592" transform="translate(8.915 65.519)">
          <g id="Grupo_47591" data-name="Grupo 47591">
            <g id="Grupo_47588" data-name="Grupo 47588" transform="translate(3.162)">
              <g id="Grupo_47587" data-name="Grupo 47587">
                <path id="Trazado_97686" data-name="Trazado 97686" d="M901.361,628.736a23.863,23.863,0,0,1-3.028.234c-2.228-9.763-3.095-20.251-4.415-30.221l7.664-.917a89.782,89.782,0,0,0-.923,16.93C900.7,615.66,901.5,628.706,901.361,628.736Z" transform="translate(-893.919 -597.833)" fill="#e2bd9c"/>
              </g>
            </g>
            <g id="Grupo_47590" data-name="Grupo 47590" transform="translate(0 29.28)">
              <g id="Grupo_47589" data-name="Grupo 47589">
                <path id="Trazado_97687" data-name="Trazado 97687" d="M892.107,678.859a1.551,1.551,0,0,0-1.315.793,4.125,4.125,0,0,1-.577.813,2.332,2.332,0,0,1-.886.385c-1.794.5-6.014,1.157-3.241,3.821,2.518,2.419,7.731.374,10.722-.923a1.094,1.094,0,0,0,.531-.339,1.493,1.493,0,0,0,.208-.675c.129-1.367.333-3.081-1.367-3.348-.725-.114-1.276.449-2.045.324C893.507,679.608,892.75,678.861,892.107,678.859Z" transform="translate(-885.169 -678.859)" fill="#f5ca56"/>
              </g>
            </g>
          </g>
        </g>
        <g id="Grupo_47593" data-name="Grupo 47593">
          <path id="Trazado_97688" data-name="Trazado 97688" d="M867.936,489.887l15.432-3q1.072-30.9.594-61.839a10.826,10.826,0,0,0-.778-4.689c-1.345-2.708-4.686-3.8-7.709-3.842-4.7-.058-12.851,2.581-14.36,7.718-1.6,5.428.373,14.285.736,19.913A340.8,340.8,0,0,0,867.936,489.887Z" transform="translate(-860.5 -416.52)" fill="#00223d"/>
        </g>
      </g>
      <g id="Grupo_47596" data-name="Grupo 47596" transform="translate(16.388 28.933)">
        <g id="Grupo_47595" data-name="Grupo 47595">
          <path id="Trazado_97689" data-name="Trazado 97689" d="M843.967,297.852a37.453,37.453,0,0,1,9.242,14.452c3.356,9.42,3.421,19.477,3.451,29.333q.016,4.92.031,9.841c.011,3.227-.275,3.922-3.782,3.5-6.5-.788-13.256-2.128-19.145-5.017-2.8-1.374-5.421-3.11-8.359-4.193-4.274-1.574-8.656-.861-12.884-1.886,1.073-3.242,2.676-6.2,3.422-9.6a70.5,70.5,0,0,0,1.334-10.361c.411-6.076,1.167-12.116,1.622-18.169.327-4.335-.245-7.886,4.367-10.73,2.511-1.548,7.078-4.2,10.62-3.481C837.643,292.294,841.619,295.617,843.967,297.852Z" transform="translate(-812.52 -291.414)" fill="#f9c869"/>
        </g>
      </g>
      <g id="Grupo_47604" data-name="Grupo 47604" transform="translate(31.959 0)">
        <g id="Grupo_47599" data-name="Grupo 47599" transform="translate(0 3.972)">
          <g id="Grupo_47598" data-name="Grupo 47598">
            <g id="Grupo_47597" data-name="Grupo 47597">
              <path id="Trazado_97690" data-name="Trazado 97690" d="M856.394,238.846a39.181,39.181,0,0,0,3.428,5.189,11.645,11.645,0,0,1,1.822,5.149c.215,1.407.718,2.507,2.413,2.748,3.2.454,2.283-2.187,3.009-4.109.83-2.2,2.6-3.932,3.837-5.892,3.574-5.665,2.554-16.862-4.875-19.251C857.9,220.068,853.773,233.116,856.394,238.846Z" transform="translate(-855.61 -222.339)" fill="#e2bd9c"/>
            </g>
          </g>
        </g>
        <g id="Grupo_47601" data-name="Grupo 47601" transform="translate(8.544 6.231)">
          <g id="Grupo_47600" data-name="Grupo 47600">
            <path id="Trazado_97691" data-name="Trazado 97691" d="M884.442,237.356a4.062,4.062,0,0,1,2.62.73c.684.619.61,1.971-.293,2.116-.819.133-1.879-.722-2.378-.1-.292.365-.036.9.186,1.324a7.78,7.78,0,0,1,.709,5.273c.336.312.862-.012,1.158-.337a16.974,16.974,0,0,0,3.367-5.53,3.391,3.391,0,0,0,1.238,1.2,3.916,3.916,0,0,1,.077-2.38c.694-2.866,1.166-6.223-.835-8.564a7.445,7.445,0,0,0-4.336-2.277,21.782,21.782,0,0,0-4.956-.155c-.706.032-1.576.184-1.746.838a7.865,7.865,0,0,1,3.926,3.3C883.417,233.24,884.349,237.353,884.442,237.356Z" transform="translate(-879.253 -228.59)" fill="#2b3444"/>
          </g>
        </g>
        <g id="Grupo_47603" data-name="Grupo 47603" transform="translate(1.289)">
          <g id="Grupo_47602" data-name="Grupo 47602">
            <path id="Trazado_97692" data-name="Trazado 97692" d="M868.348,219.46l.167.124A7.032,7.032,0,0,0,870.724,221c1.224.341,2.54-.249,3.745.168,1.347.466,2.233,2.077,3.216,3.031a14.44,14.44,0,0,0,9.135,3.97,5.977,5.977,0,0,0,1.719-.009c.679-.183.656-.491-.068-.723-2.268-.727-2.979-3.912-2.807-6.024.135-1.667.71-3.409.074-4.955A5.883,5.883,0,0,0,883.2,214c-1.112-.745-2.317-.545-3.579-.9-1.317-.374-2.39-1.411-3.733-1.675-1.419-.279-2.837.349-4.256.625a8.809,8.809,0,0,1-3.559-.044,14.253,14.253,0,0,0-3.136-.643,5.132,5.132,0,0,0-3.951,2.282,10.49,10.49,0,0,0-1.686,7.3c-.071-.37,1.176-1.712,1.432-2a3.376,3.376,0,0,1,2.022-1.279A8.688,8.688,0,0,1,868.348,219.46Z" transform="translate(-859.176 -211.347)" fill="#292949"/>
          </g>
        </g>
      </g>
    </g>
    <g id="Grupo_47608" data-name="Grupo 47608" transform="translate(281.975 125.994)">
      <g id="Grupo_47606" data-name="Grupo 47606" transform="translate(0 0)">
        <path id="Trazado_97693" data-name="Trazado 97693" d="M522.9,244.395l-5.5.077a9.978,9.978,0,0,1-.873,3.137q5.059,2.687,9.839,5.862a16.978,16.978,0,0,1,2.66-.546C528.457,251.853,523.558,244.385,522.9,244.395Z" transform="translate(-516.526 -244.395)" fill="#e2bd9c"/>
      </g>
      <g id="Grupo_47607" data-name="Grupo 47607" transform="translate(5.016 3.909)">
        <path id="Trazado_97694" data-name="Trazado 97694" d="M550.139,269.563c-.675-.69-1.378-1.509-2.206-2.423-3.532-3.894-7.373-7.587-11.065-11.333a1.435,1.435,0,0,0-1.886-.425l-4.575,1.487c.38-.124,7.078,12.566,7.766,13.761,1.3,2.259,2.87,4.485,4.017,6.815.975,1.978,1.382,3.824,3.494,4.985a14.511,14.511,0,0,0,5.907,1.372,128.254,128.254,0,0,0,19.791.041,5.284,5.284,0,0,0,2-.422,4.5,4.5,0,0,0,1.551-1.48,13.61,13.61,0,0,0,2.463-8.171c-.045-1.989-.255-6.2-2.633-6.758a6.686,6.686,0,0,0-3.5.463c-4.426,1.408-8.9,2.664-13.372,3.912C553.874,272.505,552.128,271.6,550.139,269.563Z" transform="translate(-530.407 -255.212)" fill="#167377"/>
      </g>
    </g>
    <g id="Grupo_47629" data-name="Grupo 47629" transform="translate(308.602 113.879)">
      <g id="Grupo_47628" data-name="Grupo 47628">
        <g id="Grupo_47627" data-name="Grupo 47627">
          <g id="Grupo_47613" data-name="Grupo 47613" transform="translate(0 74.007)">
            <g id="Grupo_47611" data-name="Grupo 47611" transform="translate(0 81.546)">
              <g id="Grupo_47609" data-name="Grupo 47609" transform="translate(4.659)">
                <path id="Trazado_97695" data-name="Trazado 97695" d="M606.348,652.717a17.448,17.448,0,0,1-3.186-.253,54.652,54.652,0,0,1,.64-11.13c1.756,1.741,3.087.6,3.226,4.046C607.073,646.5,606.037,651.032,606.348,652.717Z" transform="translate(-603.108 -641.334)" fill="#e2bd9c"/>
              </g>
              <g id="Grupo_47610" data-name="Grupo 47610" transform="translate(0 9.244)">
                <path id="Trazado_97696" data-name="Trazado 97696" d="M594.581,666.949c-1.272-.375-1.385,2.618-1.355,3.319a5.2,5.2,0,0,1,.008,1.26,3.366,3.366,0,0,1-.634,1.227l-1.682,2.379a3.966,3.966,0,0,0-.631,1.141,2.328,2.328,0,0,0,1.353,2.646c3.442,1.5,6.267-2.765,6.839-5.508.088-.421.145-.847.2-1.272.119-.881.67-2.818.276-3.649-.46-.97-1.641-.181-2.463-.511C595.732,667.674,595.1,667.1,594.581,666.949Z" transform="translate(-590.214 -666.916)" fill="#167377"/>
              </g>
            </g>
            <g id="Grupo_47612" data-name="Grupo 47612" transform="translate(1.639)">
              <path id="Trazado_97697" data-name="Trazado 97697" d="M617.883,445.6c-2.639,8.67-5.769,17.181-7.319,26.188-1.915,11.127-5.4,22.069-6.874,33.2a27.217,27.217,0,0,1-4.072.057c-1.555-.095-4.03-.373-4.683-2.028a10.229,10.229,0,0,1-.118-3.163c-.023-2.876.02-5.754.069-8.629.138-8.137.083-16.362,1.122-24.434,1.092-8.492,2.116-17.009,3.021-25.489.467-4.383,1.1-8.748,1.94-13.075.216-1.115,2.473-12.609,3.047-12.551A53.226,53.226,0,0,1,623.35,421.4a2.719,2.719,0,0,1,1.4,1.272,2.51,2.51,0,0,1-.071,1.68c-1.462,5.322-3.528,10.352-5.108,15.661C619.02,441.855,618.461,443.7,617.883,445.6Z" transform="translate(-594.751 -415.669)" fill="#aeb3b7"/>
            </g>
          </g>
          <g id="Grupo_47618" data-name="Grupo 47618" transform="translate(19.612 74.942)">
            <g id="Grupo_47616" data-name="Grupo 47616" transform="translate(6.96 81.354)">
              <g id="Grupo_47614" data-name="Grupo 47614" transform="translate(0.493)">
                <path id="Trazado_97698" data-name="Trazado 97698" d="M665.11,654.092a17.459,17.459,0,0,0,3.177.35,54.664,54.664,0,0,0,1.462-11.053c-2.052,1.38-3.145.005-3.929,3.368C665.566,647.846,665.732,652.494,665.11,654.092Z" transform="translate(-665.11 -643.389)" fill="#e2bd9c"/>
              </g>
              <g id="Grupo_47615" data-name="Grupo 47615" transform="translate(0 8.582)">
                <path id="Trazado_97699" data-name="Trazado 97699" d="M668.428,668.464c.117,2.035,1.844,4.136,2.833,5.916a1.255,1.255,0,0,1-.111,1.649,2.615,2.615,0,0,1-1.006,1.06,2.492,2.492,0,0,1-1.433.065q-1.2-.194-2.386-.5a1.637,1.637,0,0,1-.561-.223,1.692,1.692,0,0,1-.438-.564,6.146,6.146,0,0,1-1.158-3.052,18.78,18.78,0,0,0-.258-3.831c-.149-.6-.345-1.372.158-1.735.388-.281,1.147.033,1.59.08a5.979,5.979,0,0,1,2.231.361,1.035,1.035,0,0,1,.395.3A.866.866,0,0,1,668.428,668.464Z" transform="translate(-663.746 -667.138)" fill="#167377"/>
              </g>
            </g>
            <g id="Grupo_47617" data-name="Grupo 47617">
              <path id="Trazado_97700" data-name="Trazado 97700" d="M647.2,445.265c.964,9.011,2.439,17.959,2.27,27.1-.209,11.288,1.157,22.689.516,33.9a27.23,27.23,0,0,0,3.989.821c1.545.2,4.029.391,4.981-1.112a10.239,10.239,0,0,0,.71-3.084c.563-2.821,1.061-5.655,1.553-8.488,1.392-8.017,2.991-16.086,3.487-24.21.522-8.546,1.116-17.1,1.82-25.6.364-4.393.562-8.8.551-13.207,0-1.136-.061-12.85-.636-12.9a53.227,53.227,0,0,0-20.066,1.993,2.714,2.714,0,0,0-1.612.986,2.51,2.51,0,0,0-.246,1.664c.437,5.5,1.521,10.831,2.075,16.341C646.786,441.374,646.988,443.293,647.2,445.265Z" transform="translate(-644.485 -418.256)" fill="#bcbec0"/>
            </g>
          </g>
          <g id="Grupo_47619" data-name="Grupo 47619" transform="translate(1.27 28.349)">
            <path id="Trazado_97701" data-name="Trazado 97701" d="M606.88,290.617c-.108.044-.215.089-.321.137a18.483,18.483,0,0,0-4.7,3.426c-2.166,1.962-3.239,2.829-3.962,5.595a66.136,66.136,0,0,0-1.388,7.921c-1.813,13.546-1.554,26.918-2.636,40.523-.294,3.7-.438,8.046,2.423,10.416,4.61-4.026,10.659-4.586,16.508-4.922,4.107-.236,8.048-1.793,12.191-1.568,3.959.215,7.341-.962,11.349-.928.966.008,2.192-.072,2.522-.98-1.616-4.064-1.844-8.52-2.4-12.858-1.447-11.22-5.791-21.82-7.93-32.925-.727-3.774-1.358-10.072-4.466-12.785-3.378-2.948-10.683-2.6-14.762-1.753A14.224,14.224,0,0,0,606.88,290.617Z" transform="translate(-593.728 -289.32)" fill="#167377"/>
          </g>
          <g id="Grupo_47624" data-name="Grupo 47624" transform="translate(12.552 9.852)">
            <g id="Grupo_47623" data-name="Grupo 47623">
              <g id="Grupo_47622" data-name="Grupo 47622">
                <g id="Grupo_47621" data-name="Grupo 47621">
                  <g id="Grupo_47620" data-name="Grupo 47620">
                    <path id="Trazado_97702" data-name="Trazado 97702" d="M630.391,259.72a1.4,1.4,0,0,0,.287.345,3.07,3.07,0,0,0,1.762.7,7.619,7.619,0,0,0,2.481-.317c1.1-.274,1.022-.922,1.126-1.938.057-.555.08-1.113.09-1.671.005-.306-.174-1.39.008-1.614.124-.152.663-.134.891-.27a2.6,2.6,0,0,0,.857-.952,7.277,7.277,0,0,0,.649-1.89q.414-1.694.826-3.389a17.648,17.648,0,0,0,.608-3.5c.067-1.789-.363-4.286-1.78-5.511a8.045,8.045,0,0,0-4.756-1.549,9.71,9.71,0,0,0-6.225,1.629,5.2,5.2,0,0,0-1.815,2.007,8.409,8.409,0,0,0-.316,4.4q.22,2.061.439,4.123c.168,1.581.469,3.4,1.705,4.189.656.421,1.487.472,2.059,1.027a4.113,4.113,0,0,1,.817,2.725A3.4,3.4,0,0,0,630.391,259.72Z" transform="translate(-624.948 -238.132)" fill="#e2bd9c"/>
                  </g>
                </g>
              </g>
            </g>
          </g>
          <g id="Grupo_47625" data-name="Grupo 47625" transform="translate(14.773 1.452)">
            <path id="Trazado_97703" data-name="Trazado 97703" d="M643.775,232.918c-.046.315-.087.638-.109.971-.188,2.831.25,5.554-.317,8.394a17.924,17.924,0,0,0,6.618-5.686,4.62,4.62,0,0,0,.755-1.41,5.61,5.61,0,0,0,.143-1.6,47.405,47.405,0,0,0-1.237-10.224,14.771,14.771,0,0,0-1.323-3.8c-1.929-3.478-5.8-4.641-9.287-4.677a8.6,8.6,0,0,0-5.763,1.638c-1.761,1.469-2.238,4.008-2.152,6.176a3.29,3.29,0,0,0,.328,1.546c.556.955,1.835,1.14,2.938,1.195a28.039,28.039,0,0,1,4.63.434,7.38,7.38,0,0,1,4.029,2.173C644.462,229.688,644.03,231.187,643.775,232.918Z" transform="translate(-631.094 -214.886)" fill="#00223d"/>
          </g>
          <g id="Grupo_47626" data-name="Grupo 47626" transform="translate(6.683)">
            <path id="Trazado_97704" data-name="Trazado 97704" d="M611.444,217.414a16.5,16.5,0,0,0-1.139,3.033c-1.027,3.76-1.991,7.318-1.437,11.3a6.833,6.833,0,0,0,.385,1.621,6.579,6.579,0,0,0,1.191,1.784,32.668,32.668,0,0,0,6.12,5.547c-.937-4.8-1.858-9.948-.361-14.484a16.1,16.1,0,0,1,6.26-7.944c1.488-1.073,5.5-3.245,4.468-5.641-1.415-3.3-9.17-1.2-11.319.13A11.235,11.235,0,0,0,611.444,217.414Z" transform="translate(-608.707 -210.869)" fill="#00223d"/>
          </g>
        </g>
      </g>
    </g>
    <g id="Grupo_47632" data-name="Grupo 47632" transform="translate(228.83 148.262)">
      <g id="Grupo_47630" data-name="Grupo 47630" transform="translate(34.595 12.054)">
        <path id="Trazado_97705" data-name="Trazado 97705" d="M470.339,342.447c.7-.626,1.313-1.354,1.994-2a5.106,5.106,0,0,1,1.2-1.009.86.86,0,0,1,.785.066c.24.218.1.42.2.675-.474.366-.954.722-1.4,1.118a.134.134,0,0,0-.033.211c.408.669.728.541,1.392.2l3.506-1.82a1.513,1.513,0,0,1,1.287-.207l1.608.306a.52.52,0,0,1,.523.536l.291,1.621a1.129,1.129,0,0,1,.008.538,1.067,1.067,0,0,1-.287.405c-.443.448-.926.854-1.4,1.271a7.177,7.177,0,0,1-1.082.848,6.157,6.157,0,0,1-.906.412,50.541,50.541,0,0,1-11.837,3,.73.73,0,0,1-.355-.014c-.242-.094-.309-.4-.341-.658-.064-.511-.437-1.669-.234-2.14.184-.428,1.211-.692,1.611-.91A15.314,15.314,0,0,0,470.339,342.447Z" transform="translate(-465.196 -339.373)" fill="#e2bd9c"/>
      </g>
      <g id="Grupo_47631" data-name="Grupo 47631" transform="translate(0 0)">
        <path id="Trazado_97706" data-name="Trazado 97706" d="M389.3,325.437q6.831-1.324,13.576-3.053c1.606-.412,3.759-1.6,5.005-.516,1.06.925,3,5.921,2.2,7.178-.758,1.193-4.655,1.667-5.994,2.166q-8.941,3.336-17.991,6.37a7.57,7.57,0,0,1-2.341.515,6.271,6.271,0,0,1-3-.944c-4.067-2.249-7.257-7.858-9.328-11.916-3.179-6.228-2.694-12.155,2.753-16.745a10.178,10.178,0,0,1,5.642-2.453c3.083-.23,3.444,1.3,4.575,3.844A72.381,72.381,0,0,1,389.3,325.437Z" transform="translate(-369.459 -306.016)" fill="#b5d6ca"/>
      </g>
    </g>
    <g id="Grupo_47652" data-name="Grupo 47652" transform="translate(211.468 111.939)">
      <g id="Grupo_47641" data-name="Grupo 47641" transform="translate(0 0)">
        <g id="Grupo_47634" data-name="Grupo 47634" transform="translate(10.938 14.374)">
          <g id="Grupo_47633" data-name="Grupo 47633">
            <path id="Trazado_97707" data-name="Trazado 97707" d="M354.439,253.023a24.851,24.851,0,0,0,5.234,4,42.278,42.278,0,0,1-3.876-10.888,1.11,1.11,0,0,0-.388-.766,1.043,1.043,0,0,0-.8-.025C349.84,246.557,351.725,250.307,354.439,253.023Z" transform="translate(-351.681 -245.275)" fill="#00223d"/>
          </g>
        </g>
        <g id="Grupo_47635" data-name="Grupo 47635" transform="translate(11.886 5.232)">
          <path id="Trazado_97708" data-name="Trazado 97708" d="M369.872,241.643a7.2,7.2,0,0,0,.744-1.024c2.877-4.8,2.746-22.795-10.118-20.427-11.681,2.15-4.147,15.937.767,20.8a8.545,8.545,0,0,0,3.494,2.257c.372.108.26,3.725.589,4.27a2.7,2.7,0,0,0,3.329.9,4.491,4.491,0,0,0,2.114-2.784C370.945,244.91,369.6,241.951,369.872,241.643Z" transform="translate(-354.304 -219.978)" fill="#e2bd9c"/>
        </g>
        <g id="Grupo_47640" data-name="Grupo 47640">
          <g id="Grupo_47637" data-name="Grupo 47637" transform="translate(22.678 2.258)">
            <g id="Grupo_47636" data-name="Grupo 47636">
              <path id="Trazado_97709" data-name="Trazado 97709" d="M389.085,231.19c1.174.627,2.556-.388,3.354-1.453a12.946,12.946,0,0,0-.146-15.263c-2.812-3.609-9.371-4.1-7.916,1.385.516,1.944,2.807,3.852,3.536,5.93C388.954,224.758,388.984,228.081,389.085,231.19Z" transform="translate(-384.169 -211.748)" fill="#00223d"/>
            </g>
          </g>
          <g id="Grupo_47639" data-name="Grupo 47639">
            <g id="Grupo_47638" data-name="Grupo 47638">
              <path id="Trazado_97710" data-name="Trazado 97710" d="M326.749,211.178c-3.554,5.435-2.563,12.74-5.337,18.611a19.261,19.261,0,0,0,13.422-6.678c3.261-3.841,12.536-10.028,8.224-15.08C338.669,202.889,329.862,206.416,326.749,211.178Z" transform="translate(-321.412 -205.499)" fill="#00223d"/>
            </g>
          </g>
        </g>
      </g>
      <g id="Grupo_47649" data-name="Grupo 47649" transform="translate(12.273 87.923)">
        <g id="Grupo_47642" data-name="Grupo 47642" transform="translate(17.26 86.947)">
          <path id="Trazado_97711" data-name="Trazado 97711" d="M404.57,689.418l-.982,1.136-.448,1.238,2.725,4.392,2.663,1.112,3.025-.172s1.307-.437.561-1.494a6.158,6.158,0,0,0-2.8-1.634l.4-3.472Z" transform="translate(-403.14 -689.418)" fill="#7d6eb2"/>
        </g>
        <g id="Grupo_47643" data-name="Grupo 47643" transform="translate(4.769 84.457)">
          <path id="Trazado_97712" data-name="Trazado 97712" d="M371.241,684.824l-.45,2.144-2.218,3.6.915,1.191,3.543-.2,2.243-3,.174-6.035-4.063.271Z" transform="translate(-368.573 -682.53)" fill="#7d6eb2"/>
        </g>
        <g id="Grupo_47648" data-name="Grupo 47648">
          <g id="Grupo_47645" data-name="Grupo 47645" transform="translate(0 1.923)">
            <g id="Grupo_47644" data-name="Grupo 47644">
              <path id="Trazado_97713" data-name="Trazado 97713" d="M357.484,454.132l-2.109,11.557,5.95,73.836,6.227-1.306L377.882,456.6Z" transform="translate(-355.375 -454.132)" fill="#00223d"/>
            </g>
          </g>
          <g id="Grupo_47647" data-name="Grupo 47647" transform="translate(16.746)">
            <g id="Grupo_47646" data-name="Grupo 47646">
              <path id="Trazado_97714" data-name="Trazado 97714" d="M419.647,449.215l1.2,47.593-12.088,41.083-7.046-2.62,5.934-36.638L402.2,448.809Z" transform="translate(-401.716 -448.809)" fill="#00223d"/>
            </g>
          </g>
        </g>
      </g>
      <g id="Grupo_47651" data-name="Grupo 47651" transform="translate(8.023 27.841)">
        <g id="Grupo_47650" data-name="Grupo 47650">
          <path id="Trazado_97715" data-name="Trazado 97715" d="M346.38,295.17c-1.129,2.455-1.337,5.169-1.711,8.127a139.059,139.059,0,0,0-1.038,15.433c-.084,5.99.169,11.977.641,17.943.236,2.984.529,5.964.862,8.939.173,1.541-.507,5.5,1.161,6.309a5.763,5.763,0,0,0,3.1.242l27.734-2.912a11.228,11.228,0,0,0,4.3-1.039c2.3-1.274,1.9-3.776,2.262-5.885a44.5,44.5,0,0,0,.532-8.45c-.117-5.8-1.006-11.54-1.424-17.316-.449-6.211-1.445-14.541-3.8-20.446A19.529,19.529,0,0,0,374.4,289.4c-2.547-2.379-4.89-2.979-8.32-3.6a.884.884,0,0,1-.4-.143.775.775,0,0,1-.216-.385l-.656-2.005a1.029,1.029,0,0,0-.433-.654,1.2,1.2,0,0,0-.8,0l-6.89,1.566a4.215,4.215,0,0,1,.173,1.6,1.565,1.565,0,0,1-.955,1.265,22.455,22.455,0,0,0-6.7,4.37A11.184,11.184,0,0,0,346.38,295.17Z" transform="translate(-343.615 -282.543)" fill="#7d6eb2"/>
        </g>
      </g>
    </g>
    <g id="Grupo_47676" data-name="Grupo 47676" transform="translate(240.699 153.055)">
      <g id="Grupo_47653" data-name="Grupo 47653" transform="translate(3.363 2.685)">
        <rect id="Rectángulo_28558" data-name="Rectángulo 28558" width="89.262" height="120.665" transform="translate(2.411 0) rotate(1.145)" fill="#00223d"/>
      </g>
      <g id="Grupo_47654" data-name="Grupo 47654" transform="translate(1.12 0)">
        <rect id="Rectángulo_28559" data-name="Rectángulo 28559" width="89.262" height="120.665" transform="translate(2.411 0) rotate(1.145)" fill="#bcbec0"/>
      </g>
      <g id="Grupo_47655" data-name="Grupo 47655" transform="translate(0 0.016)">
        <rect id="Rectángulo_28560" data-name="Rectángulo 28560" width="89.262" height="120.665" fill="#f2f2f2"/>
      </g>
      <g id="Grupo_47660" data-name="Grupo 47660" transform="translate(13.691 7.347)">
        <g id="Grupo_47656" data-name="Grupo 47656" transform="translate(0 0.24)">
          <path id="Trazado_97716" data-name="Trazado 97716" d="M453.909,355.718h-3.735l-6.247-9.48v9.48h-3.735V340.275h3.735l6.247,9.567v-9.567h3.735Z" transform="translate(-440.191 -340.275)" fill="#00223d"/>
        </g>
        <g id="Grupo_47657" data-name="Grupo 47657" transform="translate(16.295 0.24)">
          <path id="Trazado_97717" data-name="Trazado 97717" d="M489.019,343.246v3.233h5.221V349.3h-5.221v3.429h5.876v2.993h-9.611V340.275h9.611v2.971Z" transform="translate(-485.284 -340.275)" fill="#00223d"/>
        </g>
        <g id="Grupo_47658" data-name="Grupo 47658" transform="translate(27.412 0.24)">
          <path id="Trazado_97718" data-name="Trazado 97718" d="M537.653,340.275l-3.692,15.443h-4.63l-2.468-10.332-2.49,10.332h-4.63l-3.692-15.443h4.063l1.988,11.184,2.708-11.184h4.085l2.708,11.184,2.01-11.184Z" transform="translate(-516.05 -340.275)" fill="#00223d"/>
        </g>
        <g id="Grupo_47659" data-name="Grupo 47659" transform="translate(50.522)">
          <path id="Trazado_97719" data-name="Trazado 97719" d="M590.935,353.2a4.384,4.384,0,0,1-1.835,1.638,6.461,6.461,0,0,1-2.938.612,6.916,6.916,0,0,1-4.281-1.267,4.588,4.588,0,0,1-1.835-3.538h3.975a2.1,2.1,0,0,0,.623,1.376,1.914,1.914,0,0,0,1.365.5,1.586,1.586,0,0,0,1.136-.393,1.377,1.377,0,0,0,.415-1.048,1.355,1.355,0,0,0-.382-.983,3,3,0,0,0-.95-.644q-.569-.251-1.573-.6a19.258,19.258,0,0,1-2.392-.972,4.4,4.4,0,0,1-1.595-1.4,4.55,4.55,0,0,1,.033-4.795,4.444,4.444,0,0,1,1.933-1.54,7.051,7.051,0,0,1,2.829-.535,6.344,6.344,0,0,1,4.1,1.223,4.669,4.669,0,0,1,1.715,3.364h-4.041a2.077,2.077,0,0,0-.557-1.212,1.641,1.641,0,0,0-1.212-.448,1.564,1.564,0,0,0-1.06.349,1.284,1.284,0,0,0-.4,1.027,1.3,1.3,0,0,0,.36.928,2.744,2.744,0,0,0,.907.623q.546.241,1.573.611a17.342,17.342,0,0,1,2.425.994,4.643,4.643,0,0,1,1.616,1.431,4.088,4.088,0,0,1,.677,2.446A4.259,4.259,0,0,1,590.935,353.2Z" transform="translate(-580.002 -339.61)" fill="#00223d"/>
        </g>
      </g>
      <g id="Grupo_47661" data-name="Grupo 47661" transform="translate(5.758 29.047)" opacity="0.1">
        <rect id="Rectángulo_28561" data-name="Rectángulo 28561" width="77.745" height="14.839" fill="#00223d"/>
      </g>
      <g id="Grupo_47662" data-name="Grupo 47662" transform="translate(5.758 53.787)" opacity="0.1">
        <rect id="Rectángulo_28562" data-name="Rectángulo 28562" width="36.502" height="26.092" fill="#00223d"/>
      </g>
      <g id="Grupo_47663" data-name="Grupo 47663" transform="translate(46.947 85.837)" opacity="0.1">
        <rect id="Rectángulo_28563" data-name="Rectángulo 28563" width="36.502" height="26.092" fill="#00223d"/>
      </g>
      <g id="Grupo_47664" data-name="Grupo 47664" transform="translate(46.947 52.658)" opacity="0.1">
        <rect id="Rectángulo_28564" data-name="Rectángulo 28564" width="36.265" height="2.259" fill="#00223d"/>
      </g>
      <g id="Grupo_47665" data-name="Grupo 47665" transform="translate(46.947 57.665)" opacity="0.1">
        <rect id="Rectángulo_28565" data-name="Rectángulo 28565" width="36.265" height="2.259" fill="#00223d"/>
      </g>
      <g id="Grupo_47666" data-name="Grupo 47666" transform="translate(46.947 62.672)" opacity="0.1">
        <rect id="Rectángulo_28566" data-name="Rectángulo 28566" width="36.265" height="2.259" fill="#00223d"/>
      </g>
      <g id="Grupo_47667" data-name="Grupo 47667" transform="translate(46.947 67.679)" opacity="0.1">
        <rect id="Rectángulo_28567" data-name="Rectángulo 28567" width="36.265" height="2.259" fill="#00223d"/>
      </g>
      <g id="Grupo_47668" data-name="Grupo 47668" transform="translate(46.947 72.252)" opacity="0.1">
        <rect id="Rectángulo_28568" data-name="Rectángulo 28568" width="36.265" height="2.259" fill="#00223d"/>
      </g>
      <g id="Grupo_47669" data-name="Grupo 47669" transform="translate(46.947 77.259)" opacity="0.1">
        <rect id="Rectángulo_28569" data-name="Rectángulo 28569" width="36.265" height="2.259" fill="#00223d"/>
      </g>
      <g id="Grupo_47670" data-name="Grupo 47670" transform="translate(5.877 84.708)" opacity="0.1">
        <rect id="Rectángulo_28570" data-name="Rectángulo 28570" width="36.265" height="2.259" fill="#00223d"/>
      </g>
      <g id="Grupo_47671" data-name="Grupo 47671" transform="translate(5.877 89.715)" opacity="0.1">
        <rect id="Rectángulo_28571" data-name="Rectángulo 28571" width="36.265" height="2.259" fill="#00223d"/>
      </g>
      <g id="Grupo_47672" data-name="Grupo 47672" transform="translate(5.877 94.723)" opacity="0.1">
        <rect id="Rectángulo_28572" data-name="Rectángulo 28572" width="36.265" height="2.259" fill="#00223d"/>
      </g>
      <g id="Grupo_47673" data-name="Grupo 47673" transform="translate(5.877 99.73)" opacity="0.1">
        <rect id="Rectángulo_28573" data-name="Rectángulo 28573" width="36.265" height="2.259" fill="#00223d"/>
      </g>
      <g id="Grupo_47674" data-name="Grupo 47674" transform="translate(5.877 104.302)" opacity="0.1">
        <rect id="Rectángulo_28574" data-name="Rectángulo 28574" width="36.265" height="2.259" fill="#00223d"/>
      </g>
      <g id="Grupo_47675" data-name="Grupo 47675" transform="translate(5.877 109.31)" opacity="0.1">
        <rect id="Rectángulo_28575" data-name="Rectángulo 28575" width="36.265" height="2.259" fill="#00223d"/>
      </g>
    </g>
    <g id="Grupo_47679" data-name="Grupo 47679" transform="translate(218.104 150.598)">
      <g id="Grupo_47677" data-name="Grupo 47677" transform="translate(24.074 32.024)">
        <path id="Trazado_97720" data-name="Trazado 97720" d="M415.14,402.314c.452-.315,1.126-1.312,1.784-1.2a1.757,1.757,0,0,1,.677.575c.3.428.172.239.051.716a1.6,1.6,0,0,0,.043,1.3c1.036,1.636,3.455-1.737,4.753-1.744,3.189-.014-.439,4.739-1.114,5.6a3.1,3.1,0,0,1-1.223,1.061,3.353,3.353,0,0,1-1.032.172l-3.833.232c-2.9.176-11.026,1.557-8.3-3.75a.692.692,0,0,1,.375-.388.743.743,0,0,1,.342.011,10.563,10.563,0,0,0,2.165.432,7.617,7.617,0,0,0,2.575-.793C413.632,403.971,414.053,403.072,415.14,402.314Z" transform="translate(-406.396 -401.102)" fill="#e2bd9c"/>
      </g>
      <g id="Grupo_47678" data-name="Grupo 47678" transform="translate(0 0)">
        <path id="Trazado_97721" data-name="Trazado 97721" d="M339.864,345.292c.3,1.5,1.321,2.495,2.71,3.669,3.482,2.945,6.408,5.022,11.136,5.345a78.359,78.359,0,0,0,16.42-.606c-.154.022-1.3-5.251-1.5-5.735-.625-1.518-.625-1.7-2.175-2.283-3.36-1.259-8.451-.832-12.02-.986q1.506-12.212,3.012-24.424c.334-2.7.336-6.093-2.069-7.374a4.605,4.605,0,0,0-4.206.21c-2.618,1.363-4.042,4.229-5.162,6.96a92.471,92.471,0,0,0-6.178,23.475A5.452,5.452,0,0,0,339.864,345.292Z" transform="translate(-339.776 -312.48)" fill="#7d6eb2"/>
      </g>
    </g>
    <g id="Grupo_47684" data-name="Grupo 47684" transform="translate(181.793 141.107)">
      <g id="Grupo_47681" data-name="Grupo 47681" transform="translate(13.361)">
        <g id="Grupo_47680" data-name="Grupo 47680">
          <path id="Trazado_97722" data-name="Trazado 97722" d="M276.265,295.43l1.354-2.78-.9-2.583.441-.471.594.53-.147-2.36,1.11-1.549,2.512.028,2.034,1.645-.285,2.533-1.776,2.431-1.691,3.887Z" transform="translate(-276.265 -286.217)" fill="#ad7b59"/>
        </g>
      </g>
      <g id="Grupo_47683" data-name="Grupo 47683" transform="translate(0 7.613)">
        <g id="Grupo_47682" data-name="Grupo 47682">
          <path id="Trazado_97723" data-name="Trazado 97723" d="M251.359,307.283c-3.347,7.524-16.031,24.093-10.833,32.608,4.337,7.105,12.406,1.549,13.627-4.463,1.758-8.654,2.487-17.848,4.254-26.648Z" transform="translate(-239.291 -307.283)" fill="#8ec8c8"/>
        </g>
      </g>
    </g>
    <g id="Grupo_47713" data-name="Grupo 47713" transform="translate(149.259 112.868)">
      <g id="Grupo_47702" data-name="Grupo 47702" transform="translate(0 28.779)">
        <g id="Grupo_47686" data-name="Grupo 47686" transform="translate(30.96 147.978)">
          <g id="Grupo_47685" data-name="Grupo 47685" transform="translate(0 0)">
            <path id="Trazado_97724" data-name="Trazado 97724" d="M234.974,697.854l-.04,2.6,6.618,3.436,3.385-3.284-3.284-3.385-.43-.007-.118.732Z" transform="translate(-234.934 -697.215)" fill="#8ec8c8"/>
          </g>
        </g>
        <g id="Grupo_47688" data-name="Grupo 47688" transform="translate(10.741 147.626)">
          <g id="Grupo_47687" data-name="Grupo 47687">
            <path id="Trazado_97725" data-name="Trazado 97725" d="M182.829,696.248l-.46-.007-3.385,3.284,3.284,3.385,6.72-3.233.04-2.6-6.131-.093Z" transform="translate(-178.983 -696.241)" fill="#8ec8c8"/>
          </g>
        </g>
        <g id="Grupo_47701" data-name="Grupo 47701">
          <g id="Grupo_47690" data-name="Grupo 47690">
            <g id="Grupo_47689" data-name="Grupo 47689">
              <path id="Trazado_97726" data-name="Trazado 97726" d="M165.432,337.387a81.319,81.319,0,0,0,1.791-10.74c.291-6.684,1.469-28.755,1.469-28.755l4.21-8.385.753.019-.162-.022c.177.024-.06-1.634-.121-1.781a14.088,14.088,0,0,0-10.431,4.512,26.065,26.065,0,0,0-3.708,7.01c-2.808,6.937-4.131,13.384-5.591,20.7-.93,4.666-1.8,9.311-2.491,13.946a145.657,145.657,0,0,0-1.556,15.352c-.024.564-.16,2.138-.251,4.02-.192,3.943-.188,9.22,1.443,9.442a1.592,1.592,0,0,0,.873-.22A57.458,57.458,0,0,0,157.323,359l.413-20.576Z" transform="translate(-149.259 -287.712)" fill="#8ec8c8"/>
            </g>
          </g>
          <g id="Grupo_47692" data-name="Grupo 47692" transform="translate(28.769 0.317)">
            <g id="Grupo_47691" data-name="Grupo 47691">
              <path id="Trazado_97727" data-name="Trazado 97727" d="M253.491,359.666c-.351-4.385-.718-8.77-1.181-13.144a164.358,164.358,0,0,0-4.535-25.9c-.881-3.235-1.9-6.427-2.928-9.619l-3.74-11.658c-1.549-4.83-4.236-8.256-9.005-10.01a17.846,17.846,0,0,0-2.676-.742,2.96,2.96,0,0,0-.061.305,2.522,2.522,0,0,1-.492,1.3l3.147.078s8.4,31.691,8.642,37.135c.093,2.069.437,6.589.823,11.35l4.811.8-.07,18.189q.4.125.8.239a13.831,13.831,0,0,1,4.008,2.5C252.891,361.821,253.706,362.354,253.491,359.666Z" transform="translate(-228.872 -288.588)" fill="#8ec8c8"/>
            </g>
          </g>
          <g id="Grupo_47694" data-name="Grupo 47694" transform="translate(33.166 50.487)">
            <g id="Grupo_47693" data-name="Grupo 47693">
              <path id="Trazado_97728" data-name="Trazado 97728" d="M249.254,427.424c.612,7.535,1.331,15.677,1.331,15.677s-3.9.034-9.546.376c.417,0,.835-.009,1.251-.006,3.923.024,7.965,1.781,11.7,2.937l.07-18.189Z" transform="translate(-241.039 -427.424)" fill="#3ababa"/>
            </g>
          </g>
          <g id="Grupo_47696" data-name="Grupo 47696" transform="translate(8.064 49.675)">
            <g id="Grupo_47695" data-name="Grupo 47695">
              <path id="Trazado_97729" data-name="Trazado 97729" d="M178.29,444.052c-2.691.1-3.018-.41-3.018-.41s2.577-9.871,4.411-18.464l-7.7,1.033-.413,20.576a20.018,20.018,0,0,1,2.073-1.133A25.912,25.912,0,0,1,178.29,444.052Z" transform="translate(-171.574 -425.178)" fill="#8ec8c8"/>
            </g>
          </g>
          <g id="Grupo_47698" data-name="Grupo 47698" transform="translate(7.978 66.533)">
            <g id="Grupo_47697" data-name="Grupo 47697">
              <path id="Trazado_97730" data-name="Trazado 97730" d="M209.479,474.768c-3.739-1.156-7.781-2.912-11.7-2.936-.416,0-.834,0-1.251.006l-1.068.067c-2.632.171-5.589.409-8.678.736l-.455.048a53.46,53.46,0,0,1-8.186,1.158,25.924,25.924,0,0,0-4.643,1.6,19.964,19.964,0,0,0-2.073,1.133l-.086,4.285,6.41,72.895,6.164.094-.011.741h.035l7.521-48.715.032-.275,2.966,49.149h.035l.011-.741,6.194.094,8.689-54.548Z" transform="translate(-171.336 -471.831)" fill="#00223d"/>
            </g>
          </g>
          <g id="Grupo_47700" data-name="Grupo 47700" transform="translate(11.762 1.795)">
            <g id="Grupo_47699" data-name="Grupo 47699">
              <path id="Trazado_97731" data-name="Trazado 97731" d="M211.427,341.371c-.386-4.761-.73-9.281-.823-11.35-.243-5.444-8.642-37.135-8.642-37.135l-3.147-.078a1.167,1.167,0,0,1-.111.112.972.972,0,0,1-.341.191,1.838,1.838,0,0,1-.805.01l-3.116-.423-.753-.019-4.21,8.385s-1.178,22.071-1.469,28.755a81.315,81.315,0,0,1-1.791,10.74c-1.835,8.593-4.411,18.464-4.411,18.464s.327.512,3.018.41a53.491,53.491,0,0,0,8.186-1.157l.455-.048c3.089-.327,6.046-.564,8.678-.736l1.068-.067c5.646-.342,9.545-.376,9.545-.376S212.038,348.906,211.427,341.371Z" transform="translate(-181.808 -292.679)" fill="#fff"/>
            </g>
          </g>
        </g>
      </g>
      <g id="Grupo_47712" data-name="Grupo 47712" transform="translate(17.446)">
        <g id="Grupo_47704" data-name="Grupo 47704" transform="translate(14.73 4.81)">
          <g id="Grupo_47703" data-name="Grupo 47703">
            <path id="Trazado_97732" data-name="Trazado 97732" d="M241.231,225.892a12.4,12.4,0,0,1,1.107,5.609,1.771,1.771,0,0,0,.37,1.432c.413.352-.016,1.034.343.624a9.43,9.43,0,0,0,1.665-2.372,20.544,20.544,0,0,0,.247-3.838,5.588,5.588,0,0,0-.837-3.183,6.189,6.189,0,0,0-1.465-1.3,7.857,7.857,0,0,0-2.486-1.344c-1.576-.411-2.594.105-1.26,1.333A9.9,9.9,0,0,1,241.231,225.892Z" transform="translate(-238.3 -221.381)" fill="#292949"/>
          </g>
        </g>
        <g id="Grupo_47707" data-name="Grupo 47707" transform="translate(1.686 4.839)">
          <g id="Grupo_47706" data-name="Grupo 47706">
            <g id="Grupo_47705" data-name="Grupo 47705">
              <path id="Trazado_97733" data-name="Trazado 97733" d="M206.824,247.05l6.546,1.072a41.208,41.208,0,0,0,.971-5.814c1.934-.2,4.225-.681,5.013-2.674a6.8,6.8,0,0,0,.352-2.008l.619-8.464a8.329,8.329,0,0,0-.129-2.91,5.835,5.835,0,0,0-3.273-3.369,12.336,12.336,0,0,0-11.374-.063,6.236,6.236,0,0,0-2.423,2.169c-.9,1.5-.928,3.417-.921,5.215q.009,2.488.017,4.977c.007,1.908.143,4.114,1.527,5.215.735.585,1.724.75,2.342,1.484C207.182,243.176,206.5,245.3,206.824,247.05Z" transform="translate(-202.204 -221.461)" fill="#ad7b59"/>
            </g>
          </g>
        </g>
        <g id="Grupo_47709" data-name="Grupo 47709" transform="translate(1.123 18.179)">
          <g id="Grupo_47708" data-name="Grupo 47708">
            <path id="Trazado_97734" data-name="Trazado 97734" d="M219.459,260.122c0-.525-.12-2.074-.958-1.163a1.6,1.6,0,0,0-.327.926,3.63,3.63,0,0,1-.167.99,1.725,1.725,0,0,1-1.8.925,1.671,1.671,0,0,1-.8-.25,2.563,2.563,0,0,1-.579-.619l-1.25-1.671c-.716-.958-2.281-.67-3.335-.6a6.635,6.635,0,0,0-3.482,1.106c-.1.075-.207.154-.31.232a3.6,3.6,0,0,1-.788.5,2.306,2.306,0,0,1-2.676-1.067c-.273-.415-.518-.942-.978-1.04a.952.952,0,0,0-.94.5,2.815,2.815,0,0,0-.338,1.14,8.659,8.659,0,0,0,.447,4.3c1.163,2.9,3.745,3.416,6.368,3.53l3.11.135c1.895.083,3.9.138,5.568-.873a6.934,6.934,0,0,0,2.876-4.247A11.1,11.1,0,0,0,219.459,260.122Zm-7.185,3.506a3.578,3.578,0,0,1-3.23.161c-.463-.176-.209-.968.254-.792a2.876,2.876,0,0,0,2.638-.116C212.373,262.624,212.708,263.372,212.275,263.628Z" transform="translate(-200.646 -258.376)" fill="#00223d"/>
          </g>
        </g>
        <g id="Grupo_47711" data-name="Grupo 47711">
          <g id="Grupo_47710" data-name="Grupo 47710">
            <path id="Trazado_97735" data-name="Trazado 97735" d="M218.877,212.726a15.237,15.237,0,0,0,.541-2.057,4.005,4.005,0,0,1-2.019.039l.076-1.218c.019-.338-4.456-.878-4.819-.933-3.4-.516-6.5-1-9.714.657a9.462,9.462,0,0,0-5.2,6.746,14.7,14.7,0,0,0,1.635,9.426,20.562,20.562,0,0,1-.049-3.411,6.762,6.762,0,0,1,.859-2.092,8.76,8.76,0,0,1,3.259-3.049,16.692,16.692,0,0,1,6.8-1.83,17.968,17.968,0,0,1,6.83.456c.993.344,1.144.614,1.825-.383a17.825,17.825,0,0,0,1.033-2.262Z" transform="translate(-197.538 -208.07)" fill="#00223d"/>
          </g>
        </g>
      </g>
    </g>
    <g id="Grupo_47730" data-name="Grupo 47730" transform="translate(157.642 179.843)">
      <g id="Grupo_47724" data-name="Grupo 47724" transform="translate(0 0)">
        <g id="Grupo_47718" data-name="Grupo 47718" transform="translate(4.516)">
          <g id="Grupo_47717" data-name="Grupo 47717">
            <g id="Grupo_47715" data-name="Grupo 47715">
              <g id="Grupo_47714" data-name="Grupo 47714">
                <path id="Rectángulo_28576" data-name="Rectángulo 28576" d="M4.869,0H69.1a4.869,4.869,0,0,1,4.869,4.869V49.383a0,0,0,0,1,0,0H0a0,0,0,0,1,0,0V4.869A4.869,4.869,0,0,1,4.869,0Z" fill="#00223d"/>
              </g>
            </g>
            <g id="Grupo_47716" data-name="Grupo 47716" transform="translate(2.949 3.421)">
              <rect id="Rectángulo_28577" data-name="Rectángulo 28577" width="68.093" height="43.237" fill="url(#linear-gradient)"/>
            </g>
          </g>
        </g>
        <g id="Grupo_47723" data-name="Grupo 47723" transform="translate(0 49.262)">
          <g id="Grupo_47721" data-name="Grupo 47721">
            <g id="Grupo_47719" data-name="Grupo 47719" transform="translate(0.108 3.794)">
              <path id="Trazado_97736" data-name="Trazado 97736" d="M251.128,542.943l-73.972-.222a5.163,5.163,0,0,1-4.4-2.487h0l82.788.247h0A5.163,5.163,0,0,1,251.128,542.943Z" transform="translate(-172.755 -540.234)" fill="#babcbc"/>
            </g>
            <g id="Grupo_47720" data-name="Grupo 47720">
              <rect id="Rectángulo_28578" data-name="Rectángulo 28578" width="83.003" height="4.453" rx="1.768" fill="#c6cac9"/>
            </g>
          </g>
          <g id="Grupo_47722" data-name="Grupo 47722" transform="translate(34.655 1.309)" opacity="0.14">
            <rect id="Rectángulo_28579" data-name="Rectángulo 28579" width="13.692" height="1.575" rx="0.788" fill="#000100"/>
          </g>
        </g>
      </g>
      <g id="Grupo_47725" data-name="Grupo 47725" transform="translate(36.41 13.137)">
        <path id="Trazado_97737" data-name="Trazado 97737" d="M273.215,429.767v18.165l13.324-9.24Z" transform="translate(-273.215 -429.767)" fill="#00223d"/>
      </g>
      <g id="Grupo_47729" data-name="Grupo 47729" transform="translate(10.224 41.014)">
        <g id="Grupo_47726" data-name="Grupo 47726" opacity="0.69">
          <rect id="Rectángulo_28580" data-name="Rectángulo 28580" width="62.555" height="1.94" fill="#fff"/>
        </g>
        <g id="Grupo_47727" data-name="Grupo 47727" transform="translate(0.001)">
          <rect id="Rectángulo_28581" data-name="Rectángulo 28581" width="0.941" height="1.94" fill="#b5d6ca"/>
        </g>
        <g id="Grupo_47728" data-name="Grupo 47728" transform="translate(0.942)">
          <rect id="Rectángulo_28582" data-name="Rectángulo 28582" width="14.873" height="1.94" fill="#00223d"/>
        </g>
      </g>
    </g>
    <path id="Trazado_97738" data-name="Trazado 97738" d="M496.819,80.406a35.159,35.159,0,1,0,2.755,13.643A34.929,34.929,0,0,0,496.819,80.406Zm-49.33,12.563a34.772,34.772,0,0,1,.932-8.036h14.34V101.6H448.534A36.263,36.263,0,0,1,447.489,92.969Zm25.837-23.044a37.058,37.058,0,0,1,5.99,9.582c.266.626.51,1.26.738,1.9H466.288V63.425A40.609,40.609,0,0,1,473.326,69.924ZM462.761,63.77V81.405h-13.3c.219-.614.453-1.224.707-1.827a37.014,37.014,0,0,1,5.938-9.557A40.98,40.98,0,0,1,462.761,63.77Zm0,41.361v18.926a49.175,49.175,0,0,1-6.519-6.9,43.592,43.592,0,0,1-6.03-10.361q-.335-.829-.629-1.666Zm3.527,19.321V105.131h13.644q-.282.8-.6,1.6a43.537,43.537,0,0,1-5.987,10.335A49,49,0,0,1,466.288,124.452Zm0-22.849V84.933H481.1a34.768,34.768,0,0,1,.931,8.036,36.284,36.284,0,0,1-1.044,8.635ZM484.71,84.933h10a31.838,31.838,0,0,1,.424,16.671H484.6a39.764,39.764,0,0,0,.949-8.635A38.383,38.383,0,0,0,484.71,84.933Zm2.1-13.173a31.5,31.5,0,0,1,6.594,9.646h-9.634q-.529-1.663-1.212-3.278a40.577,40.577,0,0,0-6.556-10.5,44.808,44.808,0,0,0-4.152-4.245A31.31,31.31,0,0,1,486.814,71.76Zm-44.579,0a31.3,31.3,0,0,1,15.581-8.513,44.816,44.816,0,0,0-4.307,4.385,40.556,40.556,0,0,0-6.556,10.5q-.686,1.614-1.213,3.278h-10.1A31.491,31.491,0,0,1,442.235,71.76Zm-7.9,13.173H444.8a38.381,38.381,0,0,0-.843,8.036,39.767,39.767,0,0,0,.949,8.635h-11a31.84,31.84,0,0,1,.424-16.671Zm7.9,31.406a31.422,31.422,0,0,1-7.23-11.207h10.86q.479,1.506,1.076,2.988a47.119,47.119,0,0,0,6.515,11.2,53.228,53.228,0,0,0,5.117,5.686A31.292,31.292,0,0,1,442.235,116.339Zm44.579,0a31.3,31.3,0,0,1-15.747,8.55,53.177,53.177,0,0,0,4.992-5.566,47.127,47.127,0,0,0,6.515-11.2q.6-1.482,1.077-2.988h10.393A31.423,31.423,0,0,1,486.814,116.339Z" transform="translate(-178.957)" fill="#00223d"/>
    <g id="Grupo_47737" data-name="Grupo 47737" transform="translate(340.9 97.719)">
      <g id="Grupo_47735" data-name="Grupo 47735" transform="translate(0 0.005)">
        <g id="Grupo_47731" data-name="Grupo 47731">
          <path id="Trazado_97739" data-name="Trazado 97739" d="M715.929,188.1l4.869,7.54-1.69-11.54-39.516-17.939Z" transform="translate(-679.592 -166.162)" fill="#01101c"/>
        </g>
        <g id="Grupo_47732" data-name="Grupo 47732" transform="translate(0.097 0.105)">
          <path id="Trazado_97740" data-name="Trazado 97740" d="M720.97,195.828,716.23,188.4l-36.37-21.941Z" transform="translate(-679.861 -166.454)" fill="#01101c"/>
        </g>
        <g id="Grupo_47733" data-name="Grupo 47733" transform="translate(0.097 0.105)">
          <path id="Trazado_97741" data-name="Trazado 97741" d="M679.861,166.454l.373.171,35.98,21.722.04.018L707.4,199.976Z" transform="translate(-679.861 -166.454)" fill="#f6c343"/>
        </g>
        <g id="Grupo_47734" data-name="Grupo 47734">
          <path id="Trazado_97742" data-name="Trazado 97742" d="M679.592,166.162l47.128,8.063-7.555,9.908-39.1-17.7Z" transform="translate(-679.592 -166.162)" fill="#f6c343"/>
        </g>
      </g>
      <g id="Grupo_47736" data-name="Grupo 47736">
        <path id="Trazado_97743" data-name="Trazado 97743" d="M679.591,167.949h0v0Zm0-1.791v-.009h0Z" transform="translate(-679.591 -166.149)" fill="#a4a6a9"/>
      </g>
    </g>
    <g id="Grupo_47741" data-name="Grupo 47741" transform="translate(323.116 145.685)">
      <g id="Grupo_47739" data-name="Grupo 47739" transform="translate(0 22.551)">
        <g id="Grupo_47738" data-name="Grupo 47738">
          <path id="Trazado_97744" data-name="Trazado 97744" d="M635.8,362.307c-.35-.265-.855-1.078-1.382-1.013a1.4,1.4,0,0,0-.557.436c-.25.332-.144.185-.063.568.1.472.039,1.173-.652,1.08a2.344,2.344,0,0,1-.862-.433.943.943,0,0,0-.916-.137.964.964,0,0,0-.28.267,3.067,3.067,0,0,0-.694,2.157c.27,2.5,3.32,2.231,5.113,2.409,2.305.229,8.724,1.579,6.72-2.728a.55.55,0,0,0-.286-.321.594.594,0,0,0-.273,0,8.4,8.4,0,0,1-1.735.277,6.054,6.054,0,0,1-2.024-.71C636.944,363.672,636.637,362.944,635.8,362.307Z" transform="translate(-630.376 -361.291)" fill="#e2bd9c"/>
        </g>
      </g>
      <g id="Grupo_47740" data-name="Grupo 47740" transform="translate(6.741)">
        <path id="Trazado_97745" data-name="Trazado 97745" d="M665.16,303.76a26.67,26.67,0,0,1,2.11,9.606,155.445,155.445,0,0,1,.366,19.521A99.736,99.736,0,0,1,649.8,330.6a62.161,62.161,0,0,1-.768-10.585,54.483,54.483,0,0,1,8.079.559l-2.126-8.448a19.86,19.86,0,0,1-.892-7.638C655.254,296.547,662.219,297.733,665.16,303.76Z" transform="translate(-649.03 -298.885)" fill="#167377"/>
      </g>
    </g>
    <g id="Grupo_47746" data-name="Grupo 47746" transform="translate(157.708 147.515)">
      <g id="Grupo_47743" data-name="Grupo 47743" transform="translate(26.165 34.691)">
        <g id="Grupo_47742" data-name="Grupo 47742">
          <path id="Trazado_97746" data-name="Trazado 97746" d="M246.225,399.951l2.781,1.307,2.51-.981.478.436-.5.616,2.317-.207,1.562,1.089.058,2.552-1.548,2.107-2.5-.227-2.452-1.744-3.882-1.622Z" transform="translate(-245.047 -399.951)" fill="#ad7b59"/>
        </g>
      </g>
      <g id="Grupo_47745" data-name="Grupo 47745" transform="translate(0 0)">
        <g id="Grupo_47744" data-name="Grupo 47744">
          <path id="Trazado_97747" data-name="Trazado 97747" d="M202.091,338.106l-14.9-7.72-6.469-26.437-8.086,12.418,1.633,17.533,3.82,5.96,23.48,4.6Z" transform="translate(-172.639 -303.949)" fill="#8ec8c8"/>
        </g>
      </g>
    </g>
    <g id="Grupo_47770" data-name="Grupo 47770" transform="translate(347.98 167.638)">
      <g id="Grupo_47762" data-name="Grupo 47762" transform="translate(0)">
        <g id="Grupo_47751" data-name="Grupo 47751">
          <g id="Grupo_47750" data-name="Grupo 47750">
            <g id="Grupo_47747" data-name="Grupo 47747">
              <path id="Trazado_97748" data-name="Trazado 97748" d="M756.753,438.774l-56.6-.2a.973.973,0,0,1-.97-.977l.275-76.987a.974.974,0,0,1,.977-.97l56.6.2a.974.974,0,0,1,.97.977L757.73,437.8A.974.974,0,0,1,756.753,438.774Z" transform="translate(-699.184 -359.636)" fill="#00223d"/>
            </g>
            <g id="Grupo_47748" data-name="Grupo 47748" transform="translate(3.1 3.453)">
              <rect id="Rectángulo_28583" data-name="Rectángulo 28583" width="52.391" height="68.33" transform="matrix(1, 0.004, -0.004, 1, 0.245, 0)" fill="#f2f2f2"/>
            </g>
            <g id="Grupo_47749" data-name="Grupo 47749" transform="translate(27.472 73.501)">
              <path id="Trazado_97749" data-name="Trazado 97749" d="M778.829,564.954a1.813,1.813,0,1,1-1.8-1.917A1.862,1.862,0,0,1,778.829,564.954Z" transform="translate(-775.209 -563.037)" fill="#fff"/>
            </g>
          </g>
        </g>
        <g id="Grupo_47755" data-name="Grupo 47755" transform="translate(6.298 36.325)">
          <g id="Grupo_47752" data-name="Grupo 47752" transform="translate(7.55)">
            <rect id="Rectángulo_28584" data-name="Rectángulo 28584" width="13.583" height="13.583" fill="#00223d"/>
          </g>
          <g id="Grupo_47753" data-name="Grupo 47753" transform="translate(0 15.629)">
            <rect id="Rectángulo_28585" data-name="Rectángulo 28585" width="21.134" height="6.176" fill="#707070" opacity="0.226"/>
          </g>
          <g id="Grupo_47754" data-name="Grupo 47754" transform="translate(0 23.431)">
            <rect id="Rectángulo_28586" data-name="Rectángulo 28586" width="21.134" height="6.176" fill="#707070" opacity="0.226"/>
          </g>
        </g>
        <g id="Grupo_47760" data-name="Grupo 47760" transform="translate(31.276 36.115)">
          <g id="Grupo_47756" data-name="Grupo 47756">
            <rect id="Rectángulo_28587" data-name="Rectángulo 28587" width="21.134" height="6.176" fill="#707070" opacity="0.226"/>
          </g>
          <g id="Grupo_47757" data-name="Grupo 47757" transform="translate(0.098 8.095)">
            <rect id="Rectángulo_28588" data-name="Rectángulo 28588" width="21.134" height="6.176" fill="#707070" opacity="0.226"/>
          </g>
          <g id="Grupo_47758" data-name="Grupo 47758" transform="translate(0 15.839)">
            <rect id="Rectángulo_28589" data-name="Rectángulo 28589" width="21.134" height="6.176" fill="#707070" opacity="0.226"/>
          </g>
          <g id="Grupo_47759" data-name="Grupo 47759" transform="translate(0.098 23.854)">
            <rect id="Rectángulo_28590" data-name="Rectángulo 28590" width="21.134" height="6.176" fill="#707070" opacity="0.226"/>
          </g>
        </g>
        <g id="Grupo_47761" data-name="Grupo 47761" transform="translate(6.093 8.813)">
          <rect id="Rectángulo_28591" data-name="Rectángulo 28591" width="46.636" height="23.484" fill="#00223d"/>
        </g>
      </g>
      <g id="Grupo_47768" data-name="Grupo 47768" transform="translate(13.849 16.311)">
        <g id="Grupo_47767" data-name="Grupo 47767">
          <g id="Grupo_47763" data-name="Grupo 47763" transform="translate(0 0.119)">
            <path id="Trazado_97750" data-name="Trazado 97750" d="M744.329,412.783h-1.857l-3.106-4.714v4.714h-1.857V405.1h1.857l3.106,4.757V405.1h1.857Z" transform="translate(-737.508 -405.104)" fill="#fff"/>
          </g>
          <g id="Grupo_47764" data-name="Grupo 47764" transform="translate(8.102 0.119)">
            <path id="Trazado_97751" data-name="Trazado 97751" d="M761.787,406.581v1.607h2.6v1.4h-2.6v1.705h2.922v1.488H759.93V405.1h4.779v1.477Z" transform="translate(-759.93 -405.104)" fill="#fff"/>
          </g>
          <g id="Grupo_47765" data-name="Grupo 47765" transform="translate(13.631 0.119)">
            <path id="Trazado_97752" data-name="Trazado 97752" d="M785.97,405.1l-1.835,7.679h-2.3l-1.228-5.137-1.238,5.137h-2.3l-1.836-7.679h2.02l.988,5.561,1.347-5.561h2.031l1.347,5.561,1-5.561Z" transform="translate(-775.228 -405.104)" fill="#fff"/>
          </g>
          <g id="Grupo_47766" data-name="Grupo 47766" transform="translate(25.122)">
            <path id="Trazado_97753" data-name="Trazado 97753" d="M812.464,411.53a2.182,2.182,0,0,1-.912.814,3.214,3.214,0,0,1-1.461.3,3.438,3.438,0,0,1-2.129-.63,2.282,2.282,0,0,1-.912-1.76h1.977a1.044,1.044,0,0,0,.309.684.952.952,0,0,0,.679.25.788.788,0,0,0,.565-.2.685.685,0,0,0,.206-.521.673.673,0,0,0-.19-.489,1.5,1.5,0,0,0-.473-.32q-.282-.125-.782-.3a9.539,9.539,0,0,1-1.189-.483,2.189,2.189,0,0,1-.793-.7,2.262,2.262,0,0,1,.016-2.384,2.212,2.212,0,0,1,.961-.766,3.505,3.505,0,0,1,1.406-.266,3.154,3.154,0,0,1,2.037.608,2.321,2.321,0,0,1,.852,1.672h-2.009a1.031,1.031,0,0,0-.277-.6.815.815,0,0,0-.6-.223.777.777,0,0,0-.526.174.638.638,0,0,0-.2.511.648.648,0,0,0,.179.461,1.364,1.364,0,0,0,.451.31q.271.119.782.3a8.6,8.6,0,0,1,1.206.494,2.307,2.307,0,0,1,.8.712,2.031,2.031,0,0,1,.337,1.216A2.117,2.117,0,0,1,812.464,411.53Z" transform="translate(-807.028 -404.774)" fill="#fff"/>
          </g>
        </g>
      </g>
      <g id="Grupo_47769" data-name="Grupo 47769" transform="translate(6.308 36.115)">
        <rect id="Rectángulo_28592" data-name="Rectángulo 28592" width="6.211" height="13.793" fill="#707070" opacity="0.226"/>
      </g>
    </g>
    <g id="Grupo_47775" data-name="Grupo 47775" transform="translate(385.201 151.566)">
      <g id="Grupo_47772" data-name="Grupo 47772" transform="translate(0 11.518)">
        <g id="Grupo_47771" data-name="Grupo 47771">
          <path id="Trazado_97754" data-name="Trazado 97754" d="M803.473,360.531a1.213,1.213,0,0,1,.274-.211c.938-.469,1.708-.151,2.736-.345.458-.086.912-1.2,1.584-.491.247.26.765.985,1.288,1.544a6.879,6.879,0,0,0,3.466,1.633,35.358,35.358,0,0,0,5.135.7,59.973,59.973,0,0,0,11.021-.6,16.207,16.207,0,0,1,7.3-15.051,3.757,3.757,0,0,1,1.692-.676,3.24,3.24,0,0,1,1.507.327c5.027,2.2,2.724,6.873,1.025,10.713a53.713,53.713,0,0,1-3.691,6.977c-1.964,3.1-5.029,3.881-8.607,3.989a53.388,53.388,0,0,1-11.376-.535,40.607,40.607,0,0,1-5.187-1.562c-1.722-.561-1.876.237-3.509.133a14.748,14.748,0,0,1-2.739-.172c-1.593-.408-2.227-1.982-2.917-3.3a1.762,1.762,0,0,1-.287-.9,2.549,2.549,0,0,1,.656-1.443A4.943,4.943,0,0,1,803.473,360.531Z" transform="translate(-802.186 -347.032)" fill="#e2bd9c"/>
        </g>
      </g>
      <g id="Grupo_47774" data-name="Grupo 47774" transform="translate(24.388 0)">
        <g id="Grupo_47773" data-name="Grupo 47773">
          <path id="Trazado_97755" data-name="Trazado 97755" d="M878.771,341.791a14.106,14.106,0,0,0-2.4-.842c-.556-.148-6.741-1.949-6.7-2.042.716-1.493.53-3.66.934-5.313a24.489,24.489,0,0,1,2.157-5.669c1.569-2.952,2.448-6.372,3.561-9.528,1.4-3.983,5.308-4.354,7.535-.767,1.9,3.063,2.05,7.1,2.364,10.593a30.324,30.324,0,0,1-.1,8.464,11.43,11.43,0,0,1-4.174,7.167A16.9,16.9,0,0,0,878.771,341.791Z" transform="translate(-869.676 -315.159)" fill="#f9c869"/>
        </g>
      </g>
    </g>
  </g>
</svg>
