<svg xmlns="http://www.w3.org/2000/svg" xmlns:xlink="http://www.w3.org/1999/xlink" width="306.087" height="211.143" viewBox="0 0 306.087 211.143">
  <defs>
    <clipPath id="clip-path">
      <rect id="Rectángulo_57231" data-name="Rectángulo 57231" width="284.363" height="211.143" fill="none"/>
    </clipPath>
    <clipPath id="clip-path-6">
      <rect id="Rectángulo_57225" data-name="Rectángulo 57225" width="40.445" height="5.072" fill="none"/>
    </clipPath>
    <clipPath id="clip-path-7">
      <rect id="Rectángulo_57226" data-name="Rectángulo 57226" width="11.737" height="20.669" fill="none"/>
    </clipPath>
    <clipPath id="clip-path-8">
      <rect id="Rectángulo_57227" data-name="Rectángulo 57227" width="6.595" height="23.429" fill="none"/>
    </clipPath>
  </defs>
  <g id="Grupo_888965" data-name="Grupo 888965" transform="translate(6.025)">
    <g id="Grupo_177601" data-name="Grupo 177601" transform="translate(-0.732)" clip-path="url(#clip-path)">
      <rect id="Rectángulo_57205" data-name="Rectángulo 57205" width="4.06" height="20.203" transform="translate(254.917 16.173) rotate(-0.31)" fill="#e0e0e0"/>
      <rect id="Rectángulo_57206" data-name="Rectángulo 57206" width="10.514" height="11.153" transform="translate(219.744 16.261) rotate(-0.307)" fill="#ebebeb"/>
      <rect id="Rectángulo_57207" data-name="Rectángulo 57207" width="10.514" height="11.153" transform="translate(230.208 16.205) rotate(-0.307)" fill="#f5f5f5"/>
      <g id="Grupo_177583" data-name="Grupo 177583">
        <g id="Grupo_177582" data-name="Grupo 177582" clip-path="url(#clip-path)">
          <path id="Trazado_226656" data-name="Trazado 226656" d="M460.452,40.165q10.481.087,20.978-.1a.112.112,0,0,0,0-.223c-6.987-.039-13.992,0-20.978.128a.1.1,0,0,0,0,.192" transform="translate(-240.691 -20.825)" fill="#e0e0e0"/>
          <rect id="Rectángulo_57208" data-name="Rectángulo 57208" width="19.102" height="9.089" transform="matrix(1, -0.005, 0.005, 1, 213.189, 27.273)" fill="#ebebeb"/>
          <rect id="Rectángulo_57209" data-name="Rectángulo 57209" width="19.102" height="9.089" transform="matrix(1, -0.005, 0.005, 1, 232.201, 27.172)" fill="#f5f5f5"/>
          <path id="Trazado_226657" data-name="Trazado 226657" d="M446.708,61.966c12.69.144,25.424.015,38.113-.188a.112.112,0,0,0,0-.224c-12.691-.067-25.426-.06-38.113.22a.1.1,0,0,0,0,.192" transform="translate(-233.505 -32.164)" fill="#e0e0e0"/>
          <rect id="Rectángulo_57210" data-name="Rectángulo 57210" width="74.007" height="3.256" transform="translate(206.059 36.362)" fill="#e0e0e0"/>
          <rect id="Rectángulo_57211" data-name="Rectángulo 57211" width="3.004" height="11.111" transform="translate(218.176 37.928)" fill="#e0e0e0"/>
          <rect id="Rectángulo_57212" data-name="Rectángulo 57212" width="3.004" height="11.111" transform="translate(263.024 37.928)" fill="#e0e0e0"/>
          <rect id="Rectángulo_57213" data-name="Rectángulo 57213" width="4.06" height="27.786" transform="translate(258.878 8.64) rotate(-0.31)" fill="#ebebeb"/>
          <rect id="Rectángulo_57214" data-name="Rectángulo 57214" width="6.309" height="22.517" transform="translate(262.974 13.824) rotate(-0.308)" fill="#f5f5f5"/>
          <path id="Trazado_226658" data-name="Trazado 226658" d="M557.336,37.872a45.582,45.582,0,0,1-6.309,0,45.582,45.582,0,0,1,6.309,0" transform="translate(-288.095 -19.744)" fill="#e0e0e0"/>
          <path id="Trazado_226659" data-name="Trazado 226659" d="M557.336,35.889a45.581,45.581,0,0,1-6.309,0,45.584,45.584,0,0,1,6.309,0" transform="translate(-288.095 -18.707)" fill="#e0e0e0"/>
          <path id="Trazado_226660" data-name="Trazado 226660" d="M557.336,68.869a45.581,45.581,0,0,1-6.309,0,45.584,45.584,0,0,1,6.309,0" transform="translate(-288.095 -35.95)" fill="#e0e0e0"/>
          <path id="Trazado_226661" data-name="Trazado 226661" d="M557.336,66.887a45.584,45.584,0,0,1-6.309,0,45.581,45.581,0,0,1,6.309,0" transform="translate(-288.095 -34.914)" fill="#e0e0e0"/>
          <path id="Trazado_226662" data-name="Trazado 226662" d="M557.731,51.562c-.061,0-.109-2.272-.109-5.073s.049-5.074.109-5.074.109,2.271.109,5.074-.049,5.073-.109,5.073" transform="translate(-291.543 -21.653)" fill="#e0e0e0"/>
          <rect id="Rectángulo_57215" data-name="Rectángulo 57215" width="6.867" height="16.996" transform="translate(269.309 19.32)" fill="#ebebeb"/>
          <path id="Trazado_226663" data-name="Trazado 226663" d="M546.552,26.724a1.167,1.167,0,1,1-1.167-1.167,1.167,1.167,0,0,1,1.167,1.167" transform="translate(-284.535 -13.362)" fill="#e0e0e0"/>
          <rect id="Rectángulo_57216" data-name="Rectángulo 57216" width="0.721" height="16.529" transform="translate(260.489 16.571)" fill="#e0e0e0"/>
          <rect id="Rectángulo_57217" data-name="Rectángulo 57217" width="46.438" height="44.634" transform="translate(237.818 58.854)" fill="#fff"/>
          <rect id="Rectángulo_57218" data-name="Rectángulo 57218" width="46.438" height="3.343" transform="translate(237.818 58.854)" fill="#f5f5f5"/>
          <path id="Trazado_226664" data-name="Trazado 226664" d="M506.94,209.107h37.91v-7.094H498.426v7.094h2.42" transform="translate(-260.594 -105.619)" fill="#ebebeb"/>
          <path id="Trazado_226665" data-name="Trazado 226665" d="M510.793,126.412a.625.625,0,1,1-.625-.625.625.625,0,0,1,.625.625" transform="translate(-266.406 -65.766)" fill="#fff"/>
          <path id="Trazado_226666" data-name="Trazado 226666" d="M502.857,126.412a.625.625,0,1,1-.625-.625.625.625,0,0,1,.625.625" transform="translate(-262.257 -65.766)" fill="#fff"/>
          <path id="Trazado_226667" data-name="Trazado 226667" d="M506.825,126.412a.625.625,0,1,1-.625-.625.625.625,0,0,1,.625.625" transform="translate(-264.331 -65.766)" fill="#fff"/>
          <path id="Trazado_226668" data-name="Trazado 226668" d="M583.035,140.242h0a2.944,2.944,0,1,1,2.944-2.944,2.944,2.944,0,0,1-2.944,2.944" transform="translate(-303.291 -70.245)" fill="#f5f5f5"/>
          <path id="Trazado_226669" data-name="Trazado 226669" d="M584.982,139.565a.469.469,0,1,0-.285,0,.818.818,0,0,0-.686.807h1.637a.819.819,0,0,0-.666-.8" transform="translate(-305.34 -72.489)" fill="#e0e0e0"/>
          <path id="Trazado_226670" data-name="Trazado 226670" d="M587.895,139.888a.068.068,0,0,1-.068-.068v-.753a.068.068,0,0,1,.136,0v.753a.068.068,0,0,1-.068.068" transform="translate(-307.336 -72.674)" fill="#e0e0e0"/>
          <path id="Trazado_226671" data-name="Trazado 226671" d="M587.859,139.925h-.753a.068.068,0,1,1,0-.135h.753a.068.068,0,1,1,0,.135" transform="translate(-306.923 -73.087)" fill="#e0e0e0"/>
          <path id="Trazado_226672" data-name="Trazado 226672" d="M540.909,166.316h0a7.773,7.773,0,1,1,7.773-7.773,7.773,7.773,0,0,1-7.773,7.773" transform="translate(-278.741 -78.828)" fill="#f5f5f5"/>
          <path id="Trazado_226673" data-name="Trazado 226673" d="M546.407,163.466a1.9,1.9,0,1,0-1.156-.012,3.317,3.317,0,0,0-2.781,3.272h6.638a3.318,3.318,0,0,0-2.7-3.26" transform="translate(-283.621 -83.521)" fill="#e0e0e0"/>
          <path id="Trazado_226674" data-name="Trazado 226674" d="M564.182,206.639a2.2,2.2,0,1,1-2.205-2.2,2.205,2.205,0,0,1,2.205,2.2" transform="translate(-292.667 -106.885)" fill="#e0e0e0"/>
          <path id="Trazado_226675" data-name="Trazado 226675" d="M563.571,209.106H563a.265.265,0,0,1-.265-.265v-.57a.264.264,0,0,1,.265-.265h.57a.264.264,0,0,1,.265.265v.57a.265.265,0,0,1-.265.265" transform="translate(-294.217 -108.752)" fill="#fff"/>
          <path id="Trazado_226676" data-name="Trazado 226676" d="M565.25,208.812v-.373l.278-.3a.06.06,0,0,1,.1.041v.847a.06.06,0,0,1-.1.044Z" transform="translate(-295.532 -108.813)" fill="#fff"/>
          <path id="Trazado_226677" data-name="Trazado 226677" d="M546.56,208.275a2.174,2.174,0,1,1,3.074,0,2.174,2.174,0,0,1-3.074,0" transform="translate(-285.427 -106.953)" fill="#e0e0e0"/>
          <path id="Trazado_226678" data-name="Trazado 226678" d="M548.3,209.049l.387-.091a.106.106,0,0,0,.082-.1v-.08s-.017-.136.111-.144c.092-.006.675,0,.675,0s.153,0,.15.118v.116a.091.091,0,0,0,.065.087l.42.127a.09.09,0,0,0,.11-.052l.054-.13a.174.174,0,0,0,.013-.075.366.366,0,0,0-.073-.194,1.587,1.587,0,0,0-1.226-.323c-.713.034-.869.335-.91.408a.308.308,0,0,0-.013.2l.031.074a.106.106,0,0,0,.122.063" transform="translate(-286.586 -108.906)" fill="#fff"/>
          <path id="Trazado_226679" data-name="Trazado 226679" d="M536.357,206.7a2.186,2.186,0,1,1-2.186-2.186,2.186,2.186,0,0,1,2.186,2.186" transform="translate(-278.14 -106.927)" fill="#e0e0e0"/>
          <path id="Trazado_226680" data-name="Trazado 226680" d="M534.876,209.074a.215.215,0,1,1,.215-.215.215.215,0,0,1-.215.215" transform="translate(-279.539 -109.086)" fill="#fff"/>
          <path id="Trazado_226681" data-name="Trazado 226681" d="M536.281,209.074a.215.215,0,1,1,.215-.215.215.215,0,0,1-.215.215" transform="translate(-280.273 -109.086)" fill="#fff"/>
          <path id="Trazado_226682" data-name="Trazado 226682" d="M537.785,209.074a.215.215,0,1,1,.215-.215.215.215,0,0,1-.215.215" transform="translate(-281.06 -109.086)" fill="#fff"/>
          <path id="Trazado_226683" data-name="Trazado 226683" d="M505.746,138.6a1.414,1.414,0,1,1-1.414-1.414,1.414,1.414,0,0,1,1.414,1.414" transform="translate(-262.942 -71.726)" fill="#e0e0e0"/>
          <path id="Trazado_226684" data-name="Trazado 226684" d="M516.469,139.535a27.867,27.867,0,0,1-5.253,0,27.864,27.864,0,0,1,5.253,0" transform="translate(-267.281 -72.889)" fill="#e0e0e0"/>
          <path id="Trazado_226685" data-name="Trazado 226685" d="M549.059,188.3c0,.069-4.743.124-10.593.124s-10.594-.055-10.594-.124,4.742-.124,10.594-.124,10.593.055,10.593.124" transform="translate(-275.989 -98.385)" fill="#e0e0e0"/>
          <path id="Trazado_226686" data-name="Trazado 226686" d="M544.7,167.838s0-.073-.006-.213,0-.349-.006-.617c0-.548-.007-1.351-.012-2.4-.007-2.1-.016-5.167-.028-9.072-.013-7.805-.032-18.949-.055-32.335l.107.107-46.434.018h0l.124-.125c-.006,16.308-.011,31.613-.016,44.634l-.108-.108,33.616.055,9.455.029,2.5.012.644.006c.145,0,.222.006.222.006s-.069,0-.21.006l-.633.006-2.479.012-9.431.028-33.686.055h-.108v-.108c0-13.021-.01-28.326-.016-44.634v-.124h.128l46.434.018h.107v.106c-.023,13.414-.042,24.582-.055,32.4-.012,3.895-.021,6.955-.028,9.048-.005,1.037-.01,1.832-.012,2.376,0,.263,0,.465-.006.606s-.006.2-.006.2" transform="translate(-260.443 -64.35)" fill="#ebebeb"/>
          <path id="Trazado_226687" data-name="Trazado 226687" d="M120.041,298.855H64.95V245.9h55.091Z" transform="translate(-33.958 -128.567)" fill="#fff"/>
          <rect id="Rectángulo_57219" data-name="Rectángulo 57219" width="55.091" height="3.966" transform="translate(30.992 117.338)" fill="#f5f5f5"/>
          <path id="Trazado_226688" data-name="Trazado 226688" d="M75.085,347.653h44.974v-8.415H64.984v8.415h2.872" transform="translate(-33.976 -177.365)" fill="#ebebeb"/>
          <path id="Trazado_226689" data-name="Trazado 226689" d="M79.657,249.548a.741.741,0,1,1-.741-.741.741.741,0,0,1,.741.741" transform="translate(-40.872 -130.085)" fill="#fff"/>
          <path id="Trazado_226690" data-name="Trazado 226690" d="M70.242,249.548a.741.741,0,1,1-.742-.741.741.741,0,0,1,.742.741" transform="translate(-35.95 -130.085)" fill="#fff"/>
          <path id="Trazado_226691" data-name="Trazado 226691" d="M74.95,249.548a.741.741,0,1,1-.741-.741.741.741,0,0,1,.741.741" transform="translate(-38.411 -130.085)" fill="#fff"/>
          <path id="Trazado_226692" data-name="Trazado 226692" d="M165.359,265.956h0a3.492,3.492,0,1,1,3.492-3.492,3.493,3.493,0,0,1-3.492,3.492" transform="translate(-84.629 -135.399)" fill="#f5f5f5"/>
          <path id="Trazado_226693" data-name="Trazado 226693" d="M167.669,265.151a.557.557,0,1,0-.338,0,.971.971,0,0,0-.814.958h1.943a.972.972,0,0,0-.791-.954" transform="translate(-87.061 -138.061)" fill="#e0e0e0"/>
          <path id="Trazado_226694" data-name="Trazado 226694" d="M171.126,265.537a.08.08,0,0,1-.08-.08v-.894a.08.08,0,1,1,.16,0v.894a.08.08,0,0,1-.08.08" transform="translate(-89.429 -138.28)" fill="#e0e0e0"/>
          <path id="Trazado_226695" data-name="Trazado 226695" d="M171.083,265.579h-.894a.08.08,0,1,1,0-.16h.894a.08.08,0,1,1,0,.16" transform="translate(-88.939 -138.77)" fill="#e0e0e0"/>
          <path id="Trazado_226696" data-name="Trazado 226696" d="M115.384,296.888h0a9.221,9.221,0,1,1,9.221-9.221,9.221,9.221,0,0,1-9.221,9.221" transform="translate(-55.506 -145.58)" fill="#f5f5f5"/>
          <path id="Trazado_226697" data-name="Trazado 226697" d="M121.907,293.507a2.258,2.258,0,1,0-1.371-.014,3.934,3.934,0,0,0-3.3,3.881h7.874a3.937,3.937,0,0,0-3.2-3.866" transform="translate(-61.295 -151.149)" fill="#e0e0e0"/>
          <path id="Trazado_226698" data-name="Trazado 226698" d="M142.995,344.725a2.616,2.616,0,1,1-2.616-2.616,2.616,2.616,0,0,1,2.616,2.616" transform="translate(-72.027 -178.866)" fill="#e0e0e0"/>
          <path id="Trazado_226699" data-name="Trazado 226699" d="M142.318,347.651h-.775a.265.265,0,0,1-.265-.265v-.775a.265.265,0,0,1,.265-.265h.775a.265.265,0,0,1,.265.265v.775a.265.265,0,0,1-.265.265" transform="translate(-73.865 -181.081)" fill="#fff"/>
          <path id="Trazado_226700" data-name="Trazado 226700" d="M144.262,347.3v-.442l.33-.354a.071.071,0,0,1,.123.049v1a.071.071,0,0,1-.119.052Z" transform="translate(-75.425 -181.153)" fill="#fff"/>
          <path id="Trazado_226701" data-name="Trazado 226701" d="M122.089,346.666a2.579,2.579,0,1,1,3.647,0,2.578,2.578,0,0,1-3.647,0" transform="translate(-63.437 -178.947)" fill="#e0e0e0"/>
          <path id="Trazado_226702" data-name="Trazado 226702" d="M124.158,347.584l.46-.108a.126.126,0,0,0,.1-.122v-.095s-.02-.161.132-.171c.109-.007.8,0,.8,0s.182,0,.179.14v.138a.107.107,0,0,0,.076.1l.5.151a.108.108,0,0,0,.131-.062l.063-.154a.2.2,0,0,0,.016-.089.436.436,0,0,0-.086-.23,1.885,1.885,0,0,0-1.454-.383c-.846.041-1.031.4-1.08.483a.364.364,0,0,0-.016.238l.037.088a.125.125,0,0,0,.145.074" transform="translate(-64.812 -181.264)" fill="#fff"/>
          <path id="Trazado_226703" data-name="Trazado 226703" d="M109.985,344.8a2.593,2.593,0,1,1-2.593-2.593,2.593,2.593,0,0,1,2.593,2.593" transform="translate(-54.792 -178.916)" fill="#e0e0e0"/>
          <path id="Trazado_226704" data-name="Trazado 226704" d="M108.228,347.614a.256.256,0,1,1,.256-.256.256.256,0,0,1-.256.256" transform="translate(-56.451 -181.477)" fill="#fff"/>
          <path id="Trazado_226705" data-name="Trazado 226705" d="M109.894,347.614a.256.256,0,1,1,.256-.256.255.255,0,0,1-.256.256" transform="translate(-57.323 -181.477)" fill="#fff"/>
          <path id="Trazado_226706" data-name="Trazado 226706" d="M111.678,347.614a.256.256,0,1,1,.256-.256.256.256,0,0,1-.256.256" transform="translate(-58.255 -181.477)" fill="#fff"/>
          <path id="Trazado_226707" data-name="Trazado 226707" d="M73.669,264.01a1.678,1.678,0,1,1-1.678-1.678,1.678,1.678,0,0,1,1.678,1.678" transform="translate(-36.762 -137.156)" fill="#e0e0e0"/>
          <path id="Trazado_226708" data-name="Trazado 226708" d="M86.39,265.142a19.657,19.657,0,0,1-3.116.124,19.656,19.656,0,0,1-3.116-.124,19.638,19.638,0,0,1,3.116-.124,19.639,19.639,0,0,1,3.116.124" transform="translate(-41.909 -138.56)" fill="#e0e0e0"/>
          <path id="Trazado_226709" data-name="Trazado 226709" d="M125.053,323c0,.069-5.627.124-12.567.124s-12.568-.055-12.568-.124,5.626-.124,12.568-.124,12.567.055,12.567.124" transform="translate(-52.24 -168.808)" fill="#e0e0e0"/>
          <path id="Trazado_226710" data-name="Trazado 226710" d="M119.905,298.72s0-.087-.006-.251,0-.412-.006-.731c0-.648-.007-1.6-.012-2.841-.006-2.487-.016-6.127-.028-10.76-.013-9.259-.032-22.483-.055-38.367l.107.106-55.086.018h0l.124-.124c-.006,19.346-.011,37.5-.016,52.95l-.108-.108,39.887.055,11.214.028,2.964.012.763.006c.172,0,.262.006.262.006s-.082,0-.25.006l-.752.006-2.943.012-11.19.028-39.956.055h-.108v-.108c0-15.447-.01-33.6-.016-52.95v-.125h.129l55.086.018h.107v.107c-.023,15.912-.042,29.159-.055,38.434-.012,4.623-.021,8.255-.028,10.736-.005,1.232-.01,2.177-.012,2.821q0,.471-.006.72c0,.161-.006.24-.006.24" transform="translate(-33.822 -128.431)" fill="#ebebeb"/>
        </g>
      </g>
      <g id="Grupo_177585" data-name="Grupo 177585">
        <g id="Grupo_177584" data-name="Grupo 177584" clip-path="url(#clip-path)">
          <path id="Trazado_226711" data-name="Trazado 226711" d="M373.113,180.344v24.645l-8.437,9.1h8.437V258.02H453.93V180.344Z" transform="translate(-190.665 -94.29)" fill="#fff"/>
          <rect id="Rectángulo_57221" data-name="Rectángulo 57221" width="80.817" height="5.818" transform="translate(182.477 86.139)" fill="#f5f5f5"/>
          <path id="Trazado_226712" data-name="Trazado 226712" d="M382.466,317.437v12.345h80.793V317.437Z" transform="translate(-199.966 -165.967)" fill="#ebebeb"/>
          <path id="Trazado_226713" data-name="Trazado 226713" d="M403.989,185.866a1.087,1.087,0,1,1-1.087-1.087,1.087,1.087,0,0,1,1.087,1.087" transform="translate(-210.082 -96.609)" fill="#fff"/>
          <path id="Trazado_226714" data-name="Trazado 226714" d="M390.179,185.866a1.087,1.087,0,1,1-1.088-1.087,1.087,1.087,0,0,1,1.088,1.087" transform="translate(-202.861 -96.609)" fill="#fff"/>
          <path id="Trazado_226715" data-name="Trazado 226715" d="M397.084,185.866A1.087,1.087,0,1,1,396,184.779a1.087,1.087,0,0,1,1.088,1.087" transform="translate(-206.472 -96.609)" fill="#fff"/>
          <path id="Trazado_226716" data-name="Trazado 226716" d="M529.714,209.936h0a5.123,5.123,0,1,1,5.123-5.123,5.123,5.123,0,0,1-5.123,5.123" transform="translate(-274.274 -104.405)" fill="#ebebeb"/>
          <path id="Trazado_226717" data-name="Trazado 226717" d="M533.1,208.755a.817.817,0,1,0-.5-.005,1.424,1.424,0,0,0-1.194,1.4h2.85a1.425,1.425,0,0,0-1.16-1.4" transform="translate(-277.84 -108.309)" fill="#263238"/>
          <path id="Trazado_226718" data-name="Trazado 226718" d="M538.173,209.32a.117.117,0,0,1-.117-.118v-1.311a.118.118,0,0,1,.235,0V209.2a.118.118,0,0,1-.118.118" transform="translate(-281.314 -108.631)" fill="#263238"/>
          <path id="Trazado_226719" data-name="Trazado 226719" d="M538.11,209.383H536.8a.118.118,0,0,1,0-.235h1.312a.118.118,0,0,1,0,.235" transform="translate(-280.595 -109.35)" fill="#263238"/>
          <path id="Trazado_226720" data-name="Trazado 226720" d="M496.9,325.486a3.837,3.837,0,1,1-3.837-3.837,3.838,3.838,0,0,1,3.837,3.837" transform="translate(-255.786 -168.169)" fill="#12263f"/>
          <path id="Trazado_226721" data-name="Trazado 226721" d="M495.689,329.779H495a.613.613,0,0,1-.613-.613v-.689a.613.613,0,0,1,.613-.613h.689a.613.613,0,0,1,.613.613v.689a.613.613,0,0,1-.613.613" transform="translate(-258.482 -171.419)" fill="#fff"/>
          <path id="Trazado_226722" data-name="Trazado 226722" d="M498.764,329.269v-.648l.484-.519a.1.1,0,0,1,.18.071v1.474a.1.1,0,0,1-.175.076Z" transform="translate(-260.77 -171.525)" fill="#fff"/>
          <path id="Trazado_226723" data-name="Trazado 226723" d="M466.238,328.334a3.783,3.783,0,1,1,5.35,0,3.784,3.784,0,0,1-5.35,0" transform="translate(-243.185 -168.287)" fill="#eeac3a"/>
          <path id="Trazado_226724" data-name="Trazado 226724" d="M469.271,329.681l.675-.159a.184.184,0,0,0,.142-.179V329.2s-.029-.236.194-.251c.16-.01,1.175,0,1.175,0s.267-.005.262.205v.2a.157.157,0,0,0,.113.151l.732.221a.158.158,0,0,0,.191-.091l.094-.226a.3.3,0,0,0,.023-.13.63.63,0,0,0-.126-.338,2.763,2.763,0,0,0-2.133-.562c-1.242.06-1.513.584-1.584.709a.532.532,0,0,0-.023.349c.013.03.034.08.054.129a.184.184,0,0,0,.212.109" transform="translate(-245.201 -171.687)" fill="#fff"/>
          <path id="Trazado_226725" data-name="Trazado 226725" d="M448.48,325.593a3.8,3.8,0,1,1-3.8-3.8,3.8,3.8,0,0,1,3.8,3.8" transform="translate(-230.503 -168.242)" fill="#43a99b"/>
          <path id="Trazado_226726" data-name="Trazado 226726" d="M445.9,329.726a.375.375,0,1,1,.375-.375.375.375,0,0,1-.375.375" transform="translate(-232.937 -172)" fill="#fff"/>
          <path id="Trazado_226727" data-name="Trazado 226727" d="M448.349,329.726a.375.375,0,1,1,.375-.375.375.375,0,0,1-.375.375" transform="translate(-234.216 -172)" fill="#fff"/>
          <path id="Trazado_226728" data-name="Trazado 226728" d="M450.964,329.726a.375.375,0,1,1,.375-.375.375.375,0,0,1-.375.375" transform="translate(-235.583 -172)" fill="#fff"/>
          <path id="Trazado_226729" data-name="Trazado 226729" d="M396.842,208.443a2.461,2.461,0,1,1-2.462-2.462,2.462,2.462,0,0,1,2.462,2.462" transform="translate(-204.908 -107.694)" fill="#455a64"/>
          <path id="Trazado_226730" data-name="Trazado 226730" d="M418.439,211.933c0,.069-3.071.124-6.857.124s-6.857-.055-6.857-.124,3.07-.124,6.857-.124,6.857.055,6.857.124" transform="translate(-211.604 -110.741)" fill="#455a64"/>
          <path id="Trazado_226731" data-name="Trazado 226731" d="M372.976,180.4s.122,0,.368-.006l1.1-.006,4.307-.012,16.386-.028,58.655-.055h.107v.107c.005,22.6.011,49.211.017,77.677v.125h-5.989l-74.951-.014h-.046l-.032-.032h0l-.033-.032v-.046c.01-16.6.019-31.416.025-43.933l.086.085-8.437-.008h-.18l.122-.131,8.446-9.09-.017.044c.016-7.905.028-14.072.036-18.265.007-2.088.012-3.684.016-4.762q0-.8.007-1.213c0-.271.006-.4.006-.4s0,.142.006.417,0,.686.007,1.224c0,1.081.009,2.682.016,4.776.008,4.185.021,10.339.036,18.227v.025l-.017.019L364.6,214.2l-.057-.132,8.437-.007h.085v.086c.007,12.517.016,27.335.025,43.933l-.032-.078-.078-.032,74.951-.014h5.865l-.124.124c.006-28.465.012-55.079.017-77.677l.107.107-58.587-.055-16.41-.028-4.327-.012-1.113-.006c-.25,0-.379-.006-.379-.006" transform="translate(-190.499 -94.265)" fill="#263238"/>
          <path id="Trazado_226732" data-name="Trazado 226732" d="M490.031,264.195c0,.069-2.221.221-4.966.341s-4.975.161-4.978.093,2.22-.221,4.967-.341a49.773,49.773,0,0,1,4.977-.093" transform="translate(-251.006 -138.112)" fill="#fff"/>
          <path id="Trazado_226733" data-name="Trazado 226733" d="M448.673,216.8a15.548,15.548,0,0,1,2.48-6.772c1.471-1.93,4.074-3.2,6.373-2.421l2.835,1.643a86.619,86.619,0,0,1-4,19.409,4.242,4.242,0,0,1-.884,1.718c-.919.931-2.42.846-3.72.7-1.57-.181-3.4-.543-4.074-1.973a4.575,4.575,0,0,1-.244-2.245,86.948,86.948,0,0,1,1.232-10.055" transform="translate(-233.921 -108.423)" fill="#12263f"/>
          <path id="Trazado_226734" data-name="Trazado 226734" d="M467.282,215l-8.735-2.9c-2.828-.51-4.978,2.861-5.368,5.708a51.109,51.109,0,0,0-.631,9.44c.409,4.823,4.019,5.7,4.019,5.7a11.593,11.593,0,0,0-.283,3.63c.227,3.284,2.344,4.131,4.079,4.253,2.736.288,5.592-.579,5.907-3.312l2.387-20.705a1.682,1.682,0,0,0-1.376-1.81" transform="translate(-236.579 -110.868)" fill="#ffbe9d"/>
          <path id="Trazado_226735" data-name="Trazado 226735" d="M456.515,231.394a.613.613,0,0,0,.544.66.587.587,0,0,0,.671-.505.613.613,0,0,0-.544-.66.586.586,0,0,0-.671.505" transform="translate(-238.68 -120.713)" fill="#263238"/>
          <path id="Trazado_226736" data-name="Trazado 226736" d="M455.9,228.717c.07.085.558-.224,1.216-.174s1.116.414,1.193.339c.038-.033-.029-.183-.228-.351a1.682,1.682,0,0,0-.948-.37,1.615,1.615,0,0,0-.975.238c-.214.141-.293.28-.258.318" transform="translate(-238.354 -119.288)" fill="#263238"/>
          <path id="Trazado_226737" data-name="Trazado 226737" d="M469.018,233.106a.613.613,0,0,0,.544.66.586.586,0,0,0,.67-.505.613.613,0,0,0-.544-.66.586.586,0,0,0-.671.505" transform="translate(-245.217 -121.608)" fill="#263238"/>
          <path id="Trazado_226738" data-name="Trazado 226738" d="M469.677,230.11c.07.085.559-.224,1.216-.174s1.116.414,1.193.339c.038-.033-.028-.183-.228-.351a1.684,1.684,0,0,0-.948-.37,1.621,1.621,0,0,0-.975.238c-.213.141-.293.28-.258.318" transform="translate(-245.559 -120.016)" fill="#263238"/>
          <path id="Trazado_226739" data-name="Trazado 226739" d="M461.946,233.654a4.387,4.387,0,0,0-1.055-.271c-.167-.03-.323-.074-.343-.191a.855.855,0,0,1,.148-.49l.59-1.243a22.067,22.067,0,0,0,1.36-3.264,22.016,22.016,0,0,0-1.62,3.147q-.3.656-.57,1.252a.974.974,0,0,0-.136.653.423.423,0,0,0,.259.266,1.141,1.141,0,0,0,.282.06,4.3,4.3,0,0,0,1.083.081" transform="translate(-240.662 -119.307)" fill="#263238"/>
          <path id="Trazado_226740" data-name="Trazado 226740" d="M460.936,254.508a12.889,12.889,0,0,0,6.782-1.218,6.8,6.8,0,0,1-6.867,2.422Z" transform="translate(-240.948 -132.428)" fill="#eb996e"/>
          <path id="Trazado_226741" data-name="Trazado 226741" d="M469.017,226.031c.052.184.715.147,1.48.3.768.134,1.374.405,1.488.252.052-.073-.045-.25-.284-.441a2.623,2.623,0,0,0-2.261-.418c-.292.094-.444.224-.423.311" transform="translate(-245.217 -117.963)" fill="#12263f"/>
          <path id="Trazado_226742" data-name="Trazado 226742" d="M455.808,224.578c.133.16.706.046,1.382.088.678.023,1.241.191,1.384.045.063-.072-.016-.228-.256-.387a2.267,2.267,0,0,0-1.105-.327,2.22,2.22,0,0,0-1.124.22c-.25.136-.34.284-.282.362" transform="translate(-238.303 -117.111)" fill="#12263f"/>
          <path id="Trazado_226743" data-name="Trazado 226743" d="M462.769,211.08a7.542,7.542,0,0,0,1.355,1.612l2.4,2.37a14.451,14.451,0,0,0,3.561,2.781c.633.382.959,1.371,1.592,1.753.143.087.607.033.758.143-.03,1.067-.046,4.466-.057,5.819-.018,2.133-.781,7.817-.781,7.817h1.817a4.593,4.593,0,0,0,3.223-3.264,34.222,34.222,0,0,0,.3-4.23c.223-2.772-.319-5.578-.5-8.352a11.486,11.486,0,0,0-.544-3.309,8.967,8.967,0,0,0-2.948-3.671,12.124,12.124,0,0,0-4.814-2.507,6.806,6.806,0,0,0-5.261.817,1.139,1.139,0,0,0-.534.633c-.229.667.087.974.432,1.589m9.71,8.7c.067.129.014.46,0,0" transform="translate(-241.685 -108.67)" fill="#12263f"/>
          <path id="Trazado_226744" data-name="Trazado 226744" d="M482.647,234.163a1.394,1.394,0,0,1,2.119-1.039,1.911,1.911,0,0,1,.672,1.975,2.166,2.166,0,0,1-3.126,1.867c0-.051.192-1.619.335-2.8" transform="translate(-252.169 -121.769)" fill="#ffbe9d"/>
          <path id="Trazado_226745" data-name="Trazado 226745" d="M484.4,236.93c.014-.008.046.041.126.089a.5.5,0,0,0,.372.05,1.243,1.243,0,0,0,.7-1.044,1.657,1.657,0,0,0-.059-.73.581.581,0,0,0-.333-.425.256.256,0,0,0-.31.1c-.047.076-.035.135-.052.138s-.056-.055-.02-.17a.321.321,0,0,1,.133-.167.378.378,0,0,1,.284-.042.7.7,0,0,1,.471.5,1.708,1.708,0,0,1,.083.817,1.3,1.3,0,0,1-.867,1.155.539.539,0,0,1-.448-.127c-.081-.081-.089-.146-.078-.151" transform="translate(-253.257 -122.721)" fill="#eb996e"/>
          <path id="Trazado_226746" data-name="Trazado 226746" d="M485.017,241.44a.565.565,0,1,1-.524-.6.566.566,0,0,1,.524.6" transform="translate(-252.993 -125.916)" fill="#263238"/>
          <path id="Trazado_226747" data-name="Trazado 226747" d="M465.107,242.322a1.311,1.311,0,0,1-.8,2,.764.764,0,0,1-.493-.027,1.09,1.09,0,0,1-.476-.718l-.225-.7a.23.23,0,0,1,.222-.355l1.724-.289" transform="translate(-242.116 -126.644)" fill="#eb996e"/>
          <path id="Trazado_226748" data-name="Trazado 226748" d="M463.733,244.066a1.523,1.523,0,0,0,.777-.042,1.212,1.212,0,0,0,.714-.5.911.911,0,0,0,.141-.517,1.54,1.54,0,0,0-.1-.552,1.418,1.418,0,0,0-.288-.463l-.042-.045-.058.016c-1.151.317-2.043.455-2.038.5a6.911,6.911,0,0,0,2.09-.31l-.1-.029a1.266,1.266,0,0,1,.243.4,1.1,1.1,0,0,1-.014.9,1.115,1.115,0,0,1-.6.461c-.434.142-.739.142-.734.18" transform="translate(-241.99 -126.497)" fill="#263238"/>
          <path id="Trazado_226749" data-name="Trazado 226749" d="M469.343,214.722a16.81,16.81,0,0,1,4.5,4.8l-1.547,2.625c-2.63-.248-2.942-.515-4.794-2.4s-5.536-5.631-5.741-8.264a25.655,25.655,0,0,1,7.583,3.239" transform="translate(-241.424 -110.57)" fill="#12263f"/>
          <path id="Trazado_226750" data-name="Trazado 226750" d="M475.557,235.178a1.558,1.558,0,0,1,.126-.275c.092-.174.221-.435.384-.773a20.07,20.07,0,0,0,1.129-2.957,19.359,19.359,0,0,0,.755-4.619,12.581,12.581,0,0,0-.145-2.75,4.8,4.8,0,0,0-1.267-2.583,9.231,9.231,0,0,0-2.474-1.589,18.582,18.582,0,0,1-2.432-1.382,17.834,17.834,0,0,1-3.507-3.168,19.808,19.808,0,0,1-1.872-2.578c-.2-.321-.34-.575-.431-.751a.152.152,0,1,1,.039-.023c.1.168.26.414.467.726a22.235,22.235,0,0,0,1.919,2.52,18.213,18.213,0,0,0,3.5,3.1,18.73,18.73,0,0,0,2.413,1.356,9.343,9.343,0,0,1,2.536,1.628,5,5,0,0,1,1.324,2.7,12.541,12.541,0,0,1,.135,2.8,18.852,18.852,0,0,1-.81,4.657,18.057,18.057,0,0,1-1.2,2.95c-.176.333-.317.588-.423.756a1.5,1.5,0,0,1-.166.252" transform="translate(-243.478 -110.57)" fill="#fff"/>
          <path id="Trazado_226751" data-name="Trazado 226751" d="M478.087,219.409a4.809,4.809,0,0,0-.912-2,6.717,6.717,0,0,0-1.8-1.571,24.545,24.545,0,0,0-2.644-1.335,17.951,17.951,0,0,1-4.552-2.939,14.741,14.741,0,0,1-1.17-1.156,2.717,2.717,0,0,1-.38-.469,3.519,3.519,0,0,1,.443.408c.278.269.682.654,1.211,1.1a19.561,19.561,0,0,0,4.543,2.856,22.433,22.433,0,0,1,2.66,1.364,6.605,6.605,0,0,1,1.812,1.651,4.174,4.174,0,0,1,.714,1.49,2.626,2.626,0,0,1,.072.445c.007.1.007.156,0,.157" transform="translate(-243.972 -109.765)" fill="#fff"/>
          <path id="Trazado_226752" data-name="Trazado 226752" d="M449.23,231.7a.994.994,0,0,1-.01-.244c0-.184.01-.414.017-.7.02-.6.056-1.479.112-2.559.116-2.159.3-5.146.748-8.42a22.111,22.111,0,0,1,.992-4.558,8.433,8.433,0,0,1,2-3.236,5.849,5.849,0,0,1,2.167-1.376,3.956,3.956,0,0,1,.678-.176.993.993,0,0,1,.242-.026c0,.023-.33.068-.89.284A6.049,6.049,0,0,0,453.2,212.1a8.442,8.442,0,0,0-1.92,3.193,22.762,22.762,0,0,0-.964,4.519c-.449,3.263-.656,6.243-.812,8.4-.076,1.055-.138,1.919-.183,2.554-.024.281-.043.511-.059.694a.992.992,0,0,1-.036.241" transform="translate(-234.867 -110.008)" fill="#fff"/>
          <path id="Trazado_226753" data-name="Trazado 226753" d="M432.909,272.039s.516-4.13,2.508-6.2,10.322-4.651,10.322-4.651.344,2.946,2.339,3.657a5.393,5.393,0,0,0,6.057-1.327,9.69,9.69,0,0,0,1.936-3.974s9.949.916,11.572,3.645,3.721,13.3,3.721,13.3l-9.3,1.974.6,8.572-22.86.133-.707-7.585-6.729.961Z" transform="translate(-226.052 -135.701)" fill="#b0c0d2"/>
          <path id="Trazado_226754" data-name="Trazado 226754" d="M490.685,289.025a1.515,1.515,0,0,1-.033-.411c-.008-.264-.011-.646-.01-1.118,0-.944.015-2.248.044-3.688s.069-2.744.108-3.688c.019-.471.039-.854.057-1.118a1.55,1.55,0,0,1,.05-.409,1.494,1.494,0,0,1,.033.41c.008.264.011.646.011,1.118,0,.944-.015,2.248-.044,3.689s-.069,2.744-.108,3.688c-.019.472-.039.854-.057,1.117a1.569,1.569,0,0,1-.05.409" transform="translate(-256.523 -145.658)" fill="#263238"/>
          <path id="Trazado_226755" data-name="Trazado 226755" d="M441.655,284.745c.057-.016.637,1.83,1.3,4.124s1.148,4.167,1.09,4.183-.637-1.829-1.3-4.124-1.147-4.167-1.09-4.183" transform="translate(-230.91 -148.874)" fill="#263238"/>
          <path id="Trazado_226756" data-name="Trazado 226756" d="M497.724,265.807c.007.038-.441.12-1.12.378a8.089,8.089,0,0,0-4.185,3.64c-.35.637-.494,1.069-.531,1.057a.941.941,0,0,1,.07-.314,5.185,5.185,0,0,1,.326-.813,7.38,7.38,0,0,1,4.269-3.713,5.171,5.171,0,0,1,.85-.21.941.941,0,0,1,.321-.026" transform="translate(-257.173 -138.969)" fill="#263238"/>
          <path id="Trazado_226757" data-name="Trazado 226757" d="M438.433,274.49a8.545,8.545,0,0,1,.665,2.618,8.55,8.55,0,0,1-.665-2.618" transform="translate(-229.219 -143.512)" fill="#263238"/>
          <path id="Trazado_226758" data-name="Trazado 226758" d="M465.292,278.588c.009.068-5.275.78-11.8,1.591s-11.824,1.412-11.832,1.344,5.274-.78,11.8-1.591,11.822-1.412,11.831-1.344" transform="translate(-230.915 -145.652)" fill="#fff"/>
          <path id="Trazado_226759" data-name="Trazado 226759" d="M500.23,277.938a81.736,81.736,0,0,1-8.745,2.165,81.866,81.866,0,0,1,8.745-2.165" transform="translate(-256.965 -145.311)" fill="#fff"/>
          <path id="Trazado_226760" data-name="Trazado 226760" d="M501.773,290c.014.067-2.261.61-5.083,1.213s-5.12,1.037-5.135.971,2.261-.61,5.083-1.213,5.12-1.037,5.134-.97" transform="translate(-257.002 -151.616)" fill="#fff"/>
          <path id="Trazado_226761" data-name="Trazado 226761" d="M449.481,267.184c.017.066-2.172.685-4.888,1.381s-4.933,1.206-4.95,1.14,2.171-.685,4.889-1.381,4.932-1.206,4.95-1.14" transform="translate(-229.86 -139.689)" fill="#fff"/>
          <path id="Trazado_226762" data-name="Trazado 226762" d="M467.224,296.817c0,.069-4.73.4-10.572.751s-10.584.571-10.588.5,4.729-.4,10.573-.751,10.583-.572,10.587-.5" transform="translate(-233.217 -155.18)" fill="#fff"/>
          <path id="Trazado_226763" data-name="Trazado 226763" d="M435.049,290.1a22,22,0,0,1,3.726-.477,10.592,10.592,0,0,1-3.726.477" transform="translate(-227.458 -151.413)" fill="#fff"/>
          <path id="Trazado_226764" data-name="Trazado 226764" d="M469.6,311.505a4.038,4.038,0,0,1-.72.079l-1.966.13-6.484.431-6.48.508-1.964.154a4.01,4.01,0,0,1-.724.026,4.008,4.008,0,0,1,.714-.122c.461-.063,1.13-.143,1.957-.233,1.655-.181,3.945-.4,6.479-.58s4.83-.3,6.494-.359c.832-.03,1.505-.047,1.971-.052a4.009,4.009,0,0,1,.724.018" transform="translate(-235.935 -162.855)" fill="#fff"/>
          <path id="Trazado_226765" data-name="Trazado 226765" d="M434.367,293.5l-3.179.411-3-7.748-4.859,1.965s2.742,9.289,3.789,12.956l9.87-.011Z" transform="translate(-221.33 -149.618)" fill="#ffbe9d"/>
          <path id="Trazado_226766" data-name="Trazado 226766" d="M443.387,308.039a18.025,18.025,0,0,1-1.636-2.006,14.209,14.209,0,0,1-1.056-1.829c-.262-.543-.442-1-.564-1.312a2.933,2.933,0,0,0-.2-.487,2.185,2.185,0,0,0,.122.514,11.664,11.664,0,0,0,.505,1.349,12.817,12.817,0,0,0,1.03,1.875,16.639,16.639,0,0,0,1.64,2.039,8.8,8.8,0,0,1,1.2,1.4l.25-.01a9.37,9.37,0,0,0-1.287-1.528" transform="translate(-230.009 -158.107)" fill="#eb996e"/>
          <path id="Trazado_226767" data-name="Trazado 226767" d="M420.123,272.251a26.112,26.112,0,0,0-.28-4.345l-2.395-5.352s-.617-.378-.912.689a2.8,2.8,0,0,0,.64,2.164l.073,1.4-.97-.788-1.866-3.5s-1.285-2.545-1.619-2.142-.223,1.223.331,2.321l1.258,2.492s.19.442-.47-.2-2.095-3.751-2.392-4.138-.7-1.527-1.347-1.27.18,1.624.18,1.624l2.058,4.609s-1.193-1.745-1.409-2.04-.711-1.294-1.1-1.8-.817-.707-1.1-.585a.575.575,0,0,0-.356.7l2.2,3.812s1.1,1.71,1.1,1.84-.958-.565-.958-.565l-.921-1.174s-1-1.758-1.519-1.662-.428.485-.428.485l1.851,3.2,2.684,3.453,2.871,2.852,1.658-.534Z" transform="translate(-213.267 -135.701)" fill="#ffbe9d"/>
          <path id="Trazado_226768" data-name="Trazado 226768" d="M422.392,278.167a6.641,6.641,0,0,0,.172-1.068,3.4,3.4,0,0,1,1.1-2.2,1.824,1.824,0,0,1,1.116-.425h.137l-.01-.149c-.042-.657-.019-1.283-.042-1.7s-.059-.677-.093-.671a3.5,3.5,0,0,0-.065.669,17.233,17.233,0,0,0-.053,1.742l.128-.149a2.013,2.013,0,0,0-1.288.467,2.8,2.8,0,0,0-.868,1.212,4.434,4.434,0,0,0-.257,1.173,3.174,3.174,0,0,0,.021,1.093" transform="translate(-220.816 -142.19)" fill="#eb996e"/>
          <path id="Trazado_226769" data-name="Trazado 226769" d="M490.686,297.616l-1.769,8.513,8.305-.008c.319-1.211,2.055-10.328,2.055-10.328Z" transform="translate(-255.622 -154.65)" fill="#ffbe9d"/>
        </g>
      </g>
      <g id="Grupo_177587" data-name="Grupo 177587">
        <g id="Grupo_177586" data-name="Grupo 177586" clip-path="url(#clip-path)">
          <path id="Trazado_226770" data-name="Trazado 226770" d="M364.974,76.831H285.052V.015h79.922Z" transform="translate(-149.035 -0.008)" fill="#fff"/>
          <rect id="Rectángulo_57223" data-name="Rectángulo 57223" width="79.922" height="5.753" transform="translate(136.017 0.007)" fill="#f5f5f5"/>
          <path id="Trazado_226771" data-name="Trazado 226771" d="M365,135.415H285.1v12.208h4.166v11.389l10.488-11.389H365Z" transform="translate(-149.06 -70.799)" fill="#ebebeb"/>
          <path id="Trazado_226772" data-name="Trazado 226772" d="M364.861,64.733s.011.48.016,1.41.009,2.315.016,4.116.009,4.032.015,6.651v.031c-.1.094-.036.026-.062.047h-1.993l-2.184,0L355.877,77l-56.262.044.077-.034L289.21,88.406l-.193.21V88.33c0-3.562,0-7.438,0-11.389l.116.115h-4.245l-.038-.047-.023-.029v-.041c0-17.418,0-36.5-.008-56.408,0-6.927,0-13.753,0-20.408V0h.124l79.922.025h.1v.1c-.018,19.734-.032,35.885-.042,47.106-.011,5.607-.021,9.981-.027,12.958-.006,1.484-.011,2.62-.014,3.387s-.015,1.157-.015,1.157-.01-.393-.015-1.157-.008-1.9-.014-3.387c-.006-2.977-.015-7.351-.027-12.958-.01-11.222-.025-27.372-.042-47.106l.1.1L284.939.248l.123-.124c0,6.655,0,13.482,0,20.408,0,19.906-.005,38.99-.008,56.408l-.023-.07h0l-.094-.047h4.3v.115c0,3.951,0,7.827,0,11.389l-.194-.075L299.538,76.87l.031-.034h.046l56.262.044,4.792.007,2.184,0,1.037,0h.955c-.016.021.057-.046-.032.047V76.91c.006-2.62.01-4.846.015-6.651s.012-3.182.016-4.116.016-1.41.016-1.41" transform="translate(-148.91 -0.001)" fill="#263238"/>
          <path id="Trazado_226773" data-name="Trazado 226773" d="M306.386,5.3a1.075,1.075,0,1,1-1.076-1.075A1.075,1.075,0,0,1,306.386,5.3" transform="translate(-159.064 -2.209)" fill="#fff"/>
          <path id="Trazado_226774" data-name="Trazado 226774" d="M292.729,5.3a1.075,1.075,0,1,1-1.076-1.075A1.075,1.075,0,0,1,292.729,5.3" transform="translate(-151.924 -2.209)" fill="#fff"/>
          <path id="Trazado_226775" data-name="Trazado 226775" d="M299.558,5.3a1.075,1.075,0,1,1-1.076-1.075A1.075,1.075,0,0,1,299.558,5.3" transform="translate(-155.494 -2.209)" fill="#fff"/>
          <path id="Trazado_226776" data-name="Trazado 226776" d="M430.719,29.1h0a5.066,5.066,0,1,1,5.066-5.066,5.066,5.066,0,0,1-5.066,5.066" transform="translate(-222.546 -9.919)" fill="#ebebeb"/>
          <path id="Trazado_226777" data-name="Trazado 226777" d="M434.069,27.935a.808.808,0,1,0-.491-.005,1.408,1.408,0,0,0-1.181,1.389h2.819a1.41,1.41,0,0,0-1.147-1.384" transform="translate(-226.072 -13.78)" fill="#263238"/>
          <path id="Trazado_226778" data-name="Trazado 226778" d="M439.083,28.494a.116.116,0,0,1-.116-.116v-1.3a.116.116,0,0,1,.233,0v1.3a.116.116,0,0,1-.116.116" transform="translate(-229.507 -14.098)" fill="#263238"/>
          <path id="Trazado_226779" data-name="Trazado 226779" d="M439.022,28.556h-1.3a.116.116,0,1,1,0-.232h1.3a.116.116,0,1,1,0,.232" transform="translate(-228.797 -14.809)" fill="#263238"/>
          <path id="Trazado_226780" data-name="Trazado 226780" d="M398.272,143.375a3.795,3.795,0,1,1-3.795-3.795,3.8,3.8,0,0,1,3.795,3.795" transform="translate(-204.262 -72.977)" fill="#12263f"/>
          <path id="Trazado_226781" data-name="Trazado 226781" d="M397.063,147.62h-.668a.613.613,0,0,1-.613-.613v-.668a.613.613,0,0,1,.613-.613h.668a.613.613,0,0,1,.613.613v.668a.613.613,0,0,1-.613.613" transform="translate(-206.928 -76.191)" fill="#fff"/>
          <path id="Trazado_226782" data-name="Trazado 226782" d="M400.111,147.115v-.642l.479-.512a.1.1,0,0,1,.178.07v1.458a.1.1,0,0,1-.173.076Z" transform="translate(-209.191 -76.296)" fill="#fff"/>
          <path id="Trazado_226783" data-name="Trazado 226783" d="M367.945,146.191a3.741,3.741,0,1,1,5.291,0,3.741,3.741,0,0,1-5.291,0" transform="translate(-191.801 -73.094)" fill="#eeac3a"/>
          <path id="Trazado_226784" data-name="Trazado 226784" d="M370.946,147.523l.667-.157a.183.183,0,0,0,.141-.178v-.137s-.029-.234.192-.248c.158-.011,1.161,0,1.161,0s.264-.005.26.2v.2a.156.156,0,0,0,.111.149l.724.219a.157.157,0,0,0,.189-.09l.092-.223a.3.3,0,0,0,.023-.129.632.632,0,0,0-.125-.334,2.733,2.733,0,0,0-2.11-.556c-1.229.06-1.5.577-1.567.7a.524.524,0,0,0-.023.345l.053.128a.182.182,0,0,0,.21.107" transform="translate(-193.795 -76.457)" fill="#fff"/>
          <path id="Trazado_226785" data-name="Trazado 226785" d="M350.384,143.48a3.762,3.762,0,1,1-3.762-3.762,3.762,3.762,0,0,1,3.762,3.762" transform="translate(-179.259 -73.049)" fill="#43a99b"/>
          <path id="Trazado_226786" data-name="Trazado 226786" d="M347.836,147.567a.371.371,0,1,1,.371-.371.371.371,0,0,1-.371.371" transform="translate(-181.666 -76.765)" fill="#fff"/>
          <path id="Trazado_226787" data-name="Trazado 226787" d="M350.254,147.567a.371.371,0,1,1,.371-.371.371.371,0,0,1-.371.371" transform="translate(-182.93 -76.765)" fill="#fff"/>
          <path id="Trazado_226788" data-name="Trazado 226788" d="M352.841,147.567a.371.371,0,1,1,.371-.371.371.371,0,0,1-.371.371" transform="translate(-184.283 -76.765)" fill="#fff"/>
          <path id="Trazado_226789" data-name="Trazado 226789" d="M297.7,26.279a2.434,2.434,0,1,1-2.435-2.435,2.435,2.435,0,0,1,2.435,2.435" transform="translate(-153.102 -12.466)" fill="#455a64"/>
          <path id="Trazado_226790" data-name="Trazado 226790" d="M316.155,27.983a41.229,41.229,0,0,1-4.52.124,41.232,41.232,0,0,1-4.521-.124,82.425,82.425,0,0,1,9.041,0" transform="translate(-160.569 -14.566)" fill="#455a64"/>
          <path id="Trazado_226791" data-name="Trazado 226791" d="M335.763,31.824a6.984,6.984,0,0,0,1.82-2.97c.172-1.067-.295-2.236.184-3.205.589-1.193,2.281-1.426,3.015-2.535.355-.537.439-1.218.79-1.758a3.2,3.2,0,0,1,2.921-1.154c1.1.063,2.165.4,3.262.427,1.505.031,3.03-.533,4.492-.173,1.613.4,2.654,1.757,3.754,3.069l1.425,1.513a5.935,5.935,0,0,0,.934.685,10.719,10.719,0,0,1,1.757,1,2.659,2.659,0,0,1,.012,3.835,2.844,2.844,0,0,1,2.049,2.692,8.162,8.162,0,0,1-.421,1.953,2.84,2.84,0,0,0,.042,1.96,1.249,1.249,0,0,0,1.663.624,2.991,2.991,0,0,1-1.532,2.07,1.787,1.787,0,0,0,1.227.475c-1.079,2.917-4.317,4.578-7.423,4.743s-6.135-.871-9.072-1.893l-8.467-1.776c-.742-.133-1.091-1.011-1.116-1.765a6.023,6.023,0,0,0-.174-2.238c-.415-.947-1.561-1.406-1.992-2.346-.491-1.069.12-2.315.85-3.237" transform="translate(-175.011 -10.558)" fill="#263238"/>
          <path id="Trazado_226792" data-name="Trazado 226792" d="M377.356,43.514a34.5,34.5,0,0,0,1.2-5.83,12.059,12.059,0,0,0-.774-5.848c-.119-.276-1.11-2.122-1.408-2.077-.213.032.428,1.768.33,1.96a10.223,10.223,0,0,0-.842,6.01,26.939,26.939,0,0,0,1.492,5.786" transform="translate(-196.454 -15.559)" fill="#263238"/>
          <path id="Trazado_226793" data-name="Trazado 226793" d="M360.646,33c-.094-4.982-3.073-9.08-8.051-8.847l-.459.048a8.909,8.909,0,0,0-7.973,9.076c.106,4.318.279,9.087.549,11.381.56,4.749,5.394,4.987,5.394,4.987s.261,3.844.261,3.844l11.471-.811Z" transform="translate(-179.938 -12.621)" fill="#b28f83"/>
          <path id="Trazado_226794" data-name="Trazado 226794" d="M356.621,74.863a11.553,11.553,0,0,0,6-2.483S361.5,76,356.708,76.069Z" transform="translate(-186.453 -37.843)" fill="#826a63"/>
          <path id="Trazado_226795" data-name="Trazado 226795" d="M347.964,51.06a.683.683,0,0,0,.727.616.653.653,0,0,0,.635-.686.683.683,0,0,0-.726-.617.654.654,0,0,0-.636.687" transform="translate(-181.927 -26.336)" fill="#263238"/>
          <path id="Trazado_226796" data-name="Trazado 226796" d="M346.717,46.246c.093.08.567-.355,1.3-.43s1.305.234,1.375.136c.035-.043-.068-.195-.319-.34a1.874,1.874,0,0,0-1.112-.219,1.8,1.8,0,0,0-1.022.453c-.206.2-.266.365-.22.4" transform="translate(-181.268 -23.727)" fill="#263238"/>
          <path id="Trazado_226797" data-name="Trazado 226797" d="M361.769,50.252a.683.683,0,0,0,.727.616.653.653,0,0,0,.635-.686.683.683,0,0,0-.726-.617.654.654,0,0,0-.636.687" transform="translate(-189.144 -25.914)" fill="#263238"/>
          <path id="Trazado_226798" data-name="Trazado 226798" d="M361.782,45.285c.094.08.569-.355,1.3-.43s1.305.234,1.375.136c.034-.043-.067-.195-.32-.34a1.875,1.875,0,0,0-1.112-.219,1.8,1.8,0,0,0-1.023.453c-.206.2-.265.365-.22.4" transform="translate(-189.144 -23.225)" fill="#263238"/>
          <path id="Trazado_226799" data-name="Trazado 226799" d="M355.44,51.868a4.861,4.861,0,0,0-1.21-.089c-.188,0-.369-.018-.414-.142a.954.954,0,0,1,.066-.566l.4-1.479a24.633,24.633,0,0,0,.848-3.847,24.58,24.58,0,0,0-1.156,3.77c-.132.518-.258,1.012-.378,1.485a1.088,1.088,0,0,0-.019.742.47.47,0,0,0,.335.24,1.269,1.269,0,0,0,.322.01,4.772,4.772,0,0,0,1.2-.125" transform="translate(-184.831 -23.917)" fill="#263238"/>
          <path id="Trazado_226800" data-name="Trazado 226800" d="M359.836,59.162c-.12.006-.038.8-.657,1.433s-1.473.637-1.468.748c-.006.051.2.135.563.106a1.986,1.986,0,0,0,1.23-.579,1.73,1.73,0,0,0,.5-1.2c0-.334-.114-.522-.168-.512" transform="translate(-187.023 -30.931)" fill="#263238"/>
          <path id="Trazado_226801" data-name="Trazado 226801" d="M361.22,39.227c.093.191.812.02,1.681.033.868,0,1.586.174,1.681-.017.042-.09-.1-.265-.4-.428a2.925,2.925,0,0,0-2.562-.012c-.3.16-.443.333-.4.424" transform="translate(-188.854 -20.136)" fill="#263238"/>
          <path id="Trazado_226802" data-name="Trazado 226802" d="M346.8,41.048c.146.152.631-.073,1.236-.145.6-.093,1.129-.006,1.229-.192.043-.09-.055-.247-.3-.381a1.8,1.8,0,0,0-1.986.272c-.2.193-.248.371-.183.446" transform="translate(-181.305 -20.99)" fill="#263238"/>
          <path id="Trazado_226803" data-name="Trazado 226803" d="M378.673,49.86c.077-.043,3.165-1.311,3.4,1.951s-3.085,2.829-3.1,2.736-.306-4.687-.306-4.687" transform="translate(-197.983 -25.923)" fill="#b28f83"/>
          <path id="Trazado_226804" data-name="Trazado 226804" d="M381.211,54.366c.013-.011.06.035.159.073a.568.568,0,0,0,.426-.022,1.41,1.41,0,0,0,.558-1.309,1.891,1.891,0,0,0-.219-.8.658.658,0,0,0-.459-.4.29.29,0,0,0-.324.18c-.037.094-.011.158-.029.165s-.074-.05-.058-.186a.365.365,0,0,1,.114-.214.431.431,0,0,1,.308-.106.8.8,0,0,1,.63.462,1.938,1.938,0,0,1,.264.9,1.479,1.479,0,0,1-.726,1.469.611.611,0,0,1-.526-.048c-.107-.073-.129-.145-.118-.152" transform="translate(-199.309 -27.051)" fill="#826a63"/>
          <path id="Trazado_226805" data-name="Trazado 226805" d="M347.735,27.051c-.547-.258.928-2.07,2.188-2.742,1.9-1.017,4.865-1.757,6.707-1.361a7.88,7.88,0,0,1,5.318,3.356,12.863,12.863,0,0,1,1.863,6.462,3.91,3.91,0,0,1-.332,2.024c-.409.751-1.255,1.262-1.152,2.255a1.372,1.372,0,0,1-.275,1.018c-.556.674-1.325.124-1.7-.453a9.469,9.469,0,0,1-1.135-4.214,9.569,9.569,0,0,1,.007-3.117c.125-.554.348-1.085.442-1.645a1.964,1.964,0,0,0-.336-1.614,2.009,2.009,0,0,0-.282-.251,3.41,3.41,0,0,0-3.418-.426c-1.8.769-4.872,1.942-5.732,1.37a5.038,5.038,0,0,1-1.556-1.388Z" transform="translate(-181.746 -11.941)" fill="#263238"/>
          <path id="Trazado_226806" data-name="Trazado 226806" d="M358.011,21.872a7.184,7.184,0,0,0-5.495.658,3.737,3.737,0,0,0-1.828,2.294,2.143,2.143,0,0,0,1.233,2.465l.067.036a4.978,4.978,0,0,0,3.673-.436c1.142-.48,2.134-1.267,3.279-1.741a6.647,6.647,0,0,1,3.875-.363,10.847,10.847,0,0,0-4.8-2.913" transform="translate(-183.327 -11.298)" fill="#263238"/>
          <path id="Trazado_226807" data-name="Trazado 226807" d="M373.109,44.431c0-.013-.115.018-.332.012a1.681,1.681,0,0,1-.873-.311,2.1,2.1,0,0,1-.83-1.187,3.969,3.969,0,0,1,.039-1.953c.162-.719.475-1.477.656-2.35a4.233,4.233,0,0,0,.072-1.382,2.634,2.634,0,0,0-.563-1.369,3.134,3.134,0,0,0-1.31-.83,8.264,8.264,0,0,1-1.428-.612,4.613,4.613,0,0,1-1.8-2.6c-.356-1.066-.5-2.173-.789-3.217a5.868,5.868,0,0,0-1.455-2.752,3.912,3.912,0,0,0-2.611-1.036,5.11,5.11,0,0,0-2.4.531,7.568,7.568,0,0,0-2.646,2.333c-.248.337-.419.613-.533.8a1.727,1.727,0,0,0-.158.3,1.842,1.842,0,0,0,.2-.27c.126-.179.31-.445.566-.771a7.743,7.743,0,0,1,2.646-2.239,4.977,4.977,0,0,1,2.319-.485,3.718,3.718,0,0,1,2.467,1,5.679,5.679,0,0,1,1.383,2.656c.284,1.023.423,2.134.788,3.229a4.82,4.82,0,0,0,1.908,2.728,8.348,8.348,0,0,0,1.468.626,2.927,2.927,0,0,1,1.225.761,2.429,2.429,0,0,1,.522,1.255,4.046,4.046,0,0,1-.058,1.317c-.167.848-.471,1.613-.627,2.351a4.064,4.064,0,0,0,0,2.026,2.178,2.178,0,0,0,.906,1.227,1.658,1.658,0,0,0,.924.282.961.961,0,0,0,.332-.06" transform="translate(-186.203 -12.986)" fill="#455a64"/>
          <path id="Trazado_226808" data-name="Trazado 226808" d="M354.976,22.069a2.041,2.041,0,0,0-.99.149A3.79,3.79,0,0,0,351.408,26a2.044,2.044,0,0,0,.222.976c.04-.01-.066-.378-.055-.978a3.926,3.926,0,0,1,2.47-3.622c.555-.229.936-.265.931-.306" transform="translate(-183.725 -11.53)" fill="#455a64"/>
          <path id="Trazado_226809" data-name="Trazado 226809" d="M344.836,28.947a1.727,1.727,0,0,0-.248,1.191,1.726,1.726,0,0,0,.39,1.152c.064-.028-.119-.527-.154-1.167s.078-1.157.011-1.177" transform="translate(-180.16 -15.134)" fill="#455a64"/>
          <path id="Trazado_226810" data-name="Trazado 226810" d="M365.774,84.259,353.892,80.5l-10.665,2.068-12.613,6.9,5.791,17.236h29.248l-.607-16.868Z" transform="translate(-172.856 -42.088)" fill="#1a76b7"/>
          <path id="Trazado_226811" data-name="Trazado 226811" d="M356.371,82.052V80.2l11.856-1.735-.123,3.591-11.961,1.284Z" transform="translate(-186.204 -41.022)" fill="#1a76b7"/>
          <path id="Trazado_226812" data-name="Trazado 226812" d="M408.852,92.144c-1.7-4.122-7.21-4.447-7.574-4.447l-.792,3.234,1.468,16.481.7,3.054h12.792c-2-6.53-5.494-15.648-6.6-18.323" transform="translate(-209.388 -45.851)" fill="#1a76b7"/>
          <path id="Trazado_226813" data-name="Trazado 226813" d="M327.853,99.294s-1.55,1.637-1.778,6.079-.743,11.157-.743,11.157h9.356l.613-6.606Z" transform="translate(-170.094 -51.914)" fill="#1a76b7"/>
          <path id="Trazado_226814" data-name="Trazado 226814" d="M339.672,124.823a49.474,49.474,0,0,1-1.78-4.629,49.535,49.535,0,0,1-1.546-4.713,49.47,49.47,0,0,1,1.78,4.629c.919,2.58,1.61,4.69,1.546,4.713" transform="translate(-175.85 -60.377)" fill="#263238"/>
          <path id="Trazado_226815" data-name="Trazado 226815" d="M402.836,101.145c.069,0,.257,3.621.421,8.093s.241,8.1.173,8.1-.257-3.621-.421-8.094-.241-8.1-.173-8.1" transform="translate(-210.603 -52.882)" fill="#263238"/>
        </g>
      </g>
      <path id="Trazado_226816" data-name="Trazado 226816" d="M204.025,402.19l1.584,19.231h4.272l-.825-19.231Z" transform="translate(-106.671 -210.278)" fill="#263238"/>
      <path id="Trazado_226817" data-name="Trazado 226817" d="M294.715,402.19l-.826,19.231h4.272l1.584-19.231Z" transform="translate(-153.655 -210.278)" fill="#263238"/>
      <g id="Grupo_177598" data-name="Grupo 177598">
        <g id="Grupo_177597" data-name="Grupo 177597" clip-path="url(#clip-path)">
          <path id="Trazado_226818" data-name="Trazado 226818" d="M250.222,362.794l-54.987,1.291-1.674-35.516a6.1,6.1,0,0,1,6.093-6.387H246.5a6.1,6.1,0,0,1,6.085,6.522Z" transform="translate(-101.197 -168.447)" fill="#455a64"/>
          <path id="Trazado_226819" data-name="Trazado 226819" d="M253.05,335.145a.707.707,0,0,1-.154.013l-.45.014-1.734.026-6.374.023c-5.382.009-12.818-.051-21.025.139-8.212.273-15.653.227-21.034.145-2.691-.043-4.869-.1-6.373-.14l-1.732-.06-.45-.022a.7.7,0,0,1-.153-.016.69.69,0,0,1,.154-.01l.451,0,1.733.013,6.373.061c5.382.037,12.816.055,21.026-.217,8.213-.19,15.65-.1,21.032-.066l6.374.056,1.733.021.451.011a.694.694,0,0,1,.154.012" transform="translate(-101.205 -175.146)" fill="#263238"/>
          <path id="Trazado_226820" data-name="Trazado 226820" d="M228.445,323.315a10.392,10.392,0,0,0-6.533,3.333,3.3,3.3,0,0,1,.681-.883,8.259,8.259,0,0,1,4.737-2.417,3.3,3.3,0,0,1,1.115-.033" transform="translate(-116.022 -169.025)" fill="#263238"/>
          <g id="Grupo_177590" data-name="Grupo 177590" transform="translate(105.372 152.334)" opacity="0.3">
            <g id="Grupo_177589" data-name="Grupo 177589">
              <g id="Grupo_177588" data-name="Grupo 177588" clip-path="url(#clip-path-6)">
                <path id="Trazado_226821" data-name="Trazado 226821" d="M220.828,320.648c1.628,1.818,4.289,2.616,6.7,2.983a41.367,41.367,0,0,0,13.127.278c2.777-.473,5.527-1.394,8.337-1.2,2.876.2,5.765,1.554,8.538.767a5.827,5.827,0,0,0,3.511-2.835c.231-.435.376-1.044,0-1.363-.19-.161-.606.4-.854.379-13.027-.995-26.327,1.9-39.36.992" transform="translate(-220.828 -319.247)"/>
              </g>
            </g>
          </g>
          <g id="Grupo_177593" data-name="Grupo 177593" transform="translate(138.863 162.269)" opacity="0.3">
            <g id="Grupo_177592" data-name="Grupo 177592">
              <g id="Grupo_177591" data-name="Grupo 177591" clip-path="url(#clip-path-7)">
                <path id="Trazado_226822" data-name="Trazado 226822" d="M291.066,340.068a3.917,3.917,0,0,0,1.211,3.336,13.419,13.419,0,0,0,3.021,2.1,13.025,13.025,0,0,1,4.635,3.917c2.1,3.263,1.323,7.544,2.212,11.32,0,0,.741-16.3.587-15.885" transform="translate(-291.016 -340.068)"/>
              </g>
            </g>
          </g>
          <path id="Trazado_226823" data-name="Trazado 226823" d="M239.471,113.71a8.537,8.537,0,0,1,2.3,7.555c-.258,1.306-.8,2.769-.059,3.876s2.4,1.264,3.1,2.385c.816,1.32-.2,3.022-.032,4.565a3.072,3.072,0,0,0,2.978,2.649,11.984,11.984,0,0,1-6.2,1.867l-1.4-2.315a2.2,2.2,0,0,1-.463,2.666,5.023,5.023,0,0,1-2.64,1.175,15.212,15.212,0,0,1-12.987-3.711" transform="translate(-117.146 -59.451)" fill="#263238"/>
          <path id="Trazado_226824" data-name="Trazado 226824" d="M201.089,113.418a30.6,30.6,0,0,0,1.458-2.857c.741-2.179-.052-4.823,1.269-6.708.94-1.341,2.667-1.849,4.278-2.144s3.328-.505,4.621-1.51c.949-.737,1.568-1.832,2.515-2.572a7.221,7.221,0,0,1,4.889-1.155,10.245,10.245,0,0,1,5.015,1.432,5.625,5.625,0,0,1,2.685,4.307,16.62,16.62,0,0,0,0,2.565,17.579,17.579,0,0,0,1.137,2.58,4.508,4.508,0,0,1-1.752,5.235l-13.783,14.046c-2.625.654-8.58-1.212-10.3-3.3s-3.162-7.467-2.027-9.923" transform="translate(-104.925 -50.427)" fill="#263238"/>
          <path id="Trazado_226825" data-name="Trazado 226825" d="M235.314,117.533c-.08-3.567-2.261-8.027-5.821-7.8l-11.182,2.35a2.088,2.088,0,0,0-1.952,2.04l.1,26.74-.077.013s2.2,7.635,9.613,5.648c1.47-.394,2.2-1.953,2.557-3.572l.074.013c.011-.194.021-.374.031-.559a17.481,17.481,0,0,0,.2-3.663c.113-2.154.148-3.038.149-3.018,0,0,4.576-.571,5.757-6.463a63.421,63.421,0,0,0,.546-11.734" transform="translate(-113.12 -57.37)" fill="#ffbe9d"/>
          <path id="Trazado_226826" data-name="Trazado 226826" d="M235.377,135.572a.761.761,0,0,1-.764.738.728.728,0,0,1-.756-.718.762.762,0,0,1,.763-.738.729.729,0,0,1,.757.718" transform="translate(-122.268 -70.506)" fill="#263238"/>
          <path id="Trazado_226827" data-name="Trazado 226827" d="M251.627,135.572a.761.761,0,0,1-.764.738.728.728,0,0,1-.756-.718.762.762,0,0,1,.763-.738.729.729,0,0,1,.757.718" transform="translate(-130.764 -70.506)" fill="#263238"/>
          <path id="Trazado_226828" data-name="Trazado 226828" d="M250.718,130.436c-.1.128-.747-.4-1.64-.373s-1.527.56-1.629.436c-.05-.055.046-.285.322-.534a2.016,2.016,0,0,1,2.61-.05c.284.239.386.464.337.522" transform="translate(-129.368 -67.686)" fill="#263238"/>
          <path id="Trazado_226829" data-name="Trazado 226829" d="M233.19,130.223c-.118.115-.75-.467-1.7-.538-.947-.086-1.682.384-1.776.251-.046-.059.08-.273.4-.486a2.306,2.306,0,0,1,1.432-.354,2.248,2.248,0,0,1,1.341.583c.274.262.357.493.3.544" transform="translate(-120.098 -67.492)" fill="#263238"/>
          <path id="Trazado_226830" data-name="Trazado 226830" d="M242.391,136.389a5.417,5.417,0,0,1,1.339-.186c.21-.013.409-.047.45-.188a1.063,1.063,0,0,0-.115-.625l-.554-1.617a27.447,27.447,0,0,1-1.22-4.219,27.442,27.442,0,0,1,1.557,4.111q.276.85.527,1.625a1.21,1.21,0,0,1,.075.825.523.523,0,0,1-.356.292,1.424,1.424,0,0,1-.357.035,5.321,5.321,0,0,1-1.348-.053" transform="translate(-126.673 -67.735)" fill="#263238"/>
          <path id="Trazado_226831" data-name="Trazado 226831" d="M234.265,161.547a15.1,15.1,0,0,1-7.857-2.44s1.762,4.152,7.72,3.837Z" transform="translate(-118.374 -83.186)" fill="#eb996e"/>
          <path id="Trazado_226832" data-name="Trazado 226832" d="M238.918,147.319a1.475,1.475,0,0,0-1.3-.6,1.347,1.347,0,0,0-.95.461.854.854,0,0,0-.1.973.991.991,0,0,0,1.062.315,3.1,3.1,0,0,0,1.071-.582.9.9,0,0,0,.243-.232.274.274,0,0,0,.011-.3" transform="translate(-123.627 -76.707)" fill="#ff725e"/>
          <path id="Trazado_226833" data-name="Trazado 226833" d="M237.248,144.859c.133,0,.1.886.834,1.547s1.684.6,1.686.726c.01.056-.218.164-.618.159a2.215,2.215,0,0,1-1.41-.556,1.928,1.928,0,0,1-.642-1.3c-.019-.373.089-.589.15-.581" transform="translate(-123.961 -75.737)" fill="#263238"/>
          <path id="Trazado_226834" data-name="Trazado 226834" d="M233.417,124.91c-.09.219-.9.081-1.867.157-.967.058-1.753.307-1.872.1-.053-.1.091-.3.413-.5a3.254,3.254,0,0,1,2.848-.2c.347.156.517.338.478.442" transform="translate(-120.078 -64.951)" fill="#263238"/>
          <path id="Trazado_226835" data-name="Trazado 226835" d="M249.753,125.275c-.172.179-.809-.04-1.583-.08-.773-.064-1.436.067-1.579-.134-.063-.1.049-.279.342-.444a2.432,2.432,0,0,1,1.3-.252,2.4,2.4,0,0,1,1.248.425c.266.2.348.4.272.485" transform="translate(-128.917 -65.019)" fill="#263238"/>
          <path id="Trazado_226836" data-name="Trazado 226836" d="M213.346,112.521a4.85,4.85,0,0,1,2.638-1.336,54.547,54.547,0,0,1,12.832-1.707,2.216,2.216,0,0,1-1.078,2.612,9.884,9.884,0,0,1-2.934.918,3.84,3.84,0,0,0-2.552,1.579c-.538.954-.324,2.184-.813,3.164-.841,1.686-3.365,1.964-4.2,3.655-.629,1.279-.024,2.79,0,4.215a5.093,5.093,0,0,1-5.644,5.173l.909-15.259a5.079,5.079,0,0,1,.834-3.014" transform="translate(-110.633 -57.239)" fill="#263238"/>
          <path id="Trazado_226837" data-name="Trazado 226837" d="M189.277,126.125c.882-.621,1.955-1.122,2.393-2.108.639-1.436-.352-3.328.578-4.594.849-1.155,2.912-.848,3.715-2.036.627-.928.143-1.87.439-2.715a2.382,2.382,0,0,1,2.487-1.253l5.722,10.811c.246,3.43.68,5.291-.271,7.168a16.076,16.076,0,0,0-1.449,3.136,3.28,3.28,0,0,0,.7,3.22c-4.163-.162-7.774-2.776-11.1-5.284l-3.521-2.654a2.781,2.781,0,0,1-.937-.988c-.446-.982.362-2.083,1.244-2.7" transform="translate(-98.244 -59.278)" fill="#263238"/>
          <path id="Trazado_226838" data-name="Trazado 226838" d="M197.547,124.889a1.968,1.968,0,0,0,.431.136,3.782,3.782,0,0,0,1.3.06,4.01,4.01,0,0,0,1.906-.753,3.94,3.94,0,0,0,1.463-2.273,4.064,4.064,0,0,0,.051-1.6,6.493,6.493,0,0,0-.585-1.623,6.134,6.134,0,0,1-.6-1.683,2.065,2.065,0,0,1,.427-1.723,3.749,3.749,0,0,1,1.823-.684,1.9,1.9,0,0,0,.956-.548,1.86,1.86,0,0,0,.411-1.048,11.828,11.828,0,0,0-.217-2.2,2.367,2.367,0,0,1,.118-1.055,1.48,1.48,0,0,1,.694-.766,4.156,4.156,0,0,1,2.152-.312,4.5,4.5,0,0,0,2.2-.375,4.033,4.033,0,0,0,1.641-1.406,6.645,6.645,0,0,0,.77-1.914,9.273,9.273,0,0,1,.623-1.807,4.146,4.146,0,0,1,1.142-1.348,4.662,4.662,0,0,1,5.5-.124,5.686,5.686,0,0,1,1.447,1.4,7.524,7.524,0,0,1,.816,1.523.418.418,0,0,0-.027-.112c-.024-.072-.051-.183-.107-.32a5.459,5.459,0,0,0-.606-1.146,5.656,5.656,0,0,0-1.447-1.454,4.872,4.872,0,0,0-2.562-.892,4.952,4.952,0,0,0-3.134.967,4.346,4.346,0,0,0-1.21,1.41,9.439,9.439,0,0,0-.648,1.845,6.472,6.472,0,0,1-.748,1.846,3.809,3.809,0,0,1-1.548,1.319,4.272,4.272,0,0,1-2.094.349,4.357,4.357,0,0,0-2.275.341,1.722,1.722,0,0,0-.8.889,2.592,2.592,0,0,0-.133,1.162,11.963,11.963,0,0,1,.22,2.163,1.629,1.629,0,0,1-.352.918,1.674,1.674,0,0,1-.843.479c-.324.094-.665.144-1,.242a1.972,1.972,0,0,0-.92.51,2.272,2.272,0,0,0-.477,1.908,6.258,6.258,0,0,0,.632,1.739,6.359,6.359,0,0,1,.583,1.57,3.906,3.906,0,0,1-.034,1.527,3.815,3.815,0,0,1-1.379,2.2,3.961,3.961,0,0,1-1.837.768,4.489,4.489,0,0,1-1.714-.1" transform="translate(-103.284 -52.718)" fill="#455a64"/>
          <path id="Trazado_226839" data-name="Trazado 226839" d="M187.5,116.566a.875.875,0,0,0-.176.321,1.489,1.489,0,0,0,.057,1.044,1.576,1.576,0,0,0,.462.617,1.657,1.657,0,0,0,.854.338,2.073,2.073,0,0,0,1.942-.935,2.777,2.777,0,0,0,.442-1.223,3.88,3.88,0,0,0-.13-1.4,8.541,8.541,0,0,1-.6-2.915,1.917,1.917,0,0,1,.646-1.362,2.1,2.1,0,0,1,1.555-.292,5.1,5.1,0,0,0,1.808.025,1.566,1.566,0,0,0,.807-.533,2.231,2.231,0,0,0,.409-.874,7.352,7.352,0,0,0,.067-1.852,4.05,4.05,0,0,1,.3-1.689,4.322,4.322,0,0,1,2.216-2.293,6.115,6.115,0,0,1,2.937-.316,8.5,8.5,0,0,0,2.66-.1A5.577,5.577,0,0,0,206.9,101a3.931,3.931,0,0,0,.645-1.251,7.6,7.6,0,0,1-.721,1.195,5.518,5.518,0,0,1-1.17,1.128,5.408,5.408,0,0,1-1.945.888,8.45,8.45,0,0,1-2.607.071,6.265,6.265,0,0,0-3.04.313,4.535,4.535,0,0,0-2.347,2.408,4.3,4.3,0,0,0-.317,1.782,7.244,7.244,0,0,1-.061,1.791,1.55,1.55,0,0,1-1.046,1.232,4.973,4.973,0,0,1-1.72-.03,2.319,2.319,0,0,0-1.72.346,2.137,2.137,0,0,0-.725,1.523,4.074,4.074,0,0,0,.2,1.581c.145.491.316.951.435,1.4a3.718,3.718,0,0,1,.138,1.327,2.613,2.613,0,0,1-.4,1.148,1.931,1.931,0,0,1-1.786.9,1.54,1.54,0,0,1-.8-.3,1.518,1.518,0,0,1-.543-1.555c.063-.226.141-.329.129-.335" transform="translate(-97.904 -52.152)" fill="#263238"/>
          <path id="Trazado_226840" data-name="Trazado 226840" d="M266.938,131.206a1.646,1.646,0,0,1-.14,1.077,1.432,1.432,0,0,1-.96.769,1.5,1.5,0,0,1-1.465-.592,1.378,1.378,0,0,1-.253-.906,2.868,2.868,0,0,1,.281-1.026,6.111,6.111,0,0,0,.877-2.3,3.354,3.354,0,0,0-.974-2.532,3.941,3.941,0,0,0-1.206-.828,5.774,5.774,0,0,0-1.444-.384,7.741,7.741,0,0,1-1.409-.317,1.91,1.91,0,0,1-1.029-.821,2.348,2.348,0,0,1-.258-1.268,4.7,4.7,0,0,1,.257-1.26,9.736,9.736,0,0,0,.654-2.37,3.684,3.684,0,0,0-.5-2.091,4.755,4.755,0,0,0-1.211-1.294,8.971,8.971,0,0,1-.988-.869,2.775,2.775,0,0,1-.574-.948s0,.026.009.074a1.2,1.2,0,0,0,.059.212,2.222,2.222,0,0,0,.435.724,8.263,8.263,0,0,0,.972.911,4.7,4.7,0,0,1,1.149,1.275,3.532,3.532,0,0,1,.449,1.991,9.733,9.733,0,0,1-.666,2.314,4.876,4.876,0,0,0-.275,1.318,2.57,2.57,0,0,0,.282,1.4,2.145,2.145,0,0,0,1.15.929,7.912,7.912,0,0,0,1.453.331,5.584,5.584,0,0,1,1.388.366,3.7,3.7,0,0,1,1.134.774,3.134,3.134,0,0,1,.92,2.353,6.034,6.034,0,0,1-.836,2.228,3.032,3.032,0,0,0-.284,1.1,1.555,1.555,0,0,0,.3,1.015,1.642,1.642,0,0,0,1.632.622,1.583,1.583,0,0,0,1.154-1.694.867.867,0,0,0-.083-.283" transform="translate(-134.155 -59.21)" fill="#263238"/>
          <path id="Trazado_226841" data-name="Trazado 226841" d="M303.063,254.586l-2.109-3.187-3.384-1.7-.127-.093a4.54,4.54,0,0,0-3.839-.713c-1.378.366-3.217.824-4.812,1.1l-3.643-1V256.1l18.371-1.16Z" transform="translate(-149.086 -130.051)" fill="#ffbe9d"/>
          <path id="Trazado_226842" data-name="Trazado 226842" d="M315.683,256.974a4.8,4.8,0,0,0-.776-.71c-.5-.415-1.194-.976-1.972-1.585l-.729-.565-.021-.017-.025,0c-.753-.141-1.408-.255-1.875-.327a2.952,2.952,0,0,0-.753-.077,2.964,2.964,0,0,0,.726.214c.46.11,1.109.252,1.86.407l-.047-.021.724.571c.778.609,1.491,1.15,2.014,1.533a4.8,4.8,0,0,0,.875.582" transform="translate(-161.834 -132.632)" fill="#eb996e"/>
          <path id="Trazado_226843" data-name="Trazado 226843" d="M313.192,259.657a20.919,20.919,0,0,0-2.643-1.595l-.644-.354-.022-.012h-.024a14.4,14.4,0,0,0-2.352-.04,14.309,14.309,0,0,0,2.338.261l-.046-.013.641.359a20.915,20.915,0,0,0,2.753,1.4" transform="translate(-160.775 -134.695)" fill="#eb996e"/>
          <path id="Trazado_226844" data-name="Trazado 226844" d="M321.985,218.647a1.4,1.4,0,0,0-1.811.389l-14.8,20.04-23.413.317c-.935.056-2.069,1.946-1.232,2.861l26.439-.361,15.264-21.208a1.4,1.4,0,0,0-.45-2.038" transform="translate(-146.624 -114.222)" fill="#e0e0e0"/>
          <path id="Trazado_226845" data-name="Trazado 226845" d="M321.851,218.625a.817.817,0,0,1,.117.064,1.3,1.3,0,0,1,.3.262,1.416,1.416,0,0,1,.216,1.466,8.264,8.264,0,0,1-.625.937l-.78,1.1-1.935,2.714-12.013,16.768-.032.045h-.055l-25.959.37-.479.007h-.055l-.038-.042a1.313,1.313,0,0,1-.323-.943,2.306,2.306,0,0,1,.249-.937,2.735,2.735,0,0,1,.567-.773,1.344,1.344,0,0,1,.887-.415l3.616-.048,6.989-.092,12.748-.16-.084.043L316.794,223.3l3.277-4.381a1.413,1.413,0,0,1,1.318-.476,1.07,1.07,0,0,1,.462.178,1.866,1.866,0,0,0-.467-.145,1.382,1.382,0,0,0-1.263.485l-3.227,4.413L305.33,239.117l-.031.043h-.053l-12.745.185-6.987.1-3.615.05a1.1,1.1,0,0,0-.727.349,2.484,2.484,0,0,0-.514.7,1.453,1.453,0,0,0,.034,1.6l-.094-.041.479-.006,25.96-.34-.087.045,12.085-16.715,1.959-2.7.793-1.088a8.562,8.562,0,0,0,.631-.916,1.384,1.384,0,0,0-.181-1.417,1.782,1.782,0,0,0-.385-.348" transform="translate(-146.489 -114.2)" fill="#263238"/>
          <path id="Trazado_226846" data-name="Trazado 226846" d="M210.152,170.156a7.807,7.807,0,0,0-3.935,1.837,13.252,13.252,0,0,0-3.15,5.16c-.782,2.345-.431,11.6-.431,14.275s.681,12.747,1.018,14.421a10.585,10.585,0,0,1-.994,5.785,3.351,3.351,0,0,0,.779,4.4l28.73-.215-.115-1.072c-.2-1.867.5-3.769-.213-5.507a17.894,17.894,0,0,1-1.322-8.051c.367-4.786,1.8-8.053.919-10.83-1.34-4.236-5.764-13.868-11.11-17.983,0,0-4.215-.9-5.168-1.236-2.17-.76-3.317-1.17-5.008-.981" transform="translate(-105.714 -88.939)" fill="#d2c1eb"/>
          <path id="Trazado_226847" data-name="Trazado 226847" d="M244.888,208.183l-24.545-5.124-.633-21.309s-.859-8.681-5.21-9.488L204.025,185.3c.585,6.573.052,19.008,3.072,23.8s5.958,8.64,13.4,8.3,23.83-.5,23.83-.5Z" transform="translate(-106.671 -90.064)" fill="#d2c1eb"/>
          <path id="Trazado_226848" data-name="Trazado 226848" d="M236.32,236.974c.058.047-.53.815-1.025,1.885s-.713,2.012-.787,2a6.228,6.228,0,0,1,1.812-3.883" transform="translate(-122.6 -123.897)" fill="#263238"/>
          <g id="Grupo_177596" data-name="Grupo 177596" transform="translate(112.869 90.774)" opacity="0.3">
            <g id="Grupo_177595" data-name="Grupo 177595">
              <g id="Grupo_177594" data-name="Grupo 177594" clip-path="url(#clip-path-8)">
                <path id="Trazado_226849" data-name="Trazado 226849" d="M236.54,190.236c2.451,7.533,1.919,19.148,6.594,23.429l-5.792-1.209a29.37,29.37,0,0,0,.048-4.092c-.47-5.956-.527-12.012-.85-18.128" transform="translate(-236.54 -190.236)"/>
              </g>
            </g>
          </g>
          <path id="Trazado_226850" data-name="Trazado 226850" d="M219,184.6a13.546,13.546,0,0,1,.43,1.71,20.8,20.8,0,0,1,.3,2.109c.08.838.093,1.807.134,2.891.139,4.348.339,10.589.583,18.2l-.079-.094,24.55,5.1.1.022-.007.105c-.18,2.792-.37,5.729-.564,8.724l-.008.115h-.115l-2.985.034c-4.266.053-8.431.118-12.452.2q-3.016.064-5.919.158a31.645,31.645,0,0,1-5.688-.059,12.352,12.352,0,0,1-2.669-.687,11.379,11.379,0,0,1-2.356-1.287,16.007,16.007,0,0,1-3.541-3.678q-.717-1.008-1.356-2.015l-.318-.5c-.1-.171-.188-.349-.282-.522l-.276-.519-.211-.54a20.652,20.652,0,0,1-1.1-4.259,66.715,66.715,0,0,1-.719-7.515c-.11-2.219-.16-4.132-.215-5.694s-.105-2.775-.148-3.6c-.025-.4-.044-.715-.058-.934s-.011-.319-.011-.319.017.107.037.317.047.529.083.933c.059.821.13,2.033.195,3.6s.134,3.474.257,5.69a67.688,67.688,0,0,0,.753,7.494,20.563,20.563,0,0,0,1.1,4.217l.209.531.271.506c.092.169.178.341.277.51l.319.5q.638,1,1.355,2a15.836,15.836,0,0,0,3.5,3.622,11.164,11.164,0,0,0,2.311,1.257,12.152,12.152,0,0,0,2.621.669,31.6,31.6,0,0,0,5.646.049q2.9-.1,5.921-.164c4.023-.09,8.188-.157,12.455-.21l2.985-.033-.123.116c.195-2.994.386-5.931.568-8.723l.1.127-24.541-5.146-.077-.016,0-.079c-.208-7.608-.378-13.85-.5-18.2-.032-1.086-.036-2.052-.107-2.886s-.168-1.539-.27-2.106-.2-1-.27-1.283c-.034-.138-.06-.246-.079-.326A.649.649,0,0,1,219,184.6" transform="translate(-106.671 -96.517)" fill="#263238"/>
          <path id="Trazado_226851" data-name="Trazado 226851" d="M313.974,357.152,310.33,384l9.533,1.563,6.782-23.823Z" transform="translate(-162.251 -186.731)" fill="#ffbe9d"/>
          <path id="Trazado_226852" data-name="Trazado 226852" d="M257.387,268.4s40.664-3.866,43.678-1.1,5.527,8.793,4.522,10.8-3.266,8.793-3.266,8.793l-18.729-4.271Z" transform="translate(-134.571 -139.23)" fill="#263238"/>
          <path id="Trazado_226853" data-name="Trazado 226853" d="M304.039,309.452l-7.545,11.512,8.88,5.753,9.632-14.764Z" transform="translate(-155.017 -161.792)" fill="#ffbe9d"/>
          <path id="Trazado_226854" data-name="Trazado 226854" d="M205.084,266.078s-3.517,16.078,2.261,22.61,14.32,6.532,23.113,5.276,29.667-1.693,29.667-1.693-.931,5.707-1.612,12.2c-.683,6.512-.822,10.6-.822,10.6l13.068,1.09s7.28-22.161,8.4-26.549.742-10.283-3.131-12.471c-3.281-1.853-29.164-9.03-41.555-10.1l-1.346-1.156Z" transform="translate(-106.671 -139.018)" fill="#263238"/>
          <path id="Trazado_226855" data-name="Trazado 226855" d="M327.917,309.979c.007.045-.506.117-1.281.395a8.3,8.3,0,0,0-1.306.607,8.334,8.334,0,0,0-2.6,2.345,8.324,8.324,0,0,0-.738,1.238c-.356.742-.48,1.245-.524,1.233a1.036,1.036,0,0,1,.053-.361,5.322,5.322,0,0,1,.311-.945,7.254,7.254,0,0,1,.711-1.3,7.79,7.79,0,0,1,2.675-2.413,7.251,7.251,0,0,1,1.363-.574,5.323,5.323,0,0,1,.971-.212,1.037,1.037,0,0,1,.365-.016" transform="translate(-168.07 -162.062)" fill="#455a64"/>
          <path id="Trazado_226856" data-name="Trazado 226856" d="M331.728,279.214a6,6,0,0,1,1.694-2.488,20.149,20.149,0,0,1-1.694,2.488" transform="translate(-173.434 -144.68)" fill="#455a64"/>
          <path id="Trazado_226857" data-name="Trazado 226857" d="M313.07,284.713a.51.51,0,0,1-.039-.125c-.023-.1-.052-.22-.088-.372-.078-.326-.2-.806-.393-1.412a10.736,10.736,0,0,0-.929-2.112,5.272,5.272,0,0,0-2.108-2.121,57.816,57.816,0,0,0-7.531-2.676c-2.89-.864-6.077-1.78-9.441-2.67-6.729-1.787-12.906-3.066-17.406-3.812-2.249-.38-4.077-.64-5.34-.816l-1.456-.2-.378-.058a.066.066,0,1,1,0-.025l.381.033,1.462.152c1.268.146,3.1.38,5.356.738a176.624,176.624,0,0,1,17.441,3.745c3.368.89,6.556,1.814,9.444,2.691a55.732,55.732,0,0,1,7.544,2.738,5.384,5.384,0,0,1,2.149,2.208,10.431,10.431,0,0,1,.9,2.153,14.568,14.568,0,0,1,.35,1.431c.026.154.047.278.064.377a.51.51,0,0,1,.013.13" transform="translate(-140.033 -140.282)" fill="#455a64"/>
          <path id="Trazado_226858" data-name="Trazado 226858" d="M317.141,408.99l.318-1.164a18.133,18.133,0,0,1-10.522-4.535l-3.23,6.983,21.542,9.578c.814-2.059-8.108-10.862-8.108-10.862" transform="translate(-158.788 -210.854)" fill="#d2c1eb"/>
          <path id="Trazado_226859" data-name="Trazado 226859" d="M303.707,416.056l.789-1.706,20.4,9.842s.769.833.352,1.443Z" transform="translate(-158.788 -216.636)" fill="#e0e0e0"/>
          <path id="Trazado_226860" data-name="Trazado 226860" d="M328.508,414.517c-.052.1-.6-.086-1.271.013-.675.082-1.149.407-1.227.324-.088-.063.356-.606,1.172-.712s1.393.292,1.327.376" transform="translate(-170.443 -216.517)" fill="#263238"/>
          <path id="Trazado_226861" data-name="Trazado 226861" d="M312.4,412.433a.629.629,0,0,1-.829.285.6.6,0,0,1-.293-.807.629.629,0,0,1,.829-.285.6.6,0,0,1,.292.807" transform="translate(-162.712 -215.181)" fill="#e0e0e0"/>
          <path id="Trazado_226862" data-name="Trazado 226862" d="M328.616,412.253a1.419,1.419,0,0,1-.488-.089,2.625,2.625,0,0,1-1.209-.645,1.8,1.8,0,0,1-.282-.371,1.128,1.128,0,0,1-.181-.5.531.531,0,0,1,.338-.532.822.822,0,0,1,.653.03,2.406,2.406,0,0,1,1.332,2.1l-.318-.046a2.562,2.562,0,0,1,.213-.483,2.651,2.651,0,0,1,2.335-1.32.811.811,0,0,1,.362.071.46.46,0,0,1,.244.319.83.83,0,0,1-.155.622,1.934,1.934,0,0,1-.825.663,3.337,3.337,0,0,1-1.479.22,1.918,1.918,0,0,1-.54-.044,1.666,1.666,0,0,1,.536-.079,3.639,3.639,0,0,0,1.382-.3,1.725,1.725,0,0,0,.7-.6.583.583,0,0,0,.1-.42c-.027-.121-.129-.161-.328-.158a2.375,2.375,0,0,0-2.049,1.182,2.3,2.3,0,0,0-.188.423.163.163,0,0,1-.318-.046,2.146,2.146,0,0,0-1.129-1.845c-.292-.156-.633-.022-.607.231a1.444,1.444,0,0,0,.366.733,2.781,2.781,0,0,0,1.084.678,1.747,1.747,0,0,1,.449.2" transform="translate(-170.68 -214.396)" fill="#263238"/>
          <path id="Trazado_226863" data-name="Trazado 226863" d="M331.725,417.846a4.134,4.134,0,0,0-2.731.679,2.246,2.246,0,0,1,2.731-.679" transform="translate(-172.007 -218.35)" fill="#263238"/>
          <path id="Trazado_226864" data-name="Trazado 226864" d="M334.539,420.84c-.006.073-.59.055-1.262.259s-1.155.528-1.2.47a2.479,2.479,0,0,1,2.462-.729" transform="translate(-173.619 -219.978)" fill="#263238"/>
          <path id="Trazado_226865" data-name="Trazado 226865" d="M303.9,334.877l.509-1.094a18.136,18.136,0,0,1-9.608-6.242l-4.36,6.34,19.622,13.068c1.149-1.893-6.163-12.072-6.163-12.072" transform="translate(-151.85 -171.25)" fill="#d2c1eb"/>
          <path id="Trazado_226866" data-name="Trazado 226866" d="M290.438,339.131l1.065-1.549,18.453,13.136s.617.95.1,1.481Z" transform="translate(-151.851 -176.499)" fill="#e0e0e0"/>
          <path id="Trazado_226867" data-name="Trazado 226867" d="M315.329,341.883c-.068.091-.576-.186-1.255-.2-.679-.032-1.2.208-1.264.112-.076-.077.453-.537,1.275-.5s1.324.522,1.244.594" transform="translate(-163.543 -178.437)" fill="#263238"/>
          <path id="Trazado_226868" data-name="Trazado 226868" d="M299.806,336.983a.629.629,0,0,1-.865.141.6.6,0,0,1-.153-.845.629.629,0,0,1,.865-.141.6.6,0,0,1,.153.845" transform="translate(-156.158 -175.685)" fill="#e0e0e0"/>
          <path id="Trazado_226869" data-name="Trazado 226869" d="M315.838,339.533a1.407,1.407,0,0,1-.466-.17,2.62,2.62,0,0,1-1.083-.839,1.791,1.791,0,0,1-.216-.413,1.134,1.134,0,0,1-.095-.519.532.532,0,0,1,.423-.468.822.822,0,0,1,.638.139,2.406,2.406,0,0,1,.959,2.3l-.305-.1a2.6,2.6,0,0,1,.291-.44,2.653,2.653,0,0,1,2.524-.909.818.818,0,0,1,.345.131.462.462,0,0,1,.187.355.828.828,0,0,1-.258.587,1.929,1.929,0,0,1-.925.514,3.346,3.346,0,0,1-1.495-.031,1.938,1.938,0,0,1-.524-.135,1.672,1.672,0,0,1,.542.012,3.635,3.635,0,0,0,1.412-.063,1.727,1.727,0,0,0,.789-.475.583.583,0,0,0,.174-.4c-.006-.123-.1-.18-.3-.211a2.377,2.377,0,0,0-2.219.82,2.325,2.325,0,0,0-.256.386.163.163,0,0,1-.218.069.16.16,0,0,1-.087-.168,2.147,2.147,0,0,0-.8-2.009c-.261-.2-.62-.128-.637.126a1.445,1.445,0,0,0,.237.785,2.777,2.777,0,0,0,.954.85c.269.163.419.254.408.274" transform="translate(-164.157 -176.25)" fill="#263238"/>
          <path id="Trazado_226870" data-name="Trazado 226870" d="M317.906,345.772a4.129,4.129,0,0,0-2.806.209,2.246,2.246,0,0,1,2.806-.209" transform="translate(-164.743 -180.573)" fill="#263238"/>
          <path id="Trazado_226871" data-name="Trazado 226871" d="M320.187,349.207c-.018.071-.591-.045-1.287.043s-1.227.326-1.262.262a2.478,2.478,0,0,1,2.549-.3" transform="translate(-166.071 -182.46)" fill="#263238"/>
        </g>
      </g>
      <g id="Grupo_177600" data-name="Grupo 177600">
        <g id="Grupo_177599" data-name="Grupo 177599" clip-path="url(#clip-path)">
          <path id="Trazado_226872" data-name="Trazado 226872" d="M91.544,111.191,80.183,100.729V60.373H.261V137.19H80.183v-26Z" transform="translate(-0.136 -31.565)" fill="#fff"/>
          <rect id="Rectángulo_57229" data-name="Rectángulo 57229" width="79.922" height="5.753" transform="translate(0.125 28.808)" fill="#f5f5f5"/>
          <path id="Trazado_226873" data-name="Trazado 226873" d="M.307,195.774v12.208h79.9V195.774Z" transform="translate(-0.161 -102.357)" fill="#ebebeb"/>
          <path id="Trazado_226874" data-name="Trazado 226874" d="M21.595,65.659a1.075,1.075,0,1,1-1.076-1.075,1.075,1.075,0,0,1,1.076,1.075" transform="translate(-10.166 -33.767)" fill="#fff"/>
          <path id="Trazado_226875" data-name="Trazado 226875" d="M7.938,65.659a1.075,1.075,0,1,1-1.076-1.075,1.075,1.075,0,0,1,1.076,1.075" transform="translate(-3.026 -33.767)" fill="#fff"/>
          <path id="Trazado_226876" data-name="Trazado 226876" d="M14.766,65.659a1.075,1.075,0,1,1-1.076-1.075,1.075,1.075,0,0,1,1.076,1.075" transform="translate(-6.596 -33.767)" fill="#fff"/>
          <path id="Trazado_226877" data-name="Trazado 226877" d="M145.927,89.462h0a5.066,5.066,0,1,1,5.066-5.066,5.066,5.066,0,0,1-5.066,5.066" transform="translate(-73.647 -41.476)" fill="#ebebeb"/>
          <path id="Trazado_226878" data-name="Trazado 226878" d="M149.277,88.294a.808.808,0,1,0-.491-.005,1.408,1.408,0,0,0-1.181,1.389h2.819a1.409,1.409,0,0,0-1.147-1.384" transform="translate(-77.173 -45.337)" fill="#263238"/>
          <path id="Trazado_226879" data-name="Trazado 226879" d="M154.292,88.853a.116.116,0,0,1-.116-.116v-1.3a.116.116,0,1,1,.233,0v1.3a.116.116,0,0,1-.116.116" transform="translate(-80.608 -45.655)" fill="#263238"/>
          <path id="Trazado_226880" data-name="Trazado 226880" d="M154.23,88.915h-1.3a.116.116,0,1,1,0-.232h1.3a.116.116,0,1,1,0,.232" transform="translate(-79.898 -46.366)" fill="#263238"/>
          <path id="Trazado_226881" data-name="Trazado 226881" d="M113.481,203.734a3.795,3.795,0,1,1-3.795-3.795,3.8,3.8,0,0,1,3.795,3.795" transform="translate(-55.363 -104.535)" fill="#12263f"/>
          <path id="Trazado_226882" data-name="Trazado 226882" d="M112.272,207.979H111.6a.613.613,0,0,1-.613-.613V206.7a.613.613,0,0,1,.613-.613h.668a.613.613,0,0,1,.613.613v.668a.613.613,0,0,1-.613.613" transform="translate(-58.03 -107.749)" fill="#fff"/>
          <path id="Trazado_226883" data-name="Trazado 226883" d="M115.32,207.474v-.641l.479-.513a.1.1,0,0,1,.178.07v1.458a.1.1,0,0,1-.173.076Z" transform="translate(-60.293 -107.853)" fill="#fff"/>
          <path id="Trazado_226884" data-name="Trazado 226884" d="M83.153,206.55a3.741,3.741,0,1,1,5.291,0,3.741,3.741,0,0,1-5.291,0" transform="translate(-42.902 -104.652)" fill="#eeac3a"/>
          <path id="Trazado_226885" data-name="Trazado 226885" d="M86.154,207.883l.667-.157a.183.183,0,0,0,.141-.177v-.137s-.029-.234.192-.248c.158-.01,1.161,0,1.161,0s.264-.005.26.2v.2a.156.156,0,0,0,.111.149l.724.219a.157.157,0,0,0,.189-.09l.092-.223a.292.292,0,0,0,.023-.129.627.627,0,0,0-.124-.335,2.733,2.733,0,0,0-2.11-.556c-1.229.06-1.5.577-1.567.7a.527.527,0,0,0-.023.345l.054.128a.182.182,0,0,0,.21.107" transform="translate(-44.896 -108.015)" fill="#fff"/>
          <path id="Trazado_226886" data-name="Trazado 226886" d="M65.593,203.839a3.762,3.762,0,1,1-3.762-3.762,3.762,3.762,0,0,1,3.762,3.762" transform="translate(-30.361 -104.607)" fill="#43a99b"/>
          <path id="Trazado_226887" data-name="Trazado 226887" d="M63.044,207.926a.371.371,0,1,1,.371-.371.371.371,0,0,1-.371.371" transform="translate(-32.768 -108.323)" fill="#fff"/>
          <path id="Trazado_226888" data-name="Trazado 226888" d="M65.462,207.926a.371.371,0,1,1,.371-.371.371.371,0,0,1-.371.371" transform="translate(-34.032 -108.323)" fill="#fff"/>
          <path id="Trazado_226889" data-name="Trazado 226889" d="M68.05,207.926a.371.371,0,1,1,.371-.371.371.371,0,0,1-.371.371" transform="translate(-35.385 -108.323)" fill="#fff"/>
          <path id="Trazado_226890" data-name="Trazado 226890" d="M12.909,86.638A2.434,2.434,0,1,1,10.474,84.2a2.434,2.434,0,0,1,2.435,2.435" transform="translate(-4.204 -44.024)" fill="#455a64"/>
          <path id="Trazado_226891" data-name="Trazado 226891" d="M35.884,88.342c0,.069-3.036.124-6.781.124s-6.781-.055-6.781-.124,3.036-.124,6.781-.124,6.781.055,6.781.124" transform="translate(-11.671 -46.123)" fill="#455a64"/>
          <path id="Trazado_226892" data-name="Trazado 226892" d="M91.407,111.056l-11.361.045.045-.045c.008,6.232.019,15.078.033,26v.079h-.079l-79.922.041H.075l-.035-.035L.006,137.1v-.049C0,122.207,0,106.11,0,89.436c0-9.971,0-19.735,0-29.2v-.122H.125l79.922.029h.093v.093c-.017,17.032-.031,30.842-.041,40.356l-.017-.038,11.326,10.5-11.4-10.423-.017-.015V100.6c-.01-9.514-.024-23.323-.041-40.356l.093.093L.125,60.361l.122-.122c0,9.462,0,19.226,0,29.2,0,16.674,0,32.771-.005,47.62l-.035-.084-.084-.035,79.922.041-.078.078c.014-10.922.025-19.768.033-26v-.045h.045l11.361.045" transform="translate(0 -31.431)" fill="#263238"/>
          <path id="Trazado_226893" data-name="Trazado 226893" d="M71.115,98l1.524,20.061c.259,3.411,1.337,8.369,6.712,7.714,4.62-.92,5.467-5.447,5.223-8.63-.116-1.51-.21-2.769-.212-2.925,0,0,5.07-.868,5.055-5.951-.008-2.456-.435-7.514-.874-12.085a9.466,9.466,0,0,0-9.571-8.554l-.49.007c-5.282.39-7.9,5.094-7.366,10.364" transform="translate(-37.145 -45.814)" fill="#ffd5bd"/>
          <path id="Trazado_226894" data-name="Trazado 226894" d="M91.676,141.247a11.816,11.816,0,0,1-6.654-1.781s1.622,3.633,6.686,3.1Z" transform="translate(-44.452 -72.917)" fill="#ffb294"/>
          <path id="Trazado_226895" data-name="Trazado 226895" d="M102.549,110.573c-.085.106-.8-.044-1.71.213s-1.49.763-1.608.713c-.057-.021.015-.189.268-.419a3.232,3.232,0,0,1,1.263-.666,2.953,2.953,0,0,1,1.385-.074c.315.071.444.184.4.233" transform="translate(-51.872 -57.663)" fill="#263238"/>
          <path id="Trazado_226896" data-name="Trazado 226896" d="M86.12,111.827c-.123.056-.7-.391-1.62-.561s-1.666.018-1.749-.078c-.041-.043.1-.16.424-.251a3.262,3.262,0,0,1,1.421-.031,2.977,2.977,0,0,1,1.269.541c.25.2.315.355.256.38" transform="translate(-43.261 -57.953)" fill="#263238"/>
          <path id="Trazado_226897" data-name="Trazado 226897" d="M89.07,115.182a.56.56,0,0,1-.532.574.536.536,0,0,1-.585-.5.56.56,0,0,1,.531-.574.536.536,0,0,1,.586.5" transform="translate(-45.985 -59.961)" fill="#263238"/>
          <path id="Trazado_226898" data-name="Trazado 226898" d="M104.576,114.057a.56.56,0,0,1-.532.574.536.536,0,0,1-.585-.5.56.56,0,0,1,.531-.574.536.536,0,0,1,.586.5" transform="translate(-54.092 -59.372)" fill="#263238"/>
          <path id="Trazado_226899" data-name="Trazado 226899" d="M95.04,116.29a5.167,5.167,0,0,1,1.265-.248c.2-.024.387-.066.418-.2a1.014,1.014,0,0,0-.142-.589l-.613-1.51a26.048,26.048,0,0,1-1.385-3.951,26.2,26.2,0,0,1,1.7,3.831q.308.8.588,1.519a1.155,1.155,0,0,1,.115.781.5.5,0,0,1-.324.3,1.36,1.36,0,0,1-.338.052,5.069,5.069,0,0,1-1.285.021" transform="translate(-49.447 -57.401)" fill="#263238"/>
          <path id="Trazado_226900" data-name="Trazado 226900" d="M85.242,104.331c-.065.195-.754.114-1.561.227-.809.1-1.456.351-1.567.179-.049-.083.062-.266.323-.458a2.571,2.571,0,0,1,1.157-.439,2.544,2.544,0,0,1,1.226.13c.3.119.45.269.422.361" transform="translate(-42.926 -54.279)" fill="#263238"/>
          <path id="Trazado_226901" data-name="Trazado 226901" d="M102.38,106.117c-.075.161-.75.05-1.551.1s-1.455.207-1.554.055c-.043-.073.076-.221.344-.367a2.8,2.8,0,0,1,1.165-.3,2.889,2.889,0,0,1,1.2.186c.287.119.428.255.4.332" transform="translate(-51.899 -55.209)" fill="#263238"/>
          <path id="Trazado_226902" data-name="Trazado 226902" d="M68.512,117.077c-.087-.036-3.508-.979-3.343,2.493s3.616,2.591,3.618,2.491-.275-4.984-.275-4.984" transform="translate(-34.069 -61.137)" fill="#ffd5bd"/>
          <path id="Trazado_226903" data-name="Trazado 226903" d="M68.636,122.051c-.016-.01-.059.045-.158.1a.6.6,0,0,1-.452.031,1.5,1.5,0,0,1-.756-1.31,2.013,2.013,0,0,1,.128-.874.7.7,0,0,1,.433-.486.308.308,0,0,1,.365.149c.052.095.032.165.052.17s.072-.062.037-.2a.387.387,0,0,0-.147-.211.458.458,0,0,0-.338-.073.851.851,0,0,0-.606.568,2.054,2.054,0,0,0-.164.978,1.573,1.573,0,0,0,.953,1.458.649.649,0,0,0,.549-.118c.1-.091.118-.169.106-.175" transform="translate(-35.041 -62.392)" fill="#ffb294"/>
          <path id="Trazado_226904" data-name="Trazado 226904" d="M92.067,126.32c.03-.091-.666-.234-1.2-.827a3.917,3.917,0,0,1-.559-.861c-.123-.242-.213-.393-.25-.378s-.01.183.069.452a2.56,2.56,0,0,0,.535.972,2.079,2.079,0,0,0,.943.6c.274.084.453.074.46.044" transform="translate(-47.079 -64.963)" fill="#263238"/>
          <path id="Trazado_226905" data-name="Trazado 226905" d="M89.642,87.647a.821.821,0,0,0-.426-.443,2.522,2.522,0,0,0-1.308-.095,7.317,7.317,0,0,1-3.9-.817,17.018,17.018,0,0,0-1.955-1.984A12.9,12.9,0,0,0,77.688,81.5a11.76,11.76,0,0,0-6.3.061,4.753,4.753,0,0,0-3.25,4,3.655,3.655,0,0,0-3.691-.019l-.031-.01a4.6,4.6,0,0,0-2.2,3.468,17,17,0,0,1-.926,4.151c-.128.269-.28.59-.125.844a.565.565,0,0,0,.612.2,1.661,1.661,0,0,0,.6-.336l-.352,1.109a3.165,3.165,0,0,0,1.443-.225,31.152,31.152,0,0,0,1.267,3.506,2.063,2.063,0,0,1,1.444.223c.5.379.784,1.151,1.535.783.382-.188.669-1.05.766-1.464a19.768,19.768,0,0,0,.115-8.409A6.356,6.356,0,0,1,70.424,87.8l-.055.059c1.367-.614,2.919-1.237,4.315-.694a9.337,9.337,0,0,1,2.64,2.235A7.953,7.953,0,0,0,83.2,91.506c.2,1.413.259,3.432.459,4.846l.994-2.381,0,.011c.083-.175.149-.35.212-.526l.022-.053V93.4a8.892,8.892,0,0,1,.328-.843l.015.01a.891.891,0,0,0,1.191-1.3,1.986,1.986,0,0,0-.467-.393,1.411,1.411,0,0,0,1.368.229,1.106,1.106,0,0,0,.683-1.159.94.94,0,0,0-.625-.7,3.177,3.177,0,0,0,1.764-.556c.337-.234.657-.6.5-1.035" transform="translate(-31.946 -42.4)" fill="#263238"/>
          <path id="Trazado_226906" data-name="Trazado 226906" d="M71.972,91.362a4.343,4.343,0,0,0-.465.508,3.634,3.634,0,0,0-.627,1.744,6.4,6.4,0,0,0-.015,1.294c.039.465.12.959.2,1.481a13.257,13.257,0,0,1,.184,1.651,5.861,5.861,0,0,1-.036.883,1.831,1.831,0,0,1-.281.878.765.765,0,0,1-.691.3,1.141,1.141,0,0,1-.673-.305,2.626,2.626,0,0,1-.6-1.24l.107,0a4.246,4.246,0,0,1-.521,1.112,1.508,1.508,0,0,1-.934.621.974.974,0,0,1-.528-.045.846.846,0,0,1-.385-.317.871.871,0,0,1-.146-.438.628.628,0,0,1,.127-.407l.058.043a3.271,3.271,0,0,1-1.012.909,2.95,2.95,0,0,1-.324.16.524.524,0,0,1-.118.04.657.657,0,0,1,.11-.058c.072-.038.18-.093.313-.176a3.359,3.359,0,0,0,.973-.918l.058.043a.65.65,0,0,0,.033.753.756.756,0,0,0,.347.28.887.887,0,0,0,.478.035,1.414,1.414,0,0,0,.866-.589,4.178,4.178,0,0,0,.5-1.087l.058-.168.049.172a2.541,2.541,0,0,0,.572,1.185,1.02,1.02,0,0,0,.6.273.644.644,0,0,0,.587-.256,1.733,1.733,0,0,0,.259-.821,5.807,5.807,0,0,0,.037-.865,13.536,13.536,0,0,0-.176-1.638c-.079-.522-.157-1.018-.192-1.49A6.356,6.356,0,0,1,70.8,93.6a3.586,3.586,0,0,1,.673-1.761,2.061,2.061,0,0,1,.5-.48" transform="translate(-34.138 -47.767)" fill="#455a64"/>
          <path id="Trazado_226907" data-name="Trazado 226907" d="M95.476,91.495s-.011.014-.037.038l-.118.1a1.617,1.617,0,0,1-.2.156,2.7,2.7,0,0,1-.293.188,4.49,4.49,0,0,1-2.126.58,5.741,5.741,0,0,1-3.145-.855,9.94,9.94,0,0,1-2.883-2.784c-.421-.578-.776-1.179-1.157-1.728a6.718,6.718,0,0,0-1.264-1.436A3.456,3.456,0,0,0,82.721,85a2.481,2.481,0,0,0-.774-.021,2.721,2.721,0,0,0-.69.2,2.928,2.928,0,0,0-1.5,1.515,3.517,3.517,0,0,0-.194.78.2.2,0,0,1,0-.053c0-.042.006-.094.01-.157a2.566,2.566,0,0,1,.141-.587,2.893,2.893,0,0,1,.5-.815,2.971,2.971,0,0,1,1.012-.76,2.818,2.818,0,0,1,.711-.211,2.555,2.555,0,0,1,.8.015,3.542,3.542,0,0,1,1.583.765,6.768,6.768,0,0,1,1.29,1.455c.385.553.74,1.151,1.157,1.724a9.948,9.948,0,0,0,2.843,2.76,5.7,5.7,0,0,0,3.087.865,4.557,4.557,0,0,0,2.1-.536,7.145,7.145,0,0,0,.672-.446" transform="translate(-41.597 -44.371)" fill="#455a64"/>
          <path id="Trazado_226908" data-name="Trazado 226908" d="M107.623,94.024a.8.8,0,0,1-.17.142,3.917,3.917,0,0,1-.512.319,5.18,5.18,0,0,1-.824.354,5.509,5.509,0,0,1-2.171.262,5.232,5.232,0,0,1-.884-.147,3.967,3.967,0,0,1-.573-.188.833.833,0,0,1-.2-.1c.008-.021.3.1.791.2a6.022,6.022,0,0,0,.873.12,5.9,5.9,0,0,0,2.13-.257,5.98,5.98,0,0,0,.819-.324c.452-.22.707-.405.72-.387" transform="translate(-53.481 -49.158)" fill="#455a64"/>
          <path id="Trazado_226909" data-name="Trazado 226909" d="M52.932,146.956l-6.123,2.557a21.106,21.106,0,0,0-9.4,7.6c-.546.809-2.284,7.048-2.411,7.561-.506,2.051-1.336,5.576-1.336,5.576H82.305s-1.438-13.9-4.9-16.584c-2.249-1.743-12.547-6.5-12.547-6.5a4.541,4.541,0,0,1-4.169,2.622,11.187,11.187,0,0,1-7.753-2.835" transform="translate(-17.6 -76.833)" fill="#455a64"/>
        </g>
      </g>
    </g>
    <path id="Trazado_226910" data-name="Trazado 226910" d="M603.564,44.922l-7.4-28.032a2.869,2.869,0,0,0-1.419-1.827L582.622,8.507a2.87,2.87,0,0,0-3.759.942l-7.6,11.5a2.87,2.87,0,0,0-.389,2.28l7.4,28.032a2.87,2.87,0,0,0,3.481,2.086L601.478,48.4a2.87,2.87,0,0,0,2.086-3.482M583.138,18.206a2.695,2.695,0,1,1,2.173-3.13,2.694,2.694,0,0,1-2.173,3.13" transform="translate(-490.75 -8.161)" fill="#e0e0e0"/>
    <path id="Trazado_226911" data-name="Trazado 226911" d="M603.564,44.922l-7.4-28.032a2.869,2.869,0,0,0-1.419-1.827L582.622,8.507a2.87,2.87,0,0,0-3.759.942l-7.6,11.5a2.87,2.87,0,0,0-.389,2.28l7.4,28.032a2.87,2.87,0,0,0,3.481,2.086L601.478,48.4a2.87,2.87,0,0,0,2.086-3.482M583.138,18.206a2.695,2.695,0,1,1,2.173-3.13,2.694,2.694,0,0,1-2.173,3.13" transform="translate(-303.589 106.929)" fill="#e0e0e0"/>
    <path id="Trazado_226912" data-name="Trazado 226912" d="M603.564,44.922l-7.4-28.032a2.869,2.869,0,0,0-1.419-1.827L582.622,8.507a2.87,2.87,0,0,0-3.759.942l-7.6,11.5a2.87,2.87,0,0,0-.389,2.28l7.4,28.032a2.87,2.87,0,0,0,3.481,2.086L601.478,48.4a2.87,2.87,0,0,0,2.086-3.482M583.138,18.206a2.695,2.695,0,1,1,2.173-3.13,2.694,2.694,0,0,1-2.173,3.13" transform="translate(-576.816 106.929)" fill="#e0e0e0"/>
    <path id="Trazado_226913" data-name="Trazado 226913" d="M583.314,51.8c-.724-2.735.556-4.839,2.884-5.455,2.35-.622,4.5.573,5.228,3.307.73,2.757-.556,4.839-2.906,5.461-2.328.616-4.476-.556-5.206-3.313m5.378-1.424c-.425-1.605-1.157-2.088-1.926-1.884-.723.192-1.166.985-.741,2.59s1.2,2.076,1.926,1.884c.768-.2,1.165-.985.741-2.59m6.915-6.306,3.254-.861-6.613,18.679-3.254.862Zm.845,12.23c-.724-2.734.534-4.833,2.884-5.455s4.505.572,5.229,3.306c.731,2.757-.556,4.839-2.906,5.461s-4.476-.556-5.206-3.313m5.378-1.424c-.425-1.6-1.18-2.081-1.926-1.884s-1.166.986-.741,2.59,1.18,2.081,1.926,1.884,1.166-.986.741-2.591" transform="translate(-497.421 -27.137)" fill="#fff"/>
    <path id="Trazado_226914" data-name="Trazado 226914" d="M583.314,51.8c-.724-2.735.556-4.839,2.884-5.455,2.35-.622,4.5.573,5.228,3.307.73,2.757-.556,4.839-2.906,5.461-2.328.616-4.476-.556-5.206-3.313m5.378-1.424c-.425-1.605-1.157-2.088-1.926-1.884-.723.192-1.166.985-.741,2.59s1.2,2.076,1.926,1.884c.768-.2,1.165-.985.741-2.59m6.915-6.306,3.254-.861-6.613,18.679-3.254.862Zm.845,12.23c-.724-2.734.534-4.833,2.884-5.455s4.505.572,5.229,3.306c.731,2.757-.556,4.839-2.906,5.461s-4.476-.556-5.206-3.313m5.378-1.424c-.425-1.6-1.18-2.081-1.926-1.884s-1.166.986-.741,2.59,1.18,2.081,1.926,1.884,1.166-.986.741-2.591" transform="translate(-310.26 87.953)" fill="#fff"/>
    <path id="Trazado_226915" data-name="Trazado 226915" d="M583.314,51.8c-.724-2.735.556-4.839,2.884-5.455,2.35-.622,4.5.573,5.228,3.307.73,2.757-.556,4.839-2.906,5.461-2.328.616-4.476-.556-5.206-3.313m5.378-1.424c-.425-1.605-1.157-2.088-1.926-1.884-.723.192-1.166.985-.741,2.59s1.2,2.076,1.926,1.884c.768-.2,1.165-.985.741-2.59m6.915-6.306,3.254-.861-6.613,18.679-3.254.862Zm.845,12.23c-.724-2.734.534-4.833,2.884-5.455s4.505.572,5.229,3.306c.731,2.757-.556,4.839-2.906,5.461s-4.476-.556-5.206-3.313m5.378-1.424c-.425-1.6-1.18-2.081-1.926-1.884s-1.166.986-.741,2.59,1.18,2.081,1.926,1.884,1.166-.986.741-2.591" transform="translate(-583.487 87.953)" fill="#fff"/>
  </g>
</svg>
