<svg xmlns="http://www.w3.org/2000/svg" xmlns:xlink="http://www.w3.org/1999/xlink" width="205.962" height="176.9" viewBox="0 0 205.962 176.9">
  <defs>
    <clipPath id="clip-path">
      <rect id="Rectángulo_300080" data-name="Rectángulo 300080" width="125.282" height="125.284" fill="#12263f"/>
    </clipPath>
  </defs>
  <g id="Grupo_888869" data-name="Grupo 888869" transform="translate(44.926 44.403)">
    <rect id="Rectángulo_49533" data-name="Rectángulo 49533" width="144.8" height="111.233" transform="translate(16.236 21.265)" fill="#ffde96"/>
    <g id="Grupo_169217" data-name="Grupo 169217" transform="translate(-44.926 -44.403)">
      <rect id="Rectángulo_49754" data-name="Rectángulo 49754" width="166.13" height="153.889" transform="translate(0 0)" fill="none"/>
      <g id="Grupo_888897" data-name="Grupo 888897" transform="translate(25.749 14.303)">
        <g id="Grupo_888896" data-name="Grupo 888896" clip-path="url(#clip-path)">
          <path id="Trazado_605673" data-name="Trazado 605673" d="M170.987,159.942q0,22.446,0,44.892c0,2.394-.608,3-3,3l-69.164,0c-2.39,0-3-.611-3-3.007q0-44.957,0-89.913c0-2.575.556-3.13,3.133-3.13h69.034c2.392,0,3,.61,3,3q0,22.576,0,45.153m-70.961,43.621h66.717V116.047H100.1v12.49h62.448v4.2H100.026Z" transform="translate(-70.76 -82.554)" fill="#12263f"/>
          <path id="Trazado_605674" data-name="Trazado 605674" d="M4.271,85.634H20.815v4.077c-.356.025-.729.072-1.1.072q-8.481.007-16.961,0C.7,89.783,0,89.1,0,87.057Q0,44.851,0,2.646C0,.716.736,0,2.706,0Q30.234,0,57.762,0c2.126,0,2.79.67,2.791,2.818,0,7.347,0,14.693,0,22.139H56.4V4.247H4.281V16.671H52.128v4.141H4.271Z" transform="translate(0 -0.001)" fill="#12263f"/>
          <path id="Trazado_605675" data-name="Trazado 605675" d="M303.8,4.243H251.758V16.668h47.89v4.154H251.726V24.99h-4.206V23.763q0-10.44,0-20.879c0-2.231.644-2.881,2.859-2.881q27.4,0,54.809,0c2.225,0,2.883.654,2.883,2.86q0,41.955,0,83.91c0,2.406-.6,3.014-2.99,3.015q-8.287,0-16.573,0h-1.234V85.642H303.8Z" transform="translate(-182.791 0)" fill="#12263f"/>
          <rect id="Rectángulo_300076" data-name="Rectángulo 300076" width="3.99" height="56.25" transform="translate(112.836 25.086)" fill="#12263f"/>
          <path id="Trazado_605676" data-name="Trazado 605676" d="M44.394,111.8v4.13H36.2v12.545h8.193v4.081a3.353,3.353,0,0,1-.594.106c-3.175.007-6.35.022-9.524,0a2.089,2.089,0,0,1-2.338-2.343q-.029-8.089,0-16.178c0-1.388.708-2.3,1.945-2.318,3.471-.058,6.943-.02,10.515-.02" transform="translate(-23.573 -82.554)" fill="#12263f"/>
          <path id="Trazado_605677" data-name="Trazado 605677" d="M36.178,227.7v12.545h8.195v4.173c-3.557,0-7.109.062-10.656-.036a1.864,1.864,0,0,1-1.769-2.071q-.027-8.284,0-16.568a1.9,1.9,0,0,1,1.86-2.125c3.508-.089,7.02-.032,10.594-.032V227.7Z" transform="translate(-23.583 -165.102)" fill="#12263f"/>
          <path id="Trazado_605678" data-name="Trazado 605678" d="M31.974,33.949a2.081,2.081,0,0,1,4.156.2,2.081,2.081,0,1,1-4.156-.2" transform="translate(-23.611 -23.609)" fill="#12263f"/>
          <path id="Trazado_605679" data-name="Trazado 605679" d="M68.073,34.013a2.078,2.078,0,1,1-2.121-2.034,2.1,2.1,0,0,1,2.121,2.034" transform="translate(-47.203 -23.616)" fill="#12263f"/>
          <path id="Trazado_605680" data-name="Trazado 605680" d="M97.9,36.136a2.078,2.078,0,1,1,2.114-2.043A2.1,2.1,0,0,1,97.9,36.136" transform="translate(-70.789 -23.617)" fill="#12263f"/>
          <path id="Trazado_605681" data-name="Trazado 605681" d="M281.6,31.98a2.078,2.078,0,1,1-2.1,2.049,2.092,2.092,0,0,1,2.1-2.049" transform="translate(-206.407 -23.617)" fill="#12263f"/>
          <path id="Trazado_605682" data-name="Trazado 605682" d="M315.592,34.036a2.078,2.078,0,1,1-4.156.04,2.078,2.078,0,0,1,4.156-.04" transform="translate(-229.991 -23.617)" fill="#12263f"/>
          <path id="Trazado_605683" data-name="Trazado 605683" d="M347.528,34.046a2.077,2.077,0,1,1-2.089-2.065,2.1,2.1,0,0,1,2.089,2.065" transform="translate(-253.578 -23.617)" fill="#12263f"/>
          <path id="Trazado_605684" data-name="Trazado 605684" d="M111.909,215.593V144.768h62.519v-4.2H111.98v-12.49h66.646v87.516Zm29.2-41.664q11.157,0,22.315,0c2.044,0,2.738-.7,2.74-2.741q.009-7.7,0-15.4c0-2.047-.69-2.736-2.742-2.736q-22.315-.005-44.629,0c-2.049,0-2.735.689-2.738,2.739q-.008,7.634,0,15.268c0,2.222.646,2.869,2.87,2.87q11.092.005,22.184,0m.092,29.234q11.158,0,22.315,0c1.888,0,2.644-.732,2.648-2.574q.015-7.83,0-15.66c0-1.894-.729-2.643-2.574-2.644q-22.446-.008-44.892,0c-1.942,0-2.642.719-2.644,2.7q-.009,7.7,0,15.4c0,2.116.679,2.778,2.831,2.779q11.158,0,22.315,0m29.227,8.248h4.027V148.935h-4.027Zm-50.21-77.15a2.077,2.077,0,1,0-2.083,2.074,2.09,2.09,0,0,0,2.083-2.074m6.325-2.082a2.08,2.08,0,0,0-.1,4.158,2.08,2.08,0,1,0,.1-4.158m8.288,4.156a2.078,2.078,0,1,0-2.062-2.092,2.1,2.1,0,0,0,2.062,2.092" transform="translate(-82.643 -94.583)" fill="#dee4f0"/>
          <path id="Trazado_605685" data-name="Trazado 605685" d="M152.806,244.447q-11.092,0-22.184,0c-2.224,0-2.869-.649-2.871-2.87q0-7.634,0-15.268c0-2.049.689-2.738,2.737-2.739q22.315,0,44.63,0c2.051,0,2.739.69,2.741,2.736q.009,7.7,0,15.4c0,2.045-.7,2.74-2.74,2.741q-11.158.007-22.315,0m20.818-16.614H132.03V240.2h41.594Z" transform="translate(-94.341 -165.101)" fill="#12263f"/>
          <path id="Trazado_605686" data-name="Trazado 605686" d="M152.9,356.229q-11.158,0-22.315,0c-2.152,0-2.829-.663-2.831-2.779q-.008-7.7,0-15.4c0-1.979.7-2.7,2.644-2.7q22.446-.007,44.892,0c1.845,0,2.571.749,2.574,2.644q.013,7.83,0,15.66c0,1.842-.76,2.572-2.648,2.574q-11.158.008-22.316,0m-20.915-4.27h41.642V339.594H131.981Z" transform="translate(-94.339 -247.649)" fill="#12263f"/>
          <rect id="Rectángulo_300077" data-name="Rectángulo 300077" width="4.027" height="62.476" transform="translate(87.784 54.352)" fill="#12263f"/>
          <path id="Trazado_605687" data-name="Trazado 605687" d="M131.95,145.845a2.077,2.077,0,1,1-2.072-2.082,2.1,2.1,0,0,1,2.072,2.082" transform="translate(-94.376 -106.167)" fill="#12263f"/>
          <path id="Trazado_605688" data-name="Trazado 605688" d="M161.856,143.76a2.08,2.08,0,1,1-2.127,2.025,2.1,2.1,0,0,1,2.127-2.025" transform="translate(-117.958 -106.164)" fill="#12263f"/>
          <path id="Trazado_605689" data-name="Trazado 605689" d="M193.733,147.918a2.078,2.078,0,1,1,2.092-2.065,2.1,2.1,0,0,1-2.092,2.065" transform="translate(-141.547 -106.167)" fill="#12263f"/>
          <rect id="Rectángulo_300078" data-name="Rectángulo 300078" width="41.594" height="12.372" transform="translate(37.689 62.732)" fill="#b2ebf2"/>
          <rect id="Rectángulo_300079" data-name="Rectángulo 300079" width="41.642" height="12.364" transform="translate(37.642 91.945)" fill="#f3f9ff"/>
        </g>
      </g>
    </g>
  </g>
</svg>
