<svg xmlns="http://www.w3.org/2000/svg" xmlns:xlink="http://www.w3.org/1999/xlink" width="205.962" height="176.9" viewBox="0 0 205.962 176.9">
  <defs>
    <clipPath id="clip-path">
      <rect id="Rectángulo_300073" data-name="Rectángulo 300073" width="112.521" height="112.558" fill="#12263f"/>
    </clipPath>
  </defs>
  <g id="Grupo_888859" data-name="Grupo 888859" transform="translate(44.926 44.403)">
    <rect id="Rectángulo_49533" data-name="Rectángulo 49533" width="144.8" height="111.233" transform="translate(16.236 21.265)" fill="#ffde96"/>
    <g id="Grupo_169217" data-name="Grupo 169217" transform="translate(-44.926 -44.403)">
      <rect id="Rectángulo_49754" data-name="Rectángulo 49754" width="166.13" height="153.889" transform="translate(0 0)" fill="none"/>
      <g id="Grupo_888893" data-name="Grupo 888893" transform="translate(-7.655 131.914)">
        <g id="Grupo_888892" data-name="Grupo 888892" transform="translate(45.079 -109.928)" clip-path="url(#clip-path)">
          <path id="Trazado_605636" data-name="Trazado 605636" d="M49.326,375.454c-.733-.231-1.485-.417-2.2-.7-4.4-1.751-7.07-5-7.323-9.7-.28-5.217-.064-10.46-.064-15.779h3.725v1.239c0,4.61-.035,9.22.016,13.83a7.465,7.465,0,0,0,14.589,2.12,11.894,11.894,0,0,0,.378-3.116c.054-2.454.477-2.905,2.971-2.905h60.8V343.617h3.725v16.83c2.728,0,5.336.106,7.932-.026,3.6-.183,3.583,1.444,3.194,3.808a13.051,13.051,0,0,1-10.791,11.021,2.963,2.963,0,0,0-.531.2ZM59.4,371.688h64.09c.391,0,.782,0,1.172-.019,4.219-.245,8.1-3.627,8.478-7.38H62.259a11.917,11.917,0,0,1-2.862,7.4" transform="translate(-30.345 -262.896)" fill="#12263f"/>
          <path id="Trazado_605637" data-name="Trazado 605637" d="M320.13,26.743c-.27,1.292-.461,2.607-.822,3.873a24.019,24.019,0,0,1-14.954,16.544,1.493,1.493,0,0,0-1.126,1.681c.042,6.875.062,13.751,0,20.625a7.5,7.5,0,0,1-12.209,5.771,7.234,7.234,0,0,1-2.787-5.934c0-6.8-.019-13.594.02-20.391a1.549,1.549,0,0,0-1.18-1.76,24.371,24.371,0,1,1,32.844-25.88,5.8,5.8,0,0,0,.214.782Zm-44.99-2.411a20.608,20.608,0,1,0,20.73-20.547,20.668,20.668,0,0,0-20.73,20.547m18.789,32.054a5.04,5.04,0,0,0-.107.68c-.006,4.255-.044,8.511.028,12.764a7.228,7.228,0,0,0,.736,2.43,1.365,1.365,0,0,0,1.732.806,3.666,3.666,0,0,0,3.1-3.479c.055-4.331,0-8.664-.014-13,0-.061-.085-.121-.147-.205Zm5.46-7.723-5.451.246v3.483h5.451Z" transform="translate(-207.609 -0.007)" fill="#12263f"/>
          <path id="Trazado_605638" data-name="Trazado 605638" d="M87.1,195.279l3.133,2.044c-.584.9-1.131,1.735-1.675,2.575-3.162,4.882-6.312,9.771-9.5,14.637a1.334,1.334,0,0,0-.071,1.65,5.389,5.389,0,0,1-.677,6.317,5.578,5.578,0,0,1-6.178,1.589,5.459,5.459,0,0,1-3.644-5.219,1.851,1.851,0,0,0-1.106-1.9q-8.505-5.052-16.969-10.174a1.343,1.343,0,0,0-1.67-.039,5.389,5.389,0,0,1-4.506.563,1.556,1.556,0,0,0-1.274.3c-5.275,5.22-10.5,10.489-15.781,15.706-.567.56-.365,1-.212,1.559a5.606,5.606,0,1,1-10.643-.59,5.618,5.618,0,0,1,5.507-3.591,1.111,1.111,0,0,1,.463.044c1.469.84,2.3-.086,3.239-1.038q7.249-7.334,14.582-14.585a1.476,1.476,0,0,0,.446-1.713,5.588,5.588,0,0,1,7.718-6.575,5.307,5.307,0,0,1,3.257,5.126,1.718,1.718,0,0,0,.965,1.744q8.564,5.066,17.066,10.236a1.624,1.624,0,0,0,1.779.038,8.711,8.711,0,0,1,3.127-.725,1.546,1.546,0,0,0,1.482-.779q5.336-8.333,10.726-16.631c.1-.161.226-.311.412-.565M47.71,201.99a1.759,1.759,0,0,0-3.514-.17,1.908,1.908,0,0,0,1.727,1.876,1.93,1.93,0,0,0,1.787-1.706m28.132,16.862a1.761,1.761,0,1,0-1.766,1.727,1.935,1.935,0,0,0,1.766-1.727m-54.3,9.231a1.764,1.764,0,0,0,.1-3.525,1.763,1.763,0,1,0-.1,3.525" transform="translate(-12.2 -149.405)" fill="#12263f"/>
          <path id="Trazado_605639" data-name="Trazado 605639" d="M71.245,0V3.725H10.3a12.053,12.053,0,0,1,2.7,5.973,14.843,14.843,0,0,1,.122,1.749q.01,26.663.005,53.327v.794H9.369V64.239q0-26.019,0-52.038c0-5.129-2.456-7.878-7.547-8.452A1.884,1.884,0,0,1,0,1.833,1.885,1.885,0,0,1,1.913.01C2.185-.008,2.459,0,2.733,0H71.245Z" transform="translate(0 0)" fill="#12263f"/>
          <rect id="Rectángulo_300065" data-name="Rectángulo 300065" width="63.622" height="3.613" transform="translate(20.673 82.603)" fill="#12263f"/>
          <rect id="Rectángulo_300066" data-name="Rectángulo 300066" width="37.362" height="3.613" transform="translate(20.706 15.058)" fill="#12263f"/>
          <rect id="Rectángulo_300067" data-name="Rectángulo 300067" width="37.373" height="3.612" transform="translate(20.715 24.47)" fill="#12263f"/>
          <rect id="Rectángulo_300068" data-name="Rectángulo 300068" width="37.368" height="3.637" transform="translate(20.702 33.838)" fill="#12263f"/>
          <rect id="Rectángulo_300069" data-name="Rectángulo 300069" width="7.359" height="3.611" transform="translate(26.34 90.128)" fill="#12263f"/>
          <rect id="Rectángulo_300070" data-name="Rectángulo 300070" width="7.361" height="3.634" transform="translate(48.835 90.116)" fill="#12263f"/>
          <rect id="Rectángulo_300071" data-name="Rectángulo 300071" width="7.401" height="3.57" transform="translate(71.337 90.143)" fill="#12263f"/>
          <path id="Trazado_605640" data-name="Trazado 605640" d="M123.671,439.01a11.917,11.917,0,0,0,2.862-7.4h70.878c-.383,3.753-4.259,7.135-8.478,7.38-.389.023-.781.019-1.172.019h-64.09" transform="translate(-94.619 -330.218)" fill="#e8e8e8"/>
          <path id="Trazado_605641" data-name="Trazado 605641" d="M287.468,36.628a20.608,20.608,0,1,1,20.484,20.678,20.657,20.657,0,0,1-20.484-20.678m20.641-14.977a15.132,15.132,0,0,1,14.913,13.9,14.414,14.414,0,0,1-2.686,9.726,15.089,15.089,0,0,1-12.192,6.47v3.782c7.421-.386,13.107-3.583,16.5-10.108,3.646-7.01,2.984-13.93-1.792-20.236-3.646-4.813-8.664-7.129-14.744-7.274Zm2,18.764c-.9-2.445.659-3.413,2.307-4.356a5.838,5.838,0,0,0,1.176-.956,6.7,6.7,0,0,0-1.6-10.728,8.556,8.556,0,0,0-7.791-.028,6.065,6.065,0,0,0-3.469,5.969H304.2c.847-2.535,1.571-3.036,4.289-2.99a3.026,3.026,0,0,1,1.691,5.688c-.965.662-1.987,1.249-2.9,1.975a2.6,2.6,0,0,0-1.02,1.457,35.776,35.776,0,0,0-.048,3.968Zm-.241,3.83h-3.615V47.9h3.615Z" transform="translate(-219.937 -12.303)" fill="#b2ebf2"/>
          <path id="Trazado_605642" data-name="Trazado 605642" d="M367.05,239.994h5.326c.063.084.147.144.147.205.016,4.332.069,8.665.014,13a3.666,3.666,0,0,1-3.1,3.479,1.364,1.364,0,0,1-1.732-.806,7.236,7.236,0,0,1-.736-2.43c-.072-4.254-.034-8.509-.028-12.764a5,5,0,0,1,.108-.68" transform="translate(-280.73 -183.615)" fill="#1565c0"/>
          <path id="Trazado_605643" data-name="Trazado 605643" d="M372.94,207.116v3.729h-5.451v-3.483l5.451-.246" transform="translate(-281.16 -158.461)" fill="#e8e8e8"/>
          <path id="Trazado_605644" data-name="Trazado 605644" d="M139.7,217.912a1.931,1.931,0,0,1-1.787,1.706,1.908,1.908,0,0,1-1.727-1.876,1.759,1.759,0,0,1,3.514.17" transform="translate(-104.187 -165.327)" fill="#fb8c00"/>
          <path id="Trazado_605645" data-name="Trazado 605645" d="M259.442,289.763a1.761,1.761,0,1,1-1.7-1.8,1.935,1.935,0,0,1,1.7,1.8" transform="translate(-195.8 -220.316)" fill="#26aab7"/>
          <path id="Trazado_605646" data-name="Trazado 605646" d="M34.12,323.429a1.763,1.763,0,1,1,.1-3.525,1.764,1.764,0,0,1-.1,3.525" transform="translate(-24.776 -244.752)" fill="#1565c0"/>
          <path id="Trazado_605647" data-name="Trazado 605647" d="M375.332,27.6V23.854c6.08.144,11.1,2.46,14.744,7.274,4.777,6.306,5.439,13.226,1.792,20.236-3.394,6.525-9.08,9.721-16.5,10.107V57.69a15.089,15.089,0,0,0,12.192-6.47,14.414,14.414,0,0,0,2.686-9.726,15.132,15.132,0,0,0-14.913-13.9" transform="translate(-287.16 -18.25)" fill="#12263f"/>
          <path id="Trazado_605648" data-name="Trazado 605648" d="M353.116,64.325h-3.891a35.776,35.776,0,0,1,.048-3.968,2.6,2.6,0,0,1,1.019-1.457c.912-.726,1.935-1.313,2.9-1.975a3.026,3.026,0,0,0-1.691-5.688c-2.717-.046-3.442.455-4.289,2.99h-3.468a6.064,6.064,0,0,1,3.469-5.969,8.556,8.556,0,0,1,7.791.028,6.7,6.7,0,0,1,1.6,10.728,5.846,5.846,0,0,1-1.176.957c-1.648.943-3.207,1.911-2.307,4.356" transform="translate(-262.948 -36.213)" fill="#12263f"/>
          <rect id="Rectángulo_300072" data-name="Rectángulo 300072" width="3.615" height="3.657" transform="translate(86.312 31.942)" fill="#12263f"/>
        </g>
      </g>
    </g>
  </g>
</svg>
