<svg xmlns="http://www.w3.org/2000/svg" xmlns:xlink="http://www.w3.org/1999/xlink" width="205.962" height="176.9" viewBox="0 0 205.962 176.9">
  <defs>
    <clipPath id="clip-path">
      <rect id="Rectángulo_300075" data-name="Rectángulo 300075" width="133.088" height="133.198" fill="#12263f"/>
    </clipPath>
  </defs>
  <g id="Grupo_888864" data-name="Grupo 888864" transform="translate(44.926 44.403)">
    <rect id="Rectángulo_49533" data-name="Rectángulo 49533" width="144.8" height="111.233" transform="translate(16.236 21.265)" fill="#ffde96"/>
    <g id="Grupo_169217" data-name="Grupo 169217" transform="translate(-44.926 -44.403)">
      <rect id="Rectángulo_49754" data-name="Rectángulo 49754" width="166.13" height="153.889" transform="translate(0 0)" fill="none"/>
      <g id="Grupo_888895" data-name="Grupo 888895" transform="translate(27.534 10.346)">
        <g id="Grupo_888894" data-name="Grupo 888894" clip-path="url(#clip-path)">
          <path id="Trazado_605649" data-name="Trazado 605649" d="M296.768,47.34c-1.26,1.8-2.1,1.983-4.007.847-2.788-1.665-5.594-3.3-8.346-5.027a5.514,5.514,0,0,0-3.409-.953c-1.372.085-2.753.019-4.187.019a11.66,11.66,0,0,1-2.438,6.858,10.828,10.828,0,0,1-8.686,4.227q-11.116.085-22.234,0c-4.38-.027-9.177-2.664-10.82-8.846-2.12,0-4.279.017-6.437-.006a2.291,2.291,0,0,1-2.533-1.76,2.154,2.154,0,0,1,2.261-2.648c2.115-.051,4.233-.013,6.44-.013V26.811h-6.249c.183,1.537.367,3.023.533,4.51a16.115,16.115,0,0,1,.161,2.069,2.136,2.136,0,0,1-4.18.573c-.314-1.342-.425-2.732-.612-4.1-.217-1.588-.444-3.175-.625-4.766a2.259,2.259,0,0,1,2.442-2.776c2.6-.041,5.2.008,7.8-.038.389-.007,1.039-.24,1.118-.5a12.211,12.211,0,0,1,3.728-5.785c-2.343-4.093-2.314-6.95.055-9.415a6.662,6.662,0,0,1,7.773-1.312c2.857,1.446,4.035,4.205,3.369,8.043h5.741c-1.668-5.864-.765-9.339,3.051-11.858A8.78,8.78,0,0,1,266.9,2.01c3.4,2.725,4.024,6.458,1.919,11.841,4.927,1.75,7.619,5.269,8.033,10.612,1.985,0,3.924.025,5.862-.023a2.483,2.483,0,0,0,1.038-.488q4.462-2.662,8.917-5.339c1.92-1.148,2.644-1.033,4.105.628ZM254.606,48.9c3.554,0,7.107.017,10.661,0,4.313-.026,7.059-2.762,7.078-7.084q.038-8.452,0-16.9c-.021-4.274-2.7-7-6.972-7.032q-10.725-.07-21.451,0c-4.347.026-7,2.751-7.014,7.121q-.031,8.387,0,16.774c.018,4.4,2.756,7.108,7.166,7.127,3.51.015,7.02,0,10.531,0m37.67-24.881c-2.211,1.332-4.281,2.55-6.307,3.839-.231.147-.292.689-.294,1.05-.022,2.99-.028,5.981.006,8.971a1.5,1.5,0,0,0,.425,1.1c1.992,1.265,4.033,2.453,6.232,3.77,0-6.081,0-11.92,0-17.759,0-.245-.029-.49-.059-.974m-35.4-15.066a4.4,4.4,0,0,0,4.324,4.429,4.414,4.414,0,1,0,.028-8.827,4.39,4.39,0,0,0-4.352,4.4m19.986,28.727h4.272v-8.7h-4.272Zm-35.6-24.325A2.142,2.142,0,0,0,243.48,11.3a2.113,2.113,0,0,0-2.108-2.275,2.165,2.165,0,0,0-2.244,2.167,2.193,2.193,0,0,0,2.136,2.16" transform="translate(-163.681 -0.001)" fill="#12263f"/>
          <path id="Trazado_605650" data-name="Trazado 605650" d="M128.889,372.774a14.223,14.223,0,0,1-5.59-2.543,10.705,10.705,0,0,1-4.013-7.99c-.111-2.943-.054-5.893-.056-8.839q-.007-13,0-26a11.283,11.283,0,0,1,.038-1.428,2.16,2.16,0,0,1,4.246-.3,7.055,7.055,0,0,1,.144,1.672c.008,11.138.107,22.277-.042,33.413-.062,4.645,3.13,7.661,7.678,7.628,15.728-.115,31.457-.041,47.186-.047,3.577,0,6.145-1.771,6.971-4.873a11.281,11.281,0,0,0,.293-2.828c.025-5.981.01-11.961.014-17.942,0-2.119.756-3.192,2.216-3.184s2.226,1.1,2.228,3.2c0,6.024-.049,12.049.015,18.072.069,6.487-4.082,11.048-9.606,11.855-.077.011-.144.089-.215.136Z" transform="translate(-88.146 -239.575)" fill="#12263f"/>
          <path id="Trazado_605651" data-name="Trazado 605651" d="M473.011,292.461a2.782,2.782,0,0,1-2.932,1.653c-2.547-.048-5.095,0-7.642-.021-1.708-.014-2.66-.794-2.7-2.136-.036-1.373.983-2.272,2.7-2.291,2.59-.03,5.181.014,7.771-.018a3.084,3.084,0,0,1,2.794,1.511Z" transform="translate(-339.923 -214.161)" fill="#12263f"/>
          <path id="Trazado_605652" data-name="Trazado 605652" d="M33.251,128.52c-.075-2.726.1-5.22,2.184-7.093a6.448,6.448,0,0,1,4.224-1.75,6.559,6.559,0,0,1,5.625,2.69c1.417,1.8,1.262,3.973,1.343,6.131a11.623,11.623,0,0,1,6.7,2.356,10.723,10.723,0,0,1,4.308,8.642c.072,5.981.108,11.965-.006,17.945A10.806,10.806,0,0,1,46.976,168.35c-4.5.19-9.012.069-13.518.073-7.151.007-14.3-.117-21.451.036C5.4,168.6.157,163.918.06,157.568c-.095-6.237-.085-12.48.075-18.715C.283,133.11,5.3,128.457,11.5,128.51c6.067.052,12.134.011,18.2.011h3.55m-4.5,35.461c5.762,0,11.525.016,17.287-.005,4.5-.017,7.185-2.723,7.195-7.214q.017-8.19,0-16.381c0-4.745-2.667-7.423-7.393-7.425q-16.962-.008-33.924,0c-4.75,0-7.444,2.64-7.467,7.363q-.039,8.125,0,16.25c.018,4.761,2.664,7.4,7.4,7.41,5.632.012,11.265,0,16.9,0m13.379-35.506c-.114-1.534.532-3.217-1.173-4.031a2.754,2.754,0,0,0-2.358.219c-1.3.943-.872,2.438-.831,3.812Z" transform="translate(0 -88.485)" fill="#12263f"/>
          <path id="Trazado_605653" data-name="Trazado 605653" d="M268.324,256.944h13.22V243.7h-6.625c-1.994,0-3.988.014-5.982,0-1.761-.016-2.808-.853-2.825-2.21s1.023-2.214,2.782-2.219c4.378-.013,8.757.023,13.134-.028a7.584,7.584,0,0,0,2.632-.514c6.6-2.6,13.184-5.255,19.774-7.888,2.485-.992,3.778-.14,3.779,2.5q.007,17.039,0,34.078c0,2.57-1.29,3.415-3.715,2.447-6.712-2.679-13.417-5.375-20.137-8.033a5.686,5.686,0,0,0-2.005-.382c-4.508-.033-9.016-.008-13.524-.02-3.158-.008-4.9-1.744-4.929-4.9-.014-1.257-.029-2.516.01-3.772a2.2,2.2,0,1,1,4.4-.1c.075,1.38.016,2.768.016,4.29m35.412-20.892a1.309,1.309,0,0,0-.352,0c-5.545,2.208-11.1,4.4-16.617,6.671A1.641,1.641,0,0,0,286.09,244c-.051,4.16,0,8.321-.052,12.48a1.5,1.5,0,0,0,1.123,1.686c5.158,2.012,10.288,4.093,15.43,6.146.347.139.709.241,1.146.387Z" transform="translate(-195.112 -170.379)" fill="#12263f"/>
          <path id="Trazado_605654" data-name="Trazado 605654" d="M223.176,379.367h-15.2c-.346,0-.694.013-1.039,0-1.638-.085-2.643-.98-2.6-2.3.047-1.291,1-2.128,2.6-2.131q16.236-.026,32.472,0c1.645,0,2.645.938,2.6,2.267s-1.044,2.151-2.732,2.158c-5.368.023-10.737.008-16.106.009" transform="translate(-151.087 -277.208)" fill="#12263f"/>
          <path id="Trazado_605655" data-name="Trazado 605655" d="M253.932,226.059q-6.174,0-12.349,0a9.226,9.226,0,0,1-1.168-.033,2.171,2.171,0,0,1-.236-4.3,4.486,4.486,0,0,1,1.029-.1q12.674-.008,25.348,0a4.781,4.781,0,0,1,1.032.084,2.1,2.1,0,0,1,1.775,2.343,2.07,2.07,0,0,1-2.043,1.977,13.306,13.306,0,0,1-1.428.027q-5.98,0-11.959,0" transform="translate(-176.271 -163.865)" fill="#12263f"/>
          <path id="Trazado_605656" data-name="Trazado 605656" d="M172.976,332.343c2.77,0,5.539-.011,8.309,0,1.673.009,2.673.831,2.7,2.166.031,1.37-1.015,2.254-2.747,2.257q-8.309.017-16.618,0c-1.754,0-2.773-.851-2.758-2.236s1.016-2.182,2.8-2.188c2.77-.011,5.539,0,8.309,0" transform="translate(-119.68 -245.725)" fill="#12263f"/>
          <path id="Trazado_605657" data-name="Trazado 605657" d="M172.875,421.789c-2.769,0-5.539.012-8.308,0-1.689-.01-2.657-.814-2.675-2.16s.969-2.248,2.612-2.255q8.438-.036,16.876,0c1.637.007,2.645.93,2.624,2.257s-1.014,2.148-2.691,2.158c-2.813.016-5.625,0-8.438,0" transform="translate(-119.699 -308.581)" fill="#12263f"/>
          <path id="Trazado_605658" data-name="Trazado 605658" d="M282.364,421.784c-2.422,0-4.845.014-7.267,0-1.653-.013-2.668-.867-2.668-2.188s1.02-2.219,2.663-2.227q7.332-.036,14.664,0c1.618.009,2.64.969,2.6,2.287-.042,1.292-1.009,2.112-2.593,2.125-2.465.022-4.931.006-7.4.006" transform="translate(-201.429 -308.577)" fill="#12263f"/>
          <path id="Trazado_605659" data-name="Trazado 605659" d="M170.846,455.814c-2.118,0-4.236.021-6.354-.007-1.66-.022-2.629-.88-2.607-2.229a2.263,2.263,0,0,1,2.546-2.189q6.288-.057,12.577,0a2.274,2.274,0,0,1,2.547,2.193c.019,1.342-.959,2.2-2.616,2.226-2.031.028-4.063.007-6.094.007" transform="translate(-119.695 -333.727)" fill="#12263f"/>
          <path id="Trazado_605660" data-name="Trazado 605660" d="M264.315,455.816c-2.075,0-4.15.019-6.224-.005-1.674-.02-2.661-.854-2.668-2.185s.993-2.226,2.646-2.238q6.224-.047,12.449,0c1.664.015,2.6.908,2.569,2.279-.028,1.33-.925,2.116-2.547,2.14-2.074.031-4.15.008-6.224.008" transform="translate(-188.855 -333.729)" fill="#12263f"/>
          <path id="Trazado_605661" data-name="Trazado 605661" d="M462.5,233.086a9.381,9.381,0,0,1-1.51,1.912c-2.04,1.461-4.145,2.834-6.255,4.194a2.24,2.24,0,0,1-3.212-.49,2.194,2.194,0,0,1,.738-3.159c2.1-1.455,4.193-2.928,6.393-4.217a3.1,3.1,0,0,1,2.406-.091c.581.232.9,1.117,1.44,1.851" transform="translate(-333.558 -170.825)" fill="#12263f"/>
          <path id="Trazado_605662" data-name="Trazado 605662" d="M462.159,347.1c.051,1.98-1.715,3.156-3.195,2.274-2.408-1.435-4.722-3.037-7.007-4.665a2.024,2.024,0,0,1-.427-2.9,1.97,1.97,0,0,1,2.747-.685c2.426,1.492,4.782,3.1,7.112,4.741.437.308.62.978.771,1.232" transform="translate(-333.539 -251.996)" fill="#12263f"/>
          <path id="Trazado_605663" data-name="Trazado 605663" d="M298.629,99.518c-3.51,0-7.021.012-10.531,0-4.41-.019-7.148-2.73-7.167-7.127q-.034-8.387,0-16.774c.016-4.371,2.667-7.1,7.014-7.121q10.725-.064,21.451,0c4.276.028,6.951,2.758,6.972,7.032q.041,8.452,0,16.9c-.019,4.322-2.765,7.059-7.078,7.084-3.554.021-7.107,0-10.661,0m.433-26.564v-.03c-2.252,0-4.5-.022-6.756.008-1.519.02-2.432.817-2.495,2.081a2.3,2.3,0,0,0,2.418,2.332c.345.026.692.009,1.039.009,3.855,0,7.709-.013,11.563.007,1.893.01,2.65.8,2.673,2.706.013,1.04.006,2.079,0,3.119-.009,2.29-.744,3.033-3.036,3.038-4.071.008-8.142-.012-12.213.013a2.207,2.207,0,1,0-.114,4.4c4.5.037,9.012.119,13.51-.045a6.45,6.45,0,0,0,6.27-6.526c.046-1.6.054-3.207-.013-4.807a6.463,6.463,0,0,0-6.224-6.284c-2.2-.089-4.416-.017-6.625-.017" transform="translate(-207.704 -50.618)" fill="#e8e8e8"/>
          <path id="Trazado_605664" data-name="Trazado 605664" d="M474.642,92.162c.03.484.059.729.059.974,0,5.839,0,11.678,0,17.759-2.2-1.317-4.24-2.505-6.232-3.77a1.494,1.494,0,0,1-.424-1.1c-.034-2.99-.029-5.98-.006-8.971,0-.36.063-.9.294-1.05,2.026-1.289,4.1-2.508,6.307-3.839" transform="translate(-346.047 -68.143)" fill="#fffae7"/>
          <path id="Trazado_605665" data-name="Trazado 605665" d="M357.6,21.876a4.39,4.39,0,0,1,4.352-4.4,4.414,4.414,0,1,1-4.352,4.4" transform="translate(-264.406 -12.923)" fill="#26aab7"/>
          <rect id="Rectángulo_300074" data-name="Rectángulo 300074" width="4.272" height="8.701" transform="translate(113.185 28.979)" fill="#e8e8e8"/>
          <path id="Trazado_605666" data-name="Trazado 605666" d="M291.626,38.97a2.193,2.193,0,0,1-2.136-2.16,2.165,2.165,0,0,1,2.244-2.167,2.113,2.113,0,0,1,2.108,2.275,2.142,2.142,0,0,1-2.217,2.052" transform="translate(-214.043 -25.614)" fill="#26aab7"/>
          <path id="Trazado_605667" data-name="Trazado 605667" d="M41.311,201.651c-5.632,0-11.265.009-16.9,0-4.741-.01-7.387-2.649-7.4-7.41q-.031-8.125,0-16.251c.023-4.722,2.716-7.361,7.467-7.363q16.962-.006,33.924,0c4.726,0,7.388,2.68,7.393,7.425q.009,8.19,0,16.38c-.01,4.491-2.7,7.2-7.195,7.214-5.762.022-11.525.005-17.287.006M30.358,186.186A11.041,11.041,0,0,0,38.64,196.86c6.692,1.9,13.915-3.6,13.846-10.537a2.3,2.3,0,0,0-2.11-2.378A2.259,2.259,0,0,0,48.1,186c-.087.556-.126,1.122-.25,1.669a6.611,6.611,0,0,1-13.049-1.3c-.1-3.755,2.376-6.383,6.477-6.876,1.518-.182,2.452-1.161,2.313-2.424a2.311,2.311,0,0,0-2.725-1.977,11.055,11.055,0,0,0-10.508,11.094m-6.809,11a2.152,2.152,0,0,0,2.282-2.121,2.165,2.165,0,0,0-4.323-.225,2.135,2.135,0,0,0,2.041,2.347" transform="translate(-12.563 -126.154)" fill="#d2e1f1"/>
          <path id="Trazado_605668" data-name="Trazado 605668" d="M148.978,141.524h-4.362c-.041-1.374-.474-2.869.831-3.812a2.754,2.754,0,0,1,2.358-.219c1.705.814,1.06,2.5,1.173,4.031" transform="translate(-106.852 -101.534)" fill="#fb8c00"/>
          <path id="Trazado_605669" data-name="Trazado 605669" d="M366.579,251.959V280.6c-.437-.146-.8-.248-1.146-.387-5.141-2.053-10.272-4.134-15.43-6.146a1.5,1.5,0,0,1-1.123-1.686c.051-4.16,0-8.321.052-12.48a1.641,1.641,0,0,1,.677-1.272c5.521-2.266,11.072-4.463,16.617-6.671a1.309,1.309,0,0,1,.352,0" transform="translate(-257.955 -186.286)" fill="#b2ebf2"/>
          <path id="Trazado_605670" data-name="Trazado 605670" d="M324.29,85.6c2.208,0,4.42-.073,6.625.017a6.463,6.463,0,0,1,6.224,6.284c.066,1.6.059,3.206.013,4.807a6.45,6.45,0,0,1-6.27,6.526c-4.5.163-9.006.082-13.51.045a2.207,2.207,0,1,1,.114-4.4c4.071-.025,8.142,0,12.213-.013,2.293,0,3.028-.748,3.036-3.038,0-1.04.011-2.079,0-3.119-.024-1.907-.78-2.7-2.673-2.706-3.854-.021-7.709-.007-11.563-.007-.347,0-.695.017-1.039-.009a2.3,2.3,0,0,1-2.418-2.332c.063-1.264.976-2.061,2.495-2.081,2.251-.029,4.5-.008,6.756-.008v.03" transform="translate(-232.931 -63.259)" fill="#12263f"/>
          <path id="Trazado_605671" data-name="Trazado 605671" d="M68.277,198.84a11.055,11.055,0,0,1,10.508-11.094,2.311,2.311,0,0,1,2.725,1.977c.139,1.263-.795,2.242-2.313,2.424-4.1.493-6.576,3.12-6.477,6.876a6.611,6.611,0,0,0,13.049,1.3c.125-.547.163-1.113.25-1.669A2.259,2.259,0,0,1,88.3,196.6a2.3,2.3,0,0,1,2.11,2.378c.069,6.938-7.155,12.436-13.846,10.537a11.041,11.041,0,0,1-8.283-10.674" transform="translate(-50.482 -138.809)" fill="#12263f"/>
          <path id="Trazado_605672" data-name="Trazado 605672" d="M36.342,260.167A2.135,2.135,0,0,1,34.3,257.82a2.165,2.165,0,0,1,4.323.225,2.152,2.152,0,0,1-2.282,2.121" transform="translate(-25.357 -189.134)" fill="#12263f"/>
        </g>
      </g>
    </g>
  </g>
</svg>
