<svg id="Grupo_888491" data-name="Grupo 888491" xmlns="http://www.w3.org/2000/svg" xmlns:xlink="http://www.w3.org/1999/xlink" width="112.818" height="120.873" viewBox="0 0 112.818 120.873">
  <defs>
    <clipPath id="clip-path">
      <rect id="Rectángulo_299379" data-name="Rectángulo 299379" width="112.818" height="120.873" fill="#12263f"/>
    </clipPath>
    <clipPath id="clip-path-2">
      <rect id="Rectángulo_299392" data-name="Rectángulo 299392" width="70.317" height="76.656" fill="#12263f"/>
    </clipPath>
  </defs>
  <path id="Trazado_604676" data-name="Trazado 604676" d="M58.284,15.113h67.864v90.563H58.284ZM126.226,0V11.2H58.206V.017h-3.8v11.3H46.989v3.755H54.4V105.79H46.963v3.755h7.494v11.327h3.778V109.607h68v11.266h3.778V109.5h7.475v-3.8h-7.42V15.033h7.4v-3.8h-7.5V0Z" transform="translate(-35.851)" fill="#12263f"/>
  <g id="Grupo_888483" data-name="Grupo 888483">
    <g id="Grupo_888482" data-name="Grupo 888482" clip-path="url(#clip-path)">
      <path id="Trazado_604677" data-name="Trazado 604677" d="M441.981,372.868c-1.133,1.629-2.276,3.252-3.4,4.89-1.364,1.992-2.729,1.991-4.083-.031-1.089-1.627-2.166-3.263-3.316-5l3.138-2.1,2.237,3.236,2.164-3.19,3.258,1.954Z" transform="translate(-329.163 -282.938)" fill="#12263f"/>
      <path id="Trazado_604678" data-name="Trazado 604678" d="M441.909,110.194l-3.248,1.948-2.169-3.164-2.229,3.2-3.174-2.081c1.366-2.013,2.622-4.03,4.058-5.911a1.89,1.89,0,0,1,3.023.409c1.029,1.481,2,3,3.015,4.492a11.209,11.209,0,0,0,.724.874Z" transform="translate(-329.09 -79.078)" fill="#12263f"/>
      <path id="Trazado_604679" data-name="Trazado 604679" d="M.045,372.713l3.16-2.106,2.212,3.254,2.212-3.254,3.16,2.106c-1.289,1.932-2.479,3.821-3.781,5.63a1.852,1.852,0,0,1-3.181,0c-1.3-1.808-2.492-3.7-3.782-5.631" transform="translate(-0.034 -282.919)" fill="#12263f"/>
      <path id="Trazado_604680" data-name="Trazado 604680" d="M7.6,112.208,5.4,108.993l-2.232,3.2L0,110.109c1.347-2,2.6-3.981,3.991-5.857a1.875,1.875,0,0,1,2.976.2c1.287,1.83,2.494,3.715,3.788,5.658l-3.151,2.1" transform="translate(0 -79.092)" fill="#12263f"/>
      <rect id="Rectángulo_299365" data-name="Rectángulo 299365" width="3.62" height="3.624" transform="translate(3.563 37.83)" fill="#12263f"/>
      <rect id="Rectángulo_299366" data-name="Rectángulo 299366" width="3.626" height="3.624" transform="translate(105.585 37.788)" fill="#12263f"/>
      <rect id="Rectángulo_299367" data-name="Rectángulo 299367" width="3.581" height="3.666" transform="translate(3.588 45.372)" fill="#12263f"/>
      <rect id="Rectángulo_299368" data-name="Rectángulo 299368" width="3.62" height="3.624" transform="translate(105.568 45.388)" fill="#12263f"/>
      <rect id="Rectángulo_299369" data-name="Rectángulo 299369" width="3.636" height="3.658" transform="translate(3.555 52.897)" fill="#12263f"/>
      <rect id="Rectángulo_299370" data-name="Rectángulo 299370" width="3.657" height="3.637" transform="translate(3.544 64.266)" fill="#12263f"/>
      <rect id="Rectángulo_299371" data-name="Rectángulo 299371" width="3.622" height="3.644" transform="translate(105.587 64.262)" fill="#12263f"/>
      <rect id="Rectángulo_299372" data-name="Rectángulo 299372" width="3.659" height="3.598" transform="translate(3.523 71.844)" fill="#12263f"/>
      <rect id="Rectángulo_299373" data-name="Rectángulo 299373" width="3.664" height="3.609" transform="translate(105.563 71.839)" fill="#12263f"/>
      <rect id="Rectángulo_299374" data-name="Rectángulo 299374" width="3.616" height="3.638" transform="translate(3.565 79.361)" fill="#12263f"/>
      <rect id="Rectángulo_299375" data-name="Rectángulo 299375" width="3.581" height="3.666" transform="translate(105.602 79.331)" fill="#12263f"/>
      <rect id="Rectángulo_299376" data-name="Rectángulo 299376" width="3.624" height="3.646" transform="translate(105.586 52.924)" fill="#12263f"/>
      <g id="Grupo_888493" data-name="Grupo 888493" transform="translate(22 23.176)">
        <g id="Grupo_888492" data-name="Grupo 888492" clip-path="url(#clip-path-2)">
          <path id="Trazado_604711" data-name="Trazado 604711" d="M14.487,80.177c-.6-.4-1.125-.868-1.01-1.677.112-.79.686-1.133,1.392-1.389a10.294,10.294,0,0,0,6.98-10.249,1.075,1.075,0,0,0-.407-.765A25.232,25.232,0,0,1,11.112,53.3a2.032,2.032,0,0,0-.644-.781A26.961,26.961,0,0,1,.742,37.569c-1.954-8.305,0-15.781,5.314-22.344,4.87-6.011,11.325-9.457,18.833-11.031a1.528,1.528,0,0,1,1.824,1.148,1.5,1.5,0,0,1-1.12,1.768c-1.855.557-3.771.96-5.562,1.678C13.345,11.469,8.058,15.83,5.1,22.5,1.261,31.17,2.768,39.212,8.636,46.536c.311.388.663.744,1,1.111.028.03.09.029.061.021q0-5.943,0-11.925a2.133,2.133,0,0,1,.027-.67c.457-1.32-.1-2.3-.837-3.379a16.856,16.856,0,0,1-1.633-3.5,1.468,1.468,0,0,1,.9-2,1.549,1.549,0,0,1,1.972,1.12c.29.781.612,1.55,1.007,2.542a15.436,15.436,0,0,1,7.1-7.085c-.387-1.277-.794-2.493-1.114-3.732a8.357,8.357,0,0,1-.2-1.855A1.5,1.5,0,0,1,18.352,15.5a1.453,1.453,0,0,1,1.6,1.5A9.456,9.456,0,0,0,21,21.16c.057.105.135.2.219.321a31.091,31.091,0,0,1,21.457,0,9.094,9.094,0,0,0,1.272-4.494A1.437,1.437,0,0,1,45.31,15.5a1.492,1.492,0,0,1,1.634,1.618,11.729,11.729,0,0,1-1.121,4.915c-.093.2-.182.4-.306.676a15.526,15.526,0,0,1,7.223,7.149c.376-.937.7-1.683.975-2.447.368-1.019,1.111-1.5,1.979-1.226a1.558,1.558,0,0,1,.9,2.14,13.72,13.72,0,0,1-2.382,4.538,1.127,1.127,0,0,0-.273.642c.074,2.539.208,5.077.262,7.617.046,2.167.009,4.335.009,6.5-.025.013.063-.007.115-.062a23.057,23.057,0,0,0,6.393-13.7A22.152,22.152,0,0,0,55.489,17.2a28.849,28.849,0,0,0-16.6-9.942,5.426,5.426,0,0,1-.795-.2,1.474,1.474,0,0,1-.9-1.759,1.46,1.46,0,0,1,1.7-1.12c11.393,2.6,20.038,8.618,23.78,20.117C65.475,32.9,63.5,40.828,58,47.9c-1.127,1.449-2.481,2.72-3.785,4.132,2.032,2.021,4.118,4.09,6.2,6.165q4.4,4.388,8.78,8.79c.413.416.752.905,1.125,1.361v.6a14.627,14.627,0,0,1-1.04,1.337C67.9,71.7,66.5,73.078,65.106,74.469c-1.092,1.09-1.754,1.089-2.845,0Q55.7,67.91,49.151,61.345a5.5,5.5,0,0,1-.514-.727,26.8,26.8,0,0,1-6.371,5.573.758.758,0,0,0-.232.559,10.491,10.491,0,0,0,3.077,7.913A10.674,10.674,0,0,0,49.283,77.2a1.45,1.45,0,0,1,1.078,1.909,4.5,4.5,0,0,1-.85,1.065H48.464c-.2-.095-.39-.208-.6-.282a13.217,13.217,0,0,1-6.327-4.8,13.644,13.644,0,0,1-2.527-7.218A19.677,19.677,0,0,1,32,69.638a19.13,19.13,0,0,1-7.019-1.71.923.923,0,0,0-.109.182,2.264,2.264,0,0,0-.046.295A13.232,13.232,0,0,1,17.6,79.219c-.665.365-1.378.64-2.069.957ZM50.933,48.45c.076-.875.216-1.789.225-2.7.031-3.119.071-6.239.006-9.357a11.555,11.555,0,0,0-6.746-10.817,27.1,27.1,0,0,0-24.965,0c-4.466,2.19-6.668,6-6.76,10.967-.054,2.918-.021,5.839,0,8.758a17.341,17.341,0,0,0,.175,2.46A21.793,21.793,0,0,0,23.033,63.5a20.681,20.681,0,0,0,7.385,2.9c0-.743-.014-1.412,0-2.08.028-1.079.639-1.769,1.532-1.758s1.495.712,1.512,1.784c.011.668,0,1.336,0,2.069a22.134,22.134,0,0,0,12.925-7.841c-1.092-1.086-2.142-2.115-3.171-3.166a4.091,4.091,0,0,1-.712-.948q-2.567-4.938-5.1-9.893a1.556,1.556,0,0,1,.152-2.055,1.6,1.6,0,0,1,2-.118c2.99,1.535,5.982,3.064,8.961,4.619.785.409,1.525.9,2.41,1.434M66.469,68.688,49.127,51.344l-2.783,2.785L63.69,71.478l2.779-2.79M42.343,47.223l-.11.12,2.115,4.088,2.115-2.089-4.12-2.12" transform="translate(0 -3.52)" fill="#12263f"/>
          <path id="Trazado_604712" data-name="Trazado 604712" d="M204.4,2.985a1.487,1.487,0,0,1-1.43-1.576A1.481,1.481,0,0,1,204.494,0a1.527,1.527,0,0,1,1.487,1.538,1.533,1.533,0,0,1-1.58,1.447" transform="translate(-172.525 0)" fill="#12263f"/>
          <path id="Trazado_604713" data-name="Trazado 604713" d="M185.451,337.173a5.749,5.749,0,0,1-4.489-2.343,1.434,1.434,0,0,1,.277-2.117c1.2-1.025,2.466-1.889,4.185-1.408.127.036.288-.051.433-.075,1.79-.3,3.061.652,4.182,1.832a1.289,1.289,0,0,1,0,1.728,5.716,5.716,0,0,1-4.586,2.382" transform="translate(-153.523 -281.496)" fill="#12263f"/>
          <path id="Trazado_604714" data-name="Trazado 604714" d="M205.893,201a7.634,7.634,0,0,1-.1,1.032,1.434,1.434,0,0,1-1.511,1.162,1.391,1.391,0,0,1-1.408-1.272,9.067,9.067,0,0,1-.013-1.854,1.454,1.454,0,0,1,1.422-1.361,1.515,1.515,0,0,1,1.546,1.326,6.255,6.255,0,0,1,.008.965l.055,0" transform="translate(-172.4 -168.903)" fill="#12263f"/>
          <path id="Trazado_604715" data-name="Trazado 604715" d="M205.864,149.037c-.046,1.476-.625,2.194-1.736,2.1a1.341,1.341,0,0,1-.43-.1c-.924-.418-.939-1.243-.936-2.088,0-.791.136-1.5.962-1.845a1.453,1.453,0,0,1,1.949.848,6.528,6.528,0,0,1,.191,1.091" transform="translate(-172.35 -124.935)" fill="#12263f"/>
          <path id="Trazado_604716" data-name="Trazado 604716" d="M180.736,261.6a2.984,2.984,0,0,1-2.583,2.271,1.473,1.473,0,0,1-1.062-2.3,5.294,5.294,0,0,1,1.49-1.321,1.487,1.487,0,0,1,2.155,1.346" transform="translate(-150.296 -221.068)" fill="#12263f"/>
          <path id="Trazado_604717" data-name="Trazado 604717" d="M129.56,279.479a6.083,6.083,0,0,1,.9.11,1.48,1.48,0,0,1,1.151,1.531,1.43,1.43,0,0,1-1.319,1.378,6.626,6.626,0,0,1-1.772-.094,1.487,1.487,0,0,1,.389-2.924c.174,0,.347,0,.654,0" transform="translate(-108.308 -237.558)" fill="#12263f"/>
        </g>
      </g>
    </g>
  </g>
</svg>
