<svg id="Grupo_888494" data-name="Grupo 888494" xmlns="http://www.w3.org/2000/svg" xmlns:xlink="http://www.w3.org/1999/xlink" width="131.772" height="141.18" viewBox="0 0 131.772 141.18">
  <defs>
    <clipPath id="clip-path">
      <rect id="Rectángulo_299379" data-name="Rectángulo 299379" width="131.772" height="141.18" fill="#12263f"/>
    </clipPath>
    <clipPath id="clip-path-2">
      <rect id="Rectángulo_299395" data-name="Rectángulo 299395" width="75.36" height="80.71" fill="#12263f"/>
    </clipPath>
  </defs>
  <path id="Trazado_604676" data-name="Trazado 604676" d="M60.186,17.652h79.266V123.43H60.186ZM139.542,0V13.076H60.1V.02H55.662v13.2H46.993v4.386h8.652V123.563H46.963v4.386h8.753v13.23h4.413V128.021h79.428V141.18h4.413V127.9H152.7v-4.435h-8.667V17.558h8.648V13.123h-8.754V0Z" transform="translate(-33.984)" fill="#12263f"/>
  <g id="Grupo_888483" data-name="Grupo 888483">
    <g id="Grupo_888482" data-name="Grupo 888482" clip-path="url(#clip-path)">
      <path id="Trazado_604677" data-name="Trazado 604677" d="M443.8,373.244c-1.324,1.9-2.659,3.8-3.969,5.712-1.593,2.327-3.187,2.326-4.769-.036-1.272-1.9-2.53-3.811-3.874-5.836l3.665-2.451,2.613,3.78,2.528-3.726,3.805,2.282Z" transform="translate(-312.023 -268.205)" fill="#12263f"/>
      <path id="Trazado_604678" data-name="Trazado 604678" d="M443.726,111.3l-3.793,2.275-2.533-3.7-2.6,3.735-3.707-2.431c1.6-2.351,3.063-4.707,4.74-6.9.867-1.136,2.635-.811,3.53.478,1.2,1.73,2.34,3.5,3.521,5.247a13.091,13.091,0,0,0,.846,1.021Z" transform="translate(-311.954 -74.961)" fill="#12263f"/>
      <path id="Trazado_604679" data-name="Trazado 604679" d="M.045,373.067l3.691-2.46,2.584,3.8,2.584-3.8,3.69,2.46c-1.506,2.257-2.9,4.463-4.416,6.576a2.163,2.163,0,0,1-3.716,0c-1.52-2.112-2.91-4.318-4.418-6.577" transform="translate(-0.033 -268.187)" fill="#12263f"/>
      <path id="Trazado_604680" data-name="Trazado 604680" d="M8.882,113.653,6.306,109.9,3.7,113.631,0,111.2c1.574-2.331,3.032-4.65,4.662-6.842a2.19,2.19,0,0,1,3.476.232c1.5,2.137,2.913,4.34,4.424,6.609l-3.68,2.452" transform="translate(0 -74.974)" fill="#12263f"/>
      <rect id="Rectángulo_299365" data-name="Rectángulo 299365" width="4.228" height="4.233" transform="translate(4.162 44.185)" fill="#12263f"/>
      <rect id="Rectángulo_299366" data-name="Rectángulo 299366" width="4.235" height="4.233" transform="translate(123.323 44.137)" fill="#12263f"/>
      <rect id="Rectángulo_299367" data-name="Rectángulo 299367" width="4.182" height="4.281" transform="translate(4.191 52.994)" fill="#12263f"/>
      <rect id="Rectángulo_299368" data-name="Rectángulo 299368" width="4.228" height="4.233" transform="translate(123.303 53.013)" fill="#12263f"/>
      <rect id="Rectángulo_299369" data-name="Rectángulo 299369" width="4.247" height="4.272" transform="translate(4.152 61.784)" fill="#12263f"/>
      <rect id="Rectángulo_299370" data-name="Rectángulo 299370" width="4.271" height="4.248" transform="translate(4.14 75.062)" fill="#12263f"/>
      <rect id="Rectángulo_299371" data-name="Rectángulo 299371" width="4.23" height="4.256" transform="translate(123.326 75.058)" fill="#12263f"/>
      <rect id="Rectángulo_299372" data-name="Rectángulo 299372" width="4.273" height="4.202" transform="translate(4.115 83.914)" fill="#12263f"/>
      <rect id="Rectángulo_299373" data-name="Rectángulo 299373" width="4.28" height="4.215" transform="translate(123.298 83.907)" fill="#12263f"/>
      <rect id="Rectángulo_299374" data-name="Rectángulo 299374" width="4.224" height="4.25" transform="translate(4.164 92.694)" fill="#12263f"/>
      <rect id="Rectángulo_299375" data-name="Rectángulo 299375" width="4.182" height="4.281" transform="translate(123.343 92.659)" fill="#12263f"/>
      <rect id="Rectángulo_299376" data-name="Rectángulo 299376" width="4.232" height="4.258" transform="translate(123.325 61.815)" fill="#12263f"/>
      <g id="Grupo_888496" data-name="Grupo 888496" transform="translate(29.041 28.631)">
        <g id="Grupo_888495" data-name="Grupo 888495" clip-path="url(#clip-path-2)">
          <path id="Trazado_604718" data-name="Trazado 604718" d="M16.559,29.576c-1.763-.959-3.491-1.913-5.241-2.823-.134-.07-.472.116-.639.268A6.341,6.341,0,0,1,.29,24.14a6,6,0,0,1,1.868-6.515,5.966,5.966,0,0,1,6.88-1.01,5.977,5.977,0,0,1,3.642,5.706,19.619,19.619,0,0,1-.23,2.231l3.064,1.67c-.151-.728-.288-1.342-.4-1.96a20.414,20.414,0,0,1,40.08-7.776.973.973,0,0,0,.946.935,13.2,13.2,0,0,1,2.19.465.827.827,0,0,0,1.059-.4A6.332,6.332,0,0,1,70.6,19.443a6.248,6.248,0,0,1-2.485,6.951.886.886,0,0,0-.449.943q.786,7.349,1.541,14.7c.315,3.051.629,6.1.914,9.156a1.37,1.37,0,0,0,1.037,1.427,5.927,5.927,0,0,1,4.169,5.325,6.252,6.252,0,0,1-3.412,6.288,6.331,6.331,0,0,1-7.039-.892A.692.692,0,0,0,64,63.2Q52.5,68.316,40.978,73.393a.763.763,0,0,0-.554.851A6.265,6.265,0,0,1,36.31,80.3a6.352,6.352,0,0,1-6.949-1.73,6.245,6.245,0,0,1-.866-7.149A.881.881,0,0,0,28.31,70.2q-7.9-8.788-15.776-17.605a1.459,1.459,0,0,0-1.581-.574A6.324,6.324,0,1,1,9.943,39.478a1.354,1.354,0,0,0,1.386-.817c1.645-2.9,3.327-5.772,4.995-8.655.07-.121.135-.246.236-.431M36.387,42.9c2.324,0,4.566.012,6.807-.024.173,0,.461-.326.493-.533a18.748,18.748,0,0,1,4.748-9.751,17.507,17.507,0,0,0,4.518-14.805A17.989,17.989,0,0,0,17.181,19.91a17.608,17.608,0,0,0,4.848,12.806A17.784,17.784,0,0,1,25.81,38.5c.536,1.41.89,2.889,1.329,4.346H33.9a.968.968,0,0,0,.04-.147c.009-5,.022-10.009.006-15.013a.962.962,0,0,0-.43-.646c-.647-.421-1.331-.782-2-1.164a1.32,1.32,0,0,1-.74-1.3c.027-.6,0-1.209.005-1.813.022-2.406-.31-2.036,1.912-3.3,2.643-1.508,1.908-1.515,4.5-.022,2.185,1.256,2,.838,2,3.4,0,3.018.233,2.421-2.227,3.855a1.019,1.019,0,0,0-.6,1.016c.026,3.8.015,7.593.015,11.389,0,1.229,0,2.457,0,3.8m9.684-.029A3.931,3.931,0,0,1,49.02,45.31a1.818,1.818,0,0,0,.7.822c2.378,1.431,4.775,2.828,7.168,4.233s4.779,2.8,7.209,4.228A6.691,6.691,0,0,1,67.808,52.3L65.255,27.543a6.661,6.661,0,0,1-5.5-2.12.787.787,0,0,0-.687-.021q-2.187.954-4.344,1.977a1.11,1.11,0,0,0-.529.528A22.354,22.354,0,0,1,49.856,34.7a15.381,15.381,0,0,0-3.785,8.172m2.03,8.233c1.008,1,.932,2.355.991,3.72a3.815,3.815,0,0,1-4.071,4.117c-3.405-.1-6.816-.026-10.224-.026h-.806a3.3,3.3,0,0,0-.023.422c.258,2.741.53,5.48.768,8.222.042.478.354.519.674.587a6.221,6.221,0,0,1,3.973,2.686c.1.153.235.288.366.447L62.874,61.039c-.024-1.353-.107-2.523-.035-3.683a.851.851,0,0,0-.485-.962c-3.526-2.05-7.039-4.122-10.557-6.186-.842-.494-1.689-.98-2.465-1.43L48.1,51.105m-25.66-.245c-2.152-3.3-1.306-6.553,2.133-8.055l-.363-1.482a1.517,1.517,0,0,0-.3.047c-2.461,1.113-4.926,2.218-7.371,3.365a.9.9,0,0,0-.349.718,6.373,6.373,0,0,1-1.823,4.807,4.706,4.706,0,0,0-.3.4L30.537,69.033a14.716,14.716,0,0,1,1.414-.647c.347-.117.429-.268.391-.628-.287-2.739-.563-5.479-.807-8.221-.045-.51-.235-.634-.716-.629-2.031.021-4.063.025-6.094,0a3.33,3.33,0,0,1-3.252-2.523c-.4-1.933-.583-3.9.968-5.52M35.3,45.323v.006H26.235c-2.3,0-2.387.09-2.382,2.423,0,1.313.374,1.7,1.665,1.7q9.387,0,18.774,0c2.412,0,2.508-.1,2.476-2.542-.016-1.232-.376-1.585-1.614-1.585H35.3m-.17,11.152h9.06c2.378,0,2.437-.058,2.435-2.418,0-1.32-.357-1.681-1.66-1.681h-18.7c-2.515,0-2.572.056-2.557,2.542.007,1.175.387,1.556,1.565,1.557q4.929,0,9.857,0M23.31,38.959c-1.048-2.937-3.532-4.7-5.17-7.207L13.3,40.108l2.44,2.293,7.575-3.442M68.4,21.2a3.92,3.92,0,0,0-3.9-3.93,3.993,3.993,0,0,0-3.915,3.88,3.949,3.949,0,0,0,3.9,3.947A3.878,3.878,0,0,0,68.4,21.2M2.473,22.346a3.9,3.9,0,1,0,7.8-.028,3.953,3.953,0,0,0-3.96-3.889,3.916,3.916,0,0,0-3.842,3.917M9.861,41.9a3.857,3.857,0,0,0-3.9,3.9,3.9,3.9,0,1,0,3.9-3.9M69,54.671a3.875,3.875,0,0,0-3.854,3.955,3.892,3.892,0,1,0,7.783-.081A3.859,3.859,0,0,0,69,54.671M34.087,78.242a3.894,3.894,0,1,0-3.88-3.925,3.857,3.857,0,0,0,3.88,3.925M36.8,23.023c-.06-.363.01-.881-.208-1.071a4.255,4.255,0,0,0-1.623-.9c-.577-.157-1.788,1.032-1.757,1.619.025.487-.047,1.113.22,1.419a2.309,2.309,0,0,0,1.54.822,3.086,3.086,0,0,0,1.621-.86c.2-.17.143-.66.207-1.028m18.891-3.2-.4,4.594,3.029-1.374-.2-2.708-2.433-.512" transform="translate(0 0)" fill="#12263f"/>
        </g>
      </g>
    </g>
  </g>
</svg>
