<svg id="Grupo_888488" data-name="Grupo 888488" xmlns="http://www.w3.org/2000/svg" xmlns:xlink="http://www.w3.org/1999/xlink" width="131.772" height="141.18" viewBox="0 0 131.772 141.18">
  <defs>
    <clipPath id="clip-path">
      <rect id="Rectángulo_299379" data-name="Rectángulo 299379" width="131.772" height="141.18" fill="#12263f"/>
    </clipPath>
    <clipPath id="clip-path-2">
      <rect id="Rectángulo_299391" data-name="Rectángulo 299391" width="71.92" height="71.934" fill="#12263f"/>
    </clipPath>
  </defs>
  <path id="Trazado_604676" data-name="Trazado 604676" d="M60.186,17.652h79.266V123.43H60.186ZM139.542,0V13.076H60.1V.02H55.662v13.2H46.993v4.386h8.652V123.563H46.963v4.386h8.753v13.23h4.413V128.021h79.428V141.18h4.413V127.9H152.7v-4.435h-8.667V17.558h8.648V13.123h-8.754V0Z" transform="translate(-33.984)" fill="#12263f"/>
  <g id="Grupo_888483" data-name="Grupo 888483">
    <g id="Grupo_888482" data-name="Grupo 888482" clip-path="url(#clip-path)">
      <path id="Trazado_604677" data-name="Trazado 604677" d="M443.8,373.244c-1.324,1.9-2.659,3.8-3.969,5.712-1.593,2.327-3.187,2.326-4.769-.036-1.272-1.9-2.53-3.811-3.874-5.836l3.665-2.451,2.613,3.78,2.528-3.726,3.805,2.282Z" transform="translate(-312.023 -268.205)" fill="#12263f"/>
      <path id="Trazado_604678" data-name="Trazado 604678" d="M443.726,111.3l-3.793,2.275-2.533-3.7-2.6,3.735-3.707-2.431c1.6-2.351,3.063-4.707,4.74-6.9.867-1.136,2.635-.811,3.53.478,1.2,1.73,2.34,3.5,3.521,5.247a13.091,13.091,0,0,0,.846,1.021Z" transform="translate(-311.954 -74.961)" fill="#12263f"/>
      <path id="Trazado_604679" data-name="Trazado 604679" d="M.045,373.067l3.691-2.46,2.584,3.8,2.584-3.8,3.69,2.46c-1.506,2.257-2.9,4.463-4.416,6.576a2.163,2.163,0,0,1-3.716,0c-1.52-2.112-2.91-4.318-4.418-6.577" transform="translate(-0.033 -268.187)" fill="#12263f"/>
      <path id="Trazado_604680" data-name="Trazado 604680" d="M8.882,113.653,6.306,109.9,3.7,113.631,0,111.2c1.574-2.331,3.032-4.65,4.662-6.842a2.19,2.19,0,0,1,3.476.232c1.5,2.137,2.913,4.34,4.424,6.609l-3.68,2.452" transform="translate(0 -74.974)" fill="#12263f"/>
      <rect id="Rectángulo_299365" data-name="Rectángulo 299365" width="4.228" height="4.233" transform="translate(4.162 44.185)" fill="#12263f"/>
      <rect id="Rectángulo_299366" data-name="Rectángulo 299366" width="4.235" height="4.233" transform="translate(123.323 44.137)" fill="#12263f"/>
      <rect id="Rectángulo_299367" data-name="Rectángulo 299367" width="4.182" height="4.281" transform="translate(4.191 52.994)" fill="#12263f"/>
      <rect id="Rectángulo_299368" data-name="Rectángulo 299368" width="4.228" height="4.233" transform="translate(123.303 53.013)" fill="#12263f"/>
      <rect id="Rectángulo_299369" data-name="Rectángulo 299369" width="4.247" height="4.272" transform="translate(4.152 61.784)" fill="#12263f"/>
      <rect id="Rectángulo_299370" data-name="Rectángulo 299370" width="4.271" height="4.248" transform="translate(4.14 75.062)" fill="#12263f"/>
      <rect id="Rectángulo_299371" data-name="Rectángulo 299371" width="4.23" height="4.256" transform="translate(123.326 75.058)" fill="#12263f"/>
      <rect id="Rectángulo_299372" data-name="Rectángulo 299372" width="4.273" height="4.202" transform="translate(4.115 83.914)" fill="#12263f"/>
      <rect id="Rectángulo_299373" data-name="Rectángulo 299373" width="4.28" height="4.215" transform="translate(123.298 83.907)" fill="#12263f"/>
      <rect id="Rectángulo_299374" data-name="Rectángulo 299374" width="4.224" height="4.25" transform="translate(4.164 92.694)" fill="#12263f"/>
      <rect id="Rectángulo_299375" data-name="Rectángulo 299375" width="4.182" height="4.281" transform="translate(123.343 92.659)" fill="#12263f"/>
      <rect id="Rectángulo_299376" data-name="Rectángulo 299376" width="4.232" height="4.258" transform="translate(123.325 61.815)" fill="#12263f"/>
      <g id="Grupo_888490" data-name="Grupo 888490" transform="translate(29.926 35.481)">
        <g id="Grupo_888489" data-name="Grupo 888489" clip-path="url(#clip-path-2)">
          <path id="Trazado_604696" data-name="Trazado 604696" d="M135.737,210.907c.015-.911.039-1.823.044-2.734.02-3.652-.12-7.312.089-10.953a8.273,8.273,0,0,1,8.551-7.92c1.1-.01,2.193,0,3.378,0,0-1.2.015-2.337-.018-3.475,0-.152-.226-.332-.386-.44A9.534,9.534,0,0,1,143,177.005c0-2.247.055-4.494.05-6.74a.969.969,0,0,0-.386-.689,4.22,4.22,0,0,1-1.891-4.734,4.163,4.163,0,0,1,4.108-3.1c3.652-.015,7.3-.009,10.955,0a5.984,5.984,0,0,1,6.338,6.2c.049,3.347.066,6.7-.057,10.042a8.857,8.857,0,0,1-3.994,7.138,1.482,1.482,0,0,0-.753,1.473c.053.859.013,1.725.013,2.7.34,0,.633-.01.925,0a28.676,28.676,0,0,1,4.335.219,8.33,8.33,0,0,1,6.757,8.54c.018,4,0,8.007.006,12.011,0,.279.029.559.044.838h-2.529c0-4.47.058-8.94,0-13.408a5.874,5.874,0,0,0-5.622-5.732.991.991,0,0,0-1.121.647c-2.046,4.145-4.12,8.276-6.188,12.411a5.294,5.294,0,0,1-.435.8,1.17,1.17,0,0,1-1.919,0,5.3,5.3,0,0,1-.435-.8c-2.09-4.176-4.172-8.355-6.281-12.521a1.01,1.01,0,0,0-.677-.522,5.828,5.828,0,0,0-5.958,5.507c-.085,4.538-.019,9.079-.017,13.619Zm9.841-40.725a1.976,1.976,0,0,0-.09.393,74.947,74.947,0,0,0,.106,7.981,7.013,7.013,0,0,0,7.69,5.936,7.254,7.254,0,0,0,6.48-7.089c.014-1.989.009-3.978,0-5.966,0-.413-.07-.824-.109-1.255Zm14.207-2.432c-.046-.323-.061-.553-.114-.775a3.617,3.617,0,0,0-3.829-2.826c-3.552-.013-7.1-.006-10.657,0a3.327,3.327,0,0,0-.831.1,1.736,1.736,0,0,0-1.014,2.67,2.033,2.033,0,0,0,1.888.836q6.45-.007,12.9,0h1.656m-5.908,24.042v7.6l.11.027,3.809-7.627Zm-2.675,7.625.122-.036V191.8h-3.931l3.808,7.614m3.765-12.611H150.25v2.435h4.717Z" transform="translate(-116.634 -138.973)" fill="#12263f"/>
          <path id="Trazado_604697" data-name="Trazado 604697" d="M379.037,168.364c-.185.366-.34.752-.56,1.1a3.474,3.474,0,0,1-3.051,1.694q-7.16.03-14.321,0a3.576,3.576,0,0,1-3.661-3.724q-.052-9.478,0-18.957a3.581,3.581,0,0,1,3.811-3.706q6.95-.012,13.9,0a3.591,3.591,0,0,1,3.751,2.655c.021.058.085.1.129.149Zm-19.15-10.419q0,4.563,0,9.127c0,1.3.361,1.666,1.665,1.667q6.7.006,13.407,0c1.27,0,1.682-.416,1.683-1.68q0-9.092,0-18.183c0-1.295-.422-1.712-1.732-1.712q-6.668,0-13.336,0c-1.289,0-1.685.388-1.686,1.655q-.005,4.563,0,9.127" transform="translate(-307.116 -124.389)" fill="#12263f"/>
          <path id="Trazado_604698" data-name="Trazado 604698" d="M246.527,496.8c.012-.4.027-.794.034-1.191.006-.37,0-.74,0-1.155h2.494V496.8Z" transform="translate(-211.831 -424.861)" fill="#12263f"/>
          <path id="Trazado_604699" data-name="Trazado 604699" d="M6.375,150.081c-.8-1.074-1.553-2.089-2.319-3.09a1.408,1.408,0,0,1-.31-1.612c.306-.587.855-.64,1.445-.638q4.425.016,8.849,0a1.373,1.373,0,0,1,1.416.689,1.356,1.356,0,0,1-.324,1.542c-.763,1-1.512,2.019-2.3,3.079.194.112.34.215.5.286a9.5,9.5,0,0,1,5.718,7.216,10.826,10.826,0,0,1,.156,2.1c.015,3.629.008,7.259.006,10.888,0,1.41-.384,1.8-1.782,1.8q-7.831,0-15.662,0c-1.44,0-1.762-.334-1.762-1.791q0-5.479,0-10.958a9.51,9.51,0,0,1,5.966-9.313c.1-.047.205-.1.4-.2M2.513,169.865h14.2c.013-.221.032-.4.032-.584q0-4.982,0-9.964A7.045,7.045,0,0,0,12.71,152.7c-4.112-2.183-9.81.68-10.14,5.323-.277,3.9-.057,7.845-.057,11.841m4.715-22.7a14.951,14.951,0,0,0,1.654,2.128,1.39,1.39,0,0,0,1.357.066,15.848,15.848,0,0,0,1.718-2.194Z" transform="translate(0 -124.37)" fill="#12263f"/>
          <path id="Trazado_604700" data-name="Trazado 604700" d="M193.422,15.875c-.6.34-1.079.615-1.561.884a1.293,1.293,0,0,1-2.047-.553q-1.06-1.816-2.089-3.65a1.294,1.294,0,0,1,.555-2.046c.479-.288.964-.567,1.557-.915-.557-.328-1.048-.611-1.533-.9a1.327,1.327,0,0,1-.569-2.1q1.032-1.832,2.091-3.649a1.261,1.261,0,0,1,1.987-.545c.487.269.963.558,1.6.929,0-.661-.008-1.2,0-1.744.021-1.15.442-1.572,1.565-1.574q2.071-.005,4.142,0c1.008,0,1.446.423,1.486,1.439.023.578,0,1.157,0,1.868.589-.34,1.064-.62,1.544-.89.936-.526,1.513-.388,2.046.524q1.078,1.846,2.119,3.713a1.289,1.289,0,0,1-.546,2c-.476.294-.958.578-1.436.868-.017.01-.022.04-.061.113.531.311,1.074.612,1.6.94a1.253,1.253,0,0,1,.5,1.86q-1.085,1.963-2.225,3.895a1.251,1.251,0,0,1-1.864.488c-.527-.282-1.039-.59-1.665-.948,0,.664.008,1.2,0,1.73-.02,1.124-.467,1.589-1.569,1.6q-2.035.021-4.071,0c-1.077-.012-1.524-.462-1.554-1.54-.015-.554,0-1.108,0-1.795M190.281,7.01c.954.695,2.1.939,2.1,2.592,0,1.677-1.2,1.866-2.1,2.577l1.15,2.011c1.06-.529,1.886-1.375,3.286-.535,1.346.808,1.084,1.954,1.166,3.042h2.274c.009-1.2-.129-2.265,1.179-3.065,1.394-.853,2.213.082,3.256.553l1.142-2.022c-.984-.691-2.088-.957-2.092-2.612,0-1.675,1.253-1.826,2.084-2.569l-1.145-1.988c-1.063.55-1.908,1.354-3.289.529-1.357-.811-1.054-1.969-1.167-3.086H195.86c.019,1.207.163,2.3-1.172,3.111-1.382.84-2.213-.075-3.249-.543l-1.157,2" transform="translate(-161.055 0)" fill="#12263f"/>
          <path id="Trazado_604701" data-name="Trazado 604701" d="M100.678,60.379c.17.366.322.678.46,1,.166.38.32.766.5,1.207A28.1,28.1,0,0,0,91.182,70.6c-.138-.089-.238-.141-.325-.211-.508-.409-1.013-.821-1.572-1.275a30.078,30.078,0,0,1,11.393-8.738" transform="translate(-76.719 -51.881)" fill="#12263f"/>
          <path id="Trazado_604702" data-name="Trazado 604702" d="M346.215,69.08l-1.878,1.512a28.086,28.086,0,0,0-10.5-8.049l.962-2.209a30.127,30.127,0,0,1,11.414,8.745" transform="translate(-286.855 -51.844)" fill="#12263f"/>
          <path id="Trazado_604703" data-name="Trazado 604703" d="M386.542,355.074l-1.6-1.807a27.961,27.961,0,0,0,6.264-8.054l2.147,1.106a30.028,30.028,0,0,1-6.812,8.756" transform="translate(-330.767 -296.628)" fill="#12263f"/>
          <path id="Trazado_604704" data-name="Trazado 604704" d="M71.145,355.307l1.874-1.086,5.558,6.827-1.454,1.626a29.484,29.484,0,0,1-5.977-7.367" transform="translate(-61.132 -304.368)" fill="#12263f"/>
          <rect id="Rectángulo_299385" data-name="Rectángulo 299385" width="7.125" height="2.354" transform="translate(40.766 65.966)" fill="#12263f"/>
          <rect id="Rectángulo_299386" data-name="Rectángulo 299386" width="2.32" height="2.361" transform="translate(31.21 34.786)" fill="#12263f"/>
          <rect id="Rectángulo_299387" data-name="Rectángulo 299387" width="2.304" height="2.377" transform="translate(38.388 34.779)" fill="#12263f"/>
          <path id="Trazado_604705" data-name="Trazado 604705" d="M397.549,178.745c1.5,0,2.994-.007,4.491,0,1.04.007,1.486.461,1.491,1.51q.011,2.105,0,4.211c-.005,1.013-.426,1.495-1.429,1.5q-4.561.036-9.122,0c-1-.007-1.451-.474-1.468-1.477q-.037-2.14,0-4.281c.019-1.031.5-1.463,1.545-1.468,1.5-.007,2.994,0,4.491,0m-3.559,4.745h7.09v-2.262h-7.09Z" transform="translate(-336.395 -153.587)" fill="#12263f"/>
          <path id="Trazado_604706" data-name="Trazado 604706" d="M394.041,280.955v2.39h-2.416c0-.695-.013-1.406.015-2.116,0-.1.207-.257.322-.261.67-.025,1.341-.012,2.079-.012" transform="translate(-336.506 -241.411)" fill="#12263f"/>
          <path id="Trazado_604707" data-name="Trazado 604707" d="M393.88,246.779v2.455c-.706,0-1.376.025-2.042-.021-.134-.009-.341-.277-.356-.439a7.668,7.668,0,0,1,0-1.535.636.636,0,0,1,.425-.439c.623-.051,1.253-.021,1.969-.021" transform="translate(-336.354 -212.04)" fill="#12263f"/>
          <rect id="Rectángulo_299388" data-name="Rectángulo 299388" width="2.326" height="2.362" transform="translate(64.773 34.786)" fill="#12263f"/>
          <path id="Trazado_604708" data-name="Trazado 604708" d="M425.731,249.184c0-.693-.025-1.347.02-2a.584.584,0,0,1,.416-.382c.625-.044,1.255-.018,1.939-.018v2.4Z" transform="translate(-365.808 -212.05)" fill="#12263f"/>
          <rect id="Rectángulo_299389" data-name="Rectángulo 299389" width="2.351" height="2.344" transform="translate(59.955 39.593)" fill="#12263f"/>
          <rect id="Rectángulo_299390" data-name="Rectángulo 299390" width="2.331" height="2.333" transform="translate(64.785 39.599)" fill="#12263f"/>
          <path id="Trazado_604709" data-name="Trazado 604709" d="M45.04,224.855l-1.109-.062v-2.422h1.694l.913,0c.475,0,.845-.182.9-.689.06-.529-.252-.813-.752-.928q-.716-.166-1.424-.364a3.239,3.239,0,0,1-.578-6.147,1.038,1.038,0,0,0,.384-.618,3.514,3.514,0,0,0,.014-.843h2.381c.03.436.055.8.082,1.2l1.1.061v2.369c-.821,0-1.611.008-2.4,0-.535-.008-1.027.087-1.114.7-.094.669.405.866.94,1s1.1.243,1.623.428a3.058,3.058,0,0,1,2.17,2.751,2.951,2.951,0,0,1-1.656,3.076c-.575.3-.8.611-.711,1.214a1.844,1.844,0,0,1-.025.374h-2.35l-.089-1.092" transform="translate(-36.703 -182.833)" fill="#12263f"/>
          <path id="Trazado_604710" data-name="Trazado 604710" d="M241.373,55.817a2.4,2.4,0,1,1,.077-4.806,2.454,2.454,0,0,1,2.35,2.412,2.426,2.426,0,0,1-2.427,2.394" transform="translate(-205.359 -43.831)" fill="#12263f"/>
        </g>
      </g>
    </g>
  </g>
</svg>
