<svg id="Grupo_888484" data-name="Grupo 888484" xmlns="http://www.w3.org/2000/svg" xmlns:xlink="http://www.w3.org/1999/xlink" width="131.772" height="141.18" viewBox="0 0 131.772 141.18">
  <defs>
    <clipPath id="clip-path">
      <rect id="Rectángulo_299379" data-name="Rectángulo 299379" width="131.772" height="141.18" fill="#12263f"/>
    </clipPath>
  </defs>
  <path id="Trazado_604676" data-name="Trazado 604676" d="M60.186,17.652h79.266V123.43H60.186ZM139.542,0V13.076H60.1V.02H55.662v13.2H46.993v4.386h8.652V123.563H46.963v4.386h8.753v13.23h4.413V128.021h79.428V141.18h4.413V127.9H152.7v-4.435h-8.667V17.558h8.648V13.123h-8.754V0Z" transform="translate(-33.984)" fill="#12263f"/>
  <g id="Grupo_888483" data-name="Grupo 888483">
    <g id="Grupo_888482" data-name="Grupo 888482" clip-path="url(#clip-path)">
      <path id="Trazado_604677" data-name="Trazado 604677" d="M443.8,373.244c-1.324,1.9-2.659,3.8-3.969,5.712-1.593,2.327-3.187,2.326-4.769-.036-1.272-1.9-2.53-3.811-3.874-5.836l3.665-2.451,2.613,3.78,2.528-3.726,3.805,2.282Z" transform="translate(-312.023 -268.205)" fill="#12263f"/>
      <path id="Trazado_604678" data-name="Trazado 604678" d="M443.726,111.3l-3.793,2.275-2.533-3.7-2.6,3.735-3.707-2.431c1.6-2.351,3.063-4.707,4.74-6.9.867-1.136,2.635-.811,3.53.478,1.2,1.73,2.34,3.5,3.521,5.247a13.091,13.091,0,0,0,.846,1.021Z" transform="translate(-311.954 -74.961)" fill="#12263f"/>
      <path id="Trazado_604679" data-name="Trazado 604679" d="M.045,373.067l3.691-2.46,2.584,3.8,2.584-3.8,3.69,2.46c-1.506,2.257-2.9,4.463-4.416,6.576a2.163,2.163,0,0,1-3.716,0c-1.52-2.112-2.91-4.318-4.418-6.577" transform="translate(-0.033 -268.187)" fill="#12263f"/>
      <path id="Trazado_604680" data-name="Trazado 604680" d="M8.882,113.653,6.306,109.9,3.7,113.631,0,111.2c1.574-2.331,3.032-4.65,4.662-6.842a2.19,2.19,0,0,1,3.476.232c1.5,2.137,2.913,4.34,4.424,6.609l-3.68,2.452" transform="translate(0 -74.974)" fill="#12263f"/>
      <rect id="Rectángulo_299365" data-name="Rectángulo 299365" width="4.228" height="4.233" transform="translate(4.162 44.185)" fill="#12263f"/>
      <rect id="Rectángulo_299366" data-name="Rectángulo 299366" width="4.235" height="4.233" transform="translate(123.323 44.137)" fill="#12263f"/>
      <rect id="Rectángulo_299367" data-name="Rectángulo 299367" width="4.182" height="4.281" transform="translate(4.191 52.994)" fill="#12263f"/>
      <rect id="Rectángulo_299368" data-name="Rectángulo 299368" width="4.228" height="4.233" transform="translate(123.303 53.013)" fill="#12263f"/>
      <rect id="Rectángulo_299369" data-name="Rectángulo 299369" width="4.247" height="4.272" transform="translate(4.152 61.784)" fill="#12263f"/>
      <rect id="Rectángulo_299370" data-name="Rectángulo 299370" width="4.271" height="4.248" transform="translate(4.14 75.062)" fill="#12263f"/>
      <rect id="Rectángulo_299371" data-name="Rectángulo 299371" width="4.23" height="4.256" transform="translate(123.326 75.058)" fill="#12263f"/>
      <rect id="Rectángulo_299372" data-name="Rectángulo 299372" width="4.273" height="4.202" transform="translate(4.115 83.914)" fill="#12263f"/>
      <rect id="Rectángulo_299373" data-name="Rectángulo 299373" width="4.28" height="4.215" transform="translate(123.298 83.907)" fill="#12263f"/>
      <rect id="Rectángulo_299374" data-name="Rectángulo 299374" width="4.224" height="4.25" transform="translate(4.164 92.694)" fill="#12263f"/>
      <rect id="Rectángulo_299375" data-name="Rectángulo 299375" width="4.182" height="4.281" transform="translate(123.343 92.659)" fill="#12263f"/>
      <rect id="Rectángulo_299376" data-name="Rectángulo 299376" width="4.232" height="4.258" transform="translate(123.325 61.815)" fill="#12263f"/>
      <path id="Trazado_604681" data-name="Trazado 604681" d="M160.123,180.533H143.366q-1.523,5.308-3.036,10.579c-.665,2.325-1.049,2.62-3.466,2.62q-7.722,0-15.444,0c-2.536,0-3.4-1.2-2.612-3.639q9.791-30.217,19.6-60.428c.552-1.7,1.143-2.13,2.9-2.132q10.2-.007,20.408,0c1.839,0,2.361.35,2.924,2.068q9.934,30.315,19.847,60.637c.74,2.265-.161,3.488-2.524,3.492q-7.929.016-15.858,0c-2.017,0-2.606-.442-3.118-2.366-.955-3.588-1.9-7.178-2.863-10.833m-17.76-48.6-18.624,57.393c4.029,0,7.84-.022,11.651.017.829.009.947-.46,1.119-1.072.955-3.4,1.957-6.779,2.909-10.175a2.4,2.4,0,0,1,2.548-2.019q9.786.025,19.572,0a2.323,2.323,0,0,1,2.5,1.886c.372,1.371.732,2.745,1.1,4.116.649,2.415,1.3,4.828,1.941,7.2h12.352c-.128-.457-.224-.853-.35-1.238q-5.662-17.31-11.33-34.617c-2.224-6.793-4.44-13.588-6.706-20.366-.148-.442-.691-1.07-1.057-1.074-5.831-.067-11.664-.048-17.629-.048" transform="translate(-85.769 -92.285)" fill="#12263f"/>
      <path id="Trazado_604682" data-name="Trazado 604682" d="M285.959,104.29v-4.258h-15.32V95.66c.345-.024.7-.071,1.05-.071q7.928-.007,15.856,0c2.094,0,2.824.729,2.834,2.8.009,1.93,0,3.86,0,5.9Z" transform="translate(-195.846 -69.168)" fill="#12263f"/>
      <path id="Trazado_604683" data-name="Trazado 604683" d="M134.539,104.353c0-2.307-.056-4.508.022-6.7a1.948,1.948,0,0,1,2.041-2.013c5.872-.044,11.744-.02,17.693-.02v4.337H138.949v4.4Z" transform="translate(-97.345 -69.186)" fill="#12263f"/>
      <path id="Trazado_604684" data-name="Trazado 604684" d="M134.535,383.223h4.334v4.346h15.438v4.357c-.374.026-.768.076-1.162.077q-7.859.008-15.718,0c-2.176,0-2.883-.711-2.89-2.882-.006-1.922,0-3.845,0-5.9" transform="translate(-97.354 -277.316)" fill="#12263f"/>
      <path id="Trazado_604685" data-name="Trazado 604685" d="M285.934,387.735v-4.4h4.328c0,2.338.079,4.667-.037,6.986a1.817,1.817,0,0,1-1.866,1.724c-5.917.044-11.835.022-17.827.022v-4.333Z" transform="translate(-195.768 -277.398)" fill="#12263f"/>
      <rect id="Rectángulo_299377" data-name="Rectángulo 299377" width="4.247" height="4.272" transform="translate(63.723 26.47)" fill="#12263f"/>
      <rect id="Rectángulo_299378" data-name="Rectángulo 299378" width="4.279" height="4.208" transform="translate(63.731 110.396)" fill="#12263f"/>
      <path id="Trazado_604686" data-name="Trazado 604686" d="M215.363,193.44q-2.825,0-5.651,0c-2.79,0-3.6-1.1-2.84-3.823,1.686-6.045,3.4-12.083,5.041-18.14.5-1.855.843-3.755,1.222-5.642a2.254,2.254,0,0,1,2.177-2.109c1.344-.041,2,.836,2.326,2.1,2.111,8.159,4.258,16.309,6.386,24.464.5,1.911-.443,3.123-2.46,3.146-2.067.023-4.135.005-6.2.006m.158-16.941-.256-.042-3.591,12.489h7.282L215.52,176.5" transform="translate(-149.505 -118.478)" fill="#12263f"/>
    </g>
  </g>
</svg>
