<svg xmlns="http://www.w3.org/2000/svg" xmlns:xlink="http://www.w3.org/1999/xlink" width="70" height="70" viewBox="0 0 70 70">
  <defs>
    <clipPath id="clip-path">
      <rect id="Rectángulo_297825" data-name="Rectángulo 297825" width="70" height="70" fill="#12263f"/>
    </clipPath>
  </defs>
  <g id="Grupo_885896" data-name="Grupo 885896" clip-path="url(#clip-path)">
    <path id="Trazado_601741" data-name="Trazado 601741" d="M24.061,70a1.809,1.809,0,0,1-.742-1.7q.017-10.355.007-20.71v-.905H1.754C.288,46.68,0,46.39,0,44.923q0-21.6,0-43.2C0,.318.316,0,1.719,0H44.984c1.377,0,1.7.311,1.7,1.678q0,10.321,0,20.641v1h.905q10.321,0,20.641-.006a1.87,1.87,0,0,1,1.773.75V70Zm43.564-44.26H25.747V67.655H67.625ZM2.352,42.29,42.266,2.375H2.352ZM25.3,23.276H44.249V4.325L25.3,23.276M23.261,44.288V25.422L4.4,44.288Z" transform="translate(0 -0.001)" fill="#12263f"/>
    <path id="Trazado_601742" data-name="Trazado 601742" d="M386.461,44.277c.307-.273.514-.482.746-.658a1.156,1.156,0,0,1,1.553.049,1.071,1.071,0,0,1,.092,1.54,28.108,28.108,0,0,1-2.567,2.542,1.532,1.532,0,0,1-1.252.074,15.661,15.661,0,0,1-2.02-.981c-.768-.4-1.042-.936-.818-1.582.215-.619.8-.843,1.641-.632a.818.818,0,0,0,.191,0c-.257-2.3-2.845-4.924-5.56-5.6.046.216.094.4.121.579a1.087,1.087,0,0,1-.678,1.276,1.061,1.061,0,0,1-1.432-.428,17.454,17.454,0,0,1-1.253-2.566,1.482,1.482,0,0,1,.27-1.221,28.836,28.836,0,0,1,2.2-2.24,1.163,1.163,0,0,1,1.757-.075,1.189,1.189,0,0,1-.079,1.712c-.147.169-.3.33-.53.575a10.678,10.678,0,0,1,4.838,2.744,10.417,10.417,0,0,1,2.781,4.886" transform="translate(-323.785 -29.336)" fill="#12263f"/>
    <path id="Trazado_601743" data-name="Trazado 601743" d="M260.094,244.871q0,6.731,0,13.462c0,1.447-.316,1.761-1.769,1.761q-13.393,0-26.786,0c-1.466,0-1.814-.346-1.814-1.8q0-13.393,0-26.786c0-1.394.389-1.78,1.788-1.78H258.3c1.45,0,1.794.349,1.795,1.822q0,6.662,0,13.325m-2.382-12.712H232.151v25.525h25.561Z" transform="translate(-198.254 -198.254)" fill="#12263f"/>
  </g>
</svg>
