<svg xmlns="http://www.w3.org/2000/svg" xmlns:xlink="http://www.w3.org/1999/xlink" width="121" height="121" viewBox="0 0 121 121">
  <defs>
    <clipPath id="clip-path">
      <rect id="Rectángulo_299165" data-name="Rectángulo 299165" width="88.371" height="100.631" fill="#12263f"/>
    </clipPath>
  </defs>
  <g id="Grupo_889583" data-name="Grupo 889583" transform="translate(5375 3450)">
    <g id="Grupo_889580" data-name="Grupo 889580" transform="translate(-8 10.416)">
      <g id="Grupo_889577" data-name="Grupo 889577" transform="translate(-5351 -3450.416)">
        <g id="Grupo_888294" data-name="Grupo 888294" clip-path="url(#clip-path)">
          <path id="Trazado_603557" data-name="Trazado 603557" d="M4.479,220.665a15.043,15.043,0,0,1-1.693-.732A5.583,5.583,0,0,1,0,214.667q.019-18.914.006-37.828,0-12.527,0-25.055a5.744,5.744,0,0,1,.045-1.077,1.364,1.364,0,0,1,1.509-1.241,1.338,1.338,0,0,1,1.375,1.375c.027.358.016.72.016,1.08q0,31.146,0,62.293a8.493,8.493,0,0,0,.065,1.37,2.446,2.446,0,0,0,2.347,2.121c.326.023.655.011.982.011H69.706c2.642,0,3.5-.938,3.287-3.783H71.88q-9.086,0-18.172,0c-2.725,0-4.052-1.328-4.057-4.022,0-.786,0-1.572,0-2.358v-2.977H10.23c-1.573,0-2.214-.408-2.24-1.42-.028-1.052.67-1.527,2.247-1.527H49.582v-3.381H10.318a5.309,5.309,0,0,1-1.077-.037A1.38,1.38,0,0,1,8,196.7a1.353,1.353,0,0,1,1.366-1.386c.325-.031.654-.011.982-.011H49.573a2.172,2.172,0,0,0-.912-2.474,5.236,5.236,0,0,0-3.535-.939q-8.1.006-16.207,0a5.762,5.762,0,0,1-1.172-.074,1.322,1.322,0,0,1-1.126-1.494,1.307,1.307,0,0,1,1.205-1.33,7.326,7.326,0,0,1,1.077-.045q8.153,0,16.306,0h1.216a5.088,5.088,0,0,1,1.852-3.627c.131-.107.153-.395.154-.6a2.369,2.369,0,0,0-.145-.567c-.677-2.616.282-4.215,2.912-4.916q10.232-2.727,20.459-5.474c1.4-.374,1.394-.38,1.394-1.863,0-3.144.007-6.288,0-9.432a1.561,1.561,0,0,1,1.042-1.7c1.01-.338,1.9.4,1.9,1.593.017,3.013.006,6.026.006,9.039v1.189c1.7-.447,3.3-.872,4.906-1.291a3.491,3.491,0,0,1,4.7,2.717c.444,1.641.889,3.282,1.319,4.927.364,1.393.011,2.006-1.392,2.387-2.9.788-5.8,1.581-8.717,2.322-.622.158-.87.392-.83,1.047.056.907.014,1.819.014,2.851h2.909c2.423,0,4.847.036,7.268-.017a2.21,2.21,0,0,1,2.195,1.111v8.254c-.064.113-.134.223-.191.34a1.464,1.464,0,0,1-2.8-.7c0-.59,0-1.179,0-1.769,0-1.393,0-2.786,0-4.271H83.084q-13.311,0-26.621-.012a1.342,1.342,0,0,0-1.312.724,6.308,6.308,0,0,1-1.828,1.846,1.3,1.3,0,0,0-.738,1.284c.022,5.142.035,10.285-.007,15.427-.008.95.284,1.25,1.227,1.248q15.177-.038,30.354,0c.95,0,1.263-.321,1.238-1.26-.054-2.029-.031-4.061-.006-6.092.012-.981.68-1.748,1.48-1.545.555.141,1,.7,1.5,1.069v7.664c-.992,2.563-1.768,3.095-4.516,3.1h-7.8a19.027,19.027,0,0,1-.164,2.274,5.633,5.633,0,0,1-4.42,4.456Zm79.315-41.946c-.341-1.305-.7-2.525-.969-3.765-.188-.871-.613-.986-1.408-.771q-14.714,3.977-29.44,7.912c-.455.122-1.1.124-.931.847.143.606.037,1.328,1,1.581a5.733,5.733,0,0,1,2.349,1.29,1.463,1.463,0,0,0,1.615.383q9.746-2.639,19.5-5.242c2.739-.735,5.477-1.476,8.286-2.234M63.226,187.3l.027.17h9.734v-2.794L63.226,187.3M51.1,187.31a1.694,1.694,0,0,0-1.656,1.7,1.676,1.676,0,0,0,1.644,1.7,1.706,1.706,0,0,0,1.721-1.736,1.729,1.729,0,0,0-1.709-1.66" transform="translate(0 -120.034)" fill="#12263f"/>
          <path id="Trazado_603558" data-name="Trazado 603558" d="M302.812,370.44c-.5-.371-.947-.929-1.5-1.069-.8-.2-1.469.564-1.48,1.545-.024,2.03-.048,4.062.006,6.092.025.94-.287,1.262-1.238,1.26q-15.177-.038-30.354,0c-.943,0-1.234-.3-1.227-1.247.042-5.142.03-10.284.007-15.427a1.3,1.3,0,0,1,.738-1.284,6.305,6.305,0,0,0,1.828-1.846,1.342,1.342,0,0,1,1.312-.724q13.31.026,26.621.012h2.3c0,1.485,0,2.878,0,4.271,0,.59,0,1.179,0,1.769a1.464,1.464,0,0,0,2.8.7c.057-.117.127-.227.191-.341Zm-19.352-10.254q-5.6,0-11.194,0c-1.334,0-1.844.5-1.847,1.834q-.014,5.942,0,11.884c0,1.393.5,1.885,1.9,1.886q11.1.007,22.191,0c1.421,0,1.871-.453,1.874-1.885q.012-5.893,0-11.786c0-1.493-.443-1.932-1.922-1.934q-5.5-.007-11,0" transform="translate(-214.441 -287.299)" fill="#12263f"/>
          <path id="Trazado_603560" data-name="Trazado 603560" d="M72.969,22.023H71.807q-5.843,0-11.686,0c-3.9,0-6.1-2.195-6.105-6.064q0-5.845,0-11.689V3.089c-.5-.046-.942-.123-1.385-.123q-23.372-.009-46.745,0c-1.962,0-2.909.972-2.911,3q-.012,8.6,0,17.19a7.31,7.31,0,0,1-.036,1.078,1.307,1.307,0,0,1-1.239,1.19,1.316,1.316,0,0,1-1.531-.937,3.782,3.782,0,0,1-.134-1.159q-.012-8.644,0-17.288C.029,2.226,2.258.013,6.079.013Q29.205.011,52.332,0a8.567,8.567,0,0,1,6.416,2.645Q66.039,10.009,73.4,17.3a8.39,8.39,0,0,1,2.626,6.326c-.041,3.732.021,7.466-.044,11.2a2.343,2.343,0,0,1-.753,1.649c-.975.724-2.15-.146-2.155-1.534-.013-3.8,0-7.6-.009-11.395,0-.48-.059-.961-.1-1.522M56.962,5.29c0,3.63,0,7.224,0,10.818,0,1.992.961,2.959,2.939,2.964,3.339.008,6.678,0,10.018,0h.832L56.962,5.29" transform="translate(-0.018 0)" fill="#12263f"/>
          <path id="Trazado_603561" data-name="Trazado 603561" d="M57.315,276.392q6.578,0,13.156,0c2.322,0,3.468,1.162,3.478,3.509,0,.982.021,1.965-.009,2.946a2.964,2.964,0,0,1-2.991,3q-13.744.03-27.49,0a2.961,2.961,0,0,1-2.977-3.014c-.03-1.047-.018-2.095-.007-3.142a3.034,3.034,0,0,1,3.292-3.3q6.774-.013,13.548,0m13.648,3H43.475v3.454H70.963Z" transform="translate(-32.495 -221.967)" fill="#12263f"/>
          <path id="Trazado_603562" data-name="Trazado 603562" d="M57.333,63.68q6.578,0,13.156,0c2.329,0,3.47,1.156,3.481,3.5,0,.851.006,1.7,0,2.553-.017,2.233-1.221,3.416-3.487,3.423-1.833.006-3.665,0-5.5,0q-10.457,0-20.913,0c-2.4,0-3.568-1.162-3.578-3.528,0-.884-.008-1.768,0-2.652a3.021,3.021,0,0,1,3.289-3.3c4.516-.011,9.033,0,13.549,0M43.488,70.152H70.959V66.71H43.488Z" transform="translate(-32.517 -51.139)" fill="#12263f"/>
          <path id="Trazado_603563" data-name="Trazado 603563" d="M68.632,204.589H42.812a6.244,6.244,0,0,1-.882-.015,1.462,1.462,0,0,1-.049-2.907,4.849,4.849,0,0,1,.882-.025H94.5a4.959,4.959,0,0,1,.882.024,1.463,1.463,0,0,1-.048,2.909,6.524,6.524,0,0,1-.883.014H68.632" transform="translate(-32.606 -161.932)" fill="#12263f"/>
          <path id="Trazado_603564" data-name="Trazado 603564" d="M62.267,169.533H81.712a8.8,8.8,0,0,1,.981.021,1.342,1.342,0,0,1,1.266,1.286,1.327,1.327,0,0,1-.989,1.5,3.975,3.975,0,0,1-1.16.13q-19.543.009-39.086,0a4.042,4.042,0,0,1-1.16-.128,1.439,1.439,0,0,1,.278-2.792,7.535,7.535,0,0,1,.981-.022H62.267" transform="translate(-32.589 -136.148)" fill="#12263f"/>
          <path id="Trazado_603565" data-name="Trazado 603565" d="M153.8,140.077q-8.2,0-16.4,0a6.127,6.127,0,0,1-1.077-.053,1.438,1.438,0,0,1-.15-2.778,4.272,4.272,0,0,1,1.164-.11q16.551-.008,33.1,0a4.591,4.591,0,0,1,1.072.078,1.329,1.329,0,0,1,1.1,1.516,1.313,1.313,0,0,1-1.226,1.31,7.736,7.736,0,0,1-1.078.039q-8.251,0-16.5,0" transform="translate(-108.557 -110.128)" fill="#12263f"/>
          <path id="Trazado_603566" data-name="Trazado 603566" d="M50.471,236.8c-2.684,0-5.368.005-8.053,0-1.224,0-1.822-.473-1.844-1.412-.023-.976.615-1.526,1.858-1.529q8.1-.015,16.2,0a3.663,3.663,0,0,1,.49.02,1.462,1.462,0,0,1,1.408,1.576,1.386,1.386,0,0,1-1.52,1.345q-4.272.009-8.544,0Z" transform="translate(-32.585 -187.805)" fill="#12263f"/>
          <path id="Trazado_603567" data-name="Trazado 603567" d="M50.543,449.7c-2.586,0-5.171,0-7.757,0a4.583,4.583,0,0,1-1.167-.1,1.317,1.317,0,0,1-1.031-1.469,1.3,1.3,0,0,1,1.109-1.309,4.761,4.761,0,0,1,.977-.06q7.9,0,15.809,0c.164,0,.328,0,.491,0a1.467,1.467,0,1,1,.014,2.927c-.521.036-1.047.016-1.57.016q-3.437,0-6.873,0" transform="translate(-32.594 -358.783)" fill="#12263f"/>
          <path id="Trazado_603568" data-name="Trazado 603568" d="M282.943,172.477c-.981,0-1.963.022-2.943-.006-1.048-.031-1.715-.645-1.7-1.509s.679-1.421,1.749-1.427q2.894-.016,5.788,0c1.12.007,1.714.511,1.728,1.424s-.6,1.48-1.677,1.512c-.98.029-1.962.006-2.943.006" transform="translate(-223.499 -136.146)" fill="#12263f"/>
          <path id="Trazado_603569" data-name="Trazado 603569" d="M75.24,140.027c-.978,0-1.957.021-2.935-.007a1.47,1.47,0,1,1,.013-2.925q2.983-.046,5.967,0c1.074.015,1.675.616,1.644,1.526-.03.867-.612,1.379-1.657,1.4-1.01.023-2.022.005-3.033,0" transform="translate(-56.775 -110.081)" fill="#12263f"/>
          <path id="Trazado_603570" data-name="Trazado 603570" d="M75.4,349.926c.978,0,1.957-.025,2.934.006,1.024.033,1.6.59,1.59,1.469a1.4,1.4,0,0,1-1.519,1.445q-3.079.061-6.161,0a1.462,1.462,0,1,1,.026-2.915c1.042-.032,2.086-.007,3.13-.008" transform="translate(-56.768 -281.016)" fill="#12263f"/>
          <path id="Trazado_603571" data-name="Trazado 603571" d="M291.88,279.157c-2.81.758-5.547,1.5-8.286,2.234q-9.751,2.618-19.5,5.242a1.463,1.463,0,0,1-1.615-.383,5.729,5.729,0,0,0-2.349-1.29c-.96-.253-.853-.975-1-1.581-.171-.722.475-.724.931-.847q14.721-3.952,29.44-7.911c.8-.215,1.22-.1,1.408.771.267,1.24.628,2.459.969,3.765" transform="translate(-208.086 -220.472)" fill="#26aab7"/>
          <path id="Trazado_603572" data-name="Trazado 603572" d="M321.1,330.914l9.761-2.624v2.794h-9.734l-.027-.17" transform="translate(-257.871 -263.648)" fill="#12263f"/>
          <path id="Trazado_603573" data-name="Trazado 603573" d="M252.737,341.665a1.729,1.729,0,0,1,1.709,1.66,1.706,1.706,0,0,1-1.721,1.736,1.676,1.676,0,0,1-1.644-1.7,1.694,1.694,0,0,1,1.656-1.7" transform="translate(-201.642 -274.389)" fill="#12263f"/>
          <path id="Trazado_603574" data-name="Trazado 603574" d="M297.305,370.154q5.5,0,11,0c1.479,0,1.92.442,1.922,1.935q.01,5.893,0,11.786c0,1.432-.453,1.884-1.874,1.885q-11.1.007-22.191,0c-1.4,0-1.893-.493-1.9-1.886q-.011-5.942,0-11.885c0-1.33.513-1.831,1.847-1.834q5.6-.011,11.194,0m-10.047,12.6h19.961v-3.269H287.259Zm.01-6.344h4.586V373.13h-4.586Zm7.662,0h4.6v-3.252h-4.6Zm7.67-.006h4.6v-3.24h-4.6Z" transform="translate(-228.286 -297.267)" fill="#12263f"/>
          <path id="Trazado_603575" data-name="Trazado 603575" d="M289.19,26.867l13.79,13.785h-.832c-3.339,0-6.678.006-10.018,0-1.978,0-2.935-.972-2.939-2.964-.006-3.595,0-7.189,0-10.818" transform="translate(-232.245 -21.577)" fill="#1565c0"/>
          <rect id="Rectángulo_299159" data-name="Rectángulo 299159" width="27.488" height="3.455" transform="translate(10.98 57.425)" fill="#26aab7"/>
          <rect id="Rectángulo_299160" data-name="Rectángulo 299160" width="27.471" height="3.442" transform="translate(10.971 15.572)" fill="#26aab7"/>
          <rect id="Rectángulo_299161" data-name="Rectángulo 299161" width="19.961" height="3.269" transform="translate(58.973 82.22)" fill="#1565c0"/>
          <rect id="Rectángulo_299162" data-name="Rectángulo 299162" width="4.586" height="3.283" transform="translate(58.983 75.862)" fill="#fb8c00"/>
          <rect id="Rectángulo_299163" data-name="Rectángulo 299163" width="4.597" height="3.252" transform="translate(66.645 75.894)" fill="#fb8c00"/>
          <rect id="Rectángulo_299164" data-name="Rectángulo 299164" width="4.595" height="3.24" transform="translate(74.316 75.901)" fill="#fb8c00"/>
        </g>
      </g>
    </g>
    <rect id="Rectángulo_300217" data-name="Rectángulo 300217" width="121" height="121" transform="translate(-5375 -3450)" fill="none"/>
  </g>
</svg>
