<svg xmlns="http://www.w3.org/2000/svg" xmlns:xlink="http://www.w3.org/1999/xlink" width="108.419" height="108.419" viewBox="0 0 108.419 108.419">
  <defs>
    <linearGradient id="linear-gradient" x1="0.5" x2="0.5" y2="1" gradientUnits="objectBoundingBox">
      <stop offset="0" stop-color="#fdbe41"/>
      <stop offset="1" stop-color="#d09f40"/>
    </linearGradient>
  </defs>
  <g id="Grupo_889654" data-name="Grupo 889654" transform="translate(5412.745 885.845)">
    <path id="Trazado_197541" data-name="Trazado 197541" d="M54.209,0A54.209,54.209,0,1,1,0,54.209,54.209,54.209,0,0,1,54.209,0Z" transform="translate(-5412.745 -885.845)" fill="url(#linear-gradient)"/>
    <g id="ofUhqc.tif" transform="translate(-5390.785 -867.356)">
      <g id="Grupo_154919" data-name="Grupo 154919" transform="translate(0 0)">
        <path id="Trazado_195237" data-name="Trazado 195237" d="M-373.319,195.877a4.109,4.109,0,0,1-2.285-2.348c-1.424-2.928-2.91-5.827-4.345-8.749a2.885,2.885,0,0,1-.289-1.221q-.026-9.891,0-19.782a.955.955,0,0,0-.552-1,3.2,3.2,0,0,1-.018-5.585.69.69,0,0,0,.369-.92,7.181,7.181,0,0,0-2.017-3.472,14.351,14.351,0,0,1-4.108-7.647,14.25,14.25,0,0,1,11.062-16.433,14.093,14.093,0,0,1,16.8,11.5,13.687,13.687,0,0,1-3.972,12.433,7.732,7.732,0,0,0-2.16,3.619.693.693,0,0,0,.366.922,3.207,3.207,0,0,1-.069,5.623.857.857,0,0,0-.5.9q.016,9.925,0,19.85a2.886,2.886,0,0,1-.288,1.222c-1.436,2.924-2.924,5.822-4.346,8.752a4.161,4.161,0,0,1-2.285,2.348Zm-.387-45.774v6.565h2.162v-6.574l2.165-.644v7.267c.677,0,1.285.026,1.888-.018a.592.592,0,0,0,.409-.384,9.4,9.4,0,0,1,2.79-5.162,11.74,11.74,0,0,0,3.512-9.941,11.93,11.93,0,0,0-14.585-10.264,11.463,11.463,0,0,0-8.758,8.413,11.474,11.474,0,0,0,3.051,11.694,9.77,9.77,0,0,1,2.877,5.267.592.592,0,0,0,.415.378c.6.044,1.21.018,1.888.018V149.45Zm-3.579,34.923a.718.718,0,0,0,.025.217c1.319,2.65,2.632,5.3,3.978,7.94a.871.871,0,0,0,.67.433,1.1,1.1,0,0,0,.674-.551c1.3-2.535,2.56-5.085,3.831-7.632.058-.116.1-.241.16-.407Zm-.747-21.755v19.5h2.1v-19.5ZM-371.6,182.8V163.3h-2.095v19.5Zm2.268-19.525v19.5h2.095v-19.5Zm-3.228-4.381c-2.148,0-4.3-.007-6.445,0a1.132,1.132,0,0,0-1.244,1.071,1.119,1.119,0,0,0,1.215,1.1c4.252.01,8.5.019,12.754-.019a1.526,1.526,0,0,0,1.066-.555c.524-.721-.093-1.59-1.1-1.6C-368.4,158.88-370.477,158.889-372.558,158.89Z" transform="translate(405.119 -128.444)" fill="#12263f"/>
        <path id="Trazado_195238" data-name="Trazado 195238" d="M-125.163,275.244l-1.881,1.118-3.29-5.241-.115.029V297.5h-2.17V271.158l-.153-.04-3.293,5.256-1.862-1.161,6.358-10.174c.178.264.306.442.422.627q2.79,4.46,5.58,8.92a6.55,6.55,0,0,0,.4.522Z" transform="translate(190.138 -246.428)" fill="#12263f"/>
        <path id="Trazado_195239" data-name="Trazado 195239" d="M-449.269,326.681l1.859-1.165,3.391,5.408V304.4h2.19v26.327l.145.055,3.3-5.269,1.858,1.166-6.373,10.2Z" transform="translate(459.06 -280.424)" fill="#12263f"/>
        <path id="Trazado_195240" data-name="Trazado 195240" d="M-521.128,398.505l1.86-1.165,3.4,5.425V376.218h2.19v26.336l.136.048,3.3-5.266,1.858,1.167-6.374,10.2Z" transform="translate(521.128 -342.459)" fill="#12263f"/>
        <path id="Trazado_195241" data-name="Trazado 195241" d="M-204.615,342.821l-3.294,5.252-1.859-1.164,6.371-10.2,6.376,10.194-1.856,1.171-3.4-5.426v26.554h-2.166V342.873Z" transform="translate(252.19 -308.336)" fill="#12263f"/>
        <path id="Trazado_195242" data-name="Trazado 195242" d="M-479.87,282.526h-2.062v-2.11h2.062Z" transform="translate(487.272 -259.71)" fill="#12263f"/>
        <path id="Trazado_195243" data-name="Trazado 195243" d="M-479.87,314.462h-2.062v-2.11h2.062Z" transform="translate(487.272 -287.295)" fill="#12263f"/>
        <path id="Trazado_195244" data-name="Trazado 195244" d="M-479.874,346.358h-2.087v-2.1h2.087Z" transform="translate(487.297 -314.854)" fill="#12263f"/>
        <path id="Trazado_195245" data-name="Trazado 195245" d="M-98.715,519.776h2.074v2.11h-2.074Z" transform="translate(156.269 -466.457)" fill="#12263f"/>
        <path id="Trazado_195246" data-name="Trazado 195246" d="M-99.022,554V551.93h2.11V554Z" transform="translate(156.534 -494.23)" fill="#12263f"/>
        <path id="Trazado_195247" data-name="Trazado 195247" d="M-96.707,583.733v2.087h-2.1v-2.087Z" transform="translate(156.347 -521.7)" fill="#12263f"/>
        <path id="Trazado_195248" data-name="Trazado 195248" d="M-301.5,177.458l1.739,1.724-9.563,9.216-2.86-2.781,1.539-1.511,1.47,1.4Z" transform="translate(340.649 -170.78)" fill="#12263f"/>
      </g>
    </g>
  </g>
</svg>
