<svg xmlns="http://www.w3.org/2000/svg" xmlns:xlink="http://www.w3.org/1999/xlink" width="126" height="126" viewBox="0 0 126 126">
  <defs>
    <filter id="Elipse_6232" x="0" y="0" width="126" height="126" filterUnits="userSpaceOnUse">
      <feOffset dy="3" input="SourceAlpha"/>
      <feGaussianBlur stdDeviation="3" result="blur"/>
      <feFlood flood-opacity="0.161"/>
      <feComposite operator="in" in2="blur"/>
      <feComposite in="SourceGraphic"/>
    </filter>
    <clipPath id="clip-path">
      <rect id="Rectángulo_299170" data-name="Rectángulo 299170" width="62.683" height="62.855" fill="#1565c0"/>
    </clipPath>
  </defs>
  <g id="Grupo_889587" data-name="Grupo 889587" transform="translate(-801.611 -8663.893)">
    <g transform="matrix(1, 0, 0, 1, 801.61, 8663.89)" filter="url(#Elipse_6232)">
      <circle id="Elipse_6232-2" data-name="Elipse 6232" cx="54" cy="54" r="54" transform="translate(9 6)" fill="#fff"/>
    </g>
    <g id="Grupo_888299" data-name="Grupo 888299" transform="translate(838.219 8690.394)">
      <g id="Grupo_888298" data-name="Grupo 888298" clip-path="url(#clip-path)">
        <path id="Trazado_603602" data-name="Trazado 603602" d="M50.894,26.047a4.711,4.711,0,0,0,.57.108,1.151,1.151,0,0,1,1.215,1.114.952.952,0,0,0,.881.988,1.955,1.955,0,0,1,.691.264,1.636,1.636,0,0,0,2.178-.007,1.159,1.159,0,0,1,1.1.12,36.973,36.973,0,0,1,2.678,2.657,1.087,1.087,0,0,1-.108,1.536.832.832,0,0,0-.078,1.144,2.628,2.628,0,0,1,.358.8c.216.794.509,1.421,1.508,1.494.277.02.712.571.735.9a33.87,33.87,0,0,1,.019,3.7,1.064,1.064,0,0,1-1.07,1.029c-.541.061-.925.258-.995.872a1.882,1.882,0,0,1-.263.691c-.418.729-.684,1.4,0,2.18a1.232,1.232,0,0,1-.154,1.151,36.375,36.375,0,0,1-2.553,2.593,1,1,0,0,1-1.419.042,1.114,1.114,0,0,0-1.56-.072,1.943,1.943,0,0,1-.617.267c-.778.206-1.364.516-1.438,1.479-.021.278-.564.552-.911.756a2.269,2.269,0,0,1-.769.118c0,.651,0,1.255,0,1.859a2.264,2.264,0,0,1-2.5,2.52c-.222,0-.443,0-.747,0,0,1.346,0,2.646,0,3.947,0,1.775-.777,2.551-2.553,2.551H5.912C2.247,62.855,0,60.619,0,56.97Q0,30.338.021,3.706a2.687,2.687,0,0,1,.509-1.47C2.653-.681,7.586-.651,9.91,1.785a1.307,1.307,0,0,0,1.059.425q18.675-.015,37.35-.008a2.28,2.28,0,0,1,2.572,2.583q0,10.287,0,20.575v.688M48.707,4.432H10.879V54.159h37.77V52c-.138-.033-.244-.067-.353-.082-1.028-.146-1.206-.278-1.4-1.318a.849.849,0,0,0-.7-.757,6.082,6.082,0,0,1-1.428-.6.865.865,0,0,0-1.146.073,1.115,1.115,0,0,1-1.593.083c-.887-.827-1.741-1.691-2.58-2.567a.906.906,0,0,1-.143-1.241,1.524,1.524,0,0,0,.038-2.044,2.1,2.1,0,0,1-.3-.75,1,1,0,0,0-1.044-.911,1.044,1.044,0,0,1-1.037-1.053,32.136,32.136,0,0,1,.025-3.634,1.288,1.288,0,0,1,.777-.945,1.489,1.489,0,0,0,1.4-1.339,2.323,2.323,0,0,1,.354-.8.99.99,0,0,0-.068-1.381,1.091,1.091,0,0,1,.053-1.587c.725-.768,1.443-1.549,2.229-2.252s1.079-.7,1.964-.093a.8.8,0,0,0,.972.063c.51-.278,1.089-.429,1.6-.7a1.157,1.157,0,0,0,.556-.617c.3-1.14.364-1.22,1.56-1.424a1.762,1.762,0,0,0,.31-.116ZM8.634,52.768c.014-.183.027-.271.027-.36q0-24.187-.014-48.374a1.25,1.25,0,0,0-.365-.8A4.465,4.465,0,0,0,2.783,3a1.488,1.488,0,0,0-.631,1.311q.026,23.815.014,47.63v.814a7.5,7.5,0,0,1,6.468.013m36.859,3.589h-.611l-12.718,0c-7.352,0-14.7.007-22.055-.023a1.7,1.7,0,0,1-1.233-.485A4.359,4.359,0,0,0,3.467,54.6c-.874.358-1.5.906-1.305,1.99a3.084,3.084,0,0,1,0,.541,3.282,3.282,0,0,0,3.589,3.56q19.518,0,39.035,0h.7ZM56.886,30.774c-.343.221-.554.448-.8.5a2.43,2.43,0,0,1-1.206.016,32.2,32.2,0,0,1-3.157-1.325c-.341-.165-.78-.53-.817-.846-.1-.878-.594-.934-1.291-.924-.538.008-.763.186-.813.717-.06.633-.465.937-1.071,1.142a23.943,23.943,0,0,0-2.85,1.193,1.326,1.326,0,0,1-1.51-.058c-.178-.129-.371-.235-.536-.338l-1.293,1.1.486.737a1.273,1.273,0,0,1,.039,1.339c-.464,1.019-.84,2.078-1.326,3.086-.165.342-.525.782-.842.823-.857.111-.977.563-.93,1.283.031.463.09.764.648.8.693.043,1.022.481,1.235,1.143a17.959,17.959,0,0,0,1.137,2.728,1.384,1.384,0,0,1-.05,1.627c-.117.159-.21.335-.329.528l1.18,1.318c.9-1.019,1.725-.807,2.66-.217a7.558,7.558,0,0,0,2.127.827c.725.188,1.2.541,1.248,1.3.052.777.617.557,1.043.576s.869.106.916-.569a1.3,1.3,0,0,1,.972-1.229c1.056-.365,2.058-.887,3.112-1.262a2.394,2.394,0,0,1,1.2.011,2.7,2.7,0,0,1,.757.455l1.315-1.21c-1.034-.89-.81-1.715-.226-2.655a8.389,8.389,0,0,0,.842-2.194c.184-.665.508-1.133,1.208-1.169.716-.036.678-.491.669-.979-.009-.467.1-.959-.64-1-.694-.039-1.01-.495-1.224-1.155A21.168,21.168,0,0,0,57.6,34.1a1.3,1.3,0,0,1,.028-1.451c.138-.2.258-.408.435-.689l-1.178-1.185" transform="translate(0 0)" fill="#1565c0"/>
        <path id="Trazado_603603" data-name="Trazado 603603" d="M153.059,64.706c0,.285.011.508,0,.73a2.13,2.13,0,0,1-2.1,2.065q-6.561.031-13.121,0a2.1,2.1,0,0,1-2.091-2.14q-.028-4.33,0-8.659a2.2,2.2,0,0,1,1.627-2.14c-1.017-2.337-.707-4.382,1.469-5.874,1.676-1.15,3.444-.869,5.557.73,2.192-1.641,4.015-1.838,5.735-.621,1.78,1.26,2.191,3.042,1.307,5.762a2.4,2.4,0,0,1,1.619,2.78l3.833-1.266c.406-.134.807-.287,1.218-.4a1.047,1.047,0,0,1,1.432.978q.041,4.363,0,8.727a1.051,1.051,0,0,1-1.49.963c-1.436-.459-2.863-.947-4.294-1.42-.21-.07-.424-.128-.7-.211m-2.192-7.975H137.958V65.31h12.909Zm6.5,1.47c-.8.267-1.521.5-2.241.753-.676.235-1.605.3-1.946.782s-.1,1.385-.114,2.1c0,.09-.03.2.008.267.075.14.161.334.288.378,1.314.455,2.636.885,4.005,1.338ZM141.05,54.51a2.163,2.163,0,1,0-2.061-2.244,2.187,2.187,0,0,0,2.061,2.244m8.759-2.182a2.16,2.16,0,1,0-2.122,2.183,2.165,2.165,0,0,0,2.122-2.183" transform="translate(-117.33 -41.481)" fill="#1565c0"/>
        <path id="Trazado_603604" data-name="Trazado 603604" d="M145.086,359.745h7.5c.18,0,.361-.009.54,0a1.089,1.089,0,0,1,1.087,1.068,1.073,1.073,0,0,1-1.063,1.088c-.4.026-.81.005-1.216.005H137.542c-.18,0-.361.005-.541,0a1.085,1.085,0,1,1-.024-2.161c.315-.012.631,0,.946,0h7.162" transform="translate(-117.4 -310.969)" fill="#1565c0"/>
        <path id="Trazado_603605" data-name="Trazado 603605" d="M144.476,215.934H151.5c.158,0,.316-.005.473,0a1.1,1.1,0,0,1,1.152,1.073,1.075,1.075,0,0,1-1.133,1.088c-.81.022-1.621.01-2.432.01h-12.43c-.839-.012-1.333-.428-1.319-1.109.014-.656.491-1.057,1.3-1.059,2.455-.006,4.909,0,7.364,0Z" transform="translate(-117.401 -186.657)" fill="#1565c0"/>
        <path id="Trazado_603606" data-name="Trazado 603606" d="M143.39,263.9q3.113,0,6.225,0c.854,0,1.349.406,1.348,1.081s-.5,1.081-1.349,1.082q-6.225,0-12.45,0c-.853,0-1.348-.407-1.347-1.083s.494-1.079,1.348-1.08q3.113-.006,6.225,0" transform="translate(-117.403 -228.119)" fill="#1565c0"/>
        <path id="Trazado_603607" data-name="Trazado 603607" d="M143.3,313.973q-3.074,0-6.147,0c-.854,0-1.35-.4-1.355-1.07s.49-1.1,1.332-1.1q6.249-.006,12.5,0c.84,0,1.335.425,1.321,1.1-.014.652-.5,1.059-1.3,1.061-2.117.007-4.233,0-6.35,0" transform="translate(-117.387 -269.529)" fill="#1565c0"/>
        <path id="Trazado_603608" data-name="Trazado 603608" d="M106.02,217.114a1.077,1.077,0,1,1-1.049-1.105,1.092,1.092,0,0,1,1.049,1.105" transform="translate(-89.784 -186.723)" fill="#1565c0"/>
        <path id="Trazado_603609" data-name="Trazado 603609" d="M104.9,263.913a1.08,1.08,0,1,1-1.06,1.081,1.09,1.09,0,0,1,1.06-1.081" transform="translate(-89.763 -228.132)" fill="#1565c0"/>
        <path id="Trazado_603610" data-name="Trazado 603610" d="M106.022,312.926a1.077,1.077,0,1,1-1.1-1.055,1.091,1.091,0,0,1,1.1,1.055" transform="translate(-89.785 -269.589)" fill="#1565c0"/>
        <path id="Trazado_603611" data-name="Trazado 603611" d="M105.993,360.866a1.08,1.08,0,1,1-1.051-1.092,1.09,1.09,0,0,1,1.051,1.092" transform="translate(-89.757 -310.997)" fill="#1565c0"/>
        <path id="Trazado_603612" data-name="Trazado 603612" d="M325.955,252.939a6.5,6.5,0,1,1,6.508-6.415,6.5,6.5,0,0,1-6.508,6.415m.027-10.827a4.332,4.332,0,1,0,4.316,4.363,4.334,4.334,0,0,0-4.316-4.363" transform="translate(-276.16 -207.416)" fill="#1565c0"/>
      </g>
    </g>
  </g>
</svg>
