<svg xmlns="http://www.w3.org/2000/svg" xmlns:xlink="http://www.w3.org/1999/xlink" width="205.962" height="176.9" viewBox="0 0 205.962 176.9">
  <defs>
    <clipPath id="clip-path">
      <rect id="Rectángulo_299354" data-name="Rectángulo 299354" width="135.308" height="135.339" fill="#12263f"/>
    </clipPath>
  </defs>
  <g id="Grupo_169367" data-name="Grupo 169367" transform="translate(44.926 44.403)">
    <rect id="Rectángulo_49533" data-name="Rectángulo 49533" width="144.8" height="111.233" transform="translate(16.236 21.265)" fill="#ffde96"/>
    <g id="Grupo_169217" data-name="Grupo 169217" transform="translate(-44.926 -44.403)">
      <rect id="Rectángulo_49754" data-name="Rectángulo 49754" width="166.13" height="153.889" transform="translate(0 0)" fill="none"/>
      <g id="Grupo_888478" data-name="Grupo 888478" transform="translate(20.655 18.551)">
        <g id="Grupo_888477" data-name="Grupo 888477" clip-path="url(#clip-path)">
          <path id="Trazado_604642" data-name="Trazado 604642" d="M67.649,0Q98.3,0,128.958,0a6.32,6.32,0,0,1,6.349,6.36q0,46.407,0,92.813a6.317,6.317,0,0,1-6.523,6.539q-30.972,0-61.943.006a2.139,2.139,0,0,1-2.137-1.188,2.018,2.018,0,0,1,.2-2.2,2.115,2.115,0,0,1,1.837-.85q6.448.013,12.9,0h48.554c.282,0,.565.009.845-.011a2.121,2.121,0,0,0,2.041-2.039c.025-.374.01-.752.01-1.127q0-45.7,0-91.405c0-1.931-.742-2.684-2.684-2.684q-27.1,0-54.192,0-33.65,0-67.3,0c-1.936,0-2.687.752-2.688,2.673q0,45.913,0,91.827c0,.211,0,.423.006.634a2.106,2.106,0,0,0,2.1,2.117c1.033.034,2.067.005,3.1.014a2.113,2.113,0,1,1-.014,4.223c-1.01.006-2.02,0-3.03,0A6.3,6.3,0,0,1,0,99.321Q0,67.925,0,36.529,0,21.554,0,6.578A6.3,6.3,0,0,1,6.551,0h61.1" transform="translate(0 0)" fill="#12263f"/>
          <path id="Trazado_604643" data-name="Trazado 604643" d="M74.692,241.778a16.3,16.3,0,0,0-8.213,5.447,10.691,10.691,0,0,0-2.325,6.593q-.045,18.674-.018,37.349c0,.113.018.226.032.384H106.4c0-.278,0-.549,0-.82-.007-11.98-.054-23.96,0-35.939a12,12,0,0,0-5.773-10.7,51.2,51.2,0,0,0-4.68-2.453l3.309-3.1a18.63,18.63,0,0,1,4.949,2.846,15.966,15.966,0,0,1,6.423,13.162c-.028,12.238,0,24.476,0,36.715a11.26,11.26,0,0,1-.1,1.614,2.95,2.95,0,0,1-2.7,2.8,11.839,11.839,0,0,1-1.75.152c-.911.024-1.823.006-2.841.006v1.3q0,19.274-.012,38.547a10.328,10.328,0,0,1-.265,2.3,2.672,2.672,0,0,1-2.284,2.115,7.073,7.073,0,0,1-1.257.137c-2.325.013-4.649.008-6.974,0a7.271,7.271,0,0,1-.983-.058,3.025,3.025,0,0,1-2.934-2.966,12.363,12.363,0,0,1-.086-1.546q-.005-19.344,0-38.688c0-.349,0-.7,0-1.095H82.1v.719q0,19.485,0,38.97c0,.469-.022.94-.066,1.407-.2,2.079-1.217,3.164-3.286,3.225-2.7.079-5.4.083-8.1,0-2.088-.068-3.076-1.126-3.285-3.221-.042-.42-.063-.844-.063-1.266q0-19.414,0-38.829v-1.046c-1.007,0-1.939,0-2.872,0-3.349-.005-4.519-1.132-4.523-4.47-.012-12.426-.044-24.852.016-37.278.032-6.516,3.375-11.1,8.828-14.324a24.234,24.234,0,0,1,2.2-1.1.636.636,0,0,1,.554.007c1.065,1.011,2.1,2.05,3.188,3.117m3.136,54.079H71.574v40.094h6.253Zm21.144,0H92.725v40.092h6.247Z" transform="translate(-51.443 -204.913)" fill="#12263f"/>
          <path id="Trazado_604644" data-name="Trazado 604644" d="M473.283,115.575c0-2.759,0-5.411,0-8.063,0-1.725.771-2.51,2.472-2.51h33.119a2.143,2.143,0,0,1,2.457,2.45q0,12.367,0,24.735a2.138,2.138,0,0,1-2.428,2.412H488.078v.775q0,3.735,0,7.47a2.092,2.092,0,0,1-2.3,2.325q-16.771,0-33.541,0a2.075,2.075,0,0,1-2.208-2.2q-.006-12.579,0-25.157a2.078,2.078,0,0,1,2.252-2.232q10.041,0,20.083,0Zm-19,25.325H483.8v-6.261a1.531,1.531,0,0,0-.2-.033l-7.889-.006a2.143,2.143,0,0,1-2.427-2.414q0-5.811,0-11.623v-.726h-19Zm52.777-10.56V109.282H477.507v6.293h.838q3.7,0,7.4,0a2.1,2.1,0,0,1,2.336,2.355q0,5.776,0,11.551v.857Zm-23.264-10.493H477.56v10.512h6.234Z" transform="translate(-386.598 -90.203)" fill="#12263f"/>
          <path id="Trazado_604645" data-name="Trazado 604645" d="M169.983,73.758a13.744,13.744,0,1,1-13.744-13.764,13.737,13.737,0,0,1,13.744,13.764m-4.25-.068a9.5,9.5,0,1,0-9.451,9.552,9.5,9.5,0,0,0,9.451-9.552" transform="translate(-122.412 -51.538)" fill="#12263f"/>
          <path id="Trazado_604646" data-name="Trazado 604646" d="M201.4,301.407c.6-.538,1.192-1.035,1.738-1.575a.851.851,0,0,0,.185-.619c-.378-3.689-.775-7.375-1.168-11.062-.211-1.983-.421-3.966-.634-5.965l4.191-.557c.14,1.246.29,2.519.426,3.793.515,4.831,1.017,9.663,1.545,14.493a2.535,2.535,0,0,1-.9,2.379c-1.295,1.122-2.55,2.29-3.826,3.434a2.137,2.137,0,0,1-3.191-.019c-1.307-1.214-2.589-2.456-3.9-3.663a2.419,2.419,0,0,1-.812-2.21q.94-7.935,1.866-15.872c.087-.743.177-1.486.272-2.281l4.2.505c-.172,1.481-.345,2.984-.52,4.488q-.725,6.188-1.441,12.377a.874.874,0,0,0,.154.634c.568.587,1.181,1.13,1.812,1.721" transform="translate(-167.548 -241.935)" fill="#12263f"/>
          <path id="Trazado_604647" data-name="Trazado 604647" d="M547.21,472.5q9.866,0,19.732,0a2.321,2.321,0,0,1,1.868.64,2.049,2.049,0,0,1,.436,2.285,2.015,2.015,0,0,1-1.989,1.308c-1.55.014-3.1,0-4.651,0H527.441a2.156,2.156,0,0,1-2.3-1.377,2.1,2.1,0,0,1,1.7-2.832,6.074,6.074,0,0,1,.774-.023H547.21" transform="translate(-451.013 -405.903)" fill="#12263f"/>
          <path id="Trazado_604648" data-name="Trazado 604648" d="M547.17,596.741q-9.9,0-19.8,0a2.113,2.113,0,0,1-2.329-2.091,2.085,2.085,0,0,1,1.791-2.111,4.393,4.393,0,0,1,.632-.029q19.768,0,39.536-.006a2.194,2.194,0,0,1,2.181,1.122,2.023,2.023,0,0,1-.119,2.2,2.15,2.15,0,0,1-1.946.92q-7.611-.009-15.222-.005H547.17Z" transform="translate(-451.038 -508.994)" fill="#12263f"/>
          <path id="Trazado_604649" data-name="Trazado 604649" d="M547.242,532.559q9.937,0,19.874,0a2.136,2.136,0,0,1,2.289,1.674,2.072,2.072,0,0,1-1.162,2.333,2.822,2.822,0,0,1-1.091.211q-19.909.016-39.818.006a2.119,2.119,0,1,1,.034-4.222q9.937-.005,19.874,0" transform="translate(-451.045 -457.498)" fill="#12263f"/>
          <path id="Trazado_604650" data-name="Trazado 604650" d="M401.684,722.163a2.122,2.122,0,1,1-2.1-2.1,2.1,2.1,0,0,1,2.1,2.1" transform="translate(-341.425 -618.58)" fill="#12263f"/>
          <rect id="Rectángulo_299351" data-name="Rectángulo 299351" width="6.253" height="40.094" transform="translate(20.131 90.944)" fill="#b2ebf2"/>
          <rect id="Rectángulo_299352" data-name="Rectángulo 299352" width="6.247" height="40.092" transform="translate(41.282 90.946)" fill="#b2ebf2"/>
          <path id="Trazado_604651" data-name="Trazado 604651" d="M480.222,231.315V210.251h19v.726q0,5.812,0,11.623a2.143,2.143,0,0,0,2.427,2.414l7.889.006a1.531,1.531,0,0,1,.2.033v6.261Z" transform="translate(-412.539 -180.618)" fill="#b2ebf2"/>
          <path id="Trazado_604652" data-name="Trazado 604652" d="M674.562,156.425H655.581v-.857q0-5.776,0-11.551a2.1,2.1,0,0,0-2.336-2.355q-3.7-.006-7.4,0h-.838v-6.293h29.551Z" transform="translate(-554.102 -116.288)" fill="#26aab7"/>
          <rect id="Rectángulo_299353" data-name="Rectángulo 299353" width="6.234" height="10.512" transform="translate(90.962 29.644)" fill="#b2ebf2"/>
        </g>
      </g>
    </g>
  </g>
</svg>
