<svg xmlns="http://www.w3.org/2000/svg" width="99" height="99" viewBox="0 0 99 99">
  <g id="Grupo_889649" data-name="Grupo 889649" transform="translate(4921 1109)">
    <g id="OFjhNE" transform="translate(-4905.819 -1102.512)">
      <g id="Grupo_155273" data-name="Grupo 155273" transform="translate(0)">
        <path id="Trazado_197098" data-name="Trazado 197098" d="M4293.063,4301.316h-1.211c-6.829,0-13.658.011-20.487,0a8.17,8.17,0,0,1-8.208-6.157,8.584,8.584,0,0,1-.263-2.083q-.027-12-.011-24.006c0-.208-.061-.474.042-.611.166-.222.445-.494.675-.491a.951.951,0,0,1,.646.509,2.045,2.045,0,0,1,.049.848c0,7.845-.008,15.691.011,23.537a6.734,6.734,0,0,0,3.562,6.181,6.819,6.819,0,0,0,10.067-5.6c.016-.417.009-.834.009-1.251q0-24.279,0-48.56v-.991h-13.65v1.093q0,10.321,0,20.644c0,.546.17,1.3-.684,1.308-.836.008-.725-.716-.725-1.284q0-10.987,0-21.973c0-1.209.108-1.315,1.353-1.315h13.65c.048-.653.083-1.241.135-1.829a8.232,8.232,0,0,1,2.766-5.437,1.629,1.629,0,0,0,.466-1.054c.042-2.372.006-4.744.043-7.115a3.135,3.135,0,0,1,.36-1.4c1.223-2.24,2.486-4.457,3.748-6.674.559-.981,1.115-.965,1.677.029,1.255,2.223,2.521,4.438,3.746,6.677a2.979,2.979,0,0,1,.335,1.323c.037,1.745.015,3.492.015,5.238v.925c.407.018.734.046,1.062.046q15.483,0,30.965,0a8.149,8.149,0,0,1,8.487,8.383q.032,31.122.009,62.245c0,1.065-.1,1.151-1.269,1.151q-18.023,0-36.047,0c-1.277,0-1.321-.046-1.319-1.326C4293.064,4302.016,4293.063,4301.732,4293.063,4301.316Zm-1.673-65.635-.214.065v.927q0,17.166,0,34.332c0,1.072-.1,1.178-1.152,1.18q-3.636.007-7.273,0c-1.452,0-1.474-.02-1.474-1.5q0-17.048,0-34.1v-1.048a4.968,4.968,0,0,0-.378.329,5.192,5.192,0,0,0-.331.436,7.523,7.523,0,0,0-1.173,4.375q.026,26.082.014,52.163a8.269,8.269,0,0,1-3.01,6.595,1.435,1.435,0,0,1-.434.167l.188.225h16.87c.016-.307.04-.562.04-.818,0-1.98-.026-3.963.016-5.943.015-.68-.17-.9-.872-.888-2.971.037-5.943.019-8.915.015-.959,0-1.137-.176-1.138-1.141q-.009-4.927,0-9.854c0-.939.218-1.155,1.146-1.155q20.333,0,40.666,0c1.041,0,1.165.125,1.166,1.18q.006,4.77,0,9.541c0,1.429,0,1.43-1.451,1.43-9.411,0-18.821.011-28.232-.019-.809,0-1.007.229-.995,1.009.046,2.737.035,5.475,0,8.211-.007.653.2.834.849.834q17.088-.027,34.175,0c.674,0,.819-.23.818-.855q-.021-30.539-.018-61.079a6.827,6.827,0,0,0-7.024-7.021q-15.64-.027-31.281,0c-.234,0-.468.034-.791.059a2.161,2.161,0,0,0,.218.307,8.665,8.665,0,0,1,3.085,7.111c-.042,12.174-.017,24.348-.018,36.522,0,.234.068.525-.044.688a1.183,1.183,0,0,1-.707.542c-.2.015-.5-.3-.621-.54a1.806,1.806,0,0,1-.038-.771q0-10.949,0-21.9c0-5.031.007-10.063,0-15.094A6.627,6.627,0,0,0,4291.39,4235.681Zm17.692,45.893h-4.408c-.149.581.171,1.409-.756,1.434-1,.025-.573-.915-.826-1.43h-4.313c-.19.569.135,1.43-.781,1.436-.962.007-.6-.9-.784-1.455h-4.431c0,.823,0,1.622,0,2.421,0,.5-.059,1-.709.994-.635,0-.725-.468-.72-.984.008-.8,0-1.6,0-2.434h-4.4c-.144.578.136,1.458-.8,1.456s-.635-.889-.775-1.426h-1.757c0,2.831.022,5.592-.017,8.352-.01.7.2.868.881.867q19.2-.029,38.394,0c.629,0,.865-.15.857-.82-.036-2.554-.014-5.109-.018-7.664,0-.25-.03-.5-.044-.741h-7.157c-.105.61.12,1.423-.767,1.437-.952.015-.66-.865-.811-1.437h-4.4c0,.841-.006,1.619,0,2.4.005.513-.078.981-.708,1s-.748-.454-.751-.965C4309.079,4283.2,4309.082,4282.4,4309.082,4281.573Zm-19.312-33.238V4227.7c0-1.848,0-1.848-1.828-1.848-1,0-1.006,0-1.006,1.02q0,21.067,0,42.132c0,1.78,0,1.78,1.816,1.775,1.013,0,1.017,0,1.018-1.025Q4289.771,4259.044,4289.771,4248.335Zm-7.065-22.445V4268.9c0,1.88,0,1.844,1.877,1.891.764.019.956-.229.955-.969q-.03-21.5-.018-43.01c0-.3-.037-.605-.059-.926Zm.573-1.542h5.9c-.46-.824-.846-1.56-1.278-2.268-.292-.479-3.026-.513-3.322-.038C4284.134,4222.763,4283.743,4223.518,4283.278,4224.348Zm2.963-5.242-.627,1.132h1.233Z" transform="translate(-4262.864 -4216.879)" fill="#12263f"/>
        <path id="Trazado_197099" data-name="Trazado 197099" d="M4496.63,4414.839h-4.572c-1.4,0-1.46-.059-1.459-1.445,0-1.539.023-3.077-.009-4.614-.015-.7.271-1.021.952-1.021l11.886,0c.646,0,.936.314.929.972-.018,1.694-.025,3.388,0,5.083.012.755-.348,1.025-1.044,1.023-1.665-.007-3.33,0-5.042,0a2.353,2.353,0,0,0,.667,2.481,28.358,28.358,0,0,1,2.66,2.643,1.8,1.8,0,0,0,1.505.605c1.9-.037,3.806,0,5.708-.021.722-.008,1.085.256,1.029,1.008-.017.233.021.471,0,.7a2.061,2.061,0,0,0,1.317,2.525,3.492,3.492,0,0,1,1.581,4.32,3.8,3.8,0,0,1-7.351-.693,3.8,3.8,0,0,1,2.265-3.987c.269-.117.7-.277.723-.465a7.49,7.49,0,0,0-.021-1.783c-.007-.08-.349-.184-.536-.185-1.746-.013-3.493-.017-5.239.009a1.1,1.1,0,0,0-.677.3q-1.71,1.663-3.376,3.37a2.785,2.785,0,0,0,.08,2.877c1.174,1.186,2.361,2.357,3.536,3.542.645.652.645.893-.012,1.556-1.3,1.315-2.625,2.611-3.919,3.933a.873.873,0,0,1-1.457.021q-2-2.041-4.031-4.041a.851.851,0,0,1,0-1.4q1.775-1.764,3.538-3.54a2.5,2.5,0,0,0-.03-3.146c-1.033-1.031-2.061-2.068-3.1-3.086a1.143,1.143,0,0,0-.644-.378c-1.688-.031-3.377-.017-5.185-.017a13.02,13.02,0,0,0,.029,1.843c.031.208.373.431.62.536a3.766,3.766,0,0,1,2.385,3.535,3.71,3.71,0,0,1-2.309,3.5,3.785,3.785,0,0,1-4.943-2.045,3.712,3.712,0,0,1,2.044-4.916.909.909,0,0,0,.717-1.07c-.05-.622-.015-1.25-.01-1.875a.826.826,0,0,1,.958-.943c1.772.02,3.545.031,5.316-.015a1.792,1.792,0,0,0,1.068-.452c.922-.844,1.742-1.8,2.688-2.616A2.292,2.292,0,0,0,4496.63,4414.839Zm-4.585-1.53h10.821v-4.018h-10.821Zm2.218,19.436,3.215,3.228,3.109-3.118-3.17-3.206Zm3.091-14.835c-.881.908-1.812,1.783-2.62,2.759a1.273,1.273,0,0,0,.013,1.22c.8.984,1.716,1.871,2.551,2.753l3.444-3.345Zm-10.822,12.334a2.345,2.345,0,1,0-2.322-2.37A2.406,2.406,0,0,0,4486.532,4430.245Zm24.926-2.33a2.32,2.32,0,1,0-4.639-.022,2.32,2.32,0,1,0,4.639.022Z" transform="translate(-4448.378 -4377.902)" fill="#12263f"/>
        <path id="Trazado_197100" data-name="Trazado 197100" d="M4614.676,4643.349a2.478,2.478,0,0,1,2.518,2.587,2.541,2.541,0,0,1-2.59,2.543,2.587,2.587,0,0,1-2.535-2.618A2.512,2.512,0,0,1,4614.676,4643.349Zm-.065,3.656a1.164,1.164,0,0,0,1.167-1.119,1.209,1.209,0,0,0-1.1-1.124,1.135,1.135,0,0,0-1.141,1.138A1.083,1.083,0,0,0,4614.611,4647Z" transform="translate(-4557.449 -4576.643)" fill="#12263f"/>
      </g>
    </g>
    <rect id="Rectángulo_300224" data-name="Rectángulo 300224" width="99" height="99" transform="translate(-4921 -1109)" fill="none"/>
  </g>
</svg>
