<svg xmlns="http://www.w3.org/2000/svg" xmlns:xlink="http://www.w3.org/1999/xlink" width="543.448" height="351.038" viewBox="0 0 543.448 351.038">
  <defs>
    <clipPath id="clip-path">
      <rect id="Rectángulo_295166" data-name="Rectángulo 295166" width="42.246" height="39.435" fill="#12263f"/>
    </clipPath>
  </defs>
  <g id="Grupo_889589" data-name="Grupo 889589" transform="translate(-1244 11221.49)">
    <g id="Grupo_879381" data-name="Grupo 879381" transform="translate(1390.669 -11221.49)">
      <rect id="Rectángulo_37274" data-name="Rectángulo 37274" width="198.204" height="58.509" rx="10" transform="translate(1.345 0.342)" fill="#1565c0"/>
      <g id="Rectángulo_37275" data-name="Rectángulo 37275" transform="translate(0 0)" fill="#fff" stroke="#1565c0" stroke-width="1">
        <rect width="55.133" height="58.509" rx="10" stroke="none"/>
        <rect x="0.5" y="0.5" width="54.133" height="57.509" rx="9.5" fill="none"/>
      </g>
      <path id="Trazado_605810" data-name="Trazado 605810" d="M-39.184-4.008V0h-2.344V-11.375h4.438a5.134,5.134,0,0,1,2.254.469,3.454,3.454,0,0,1,1.5,1.332,3.714,3.714,0,0,1,.523,1.965,3.266,3.266,0,0,1-1.145,2.637,4.767,4.767,0,0,1-3.168.965Zm0-1.9h2.094a2.059,2.059,0,0,0,1.418-.437,1.591,1.591,0,0,0,.488-1.25,1.876,1.876,0,0,0-.492-1.352,1.839,1.839,0,0,0-1.359-.531h-2.148ZM-27-4.164h-1.867V0h-2.344V-11.375h4.227a4.778,4.778,0,0,1,3.109.9,3.1,3.1,0,0,1,1.094,2.539A3.5,3.5,0,0,1-23.281-6a3.437,3.437,0,0,1-1.527,1.238l2.461,4.648V0h-2.516Zm-1.867-1.9h1.891a1.936,1.936,0,0,0,1.367-.449,1.606,1.606,0,0,0,.484-1.238,1.719,1.719,0,0,0-.457-1.266,1.9,1.9,0,0,0-1.4-.461h-1.883Zm17.211.633a6.867,6.867,0,0,1-.594,2.945,4.472,4.472,0,0,1-1.7,1.953A4.7,4.7,0,0,1-16.48.156,4.732,4.732,0,0,1-19-.523a4.515,4.515,0,0,1-1.719-1.941,6.67,6.67,0,0,1-.617-2.9V-5.93a6.831,6.831,0,0,1,.605-2.957,4.508,4.508,0,0,1,1.711-1.961,4.706,4.706,0,0,1,2.527-.684,4.706,4.706,0,0,1,2.527.684,4.508,4.508,0,0,1,1.711,1.961,6.811,6.811,0,0,1,.605,2.949Zm-2.375-.516a4.787,4.787,0,0,0-.641-2.719,2.088,2.088,0,0,0-1.828-.93,2.088,2.088,0,0,0-1.82.918,4.732,4.732,0,0,0-.648,2.691v.555a4.847,4.847,0,0,0,.641,2.7,2.082,2.082,0,0,0,1.844.961,2.064,2.064,0,0,0,1.813-.926,4.819,4.819,0,0,0,.641-2.7Zm7.664-.3L-4-11.375h2.563l-3.734,7.25V0H-7.551V-4.125l-3.734-7.25h2.57Zm12.813,1.3h-4.5v3.063H7.23V0H-.395V-11.375H7.215v1.9H1.949v2.711h4.5ZM17.535-3.789A4.025,4.025,0,0,1,16.18-.9,4.76,4.76,0,0,1,12.957.156,4.28,4.28,0,0,1,9.516-1.316,6.038,6.038,0,0,1,8.262-5.359v-.7A6.819,6.819,0,0,1,8.84-8.945a4.332,4.332,0,0,1,1.652-1.918,4.629,4.629,0,0,1,2.5-.668,4.637,4.637,0,0,1,3.172,1.055,4.326,4.326,0,0,1,1.391,2.961H15.207a2.376,2.376,0,0,0-.613-1.6,2.271,2.271,0,0,0-1.605-.5,1.991,1.991,0,0,0-1.754.84,4.707,4.707,0,0,0-.6,2.605V-5.3a5.038,5.038,0,0,0,.559,2.7,1.954,1.954,0,0,0,1.762.852,2.314,2.314,0,0,0,1.621-.5,2.241,2.241,0,0,0,.613-1.535ZM27.41-9.477H23.926V0H21.582V-9.477H18.145v-1.9H27.41ZM37.871-5.43a6.867,6.867,0,0,1-.594,2.945,4.472,4.472,0,0,1-1.7,1.953,4.7,4.7,0,0,1-2.535.688,4.732,4.732,0,0,1-2.523-.68A4.515,4.515,0,0,1,28.8-2.465a6.67,6.67,0,0,1-.617-2.9V-5.93a6.831,6.831,0,0,1,.605-2.957A4.508,4.508,0,0,1,30.5-10.848a4.706,4.706,0,0,1,2.527-.684,4.706,4.706,0,0,1,2.527.684,4.508,4.508,0,0,1,1.711,1.961,6.811,6.811,0,0,1,.605,2.949ZM35.5-5.945a4.787,4.787,0,0,0-.641-2.719,2.088,2.088,0,0,0-1.828-.93,2.088,2.088,0,0,0-1.82.918,4.732,4.732,0,0,0-.648,2.691v.555a4.847,4.847,0,0,0,.641,2.7,2.082,2.082,0,0,0,1.844.961,2.064,2.064,0,0,0,1.813-.926,4.819,4.819,0,0,0,.641-2.7Zm-79,14.57,2.922,8.25,2.906-8.25h3.078V20h-2.352V16.891l.234-5.367L-39.781,20h-1.609l-3.062-8.469.234,5.359V20h-2.344V8.625Zm19.563,0v7.492a3.836,3.836,0,0,1-1.168,2.953A4.5,4.5,0,0,1-28.3,20.156,4.553,4.553,0,0,1-31.461,19.1a3.77,3.77,0,0,1-1.2-2.9V8.625h2.344v7.508a2.167,2.167,0,0,0,.535,1.629,2.054,2.054,0,0,0,1.48.512q1.977,0,2.008-2.078V8.625Zm4.266,9.492H-14.7V20h-7.32V8.625h2.344Zm13.281-7.594H-9.875V20h-2.344V10.523h-3.437v-1.9h9.266ZM-2.562,20H-4.906V8.625h2.344ZM2.672,8.625l2.922,8.25L8.5,8.625h3.078V20H9.227V16.891l.234-5.367L6.391,20H4.781L1.719,11.531l.234,5.359V20H-.391V8.625Zm17.8,6.43h-4.5v3.063H21.25V20H13.625V8.625h7.609v1.9H15.969v2.711h4.5ZM22.625,20V8.625h3.5a5.315,5.315,0,0,1,2.684.676,4.712,4.712,0,0,1,1.848,1.922,5.928,5.928,0,0,1,.664,2.832v.523a5.945,5.945,0,0,1-.652,2.82,4.672,4.672,0,0,1-1.84,1.914,5.355,5.355,0,0,1-2.68.688Zm2.344-9.477v7.594H26.1a2.545,2.545,0,0,0,2.1-.9,4.06,4.06,0,0,0,.742-2.57v-.6a4.124,4.124,0,0,0-.719-2.629,2.537,2.537,0,0,0-2.1-.895ZM35.516,20H33.172V8.625h2.344Zm8.734-2.344H40.141L39.359,20H36.867L41.1,8.625h2.172L47.531,20H45.039Zm-3.477-1.9h2.844L42.188,11.5Z" transform="translate(126.345 25.342)" fill="#fff"/>
      <g id="Grupo_879388" data-name="Grupo 879388" transform="translate(6.444 9.849)">
        <g id="Grupo_879387" data-name="Grupo 879387" clip-path="url(#clip-path)">
          <path id="Trazado_597197" data-name="Trazado 597197" d="M5.368,141.359c-.446-.374-.557-.731-.333-1.083a.833.833,0,0,1,.809-.327q10.978.005,21.956,0h1.062a6.5,6.5,0,0,0-.005-.75.7.7,0,0,0-.661-.653,3.379,3.379,0,0,0-.439-.008H7.428c-.132,0-.264.006-.4,0a.684.684,0,0,1-.693-.7.674.674,0,0,1,.686-.7c.484-.015.968.009,1.452-.013a.564.564,0,0,0,.4-.176c.583-.841,1.145-1.7,1.771-2.636h-.522q-3.938,0-7.876,0A2.1,2.1,0,0,1,0,132.061q0-9.021,0-18.042a2.09,2.09,0,0,1,2.219-2.234c.176,0,.352,0,.528,0a.692.692,0,0,1,.768.712c-.006.424-.3.682-.789.692-.191,0-.382-.008-.572,0a.732.732,0,0,0-.748.756c-.007.1,0,.205,0,.308q0,8.8,0,17.6c0,.832.214,1.051,1.03,1.051H32.752c.828,0,1.046-.216,1.046-1.037q0-5.325,0-10.649a2.192,2.192,0,0,1,.009-.4.661.661,0,0,1,.659-.592.688.688,0,0,1,.727.567,1.5,1.5,0,0,1,.01.263q0,5.567,0,11.133a2.076,2.076,0,0,1-2.118,2.113q-3.982.008-7.964,0h-.557c.637.954,1.223,1.841,1.827,2.716.054.078.23.1.35.1.484.011.968,0,1.452.006a2.087,2.087,0,0,1,2.082,2.062c.006.4-.021.794.007,1.188a.976.976,0,0,1-.444.973Zm19.348-4.237c-.581-.872-1.126-1.667-1.642-2.48a.651.651,0,0,0-.638-.332c-2.813.011-5.627.005-8.44.007a3.738,3.738,0,0,0-1.6.067c-.424.226-.642.84-.944,1.289-.314.467-.62.939-.956,1.449Z" transform="translate(0 -101.924)" fill="#12263f"/>
          <path id="Trazado_597198" data-name="Trazado 597198" d="M260.581,8.715c-.258.332-.551.576-1,.37a.727.727,0,0,1-.406-.758c.007-1.525,0-3.05,0-4.575a2.153,2.153,0,0,0-2.356-2.344q-6.8,0-13.591,0a2.158,2.158,0,0,0-2.363,2.381q0,4.663,0,9.325a2.161,2.161,0,0,0,2.364,2.38c.117,0,.235,0,.352,0,.681.008.978.421.759,1.078-.2.61-.426,1.214-.638,1.822-.041.119-.071.242-.131.451l3.294-1.9a14.55,14.55,0,0,0,1.287-.756,4.061,4.061,0,0,1,2.64-.707c2.007.056,4.017.018,6.025.016a2.155,2.155,0,0,0,2.357-2.343c0-.542.011-1.085,0-1.627-.01-.389.029-.747.446-.91.434-.17.72.069.964.391V14c-.054.148-.113.294-.162.444a3.49,3.49,0,0,1-3.338,2.457c-2.288.006-4.576-.006-6.864.012a1.751,1.751,0,0,0-.819.223q-3.28,1.875-6.538,3.786c-.336.2-.669.333-1.017.064-.372-.287-.294-.659-.165-1.039.34-1,.672-1.995.995-2.956a9.684,9.684,0,0,1-1.37-.51,3.318,3.318,0,0,1-1.838-3.037c-.017-3.315-.011-6.63,0-9.945A3.483,3.483,0,0,1,242.958,0q7-.009,13.992,0a3.49,3.49,0,0,1,3.55,2.754.7.7,0,0,0,.081.148Z" transform="translate(-218.335 0)" fill="#12263f"/>
          <path id="Trazado_597199" data-name="Trazado 597199" d="M60.554,40.352a5.147,5.147,0,0,1-1.368,4.161,9.48,9.48,0,0,1,1.528.473,3.317,3.317,0,0,1,1.954,3.1c.024,2.317.008,4.635.006,6.953,0,.533-.248.83-.685.84-.456.01-.718-.295-.718-.85q0-3.3,0-6.6A2.2,2.2,0,0,0,58.889,46a1.056,1.056,0,0,0-1.124.647A13.985,13.985,0,0,0,56.4,49.09a10.641,10.641,0,0,0-.06,2.757c0,1.071,0,2.141,0,3.212,0,.52-.268.82-.708.816s-.694-.3-.695-.829c0-1.877,0-3.755-.009-5.632a1.4,1.4,0,0,0-.177-.655c-.473-.826-.983-1.631-1.458-2.456a.483.483,0,0,0-.522-.288,8.877,8.877,0,0,0-1.263.112,2.081,2.081,0,0,0-1.5,2.09c-.007,2.215,0,4.43,0,6.645,0,.117.006.235,0,.352a.686.686,0,0,1-.684.662A.667.667,0,0,1,48.6,55.2c-.007-2.479-.048-4.959.019-7.436a3.46,3.46,0,0,1,3.158-3.145c.1-.008.2-.011.377-.021a5.2,5.2,0,0,1-1.428-4.258A3.716,3.716,0,0,1,48.864,39.3a3.4,3.4,0,0,1-.97-2.381q0-2.068,0-4.136c0-.608.24-.843.856-.843q5.566,0,11.132,0a3.485,3.485,0,0,1,3.5,3.493,12.485,12.485,0,0,1-.051,2.019,3.546,3.546,0,0,1-2.772,2.9m.009-1.523a1.919,1.919,0,0,0,1.316-1.467,9.283,9.283,0,0,0,.091-1.616,2.154,2.154,0,0,0-2.38-2.4q-4.9,0-9.8,0H49.3c0,1.261-.026,2.461.009,3.66a1.864,1.864,0,0,0,1.4,1.76c0-1.041.006-2.081,0-3.121a.792.792,0,0,1,.359-.79.775.775,0,0,1,.864.09,7.99,7.99,0,0,0,4.506,1.223c1.1-.011,2.2,0,3.3,0,.584,0,.827.244.831.824,0,.6,0,1.19,0,1.842M52.13,36.66c0,1.625-.081,3.177.021,4.718a3.484,3.484,0,0,0,6.926.226,31.762,31.762,0,0,0,.081-3.377c0-.213,0-.426,0-.653-2.4-.059-4.793.288-7.028-.914m4.341,9.393H54.8l.838,1.4.833-1.4" transform="translate(-43.668 -29.119)" fill="#12263f"/>
          <path id="Trazado_597200" data-name="Trazado 597200" d="M245.176,287.454h4.709c.6,0,.906.245.9.712s-.3.692-.877.692q-4.753,0-9.505,0c-.571,0-.871-.239-.877-.691-.007-.469.3-.713.9-.713h4.753" transform="translate(-218.4 -262.101)" fill="#12263f"/>
          <path id="Trazado_597201" data-name="Trazado 597201" d="M89.22,227.13c0,.88,0,1.76,0,2.641,0,.558-.258.863-.713.856-.438-.006-.69-.3-.691-.833q0-2.685,0-5.369c0-.531.251-.827.69-.834.455-.007.712.3.714.855,0,.895,0,1.79,0,2.685" transform="translate(-80.069 -203.871)" fill="#12263f"/>
          <path id="Trazado_597202" data-name="Trazado 597202" d="M167.649,227.086c0-.895,0-1.79,0-2.685,0-.52.269-.817.712-.811a.693.693,0,0,1,.69.79q.006,2.729,0,5.457a.694.694,0,0,1-.691.789c-.441.006-.709-.294-.712-.812,0-.91,0-1.819,0-2.729" transform="translate(-152.862 -203.871)" fill="#12263f"/>
          <path id="Trazado_597203" data-name="Trazado 597203" d="M290.91,256.911c-.895,0-1.79,0-2.684,0-.516,0-.813-.276-.8-.722.011-.424.3-.68.8-.681q2.728,0,5.457,0a.7.7,0,1,1,0,1.4c-.924.006-1.848,0-2.772,0" transform="translate(-262.074 -232.97)" fill="#12263f"/>
          <path id="Trazado_597204" data-name="Trazado 597204" d="M243.006,320.786c-.895,0-1.79,0-2.684,0-.515,0-.812-.279-.8-.724.012-.423.3-.677.8-.678q2.728,0,5.457,0a.7.7,0,1,1,0,1.4c-.924.006-1.848,0-2.772,0" transform="translate(-218.397 -291.211)" fill="#12263f"/>
          <path id="Trazado_597205" data-name="Trazado 597205" d="M279.172,33.222a3.785,3.785,0,0,1,3.286-1.408c1.2.043,2.4.007,3.608.01.615,0,.856.237.856.844q0,4.093,0,8.185c0,.579-.248.824-.832.824-1.745,0-3.491,0-5.236,0-.672,0-.849.148-.975.8a.7.7,0,0,1-1.4-.169q-.005-3.3,0-6.6a2.186,2.186,0,0,0-2.485-2.481h-3.115v7.026c.125.006.266.018.406.019,1,0,1.995,0,2.992,0,.49,0,.783.266.789.69a.687.687,0,0,1-.768.711q-2.046.008-4.092,0a.68.68,0,0,1-.766-.755q-.007-4.18,0-8.361a.668.668,0,0,1,.741-.734c1.481-.006,2.963-.023,4.444.01a3.188,3.188,0,0,1,2.13.924c.137.128.254.279.418.462m6.315,7.075V33.227c-1.143,0-2.255-.005-3.368,0a2.132,2.132,0,0,0-2.236,2.241c-.007,1.437,0,2.874,0,4.31V40.3Z" transform="translate(-247.495 -29.004)" fill="#12263f"/>
          <path id="Trazado_597206" data-name="Trazado 597206" d="M304.836,63.86c.235,0,.47-.012.7,0a.7.7,0,0,1-.007,1.4c-.5.017-1,.019-1.5,0a.7.7,0,0,1,.007-1.393c.263-.017.528,0,.792,0" transform="translate(-276.637 -58.224)" fill="#12263f"/>
          <path id="Trazado_597207" data-name="Trazado 597207" d="M304.821,95.8c.235,0,.47-.01.7,0a.68.68,0,0,1,.68.709.67.67,0,0,1-.657.686c-.5.018-1,.018-1.5,0a.668.668,0,0,1-.658-.685.679.679,0,0,1,.678-.71c.249-.013.5,0,.748,0" transform="translate(-276.636 -87.347)" fill="#12263f"/>
          <path id="Trazado_597208" data-name="Trazado 597208" d="M118.443,141.221a2.038,2.038,0,0,1-1.433-.544.7.7,0,0,1,.854-1.106.818.818,0,0,0,1.111.005.7.7,0,0,1,.837,1.125,2,2,0,0,1-1.369.52" transform="translate(-106.454 -127.137)" fill="#12263f"/>
          <path id="Trazado_597209" data-name="Trazado 597209" d="M113.182,112.5a.7.7,0,1,1-.706-.685.69.69,0,0,1,.706.685" transform="translate(-101.921 -101.949)" fill="#12263f"/>
          <path id="Trazado_597210" data-name="Trazado 597210" d="M144.431,113.213a.7.7,0,1,1,.69-.7.688.688,0,0,1-.69.7" transform="translate(-131.043 -101.949)" fill="#12263f"/>
          <path id="Trazado_597211" data-name="Trazado 597211" d="M384.665,63.858c.249,0,.5-.016.748,0a.67.67,0,0,1,.628.713.635.635,0,0,1-.618.674,14.026,14.026,0,0,1-1.583,0,.662.662,0,0,1-.607-.687.675.675,0,0,1,.641-.7c.263-.018.528,0,.792,0" transform="translate(-349.432 -58.22)" fill="#12263f"/>
          <path id="Trazado_597212" data-name="Trazado 597212" d="M384.621,97.158c-.249,0-.5.014-.748,0a.677.677,0,0,1-.642-.7.667.667,0,0,1,.65-.692c.5-.019,1-.018,1.5,0a.671.671,0,0,1,.665.678.681.681,0,0,1-.673.717c-.248.014-.5,0-.748,0" transform="translate(-349.431 -87.303)" fill="#12263f"/>
        </g>
      </g>
    </g>
    <g id="Grupo_879384" data-name="Grupo 879384" transform="translate(1322.537 -11139.292)">
      <path id="Unión_57" data-name="Unión 57" d="M0,0H50.2V12.083H0Z" transform="translate(8.548 50.204) rotate(-90)" fill="#bec1c7"/>
      <path id="Unión_58" data-name="Unión 58" d="M19.62,14.01,0,28.021V0Z" transform="translate(28.021 41.49) rotate(90)" fill="#bec1c7"/>
    </g>
    <g id="Grupo_879385" data-name="Grupo 879385" transform="translate(1250.537 -11014.808)">
      <path id="Unión_57-2" data-name="Unión 57" d="M0,0H121.5V12.083H0Z" transform="translate(8.548 121.501) rotate(-90)" fill="#bec1c7"/>
    </g>
    <g id="Grupo_888539" data-name="Grupo 888539" transform="translate(1562.014 -11014.808)">
      <path id="Unión_57-3" data-name="Unión 57" d="M0,0H121.5V12.083H0Z" transform="translate(8.548 121.501) rotate(-90)" fill="#bec1c7"/>
    </g>
    <g id="Grupo_879388-2" data-name="Grupo 879388" transform="translate(1633.552 -11139.292)">
      <path id="Unión_57-4" data-name="Unión 57" d="M0,0H50.2V12.083H0Z" transform="translate(8.548 50.204) rotate(-90)" fill="#bec1c7"/>
      <path id="Unión_58-2" data-name="Unión 58" d="M19.62,14.01,0,28.021V0Z" transform="translate(28.021 41.49) rotate(90)" fill="#bec1c7"/>
    </g>
    <path id="Trazado_605792" data-name="Trazado 605792" d="M0,0H317.526V10.927H0Z" transform="translate(1654.015 -11128.366) rotate(180)" fill="#bec1c7"/>
    <path id="Trazado_605793" data-name="Trazado 605793" d="M0,0H21.238V10.927H0Z" transform="translate(1502.493 -11162.268) rotate(90)" fill="#bec1c7"/>
    <path id="Trazado_605794" data-name="Trazado 605794" d="M10,0H173.971a10,10,0,0,1,10,10V48.509a10,10,0,0,1-10,10H10a10,10,0,0,1-10-10V10A10,10,0,0,1,10,0Z" transform="translate(1244 -11074)" fill="#fffae7"/>
    <path id="Trazado_605795" data-name="Trazado 605795" d="M10,0H173.971a10,10,0,0,1,10,10V48.509a10,10,0,0,1-10,10H10a10,10,0,0,1-10-10V10A10,10,0,0,1,10,0Z" transform="translate(1292 -10998)" fill="#b2ebf2"/>
    <path id="Trazado_605796" data-name="Trazado 605796" d="M10,0H173.971a10,10,0,0,1,10,10V48.509a10,10,0,0,1-10,10H10a10,10,0,0,1-10-10V10A10,10,0,0,1,10,0Z" transform="translate(1603.477 -10998)" fill="#b2ebf2"/>
    <path id="Trazado_605797" data-name="Trazado 605797" d="M10,0H173.971a10,10,0,0,1,10,10V48.509a10,10,0,0,1-10,10H10a10,10,0,0,1-10-10V10A10,10,0,0,1,10,0Z" transform="translate(1292 -10928.961)" fill="#b2ebf2"/>
    <path id="Trazado_605798" data-name="Trazado 605798" d="M10,0H173.971a10,10,0,0,1,10,10V48.509a10,10,0,0,1-10,10H10a10,10,0,0,1-10-10V10A10,10,0,0,1,10,0Z" transform="translate(1603.477 -10928.961)" fill="#b2ebf2"/>
    <path id="Trazado_605799" data-name="Trazado 605799" d="M10,0H173.971a10,10,0,0,1,10,10V48.509a10,10,0,0,1-10,10H10a10,10,0,0,1-10-10V10A10,10,0,0,1,10,0Z" transform="translate(1557.015 -11074.148)" fill="#fffae7"/>
    <path id="Trazado_605800" data-name="Trazado 605800" d="M-37.68-5.258h-4.93v4.031h5.727V0h-7.227V-11.375h7.148v1.227h-5.648v3.664h4.93Zm4.172,4.031h5.391V0h-6.9V-11.375h1.508Zm13.531-4.031h-4.93v4.031h5.727V0h-7.227V-11.375h7.148v1.227h-5.648v3.664h4.93Zm4.6-6.117,3.719,9.281,3.719-9.281h1.945V0h-1.5V-4.43l.141-4.781L-11.086,0h-1.148l-3.727-9.187.148,4.758V0h-1.5V-11.375ZM3.086-5.258h-4.93v4.031H3.883V0H-3.344V-11.375H3.8v1.227H-1.844v3.664h4.93ZM14.492,0H12.984L7.258-8.766V0H5.75V-11.375H7.258L13-2.57v-8.8h1.492Zm10.3-10.148H21.133V0H19.641V-10.148H15.992v-1.227h8.8ZM35.008-5.32A7.037,7.037,0,0,1,34.445-2.4,4.261,4.261,0,0,1,32.852-.5a4.385,4.385,0,0,1-2.406.656A4.347,4.347,0,0,1,28.063-.5a4.363,4.363,0,0,1-1.613-1.883,6.752,6.752,0,0,1-.59-2.832v-.82a6.953,6.953,0,0,1,.57-2.9,4.347,4.347,0,0,1,1.613-1.926,4.329,4.329,0,0,1,2.387-.668,4.41,4.41,0,0,1,2.41.66,4.253,4.253,0,0,1,1.605,1.914,7.071,7.071,0,0,1,.563,2.918Zm-1.492-.734A5.1,5.1,0,0,0,32.7-9.16a2.68,2.68,0,0,0-2.273-1.082A2.651,2.651,0,0,0,28.191-9.16a5,5,0,0,0-.84,3v.836a5.107,5.107,0,0,0,.824,3.082,2.662,2.662,0,0,0,2.27,1.121A2.652,2.652,0,0,0,32.7-2.176a5.079,5.079,0,0,0,.82-3.035Zm7.094.984A7.053,7.053,0,0,1,37.8-6.434a2.6,2.6,0,0,1-.879-2A2.752,2.752,0,0,1,38-10.652a4.269,4.269,0,0,1,2.793-.879,4.66,4.66,0,0,1,2.09.453A3.436,3.436,0,0,1,44.3-9.828a3.2,3.2,0,0,1,.5,1.742H43.3a2.08,2.08,0,0,0-.656-1.627,2.669,2.669,0,0,0-1.852-.592,2.732,2.732,0,0,0-1.73.489,1.632,1.632,0,0,0-.621,1.358,1.468,1.468,0,0,0,.59,1.178,5.785,5.785,0,0,0,2.008.88,9.316,9.316,0,0,1,2.219.88A3.367,3.367,0,0,1,44.441-4.4a2.861,2.861,0,0,1,.387,1.508A2.658,2.658,0,0,1,43.75-.676a4.6,4.6,0,0,1-2.883.832A5.347,5.347,0,0,1,38.68-.293a3.681,3.681,0,0,1-1.566-1.23A3,3,0,0,1,36.563-3.3H38.07a1.959,1.959,0,0,0,.762,1.629,3.207,3.207,0,0,0,2.035.6,2.948,2.948,0,0,0,1.82-.484,1.573,1.573,0,0,0,.633-1.32,1.545,1.545,0,0,0-.586-1.293A6.755,6.755,0,0,0,40.609-5.07ZM-51.586,22h-1.5V10.625h1.5ZM-40.1,22h-1.508l-5.727-8.766V22h-1.508V10.625h1.508l5.742,8.8v-8.8H-40.1Zm10.3-10.148h-3.656V22h-1.492V11.852H-38.6V10.625h8.8Zm8.117,4.891h-4.93v4.031h5.727V22h-7.227V10.625h7.148v1.227h-5.648v3.664h4.93Zm6.836.656h-2.672V22h-1.508V10.625h3.766a4.457,4.457,0,0,1,2.957.875,3.148,3.148,0,0,1,1.035,2.547,3.062,3.062,0,0,1-.574,1.852,3.428,3.428,0,0,1-1.6,1.18l2.672,4.828V22h-1.609Zm-2.672-1.227h2.3a2.6,2.6,0,0,0,1.777-.579,1.959,1.959,0,0,0,.66-1.55,2.062,2.062,0,0,0-.629-1.62,2.663,2.663,0,0,0-1.816-.571h-2.3Zm14.633,2.852H-7.656L-8.727,22h-1.547L-5.93,10.625h1.313L-.266,22H-1.8ZM-7.2,17.8h3.867l-1.937-5.32Zm16.75.594a4.185,4.185,0,0,1-1.332,2.785,4.365,4.365,0,0,1-2.98.98A4.008,4.008,0,0,1,2,20.711,5.815,5.815,0,0,1,.789,16.844V15.75a6.481,6.481,0,0,1,.566-2.789,4.231,4.231,0,0,1,1.605-1.848,4.47,4.47,0,0,1,2.406-.645A4.11,4.11,0,0,1,8.273,11.48a4.235,4.235,0,0,1,1.273,2.8H8.039a3.268,3.268,0,0,0-.848-1.975A2.565,2.565,0,0,0,5.367,11.7a2.684,2.684,0,0,0-2.254,1.063A4.882,4.882,0,0,0,2.3,15.785v1.1a5.018,5.018,0,0,0,.773,2.948A2.5,2.5,0,0,0,5.234,20.93a2.887,2.887,0,0,0,1.918-.566,3.143,3.143,0,0,0,.887-1.973Zm9.68-6.539H15.57V22H14.078V11.852H10.43V10.625h8.8ZM22.523,22h-1.5V10.625h1.5Zm6.508-1.992,3.25-9.383h1.641L29.7,22H28.375L24.164,10.625H25.8ZM44.094,16.68a7.037,7.037,0,0,1-.562,2.918,4.261,4.261,0,0,1-1.594,1.9,4.4,4.4,0,0,1-6.4-1.887,6.752,6.752,0,0,1-.59-2.832v-.82a6.953,6.953,0,0,1,.57-2.9,4.218,4.218,0,0,1,4-2.594,4.41,4.41,0,0,1,2.41.66,4.253,4.253,0,0,1,1.605,1.914,7.071,7.071,0,0,1,.563,2.918ZM42.6,15.945a5.1,5.1,0,0,0-.812-3.105,2.68,2.68,0,0,0-2.273-1.082,2.651,2.651,0,0,0-2.238,1.082,5,5,0,0,0-.84,3v.836a5.107,5.107,0,0,0,.824,3.082,2.888,2.888,0,0,0,4.52.063,5.079,5.079,0,0,0,.82-3.035Zm7.094.984a7.053,7.053,0,0,1-2.809-1.363,2.6,2.6,0,0,1-.879-2,2.752,2.752,0,0,1,1.074-2.223,4.269,4.269,0,0,1,2.793-.879,4.66,4.66,0,0,1,2.09.453,3.436,3.436,0,0,1,1.422,1.25,3.2,3.2,0,0,1,.5,1.742H52.383a2.08,2.08,0,0,0-.656-1.627,2.669,2.669,0,0,0-1.852-.592,2.732,2.732,0,0,0-1.73.489,1.632,1.632,0,0,0-.621,1.358,1.468,1.468,0,0,0,.59,1.178,5.785,5.785,0,0,0,2.008.88,9.316,9.316,0,0,1,2.219.88A3.367,3.367,0,0,1,53.527,17.6a2.861,2.861,0,0,1,.387,1.508,2.658,2.658,0,0,1-1.078,2.215,4.6,4.6,0,0,1-2.883.832,5.347,5.347,0,0,1-2.187-.449,3.681,3.681,0,0,1-1.566-1.23,3,3,0,0,1-.551-1.773h1.508a1.959,1.959,0,0,0,.762,1.629,3.207,3.207,0,0,0,2.035.6,2.948,2.948,0,0,0,1.82-.484,1.573,1.573,0,0,0,.633-1.32,1.545,1.545,0,0,0-.586-1.293A6.755,6.755,0,0,0,49.7,16.93Z" transform="translate(1336 -11050)" fill="#12263f"/>
    <path id="Trazado_605801" data-name="Trazado 605801" d="M-38.488-2.977h-4.766L-44.324,0h-1.547l4.344-11.375h1.313L-35.863,0H-37.4ZM-42.8-4.2h3.867l-1.937-5.32ZM-25.59,0H-27.1l-5.727-8.766V0h-1.508V-11.375h1.508l5.742,8.8v-8.8h1.492Zm4.273,0h-1.5V-11.375h1.5Zm4.68-11.375,3.719,9.281L-9.2-11.375h1.945V0h-1.5V-4.43l.141-4.781L-12.348,0H-13.5l-3.727-9.187.148,4.758V0h-1.5V-11.375ZM-3,0H-4.5V-11.375H-3ZM6.168-2.977H1.4L.332,0H-1.215L3.129-11.375H4.441L8.793,0H7.254ZM1.855-4.2H5.723L3.785-9.523Zm16.75.594A4.185,4.185,0,0,1,17.273-.824a4.365,4.365,0,0,1-2.98.98,4.008,4.008,0,0,1-3.23-1.445A5.815,5.815,0,0,1,9.848-5.156V-6.25a6.481,6.481,0,0,1,.566-2.789,4.231,4.231,0,0,1,1.605-1.848,4.47,4.47,0,0,1,2.406-.645,4.11,4.11,0,0,1,2.906,1.012,4.235,4.235,0,0,1,1.273,2.8H17.1a3.268,3.268,0,0,0-.848-1.975,2.565,2.565,0,0,0-1.824-.611,2.684,2.684,0,0,0-2.254,1.063,4.882,4.882,0,0,0-.816,3.026v1.1a5.018,5.018,0,0,0,.773,2.948A2.5,2.5,0,0,0,14.293-1.07a2.887,2.887,0,0,0,1.918-.566A3.143,3.143,0,0,0,17.1-3.609ZM22.262,0h-1.5V-11.375h1.5ZM33.754-5.32A7.037,7.037,0,0,1,33.191-2.4,4.261,4.261,0,0,1,31.6-.5a4.385,4.385,0,0,1-2.406.656A4.347,4.347,0,0,1,26.809-.5,4.363,4.363,0,0,1,25.2-2.387a6.752,6.752,0,0,1-.59-2.832v-.82a6.953,6.953,0,0,1,.57-2.9,4.347,4.347,0,0,1,1.613-1.926,4.329,4.329,0,0,1,2.387-.668,4.41,4.41,0,0,1,2.41.66,4.253,4.253,0,0,1,1.605,1.914,7.071,7.071,0,0,1,.563,2.918Zm-1.492-.734a5.1,5.1,0,0,0-.812-3.105,2.68,2.68,0,0,0-2.273-1.082A2.651,2.651,0,0,0,26.938-9.16a5,5,0,0,0-.84,3v.836a5.107,5.107,0,0,0,.824,3.082,2.662,2.662,0,0,0,2.27,1.121,2.652,2.652,0,0,0,2.25-1.059,5.079,5.079,0,0,0,.82-3.035ZM29.91-14.422h1.75l-2.094,2.3-1.164,0ZM44.746,0H43.238L37.512-8.766V0H36V-11.375h1.508l5.742,8.8v-8.8h1.492Z" transform="translate(1384 -10963)" fill="#12263f"/>
    <path id="Trazado_605802" data-name="Trazado 605802" d="M-16.633,0h-1.508l-5.727-8.766V0h-1.508V-11.375h1.508l5.742,8.8v-8.8h1.492ZM-5.219-5.32A7.037,7.037,0,0,1-5.781-2.4,4.261,4.261,0,0,1-7.375-.5,4.385,4.385,0,0,1-9.781.156,4.347,4.347,0,0,1-12.164-.5a4.363,4.363,0,0,1-1.613-1.883,6.752,6.752,0,0,1-.59-2.832v-.82a6.953,6.953,0,0,1,.57-2.9,4.347,4.347,0,0,1,1.613-1.926A4.329,4.329,0,0,1-9.8-11.531a4.41,4.41,0,0,1,2.41.66A4.253,4.253,0,0,1-5.781-8.957a7.071,7.071,0,0,1,.563,2.918Zm-1.492-.734A5.1,5.1,0,0,0-7.523-9.16,2.68,2.68,0,0,0-9.8-10.242,2.651,2.651,0,0,0-12.035-9.16a5,5,0,0,0-.84,3v.836a5.107,5.107,0,0,0,.824,3.082,2.662,2.662,0,0,0,2.27,1.121,2.652,2.652,0,0,0,2.25-1.059,5.079,5.079,0,0,0,.82-3.035ZM-2.969,0V-11.375H.242a5.169,5.169,0,0,1,2.625.656A4.438,4.438,0,0,1,4.629-8.852,6.078,6.078,0,0,1,5.258-6.07v.727a6.1,6.1,0,0,1-.621,2.82A4.369,4.369,0,0,1,2.863-.664,5.5,5.5,0,0,1,.18,0Zm1.5-10.148v8.922H.109a3.434,3.434,0,0,0,2.7-1.079,4.458,4.458,0,0,0,.965-3.073v-.665a4.529,4.529,0,0,0-.91-3.014A3.239,3.239,0,0,0,.281-10.148ZM16.273-5.32A7.037,7.037,0,0,1,15.711-2.4,4.261,4.261,0,0,1,14.117-.5a4.385,4.385,0,0,1-2.406.656A4.347,4.347,0,0,1,9.328-.5,4.363,4.363,0,0,1,7.715-2.387a6.752,6.752,0,0,1-.59-2.832v-.82a6.953,6.953,0,0,1,.57-2.9,4.347,4.347,0,0,1,1.613-1.926,4.329,4.329,0,0,1,2.387-.668,4.41,4.41,0,0,1,2.41.66,4.253,4.253,0,0,1,1.605,1.914,7.071,7.071,0,0,1,.563,2.918Zm-1.492-.734a5.1,5.1,0,0,0-.812-3.105A2.68,2.68,0,0,0,11.7-10.242,2.651,2.651,0,0,0,9.457-9.16a5,5,0,0,0-.84,3v.836a5.107,5.107,0,0,0,.824,3.082,2.662,2.662,0,0,0,2.27,1.121,2.652,2.652,0,0,0,2.25-1.059,5.079,5.079,0,0,0,.82-3.035Zm7.094.984a7.053,7.053,0,0,1-2.809-1.363,2.6,2.6,0,0,1-.879-2,2.751,2.751,0,0,1,1.074-2.223,4.269,4.269,0,0,1,2.793-.879,4.66,4.66,0,0,1,2.09.453,3.436,3.436,0,0,1,1.422,1.25,3.2,3.2,0,0,1,.5,1.742H24.563a2.08,2.08,0,0,0-.656-1.627,2.669,2.669,0,0,0-1.852-.592,2.732,2.732,0,0,0-1.73.489A1.632,1.632,0,0,0,19.7-8.458a1.468,1.468,0,0,0,.59,1.178A5.785,5.785,0,0,0,22.3-6.4a9.316,9.316,0,0,1,2.219.88A3.367,3.367,0,0,1,25.707-4.4a2.861,2.861,0,0,1,.387,1.508A2.658,2.658,0,0,1,25.016-.676a4.6,4.6,0,0,1-2.883.832,5.347,5.347,0,0,1-2.187-.449,3.681,3.681,0,0,1-1.566-1.23A3,3,0,0,1,17.828-3.3h1.508A1.959,1.959,0,0,0,20.1-1.668a3.207,3.207,0,0,0,2.035.6,2.948,2.948,0,0,0,1.82-.484,1.573,1.573,0,0,0,.633-1.32A1.545,1.545,0,0,0,24-4.168,6.755,6.755,0,0,0,21.875-5.07Z" transform="translate(1695.477 -10963)" fill="#12263f"/>
    <path id="Trazado_605803" data-name="Trazado 605803" d="M-28.945-5.07a7.053,7.053,0,0,1-2.809-1.363,2.6,2.6,0,0,1-.879-2,2.752,2.752,0,0,1,1.074-2.223,4.269,4.269,0,0,1,2.793-.879,4.66,4.66,0,0,1,2.09.453,3.436,3.436,0,0,1,1.422,1.25,3.2,3.2,0,0,1,.5,1.742h-1.508a2.08,2.08,0,0,0-.656-1.627,2.669,2.669,0,0,0-1.852-.592,2.732,2.732,0,0,0-1.73.489,1.632,1.632,0,0,0-.621,1.358,1.468,1.468,0,0,0,.59,1.178,5.785,5.785,0,0,0,2.008.88,9.316,9.316,0,0,1,2.219.88A3.367,3.367,0,0,1-25.113-4.4a2.861,2.861,0,0,1,.387,1.508A2.658,2.658,0,0,1-25.8-.676a4.6,4.6,0,0,1-2.883.832,5.347,5.347,0,0,1-2.187-.449,3.681,3.681,0,0,1-1.566-1.23A3,3,0,0,1-32.992-3.3h1.508a1.959,1.959,0,0,0,.762,1.629,3.207,3.207,0,0,0,2.035.6,2.948,2.948,0,0,0,1.82-.484,1.573,1.573,0,0,0,.633-1.32,1.545,1.545,0,0,0-.586-1.293A6.755,6.755,0,0,0-28.945-5.07Zm14.891-.25A7.037,7.037,0,0,1-14.617-2.4,4.261,4.261,0,0,1-16.211-.5a4.385,4.385,0,0,1-2.406.656A4.347,4.347,0,0,1-21-.5a4.363,4.363,0,0,1-1.613-1.883,6.752,6.752,0,0,1-.59-2.832v-.82a6.953,6.953,0,0,1,.57-2.9,4.347,4.347,0,0,1,1.613-1.926,4.329,4.329,0,0,1,2.387-.668,4.41,4.41,0,0,1,2.41.66,4.253,4.253,0,0,1,1.605,1.914,7.071,7.071,0,0,1,.563,2.918Zm-1.492-.734a5.1,5.1,0,0,0-.812-3.105,2.68,2.68,0,0,0-2.273-1.082A2.651,2.651,0,0,0-20.871-9.16a5,5,0,0,0-.84,3v.836a5.107,5.107,0,0,0,.824,3.082,2.662,2.662,0,0,0,2.27,1.121,2.652,2.652,0,0,0,2.25-1.059,5.079,5.079,0,0,0,.82-3.035ZM-3.062,0H-4.57L-10.3-8.766V0H-11.8V-11.375H-10.3l5.742,8.8v-8.8h1.492ZM1.211,0h-1.5V-11.375h1.5ZM3.953,0V-11.375H7.164a5.169,5.169,0,0,1,2.625.656,4.438,4.438,0,0,1,1.762,1.867A6.078,6.078,0,0,1,12.18-6.07v.727a6.1,6.1,0,0,1-.621,2.82A4.369,4.369,0,0,1,9.785-.664,5.5,5.5,0,0,1,7.1,0Zm1.5-10.148v8.922H7.031a3.434,3.434,0,0,0,2.7-1.079A4.458,4.458,0,0,0,10.7-5.379v-.665a4.529,4.529,0,0,0-.91-3.014A3.239,3.239,0,0,0,7.2-10.148ZM23.2-5.32A7.037,7.037,0,0,1,22.633-2.4,4.261,4.261,0,0,1,21.039-.5a4.385,4.385,0,0,1-2.406.656A4.347,4.347,0,0,1,16.25-.5a4.363,4.363,0,0,1-1.613-1.883,6.752,6.752,0,0,1-.59-2.832v-.82a6.953,6.953,0,0,1,.57-2.9,4.347,4.347,0,0,1,1.613-1.926,4.329,4.329,0,0,1,2.387-.668,4.41,4.41,0,0,1,2.41.66,4.253,4.253,0,0,1,1.605,1.914A7.071,7.071,0,0,1,23.2-6.039ZM21.7-6.055a5.1,5.1,0,0,0-.812-3.105,2.68,2.68,0,0,0-2.273-1.082A2.651,2.651,0,0,0,16.379-9.16a5,5,0,0,0-.84,3v.836a5.107,5.107,0,0,0,.824,3.082,2.662,2.662,0,0,0,2.27,1.121,2.652,2.652,0,0,0,2.25-1.059,5.079,5.079,0,0,0,.82-3.035ZM28.8-5.07a7.053,7.053,0,0,1-2.809-1.363,2.6,2.6,0,0,1-.879-2,2.751,2.751,0,0,1,1.074-2.223,4.269,4.269,0,0,1,2.793-.879,4.66,4.66,0,0,1,2.09.453,3.436,3.436,0,0,1,1.422,1.25,3.2,3.2,0,0,1,.5,1.742H31.484a2.08,2.08,0,0,0-.656-1.627,2.669,2.669,0,0,0-1.852-.592,2.732,2.732,0,0,0-1.73.489,1.632,1.632,0,0,0-.621,1.358,1.468,1.468,0,0,0,.59,1.178,5.785,5.785,0,0,0,2.008.88,9.316,9.316,0,0,1,2.219.88A3.367,3.367,0,0,1,32.629-4.4a2.861,2.861,0,0,1,.387,1.508A2.658,2.658,0,0,1,31.938-.676a4.6,4.6,0,0,1-2.883.832,5.347,5.347,0,0,1-2.187-.449A3.681,3.681,0,0,1,25.3-1.523,3,3,0,0,1,24.75-3.3h1.508a1.959,1.959,0,0,0,.762,1.629,3.207,3.207,0,0,0,2.035.6,2.948,2.948,0,0,0,1.82-.484,1.573,1.573,0,0,0,.633-1.32,1.545,1.545,0,0,0-.586-1.293A6.755,6.755,0,0,0,28.8-5.07Z" transform="translate(1384 -10893.96)" fill="#12263f"/>
    <path id="Trazado_605804" data-name="Trazado 605804" d="M-26.555-5.258h-4.93v4.031h5.727V0h-7.227V-11.375h7.148v1.227h-5.648v3.664h4.93ZM-15.148,0h-1.508l-5.727-8.766V0h-1.508V-11.375h1.508l5.742,8.8v-8.8h1.492Zm4.172-1.227h5.391V0h-6.9V-11.375h1.508ZM2.555-2.977H-2.211L-3.281,0H-4.828L-.484-11.375H.828L5.18,0H3.641ZM-1.758-4.2H2.109L.172-9.523Zm16.75.594A4.185,4.185,0,0,1,13.66-.824a4.365,4.365,0,0,1-2.98.98,4.008,4.008,0,0,1-3.23-1.445A5.815,5.815,0,0,1,6.234-5.156V-6.25A6.481,6.481,0,0,1,6.8-9.039a4.231,4.231,0,0,1,1.605-1.848,4.47,4.47,0,0,1,2.406-.645,4.11,4.11,0,0,1,2.906,1.012,4.235,4.235,0,0,1,1.273,2.8H13.484a3.268,3.268,0,0,0-.848-1.975,2.565,2.565,0,0,0-1.824-.611A2.684,2.684,0,0,0,8.559-9.241a4.882,4.882,0,0,0-.816,3.026v1.1a5.018,5.018,0,0,0,.773,2.948A2.5,2.5,0,0,0,10.68-1.07,2.887,2.887,0,0,0,12.6-1.637a3.143,3.143,0,0,0,.887-1.973Zm8.477-1.648h-4.93v4.031h5.727V0H17.039V-11.375h7.148v1.227H18.539v3.664h4.93Zm6.016.188a7.053,7.053,0,0,1-2.809-1.363,2.6,2.6,0,0,1-.879-2,2.751,2.751,0,0,1,1.074-2.223,4.269,4.269,0,0,1,2.793-.879,4.66,4.66,0,0,1,2.09.453,3.436,3.436,0,0,1,1.422,1.25,3.2,3.2,0,0,1,.5,1.742H32.172a2.08,2.08,0,0,0-.656-1.627,2.669,2.669,0,0,0-1.852-.592,2.732,2.732,0,0,0-1.73.489,1.632,1.632,0,0,0-.621,1.358A1.468,1.468,0,0,0,27.9-7.28a5.785,5.785,0,0,0,2.008.88,9.316,9.316,0,0,1,2.219.88A3.367,3.367,0,0,1,33.316-4.4,2.861,2.861,0,0,1,33.7-2.891,2.658,2.658,0,0,1,32.625-.676a4.6,4.6,0,0,1-2.883.832,5.347,5.347,0,0,1-2.187-.449,3.681,3.681,0,0,1-1.566-1.23A3,3,0,0,1,25.438-3.3h1.508a1.959,1.959,0,0,0,.762,1.629,3.207,3.207,0,0,0,2.035.6,2.948,2.948,0,0,0,1.82-.484,1.573,1.573,0,0,0,.633-1.32,1.545,1.545,0,0,0-.586-1.293A6.755,6.755,0,0,0,29.484-5.07Z" transform="translate(1695.477 -10893.96)" fill="#12263f"/>
    <path id="Trazado_605805" data-name="Trazado 605805" d="M-49.453-5.258h-4.93v4.031h5.727V0h-7.227V-11.375h7.148v1.227h-5.648v3.664h4.93Zm4.172,4.031h5.391V0h-6.9V-11.375h1.508ZM-31.75-5.258h-4.93v4.031h5.727V0H-38.18V-11.375h7.148v1.227H-36.68v3.664h4.93Zm4.6-6.117,3.719,9.281,3.719-9.281h1.945V0h-1.5V-4.43l.141-4.781L-22.859,0h-1.148l-3.727-9.187.148,4.758V0h-1.5V-11.375ZM-8.687-5.258h-4.93v4.031h5.727V0h-7.227V-11.375h7.148v1.227h-5.648v3.664h4.93ZM2.719,0H1.211L-4.516-8.766V0H-6.023V-11.375h1.508l5.742,8.8v-8.8H2.719Zm10.3-10.148H9.359V0H7.867V-10.148H4.219v-1.227h8.8ZM23.234-5.32A7.037,7.037,0,0,1,22.672-2.4,4.261,4.261,0,0,1,21.078-.5a4.385,4.385,0,0,1-2.406.656A4.347,4.347,0,0,1,16.289-.5a4.363,4.363,0,0,1-1.613-1.883,6.752,6.752,0,0,1-.59-2.832v-.82a6.953,6.953,0,0,1,.57-2.9,4.347,4.347,0,0,1,1.613-1.926,4.329,4.329,0,0,1,2.387-.668,4.41,4.41,0,0,1,2.41.66,4.253,4.253,0,0,1,1.605,1.914,7.071,7.071,0,0,1,.563,2.918Zm-1.492-.734A5.1,5.1,0,0,0,20.93-9.16a2.68,2.68,0,0,0-2.273-1.082A2.651,2.651,0,0,0,16.418-9.16a5,5,0,0,0-.84,3v.836A5.107,5.107,0,0,0,16.4-2.238a2.662,2.662,0,0,0,2.27,1.121,2.652,2.652,0,0,0,2.25-1.059,5.079,5.079,0,0,0,.82-3.035Zm7.094.984a7.053,7.053,0,0,1-2.809-1.363,2.6,2.6,0,0,1-.879-2,2.751,2.751,0,0,1,1.074-2.223,4.269,4.269,0,0,1,2.793-.879,4.66,4.66,0,0,1,2.09.453,3.436,3.436,0,0,1,1.422,1.25,3.2,3.2,0,0,1,.5,1.742H31.523a2.08,2.08,0,0,0-.656-1.627,2.669,2.669,0,0,0-1.852-.592,2.732,2.732,0,0,0-1.73.489,1.632,1.632,0,0,0-.621,1.358,1.468,1.468,0,0,0,.59,1.178,5.785,5.785,0,0,0,2.008.88,9.316,9.316,0,0,1,2.219.88A3.367,3.367,0,0,1,32.668-4.4a2.861,2.861,0,0,1,.387,1.508A2.658,2.658,0,0,1,31.977-.676a4.6,4.6,0,0,1-2.883.832,5.347,5.347,0,0,1-2.187-.449,3.681,3.681,0,0,1-1.566-1.23A3,3,0,0,1,24.789-3.3H26.3a1.959,1.959,0,0,0,.762,1.629,3.207,3.207,0,0,0,2.035.6,2.948,2.948,0,0,0,1.82-.484,1.573,1.573,0,0,0,.633-1.32,1.545,1.545,0,0,0-.586-1.293A6.755,6.755,0,0,0,28.836-5.07ZM38.938,0V-11.375h3.211a5.169,5.169,0,0,1,2.625.656,4.438,4.438,0,0,1,1.762,1.867,6.078,6.078,0,0,1,.629,2.781v.727a6.1,6.1,0,0,1-.621,2.82A4.369,4.369,0,0,1,44.77-.664,5.5,5.5,0,0,1,42.086,0Zm1.5-10.148v8.922h1.578a3.434,3.434,0,0,0,2.7-1.079,4.458,4.458,0,0,0,.965-3.073v-.665a4.529,4.529,0,0,0-.91-3.014,3.239,3.239,0,0,0-2.582-1.091ZM55.859-5.258H50.93v4.031h5.727V0H49.43V-11.375h7.148v1.227H50.93v3.664h4.93ZM-36.523,22h-1.508V16.742h-5.734V22h-1.5V10.625h1.5v4.891h5.734V10.625h1.508Zm4.273,0h-1.5V10.625h1.5Zm4.242-4.453V22h-1.5V10.625h4.2a4.215,4.215,0,0,1,2.926.953A3.231,3.231,0,0,1-21.328,14.1a3.189,3.189,0,0,1-1.035,2.551,4.4,4.4,0,0,1-2.965.895Zm0-1.227h2.7a2.7,2.7,0,0,0,1.844-.567,2.075,2.075,0,0,0,.641-1.64,2.143,2.143,0,0,0-.641-1.628,2.525,2.525,0,0,0-1.758-.634h-2.781Zm15.023.422h-4.93v4.031h5.727V22h-7.227V10.625h7.148v1.227h-5.648v3.664h4.93Zm6.836.656H-8.82V22h-1.508V10.625h3.766a4.457,4.457,0,0,1,2.957.875A3.148,3.148,0,0,1-2.57,14.047,3.062,3.062,0,0,1-3.145,15.9a3.428,3.428,0,0,1-1.6,1.18l2.672,4.828V22H-3.68ZM-8.82,16.172h2.3a2.6,2.6,0,0,0,1.777-.579,1.959,1.959,0,0,0,.66-1.55,2.062,2.062,0,0,0-.629-1.62,2.663,2.663,0,0,0-1.816-.571h-2.3Zm15.586-4.32H3.109V22H1.617V11.852H-2.031V10.625h8.8Zm8.117,4.891H9.953v4.031H15.68V22H8.453V10.625H15.6v1.227H9.953v3.664h4.93Zm6.375-1.758,2.727-4.359H25.75l-3.594,5.641L25.836,22H24.055l-2.8-4.437L18.445,22H16.672l3.688-5.734-3.6-5.641h1.758Zm14.18-3.133H31.781V22H30.289V11.852H26.641V10.625h8.8ZM45.656,16.68a7.037,7.037,0,0,1-.562,2.918A4.261,4.261,0,0,1,43.5,21.5a4.4,4.4,0,0,1-6.4-1.887,6.752,6.752,0,0,1-.59-2.832v-.82a6.953,6.953,0,0,1,.57-2.9,4.218,4.218,0,0,1,4-2.594,4.41,4.41,0,0,1,2.41.66,4.253,4.253,0,0,1,1.605,1.914,7.071,7.071,0,0,1,.563,2.918Zm-1.492-.734a5.1,5.1,0,0,0-.812-3.105,2.68,2.68,0,0,0-2.273-1.082A2.651,2.651,0,0,0,38.84,12.84a5,5,0,0,0-.84,3v.836a5.107,5.107,0,0,0,.824,3.082,2.888,2.888,0,0,0,4.52.063,5.079,5.079,0,0,0,.82-3.035Z" transform="translate(1649.015 -11050.148)" fill="#12263f"/>
    <path id="Trazado_605806" data-name="Trazado 605806" d="M0,0H28.2V12.083H0Z" transform="translate(1292.229 -10962.347) rotate(180)" fill="#bec1c7"/>
    <path id="Trazado_605807" data-name="Trazado 605807" d="M0,0H28.2V12.083H0Z" transform="translate(1603.706 -10962.347) rotate(180)" fill="#bec1c7"/>
    <path id="Trazado_605808" data-name="Trazado 605808" d="M0,0H28.2V12.083H0Z" transform="translate(1292.229 -10893.307) rotate(180)" fill="#bec1c7"/>
    <path id="Trazado_605809" data-name="Trazado 605809" d="M0,0H28.2V12.083H0Z" transform="translate(1603.706 -10893.307) rotate(180)" fill="#bec1c7"/>
  </g>
</svg>
