<?xml version="1.0" encoding="utf-8"?>
<!-- Generator: Adobe Illustrator 26.4.1, SVG Export Plug-In . SVG Version: 6.00 Build 0)  -->
<svg version="1.1" id="Layer_1" xmlns="http://www.w3.org/2000/svg" xmlns:xlink="http://www.w3.org/1999/xlink" x="0px" y="0px"
	 viewBox="0 0 543.4 351" style="enable-background:new 0 0 543.4 351;" xml:space="preserve">
<style type="text/css">
	.st0{fill:#1565C0;}
	.st1{fill:#FFFFFF;}
	.st2{fill:none;stroke:#1565C0;}
	.st3{clip-path:url(#SVGID_00000127743476037816744500000010289767040296413059_);}
	.st4{fill:#12263F;}
	.st5{fill:#BEC1C7;}
	.st6{fill:#FFFAE7;}
	.st7{fill:#B2EBF2;}
</style>
<g id="Grupo_889589" transform="translate(-1244 11221.49)">
	<g id="Grupo_879381" transform="translate(1390.669 -11221.49)">
		<path id="Rectángulo_37274" class="st0" d="M11.3,0.3h178.2c5.5,0,10,4.5,10,10v38.5c0,5.5-4.5,10-10,10H11.3
			c-5.5,0-10-4.5-10-10V10.3C1.3,4.8,5.8,0.3,11.3,0.3z"/>
		<g id="Rectángulo_37275" transform="translate(0 0)">
			<path class="st1" d="M10,0h35.1c5.5,0,10,4.5,10,10v38.5c0,5.5-4.5,10-10,10H10c-5.5,0-10-4.5-10-10V10C0,4.5,4.5,0,10,0z"/>
			<path class="st2" d="M10,0.5h35.1c5.2,0,9.5,4.3,9.5,9.5v38.5c0,5.2-4.3,9.5-9.5,9.5H10c-5.2,0-9.5-4.3-9.5-9.5V10
				C0.5,4.8,4.8,0.5,10,0.5z"/>
		</g>
		<path id="Trazado_605810" class="st1" d="M87.2,21.3v4h-2.3V14h4.4c0.8,0,1.5,0.1,2.3,0.5c0.6,0.3,1.1,0.7,1.5,1.3
			c0.4,0.6,0.5,1.3,0.5,2c0,1-0.4,2-1.1,2.6c-0.9,0.7-2,1-3.2,1L87.2,21.3z M87.2,19.4h2.1c0.5,0,1-0.1,1.4-0.4
			c0.3-0.3,0.5-0.8,0.5-1.2c0-0.5-0.2-1-0.5-1.4c-0.4-0.4-0.9-0.5-1.4-0.5h-2.1L87.2,19.4z M99.3,21.2h-1.9v4.2h-2.3V14h4.2
			c1.1-0.1,2.2,0.2,3.1,0.9c0.7,0.6,1.1,1.6,1.1,2.5c0,0.7-0.1,1.4-0.5,1.9c-0.4,0.6-0.9,1-1.5,1.2l2.5,4.6v0.1h-2.5L99.3,21.2z
			 M97.5,19.3h1.9c0.5,0,1-0.1,1.4-0.4c0.3-0.3,0.5-0.8,0.5-1.2c0-0.5-0.1-0.9-0.5-1.3c-0.4-0.3-0.9-0.5-1.4-0.5h-1.9L97.5,19.3z
			 M114.7,19.9c0,1-0.2,2-0.6,2.9c-0.4,0.8-1,1.5-1.7,2c-0.8,0.5-1.6,0.7-2.5,0.7c-0.9,0-1.8-0.2-2.5-0.7c-0.8-0.5-1.3-1.1-1.7-1.9
			C105.2,22,105,21,105,20v-0.6c0-1,0.2-2,0.6-3c0.4-0.8,1-1.5,1.7-2c0.8-0.5,1.6-0.7,2.5-0.7c0.9,0,1.8,0.2,2.5,0.7
			c0.8,0.5,1.3,1.2,1.7,2c0.4,0.9,0.6,1.9,0.6,2.9L114.7,19.9z M112.3,19.4c0.1-0.9-0.2-1.9-0.6-2.7c-0.4-0.6-1.1-1-1.8-0.9
			c-0.7,0-1.4,0.3-1.8,0.9c-0.5,0.8-0.7,1.7-0.6,2.7v0.6c-0.1,0.9,0.2,1.9,0.6,2.7c0.4,0.6,1.1,1,1.8,1c0.7,0,1.4-0.3,1.8-0.9
			c0.5-0.8,0.7-1.8,0.6-2.7L112.3,19.4z M120,19.1l2.4-5.1h2.6l-3.7,7.2v4.1h-2.4v-4.1l-3.7-7.2h2.6L120,19.1z M132.8,20.4h-4.5v3.1
			h5.3v1.9H126V14h7.6v1.9h-5.3v2.7h4.5L132.8,20.4z M143.9,21.6c0,1.1-0.5,2.2-1.4,2.9c-0.9,0.7-2.1,1.1-3.2,1.1
			c-1.3,0.1-2.6-0.5-3.4-1.5c-0.9-1.2-1.3-2.6-1.3-4v-0.7c0-1,0.2-2,0.6-2.9c0.3-0.8,0.9-1.5,1.7-1.9c0.8-0.5,1.6-0.7,2.5-0.7
			c1.2-0.1,2.3,0.3,3.2,1.1c0.8,0.8,1.3,1.8,1.4,3h-2.3c0-0.6-0.2-1.2-0.6-1.6c-0.5-0.4-1-0.5-1.6-0.5c-0.7,0-1.4,0.3-1.8,0.8
			c-0.4,0.8-0.7,1.7-0.6,2.6V20c-0.1,0.9,0.1,1.9,0.6,2.7c0.4,0.6,1.1,0.9,1.8,0.9c0.6,0,1.2-0.1,1.6-0.5c0.4-0.4,0.6-1,0.6-1.5
			L143.9,21.6z M153.8,15.9h-3.5v9.5h-2.3v-9.5h-3.4V14h9.3V15.9z M164.2,19.9c0,1-0.2,2-0.6,2.9c-0.4,0.8-1,1.5-1.7,2
			c-0.8,0.5-1.6,0.7-2.5,0.7c-0.9,0-1.8-0.2-2.5-0.7c-0.8-0.5-1.3-1.1-1.7-1.9c-0.4-0.9-0.6-1.9-0.6-2.9v-0.6c0-1,0.2-2,0.6-3
			c0.4-0.8,1-1.5,1.7-2c0.8-0.5,1.6-0.7,2.5-0.7c0.9,0,1.8,0.2,2.5,0.7c0.8,0.5,1.3,1.2,1.7,2c0.4,0.9,0.6,1.9,0.6,2.9L164.2,19.9z
			 M161.8,19.4c0.1-0.9-0.2-1.9-0.6-2.7c-0.4-0.6-1.1-1-1.8-0.9c-0.7,0-1.4,0.3-1.8,0.9c-0.5,0.8-0.7,1.7-0.6,2.7v0.6
			c-0.1,0.9,0.2,1.9,0.6,2.7c0.4,0.6,1.1,1,1.8,1c0.7,0,1.4-0.3,1.8-0.9c0.5-0.8,0.7-1.8,0.6-2.7L161.8,19.4z M82.8,34l2.9,8.2
			l2.9-8.2h3.1v11.4h-2.4v-3.1l0.2-5.4l-3.1,8.5H85l-3.1-8.5l0.2,5.4v3.1h-2.3V34H82.8z M102.4,34v7.5c0.1,1.1-0.4,2.2-1.2,3
			c-0.9,0.8-2,1.2-3.2,1.1c-1.1,0.1-2.3-0.3-3.2-1.1c-0.8-0.7-1.2-1.8-1.2-2.9V34H96v7.5c-0.1,0.6,0.1,1.2,0.5,1.6
			c0.4,0.4,0.9,0.5,1.5,0.5c1.3,0,2-0.7,2-2.1V34H102.4z M106.7,43.5h5v1.9h-7.3V34h2.3L106.7,43.5z M120,35.9h-3.5v9.5h-2.3v-9.5
			h-3.4V34h9.3V35.9z M123.8,45.3h-2.3V34h2.3V45.3z M129,34l2.9,8.2l2.9-8.2h3.1v11.4h-2.4v-3.1l0.2-5.4l-3.1,8.5h-1.6l-3.1-8.5
			l0.2,5.4v3.1H126V34H129z M146.8,40.4h-4.5v3.1h5.3v1.9H140V34h7.6v1.9h-5.3v2.7h4.5L146.8,40.4z M149,45.3V34h3.5
			c0.9,0,1.9,0.2,2.7,0.7c0.8,0.4,1.4,1.1,1.8,1.9c0.5,0.9,0.7,1.8,0.7,2.8v0.5c0,1-0.2,1.9-0.7,2.8c-0.4,0.8-1.1,1.5-1.8,1.9
			c-0.8,0.5-1.7,0.7-2.7,0.7L149,45.3z M151.3,35.9v7.6h1.1c0.8,0,1.6-0.3,2.1-0.9c0.5-0.7,0.8-1.7,0.7-2.6v-0.6
			c0.1-0.9-0.2-1.9-0.7-2.6c-0.5-0.6-1.3-0.9-2.1-0.9H151.3z M161.9,45.3h-2.3V34h2.3V45.3z M170.6,43h-4.1l-0.8,2.3h-2.5l4.2-11.4
			h2.2l4.3,11.4h-2.5L170.6,43z M167.1,41.1h2.8l-1.4-4.3L167.1,41.1z"/>
		<g id="Grupo_879388" transform="translate(6.444 9.849)">
			<g>
				<defs>
					<rect id="SVGID_1_" x="0" y="0" width="42.2" height="39.4"/>
				</defs>
				<clipPath id="SVGID_00000008130661945613171880000002510283678151697803_">
					<use xlink:href="#SVGID_1_"  style="overflow:visible;"/>
				</clipPath>
				<g id="Grupo_879387" style="clip-path:url(#SVGID_00000008130661945613171880000002510283678151697803_);">
					<path id="Trazado_597197" class="st4" d="M5.4,39.4c-0.4-0.4-0.6-0.7-0.3-1.1C5.2,38.1,5.5,38,5.8,38c7.3,0,14.6,0,22,0h1.1
						c0-0.2,0-0.5,0-0.8c0-0.4-0.3-0.6-0.7-0.7c-0.1,0-0.3,0-0.4,0H7.4c-0.1,0-0.3,0-0.4,0c-0.4,0-0.7-0.3-0.7-0.7c0,0,0,0,0,0
						c0-0.4,0.3-0.7,0.6-0.7c0,0,0,0,0,0c0.5,0,1,0,1.5,0c0.2,0,0.3-0.1,0.4-0.2c0.6-0.8,1.1-1.7,1.8-2.6h-0.5c-2.6,0-5.3,0-7.9,0
						c-1.2,0.1-2.2-0.8-2.2-1.9c0-0.1,0-0.2,0-0.3c0-6,0-12,0-18c-0.1-1.2,0.8-2.2,1.9-2.2c0.1,0,0.2,0,0.3,0c0.2,0,0.4,0,0.5,0
						c0.4,0,0.7,0.2,0.8,0.6c0,0,0,0.1,0,0.1c0,0.4-0.3,0.7-0.8,0.7c-0.2,0-0.4,0-0.6,0c-0.4,0-0.7,0.3-0.7,0.7c0,0,0,0,0,0
						c0,0.1,0,0.2,0,0.3c0,5.9,0,11.7,0,17.6c0,0.8,0.2,1.1,1,1.1h30.3c0.8,0,1-0.2,1-1c0-3.5,0-7.1,0-10.6c0-0.1,0-0.3,0-0.4
						c0-0.3,0.3-0.6,0.7-0.6c0.4,0,0.7,0.2,0.7,0.6c0,0.1,0,0.2,0,0.3c0,3.7,0,7.4,0,11.1c0,1.1-0.9,2.1-2,2.1c0,0-0.1,0-0.1,0
						c-2.7,0-5.3,0-8,0h-0.6c0.6,1,1.2,1.8,1.8,2.7c0.1,0.1,0.2,0.1,0.4,0.1c0.5,0,1,0,1.5,0c1.1,0,2.1,0.9,2.1,2.1
						c0,0.4,0,0.8,0,1.2c0.1,0.4-0.1,0.8-0.4,1L5.4,39.4z M24.7,35.2c-0.6-0.9-1.1-1.7-1.6-2.5c-0.1-0.2-0.4-0.4-0.6-0.3
						c-2.8,0-5.6,0-8.4,0c-0.5-0.1-1.1-0.1-1.6,0.1c-0.4,0.2-0.6,0.8-0.9,1.3c-0.3,0.5-0.6,0.9-1,1.4L24.7,35.2z"/>
					<path id="Trazado_597198" class="st4" d="M42.2,8.7c-0.3,0.3-0.6,0.6-1,0.4c-0.3-0.1-0.5-0.4-0.4-0.8c0-1.5,0-3.1,0-4.6
						c0.1-1.2-0.8-2.2-1.9-2.3c-0.1,0-0.3,0-0.4,0c-4.5,0-9.1,0-13.6,0c-1.2-0.1-2.2,0.7-2.4,1.9c0,0.2,0,0.3,0,0.5
						c0,3.1,0,6.2,0,9.3c-0.1,1.2,0.7,2.3,1.9,2.4c0.1,0,0.3,0,0.4,0c0.1,0,0.2,0,0.4,0c0.7,0,1,0.4,0.8,1.1
						c-0.2,0.6-0.4,1.2-0.6,1.8c0,0.1-0.1,0.2-0.1,0.5l3.3-1.9c0.4-0.2,0.9-0.5,1.3-0.8c0.8-0.5,1.7-0.8,2.6-0.7c2,0.1,4,0,6,0
						c1.2,0.1,2.2-0.7,2.4-1.9c0-0.1,0-0.3,0-0.4c0-0.5,0-1.1,0-1.6c0-0.4,0-0.7,0.4-0.9c0.4-0.2,0.7,0.1,1,0.4v3
						c-0.1,0.1-0.1,0.3-0.2,0.4c-0.5,1.5-1.8,2.5-3.3,2.5c-2.3,0-4.6,0-6.9,0c-0.3,0-0.6,0.1-0.8,0.2c-2.2,1.2-4.4,2.5-6.5,3.8
						c-0.3,0.2-0.7,0.3-1,0.1c-0.4-0.3-0.3-0.7-0.2-1c0.3-1,0.7-2,1-3c-0.5-0.1-0.9-0.3-1.4-0.5c-1.1-0.6-1.9-1.8-1.8-3
						c0-3.3,0-6.6,0-9.9c0-1.9,1.5-3.5,3.5-3.5c0,0,0,0,0,0c4.7,0,9.3,0,14,0c1.7-0.1,3.2,1.1,3.5,2.8c0,0.1,0,0.1,0.1,0.1L42.2,8.7
						z"/>
					<path id="Trazado_597199" class="st4" d="M16.9,11.2c0.2,1.5-0.3,3-1.4,4.2c0.5,0.1,1,0.3,1.5,0.5c1.2,0.5,2,1.8,2,3.1
						c0,2.3,0,4.6,0,7c0,0.5-0.2,0.8-0.7,0.8c-0.5,0-0.7-0.3-0.7-0.8c0-2.2,0-4.4,0-6.6c0.1-1.2-0.7-2.3-1.9-2.4c-0.1,0-0.3,0-0.4,0
						c-0.5-0.1-0.9,0.2-1.1,0.6c-0.5,0.8-1,1.6-1.4,2.4c-0.1,0.9-0.2,1.8-0.1,2.8c0,1.1,0,2.1,0,3.2c0,0.5-0.3,0.8-0.7,0.8
						s-0.7-0.3-0.7-0.8c0-1.9,0-3.8,0-5.6c0-0.2-0.1-0.5-0.2-0.7c-0.5-0.8-1-1.6-1.5-2.5c-0.1-0.2-0.3-0.3-0.5-0.3
						c-0.4,0-0.8,0-1.3,0.1c-0.9,0.3-1.5,1.1-1.5,2.1c0,2.2,0,4.4,0,6.6c0,0.1,0,0.2,0,0.4c0,0.4-0.3,0.7-0.7,0.7
						c-0.4,0-0.7-0.2-0.7-0.6c0,0,0,0,0-0.1c0-2.5,0-5,0-7.4c0.1-1.7,1.5-3,3.2-3.1c0.1,0,0.2,0,0.4,0c-1.1-1.1-1.6-2.7-1.4-4.3
						c-0.7-0.2-1.4-0.5-1.9-1c-0.6-0.6-1-1.5-1-2.4c0-1.4,0-2.8,0-4.1c0-0.6,0.2-0.8,0.9-0.8c3.7,0,7.4,0,11.1,0
						c1.9,0,3.5,1.5,3.5,3.5c0,0,0,0,0,0c0,0.7,0,1.3-0.1,2C19.4,9.8,18.3,10.9,16.9,11.2 M16.9,9.7c0.7-0.2,1.2-0.8,1.3-1.5
						c0.1-0.5,0.1-1.1,0.1-1.6c0.1-1.2-0.7-2.3-1.9-2.4c-0.2,0-0.3,0-0.5,0c-3.3,0-6.5,0-9.8,0H5.6c0,1.3,0,2.5,0,3.7
						c0,0.8,0.6,1.6,1.4,1.8c0-1,0-2.1,0-3.1c0-0.3,0.1-0.6,0.4-0.8C7.7,5.6,8,5.6,8.3,5.8c1.3,0.8,2.9,1.3,4.5,1.2
						c1.1,0,2.2,0,3.3,0c0.6,0,0.8,0.2,0.8,0.8C16.9,8.5,16.9,9.1,16.9,9.7 M8.5,7.5c0,1.6-0.1,3.2,0,4.7c0.1,1.9,1.8,3.4,3.7,3.2
						c1.6-0.1,3-1.4,3.2-3c0.1-1.1,0.1-2.3,0.1-3.4c0-0.2,0-0.4,0-0.7C13.1,8.4,10.7,8.7,8.5,7.5 M12.8,16.9h-1.7l0.8,1.4L12.8,16.9
						"/>
					<path id="Trazado_597200" class="st4" d="M26.8,25.4h4.7c0.6,0,0.9,0.2,0.9,0.7s-0.3,0.7-0.9,0.7c-3.2,0-6.3,0-9.5,0
						c-0.6,0-0.9-0.2-0.9-0.7c0-0.5,0.3-0.7,0.9-0.7L26.8,25.4"/>
					<path id="Trazado_597201" class="st4" d="M9.2,23.3c0,0.9,0,1.8,0,2.6c0,0.6-0.3,0.9-0.7,0.9c-0.4,0-0.7-0.3-0.7-0.8
						c0-1.8,0-3.6,0-5.4c0-0.5,0.3-0.8,0.7-0.8c0.5,0,0.7,0.3,0.7,0.9C9.2,21.5,9.2,22.4,9.2,23.3"/>
					<path id="Trazado_597202" class="st4" d="M14.8,23.2c0-0.9,0-1.8,0-2.7c0-0.5,0.3-0.8,0.7-0.8c0.4,0,0.7,0.3,0.7,0.7
						c0,0,0,0.1,0,0.1c0,1.8,0,3.6,0,5.5c0.1,0.4-0.2,0.7-0.6,0.8c0,0-0.1,0-0.1,0c-0.4,0-0.7-0.3-0.7-0.8
						C14.8,25,14.8,24.1,14.8,23.2"/>
					<path id="Trazado_597203" class="st4" d="M28.8,23.9c-0.9,0-1.8,0-2.7,0c-0.5,0-0.8-0.3-0.8-0.7c0-0.4,0.3-0.7,0.8-0.7
						c1.8,0,3.6,0,5.5,0c0.4,0,0.7,0.3,0.7,0.7s-0.3,0.7-0.7,0.7c0,0,0,0,0,0C30.7,23.9,29.8,23.9,28.8,23.9"/>
					<path id="Trazado_597204" class="st4" d="M24.6,29.6c-0.9,0-1.8,0-2.7,0c-0.5,0-0.8-0.3-0.8-0.7c0-0.4,0.3-0.7,0.8-0.7
						c1.8,0,3.6,0,5.5,0c0.4,0,0.7,0.3,0.7,0.7c0,0.4-0.3,0.7-0.7,0.7c0,0,0,0,0,0C26.5,29.6,25.5,29.6,24.6,29.6"/>
					<path id="Trazado_597205" class="st4" d="M31.7,4.2c0.8-1,2-1.5,3.3-1.4c1.2,0,2.4,0,3.6,0c0.6,0,0.9,0.2,0.9,0.8
						c0,2.7,0,5.5,0,8.2c0,0.6-0.2,0.8-0.8,0.8c-1.7,0-3.5,0-5.2,0c-0.7,0-0.8,0.1-1,0.8c0,0.4-0.4,0.7-0.8,0.6s-0.7-0.4-0.6-0.8
						l0,0c0-2.2,0-4.4,0-6.6c0.2-1.2-0.6-2.3-1.8-2.5c-0.2,0-0.4,0-0.6,0h-3.1v7c0.1,0,0.3,0,0.4,0c1,0,2,0,3,0
						c0.5,0,0.8,0.3,0.8,0.7c0,0.4-0.3,0.7-0.7,0.7c0,0-0.1,0-0.1,0c-1.4,0-2.7,0-4.1,0c-0.4,0.1-0.7-0.2-0.8-0.6c0-0.1,0-0.1,0-0.2
						c0-2.8,0-5.6,0-8.4c0-0.4,0.2-0.7,0.6-0.7c0,0,0.1,0,0.1,0c1.5,0,3,0,4.4,0c0.8,0,1.6,0.4,2.1,0.9C31.4,3.9,31.5,4,31.7,4.2
						 M38,11.3V4.2c-1.1,0-2.3,0-3.4,0c-1.2-0.1-2.2,0.8-2.2,2c0,0.1,0,0.1,0,0.2c0,1.4,0,2.9,0,4.3v0.5L38,11.3z"/>
					<path id="Trazado_597206" class="st4" d="M28.2,5.6c0.2,0,0.5,0,0.7,0c0.4,0,0.7,0.3,0.7,0.7c0,0.4-0.3,0.7-0.7,0.7
						c-0.5,0-1,0-1.5,0c-0.4,0-0.7-0.4-0.6-0.8c0-0.3,0.3-0.6,0.6-0.6C27.7,5.6,27.9,5.6,28.2,5.6"/>
					<path id="Trazado_597207" class="st4" d="M28.2,8.5c0.2,0,0.5,0,0.7,0c0.4,0,0.7,0.3,0.7,0.7c0,0,0,0,0,0
						c0,0.4-0.3,0.7-0.7,0.7c0,0,0,0,0,0c-0.5,0-1,0-1.5,0c-0.4,0-0.7-0.3-0.7-0.7c0,0,0,0,0,0c0-0.4,0.3-0.7,0.6-0.7c0,0,0,0,0,0
						C27.7,8.4,27.9,8.5,28.2,8.5"/>
					<path id="Trazado_597208" class="st4" d="M12,14.1c-0.5,0-1-0.2-1.4-0.5c-0.3-0.3-0.3-0.7-0.1-1c0.2-0.3,0.6-0.3,0.9-0.1
						c0.3,0.3,0.8,0.3,1.1,0c0.3-0.2,0.7-0.2,1,0.1c0.2,0.3,0.2,0.7-0.1,1C13,13.9,12.5,14.1,12,14.1"/>
					<path id="Trazado_597209" class="st4" d="M11.3,10.6c0,0.4-0.3,0.7-0.7,0.7c-0.4,0-0.7-0.3-0.7-0.7c0-0.4,0.3-0.7,0.7-0.7
						c0,0,0,0,0,0C10.9,9.9,11.3,10.2,11.3,10.6C11.3,10.5,11.3,10.5,11.3,10.6"/>
					<path id="Trazado_597210" class="st4" d="M13.4,11.3c-0.4,0-0.7-0.3-0.7-0.7c0-0.4,0.3-0.7,0.7-0.7c0.4,0,0.7,0.3,0.7,0.7
						c0,0,0,0,0,0C14.1,10.9,13.8,11.3,13.4,11.3C13.4,11.3,13.4,11.3,13.4,11.3"/>
					<path id="Trazado_597211" class="st4" d="M35.2,5.6c0.2,0,0.5,0,0.7,0c0.4,0,0.7,0.3,0.6,0.7c0,0,0,0,0,0C36.6,6.7,36.4,7,36,7
						c0,0,0,0,0,0c-0.5,0-1.1,0-1.6,0c-0.4,0-0.6-0.3-0.6-0.7c0-0.4,0.3-0.7,0.6-0.7C34.7,5.6,35,5.6,35.2,5.6"/>
					<path id="Trazado_597212" class="st4" d="M35.2,9.9c-0.2,0-0.5,0-0.7,0c-0.4,0-0.7-0.3-0.6-0.7c0-0.4,0.3-0.7,0.6-0.7
						c0,0,0,0,0,0c0.5,0,1,0,1.5,0c0.4,0,0.7,0.3,0.7,0.7c0,0,0,0,0,0c0,0.4-0.3,0.7-0.6,0.7c0,0,0,0,0,0
						C35.7,9.9,35.4,9.9,35.2,9.9"/>
				</g>
			</g>
		</g>
	</g>
	<g id="Grupo_879384" transform="translate(1322.537 -11139.292)">
		<path id="Unión_57" class="st5" d="M8.5,50.2V0h12.1v50.2H8.5z"/>
		<path id="Unión_58" class="st5" d="M14,61.1L0,41.5h28L14,61.1z"/>
	</g>
	<g id="Grupo_879385" transform="translate(1250.537 -11014.808)">
		<path id="Unión_57-2" class="st5" d="M8.5,121.5V0h12.1v121.5H8.5z"/>
	</g>
	<g id="Grupo_888539" transform="translate(1562.014 -11014.808)">
		<path id="Unión_57-3" class="st5" d="M8.5,121.5V0h12.1v121.5H8.5z"/>
	</g>
	<g id="Grupo_879388-2" transform="translate(1633.552 -11139.292)">
		<path id="Unión_57-4" class="st5" d="M8.5,50.2V0h12.1v50.2H8.5z"/>
		<path id="Unión_58-2" class="st5" d="M14,61.1L0,41.5h28L14,61.1z"/>
	</g>
	<path id="Trazado_605792" class="st5" d="M1654-11128.4h-317.5v-10.9H1654V-11128.4z"/>
	<path id="Trazado_605793" class="st5" d="M1502.5-11162.3v21.2h-10.9v-21.2H1502.5z"/>
	<path id="Trazado_605794" class="st6" d="M1254-11074h164c5.5,0,10,4.5,10,10v38.5c0,5.5-4.5,10-10,10h-164c-5.5,0-10-4.5-10-10
		v-38.5C1244-11069.5,1248.5-11074,1254-11074z"/>
	<path id="Trazado_605795" class="st7" d="M1302-10998h164c5.5,0,10,4.5,10,10v38.5c0,5.5-4.5,10-10,10h-164c-5.5,0-10-4.5-10-10
		v-38.5C1292-10993.5,1296.5-10998,1302-10998z"/>
	<path id="Trazado_605796" class="st7" d="M1613.5-10998h164c5.5,0,10,4.5,10,10v38.5c0,5.5-4.5,10-10,10h-164c-5.5,0-10-4.5-10-10
		v-38.5C1603.5-10993.5,1608-10998,1613.5-10998z"/>
	<path id="Trazado_605797" class="st7" d="M1302-10929h164c5.5,0,10,4.5,10,10v38.5c0,5.5-4.5,10-10,10h-164c-5.5,0-10-4.5-10-10
		v-38.5C1292-10924.5,1296.5-10929,1302-10929z"/>
	<path id="Trazado_605798" class="st7" d="M1613.5-10929h164c5.5,0,10,4.5,10,10v38.5c0,5.5-4.5,10-10,10h-164c-5.5,0-10-4.5-10-10
		v-38.5C1603.5-10924.5,1608-10929,1613.5-10929z"/>
	<path id="Trazado_605799" class="st6" d="M1567-11074.1h164c5.5,0,10,4.5,10,10v38.5c0,5.5-4.5,10-10,10h-164c-5.5,0-10-4.5-10-10
		v-38.5C1557-11069.7,1561.5-11074.1,1567-11074.1z"/>
	<path id="Trazado_605800" class="st4" d="M1298.3-11055.3h-4.9v4h5.7v1.2h-7.2v-11.4h7.1v1.2h-5.6v3.7h4.9V-11055.3z
		 M1302.5-11051.2h5.4v1.2h-6.9v-11.4h1.5L1302.5-11051.2z M1316-11055.3h-4.9v4h5.7v1.2h-7.2v-11.4h7.1v1.2h-5.6v3.7h4.9V-11055.3z
		 M1320.6-11061.4l3.7,9.3l3.7-9.3h1.9v11.4h-1.5v-4.4l0.1-4.8l-3.7,9.2h-1.1l-3.7-9.2l0.1,4.8v4.4h-1.5v-11.4H1320.6z
		 M1339.1-11055.3h-4.9v4h5.7v1.2h-7.2v-11.4h7.1v1.2h-5.6v3.7h4.9V-11055.3z M1350.5-11050h-1.5l-5.7-8.8v8.8h-1.5v-11.4h1.5
		l5.7,8.8v-8.8h1.5V-11050z M1360.8-11060.1h-3.7v10.1h-1.5v-10.1h-3.6v-1.2h8.8V-11060.1z M1371-11055.3c0,1-0.2,2-0.6,2.9
		c-0.3,0.8-0.9,1.4-1.6,1.9c-0.7,0.4-1.6,0.7-2.4,0.7c-0.8,0-1.7-0.2-2.4-0.7c-0.7-0.5-1.3-1.1-1.6-1.9c-0.4-0.9-0.6-1.9-0.6-2.8
		v-0.8c0-1,0.2-2,0.6-2.9c0.3-0.8,0.9-1.5,1.6-1.9c0.7-0.5,1.5-0.7,2.4-0.7c0.9,0,1.7,0.2,2.4,0.7c0.7,0.5,1.3,1.1,1.6,1.9
		c0.4,0.9,0.6,1.9,0.6,2.9V-11055.3z M1369.5-11056.1c0.1-1.1-0.2-2.2-0.8-3.1c-0.5-0.7-1.4-1.1-2.3-1.1c-0.9,0-1.7,0.4-2.2,1.1
		c-0.6,0.9-0.9,1.9-0.8,3v0.8c-0.1,1.1,0.2,2.2,0.8,3.1c0.5,0.7,1.4,1.2,2.3,1.1c0.9,0,1.7-0.4,2.3-1.1c0.6-0.9,0.9-2,0.8-3
		L1369.5-11056.1z M1376.6-11055.1c-1-0.2-2-0.7-2.8-1.4c-0.6-0.5-0.9-1.2-0.9-2c0-0.9,0.4-1.7,1.1-2.2c0.8-0.6,1.8-0.9,2.8-0.9
		c0.7,0,1.4,0.1,2.1,0.5c0.6,0.3,1.1,0.7,1.4,1.2c0.3,0.5,0.5,1.1,0.5,1.7h-1.5c0-0.6-0.2-1.2-0.7-1.6c-0.5-0.4-1.2-0.6-1.9-0.6
		c-0.6,0-1.2,0.1-1.7,0.5c-0.4,0.3-0.6,0.8-0.6,1.4c0,0.5,0.2,0.9,0.6,1.2c0.6,0.4,1.3,0.7,2,0.9c0.8,0.2,1.5,0.5,2.2,0.9
		c0.5,0.3,0.9,0.7,1.2,1.1c0.3,0.5,0.4,1,0.4,1.5c0,0.9-0.4,1.7-1.1,2.2c-0.8,0.6-1.9,0.9-2.9,0.8c-0.8,0-1.5-0.1-2.2-0.4
		c-0.6-0.3-1.2-0.7-1.6-1.2c-0.4-0.5-0.6-1.1-0.6-1.8h1.5c0,0.6,0.3,1.2,0.8,1.6c0.6,0.4,1.3,0.6,2,0.6c0.6,0,1.3-0.1,1.8-0.5
		c0.4-0.3,0.7-0.8,0.6-1.3c0-0.5-0.2-1-0.6-1.3C1378.1-11054.6,1377.4-11054.9,1376.6-11055.1L1376.6-11055.1z M1284.4-11028h-1.5
		v-11.4h1.5V-11028z M1295.9-11028h-1.5l-5.7-8.8v8.8h-1.5v-11.4h1.5l5.7,8.8v-8.8h1.5V-11028z M1306.2-11038.1h-3.7v10.1h-1.5
		v-10.1h-3.7v-1.2h8.8V-11038.1z M1314.3-11033.3h-4.9v4h5.7v1.2h-7.2v-11.4h7.1v1.2h-5.6v3.7h4.9V-11033.3z M1321.2-11032.6h-2.7
		v4.6h-1.5v-11.4h3.8c1.1-0.1,2.1,0.2,3,0.9c0.7,0.6,1.1,1.6,1,2.5c0,0.7-0.2,1.3-0.6,1.9c-0.4,0.5-1,1-1.6,1.2l2.7,4.8v0.1h-1.6
		L1321.2-11032.6z M1318.5-11033.8h2.3c0.6,0,1.3-0.2,1.8-0.6c0.4-0.4,0.7-1,0.7-1.5c0-0.6-0.2-1.2-0.6-1.6
		c-0.5-0.4-1.2-0.6-1.8-0.6h-2.3L1318.5-11033.8z M1333.1-11031h-4.8l-1.1,3h-1.5l4.3-11.4h1.3l4.4,11.4h-1.5L1333.1-11031z
		 M1328.8-11032.2h3.9l-1.9-5.3L1328.8-11032.2z M1345.6-11031.6c-0.1,1.1-0.5,2.1-1.3,2.8c-0.8,0.7-1.9,1-3,1
		c-1.2,0-2.4-0.5-3.2-1.4c-0.9-1.1-1.3-2.5-1.2-3.9v-1.1c0-1,0.2-1.9,0.6-2.8c0.3-0.8,0.9-1.4,1.6-1.8c0.7-0.4,1.6-0.7,2.4-0.6
		c1.1-0.1,2.1,0.3,2.9,1c0.8,0.7,1.2,1.7,1.3,2.8h-1.5c-0.1-0.7-0.4-1.4-0.8-2c-0.5-0.4-1.2-0.6-1.8-0.6c-0.9,0-1.7,0.4-2.3,1.1
		c-0.6,0.9-0.9,2-0.8,3v1.1c-0.1,1,0.2,2.1,0.8,2.9c0.5,0.7,1.3,1.1,2.2,1.1c0.7,0,1.4-0.2,1.9-0.6c0.5-0.5,0.8-1.2,0.9-2
		L1345.6-11031.6z M1355.2-11038.1h-3.7v10.1h-1.5v-10.1h-3.6v-1.2h8.8V-11038.1z M1358.5-11028h-1.5v-11.4h1.5V-11028z M1365-11030
		l3.2-9.4h1.6l-4.2,11.4h-1.3l-4.2-11.4h1.6L1365-11030z M1380.1-11033.3c0,1-0.2,2-0.6,2.9c-0.3,0.8-0.9,1.4-1.6,1.9
		c-2,1.3-4.8,0.7-6.1-1.3c-0.1-0.2-0.2-0.4-0.3-0.6c-0.4-0.9-0.6-1.9-0.6-2.8v-0.8c0-1,0.2-2,0.6-2.9c0.7-1.6,2.3-2.6,4-2.6
		c0.9,0,1.7,0.2,2.4,0.7c0.7,0.5,1.3,1.1,1.6,1.9c0.4,0.9,0.6,1.9,0.6,2.9L1380.1-11033.3z M1378.6-11034.1c0.1-1.1-0.2-2.2-0.8-3.1
		c-0.5-0.7-1.4-1.1-2.3-1.1c-0.9,0-1.7,0.4-2.2,1.1c-0.6,0.9-0.9,1.9-0.8,3v0.8c-0.1,1.1,0.2,2.2,0.8,3.1c1,1.3,2.8,1.5,4.1,0.5
		c0.2-0.1,0.3-0.3,0.5-0.5c0.6-0.9,0.9-2,0.8-3L1378.6-11034.1z M1385.7-11033.1c-1-0.2-2-0.7-2.8-1.4c-0.6-0.5-0.9-1.2-0.9-2
		c0-0.9,0.4-1.7,1.1-2.2c0.8-0.6,1.8-0.9,2.8-0.9c0.7,0,1.4,0.1,2.1,0.5c0.6,0.3,1.1,0.7,1.4,1.2c0.3,0.5,0.5,1.1,0.5,1.7h-1.5
		c0-0.6-0.2-1.2-0.7-1.6c-0.5-0.4-1.2-0.6-1.9-0.6c-0.6,0-1.2,0.1-1.7,0.5c-0.4,0.3-0.6,0.8-0.6,1.4c0,0.5,0.2,0.9,0.6,1.2
		c0.6,0.4,1.3,0.7,2,0.9c0.8,0.2,1.5,0.5,2.2,0.9c0.5,0.3,0.9,0.7,1.2,1.1c0.3,0.5,0.4,1,0.4,1.5c0,0.9-0.4,1.7-1.1,2.2
		c-0.8,0.6-1.9,0.9-2.9,0.8c-0.8,0-1.5-0.1-2.2-0.4c-0.6-0.3-1.2-0.7-1.6-1.2c-0.4-0.5-0.6-1.1-0.6-1.8h1.5c0,0.6,0.3,1.2,0.8,1.6
		c0.6,0.4,1.3,0.6,2,0.6c0.6,0,1.3-0.1,1.8-0.5c0.4-0.3,0.7-0.8,0.6-1.3c0-0.5-0.2-1-0.6-1.3
		C1387.2-11032.6,1386.5-11032.9,1385.7-11033.1L1385.7-11033.1z"/>
	<path id="Trazado_605801" class="st4" d="M1348.5-10966h-4.8l-1.1,3h-1.5l4.3-11.4h1.3l4.4,11.4h-1.5L1348.5-10966z
		 M1344.2-10967.2h3.9l-1.9-5.3L1344.2-10967.2z M1361.4-10963h-1.5l-5.7-8.8v8.8h-1.5v-11.4h1.5l5.7,8.8v-8.8h1.5L1361.4-10963z
		 M1365.7-10963h-1.5v-11.4h1.5V-10963z M1370.4-10974.4l3.7,9.3l3.7-9.3h1.9v11.4h-1.5v-4.4l0.1-4.8l-3.7,9.2h-1.2l-3.7-9.2
		l0.1,4.8v4.4h-1.5v-11.4H1370.4z M1388.8-10966h-4.8l-1.1,3h-1.5l4.3-11.4h1.3l4.4,11.4h-1.5L1388.8-10966z M1384.5-10967.2h3.9
		l-1.9-5.3L1384.5-10967.2z M1401.2-10966.6c-0.1,1.1-0.6,2.1-1.3,2.8c-0.8,0.7-1.9,1-3,1c-1.2,0-2.4-0.5-3.2-1.4
		c-0.9-1.1-1.3-2.5-1.2-3.9v-1.1c0-1,0.2-1.9,0.6-2.8c0.3-0.8,0.9-1.4,1.6-1.8c0.7-0.4,1.6-0.7,2.4-0.6c1.1-0.1,2.1,0.3,2.9,1
		c0.8,0.7,1.2,1.7,1.3,2.8h-1.5c-0.1-0.7-0.4-1.4-0.8-2c-0.5-0.4-1.2-0.7-1.8-0.6c-0.9,0-1.7,0.4-2.3,1.1c-0.6,0.9-0.9,2-0.8,3v1.1
		c-0.1,1,0.2,2.1,0.8,2.9c0.5,0.7,1.3,1.1,2.2,1.1c0.7,0,1.4-0.2,1.9-0.6c0.5-0.5,0.8-1.2,0.9-2L1401.2-10966.6z M1404.9-10963h-1.5
		v-11.4h1.5V-10963z M1416.4-10968.3c0,1-0.2,2-0.6,2.9c-0.3,0.8-0.9,1.4-1.6,1.9c-0.7,0.4-1.6,0.7-2.4,0.7c-0.8,0-1.7-0.2-2.4-0.7
		c-0.7-0.5-1.3-1.1-1.6-1.9c-0.4-0.9-0.6-1.9-0.6-2.8v-0.8c0-1,0.2-2,0.6-2.9c0.3-0.8,0.9-1.5,1.6-1.9c0.7-0.5,1.5-0.7,2.4-0.7
		c0.9,0,1.7,0.2,2.4,0.7c0.7,0.5,1.3,1.1,1.6,1.9c0.4,0.9,0.6,1.9,0.6,2.9L1416.4-10968.3z M1414.9-10969.1c0.1-1.1-0.2-2.2-0.8-3.1
		c-0.5-0.7-1.4-1.1-2.3-1.1c-0.9,0-1.7,0.4-2.2,1.1c-0.6,0.9-0.9,1.9-0.8,3v0.8c-0.1,1.1,0.2,2.2,0.8,3.1c0.5,0.7,1.4,1.2,2.3,1.1
		c0.9,0,1.7-0.4,2.2-1.1c0.6-0.9,0.9-2,0.8-3V-10969.1z M1412.5-10977.4h1.8l-2.1,2.3h-1.2L1412.5-10977.4z M1427.4-10963h-1.5
		l-5.7-8.8v8.8h-1.5v-11.4h1.5l5.7,8.8v-8.8h1.5L1427.4-10963z"/>
	<path id="Trazado_605802" class="st4" d="M1678.8-10963h-1.5l-5.7-8.8v8.8h-1.5v-11.4h1.5l5.7,8.8v-8.8h1.5L1678.8-10963z
		 M1690.3-10968.3c0,1-0.2,2-0.6,2.9c-0.3,0.8-0.9,1.4-1.6,1.9c-0.7,0.4-1.6,0.7-2.4,0.7c-0.8,0-1.7-0.2-2.4-0.7
		c-0.7-0.5-1.3-1.1-1.6-1.9c-0.4-0.9-0.6-1.9-0.6-2.8v-0.8c0-1,0.2-2,0.6-2.9c0.3-0.8,0.9-1.5,1.6-1.9c0.7-0.5,1.5-0.7,2.4-0.7
		c0.9,0,1.7,0.2,2.4,0.7c0.7,0.5,1.3,1.1,1.6,1.9c0.4,0.9,0.6,1.9,0.6,2.9L1690.3-10968.3z M1688.8-10969.1c0.1-1.1-0.2-2.2-0.8-3.1
		c-0.5-0.7-1.4-1.1-2.3-1.1c-0.9,0-1.7,0.4-2.2,1.1c-0.6,0.9-0.9,1.9-0.8,3v0.8c-0.1,1.1,0.2,2.2,0.8,3.1c0.5,0.7,1.4,1.2,2.3,1.1
		c0.9,0,1.7-0.4,2.2-1.1c0.6-0.9,0.9-2,0.8-3V-10969.1z M1692.5-10963v-11.4h3.2c0.9,0,1.8,0.2,2.6,0.7c0.8,0.4,1.4,1.1,1.8,1.9
		c0.4,0.9,0.6,1.8,0.6,2.8v0.7c0,1-0.2,1.9-0.6,2.8c-0.4,0.8-1,1.4-1.8,1.9c-0.8,0.4-1.7,0.7-2.7,0.7H1692.5z M1694-10973.1v8.9h1.6
		c1,0.1,2-0.3,2.7-1.1c0.7-0.9,1-2,1-3.1v-0.7c0.1-1.1-0.3-2.2-0.9-3c-0.7-0.7-1.6-1.1-2.6-1.1H1694z M1711.8-10968.3
		c0,1-0.2,2-0.6,2.9c-0.3,0.8-0.9,1.4-1.6,1.9c-0.7,0.4-1.6,0.7-2.4,0.7c-0.8,0-1.7-0.2-2.4-0.7c-0.7-0.5-1.3-1.1-1.6-1.9
		c-0.4-0.9-0.6-1.9-0.6-2.8v-0.8c0-1,0.2-2,0.6-2.9c0.3-0.8,0.9-1.5,1.6-1.9c0.7-0.5,1.5-0.7,2.4-0.7c0.9,0,1.7,0.2,2.4,0.7
		c0.7,0.5,1.3,1.1,1.6,1.9c0.4,0.9,0.6,1.9,0.6,2.9V-10968.3z M1710.3-10969.1c0.1-1.1-0.2-2.2-0.8-3.1c-0.5-0.7-1.4-1.1-2.3-1.1
		c-0.9,0-1.7,0.4-2.2,1.1c-0.6,0.9-0.9,1.9-0.8,3v0.8c-0.1,1.1,0.2,2.2,0.8,3.1c0.5,0.7,1.4,1.2,2.3,1.1c0.9,0,1.7-0.4,2.2-1.1
		c0.6-0.9,0.9-2,0.8-3V-10969.1z M1717.4-10968.1c-1-0.2-2-0.7-2.8-1.4c-0.6-0.5-0.9-1.2-0.9-2c0-0.9,0.4-1.7,1.1-2.2
		c0.8-0.6,1.8-0.9,2.8-0.9c0.7,0,1.4,0.1,2.1,0.5c0.6,0.3,1.1,0.7,1.4,1.2c0.3,0.5,0.5,1.1,0.5,1.7h-1.5c0-0.6-0.2-1.2-0.7-1.6
		c-0.5-0.4-1.2-0.6-1.9-0.6c-0.6,0-1.2,0.1-1.7,0.5c-0.4,0.3-0.6,0.8-0.6,1.4c0,0.5,0.2,0.9,0.6,1.2c0.6,0.4,1.3,0.7,2,0.9
		c0.8,0.2,1.5,0.5,2.2,0.9c0.5,0.3,0.9,0.7,1.2,1.1c0.3,0.5,0.4,1,0.4,1.5c0,0.9-0.4,1.7-1.1,2.2c-0.8,0.6-1.9,0.9-2.9,0.8
		c-0.8,0-1.5-0.1-2.2-0.4c-0.6-0.3-1.2-0.7-1.6-1.2c-0.4-0.5-0.6-1.1-0.6-1.8h1.5c0,0.6,0.3,1.2,0.8,1.6c0.6,0.4,1.3,0.6,2,0.6
		c0.6,0,1.3-0.1,1.8-0.5c0.4-0.3,0.7-0.8,0.6-1.3c0-0.5-0.2-1-0.6-1.3C1718.8-10967.6,1718.1-10967.9,1717.4-10968.1z"/>
	<path id="Trazado_605803" class="st4" d="M1355.1-10899c-1-0.2-2-0.7-2.8-1.4c-0.6-0.5-0.9-1.2-0.9-2c0-0.9,0.4-1.7,1.1-2.2
		c0.8-0.6,1.8-0.9,2.8-0.9c0.7,0,1.4,0.1,2.1,0.5c0.6,0.3,1.1,0.7,1.4,1.2c0.3,0.5,0.5,1.1,0.5,1.7h-1.5c0-0.6-0.2-1.2-0.7-1.6
		c-0.5-0.4-1.2-0.6-1.9-0.6c-0.6,0-1.2,0.1-1.7,0.5c-0.4,0.3-0.6,0.8-0.6,1.4c0,0.5,0.2,0.9,0.6,1.2c0.6,0.4,1.3,0.7,2,0.9
		c0.8,0.2,1.5,0.5,2.2,0.9c0.5,0.3,0.9,0.7,1.2,1.1c0.3,0.5,0.4,1,0.4,1.5c0,0.9-0.4,1.7-1.1,2.2c-0.8,0.6-1.9,0.9-2.9,0.8
		c-0.8,0-1.5-0.1-2.2-0.4c-0.6-0.3-1.2-0.7-1.6-1.2c-0.4-0.5-0.6-1.1-0.6-1.8h1.5c0,0.6,0.3,1.2,0.8,1.6c0.6,0.4,1.3,0.6,2,0.6
		c0.6,0,1.3-0.1,1.8-0.5c0.4-0.3,0.7-0.8,0.6-1.3c0-0.5-0.2-1-0.6-1.3C1356.5-10898.5,1355.8-10898.9,1355.1-10899z M1369.9-10899.3
		c0,1-0.2,2-0.6,2.9c-0.3,0.8-0.9,1.4-1.6,1.9c-0.7,0.4-1.6,0.7-2.4,0.7c-0.8,0-1.7-0.2-2.4-0.7c-0.7-0.5-1.3-1.1-1.6-1.9
		c-0.4-0.9-0.6-1.9-0.6-2.8v-0.8c0-1,0.2-2,0.6-2.9c0.3-0.8,0.9-1.5,1.6-1.9c0.7-0.5,1.5-0.7,2.4-0.7c0.9,0,1.7,0.2,2.4,0.7
		c0.7,0.5,1.3,1.1,1.6,1.9c0.4,0.9,0.6,1.9,0.6,2.9L1369.9-10899.3z M1368.5-10900c0.1-1.1-0.2-2.2-0.8-3.1
		c-0.5-0.7-1.4-1.1-2.3-1.1c-0.9,0-1.7,0.4-2.2,1.1c-0.6,0.9-0.9,1.9-0.8,3v0.8c-0.1,1.1,0.2,2.2,0.8,3.1c0.5,0.7,1.4,1.2,2.3,1.1
		c0.9,0,1.7-0.4,2.2-1.1c0.6-0.9,0.9-2,0.8-3L1368.5-10900z M1380.9-10894h-1.5l-5.7-8.8v8.8h-1.5v-11.4h1.5l5.7,8.8v-8.8h1.5
		L1380.9-10894z M1385.2-10894h-1.5v-11.4h1.5V-10894z M1388-10894v-11.4h3.2c0.9,0,1.8,0.2,2.6,0.7c0.8,0.4,1.4,1.1,1.8,1.9
		c0.4,0.9,0.6,1.8,0.6,2.8v0.7c0,1-0.2,1.9-0.6,2.8c-0.4,0.8-1,1.4-1.8,1.9c-0.8,0.4-1.7,0.7-2.7,0.7H1388z M1389.5-10904.1v8.9h1.6
		c1,0.1,2-0.3,2.7-1.1c0.7-0.9,1-2,1-3.1v-0.7c0.1-1.1-0.3-2.2-0.9-3c-0.7-0.7-1.6-1.1-2.6-1.1H1389.5z M1407.2-10899.3
		c0,1-0.2,2-0.6,2.9c-0.3,0.8-0.9,1.4-1.6,1.9c-0.7,0.4-1.6,0.7-2.4,0.7c-0.8,0-1.7-0.2-2.4-0.7c-0.7-0.5-1.3-1.1-1.6-1.9
		c-0.4-0.9-0.6-1.9-0.6-2.8v-0.8c0-1,0.2-2,0.6-2.9c0.3-0.8,0.9-1.5,1.6-1.9c0.7-0.5,1.5-0.7,2.4-0.7c0.9,0,1.7,0.2,2.4,0.7
		c0.7,0.5,1.3,1.1,1.6,1.9c0.4,0.9,0.6,1.9,0.6,2.9V-10899.3z M1405.7-10900c0.1-1.1-0.2-2.2-0.8-3.1c-0.5-0.7-1.4-1.1-2.3-1.1
		c-0.9,0-1.7,0.4-2.2,1.1c-0.6,0.9-0.9,1.9-0.8,3v0.8c-0.1,1.1,0.2,2.2,0.8,3.1c0.5,0.7,1.4,1.2,2.3,1.1c0.9,0,1.7-0.4,2.2-1.1
		c0.6-0.9,0.9-2,0.8-3L1405.7-10900z M1412.8-10899c-1-0.2-2-0.7-2.8-1.4c-0.6-0.5-0.9-1.2-0.9-2c0-0.9,0.4-1.7,1.1-2.2
		c0.8-0.6,1.8-0.9,2.8-0.9c0.7,0,1.4,0.1,2.1,0.5c0.6,0.3,1.1,0.7,1.4,1.2c0.3,0.5,0.5,1.1,0.5,1.7h-1.5c0-0.6-0.2-1.2-0.7-1.6
		c-0.5-0.4-1.2-0.6-1.9-0.6c-0.6,0-1.2,0.1-1.7,0.5c-0.4,0.3-0.6,0.8-0.6,1.4c0,0.5,0.2,0.9,0.6,1.2c0.6,0.4,1.3,0.7,2,0.9
		c0.8,0.2,1.5,0.5,2.2,0.9c0.5,0.3,0.9,0.7,1.2,1.1c0.3,0.5,0.4,1,0.4,1.5c0,0.9-0.4,1.7-1.1,2.2c-0.8,0.6-1.9,0.9-2.9,0.8
		c-0.8,0-1.5-0.1-2.2-0.4c-0.6-0.3-1.2-0.7-1.6-1.2c-0.4-0.5-0.6-1.1-0.6-1.8h1.5c0,0.6,0.3,1.2,0.8,1.6c0.6,0.4,1.3,0.6,2,0.6
		c0.6,0,1.3-0.1,1.8-0.5c0.4-0.3,0.7-0.8,0.6-1.3c0-0.5-0.2-1-0.6-1.3C1414.3-10898.5,1413.6-10898.9,1412.8-10899z"/>
	<path id="Trazado_605804" class="st4" d="M1668.9-10899.2h-4.9v4h5.7v1.2h-7.2v-11.4h7.1v1.2h-5.6v3.7h4.9V-10899.2z M1680.3-10894
		h-1.5l-5.7-8.8v8.8h-1.5v-11.4h1.5l5.7,8.8v-8.8h1.5L1680.3-10894z M1684.5-10895.2h5.4v1.2h-6.9v-11.4h1.5L1684.5-10895.2z
		 M1698-10896.9h-4.8l-1.1,3h-1.5l4.3-11.4h1.3l4.4,11.4h-1.5L1698-10896.9z M1693.7-10898.2h3.9l-1.9-5.3L1693.7-10898.2z
		 M1710.5-10897.6c-0.1,1.1-0.5,2.1-1.3,2.8c-0.8,0.7-1.9,1-3,1c-1.2,0-2.4-0.5-3.2-1.4c-0.9-1.1-1.3-2.5-1.2-3.9v-1.1
		c0-1,0.2-1.9,0.6-2.8c0.3-0.8,0.9-1.4,1.6-1.8c0.7-0.4,1.6-0.7,2.4-0.6c1.1-0.1,2.1,0.3,2.9,1c0.8,0.7,1.2,1.7,1.3,2.8h-1.5
		c-0.1-0.7-0.4-1.4-0.8-2c-0.5-0.4-1.2-0.7-1.8-0.6c-0.9,0-1.7,0.4-2.3,1.1c-0.6,0.9-0.9,2-0.8,3v1.1c-0.1,1,0.2,2.1,0.8,2.9
		c0.5,0.7,1.3,1.1,2.2,1.1c0.7,0,1.4-0.2,1.9-0.6c0.5-0.5,0.8-1.2,0.9-2L1710.5-10897.6z M1718.9-10899.2h-4.9v4h5.7v1.2h-7.2v-11.4
		h7.1v1.2h-5.6v3.7h4.9V-10899.2z M1725-10899c-1-0.2-2-0.7-2.8-1.4c-0.6-0.5-0.9-1.2-0.9-2c0-0.9,0.4-1.7,1.1-2.2
		c0.8-0.6,1.8-0.9,2.8-0.9c0.7,0,1.4,0.1,2.1,0.5c0.6,0.3,1.1,0.7,1.4,1.2c0.3,0.5,0.5,1.1,0.5,1.7h-1.5c0-0.6-0.2-1.2-0.7-1.6
		c-0.5-0.4-1.2-0.6-1.9-0.6c-0.6,0-1.2,0.1-1.7,0.5c-0.4,0.3-0.6,0.8-0.6,1.4c0,0.5,0.2,0.9,0.6,1.2c0.6,0.4,1.3,0.7,2,0.9
		c0.8,0.2,1.5,0.5,2.2,0.9c0.5,0.3,0.9,0.7,1.2,1.1c0.3,0.5,0.4,1,0.4,1.5c0,0.9-0.4,1.7-1.1,2.2c-0.8,0.6-1.9,0.9-2.9,0.8
		c-0.8,0-1.5-0.1-2.2-0.4c-0.6-0.3-1.2-0.7-1.6-1.2c-0.4-0.5-0.6-1.1-0.6-1.8h1.5c0,0.6,0.3,1.2,0.8,1.6c0.6,0.4,1.3,0.6,2,0.6
		c0.6,0,1.3-0.1,1.8-0.5c0.4-0.3,0.7-0.8,0.6-1.3c0-0.5-0.2-1-0.6-1.3C1726.4-10898.5,1725.7-10898.9,1725-10899L1725-10899z"/>
	<path id="Trazado_605805" class="st4" d="M1599.6-11055.4h-4.9v4h5.7v1.2h-7.2v-11.4h7.1v1.2h-5.6v3.7h4.9V-11055.4z
		 M1603.7-11051.4h5.4v1.2h-6.9v-11.4h1.5L1603.7-11051.4z M1617.3-11055.4h-4.9v4h5.7v1.2h-7.2v-11.4h7.1v1.2h-5.6v3.7h4.9
		V-11055.4z M1621.9-11061.5l3.7,9.3l3.7-9.3h1.9v11.4h-1.5v-4.4l0.1-4.8l-3.7,9.2h-1.1l-3.7-9.2l0.1,4.8v4.4h-1.5v-11.4H1621.9z
		 M1640.3-11055.4h-4.9v4h5.7v1.2h-7.2v-11.4h7.1v1.2h-5.6v3.7h4.9V-11055.4z M1651.7-11050.1h-1.5l-5.7-8.8v8.8h-1.5v-11.4h1.5
		l5.7,8.8v-8.8h1.5V-11050.1z M1662-11060.3h-3.7v10.1h-1.5v-10.1h-3.6v-1.2h8.8V-11060.3z M1672.2-11055.5c0,1-0.2,2-0.6,2.9
		c-0.3,0.8-0.9,1.4-1.6,1.9c-0.7,0.4-1.6,0.7-2.4,0.7c-0.8,0-1.7-0.2-2.4-0.7c-0.7-0.5-1.3-1.1-1.6-1.9c-0.4-0.9-0.6-1.9-0.6-2.8
		v-0.8c0-1,0.2-2,0.6-2.9c0.3-0.8,0.9-1.5,1.6-1.9c0.7-0.5,1.5-0.7,2.4-0.7c0.9,0,1.7,0.2,2.4,0.7c0.7,0.5,1.3,1.1,1.6,1.9
		c0.4,0.9,0.6,1.9,0.6,2.9V-11055.5z M1670.8-11056.2c0.1-1.1-0.2-2.2-0.8-3.1c-0.5-0.7-1.4-1.1-2.3-1.1c-0.9,0-1.7,0.4-2.2,1.1
		c-0.6,0.9-0.9,1.9-0.8,3v0.8c-0.1,1.1,0.2,2.2,0.8,3.1c0.5,0.7,1.4,1.2,2.3,1.1c0.9,0,1.7-0.4,2.2-1.1c0.6-0.9,0.9-2,0.8-3
		L1670.8-11056.2z M1677.9-11055.2c-1-0.2-2-0.7-2.8-1.4c-0.6-0.5-0.9-1.2-0.9-2c0-0.9,0.4-1.7,1.1-2.2c0.8-0.6,1.8-0.9,2.8-0.9
		c0.7,0,1.4,0.1,2.1,0.5c0.6,0.3,1.1,0.7,1.4,1.2c0.3,0.5,0.5,1.1,0.5,1.7h-1.5c0-0.6-0.2-1.2-0.7-1.6c-0.5-0.4-1.2-0.6-1.9-0.6
		c-0.6,0-1.2,0.1-1.7,0.5c-0.4,0.3-0.6,0.8-0.6,1.4c0,0.5,0.2,0.9,0.6,1.2c0.6,0.4,1.3,0.7,2,0.9c0.8,0.2,1.5,0.5,2.2,0.9
		c0.5,0.3,0.9,0.7,1.2,1.1c0.3,0.5,0.4,1,0.4,1.5c0,0.9-0.4,1.7-1.1,2.2c-0.8,0.6-1.9,0.9-2.9,0.8c-0.8,0-1.5-0.1-2.2-0.4
		c-0.6-0.3-1.2-0.7-1.6-1.2c-0.4-0.5-0.6-1.1-0.6-1.8h1.5c0,0.6,0.3,1.2,0.8,1.6c0.6,0.4,1.3,0.6,2,0.6c0.6,0,1.3-0.1,1.8-0.5
		c0.4-0.3,0.7-0.8,0.6-1.3c0-0.5-0.2-1-0.6-1.3C1679.3-11054.7,1678.6-11055,1677.9-11055.2z M1688-11050.1v-11.4h3.2
		c0.9,0,1.8,0.2,2.6,0.7c0.8,0.4,1.4,1.1,1.8,1.9c0.4,0.9,0.6,1.8,0.6,2.8v0.7c0,1-0.2,1.9-0.6,2.8c-0.4,0.8-1,1.4-1.8,1.9
		c-0.8,0.4-1.7,0.7-2.7,0.7H1688z M1689.5-11060.3v8.9h1.6c1,0.1,2-0.3,2.7-1.1c0.7-0.9,1-2,1-3.1v-0.7c0.1-1.1-0.3-2.2-0.9-3
		c-0.7-0.7-1.6-1.1-2.6-1.1H1689.5z M1704.9-11055.4h-4.9v4h5.7v1.2h-7.2v-11.4h7.1v1.2h-5.6v3.7h4.9L1704.9-11055.4z
		 M1612.5-11028.1h-1.5v-5.3h-5.7v5.3h-1.5v-11.4h1.5v4.9h5.7v-4.9h1.5V-11028.1z M1616.8-11028.1h-1.5v-11.4h1.5V-11028.1z
		 M1621-11032.6v4.5h-1.5v-11.4h4.2c1.1-0.1,2.1,0.3,2.9,1c0.7,0.6,1.1,1.6,1.1,2.5c0.1,1-0.3,1.9-1,2.6c-0.8,0.6-1.9,1-3,0.9
		L1621-11032.6z M1621-11033.8h2.7c0.7,0,1.3-0.2,1.8-0.6c0.4-0.4,0.7-1,0.6-1.6c0-0.6-0.2-1.2-0.6-1.6c-0.5-0.4-1.1-0.7-1.8-0.6
		h-2.8L1621-11033.8z M1636-11033.4h-4.9v4h5.7v1.2h-7.2v-11.4h7.1v1.2h-5.6v3.7h4.9V-11033.4z M1642.9-11032.8h-2.7v4.6h-1.5v-11.4
		h3.8c1.1-0.1,2.1,0.2,3,0.9c0.7,0.6,1.1,1.6,1,2.5c0,0.7-0.2,1.3-0.6,1.9c-0.4,0.5-1,1-1.6,1.2l2.7,4.8v0.1h-1.6L1642.9-11032.8z
		 M1640.2-11034h2.3c0.6,0,1.3-0.2,1.8-0.6c0.4-0.4,0.7-1,0.7-1.5c0-0.6-0.2-1.2-0.6-1.6c-0.5-0.4-1.2-0.6-1.8-0.6h-2.3
		L1640.2-11034z M1655.8-11038.3h-3.7v10.1h-1.5v-10.1h-3.6v-1.2h8.8L1655.8-11038.3z M1663.9-11033.4h-4.9v4h5.7v1.2h-7.2v-11.4
		h7.1v1.2h-5.6v3.7h4.9V-11033.4z M1670.3-11035.2l2.7-4.4h1.8l-3.6,5.6l3.7,5.7h-1.8l-2.8-4.4l-2.8,4.4h-1.8l3.7-5.7l-3.6-5.6h1.8
		L1670.3-11035.2z M1684.5-11038.3h-3.7v10.1h-1.5v-10.1h-3.6v-1.2h8.8L1684.5-11038.3z M1694.7-11033.5c0,1-0.2,2-0.6,2.9
		c-0.3,0.8-0.9,1.4-1.6,1.9c-2,1.3-4.8,0.7-6.1-1.3c-0.1-0.2-0.2-0.4-0.3-0.6c-0.4-0.9-0.6-1.9-0.6-2.8v-0.8c0-1,0.2-2,0.6-2.9
		c0.7-1.6,2.3-2.6,4-2.6c0.9,0,1.7,0.2,2.4,0.7c0.7,0.5,1.3,1.1,1.6,1.9c0.4,0.9,0.6,1.9,0.6,2.9L1694.7-11033.5z M1693.2-11034.2
		c0.1-1.1-0.2-2.2-0.8-3.1c-0.5-0.7-1.4-1.1-2.3-1.1c-0.9,0-1.7,0.4-2.2,1.1c-0.6,0.9-0.9,1.9-0.8,3v0.8c-0.1,1.1,0.2,2.2,0.8,3.1
		c1,1.3,2.8,1.5,4.1,0.5c0.2-0.1,0.3-0.3,0.5-0.5c0.6-0.9,0.9-2,0.8-3V-11034.2z"/>
	<path id="Trazado_605806" class="st5" d="M1292.2-10962.3H1264v-12.1h28.2V-10962.3z"/>
	<path id="Trazado_605807" class="st5" d="M1603.7-10962.3h-28.2v-12.1h28.2V-10962.3z"/>
	<path id="Trazado_605808" class="st5" d="M1292.2-10893.3H1264v-12.1h28.2V-10893.3z"/>
	<path id="Trazado_605809" class="st5" d="M1603.7-10893.3h-28.2v-12.1h28.2V-10893.3z"/>
</g>
</svg>
