<svg xmlns="http://www.w3.org/2000/svg" xmlns:xlink="http://www.w3.org/1999/xlink" width="122" height="116.609" viewBox="0 0 122 116.609">
  <defs>
    <filter id="Rect치ngulo_300216" x="0" y="0" width="122" height="116.609" filterUnits="userSpaceOnUse">
      <feOffset dy="3" input="SourceAlpha"/>
      <feGaussianBlur stdDeviation="3" result="blur"/>
      <feFlood flood-opacity="0.161"/>
      <feComposite operator="in" in2="blur"/>
      <feComposite in="SourceGraphic"/>
    </filter>
  </defs>
  <g id="Grupo_889602" data-name="Grupo 889602" transform="translate(-6880 6934.018)">
    <g id="Grupo_889601" data-name="Grupo 889601">
      <g transform="matrix(1, 0, 0, 1, 6880, -6934.02)" filter="url(#Rect치ngulo_300216)">
        <rect id="Rect치ngulo_300216-2" data-name="Rect치ngulo 300216" width="104" height="98.609" rx="10" transform="translate(9 6)" fill="#e8e8e8"/>
      </g>
      <path id="Trazado_605905" data-name="Trazado 605905" d="M47.417-26.455q0,13.271-5.493,20.3T25.84.879q-10.459,0-16-6.9T4.175-25.8V-37.573q0-13.4,5.559-20.347t16.018-6.943q10.459,0,16,6.877t5.669,19.753ZM34.717-39.4q0-7.962-2.175-11.591a7.351,7.351,0,0,0-6.79-3.629,7.221,7.221,0,0,0-6.614,3.453q-2.131,3.453-2.263,10.8V-24.8q0,7.83,2.131,11.635A7.254,7.254,0,0,0,25.84-9.36a7.132,7.132,0,0,0,6.724-3.651q2.065-3.651,2.153-11.173ZM86.836,0h-12.7V-49.022L58.975-44.341V-54.58l26.5-9.492h1.362Z" transform="translate(6895 -6846.017)" fill="#12263f" opacity="0.23"/>
    </g>
  </g>
</svg>
