<svg xmlns="http://www.w3.org/2000/svg" xmlns:xlink="http://www.w3.org/1999/xlink" width="122" height="116.609" viewBox="0 0 122 116.609">
  <defs>
    <filter id="Trazado_605910" x="0" y="0" width="122" height="116.609" filterUnits="userSpaceOnUse">
      <feOffset dy="3" input="SourceAlpha"/>
      <feGaussianBlur stdDeviation="3" result="blur"/>
      <feFlood flood-opacity="0.161"/>
      <feComposite operator="in" in2="blur"/>
      <feComposite in="SourceGraphic"/>
    </filter>
  </defs>
  <g id="Grupo_889604" data-name="Grupo 889604" transform="translate(-6632 6232)">
    <g transform="matrix(1, 0, 0, 1, 6632, -6232)" filter="url(#Trazado_605910)">
      <path id="Trazado_605910-2" data-name="Trazado 605910" d="M10,0H94a10,10,0,0,1,10,10V88.609a10,10,0,0,1-10,10H10a10,10,0,0,1-10-10V10A10,10,0,0,1,10,0Z" transform="translate(9 6)" fill="#e8e8e8"/>
    </g>
    <path id="Trazado_605913" data-name="Trazado 605913" d="M47.417-26.455q0,13.271-5.493,20.3T25.84.879q-10.459,0-16-6.9T4.175-25.8V-37.573q0-13.4,5.559-20.347t16.018-6.943q10.459,0,16,6.877t5.669,19.753ZM34.717-39.4q0-7.962-2.175-11.591a7.351,7.351,0,0,0-6.79-3.629,7.221,7.221,0,0,0-6.614,3.453q-2.131,3.453-2.263,10.8V-24.8q0,7.83,2.131,11.635A7.254,7.254,0,0,0,25.84-9.36a7.132,7.132,0,0,0,6.724-3.651q2.065-3.651,2.153-11.173Zm34.189,1.787h6.768q4.834,0,7.163-2.417a8.857,8.857,0,0,0,2.329-6.416,7.831,7.831,0,0,0-2.307-6.021,8.941,8.941,0,0,0-6.35-2.153,9.372,9.372,0,0,0-6.108,2,6.393,6.393,0,0,0-2.461,5.208h-12.7a15.619,15.619,0,0,1,2.7-8.987A18.009,18.009,0,0,1,65.5-62.622a25.226,25.226,0,0,1,10.7-2.241q10.151,0,15.908,4.856t5.757,13.381a13.464,13.464,0,0,1-2.681,8.086,17.416,17.416,0,0,1-7.031,5.669,15.9,15.9,0,0,1,8.064,5.8,15.735,15.735,0,0,1,2.659,9.141A16.843,16.843,0,0,1,92.659-4.263Q86.44.879,76.2.879q-9.58,0-15.667-5.054a16.5,16.5,0,0,1-6.086-13.359h12.7a7.358,7.358,0,0,0,2.7,5.889A9.959,9.959,0,0,0,76.509-9.36a10.006,10.006,0,0,0,7.1-2.4,8.268,8.268,0,0,0,2.571-6.35q0-9.58-10.547-9.58H68.906Z" transform="translate(6641.825 -6144.137)" fill="#12263f" opacity="0.23"/>
  </g>
</svg>
