<svg xmlns="http://www.w3.org/2000/svg" xmlns:xlink="http://www.w3.org/1999/xlink" width="205.962" height="176.9" viewBox="0 0 205.962 176.9">
  <defs>
    <clipPath id="clip-path">
      <rect id="Rectángulo_299878" data-name="Rectángulo 299878" width="107.75" height="107.691" fill="#12263f"/>
    </clipPath>
  </defs>
  <g id="Grupo_888648" data-name="Grupo 888648" transform="translate(44.926 44.403)">
    <rect id="Rectángulo_49533" data-name="Rectángulo 49533" width="144.8" height="111.233" transform="translate(16.236 21.265)" fill="#ffde96"/>
    <g id="Grupo_169217" data-name="Grupo 169217" transform="translate(-44.926 -44.403)">
      <rect id="Rectángulo_49754" data-name="Rectángulo 49754" width="166.13" height="153.889" transform="translate(0 0)" fill="none"/>
      <g id="Grupo_888649" data-name="Grupo 888649" transform="translate(29.191 38.513)">
        <g id="Grupo_888649-2" data-name="Grupo 888649" clip-path="url(#clip-path)">
          <path id="Trazado_605168" data-name="Trazado 605168" d="M32.453,70.708c-9.653,0-19.308-.075-28.959.048C.842,70.79-.04,69.865,0,67.265.117,60-.033,52.737.113,45.476a6.225,6.225,0,0,1,1.554-3.72c2.76-3.038,5.658-5.971,8.706-8.717a6.582,6.582,0,0,1,3.991-1.6c15.579-.11,31.158-.026,46.737-.112,2.73-.015,3.689.919,3.661,3.667q-.169,16.055,0,32.113c.026,2.7-.813,3.7-3.632,3.661-9.556-.147-19.115-.056-28.673-.056M3.9,56.1c4.68-3.721,9.083-7.048,13.271-10.625,2.008-1.715,3.331-1.743,5.295.121C27.429,50.3,32.623,54.771,37.8,59.4c3.467-2.972,6.782-5.7,9.954-8.577,1.823-1.656,3.24-1.791,5.106.024,2.411,2.343,5.111,4.389,8.029,6.851V35.168H14.381c0,2.513-.136,4.885.037,7.235.189,2.578-.954,3.409-3.354,3.3-2.352-.108-4.712-.024-7.164-.024Zm15.877-8.063c-4.434,3.536-8.425,7.135-12.839,10.107-3.549,2.39-3.64,5.351-2.981,8.846H61.319c-.318-1.812-.05-3.891-.955-4.794-3.141-3.135-6.689-5.861-10.089-8.749-3.414,2.933-6.7,5.565-9.752,8.443-2.01,1.9-3.458,1.915-5.5-.034C30.119,57.185,25,52.743,19.776,48.036m-9.157-6.1V38.949L6.785,41.936Z" transform="translate(0 -13.357)" fill="#12263f"/>
          <path id="Trazado_605169" data-name="Trazado 605169" d="M28.728,14.206h-3.56a72.014,72.014,0,0,1,.053-7.756A6.881,6.881,0,0,1,32.187.073C49.3-.04,66.408,0,83.518.052a3.989,3.989,0,0,1,2.512,1.069q8.5,8.328,16.837,16.818a4.056,4.056,0,0,1,1.16,2.479c.1,5.626.053,11.255.053,17.175l-3.528.179V21.649c-3.408,0-6.434.015-9.459,0-5.8-.036-8.609-2.836-8.648-8.619-.02-2.956,0-5.912,0-9.2C81.3,3.762,80.3,3.652,79.3,3.652q-22.512-.016-45.023,0c-4.683,0-5.53.86-5.552,5.514-.007,1.6,0,3.209,0,5.045M86.152,7.072c0,2.55-.326,5.147.138,7.593a4.7,4.7,0,0,0,2.962,3.094c2.529.474,5.21.145,7.714.145L86.152,7.072" transform="translate(-10.696 0)" fill="#12263f"/>
          <path id="Trazado_605170" data-name="Trazado 605170" d="M124.719,150.566c-6.114,0-12.231-.081-18.343.04-2.419.048-3.207-.945-3.189-3.219q.089-11.178,0-22.356c-.02-2.347.955-3.178,3.28-3.165q18.343.106,36.687,0c2.177-.011,3.11.711,3.088,2.975q-.115,11.463,0,22.929c.018,2.1-.792,2.857-2.89,2.826-6.208-.092-12.42-.033-18.63-.033m-17.549-3.688h35.258V125.6H107.17Z" transform="translate(-44.001 -51.967)" fill="#12263f"/>
          <path id="Trazado_605171" data-name="Trazado 605171" d="M36.88,131.383c-6.975,0-13.951-.071-20.923.04-2.325.037-3.24-.668-3.19-3.1.129-6.3.11-12.612.008-18.917-.036-2.243.813-3.059,3.012-3.052q21.068.069,42.135,0c2.277-.008,3.249.732,3.2,3.169-.135,6.3-.118,12.612-.007,18.916.04,2.277-.812,3-3.021,2.975-7.069-.093-14.14-.034-21.21-.034m20.6-21.126H16.541v17.455H57.477Z" transform="translate(-5.443 -45.353)" fill="#12263f"/>
          <path id="Trazado_605172" data-name="Trazado 605172" d="M138.731,71.9c5.533,0,11.068.053,16.6-.027,2.179-.032,3.151.8,3.135,3.011q-.07,9.587,0,19.175c.017,2.19-.923,3.054-3.112,3.043q-16.743-.078-33.485-.007c-2.025.006-2.954-.753-2.933-2.868q.1-9.73,0-19.461c-.021-2.1.859-2.906,2.909-2.885,5.628.056,11.257.019,16.885.019M154.542,75.7H122.668V93.376h31.874Z" transform="translate(-50.717 -30.65)" fill="#12263f"/>
          <path id="Trazado_605173" data-name="Trazado 605173" d="M28.688,156.749c0,3.344-.056,6.486.015,9.625.073,3.207,1.16,4.355,4.369,4.36q31.383.055,62.765-.013c1.009,0,2.381-.1,2.957-.726,1.5-1.638,2.893-1.448,4.484-.378-1.322,3.426-3.439,4.77-7.771,4.776q-20.779.025-41.557.006c-6.687,0-13.375.013-20.062,0-6.023-.014-8.807-2.764-8.844-8.7-.014-2.2.142-4.407-.038-6.589-.231-2.788,1.152-2.993,3.682-2.357" transform="translate(-10.652 -66.714)" fill="#12263f"/>
          <rect id="Rectángulo_299873" data-name="Rectángulo 299873" width="3.365" height="3.177" transform="translate(30.722 7.513)" fill="#12263f"/>
          <rect id="Rectángulo_299874" data-name="Rectángulo 299874" width="3.203" height="3.112" transform="translate(37.957 7.562)" fill="#12263f"/>
          <rect id="Rectángulo_299875" data-name="Rectángulo 299875" width="3.101" height="3.215" transform="translate(23.704 7.455)" fill="#12263f"/>
          <path id="Trazado_605174" data-name="Trazado 605174" d="M6.8,58.958V48.537c2.451,0,4.812-.084,7.163.024,2.4.11,3.544-.722,3.354-3.3-.172-2.349-.036-4.722-.036-7.235H63.791V60.562c-2.918-2.463-5.619-4.508-8.03-6.851-1.866-1.814-3.283-1.68-5.106-.024-3.171,2.881-6.486,5.6-9.954,8.577-5.179-4.634-10.374-9.1-15.338-13.81-1.964-1.864-3.287-1.837-5.295-.122-4.188,3.578-8.59,6.9-13.271,10.625M45.942,46.692a5.281,5.281,0,0,0-5.2-5.3,5.343,5.343,0,0,0-5.386,5.43,5.444,5.444,0,0,0,5.237,5.346,5.33,5.33,0,0,0,5.353-5.481" transform="translate(-2.899 -16.216)" fill="#e8e8e8"/>
          <path id="Trazado_605175" data-name="Trazado 605175" d="M22.48,60.462c5.224,4.707,10.343,9.149,15.244,13.819,2.045,1.948,3.494,1.929,5.5.034,3.053-2.878,6.337-5.51,9.753-8.442,3.4,2.887,6.948,5.614,10.089,8.749.905.9.638,2.982.956,4.794H6.659c-.658-3.5-.567-6.457,2.982-8.846C14.055,67.6,18.046,64,22.48,60.462m-1.121,5.259-8.932,7.233,2.43,2.59,8.774-7.12-2.271-2.7m32.945,8L51.955,71.51,47.9,74.8l2.566,2.261L54.3,73.717" transform="translate(-2.704 -25.782)" fill="#b2ebf2"/>
          <path id="Trazado_605176" data-name="Trazado 605176" d="M15.663,47.606H11.829l3.834-2.987Z" transform="translate(-5.044 -19.027)" fill="#12263f"/>
          <path id="Trazado_605177" data-name="Trazado 605177" d="M131.471,12.33l10.814,10.833c-2.5,0-5.185.329-7.714-.145a4.7,4.7,0,0,1-2.962-3.094c-.464-2.446-.138-5.043-.138-7.593" transform="translate(-56.015 -5.258)" fill="#12263f"/>
          <path id="Trazado_605178" data-name="Trazado 605178" d="M110.132,128.368H145.39v21.284H110.132Zm21.12,3.978-3.458-.823c-1.2,4.8-2.352,9.426-3.541,14.194l3.415.872c1.213-4.823,2.363-9.388,3.584-14.244m-11.858,11.43,2.244-2.4c-.794-1.011-1.357-1.727-1.886-2.4l1.926-2.412-2.313-2.156c-5.416,4.389-5.42,4.669.029,9.371m16.641-9.377-2.16,2.291,1.9,2.411-1.948,2.394,2.047,2.29c5.574-4.227,5.572-5.006.161-9.386" transform="translate(-46.963 -54.739)" fill="#fffae7"/>
          <path id="Trazado_605179" data-name="Trazado 605179" d="M60.285,130.61H19.349V113.155H60.285ZM30.061,119.752H56.606v-3.138H30.061Zm.011,7.3H56.492c1-2.839-.145-3.519-2.656-3.468-5.921.118-11.845.037-17.769.037h-6Zm-7.234-7.289h3.221v-3.21H22.837Zm-.063,7.263h3.486c-.06-1.228-.108-2.214-.165-3.394l-3.321.2Z" transform="translate(-8.251 -48.252)" fill="#ebe3f9"/>
          <path id="Trazado_605180" data-name="Trazado 605180" d="M157.317,96.217H125.443V78.541h31.874ZM128.91,92.44H153.7V89.232H129.074c-.054,1.052-.1,1.969-.164,3.208m10.651-10.258c.058,1.266.1,2.183.147,3.23h14v-3.23Zm-3.617.077h-7.038c.081,1.217.146,2.194.211,3.162h6.827Z" transform="translate(-53.492 -33.492)" fill="#e8e8e8"/>
          <path id="Trazado_605181" data-name="Trazado 605181" d="M67.17,49.2a5.33,5.33,0,0,1-5.353,5.481,5.444,5.444,0,0,1-5.237-5.347A5.343,5.343,0,0,1,61.967,43.9a5.281,5.281,0,0,1,5.2,5.3m-5.349,2.344c.822-.949,1.819-1.639,1.721-2.092-.16-.739-1.035-1.322-1.608-1.971-.576.618-1.459,1.166-1.622,1.879-.111.484.788,1.2,1.509,2.184" transform="translate(-24.127 -18.72)" fill="#12263f"/>
          <path id="Trazado_605182" data-name="Trazado 605182" d="M25.883,69.631l2.271,2.7-8.773,7.12-2.43-2.591,8.932-7.233" transform="translate(-7.228 -29.692)" fill="#12263f"/>
          <path id="Trazado_605183" data-name="Trazado 605183" d="M85.2,81.931l-3.836,3.345L78.8,83.015l4.052-3.291L85.2,81.931" transform="translate(-33.603 -33.996)" fill="#12263f"/>
          <path id="Trazado_605184" data-name="Trazado 605184" d="M141.749,134.692c-1.222,4.855-2.371,9.421-3.584,14.244l-3.416-.872,3.541-14.194,3.458.823" transform="translate(-57.461 -57.085)" fill="#12263f"/>
          <path id="Trazado_605185" data-name="Trazado 605185" d="M123.24,148.265c-5.448-4.7-5.444-4.981-.028-9.371l2.312,2.155-1.927,2.413,1.886,2.4-2.244,2.4" transform="translate(-50.809 -59.228)" fill="#12263f"/>
          <path id="Trazado_605186" data-name="Trazado 605186" d="M153.651,138.884c5.412,4.38,5.413,5.159-.161,9.386l-2.047-2.29,1.948-2.394-1.9-2.411,2.16-2.291" transform="translate(-64.579 -59.224)" fill="#12263f"/>
          <rect id="Rectángulo_299876" data-name="Rectángulo 299876" width="26.546" height="3.138" transform="translate(21.81 68.362)" fill="#12263f"/>
          <path id="Trazado_605187" data-name="Trazado 605187" d="M38.042,134.8v-3.432h6c5.923,0,11.848.081,17.768-.037,2.512-.05,3.655.629,2.656,3.469Z" transform="translate(-16.222 -56)" fill="#12263f"/>
          <rect id="Rectángulo_299877" data-name="Rectángulo 299877" width="3.221" height="3.21" transform="translate(14.587 68.297)" fill="#12263f"/>
          <path id="Trazado_605188" data-name="Trazado 605188" d="M25.322,134.809v-3.2l3.321-.2c.057,1.18.106,2.166.165,3.394Z" transform="translate(-10.798 -56.039)" fill="#12263f"/>
          <path id="Trazado_605189" data-name="Trazado 605189" d="M131.488,100.388c.063-1.239.11-2.156.163-3.208h24.625v3.208Z" transform="translate(-56.07 -41.44)" fill="#12263f"/>
          <path id="Trazado_605190" data-name="Trazado 605190" d="M150.058,84.888h14.15v3.23h-14c-.048-1.047-.089-1.964-.147-3.23" transform="translate(-63.988 -36.198)" fill="#12263f"/>
          <path id="Trazado_605191" data-name="Trazado 605191" d="M138.519,85.023v3.162h-6.827c-.065-.968-.13-1.945-.211-3.162Z" transform="translate(-56.067 -36.256)" fill="#12263f"/>
          <path id="Trazado_605192" data-name="Trazado 605192" d="M64.589,54.2c-.721-.986-1.62-1.7-1.509-2.184.163-.713,1.046-1.261,1.622-1.879.574.649,1.448,1.233,1.608,1.971.1.453-.9,1.143-1.721,2.092" transform="translate(-26.895 -21.38)" fill="#fb8c00"/>
        </g>
      </g>
    </g>
  </g>
</svg>
