<svg xmlns="http://www.w3.org/2000/svg" xmlns:xlink="http://www.w3.org/1999/xlink" width="308.125" height="255.266" viewBox="0 0 308.125 255.266">
  <defs>
    <filter id="Rectángulo_296391" x="0" y="0" width="280.044" height="239.513" filterUnits="userSpaceOnUse">
      <feOffset dy="3" input="SourceAlpha"/>
      <feGaussianBlur stdDeviation="3" result="blur"/>
      <feFlood flood-opacity="0.161"/>
      <feComposite operator="in" in2="blur"/>
      <feComposite in="SourceGraphic"/>
    </filter>
    <filter id="Rectángulo_296392" x="27.08" y="27.266" width="281.044" height="228" filterUnits="userSpaceOnUse">
      <feOffset dy="3" input="SourceAlpha"/>
      <feGaussianBlur stdDeviation="3" result="blur-2"/>
      <feFlood flood-opacity="0.161"/>
      <feComposite operator="in" in2="blur-2"/>
      <feComposite in="SourceGraphic"/>
    </filter>
  </defs>
  <g id="Grupo_889528" data-name="Grupo 889528" transform="translate(-988.92 -974.699)">
    <g transform="matrix(1, 0, 0, 1, 988.92, 974.7)" filter="url(#Rectángulo_296391)">
      <rect id="Rectángulo_296391-2" data-name="Rectángulo 296391" width="262.044" height="221.513" transform="translate(9 6)" fill="#fff"/>
    </g>
    <g transform="matrix(1, 0, 0, 1, 988.92, 974.7)" filter="url(#Rectángulo_296392)">
      <g id="Rectángulo_296392-2" data-name="Rectángulo 296392" transform="translate(36.08 33.27)" fill="#fff" stroke="#707070" stroke-width="1">
        <rect width="263.044" height="210" stroke="none"/>
        <rect x="0.5" y="0.5" width="262.044" height="209" fill="none"/>
      </g>
    </g>
    <circle id="Elipse_8093" data-name="Elipse 8093" cx="18.5" cy="18.5" r="18.5" transform="translate(1043 1021)" fill="#12263f"/>
    <circle id="Elipse_8094" data-name="Elipse 8094" cx="18.5" cy="18.5" r="18.5" transform="translate(1043 1069)" fill="#12263f"/>
    <circle id="Elipse_8095" data-name="Elipse 8095" cx="18.5" cy="18.5" r="18.5" transform="translate(1043 1117)" fill="#12263f"/>
    <circle id="Elipse_8096" data-name="Elipse 8096" cx="18.5" cy="18.5" r="18.5" transform="translate(1043 1165)" fill="#12263f"/>
    <circle id="Elipse_8097" data-name="Elipse 8097" cx="18.5" cy="18.5" r="18.5" transform="translate(1138 1021)" fill="#12263f"/>
    <circle id="Elipse_8098" data-name="Elipse 8098" cx="18.5" cy="18.5" r="18.5" transform="translate(1138 1069)" fill="#12263f"/>
    <circle id="Elipse_8099" data-name="Elipse 8099" cx="18.5" cy="18.5" r="18.5" transform="translate(1138 1117)" fill="#12263f"/>
    <circle id="Elipse_8100" data-name="Elipse 8100" cx="18.5" cy="18.5" r="18.5" transform="translate(1138 1165)" fill="#12263f"/>
    <ellipse id="Elipse_8101" data-name="Elipse 8101" cx="18" cy="18.5" rx="18" ry="18.5" transform="translate(1091 1021)" fill="#12263f"/>
    <ellipse id="Elipse_8102" data-name="Elipse 8102" cx="18" cy="18.5" rx="18" ry="18.5" transform="translate(1091 1069)" fill="#12263f"/>
    <ellipse id="Elipse_8103" data-name="Elipse 8103" cx="18" cy="18.5" rx="18" ry="18.5" transform="translate(1091 1117)" fill="#12263f"/>
    <ellipse id="Elipse_8104" data-name="Elipse 8104" cx="18" cy="18.5" rx="18" ry="18.5" transform="translate(1091 1165)" fill="#12263f"/>
    <ellipse id="Elipse_8105" data-name="Elipse 8105" cx="18" cy="18.5" rx="18" ry="18.5" transform="translate(1186 1021)" fill="#12263f"/>
    <ellipse id="Elipse_8106" data-name="Elipse 8106" cx="18" cy="18.5" rx="18" ry="18.5" transform="translate(1186 1069)" fill="#12263f"/>
    <ellipse id="Elipse_8107" data-name="Elipse 8107" cx="18" cy="18.5" rx="18" ry="18.5" transform="translate(1186 1165)" fill="#12263f"/>
    <circle id="Elipse_8108" data-name="Elipse 8108" cx="18.5" cy="18.5" r="18.5" transform="translate(1233 1021)" fill="#12263f"/>
    <circle id="Elipse_8109" data-name="Elipse 8109" cx="18.5" cy="18.5" r="18.5" transform="translate(1233 1069)" fill="#12263f"/>
    <circle id="Elipse_8110" data-name="Elipse 8110" cx="18.5" cy="18.5" r="18.5" transform="translate(1233 1117)" fill="#12263f"/>
    <circle id="Elipse_8111" data-name="Elipse 8111" cx="18.5" cy="18.5" r="18.5" transform="translate(1233 1165)" fill="#12263f"/>
    <rect id="Rectángulo_296393" data-name="Rectángulo 296393" width="36" height="36" transform="translate(1186 1118)" fill="#26aab7"/>
  </g>
</svg>
