<svg xmlns="http://www.w3.org/2000/svg" xmlns:xlink="http://www.w3.org/1999/xlink" width="363.074" height="249.084" viewBox="0 0 363.074 249.084">
  <defs>
    <filter id="Rectángulo_296407" x="0" y="0" width="329.677" height="230.349" filterUnits="userSpaceOnUse">
      <feOffset dy="3" input="SourceAlpha"/>
      <feGaussianBlur stdDeviation="3" result="blur"/>
      <feFlood flood-opacity="0.161"/>
      <feComposite operator="in" in2="blur"/>
      <feComposite in="SourceGraphic"/>
    </filter>
    <filter id="Rectángulo_296408" x="32.209" y="32.43" width="330.865" height="216.654" filterUnits="userSpaceOnUse">
      <feOffset dy="3" input="SourceAlpha"/>
      <feGaussianBlur stdDeviation="3" result="blur-2"/>
      <feFlood flood-opacity="0.161"/>
      <feComposite operator="in" in2="blur-2"/>
      <feComposite in="SourceGraphic"/>
    </filter>
    <clipPath id="clip-path">
      <rect id="Rectángulo_296411" data-name="Rectángulo 296411" width="280.022" height="144.277" fill="none"/>
    </clipPath>
  </defs>
  <g id="Grupo_889540" data-name="Grupo 889540" transform="translate(8848.08 9104.095)">
    <g transform="matrix(1, 0, 0, 1, -8848.08, -9104.09)" filter="url(#Rectángulo_296407)">
      <rect id="Rectángulo_296407-2" data-name="Rectángulo 296407" width="311.676" height="212.348" transform="translate(9 6)" fill="#f6f6f6"/>
    </g>
    <g transform="matrix(1, 0, 0, 1, -8848.08, -9104.09)" filter="url(#Rectángulo_296408)">
      <g id="Rectángulo_296408-2" data-name="Rectángulo 296408" transform="translate(41.21 38.43)" fill="#fff" stroke="#707070" stroke-width="1">
        <rect width="312.866" height="198.654" stroke="none"/>
        <rect x="0.5" y="0.5" width="311.866" height="197.654" fill="none"/>
      </g>
    </g>
    <g id="Grupo_882763" data-name="Grupo 882763" transform="translate(-8792.451 -9035.023)">
      <rect id="Rectángulo_296409" data-name="Rectángulo 296409" width="139.623" height="144.277" transform="translate(0 0)" fill="#fff"/>
      <rect id="Rectángulo_296410" data-name="Rectángulo 296410" width="139.623" height="144.277" transform="translate(140.399 0)" fill="#12263f"/>
      <g id="Grupo_882762" data-name="Grupo 882762">
        <g id="Grupo_882761" data-name="Grupo 882761" clip-path="url(#clip-path)">
          <path id="Trazado_599772" data-name="Trazado 599772" d="M822.147,227.269l.405-.084c.152.272.324.535.452.819.838,1.862,1.659,3.731,2.5,5.592a71.2,71.2,0,0,0,6.642,12.285c5.646,7.905,13.882,10,21.719,8.212,3.568-.814,4.281-2.586,2.66-5.846a29.874,29.874,0,0,1-2.738-17.773,8.909,8.909,0,0,1,2.636-5.626,2.2,2.2,0,0,1,3.588.4,8.193,8.193,0,0,1,1.068,2.511c.835,3.5.34,6.976-.315,10.433-.443,2.34-1.024,4.651-.709,7.073.368,2.833,2.164,4.732,5,4.676,5.338-.1,9.942-2.03,13.121-6.474a32.192,32.192,0,0,0,3.347-6.178,90.2,90.2,0,0,0,7.036-32.644,45.95,45.95,0,0,0-1.5-14.167,9.034,9.034,0,0,0-.528-1.189l-.348.073c-.047.342-.11.683-.139,1.026-.135,1.593-.16,3.2-.407,4.777-1.564,10-8.665,18.72-20.833,18.846a4.528,4.528,0,0,0-2.172.941,6.353,6.353,0,0,0-1.215,1.369,3.347,3.347,0,0,1-3.438,1.312,9.953,9.953,0,0,1-2.79-.913,6.331,6.331,0,0,0-4.731-.633c-.6.139-1.2.248-1.8.374a2.781,2.781,0,0,1-2.864-.927,13.964,13.964,0,0,1-1.721-2.629,5.758,5.758,0,0,0-3.846-3.234,14.86,14.86,0,0,1-3.141-1.19c-6.687-3.52-9.635-9.407-10.1-16.643-.516-7.952,2.311-14.885,7.054-21.13a2.232,2.232,0,0,1,.353-.31c3,1.564,3.613,1.437,6.167-.83a22.32,22.32,0,0,1,3.318-2.363c.9-.539,1.926-.853,2.873-1.314a3.306,3.306,0,0,0,2.122-4.049,14.02,14.02,0,0,0-2.821-6.378,5.3,5.3,0,0,0-5.009-2.378,6.837,6.837,0,0,1-1.532,0,6.688,6.688,0,0,0-4.677,1.437,17.657,17.657,0,0,0-2.246,1.922,8.128,8.128,0,0,0-1.12,10.793c.268.417.552.823.8,1.2a1.053,1.053,0,0,1-.114.172c-.518.388-1.037.773-1.555,1.16-8.289,6.193-12.857,14.355-13.116,24.789a80.154,80.154,0,0,1-.2,8.059,28.889,28.889,0,0,0,1.2,14.086,2.891,2.891,0,0,1-.034.765c-.688-.389-1.249-.643-1.741-.993-9.447-6.739-14.2-20.865-10.912-32.42a29.178,29.178,0,0,1,11.438-15.843c.354-.259.666-.575,1-.865l-.163-.283a5.259,5.259,0,0,0-1.109.291,32.828,32.828,0,0,0-13.526,12.12c-5.054,8.29-6.068,17.3-4.4,26.686.585,3.292,1.24,6.536.941,9.915a15.759,15.759,0,0,0,.269,3.962A46.457,46.457,0,0,0,805,233.453a25.713,25.713,0,0,0,3.195,4.84c3.184,3.767,7.51,4.407,12.1,3.925,3.839-.4,4.7-1.782,3.686-5.485-.55-2-1.167-3.986-1.6-6.011a22.693,22.693,0,0,1-.225-3.454m57.08-69.437c-.573.067-1.156.085-1.716.208a10.242,10.242,0,0,0-7.205,8.172,3.009,3.009,0,0,0,1.814,3.337,17.048,17.048,0,0,1,6.566,5.355,3.48,3.48,0,0,0,4.387,1.134,9.927,9.927,0,0,0,5.846-6.923c1.219-5.209-4.061-11.209-9.691-11.282m-3.9,41.086-.3-.073a10.032,10.032,0,0,0-.007-1.223c-.462-3.732-2.008-6.773-5.6-8.389a4.038,4.038,0,0,0-5.253,1.125,33.481,33.481,0,0,0-2.838,5.013,1.377,1.377,0,0,0,.146,1.039c.662,1.332,1.4,2.628,2.068,3.955.63,1.24,1.141,2.546,1.842,3.742a3.882,3.882,0,0,0,3.627,2.247,5.477,5.477,0,0,0,5.039-3.1,31.553,31.553,0,0,0,1.28-4.34m-30.784-13.2c-1.761.057-3.451,1.182-5.013,2.534-3.221,2.788-4.382,7.3-2.816,10.8a5.046,5.046,0,0,0,8.315,1.8,15.992,15.992,0,0,0,1.5-1.665c1.2-1.433,2.39-2.871,3.557-4.328a1.58,1.58,0,0,0,.373-.91,10.66,10.66,0,0,0-1.777-6.274,4.541,4.541,0,0,0-4.139-1.957m6.741,21.673-.052.172c-.743.078-1.494.112-2.227.244a1.988,1.988,0,0,0-1.86,1.737c-.049.914.484,1.586,1.672,1.868a5.618,5.618,0,0,1,3.841,2.622c.111.191.74.34.857.227a7.477,7.477,0,0,1,4.546-1.848c.745-.091,1.536-.46,1.514-1.259a3.9,3.9,0,0,0-.853-1.924,1.994,1.994,0,0,0-1.16-.582c-2.086-.446-4.184-.843-6.277-1.257" transform="translate(-634.893 -121.714)"/>
          <path id="Trazado_599773" data-name="Trazado 599773" d="M118.234,227.472a33.875,33.875,0,0,0,.415,4.068c.48,2.189,1.214,4.321,1.721,6.505.574,2.473-.217,3.755-2.7,4.183-4.41.758-8.681.47-12.213-2.684a15.185,15.185,0,0,1-2.95-3.625,46.093,46.093,0,0,1-6.155-16.751,7.634,7.634,0,0,1-.108-1.525,55.17,55.17,0,0,0-1.073-12.158c-1.594-9.9-.168-19.277,5.789-27.636a33.54,33.54,0,0,1,12.188-10.2,5.3,5.3,0,0,1,1.107-.3l.142.258c-.343.289-.671.6-1.032.863-5.915,4.35-10.034,9.918-11.732,17.154-2.659,11.334,2.3,24.854,11.532,31.3a6.7,6.7,0,0,0,1.439.574,7.63,7.63,0,0,0-.162-1.511,25.818,25.818,0,0,1-1.1-10.877,87.262,87.262,0,0,0,.381-9.479c.068-8.022,2.479-15.149,8.071-21.008,1.777-1.862,3.858-3.435,5.808-5.132a9.613,9.613,0,0,1,.775-.577,31.489,31.489,0,0,1-2.017-4.758c-.775-3.168.676-5.7,2.863-7.864a13.926,13.926,0,0,1,2.163-1.7,6.194,6.194,0,0,1,4.134-1.194,7.65,7.65,0,0,0,1.736,0,5.1,5.1,0,0,1,5.215,2.718,26.282,26.282,0,0,1,2.516,5.751c.622,2.026-.178,3.474-2.159,4.267a22.382,22.382,0,0,0-6.956,4.374c-1.641,1.512-2.7,1.521-4.622.423-.2-.116-.412-.226-.645-.354a2.013,2.013,0,0,0-.32.268c-4.61,6.016-7.42,12.7-7.174,20.386.228,7.1,2.818,13.081,9.115,16.945a19.931,19.931,0,0,0,4.406,1.847,5.516,5.516,0,0,1,3.434,2.827,18.759,18.759,0,0,0,1.574,2.615,3.116,3.116,0,0,0,3.424,1.261c.6-.142,1.2-.266,1.8-.384a6.355,6.355,0,0,1,4.447.619,11.381,11.381,0,0,0,2.878.965,3.307,3.307,0,0,0,3.373-1.222,6.459,6.459,0,0,1,1.136-1.3,5.278,5.278,0,0,1,2.413-1.092c11.775-.167,19.154-8.483,20.814-19.015.237-1.506.233-3.05.348-4.576.026-.347.088-.69.134-1.036l.362-.072a13.57,13.57,0,0,1,.544,1.395,44.7,44.7,0,0,1,1.451,12.744,90.845,90.845,0,0,1-7.3,34.332c-.591,1.371-1.33,2.681-2.032,4-2.635,4.959-7.134,7.182-12.371,8.027-4.746.766-7.433-2.193-6.793-7.242.312-2.461.852-4.893,1.217-7.349a18.411,18.411,0,0,0-.13-7.407,9.138,9.138,0,0,0-1.423-2.994,1.994,1.994,0,0,0-2.918-.36,6.37,6.37,0,0,0-2.364,3.369,19.931,19.931,0,0,0-.96,8.865,31.674,31.674,0,0,0,3.2,12.046c1.4,2.637.658,4.359-2.255,5.087-7.643,1.91-14.472.393-20.048-5.408-3.792-3.945-6.058-8.851-8.316-13.741-1.027-2.224-1.995-4.475-3-6.708a9.653,9.653,0,0,0-.529-.908l-.508.121m25.521-9.465c.044,2,2.265,3.642,5.293,3.881,2.416.191,4.6-1,4.866-2.538l-10.159-1.344" transform="translate(-75.205 -121.957)" fill="#12263f"/>
          <path id="Trazado_599774" data-name="Trazado 599774" d="M455.162,176.667c5.407.063,10.3,5.422,9.76,10.73-.283,2.795-3.566,6.714-6.266,7.519a3.479,3.479,0,0,1-4.011-1.253,17.538,17.538,0,0,0-6.657-5.412c-1.415-.635-1.881-1.8-1.674-3.49a10.152,10.152,0,0,1,7.229-7.915,16.2,16.2,0,0,1,1.618-.18" transform="translate(-354.919 -140.504)" fill="#12263f"/>
          <path id="Trazado_599775" data-name="Trazado 599775" d="M415.994,338.073a29.887,29.887,0,0,1-.712,3.21,5.638,5.638,0,0,1-5.3,3.971,3.852,3.852,0,0,1-3.789-2.319c-.858-1.579-1.527-3.26-2.3-4.885a10.381,10.381,0,0,0-1.216-2.228,1.752,1.752,0,0,1-.217-2.223,33.807,33.807,0,0,1,2.274-3.963,4.3,4.3,0,0,1,5.735-1.325c3.079,1.434,4.56,4.059,5.218,7.244.151.73.185,1.483.307,2.518" transform="translate(-319.84 -260.661)" fill="#12263f"/>
          <path id="Trazado_599776" data-name="Trazado 599776" d="M278.8,322.861a10.652,10.652,0,0,1,7.7-9.84,4.392,4.392,0,0,1,4.979,1.912,10.208,10.208,0,0,1,1.64,6.1,1.8,1.8,0,0,1-.409,1c-1.057,1.328-2.144,2.634-3.24,3.93a23.118,23.118,0,0,1-1.913,2.118,4.872,4.872,0,0,1-7.344-.727,7.475,7.475,0,0,1-1.407-4.5" transform="translate(-221.729 -248.821)" fill="#12263f"/>
          <path id="Trazado_599777" data-name="Trazado 599777" d="M345.6,423.448a3.907,3.907,0,0,1-.834.931,3.247,3.247,0,0,1-1.36.37,6.081,6.081,0,0,0-3.6,1.531c-.438.414-.832.6-1.207-.081a4.921,4.921,0,0,0-3.461-2.463,5.319,5.319,0,0,1-.685-.2,1.678,1.678,0,0,1-1.247-1.57,1.563,1.563,0,0,1,1.15-1.627,6.976,6.976,0,0,1,1.989-.384,20.945,20.945,0,0,1,7.341,1.028,2.43,2.43,0,0,1,1.91,2.468" transform="translate(-265.004 -333.978)" fill="#12263f"/>
          <path id="Trazado_599778" data-name="Trazado 599778" d="M822.147,227.269a22.694,22.694,0,0,0,.225,3.454c.433,2.025,1.051,4.011,1.6,6.012,1.017,3.7.153,5.082-3.686,5.485-4.587.482-8.913-.158-12.1-3.925a25.716,25.716,0,0,1-3.195-4.84,46.448,46.448,0,0,1-4.743-13.419,15.759,15.759,0,0,1-.269-3.962c.3-3.378-.357-6.623-.941-9.915-1.668-9.389-.653-18.4,4.4-26.686a32.829,32.829,0,0,1,13.526-12.12,5.261,5.261,0,0,1,1.109-.291l.163.283c-.332.29-.644.607-1,.865A29.179,29.179,0,0,0,805.8,184.051c-3.287,11.554,1.466,25.681,10.912,32.42.491.35,1.052.6,1.741.993a2.891,2.891,0,0,0,.034-.765,28.886,28.886,0,0,1-1.2-14.086,80.15,80.15,0,0,0,.2-8.059c.26-10.434,4.828-18.6,13.116-24.789q.777-.581,1.555-1.16a1.039,1.039,0,0,0,.114-.172c-.251-.373-.536-.779-.8-1.2a8.128,8.128,0,0,1,1.121-10.793,17.657,17.657,0,0,1,2.246-1.922,6.689,6.689,0,0,1,4.677-1.437,6.835,6.835,0,0,0,1.532,0,5.3,5.3,0,0,1,5.009,2.378,14.024,14.024,0,0,1,2.821,6.378,3.306,3.306,0,0,1-2.122,4.049c-.948.461-1.977.774-2.873,1.314a22.279,22.279,0,0,0-3.318,2.363c-2.555,2.266-3.168,2.394-6.167.83a2.22,2.22,0,0,0-.353.31c-4.743,6.246-7.57,13.178-7.054,21.13.47,7.236,3.418,13.123,10.1,16.643a14.861,14.861,0,0,0,3.141,1.19,5.759,5.759,0,0,1,3.847,3.234,13.97,13.97,0,0,0,1.721,2.629,2.78,2.78,0,0,0,2.864.927c.6-.127,1.2-.235,1.8-.374a6.33,6.33,0,0,1,4.731.633,9.943,9.943,0,0,0,2.79.913,3.347,3.347,0,0,0,3.438-1.312,6.346,6.346,0,0,1,1.215-1.368,4.527,4.527,0,0,1,2.172-.941c12.167-.126,19.269-8.851,20.833-18.846.246-1.575.271-3.184.406-4.777.029-.343.092-.684.139-1.026l.348-.073a9.051,9.051,0,0,1,.528,1.189,45.956,45.956,0,0,1,1.5,14.167,90.205,90.205,0,0,1-7.036,32.644,32.185,32.185,0,0,1-3.347,6.178c-3.179,4.444-7.783,6.369-13.121,6.474-2.837.056-4.633-1.844-5-4.677-.315-2.421.266-4.733.709-7.073.654-3.458,1.15-6.938.315-10.434a8.2,8.2,0,0,0-1.068-2.511,2.2,2.2,0,0,0-3.588-.4,8.909,8.909,0,0,0-2.636,5.626,29.87,29.87,0,0,0,2.738,17.773c1.621,3.261.908,5.032-2.66,5.846-7.837,1.789-16.073-.307-21.719-8.212A71.216,71.216,0,0,1,825.5,233.6c-.841-1.861-1.661-3.73-2.5-5.592-.128-.283-.3-.546-.452-.818l-.405.084m25.453-9.455c.071,1.75,1.9,3.314,4.39,3.687,2.839.425,5.053-.511,5.716-2.345L847.6,217.813" transform="translate(-634.893 -121.715)" fill="#fff"/>
          <path id="Trazado_599779" data-name="Trazado 599779" d="M1158.9,176.443c5.63.073,10.91,6.073,9.691,11.282a9.927,9.927,0,0,1-5.846,6.923,3.48,3.48,0,0,1-4.387-1.134,17.048,17.048,0,0,0-6.566-5.355,3.009,3.009,0,0,1-1.814-3.337,10.243,10.243,0,0,1,7.205-8.172c.56-.123,1.144-.141,1.716-.208" transform="translate(-914.566 -140.326)" fill="#fff"/>
          <path id="Trazado_599780" data-name="Trazado 599780" d="M1119.99,337.588a31.607,31.607,0,0,1-1.281,4.34,5.476,5.476,0,0,1-5.039,3.1,3.881,3.881,0,0,1-3.626-2.247c-.7-1.2-1.212-2.5-1.842-3.742-.673-1.327-1.406-2.623-2.068-3.955a1.379,1.379,0,0,1-.145-1.039,33.488,33.488,0,0,1,2.838-5.013,4.038,4.038,0,0,1,5.253-1.125c3.6,1.616,5.142,4.657,5.6,8.389a10.032,10.032,0,0,1,.007,1.223l.3.073" transform="translate(-879.554 -260.384)" fill="#fff"/>
          <path id="Trazado_599781" data-name="Trazado 599781" d="M991.114,312.7a4.541,4.541,0,0,1,4.138,1.957,10.656,10.656,0,0,1,1.777,6.274,1.582,1.582,0,0,1-.373.91c-1.167,1.457-2.359,2.9-3.557,4.328a16.008,16.008,0,0,1-1.5,1.665,5.046,5.046,0,0,1-8.315-1.8c-1.565-3.5-.4-8.011,2.816-10.8,1.562-1.352,3.252-2.477,5.013-2.534" transform="translate(-781.461 -248.69)" fill="#fff"/>
          <path id="Trazado_599782" data-name="Trazado 599782" d="M1041.054,418.58c2.093.414,4.191.811,6.277,1.257a2,2,0,0,1,1.16.582,3.9,3.9,0,0,1,.853,1.924c.023.8-.769,1.168-1.514,1.259a7.477,7.477,0,0,0-4.546,1.848c-.118.113-.746-.036-.858-.227a5.618,5.618,0,0,0-3.84-2.622c-1.188-.281-1.721-.953-1.672-1.868a1.988,1.988,0,0,1,1.86-1.737c.733-.132,1.484-.166,2.227-.244l.052-.172" transform="translate(-824.661 -332.899)" fill="#fff"/>
          <path id="Trazado_599783" data-name="Trazado 599783" d="M334.886,469.233l10.159,1.344c-.266,1.541-2.45,2.729-4.866,2.538-3.028-.239-5.249-1.885-5.293-3.881" transform="translate(-266.337 -373.183)" fill="#12263f"/>
          <path id="Trazado_599784" data-name="Trazado 599784" d="M1039.143,469.474l10.105,1.341c-.663,1.834-2.876,2.77-5.716,2.345-2.491-.373-4.319-1.937-4.39-3.687" transform="translate(-826.436 -373.375)"/>
        </g>
      </g>
    </g>
  </g>
</svg>
