<svg xmlns="http://www.w3.org/2000/svg" xmlns:xlink="http://www.w3.org/1999/xlink" width="363.074" height="249.084" viewBox="0 0 363.074 249.084">
  <defs>
    <filter id="Rectángulo_296424" x="0" y="0" width="329.677" height="230.348" filterUnits="userSpaceOnUse">
      <feOffset dy="3" input="SourceAlpha"/>
      <feGaussianBlur stdDeviation="3" result="blur"/>
      <feFlood flood-opacity="0.161"/>
      <feComposite operator="in" in2="blur"/>
      <feComposite in="SourceGraphic"/>
    </filter>
    <filter id="Rectángulo_296425" x="32.209" y="32.43" width="330.865" height="216.654" filterUnits="userSpaceOnUse">
      <feOffset dy="3" input="SourceAlpha"/>
      <feGaussianBlur stdDeviation="3" result="blur-2"/>
      <feFlood flood-opacity="0.161"/>
      <feComposite operator="in" in2="blur-2"/>
      <feComposite in="SourceGraphic"/>
    </filter>
    <clipPath id="clip-path">
      <rect id="Rectángulo_296426" data-name="Rectángulo 296426" width="276.248" height="161.413" fill="#12263f"/>
    </clipPath>
  </defs>
  <g id="Grupo_889542" data-name="Grupo 889542" transform="translate(8848.08 8387.936)">
    <g transform="matrix(1, 0, 0, 1, -8848.08, -8387.94)" filter="url(#Rectángulo_296424)">
      <rect id="Rectángulo_296424-2" data-name="Rectángulo 296424" width="311.676" height="212.348" transform="translate(9 6)" fill="#f6f6f6"/>
    </g>
    <g transform="matrix(1, 0, 0, 1, -8848.08, -8387.94)" filter="url(#Rectángulo_296425)">
      <g id="Rectángulo_296425-2" data-name="Rectángulo 296425" transform="translate(41.21 38.43)" fill="#fff" stroke="#707070" stroke-width="1">
        <rect width="312.866" height="198.654" stroke="none"/>
        <rect x="0.5" y="0.5" width="311.866" height="197.654" fill="none"/>
      </g>
    </g>
    <g id="Grupo_882770" data-name="Grupo 882770" transform="translate(-8792.451 -8331)">
      <g id="Grupo_882769" data-name="Grupo 882769" clip-path="url(#clip-path)">
        <path id="Trazado_599934" data-name="Trazado 599934" d="M302.013,25.846c-23.214-.049-46.428-.029-69.642-.228-3.049-.026-7.894,1.955-7.894-4.063s4.845-4.036,7.894-4.063c23.213-.2,46.427-.179,69.642-.228Z" transform="translate(-26.211 -2.008)" fill="#12263f"/>
        <path id="Trazado_599935" data-name="Trazado 599935" d="M302.013,42.848c-23.214-.049-46.428-.029-69.642-.228-3.049-.026-7.894,1.955-7.894-4.063s4.845-4.036,7.894-4.063c23.213-.2,46.427-.179,69.642-.228Z" transform="translate(-26.211 -3.994)" fill="#12263f"/>
        <path id="Trazado_599936" data-name="Trazado 599936" d="M302.026,96.218c-22.828-.213-45.658-.324-68.483-.751-3.287-.062-8.991,2.479-8.958-4.055.034-6.563,5.743-3.735,8.891-3.764,22.848-.211,45.7-.053,68.55-.011Z" transform="translate(-26.223 -10.166)" fill="#12263f"/>
        <path id="Trazado_599937" data-name="Trazado 599937" d="M302.013,113.288c-23.214-.049-46.428-.029-69.642-.228-3.049-.026-7.894,1.955-7.894-4.063s4.845-4.036,7.894-4.063c23.213-.2,46.427-.179,69.642-.228Z" transform="translate(-26.211 -12.218)" fill="#12263f"/>
        <path id="Trazado_599938" data-name="Trazado 599938" d="M302.026,166.658c-22.828-.213-45.658-.324-68.483-.751-3.287-.062-8.991,2.479-8.958-4.055.034-6.563,5.743-3.735,8.891-3.764,22.848-.211,45.7-.053,68.55-.011Z" transform="translate(-26.223 -18.391)" fill="#12263f"/>
        <path id="Trazado_599939" data-name="Trazado 599939" d="M302.014,130.3c-23.207.042-46.416.172-69.621.01-2.88-.02-7.947,2.416-7.909-3.785.036-5.895,4.869-4.046,7.977-4.093,23.182-.35,46.369-.5,69.554-.714Z" transform="translate(-26.211 -14.212)" fill="#12263f"/>
        <path id="Trazado_599940" data-name="Trazado 599940" d="M301.965,8.82c-23.077-.213-46.155-.6-69.232-.519-6.1.022-9.845-.951-8.325-8.062,22.979,0,45.97.389,68.933-.223,7.413-.2,10.253,1.461,8.623,8.8" transform="translate(-26.163 0)" fill="#12263f"/>
        <path id="Trazado_599941" data-name="Trazado 599941" d="M302.014,59.86c-23.207.042-46.416.172-69.621.01-2.88-.02-7.947,2.416-7.909-3.785.036-5.895,4.869-4.046,7.976-4.093,23.183-.35,46.37-.5,69.555-.714Z" transform="translate(-26.211 -5.987)" fill="#12263f"/>
        <path id="Trazado_599942" data-name="Trazado 599942" d="M302.029,147.515c-23.567.125-47.134.29-70.7.318-2.847,0-7.163,1.334-6.673-4.062.405-4.455,4.2-3,6.673-3,23.567.01,47.134.18,70.7.3Z" transform="translate(-26.227 -16.41)" fill="#12263f"/>
        <path id="Trazado_599943" data-name="Trazado 599943" d="M224.427,181.59c-1.234-6.8,3.287-6.33,7.791-6.325,23.255.026,46.51-.063,69.765-.111-.1,3.55,1.365,6.893-5.393,6.7-24.037-.68-48.106-.266-72.163-.266" transform="translate(-26.18 -20.451)" fill="#12263f"/>
        <path id="Trazado_599944" data-name="Trazado 599944" d="M302.029,77.076c-23.567.125-47.134.29-70.7.318-2.847,0-7.163,1.334-6.673-4.062.405-4.455,4.2-3,6.673-3,23.567.01,47.134.18,70.7.3Z" transform="translate(-26.227 -8.186)" fill="#12263f"/>
        <path id="Trazado_599945" data-name="Trazado 599945" d="M75.917,17.991l-10.541-.63C68.031,12.423,68.8,8.444,61,8.83l.05.057Q62.114,4.578,63.181.271H67.49c.556,1.859,2.08,1.965,3.645,2-.4,2.979.968,5.294,2.817,7.427,2.888,1.63,6.539,2.328,7.6,6.171q-2.821,1.051-5.633,2.123" transform="translate(-7.122 -0.032)" fill="#12263f"/>
        <path id="Trazado_599946" data-name="Trazado 599946" d="M57.558,15.134C51.934,11.76,50.2,6.125,48.836.27h4.308l6.482,8.615-.049-.056c.75,2.553,3.9,5.87-2.019,6.3" transform="translate(-5.702 -0.032)" fill="#12263f"/>
        <path id="Trazado_599947" data-name="Trazado 599947" d="M53.34,179l2.43-2.9,6.551-.908c1.019,2.031,2.742,3.829,2.121,6.4H53.669q-.164-1.3-.329-2.6" transform="translate(-6.228 -20.456)" fill="#12263f"/>
        <path id="Trazado_599948" data-name="Trazado 599948" d="M40.094.27c-3.59,6.924-7.181,6.79-10.772,0Z" transform="translate(-3.424 -0.032)" fill="#12263f"/>
        <path id="Trazado_599949" data-name="Trazado 599949" d="M60.2,8.885,53.714.27h8.617Q61.264,4.577,60.2,8.885" transform="translate(-6.272 -0.032)" fill="#12263f"/>
        <path id="Trazado_599950" data-name="Trazado 599950" d="M75.282,9.7c-1.849-2.133-3.216-4.448-2.817-7.427a7.6,7.6,0,0,0,.664-2h2.154c.326,3.142,4.359,6.284,0,9.425" transform="translate(-8.453 -0.032)" fill="#12263f"/>
        <path id="Trazado_599951" data-name="Trazado 599951" d="M85.422,181.811q.217-2.382.435-4.765l1.282.006.437,4.759Z" transform="translate(-9.974 -20.672)" fill="#12263f"/>
        <path id="Trazado_599952" data-name="Trazado 599952" d="M72.657.27a7.578,7.578,0,0,1-.664,2c-1.564-.034-3.09-.14-3.644-2Z" transform="translate(-7.981 -0.032)" fill="#12263f"/>
        <path id="Trazado_599953" data-name="Trazado 599953" d="M82.636.27c.334,1.42.21,3.25-1.277,3.233-1.2-.015-1.851-1.774-.877-3.233Z" transform="translate(-9.342 -0.032)" fill="#12263f"/>
        <path id="Trazado_599954" data-name="Trazado 599954" d="M53.1,179.5q.164,1.3.329,2.6H51.274l1.825-2.6" transform="translate(-5.987 -20.959)" fill="#12263f"/>
        <path id="Trazado_599955" data-name="Trazado 599955" d="M146.738,109.448c-1.4,5.08-.753,10.159.007,15.238l.091-.09c-5.912-.883-15.371,4.69-16.108-6.171-.813-12,9-7.827,15.579-8,.18,0,.346-.581.519-.891Z" transform="translate(-15.259 -12.779)" fill="#12263f"/>
        <path id="Trazado_599956" data-name="Trazado 599956" d="M146.611,143.484c-4.316,1.672-.988,3.946-.422,5.935,1.236,4.342.1,7.72-3.886,9.989a7.461,7.461,0,0,1-9.769-1.466,7.737,7.737,0,0,1-1.38-8.937c1.872-4.15,5.033-5.775,9.537-4.586,2.122.56,4.543,3.247,6.066-.793Z" transform="translate(-15.217 -16.753)" fill="#12263f"/>
        <path id="Trazado_599957" data-name="Trazado 599957" d="M131.61,6.849c3.707-2.749,7.7-4.079,11.79-1.131,2.377,1.713,3.878,4.327,3.195,7.47-.938,4.314-3.512,7.061-8.193,6.848-7.425-.338-8.491-5.17-7.609-11.212l.817-1.975" transform="translate(-15.241 -0.473)" fill="#12263f"/>
        <path id="Trazado_599958" data-name="Trazado 599958" d="M165.952,126.762c4.294-1.99.341-4-.05-5.93-1.146-5.658-.023-10.193,6.413-11.163,5.016-.756,8.431,1.908,8.866,6.993.538,6.29-2.981,9.051-9.136,8.887-2.12-.056-4.8-2.888-6.189,1.117l.1.1" transform="translate(-19.325 -12.79)" fill="#12263f"/>
        <path id="Trazado_599959" data-name="Trazado 599959" d="M131.494,39.106c2.043,3.573,4.241-.106,6.4.059,5.553.422,8.889,3.2,8.7,8.593-.193,5.365-3.769,8.526-9.236,7.7-5.449-.822-7.425-4.614-6.8-10.11.244-2.145,3.892-3.762,1.03-6.335Z" transform="translate(-15.231 -4.555)" fill="#12263f"/>
        <path id="Trazado_599960" data-name="Trazado 599960" d="M180.929,39.113c-2.371,1.012-1.184,2.424-.755,4.115,2.4,9.469-.563,12.747-10.275,11.451-1.82-.243-3.385-.795-4.016,1.566l.066.065c2.364-1.017,1.3-2.372.806-4.167-2.818-10.182.383-13.489,11-11.517,1.635.3,2.677.194,3.242-1.448Z" transform="translate(-19.357 -4.567)" fill="#12263f"/>
        <path id="Trazado_599961" data-name="Trazado 599961" d="M146.706,75.3c-3.427,2.092.251,4.187.064,6.35-.473,5.434-3.191,8.71-8.544,8.722-5.7.011-8.272-3.928-7.66-9.134.643-5.482,4.473-7.383,9.929-6.85,2.146.209,3.745,3.861,6.305,1l-.094-.089" transform="translate(-15.235 -8.675)" fill="#12263f"/>
        <path id="Trazado_599962" data-name="Trazado 599962" d="M21.1,38.77c1.569-7.651-8.226-11.419-6.579-19.1q1.277-1.276,2.553-2.544c13.247-1.1,9.665,11.05,13.662,17.226-.33,1.079-.654,2.16-.98,3.241l-6.543,3.249a13.508,13.508,0,0,0-1.832.108L21.1,38.77" transform="translate(-1.674 -1.992)" fill="#12263f"/>
        <path id="Trazado_599963" data-name="Trazado 599963" d="M181.006,160.693c-.5-1.623-1.51-1.874-3.155-1.61-11.275,1.813-13.68-.94-10.653-12.252.432-1.615.35-2.615-1.235-3.273l-.066.065c.753,2.408,2.29,1.5,4.05,1.256,9.327-1.275,12.6,2.485,10.237,11.768-.43,1.692-1.618,3.1.756,4.112Z" transform="translate(-19.37 -16.762)" fill="#12263f"/>
        <path id="Trazado_599964" data-name="Trazado 599964" d="M148.91,141.655q.019-7.528.037-15.056l-.091.089L164,128.753l-.1-.1c-.664,4.328-1.144,8.657,0,12.985l.066-.065-15.2-.065.146.143" transform="translate(-17.37 -14.782)" fill="#12263f"/>
        <path id="Trazado_599965" data-name="Trazado 599965" d="M120.474,161.951c4.859.216,8.223,2.924,8.45,7.7.223,4.687-2.5,8-7.73,8.3-5.274.3-8.133-2.625-8.485-7.452-.366-5.018,2.7-7.775,7.765-8.545" transform="translate(-13.157 -18.91)" fill="#12263f"/>
        <path id="Trazado_599966" data-name="Trazado 599966" d="M129.108,65.052c-.722,4.447-3.4,7.727-8.157,7.836-4.737.108-8.114-2.8-8.284-7.725-.171-4.978,2.849-7.873,7.851-7.911,4.868-.038,7.843,2.591,8.589,7.8" transform="translate(-13.154 -6.685)" fill="#12263f"/>
        <path id="Trazado_599967" data-name="Trazado 599967" d="M129.086,134.963c-.987,5-3.609,8.132-8.623,7.814-4.811-.306-8.068-3.211-7.769-8.176.292-4.835,3.732-7.718,8.492-7.57,4.852.15,7.331,3.515,7.9,7.932" transform="translate(-13.156 -14.832)" fill="#12263f"/>
        <path id="Trazado_599968" data-name="Trazado 599968" d="M165.432,12.185c-.153-5.359,3.091-7.993,7.828-8.025,4.787-.032,8.035,2.776,7.991,7.972-.043,5.074-2.851,7.85-7.945,7.921-5.2.072-7.731-2.784-7.874-7.868" transform="translate(-19.316 -0.486)" fill="#12263f"/>
        <path id="Trazado_599969" data-name="Trazado 599969" d="M183.055,73.412c3.319-1.308,1.264-3.1.587-4.966-1.469-4.045-1-7.781,3.069-10.092a7.766,7.766,0,0,1,9.816,1.1c2.637,2.544,2.242,6.16,1.112,8.941-1.653,4.068-5.225,5.452-9.616,3.8-1.905-.718-4.008-2.088-5.087,1.1Z" transform="translate(-21.354 -6.668)" fill="#12263f"/>
        <path id="Trazado_599970" data-name="Trazado 599970" d="M163.907,58.417c1.571,11.565-4.89,15.1-15.056,14.942l.094.089c.286-.21.842-.45.822-.628-1.665-15.534-.913-16.3,14.205-14.338l-.065-.065" transform="translate(-17.38 -6.738)" fill="#12263f"/>
        <path id="Trazado_599971" data-name="Trazado 599971" d="M180.9,75.3c-2.447,2.392.758,4.368.5,6.741-.608,5.616-3.454,8.7-9.028,8.26-5.22-.411-7.377-4.086-6.876-9.02.535-5.272,4.115-6.875,9.041-6.971,2.315-.044,3.869,3.631,6.481,1.108L180.9,75.3" transform="translate(-19.315 -8.677)" fill="#12263f"/>
        <path id="Trazado_599972" data-name="Trazado 599972" d="M198.116,134.967c.581,5.413-2.515,7.851-7.436,7.735-4.28-.1-7.375-2.564-7.682-7.137-.344-5.153,2.9-8.12,7.523-8.4,4.736-.282,8.084,2.206,7.595,7.8" transform="translate(-21.364 -14.846)" fill="#12263f"/>
        <path id="Trazado_599973" data-name="Trazado 599973" d="M129.515,37.017c-2.691-4.063-4.83.551-7.313.605-5.636.122-9.251-1.9-9.473-7.562-.2-4.956,2.771-8.136,7.912-8.144,5.7-.01,8.205,3.457,8.331,8.915.048,2.1-3.427,4.459.453,6.278l.09-.092" transform="translate(-13.161 -2.559)" fill="#12263f"/>
        <path id="Trazado_599974" data-name="Trazado 599974" d="M182.928,162.939c1.95,3,3.594-.121,5.277-.411,5.3-.91,9.264-.1,9.89,6.122.516,5.128-.534,9.352-6.956,9.31-6.479-.042-8.427-3.922-8.179-9.763.074-1.756,3.06-3.567.034-5.325l-.067.067" transform="translate(-21.359 -18.941)" fill="#12263f"/>
        <path id="Trazado_599975" data-name="Trazado 599975" d="M129.275,99.958c-1.35,5.019-3.719,8.326-8.936,7.938-5.057-.376-7.871-3.51-7.569-8.4s3.445-7.5,8.556-7.405c5.532.1,6.744,4.143,7.949,7.867" transform="translate(-13.165 -10.752)" fill="#12263f"/>
        <path id="Trazado_599976" data-name="Trazado 599976" d="M183,37.164c3.106-1.711.222-3.577.042-5.3-.629-6.011,1.708-9.814,7.924-9.995,5.248-.153,7.26,3,7.25,8.218-.013,7.33-4.473,7.693-9.978,7.307-1.757-.123-3.4-3.323-5.3-.294l.065.065" transform="translate(-21.359 -2.553)" fill="#12263f"/>
        <path id="Trazado_599977" data-name="Trazado 599977" d="M198.109,100.349c.39,5.145-2.2,7.527-6.961,7.523-5.1-.005-8.166-2.66-8.151-7.853.014-5.161,3.03-7.837,8.149-7.887,5.636-.056,7.539,3.2,6.963,8.218" transform="translate(-21.367 -10.757)" fill="#12263f"/>
        <path id="Trazado_599978" data-name="Trazado 599978" d="M155.874,161.973c4.6.652,7.971,3.036,7.907,8.085-.064,4.935-3.034,7.874-8.109,7.835-4.62-.036-7.047-2.673-7.311-7.31-.3-5.227,2.423-7.823,7.513-8.611" transform="translate(-17.32 -18.912)" fill="#12263f"/>
        <path id="Trazado_599979" data-name="Trazado 599979" d="M148.883,107.519c2.976-2.348-.636-4.173-.594-6.4.106-5.477,1.937-8.981,7.878-8.954,4.646.02,7.435,2.79,7.562,7.192.155,5.374-2.712,8.32-8.477,8.6-2.256.111-4.112-3.5-6.458-.533l.089.088" transform="translate(-17.315 -10.762)" fill="#12263f"/>
        <path id="Trazado_599980" data-name="Trazado 599980" d="M163.905,30.591c-1.049,5.238-4.254,7.424-9.189,6.9-5.526-.589-6.793-4.446-6.242-9.171s3.766-6.768,8.169-6.321c5.033.511,7.131,3.967,7.262,8.594" transform="translate(-17.322 -2.561)" fill="#12263f"/>
        <path id="Trazado_599981" data-name="Trazado 599981" d="M21.577,41.486q.14,1.089.279,2.179c.7,1.461,1.278.886,1.834-.108q3.271-1.624,6.539-3.237c.343,1.754.688,3.5,1.033,5.239l1.076,4.566-2.1,6.331-4.723,1.321c1.6,2.138,4.5,4.343.236,6.481-.589.3-2.634-1.076-3.155-2.1-1.184-2.334-3.71-6.376-1.291-7.346,8.193-3.287,1.547-4.744-.536-6.169-4.595-3.143-1.444-5.01.812-7.156" transform="translate(-2.149 -4.708)" fill="#12263f"/>
        <path id="Trazado_599982" data-name="Trazado 599982" d="M31.8,57.156l2.1-6.332c2.207-.785,2.572-2.478,2.24-4.513h.012l6.433,0,.095.108c.529,5.061,4.3,1.615,6.449,2.44C46.824,56.48,58,53.2,57.619,59.271l-.009.009c-6.971,3.458-10.554-6.562-17.226-4.293l-.895-.488.892.49q.015,1.053.023,2.107l-6.862.038q-.872.016-1.744.022" transform="translate(-3.713 -5.407)" fill="#12263f"/>
        <path id="Trazado_599983" data-name="Trazado 599983" d="M81.858,41.142c8.249,3.038,3.046,8.989,3.479,14.289-5.072-11.526-7.1-2.588-9.859.733l-.171-.183c-4.186-4.8-1.42-10.312-.518-15.008.846-4.4,4.637-4.736,6.985.086q-.229.464-.459.928l.543-.845" transform="translate(-8.53 -4.385)" fill="#12263f"/>
        <path id="Trazado_599984" data-name="Trazado 599984" d="M21.985,83.594c-1.834-.836-2.339-6.918-5.545-1.847-1.839,2.91-2.833,3.808-5.132.951-1.479-1.838-5.627-3.347-.537-6.016,4.068-2.132-.418-5.675.957-8.366l.118-.106c5.117.437,5.818,9.459,12.7,6.477,1.91,3.756,4.332,7.66-2.56,8.907" transform="translate(-0.97 -7.964)" fill="#12263f"/>
        <path id="Trazado_599985" data-name="Trazado 599985" d="M79.339,117.906c.293,2.388,1,4.82.744,7.149a3.161,3.161,0,0,1-3.928,2.575c-1.622-.434-1.284-1.954-.8-3.379,2.935-8.633-2.258-11.621-9.386-13.211q-.648-1.928-1.29-3.866c5.594-2.232,8.556,5.415,14.011,3.7.792,1.975,2.33,2.638,4.346,2.462,3.272,3.325.815,3.978-2.084,4.426-.62-.889-1.234-1.718-1.615.14" transform="translate(-7.552 -12.466)" fill="#12263f"/>
        <path id="Trazado_599986" data-name="Trazado 599986" d="M52.07,141.177c.034.709-.176,1.559.14,2.108,7.752,13.48-.279,13.787-10.608,12.1.171-5.408,9.526-7.17,6.341-14.185l4.126-.019" transform="translate(-4.858 -16.484)" fill="#12263f"/>
        <path id="Trazado_599987" data-name="Trazado 599987" d="M28.048,110.68c-2.507-.052-5.036-.006-6.725-2.387-1.494-2.106-5.551-3.5-3-6.827,2.187-2.852,4.327-.465,6.132,1.3,2.323,2.267,7.793.095,7.879,5.533q-1.375.162-2.75.32L27.959,110.7l.088-.023" transform="translate(-2.043 -11.693)" fill="#12263f"/>
        <path id="Trazado_599988" data-name="Trazado 599988" d="M43.231,63.353c4.076-.714,6.735,1.471,8.46,4.663,1.046,1.935-1.547,1.581-2.319,2.423-2.718,2.96-5.375,4.067-8.7.692-.84-.853-2.568-.839-3.891-1.224q-.1-1.089-.193-2.178L38.822,65.5c1.838.033,3.442-.409,4.409-2.149" transform="translate(-4.272 -7.381)" fill="#12263f"/>
        <path id="Trazado_599989" data-name="Trazado 599989" d="M80.58,85.722c-3.728-7.287.308-11.554,4.413-15.894-.373,5.193.359,10.579-4.413,15.894" transform="translate(-9.237 -8.153)" fill="#12263f"/>
        <path id="Trazado_599990" data-name="Trazado 599990" d="M4.5,100.6c.176-3.8-3.612-7.224-.923-11.693,5.022.851,6.667,4.409,6.781,8.824.1,3.99-3.42,2.579-5.566,3.158Z" transform="translate(-0.304 -10.38)" fill="#12263f"/>
        <path id="Trazado_599991" data-name="Trazado 599991" d="M52.894,140.462l-4.126.019.012.007-.122-4.218c6.169-1.635,12.276-3.145,13.105,6.275l-4.71.033-4.159-2.116" transform="translate(-5.681 -15.769)" fill="#12263f"/>
        <path id="Trazado_599992" data-name="Trazado 599992" d="M23.793,84.451c6.892-1.246,4.47-5.15,2.56-8.907,3.321.019,7.487.957,7.569,4.023C34,82.4,31.385,86,28.934,88.043c-4.6,3.842-4.756-.432-5.141-3.592" transform="translate(-2.778 -8.821)" fill="#12263f"/>
        <path id="Trazado_599993" data-name="Trazado 599993" d="M67.64,100.711c1.784-4.155,3.332-8.45,9.017-7.886a2.122,2.122,0,0,1,1.891,3.028c-1.766,5.684-5.9,6.176-10.908,4.859" transform="translate(-7.898 -10.833)" fill="#12263f"/>
        <path id="Trazado_599994" data-name="Trazado 599994" d="M65.236,69.27c.126-3.141-1.4-5.209-4.215-6.443l.019.019-.019-2.152.009-.009c4.906,2.706,8.8-.27,12.872-2.266l.17.18A15.522,15.522,0,0,0,71.92,69.192l-.164.112-6.52-.034" transform="translate(-7.125 -6.821)" fill="#12263f"/>
        <path id="Trazado_599995" data-name="Trazado 599995" d="M26.627,138.312c2.459-.979,4.856-3.468,8.276.551-4.745.93-6,9.551-12.9,3.882l-.022.031,4.069-4Z" transform="translate(-2.566 -15.955)" fill="#12263f"/>
        <path id="Trazado_599996" data-name="Trazado 599996" d="M41.3,125.406c1.306-2.138-2.81-7.057,3.294-6.636,1.913.132,4.844.243,4.86,2.946.036,5.772-4.789,3.445-7.778,4.143Z" transform="translate(-4.803 -13.865)" fill="#12263f"/>
        <path id="Trazado_599997" data-name="Trazado 599997" d="M62.3,173.668l-6.551.908c-8.035-4.711,5.9-7.755-.588-12.471,7.023,2.231,1,9.885,7.139,11.563" transform="translate(-6.209 -18.928)" fill="#12263f"/>
        <path id="Trazado_599998" data-name="Trazado 599998" d="M58.711,16.262c5.922-.435,2.769-3.751,2.019-6.3,7.8-.386,7.035,3.593,4.38,8.531-3.66,3.612-5.7,2.591-6.4-2.227" transform="translate(-6.855 -1.16)" fill="#12263f"/>
        <path id="Trazado_599999" data-name="Trazado 599999" d="M72.174,70.616c2.866,5.277-1.064,9.061-3.257,13.695-.037-4.472-1.406-7.855-5.727-9.232,3.449-.43,6.61-1.434,8.819-4.349Z" transform="translate(-7.378 -8.245)" fill="#12263f"/>
        <path id="Trazado_600000" data-name="Trazado 600000" d="M69.471,168.473c-4.75-3.355-8.58-6.942-2.4-13.852.239,5.566,3.012,9.265,5.254,13.229l-2.856.623" transform="translate(-7.457 -18.054)" fill="#12263f"/>
        <path id="Trazado_600001" data-name="Trazado 600001" d="M77.786,20.052q2.814-1.067,5.633-2.123c1.991,1.24,1.09,3.109,1.07,4.785l-2.266,3.639c-9.822,3.728-2.4-4.591-4.438-6.3" transform="translate(-8.99 -2.093)" fill="#12263f"/>
        <path id="Trazado_600002" data-name="Trazado 600002" d="M32.825,45.121c-.345-1.743-.692-3.485-1.033-5.239.329-1.093.653-2.173.983-3.252,2.7,0,5.513-.569,7.7,1.706-3.275,1.131-3.185,4.368-4.317,6.838h-.012l-3.316-.052" transform="translate(-3.712 -4.269)" fill="#12263f"/>
        <path id="Trazado_600003" data-name="Trazado 600003" d="M86.366,155.252c1.23,7.652-4.6,7.008-9.242,8.58-.692-4.822,4.644-4.706,5-8q1.355-.179,2.708-.353.77-.1,1.539-.223" transform="translate(-8.998 -18.128)" fill="#12263f"/>
        <path id="Trazado_600004" data-name="Trazado 600004" d="M8.86,36.127,3.866,41.371c-3.148-5.337.868-7.456,3.356-10.034,1.058-1.1,2.763-1.526,3.1.578.194,1.2-.746,2.587-1.176,3.89Z" transform="translate(-0.317 -3.552)" fill="#12263f"/>
        <path id="Trazado_600005" data-name="Trazado 600005" d="M16.922,15.531q-1.277,1.271-2.554,2.543c-3.659-5.008,1.421-8.319.343-14.678,6.541,5.5,1.177,8.854,2.212,12.135" transform="translate(-1.52 -0.397)" fill="#12263f"/>
        <path id="Trazado_600006" data-name="Trazado 600006" d="M58.851,34.55c.21-4.724,2.7-7.367,6.623-8.6.284-.089,1.246.816,1.3,1.322.63,5.838-7.239,2.6-7.924,7.281" transform="translate(-6.872 -3.029)" fill="#12263f"/>
        <path id="Trazado_600007" data-name="Trazado 600007" d="M20.806,142.453a13.779,13.779,0,0,1-2.8-1.329c-2.155-1.688-7.792-1.913-5.858-5.186,2.76-4.671,5.536,1.16,8.429,2.023l.458.445q-.125,2.039-.247,4.078Z" transform="translate(-1.372 -15.663)" fill="#12263f"/>
        <path id="Trazado_600008" data-name="Trazado 600008" d="M84.31,154.363q-1.353.176-2.707.353c-5.042-.564-9.807-1.419-8.84-8.315l.739-.669c2.076,3.038,4.666,5.142,8.647,4.723l2.161,3.907" transform="translate(-8.481 -17.016)" fill="#12263f"/>
        <path id="Trazado_600009" data-name="Trazado 600009" d="M8.274,173.2c.028,1.618-.53,2.907-2.293,2.486a4.229,4.229,0,0,1-3.174-3.688c-.226-1.42-.105-3.053,1.693-3.07,2.687-.025,2.727,2.678,3.774,4.272" transform="translate(-0.318 -19.724)" fill="#12263f"/>
        <path id="Trazado_600010" data-name="Trazado 600010" d="M43.762,112.477c3.9-.788,3.758-5.6,8.017-7.9-.216,6.338-1.923,9.311-8.017,7.9" transform="translate(-5.11 -12.21)" fill="#12263f"/>
        <path id="Trazado_600011" data-name="Trazado 600011" d="M42.9,62.8c-.967,1.74-2.571,2.182-4.409,2.149-.977-1.706-2.61-2.08-4.393-2.152l.083.065q-.2-2.153-.408-4.307l6.859-.038L42.9,62.8" transform="translate(-3.944 -6.833)" fill="#12263f"/>
        <path id="Trazado_600012" data-name="Trazado 600012" d="M71.578,70.74c-2.21,2.915-5.37,3.92-8.819,4.349-1.143-.57-3.328-1.369-3.26-1.676.666-3.017,4.029-1.018,5.56-2.707l6.519.034" transform="translate(-6.947 -8.256)" fill="#12263f"/>
        <path id="Trazado_600013" data-name="Trazado 600013" d="M72.333,145.279c-6.883-1.65-.949-5.988-1.88-8.886l.246-.276c6.81,1.17,3.458,5.147,2.37,8.5,0,0-.736.667-.736.667" transform="translate(-8.052 -15.893)" fill="#12263f"/>
        <path id="Trazado_600014" data-name="Trazado 600014" d="M30.966,109.695q1.375-.159,2.75-.32c-2.379,2.733,5.64,6.729-.573,8.35-3.841,1-3.394-3.332-3.715-5.968l-.087.023,1.624-2.085" transform="translate(-3.426 -12.771)" fill="#12263f"/>
        <path id="Trazado_600015" data-name="Trazado 600015" d="M41.515,14.845c2.7.042,5.668-.438,7.173,2.576.258.517-.6,2.3-1.08,2.356-3.612.438-5.855-1.093-6.087-4.936l-.005,0" transform="translate(-4.847 -1.733)" fill="#12263f"/>
        <path id="Trazado_600016" data-name="Trazado 600016" d="M30.317,154.772c-1.925-.028-4.861.935-4.778-2.043.074-2.659,3.379-4.163,5.311-3.5,2.667.913-.244,3.443.083,5.28Z" transform="translate(-2.982 -17.406)" fill="#12263f"/>
        <path id="Trazado_600017" data-name="Trazado 600017" d="M20.695,118.955l-8.073-.938c4.144-4.348,6.767-5.394,8.484.526l-.412.412" transform="translate(-1.474 -13.361)" fill="#12263f"/>
        <path id="Trazado_600018" data-name="Trazado 600018" d="M11.242,67.243c-2.968-1.638-6.577-2.631-7.1-8.237,3.5,2.583,6.734,3.93,7.218,8.131l-.118.106" transform="translate(-0.484 -6.89)" fill="#12263f"/>
        <path id="Trazado_600019" data-name="Trazado 600019" d="M36.731,45.408c1.132-2.47,1.042-5.707,4.316-6.837a3.359,3.359,0,0,0,3.861,2.371q.547.435,1.052.914-1.4,1.774-2.8,3.549l-6.432,0" transform="translate(-4.289 -4.504)" fill="#12263f"/>
        <path id="Trazado_600020" data-name="Trazado 600020" d="M62.57,45.753c-2.349-.507-5.345-.368-4.961-3.994a3.026,3.026,0,0,1,2.29-1.852c4.061.086,2.4,3.465,2.977,5.566Z" transform="translate(-6.723 -4.66)" fill="#12263f"/>
        <path id="Trazado_600021" data-name="Trazado 600021" d="M8.452,113.778c-.555.48-1.21,1.532-1.928,1.577-2.053.127-3.219-1.321-3.418-3.172a2.631,2.631,0,0,1,1.67-1.993c2.076-.177,3,1.369,3.676,3.588" transform="translate(-0.362 -12.864)" fill="#12263f"/>
        <path id="Trazado_600022" data-name="Trazado 600022" d="M84.889,113.381c-2.016.176-3.554-.488-4.346-2.462q0-1.892,0-3.778l2.261-.026q1.024.011,2.049.027.017,3.119.035,6.238" transform="translate(-9.404 -12.507)" fill="#12263f"/>
        <path id="Trazado_600023" data-name="Trazado 600023" d="M25.128,96.436c3.424-1.875,6.43-1.926,6.816-.073.79,3.785-1.947,2.219-3.742,1.478-.883-.364-1.738-.791-3.074-1.4" transform="translate(-2.934 -11.093)" fill="#12263f"/>
        <path id="Trazado_600024" data-name="Trazado 600024" d="M21.137,154.592c-.1,5.016-2.291,5.723-5.385,6.007.107-3.368,2.848-3.934,5.385-6.007" transform="translate(-1.839 -18.051)" fill="#12263f"/>
        <path id="Trazado_600025" data-name="Trazado 600025" d="M64.325,107.228q.643,1.936,1.29,3.866c-1.559,2.2-2.9,1.178-3.665-.529-.938-2.092.371-3.072,2.375-3.337" transform="translate(-7.197 -12.52)" fill="#12263f"/>
        <path id="Trazado_600026" data-name="Trazado 600026" d="M46.335,35.155c1.177-4.564,3.9-1.258,5.995-1.169-.12,1.757-1.422,2.055-2.809,2.254q-1.6-.542-3.186-1.085" transform="translate(-5.41 -3.823)" fill="#12263f"/>
        <path id="Trazado_600027" data-name="Trazado 600027" d="M57.7,96.006c.961,1.207,1.908,1.9,2.023,2.712.079.561-.987,1.283-1.541,1.934-.606-.685-1.533-1.3-1.715-2.079-.141-.608.647-1.43,1.234-2.567" transform="translate(-6.592 -11.21)" fill="#12263f"/>
        <path id="Trazado_600028" data-name="Trazado 600028" d="M73.326,117.14c-3.574,4.537-5.552,4.42-7.709,3.032l7.709-3.032" transform="translate(-7.662 -13.678)" fill="#12263f"/>
        <path id="Trazado_600029" data-name="Trazado 600029" d="M48.544,170.62l-1.493,2.525a21.154,21.154,0,0,1-2.445-2.769c-.093-.141,1.214-1.682,1.728-1.6.753.111,1.377,1.1,2.21,1.849" transform="translate(-5.208 -19.706)" fill="#12263f"/>
        <path id="Trazado_600030" data-name="Trazado 600030" d="M36.642,14.223c.234-1.963.214-4.77,2.591-4.713,2.922.072,1.252,3.045,1.712,4.713l.006,0H36.638Z" transform="translate(-4.278 -1.11)" fill="#12263f"/>
        <path id="Trazado_600031" data-name="Trazado 600031" d="M42.3,90.535c-1.2.621-2.069,1.456-2.717,1.31-.821-.184-1.46-1.166-2.178-1.8.693-.594,1.458-1.729,2.062-1.65.846.11,1.573,1.126,2.833,2.144" transform="translate(-4.368 -10.32)" fill="#12263f"/>
        <path id="Trazado_600032" data-name="Trazado 600032" d="M41.119,126.58c-.337,1.612-.21,3.843-2.626,3.605-2.326-.229-2.362-2.5-1.833-3.967,1.04-2.871,2.692-.122,4.083-.089,0,0,.375.45.375.45" transform="translate(-4.248 -14.585)" fill="#12263f"/>
        <path id="Trazado_600033" data-name="Trazado 600033" d="M7.093,10.044c.947,1.24,1.865,1.926,1.943,2.7.072.708-.76,1.507-1.2,2.266-.7-.672-1.743-1.239-2-2.052-.193-.61.617-1.537,1.252-2.91" transform="translate(-0.679 -1.173)" fill="#12263f"/>
        <path id="Trazado_600034" data-name="Trazado 600034" d="M1.025,148.278c-1.312-1.86-1.482-3.595.183-5.357,1.331,1.862,1.494,3.6-.183,5.357" transform="translate(0 -16.688)" fill="#12263f"/>
        <path id="Trazado_600035" data-name="Trazado 600035" d="M58.163,143.568l4.71-.032c-.558,1.181-.92,3.2-1.712,3.386-2.43.563-2.442-1.794-3-3.355" transform="translate(-6.791 -16.76)" fill="#12263f"/>
        <path id="Trazado_600036" data-name="Trazado 600036" d="M14.559,171.108l1.133,1.365-2.025,1.3c-.216-.572-.7-1.221-.567-1.695.118-.419.927-.645,1.459-.973" transform="translate(-1.527 -19.979)" fill="#12263f"/>
        <path id="Trazado_600037" data-name="Trazado 600037" d="M10.065,124.169c-.778.424-1.591,1.226-2.4,1.225-1.246,0-1.415-1.115-.637-1.863a8.626,8.626,0,0,1,2.515-1.184c.156.54.312,1.08.526,1.821" transform="translate(-0.765 -14.286)" fill="#12263f"/>
        <path id="Trazado_600038" data-name="Trazado 600038" d="M48.083,136.427q.061,2.109.121,4.218l-4.071.144-.4-.4c-.052-2.954,1.443-4.225,4.347-3.966" transform="translate(-5.107 -15.926)" fill="#12263f"/>
        <path id="Trazado_600039" data-name="Trazado 600039" d="M49.267,83.965c2.486-1.711,4.652-3.25,7.551-.269-2.47,1.8-4.772,1.809-7.551.269" transform="translate(-5.753 -9.576)" fill="#12263f"/>
        <path id="Trazado_600040" data-name="Trazado 600040" d="M36.018,67.746q.1,1.089.193,2.179c-4.82-.755-6.07-2.748-2.266-6.492l-.083-.064c.139,1.743.367,3.441,2.157,4.377" transform="translate(-3.703 -7.399)" fill="#12263f"/>
        <path id="Trazado_600041" data-name="Trazado 600041" d="M27.421,10.359,25.753,12.32c-.381-.736-1.162-1.547-1.04-2.188A2.892,2.892,0,0,1,26.37,8.114c1.124-.223,1.622.694,1.051,2.245" transform="translate(-2.884 -0.944)" fill="#12263f"/>
        <path id="Trazado_600042" data-name="Trazado 600042" d="M82.5,168.224a8.845,8.845,0,0,1,2.751-1.141c1.307-.048,1.546,1.129.781,1.84a4.9,4.9,0,0,1-2.728.728c-.2.019-.485-.838-.8-1.426" transform="translate(-9.633 -19.509)" fill="#12263f"/>
        <path id="Trazado_600043" data-name="Trazado 600043" d="M82.163,140.61c-.508.878-.822,1.42-1.136,1.963a10.914,10.914,0,0,1-2.131-1.559c-.146-.164.671-1.563.817-1.525a13.547,13.547,0,0,1,2.45,1.121" transform="translate(-9.21 -16.287)" fill="#12263f"/>
        <path id="Trazado_600044" data-name="Trazado 600044" d="M38.529,98.043c1.555-.681,2.432-1.383,3.23-1.3.53.054,1.146,1.175,1.338,1.918.117.451-.5,1.091-.791,1.646l-3.778-2.262" transform="translate(-4.499 -11.295)" fill="#12263f"/>
        <path id="Trazado_600045" data-name="Trazado 600045" d="M16.6,165.794a8.995,8.995,0,0,1,2.8-1.161c1.332-.049,1.563,1.154.792,1.87a4.956,4.956,0,0,1-2.775.731c-.207.019-.495-.847-.818-1.44" transform="translate(-1.938 -19.223)" fill="#12263f"/>
        <path id="Trazado_600046" data-name="Trazado 600046" d="M85.567,154.814l-2.161-3.907c6.353-3.869,3.056,1.871,3.7,3.685q-.768.121-1.539.223" transform="translate(-9.739 -17.467)" fill="#12263f"/>
        <path id="Trazado_600047" data-name="Trazado 600047" d="M21.741,138.019c.59-1.161,1.017-3.17,1.8-3.32,2.3-.439,2.471,1.815,3.052,3.381,0,0-.575.46-.571.457q-1.909-.04-3.825-.072Z" transform="translate(-2.539 -15.721)" fill="#12263f"/>
        <path id="Trazado_600048" data-name="Trazado 600048" d="M79.178,66.789c-.605-.352-1.418-.568-1.714-1.082-.21-.363.279-1.127.457-1.712.6.289,1.5.437,1.729.908.215.436-.278,1.217-.471,1.886" transform="translate(-9.039 -7.472)" fill="#12263f"/>
        <path id="Trazado_600049" data-name="Trazado 600049" d="M51.7,25.774c-.621.283-1.226.789-1.8.756s-1.092-.613-1.634-.953c.587-.278,1.186-.793,1.763-.768.555.024,1.086.6,1.672.965" transform="translate(-5.635 -2.897)" fill="#12263f"/>
        <path id="Trazado_600050" data-name="Trazado 600050" d="M35.415,170.277a10.285,10.285,0,0,1-1.068-2.889c-.046-1.714,1.239-2.291,2.693-1.976a8.755,8.755,0,0,1,2.433,1.461l-4.058,3.4" transform="translate(-4.01 -19.304)" fill="#12263f"/>
        <path id="Trazado_600051" data-name="Trazado 600051" d="M70.193,136.031l-3.464-1.665.889-1.343q1.408,1.369,2.82,2.734l-.245.274" transform="translate(-7.791 -15.532)" fill="#12263f"/>
        <path id="Trazado_600052" data-name="Trazado 600052" d="M49.582,96.276c-.331.55-.543,1.286-1.022,1.562-.321.185-1.02-.283-1.551-.458.279-.552.43-1.355.875-1.579.379-.191,1.1.284,1.7.476" transform="translate(-5.489 -11.181)" fill="#12263f"/>
        <path id="Trazado_600053" data-name="Trazado 600053" d="M50.569,48.763c-2.145-.826-5.92,2.621-6.449-2.44,3.082-1.632,5.253-.874,6.449,2.44" transform="translate(-5.152 -5.312)" fill="#12263f"/>
        <path id="Trazado_600054" data-name="Trazado 600054" d="M40.672,107.18c-.6.166-1.353.615-1.664.406-.471-.316-.633-1.088-.927-1.667.6-.163,1.354-.622,1.75-.411.448.239.571,1.08.842,1.671" transform="translate(-4.446 -12.313)" fill="#12263f"/>
        <path id="Trazado_600055" data-name="Trazado 600055" d="M63.471,49.145c-.312,1.619-.462,3.377-2.679,3.53-.271.019-.8-.3-.817-.5-.19-1.956,1.268-2.848,2.6-3.8.3.259.6.516.892.775" transform="translate(-7.001 -5.648)" fill="#12263f"/>
        <path id="Trazado_600056" data-name="Trazado 600056" d="M43.751,141.318c-.347,1.178.145,3-1.946,2.872a1.94,1.94,0,0,1-1.336-1.334c-.123-2.083,1.7-1.588,2.886-1.933l.4.394" transform="translate(-4.725 -16.455)" fill="#12263f"/>
        <path id="Trazado_600057" data-name="Trazado 600057" d="M1.216,158.442c-.359-.6-.942-1.142-.95-1.7s.549-1.131.859-1.7c.331.551.908,1.1.925,1.656s-.523,1.14-.834,1.738" transform="translate(-0.031 -18.104)" fill="#12263f"/>
        <path id="Trazado_600058" data-name="Trazado 600058" d="M66.655,127.444c-.594.168-1.3.607-1.676.411-.428-.225-.559-1.013-.819-1.556.524-.153,1.214-.584,1.532-.394.461.275.652,1,.964,1.539" transform="translate(-7.491 -14.695)" fill="#12263f"/>
        <path id="Trazado_600059" data-name="Trazado 600059" d="M60.662,125.262l-.939,1.687c-.326-.563-.9-1.12-.91-1.69s.539-1.143.843-1.715l1.006,1.718" transform="translate(-6.867 -14.425)" fill="#12263f"/>
        <path id="Trazado_600060" data-name="Trazado 600060" d="M46.138,35.473q1.59.542,3.186,1.085c-.814,1.642-1.634,3.284-2.447,4.931-.33-.314-.68-.619-1.046-.909-.54-1.741-2.533-3.568.306-5.107" transform="translate(-5.213 -4.142)" fill="#12263f"/>
        <path id="Trazado_600061" data-name="Trazado 600061" d="M9.962,36.516l3.322,1.755-.866,1.247q-1.371-1.341-2.742-2.681l.287-.322" transform="translate(-1.13 -4.264)" fill="#12263f"/>
        <path id="Trazado_600062" data-name="Trazado 600062" d="M44.825,79.1a9.493,9.493,0,0,1-1.554.673c-.138.035-.4-.421-.61-.652a9.6,9.6,0,0,1,1.553-.676c.137-.036.4.421.612.654" transform="translate(-4.981 -9.16)" fill="#12263f"/>
        <path id="Trazado_600063" data-name="Trazado 600063" d="M29.667,172.566c.321.394.632.781.943,1.168a10.13,10.13,0,0,1-1.712.7c-.16.037-.448-.467-.677-.723.478-.385.956-.771,1.445-1.149" transform="translate(-3.295 -20.149)" fill="#12263f"/>
        <path id="Trazado_600064" data-name="Trazado 600064" d="M12.084,146.5l.812.371-1.137.891c-.141-.251-.445-.558-.382-.74.079-.228.458-.352.707-.522" transform="translate(-1.327 -17.106)" fill="#12263f"/>
        <path id="Trazado_600065" data-name="Trazado 600065" d="M9.652,163.563l.776.363-1.08.854c-.135-.242-.424-.533-.367-.715.067-.216.434-.339.67-.5" transform="translate(-1.048 -19.098)" fill="#12263f"/>
        <path id="Trazado_600066" data-name="Trazado 600066" d="M5.521,6.509,4.79,6.8q-.109-.555-.215-1.112a2.058,2.058,0,0,1,.79.171c.137.1.11.426.156.651" transform="translate(-0.534 -0.664)" fill="#12263f"/>
        <path id="Trazado_600067" data-name="Trazado 600067" d="M74.849,88.213c-.255.058-.63.247-.739.147-.2-.184-.249-.538-.36-.821l1.263-.261q-.082.468-.163.934" transform="translate(-8.611 -10.191)" fill="#12263f"/>
        <path id="Trazado_600068" data-name="Trazado 600068" d="M3.016,132.27c-.021.231.042.574-.085.669a2.062,2.062,0,0,1-.8.193l.106-1.151.776.288" transform="translate(-0.249 -15.411)" fill="#12263f"/>
        <path id="Trazado_600069" data-name="Trazado 600069" d="M8.191,130.713c.24.023.6-.042.693.087a.976.976,0,0,1,.182.816c-.42.867-.884.824-1.151-.107-.064-.222.176-.529.276-.8" transform="translate(-0.923 -15.262)" fill="#12263f"/>
        <path id="Trazado_600070" data-name="Trazado 600070" d="M36.259,14.842l-2.3,1.661-.56-.833,2.867-.824,0,0" transform="translate(-3.899 -1.733)" fill="#12263f"/>
        <path id="Trazado_600071" data-name="Trazado 600071" d="M70.212,170.222l2.856-.623c.341.828,1.118,2.28.955,2.394-2.153,1.5-2.89-.384-3.811-1.771" transform="translate(-8.198 -19.803)" fill="#12263f"/>
        <path id="Trazado_600072" data-name="Trazado 600072" d="M31.565,155.226l2.371,1.734-1.405,1.113-1.581-2.582.615-.265" transform="translate(-3.614 -18.125)" fill="#12263f"/>
        <path id="Trazado_600073" data-name="Trazado 600073" d="M82.915,26.985l2.266-3.639a3.56,3.56,0,0,1-2.266,3.639" transform="translate(-9.681 -2.726)" fill="#12263f"/>
        <path id="Trazado_600074" data-name="Trazado 600074" d="M63.5,46.21c1.637.716,1.749,1.608.315,2.682-.294-.257-.59-.514-.891-.774a4.463,4.463,0,0,0,.273-1.629l.3-.279" transform="translate(-7.347 -5.396)" fill="#12263f"/>
        <path id="Trazado_600075" data-name="Trazado 600075" d="M24.592,121.49l.807,1.24-1.222-.824Z" transform="translate(-2.823 -14.185)" fill="#12263f"/>
        <path id="Trazado_600076" data-name="Trazado 600076" d="M23.9,121.626q-1.061-1.069-2.128-2.131l.405-.405c.714.707,1.421,1.419,2.133,2.126l-.411.411" transform="translate(-2.542 -13.905)" fill="#12263f"/>
        <path id="Trazado_600077" data-name="Trazado 600077" d="M81.277,119.231c.381-1.858.995-1.029,1.615-.14q-.807.065-1.615.14" transform="translate(-9.49 -13.791)" fill="#12263f"/>
        <path id="Trazado_600078" data-name="Trazado 600078" d="M60.9,63.411l-.885.9c.05-.187.042-.446.164-.546a2.958,2.958,0,0,1,.74-.336l-.019-.019" transform="translate(-7.008 -7.404)" fill="#12263f"/>
        <path id="Trazado_600079" data-name="Trazado 600079" d="M85.153,106.989q-1.025-.017-2.049-.027c.707-1.668,1.386-1.418,2.049.027" transform="translate(-9.703 -12.354)" fill="#12263f"/>
        <path id="Trazado_600080" data-name="Trazado 600080" d="M80.424,107.078l-.906-.5.906.5Z" transform="translate(-9.285 -12.445)" fill="#12263f"/>
        <path id="Trazado_600081" data-name="Trazado 600081" d="M4.934,102.43l-1.087.8q.4-.543.8-1.089l.29.288" transform="translate(-0.449 -11.926)" fill="#12263f"/>
        <path id="Trazado_600082" data-name="Trazado 600082" d="M47.762,178.425l.2.657-.608-.1Z" transform="translate(-5.53 -20.833)" fill="#12263f"/>
        <path id="Trazado_600083" data-name="Trazado 600083" d="M24.146,43.985c-.556.994-1.137,1.569-1.834.107a13.694,13.694,0,0,1,1.834-.107" transform="translate(-2.605 -5.136)" fill="#12263f"/>
        <path id="Trazado_600084" data-name="Trazado 600084" d="M32.962,46.252l3.316.052c.332,2.035-.033,3.728-2.241,4.513q-.537-2.283-1.075-4.565" transform="translate(-3.849 -5.4)" fill="#12263f"/>
        <path id="Trazado_600085" data-name="Trazado 600085" d="M41.4,56.072l-.892-.49.895.488,0,0" transform="translate(-4.73 -6.49)" fill="#12263f"/>
        <path id="Trazado_600086" data-name="Trazado 600086" d="M82.95,41.605l-.543.845q.231-.464.459-.928l.084.083" transform="translate(-9.622 -4.848)" fill="#12263f"/>
        <path id="Trazado_600087" data-name="Trazado 600087" d="M30.966,109.737l-1.624,2.085,1.624-2.085" transform="translate(-3.426 -12.813)" fill="#12263f"/>
        <path id="Trazado_600088" data-name="Trazado 600088" d="M36.3,67.746c-1.789-.936-2.018-2.635-2.157-4.377,1.783.071,3.416.446,4.392,2.151L36.3,67.746" transform="translate(-3.987 -7.399)" fill="#12263f"/>
        <path id="Trazado_600089" data-name="Trazado 600089" d="M22.225,138.969q1.914.034,3.825.073l-4.073,4q.123-2.039.247-4.078" transform="translate(-2.566 -16.226)" fill="#12263f"/>
      </g>
    </g>
  </g>
</svg>
