<svg id="Grupo_882806" data-name="Grupo 882806" xmlns="http://www.w3.org/2000/svg" xmlns:xlink="http://www.w3.org/1999/xlink" width="98.906" height="99.421" viewBox="0 0 98.906 99.421">
  <defs>
    <clipPath id="clip-path">
      <rect id="Rectángulo_296504" data-name="Rectángulo 296504" width="98.906" height="99.421" fill="#12263f"/>
    </clipPath>
  </defs>
  <g id="Grupo_882805" data-name="Grupo 882805" clip-path="url(#clip-path)">
    <path id="Trazado_600128" data-name="Trazado 600128" d="M59.326,0c1.733.19,3.469.354,5.2.573A47.264,47.264,0,0,1,80.856,5.855a49.545,49.545,0,0,1,16.8,14.572A48.25,48.25,0,0,1,104.8,34.4c-2.071,0-4.066-.1-6.045.034a2.335,2.335,0,0,1-2.76-1.767,52.09,52.09,0,0,0-2.733-5.236,1.2,1.2,0,0,0-1.366-.7c-1.969.112-3.948.042-5.923.044H84.856l1.834,7.549H78.915c-.621-2.154-1.286-4.306-1.85-6.484-.219-.847-.6-1.087-1.467-1.084q-18.066.045-36.133,0c-.787,0-1.147.215-1.351.983-.578,2.184-1.232,4.347-1.878,6.593H28.472l1.821-7.563H24.91a2.165,2.165,0,0,1-.581,0c-1.755-.512-2.549.523-3.194,1.9-.793,1.7-1.63,3.375-2.492,5.039-.147.284-.512.642-.782.648-2.458.05-4.917.029-7.539.029.5-1.351.894-2.637,1.439-3.856C18.3,15.894,29.2,6.221,44.648,1.774A43.759,43.759,0,0,1,55.071.137,5.331,5.331,0,0,0,55.828,0ZM72.945,19.109c.007-.132.036-.209.01-.253-2.246-3.771-4.943-7.144-8.813-9.358a12.245,12.245,0,0,0-11.883-.621C47.7,11.021,44.684,14.7,42.193,18.916c-.021.036.03.114.053.193Zm6.017-5.763-.181.21c.962,1.771,1.92,3.543,2.893,5.308a.545.545,0,0,0,.363.272c1.362.019,2.725.012,4.088.012l.14-.351-7.3-5.451M36.34,13.6l-.191-.229-7.274,5.441.153.344c1.343,0,2.685.01,4.028-.014a.645.645,0,0,0,.438-.314c.96-1.737,1.9-3.484,2.846-5.229" transform="translate(-8.317)" fill="#12263f"/>
    <path id="Trazado_600129" data-name="Trazado 600129" d="M10.8,335.058c2.518,0,4.945-.024,7.371.03a1.317,1.317,0,0,1,.866.668c1.153,2.13,2.261,4.284,3.371,6.437.237.459.519.547,1.067.524,2-.085,4.013-.042,6.02-.047h1.177l-1.811-7.556h7.753c.64,2.209,1.308,4.394,1.9,6.6.206.775.576.975,1.354.974q18.114-.04,36.228,0a1.138,1.138,0,0,0,1.328-1c.585-2.18,1.243-4.34,1.893-6.578H87.06l-1.809,7.569H90.53a2.565,2.565,0,0,1,.677,0c1.753.5,2.544-.528,3.188-1.909.792-1.7,1.634-3.373,2.5-5.035.148-.284.514-.64.786-.646,2.458-.05,4.917-.029,7.39-.029-4.615,15.917-20.635,32.424-43.047,34.163A49.56,49.56,0,0,1,10.8,335.058M42.432,350.35c2.392,3.993,5.131,7.447,9.115,9.683a12.3,12.3,0,0,0,12.074.39,20.167,20.167,0,0,0,6.812-5.664c1.083-1.35,2.027-2.81,3.167-4.409Zm44.228.29-.2-.371c-1.154,0-2.31.031-3.463-.013a1.137,1.137,0,0,0-1.188.742c-.759,1.457-1.589,2.876-2.385,4.314a4.459,4.459,0,0,0-.214.533l.216.2,7.229-5.408m-57.331-.361c1.169,1.6,6.231,5.319,7.355,5.489-.895-1.651-1.789-3.326-2.716-4.983a.964.964,0,0,0-.62-.484c-1.308-.045-2.618-.022-4.019-.022" transform="translate(-8.701 -269.96)" fill="#12263f"/>
    <path id="Trazado_600130" data-name="Trazado 600130" d="M190.888,221.473c-1.257,2.741-2.489,5.3-3.6,7.916a2.133,2.133,0,0,1-2.361,1.495c-3.548-.14-2.816.486-4.219-2.86-1.6-3.817-3.161-7.65-4.737-11.477-.6-1.46-.336-1.864,1.261-1.9.874-.019,1.749.015,2.623-.015A1.493,1.493,0,0,1,181.5,215.8c.948,2.782,1.956,5.544,3.017,8.529.217-.438.361-.7.48-.974,1.11-2.549,2.231-5.094,3.313-7.655a1.487,1.487,0,0,1,1.542-1.053c4.127.07,3.1-.508,4.627,2.96.819,1.864,1.578,3.755,2.368,5.631.123.292.272.573.473.993,1.1-2.846,2.195-5.538,3.181-8.268a1.7,1.7,0,0,1,1.926-1.336c.9.061,1.814,0,2.719.039,1.08.049,1.414.555.991,1.519-2.01,4.591-4.041,9.173-6.055,13.762a1.373,1.373,0,0,1-1.438.91c-.841-.026-1.685-.028-2.525.015a1.51,1.51,0,0,1-1.616-1.088c-1.161-2.735-2.366-5.452-3.614-8.312" transform="translate(-141.545 -172.924)" fill="#12263f"/>
    <path id="Trazado_600131" data-name="Trazado 600131" d="M366.646,221.575c-.189.367-.325.608-.441.859-1.136,2.467-2.285,4.929-3.391,7.409a1.556,1.556,0,0,1-1.635,1.081c-.808-.036-1.621-.039-2.428,0a1.5,1.5,0,0,1-1.6-1.113c-1.817-4.462-3.662-8.912-5.487-13.37-.519-1.268-.207-1.721,1.188-1.741.939-.014,1.879.025,2.817,0a1.442,1.442,0,0,1,1.57,1.128c.879,2.568,1.808,5.12,2.719,7.677.086.24.182.477.337.879.525-1.191.99-2.241,1.451-3.293.778-1.777,1.572-3.548,2.318-5.338a1.5,1.5,0,0,1,1.546-1.06c4.056.043,3.11-.473,4.59,2.888.948,2.153,1.829,4.336,2.818,6.691.19-.406.316-.64.411-.886.992-2.562,1.99-5.122,2.96-7.694a1.32,1.32,0,0,1,1.372-.986c1.069.014,2.139-.024,3.206.016.993.038,1.332.569.928,1.494-2.017,4.623-4.04,9.244-6.124,13.838a1.824,1.824,0,0,1-1.249.822,24.994,24.994,0,0,1-2.715.039,1.465,1.465,0,0,1-1.533-1.062c-1.058-2.5-2.163-4.983-3.251-7.471-.1-.226-.208-.447-.375-.8" transform="translate(-283.151 -172.977)" fill="#12263f"/>
    <path id="Trazado_600132" data-name="Trazado 600132" d="M15.182,221.606c-1.271,2.756-2.533,5.4-3.71,8.091a1.68,1.68,0,0,1-1.921,1.225,3.115,3.115,0,0,0-.388,0c-3.522-.011-2.772.407-4.092-2.717-1.635-3.872-3.2-7.773-4.794-11.662-.573-1.4-.3-1.806,1.234-1.821.874-.008,1.75.029,2.623-.009a1.514,1.514,0,0,1,1.709,1.2c.822,2.485,1.728,4.942,2.606,7.409.1.293.24.576.441,1.051.628-1.436,1.179-2.694,1.728-3.952.685-1.571,1.385-3.136,2.044-4.717a1.441,1.441,0,0,1,1.486-1c4.074.038,3.181-.436,4.654,2.952.936,2.153,1.833,4.324,2.822,6.664.717-1.838,1.37-3.512,2.022-5.187.445-1.145.912-2.283,1.322-3.44a1.31,1.31,0,0,1,1.381-.974c1.036.006,2.073-.037,3.108,0,1.067.038,1.408.562.985,1.529-2.008,4.592-4.041,9.173-6.052,13.763a1.386,1.386,0,0,1-1.434.92c-4.4-.081-3.307.6-4.974-3.066-.843-1.854-1.632-3.733-2.45-5.6-.087-.2-.2-.386-.35-.662" transform="translate(0 -172.99)" fill="#12263f"/>
  </g>
</svg>
