<svg id="Grupo_882804" data-name="Grupo 882804" xmlns="http://www.w3.org/2000/svg" xmlns:xlink="http://www.w3.org/1999/xlink" width="102.386" height="102.307" viewBox="0 0 102.386 102.307">
  <defs>
    <clipPath id="clip-path">
      <rect id="Rectángulo_296503" data-name="Rectángulo 296503" width="102.386" height="102.307" fill="#12263f"/>
    </clipPath>
  </defs>
  <g id="Grupo_882803" data-name="Grupo 882803" clip-path="url(#clip-path)">
    <path id="Trazado_600108" data-name="Trazado 600108" d="M102.614,554.77c-.04.057.093.192-.092.186-.245-.008-.491,0-.736,0H.3c0-.041,0-.083-.005-.124a.069.069,0,0,0,.014-.088c.275.009.551.027.826.027q50.224,0,100.447,0c.276,0,.551-.013.827-.02l.21.021" transform="translate(-0.237 -452.649)" fill="#12263f"/>
    <path id="Trazado_600109" data-name="Trazado 600109" d="M102.193,0l-.029.206c-.214-.007-.429-.021-.643-.021L.092.187A.153.153,0,0,1,0,.181L.059,0Z" fill="#12263f"/>
    <path id="Trazado_600110" data-name="Trazado 600110" d="M.305,102.911c0-.306-.013-.613-.013-.919q0-49.989,0-99.978C.293,1.677.317,1.341.33,1L101.759,1c.214,0,.428.014.643.021.01.275.028.551.028.826q0,50.121,0,100.241c0,.275-.016.551-.024.826-.276.007-.551.02-.827.02q-50.224,0-100.447,0c-.275,0-.551-.017-.826-.027m46.3-65.5h1.039c1.617,0,1.572,0,1.627-1.63.024-.715-.194-.858-.866-.849-2.789.038-5.578.016-8.367.016-1.811,0-1.793,0-1.757,1.793.01.5.127.721.669.68.6-.045,1.2-.01,1.821-.01a1.815,1.815,0,0,1-.033.362c-1.823,5.086-3.657,10.169-5.463,15.261a.756.756,0,0,1-.864.574c-1.968.012-1.948.027-1.925,2.038.006.517.137.679.664.671,1.93-.03,3.862-.012,5.792-.012,2.079,0,2.063,0,2.01-2.087-.012-.471-.122-.659-.615-.629-.628.037-1.259.009-1.983.009.518-1.518,1.027-2.92,1.467-4.344.143-.462.425-.435.764-.434,2.145,0,4.291.012,6.436-.008a.658.658,0,0,1,.766.567c.337,1.172.7,2.34,1.136,3.478.249.652.083.758-.552.754-1.869-.012-1.836.013-1.875,1.834-.015.677.144.894.852.878,2.144-.048,4.292-.061,6.435,0,.89.027,1.229-.147,1.168-1.127-.1-1.58-.026-1.588-1.669-1.6-.4,0-.736.037-.927-.489-1.881-5.19-3.793-10.369-5.751-15.7M65.018,54.725a.677.677,0,0,1,.133.651c-.126.8.227.983.97.94a28.811,28.811,0,0,1,3.309,0c.736.043.931-.193.912-.916-.045-1.736-.01-1.779-1.711-1.728-.709.021-.854-.192-.841-.863.044-2.3.033-4.6.012-6.9-.023-2.522-.941-3.852-3.076-4.544a7.324,7.324,0,0,0-1.894-.331c-2.374-.121-4.589.25-6.284,2.13-1.128,1.251-1.115,1.288.455,1.713a3.051,3.051,0,0,1,.443.115,1.117,1.117,0,0,0,1.546-.4,3.811,3.811,0,0,1,4.157-.847c1.271.483,1.72,1.26,1.738,3.01,0,.444,0,.889,0,1.368-2.517-1.041-3.229-1.21-4.565-1.1a4.908,4.908,0,0,0-4.844,5.332c.164,2.482,2.615,4.369,5.451,4.181a7.044,7.044,0,0,0,4.089-1.815M42.625,69.018c0-1.115,0-2.056,0-3,0-.3.062-.6-.435-.6-.438,0-.5.185-.5.548q.014,3.81,0,7.619c0,.341.074.494.453.477.32-.014.527-.041.488-.441-.015-.148-.119-.367.12-.469,1.457,1.362,3.069,1.447,4.29.231a3.5,3.5,0,0,0,0-4.741c-1.214-1.218-2.811-1.125-4.418.375m13.217,5.223c1.663.024,2.787-.741,2.962-2.018.178-1.3-.578-2.144-2.3-2.589-.562-.146-1.131-.278-1.678-.469a1.208,1.208,0,0,1-.971-1.28,1.32,1.32,0,0,1,1.186-1.216,3.175,3.175,0,0,1,2.616.557c.357.255.5.127.711-.159.269-.369-.024-.476-.242-.622a4.325,4.325,0,0,0-2.99-.649,2.357,2.357,0,0,0-2.208,2c-.121,1.13.444,1.915,1.753,2.349.725.24,1.485.379,2.209.621a1.219,1.219,0,0,1,.991,1.356,1.366,1.366,0,0,1-1.207,1.208,3.578,3.578,0,0,1-3.1-.759c-.319-.256-.483-.235-.736.067-.291.346-.036.5.179.652a4.866,4.866,0,0,0,2.823.955M27.62,65.771c-1.886-.024-3.008.729-3.2,1.911-.208,1.279.486,2.116,2.161,2.591.559.159,1.133.27,1.685.45.651.213,1.183.578,1.1,1.375a1.414,1.414,0,0,1-1.367,1.262,3.609,3.609,0,0,1-2.927-.781c-.3-.239-.47-.284-.738.039-.335.4,0,.535.229.7a4.732,4.732,0,0,0,3.567.869,2.321,2.321,0,0,0,2.164-2.041c.117-1.121-.439-1.888-1.763-2.341-.722-.247-1.479-.394-2.2-.638a1.208,1.208,0,0,1-.982-1.359,1.353,1.353,0,0,1,1.25-1.16,3.2,3.2,0,0,1,2.53.562c.335.238.493.182.718-.131.258-.36.014-.475-.216-.63a4.035,4.035,0,0,0-2-.683m33.435,5.708c1.5,0,2.943,0,4.383,0,.247,0,.568.116.565-.356-.009-1.455-.781-3.283-2.815-3.329a2.952,2.952,0,0,0-2.873,2.027,3.189,3.189,0,0,0,4.722,3.9c.272-.175.792-.318.535-.778-.28-.5-.6-.084-.893.094a2.291,2.291,0,0,1-3.624-1.559M38.9,73.339c.054.406-.043.768.511.734.5-.03.427-.315.427-.615,0-1.042.027-2.084-.007-3.125-.047-1.441-.586-2.181-1.757-2.458a4.5,4.5,0,0,0-2.611.254c-.357.129-.36.292-.253.619.128.392.32.245.551.165a5.588,5.588,0,0,1,.792-.228c1.288-.242,2.152.232,2.358,1.272.089.446.047.711-.529.557a4.332,4.332,0,0,0-2.448.03,1.825,1.825,0,0,0-1.405,1.817A1.788,1.788,0,0,0,35.91,74.1a2.877,2.877,0,0,0,2.987-.758M75.562,71.39c0,.705.01,1.41,0,2.115-.007.341.005.564.468.564s.467-.234.463-.569c-.011-.95-.02-1.9,0-2.851.014-.605-.231-1.311.116-1.785.254-.347.92-.084,1.4-.109.288-.015.352-.142.356-.4s-.087-.4-.367-.38a1.732,1.732,0,0,1-.639-.011c-.29-.1-.806.336-.864-.307-.054-.6-.01-1.2.7-1.423a2.2,2.2,0,0,1,.633-.026c.231,0,.566.274.582-.254.011-.36-.175-.46-.49-.525A1.844,1.844,0,0,0,75.565,67.3c-.027.336.136.8-.508.686-.229-.039-.323.111-.313.335.008.183-.009.439.234.412.729-.081.58.416.583.82,0,.613,0,1.226,0,1.839m-7.174-2c0-.492-.022-.736,0-.974.045-.393-.158-.433-.483-.446-.38-.014-.455.141-.452.481q.019,2.571,0,5.142c0,.348.089.481.459.476.345,0,.5-.082.478-.458-.028-.488,0-.979-.009-1.469-.042-1.619.24-3.018,2.166-3.385.468-.089.256-.5.239-.758-.022-.333-.32-.193-.5-.157a2.922,2.922,0,0,0-1.9,1.547m-35.334.525c0-1.286-.007-2.573,0-3.859,0-.348-.021-.561-.475-.561-.478,0-.454.257-.454.581q.007,3.721,0,7.442c0,.35.022.555.476.556.477,0,.456-.25.454-.575-.008-1.194,0-2.389,0-3.583m39.2,1.115c0,.823.006,1.646,0,2.47,0,.323-.024.574.451.574.446,0,.481-.194.479-.549-.013-1.677-.016-3.354,0-5.031,0-.385-.086-.531-.5-.525-.4.006-.437.184-.432.5.013.854,0,1.707,0,2.561m.908-4.827c.1-.366-.05-.519-.468-.519-.4,0-.537.136-.531.534,0,.342.087.5.462.486.332-.013.636.007.537-.5" transform="translate(-0.238 -0.818)" fill="#12263f"/>
    <path id="Trazado_600123" data-name="Trazado 600123" d="M220.3,207.6l2.94-8.873.216,0q.372,1.159.743,2.318c.629,1.975,1.244,3.954,1.9,5.922.148.447.185.655-.4.646-1.769-.028-3.539-.01-5.391-.01" transform="translate(-179.758 -162.148)" fill="#12263f"/>
    <path id="Trazado_600124" data-name="Trazado 600124" d="M317.894,268.376a2.368,2.368,0,0,1-2.566-2.447,2.666,2.666,0,0,1,2.971-2.449,6.057,6.057,0,0,1,3.142,1.114,1.725,1.725,0,0,1,.2,2.295,5.3,5.3,0,0,1-3.751,1.487" transform="translate(-257.296 -214.987)" fill="#12263f"/>
    <path id="Trazado_600125" data-name="Trazado 600125" d="M234.577,370.786a2.2,2.2,0,0,1-2.21,2.389,2.409,2.409,0,0,1,.005-4.806,2.251,2.251,0,0,1,2.2,2.417" transform="translate(-187.776 -300.576)" fill="#12263f"/>
    <path id="Trazado_600126" data-name="Trazado 600126" d="M334.6,370.271h-3.968c.169-1.33.887-2.124,1.931-2.149,1.08-.026,1.739.643,2.036,2.149" transform="translate(-269.784 -300.373)" fill="#12263f"/>
    <path id="Trazado_600127" data-name="Trazado 600127" d="M193.17,381.846a3.575,3.575,0,0,1,.608.047c.356.1.889-.059,1.02.4a1.357,1.357,0,0,1-.5,1.481,2.193,2.193,0,0,1-1.9.435,1.153,1.153,0,0,1-1.055-1.1,1.1,1.1,0,0,1,.981-1.144,6.364,6.364,0,0,1,.846-.121" transform="translate(-156.127 -311.572)" fill="#12263f"/>
  </g>
</svg>
