<svg xmlns="http://www.w3.org/2000/svg" xmlns:xlink="http://www.w3.org/1999/xlink" width="429" height="298" viewBox="0 0 429 298">
  <defs>
    <linearGradient id="linear-gradient" x1="0.5" x2="0.5" y2="1" gradientUnits="objectBoundingBox">
      <stop offset="0" stop-color="#fff"/>
      <stop offset="1" stop-color="#f1f1f1"/>
    </linearGradient>
    <linearGradient id="linear-gradient-2" x1="0.5" x2="0.5" y2="1" gradientUnits="objectBoundingBox">
      <stop offset="0" stop-color="#f5f5f5"/>
      <stop offset="0.25" stop-color="#f5f5f5"/>
      <stop offset="1" stop-color="#a7b3cf"/>
    </linearGradient>
  </defs>
  <g id="Grupo_889563" data-name="Grupo 889563" transform="translate(9068 5250)">
    <g id="Grupo_889562" data-name="Grupo 889562" transform="translate(-0.971 5.381)">
      <g id="Grupo_889560" data-name="Grupo 889560" transform="translate(-9810.775 -7684.249)">
        <g id="Grupo_142568" data-name="Grupo 142568" transform="translate(811.997 2432.867)">
          <g id="Grupo_54244" data-name="Grupo 54244" transform="translate(0 159.34)">
            <rect id="Rectángulo_29332" data-name="Rectángulo 29332" width="63.691" height="9.667" fill="none" stroke="#00223d" stroke-miterlimit="10" stroke-width="1"/>
            <rect id="Rectángulo_29333" data-name="Rectángulo 29333" width="63.691" height="9.667" transform="translate(0 14.339)" fill="none" stroke="#00223d" stroke-miterlimit="10" stroke-width="1"/>
            <rect id="Rectángulo_29334" data-name="Rectángulo 29334" width="63.691" height="9.667" transform="translate(0 28.678)" fill="none" stroke="#00223d" stroke-miterlimit="10" stroke-width="1"/>
            <rect id="Rectángulo_29335" data-name="Rectángulo 29335" width="63.691" height="9.667" transform="translate(0 43.017)" fill="none" stroke="#00223d" stroke-miterlimit="10" stroke-width="1"/>
          </g>
          <circle id="Elipse_4063" data-name="Elipse 4063" cx="32.896" cy="32.896" r="32.896" transform="translate(16.461 120.019) rotate(-80.44)" fill="none" stroke="#00223d" stroke-miterlimit="10" stroke-width="1"/>
          <circle id="Elipse_4064" data-name="Elipse 4064" cx="32.896" cy="32.896" r="32.896" transform="translate(134.178 46.522) rotate(-45)" fill="none" stroke="#00223d" stroke-miterlimit="10" stroke-width="1"/>
          <g id="Grupo_54253" data-name="Grupo 54253" transform="translate(72.485 85.311)">
            <g id="Grupo_54252" data-name="Grupo 54252" transform="translate(34.616 149.235)">
              <rect id="Rectángulo_29337" data-name="Rectángulo 29337" width="50.326" height="43.514" transform="translate(52.515)" fill="#fff"/>
              <path id="Trazado_116090" data-name="Trazado 116090" d="M365.887,386.967,315.561,368.5v-7.63h50.326Z" transform="translate(-263.046 -360.875)" fill="#d9d9d9"/>
              <rect id="Rectángulo_29338" data-name="Rectángulo 29338" width="155.356" height="2.641" transform="translate(0 40.872)" fill="#fff"/>
            </g>
            <rect id="Rectángulo_29339" data-name="Rectángulo 29339" width="224.589" height="150.54" transform="translate(0 0)" fill="#afafaf"/>
            <rect id="Rectángulo_29340" data-name="Rectángulo 29340" width="44.562" height="6.746" transform="translate(29.503 143.793)" fill="#d9d9d9"/>
            <rect id="Rectángulo_29341" data-name="Rectángulo 29341" width="214.911" height="139.104" transform="translate(4.839 4.689)" fill="#091c38"/>
          </g>
          <g id="Grupo_54255" data-name="Grupo 54255" transform="translate(87.707 47.831)">
            <path id="Trazado_116091" data-name="Trazado 116091" d="M311.57,216.813H218.577V109.051H290.52l21.05,21.215Z" transform="translate(-218.577 -109.051)" fill="#dbdada"/>
            <line id="Línea_1587" data-name="Línea 1587" x2="69.233" transform="translate(6.431 8.015)" fill="none" stroke="#fff" stroke-miterlimit="10" stroke-width="0.742"/>
            <path id="Trazado_116092" data-name="Trazado 116092" d="M315.608,109.051l21.049,21.215H315.608Z" transform="translate(-243.664 -109.051)" fill="#00223d"/>
            <g id="Grupo_54254" data-name="Grupo 54254" transform="translate(11.343 25.331)">
              <path id="Trazado_116093" data-name="Trazado 116093" d="M301.1,186.5h-64.15a3.079,3.079,0,0,1-3.078-3.078h0a3.078,3.078,0,0,1,3.078-3.078H301.1a3.078,3.078,0,0,1,3.078,3.078h0A3.079,3.079,0,0,1,301.1,186.5Z" transform="translate(-233.875 -152.815)" fill="none" stroke="#fff" stroke-miterlimit="10" stroke-width="0.742"/>
              <path id="Trazado_116094" data-name="Trazado 116094" d="M301.1,162.367h-64.15c-1.7,0-3.078-4.287-3.078-9.576h0c0-5.288,1.378-9.576,3.078-9.576H301.1c1.7,0,3.078,4.288,3.078,9.576h0C304.182,158.08,302.8,162.367,301.1,162.367Z" transform="translate(-233.875 -143.215)" fill="#fff"/>
              <path id="Trazado_116095" data-name="Trazado 116095" d="M301.1,202.893h-64.15a3.079,3.079,0,0,1-3.078-3.078h0a3.079,3.079,0,0,1,3.078-3.078H301.1a3.079,3.079,0,0,1,3.078,3.078h0A3.079,3.079,0,0,1,301.1,202.893Z" transform="translate(-233.875 -157.053)" fill="none" stroke="#fff" stroke-miterlimit="10" stroke-width="0.742"/>
              <path id="Trazado_116096" data-name="Trazado 116096" d="M301.1,219.284h-64.15a3.079,3.079,0,0,1-3.078-3.078h0a3.079,3.079,0,0,1,3.078-3.078H301.1a3.079,3.079,0,0,1,3.078,3.078h0A3.079,3.079,0,0,1,301.1,219.284Z" transform="translate(-233.875 -161.291)" fill="none" stroke="#fff" stroke-miterlimit="10" stroke-width="0.742"/>
              <path id="Trazado_116097" data-name="Trazado 116097" d="M301.1,235.674h-64.15a3.079,3.079,0,0,1-3.078-3.078h0a3.079,3.079,0,0,1,3.078-3.078H301.1a3.079,3.079,0,0,1,3.078,3.078h0A3.079,3.079,0,0,1,301.1,235.674Z" transform="translate(-233.875 -165.529)" fill="none" stroke="#fff" stroke-miterlimit="10" stroke-width="0.742"/>
            </g>
            <circle id="Elipse_4065" data-name="Elipse 4065" cx="1.39" cy="1.39" r="1.39" transform="translate(9.281 2.524)" fill="none" stroke="#fff" stroke-miterlimit="10" stroke-width="0.742"/>
            <circle id="Elipse_4066" data-name="Elipse 4066" cx="1.39" cy="1.39" r="1.39" transform="translate(17.066 2.524)" fill="none" stroke="#fff" stroke-miterlimit="10" stroke-width="0.742"/>
            <circle id="Elipse_4067" data-name="Elipse 4067" cx="1.39" cy="1.39" r="1.39" transform="translate(24.851 2.524)" fill="none" stroke="#fff" stroke-miterlimit="10" stroke-width="0.742"/>
          </g>
          <path id="Trazado_116098" data-name="Trazado 116098" d="M482.675,176.434a33.356,33.356,0,0,0,0-10.706h-9.483a23.948,23.948,0,0,0-3.1-7.475l6.706-6.706a33.578,33.578,0,0,0-7.57-7.57l-6.706,6.706a23.964,23.964,0,0,0-7.475-3.1V138.1a33.365,33.365,0,0,0-10.707,0v9.483a23.941,23.941,0,0,0-7.475,3.1l-6.706-6.706a33.6,33.6,0,0,0-7.571,7.57l6.706,6.706a23.945,23.945,0,0,0-3.1,7.475H416.7a33.358,33.358,0,0,0,0,10.706h9.483a23.945,23.945,0,0,0,3.1,7.475l-6.706,6.706a33.618,33.618,0,0,0,7.571,7.571l6.706-6.706a23.948,23.948,0,0,0,7.475,3.1v9.483a33.365,33.365,0,0,0,10.707,0v-9.483a23.945,23.945,0,0,0,7.475-3.1l6.706,6.706a33.6,33.6,0,0,0,7.57-7.571l-6.706-6.706a23.949,23.949,0,0,0,3.1-7.475Zm-32.986,8.693a14.046,14.046,0,1,1,14.045-14.045A14.045,14.045,0,0,1,449.689,185.127Z" transform="translate(-181.984 -81.301)" fill="#1565c0"/>
          <path id="Trazado_116099" data-name="Trazado 116099" d="M398.065,179.774a15.68,15.68,0,0,0,0-5.032h-4.457a11.26,11.26,0,0,0-1.459-3.513l3.153-3.152a15.791,15.791,0,0,0-3.558-3.558l-3.153,3.152a11.239,11.239,0,0,0-3.513-1.458v-4.457a15.681,15.681,0,0,0-5.032,0v4.457a11.247,11.247,0,0,0-3.513,1.458l-3.152-3.152a15.779,15.779,0,0,0-3.558,3.558l3.152,3.152a11.257,11.257,0,0,0-1.458,3.513h-4.457a15.68,15.68,0,0,0,0,5.032h4.457a11.257,11.257,0,0,0,1.458,3.513l-3.152,3.152A15.778,15.778,0,0,0,373.381,190l3.152-3.152a11.247,11.247,0,0,0,3.513,1.458v4.458a15.682,15.682,0,0,0,5.032,0V188.3a11.239,11.239,0,0,0,3.513-1.458L391.743,190a15.79,15.79,0,0,0,3.558-3.558l-3.153-3.152a11.26,11.26,0,0,0,1.459-3.513Zm-15.5,4.085a6.6,6.6,0,1,1,6.6-6.6A6.6,6.6,0,0,1,382.562,183.859Z" transform="translate(-169.207 -74.794)" fill="#8ec8c8"/>
          <g id="Grupo_54256" data-name="Grupo 54256" transform="translate(166.662 31.579)">
            <path id="Trazado_116100" data-name="Trazado 116100" d="M471.6,113.826l-1.094.561a3.949,3.949,0,0,1-1.8.435H423.849v4.359H468.7a3.958,3.958,0,0,1,1.8.434l1.094.561a1.713,1.713,0,0,0,1.243.125l8.177-2.3v-2l-8.177-2.3A1.708,1.708,0,0,0,471.6,113.826Z" transform="translate(-372.8 -109.839)" fill="#00223d"/>
            <path id="Trazado_116101" data-name="Trazado 116101" d="M443.171,115.236H423.849v4.359h7.938A19.475,19.475,0,0,0,439.5,118l3.9-1.681A.566.566,0,0,0,443.171,115.236Z" transform="translate(-372.8 -110.252)" fill="#091c38"/>
            <path id="Trazado_116102" data-name="Trazado 116102" d="M407.79,110.152l-49.8-1.636a2.9,2.9,0,0,0-2.992,2.9v8.533a2.9,2.9,0,0,0,2.992,2.9l49.8-1.636,1.771.971a1.977,1.977,0,0,0,2.927-1.733v-9.526a1.977,1.977,0,0,0-2.927-1.734Z" transform="translate(-354.999 -108.514)" fill="#69746b"/>
            <path id="Trazado_116103" data-name="Trazado 116103" d="M405.729,119.574H361.488a2.148,2.148,0,0,1-2.148-2.148h0a2.148,2.148,0,0,1,2.148-2.148h44.241a2.148,2.148,0,0,1,2.148,2.148h0A2.148,2.148,0,0,1,405.729,119.574Z" transform="translate(-356.121 -110.263)" fill="none" stroke="#fff" stroke-miterlimit="10" stroke-width="0.845"/>
          </g>
          <g id="Grupo_54257" data-name="Grupo 54257" transform="translate(87.707 209.826)">
            <rect id="Rectángulo_29342" data-name="Rectángulo 29342" width="92.993" height="19.278" fill="#1e61bf"/>
            <line id="Línea_1588" data-name="Línea 1588" x2="86.749" transform="translate(3.122 5.736)" fill="none" stroke="#091c38" stroke-miterlimit="10" stroke-width="0.742"/>
            <path id="Trazado_116104" data-name="Trazado 116104" d="M237.913,331.06a.984.984,0,1,1-.983-.983A.983.983,0,0,1,237.913,331.06Z" transform="translate(-223.068 -328.192)" fill="none" stroke="#091c38" stroke-miterlimit="10" stroke-width="0.742"/>
            <path id="Trazado_116105" data-name="Trazado 116105" d="M246.079,331.06a.984.984,0,1,1-.984-.983A.983.983,0,0,1,246.079,331.06Z" transform="translate(-225.179 -328.192)" fill="none" stroke="#091c38" stroke-miterlimit="10" stroke-width="0.742"/>
            <circle id="Elipse_4068" data-name="Elipse 4068" cx="0.984" cy="0.984" r="0.984" transform="translate(6.824 1.884)" fill="none" stroke="#091c38" stroke-miterlimit="10" stroke-width="0.742"/>
          </g>
          <g id="Grupo_54258" data-name="Grupo 54258" transform="translate(188.858 214.052)">
            <rect id="Rectángulo_29343" data-name="Rectángulo 29343" width="92.993" height="15.052" fill="#8ec8c8"/>
            <line id="Línea_1589" data-name="Línea 1589" x2="86.749" transform="translate(3.122 5.736)" fill="none" stroke="#fff" stroke-miterlimit="10" stroke-width="0.742"/>
            <path id="Trazado_116106" data-name="Trazado 116106" d="M366.17,336.76a.984.984,0,1,1-.984-.983A.984.984,0,0,1,366.17,336.76Z" transform="translate(-357.379 -333.893)" fill="none" stroke="#fff" stroke-miterlimit="10" stroke-width="0.742"/>
            <path id="Trazado_116107" data-name="Trazado 116107" d="M374.336,336.76a.984.984,0,1,1-.984-.983A.984.984,0,0,1,374.336,336.76Z" transform="translate(-359.49 -333.893)" fill="none" stroke="#fff" stroke-miterlimit="10" stroke-width="0.742"/>
            <path id="Trazado_116108" data-name="Trazado 116108" d="M382.5,336.76a.984.984,0,1,1-.983-.983A.984.984,0,0,1,382.5,336.76Z" transform="translate(-361.601 -333.893)" fill="none" stroke="#fff" stroke-miterlimit="10" stroke-width="0.742"/>
          </g>
          <g id="Grupo_54260" data-name="Grupo 54260" transform="translate(188.858 104.884)">
            <rect id="Rectángulo_29344" data-name="Rectángulo 29344" width="92.993" height="46.464" transform="translate(0 0)" fill="#fff"/>
            <line id="Línea_1590" data-name="Línea 1590" x2="86.749" transform="translate(3.122 5.736)" fill="none" stroke="#abc7ff" stroke-miterlimit="10" stroke-width="0.742"/>
            <circle id="Elipse_4069" data-name="Elipse 4069" cx="0.984" cy="0.984" r="0.984" transform="translate(6.824 1.884)" fill="none" stroke="#abc7ff" stroke-miterlimit="10" stroke-width="0.742"/>
            <circle id="Elipse_4070" data-name="Elipse 4070" cx="0.984" cy="0.984" r="0.984" transform="translate(12.879 1.884)" fill="none" stroke="#abc7ff" stroke-miterlimit="10" stroke-width="0.742"/>
            <path id="Trazado_116109" data-name="Trazado 116109" d="M382.5,189.524a.984.984,0,1,1-.983-.983A.984.984,0,0,1,382.5,189.524Z" transform="translate(-361.601 -186.657)" fill="none" stroke="#abc7ff" stroke-miterlimit="10" stroke-width="0.742"/>
            <g id="Grupo_54259" data-name="Grupo 54259" transform="translate(24.553 4.035)">
              <circle id="Elipse_4071" data-name="Elipse 4071" cx="15.516" cy="15.516" r="15.516" transform="translate(0 21.943) rotate(-45)" fill="#00223d"/>
              <path id="Trazado_116110" data-name="Trazado 116110" d="M410.736,224.113v-10.6a1.078,1.078,0,0,1,1.6-.944l9.591,5.3a1.078,1.078,0,0,1,0,1.887l-9.591,5.3A1.079,1.079,0,0,1,410.736,224.113Z" transform="translate(-393.963 -196.869)" fill="#fff"/>
            </g>
          </g>
          <g id="Grupo_54261" data-name="Grupo 54261" transform="translate(188.858 155.593)">
            <rect id="Rectángulo_29345" data-name="Rectángulo 29345" width="92.993" height="54.81" fill="#ffa726"/>
            <line id="Línea_1591" data-name="Línea 1591" x2="86.749" transform="translate(3.122 5.736)" fill="none" stroke="#fff" stroke-miterlimit="10" stroke-width="0.742"/>
            <path id="Trazado_116111" data-name="Trazado 116111" d="M366.17,257.916a.984.984,0,1,1-.984-.983A.984.984,0,0,1,366.17,257.916Z" transform="translate(-357.379 -255.049)" fill="none" stroke="#fff" stroke-miterlimit="10" stroke-width="0.742"/>
            <path id="Trazado_116112" data-name="Trazado 116112" d="M374.336,257.916a.984.984,0,1,1-.984-.983A.984.984,0,0,1,374.336,257.916Z" transform="translate(-359.49 -255.049)" fill="none" stroke="#fff" stroke-miterlimit="10" stroke-width="0.742"/>
            <path id="Trazado_116113" data-name="Trazado 116113" d="M382.5,257.916a.984.984,0,1,1-.983-.983A.984.984,0,0,1,382.5,257.916Z" transform="translate(-361.601 -255.049)" fill="none" stroke="#fff" stroke-miterlimit="10" stroke-width="0.742"/>
            <path id="Trazado_116114" data-name="Trazado 116114" d="M443.666,273.238H361.5a2.292,2.292,0,0,1-2.293-2.293h0a2.293,2.293,0,0,1,2.293-2.293h82.164a2.293,2.293,0,0,1,2.293,2.293h0A2.292,2.292,0,0,1,443.666,273.238Z" transform="translate(-356.088 -258.078)" fill="none" stroke="#fff" stroke-miterlimit="10" stroke-width="0.742"/>
            <path id="Trazado_116115" data-name="Trazado 116115" d="M443.666,285.949H361.5a2.293,2.293,0,0,1-2.293-2.293h0a2.293,2.293,0,0,1,2.293-2.293h82.164a2.293,2.293,0,0,1,2.293,2.293h0A2.293,2.293,0,0,1,443.666,285.949Z" transform="translate(-356.088 -261.365)" fill="none" stroke="#fff" stroke-miterlimit="10" stroke-width="0.742"/>
            <path id="Trazado_116116" data-name="Trazado 116116" d="M392.923,311.386H361.5a2.293,2.293,0,0,1-2.293-2.293h0A2.293,2.293,0,0,1,361.5,306.8h31.42a2.294,2.294,0,0,1,2.293,2.293h0A2.294,2.294,0,0,1,392.923,311.386Z" transform="translate(-356.088 -267.941)" fill="url(#linear-gradient)"/>
          </g>
          <g id="Grupo_54262" data-name="Grupo 54262" transform="translate(243.615 190.04)">
            <path id="Trazado_116117" data-name="Trazado 116117" d="M449.109,304.216l-20.258-.007,8.443,18.414,3.632-5.658L457.3,327.475l4.551-7.091-16.376-10.511Z" transform="translate(-428.851 -301.718)" fill="#0e2d59"/>
            <path id="Trazado_116118" data-name="Trazado 116118" d="M449.109,300.857l-20.258-.007,8.443,18.414,3.632-5.658L457.3,324.117l4.551-7.091-16.376-10.511Z" transform="translate(-428.851 -300.85)" fill="#fff"/>
          </g>
          <g id="Grupo_54272" data-name="Grupo 54272" transform="translate(87.707 160.581)">
            <rect id="Rectángulo_29347" data-name="Rectángulo 29347" width="92.993" height="44.258" fill="#fff"/>
            <line id="Línea_1603" data-name="Línea 1603" x2="86.749" transform="translate(3.122 5.736)" fill="none" stroke="#00223d" stroke-miterlimit="10" stroke-width="0.742"/>
            <circle id="Elipse_4076" data-name="Elipse 4076" cx="0.984" cy="0.984" r="0.984" transform="translate(6.824 1.884)" fill="none" stroke="#00223d" stroke-miterlimit="10" stroke-width="0.742"/>
            <path id="Trazado_116140" data-name="Trazado 116140" d="M237.913,264.643a.984.984,0,1,1-.983-.984A.983.983,0,0,1,237.913,264.643Z" transform="translate(-223.068 -261.775)" fill="none" stroke="#00223d" stroke-miterlimit="10" stroke-width="0.742"/>
            <path id="Trazado_116141" data-name="Trazado 116141" d="M246.079,264.643a.984.984,0,1,1-.984-.984A.984.984,0,0,1,246.079,264.643Z" transform="translate(-225.179 -261.775)" fill="none" stroke="#00223d" stroke-miterlimit="10" stroke-width="0.742"/>
            <g id="Grupo_54270" data-name="Grupo 54270" transform="translate(48.171 12.396)">
              <rect id="Rectángulo_29348" data-name="Rectángulo 29348" width="37.675" height="25.024" transform="translate(0)" fill="#d5f2e8"/>
              <path id="Trazado_116142" data-name="Trazado 116142" d="M283.545,277.837l14.419,14.552a6.22,6.22,0,0,0,8.837,0l14.419-14.552Z" transform="translate(-283.545 -277.837)" fill="#8ec8c8"/>
            </g>
            <g id="Grupo_54271" data-name="Grupo 54271" transform="translate(3.962 15.402)">
              <path id="Trazado_116143" data-name="Trazado 116143" d="M246.72,285.048H225.5a1.579,1.579,0,0,1-1.579-1.579h0a1.579,1.579,0,0,1,1.579-1.578H246.72a1.578,1.578,0,0,1,1.579,1.578h0A1.578,1.578,0,0,1,246.72,285.048Z" transform="translate(-223.92 -281.891)" fill="none" stroke="#00223d" stroke-miterlimit="10" stroke-width="0.742"/>
              <path id="Trazado_116144" data-name="Trazado 116144" d="M258.626,295.74H225.5a1.579,1.579,0,0,1-1.579-1.579h0a1.579,1.579,0,0,1,1.579-1.578h33.128a1.578,1.578,0,0,1,1.579,1.578h0A1.579,1.579,0,0,1,258.626,295.74Z" transform="translate(-223.92 -284.655)" fill="none" stroke="#00223d" stroke-miterlimit="10" stroke-width="0.742"/>
              <path id="Trazado_116145" data-name="Trazado 116145" d="M258.626,306.431H225.5a1.579,1.579,0,0,1-1.579-1.579h0a1.579,1.579,0,0,1,1.579-1.579h33.128a1.578,1.578,0,0,1,1.579,1.579h0A1.578,1.578,0,0,1,258.626,306.431Z" transform="translate(-223.92 -287.42)" fill="none" stroke="#00223d" stroke-miterlimit="10" stroke-width="0.742"/>
            </g>
          </g>
          <g id="Grupo_54274" data-name="Grupo 54274" transform="translate(173.448 153.328)">
            <circle id="Elipse_4077" data-name="Elipse 4077" cx="7.252" cy="7.252" r="7.252" fill="#1565c0"/>
            <g id="Grupo_54273" data-name="Grupo 54273" transform="translate(3.173 4.479)">
              <path id="Trazado_116146" data-name="Trazado 116146" d="M340.849,257.5v5.452h-1.262v-4.439H338.5V257.5Z" transform="translate(-338.496 -257.411)" fill="#fff"/>
              <path id="Trazado_116147" data-name="Trazado 116147" d="M347.974,261.9v1.028h-4.12v-.818l2.1-1.986c.483-.46.569-.74.569-1.005,0-.428-.3-.677-.873-.677a1.334,1.334,0,0,0-1.13.545l-.919-.592a2.533,2.533,0,0,1,2.165-1.012c1.215,0,2.026.623,2.026,1.612a2.176,2.176,0,0,1-.911,1.722L345.63,261.9Z" transform="translate(-339.817 -257.378)" fill="#fff"/>
            </g>
          </g>
          <g id="Grupo_54275" data-name="Grupo 54275" transform="translate(203.703 225.66)">
            <rect id="Rectángulo_29349" data-name="Rectángulo 29349" width="64.193" height="43.445" fill="#525d54"/>
            <path id="Trazado_116148" data-name="Trazado 116148" d="M420.336,361.195h29.42v-12.3H415.8Z" transform="translate(-385.564 -348.891)" fill="#69746b"/>
            <circle id="Elipse_4078" data-name="Elipse 4078" cx="7.261" cy="7.261" r="7.261" transform="translate(24.283 19.95)" fill="none" stroke="#fff" stroke-miterlimit="10" stroke-width="0.755"/>
            <path id="Trazado_116149" data-name="Trazado 116149" d="M420.831,382.729h-3.9v-3.9H414.7v3.9h-3.9v2.224h3.9v3.9h2.224v-3.9h3.9Z" transform="translate(-384.272 -356.631)" fill="#fff"/>
          </g>
        </g>
      </g>
      <g id="Grupo_889561" data-name="Grupo 889561" transform="translate(-9037.028 -5241.46)">
        <g id="freepik--Character--inject-81" transform="translate(0 89.44)">
          <path id="Trazado_143908" data-name="Trazado 143908" d="M13691.575,5017.207s12.745,17.914,15.133,18.69c8.177,2.717,17.219-16.1,17.219-16.1l-4.861,1.069-8.923,5.629-9.738-13.317-8.829,5.081" transform="translate(-13616.17 -4971.408)" fill="#a57e6d"/>
          <path id="Trazado_143909" data-name="Trazado 143909" d="M13724.987,5045.449a2.048,2.048,0,0,1-.117-.871,5.967,5.967,0,0,1,1.441-3.916,2.205,2.205,0,0,1,.657-.582,7.873,7.873,0,0,0-1.981,5.369Z" transform="translate(-13632.895 -4984.921)" fill="#755246"/>
          <path id="Trazado_143910" data-name="Trazado 143910" d="M13728.693,5258.057l1.822,8.564,6,.538,2.527-2.842-2.312-10.226Z" transform="translate(-13634.816 -5092.436)" fill="#a57e6d"/>
          <path id="Trazado_143911" data-name="Trazado 143911" d="M13655.3,5259c-.086.278,0,10.947,0,10.947l3.363,1.991,4.395-2.638.93-10.316Z" transform="translate(-13597.928 -5094.891)" fill="#a57e6d"/>
          <path id="Trazado_143912" data-name="Trazado 143912" d="M13640.815,5072.581a90.726,90.726,0,0,0-6.166,14.834c-1.852,6.673-3.618,10.485-1.713,16.477s4.449,28.7,5.7,34.689c1.029,4.937,3.313,24.264,4.975,30.39h9.342l.949-68.623s16.607,38.536,18.513,43.164,7.489,24.383,7.489,24.383l9.668-1.493s-5.856-34.172-7.628-42.343-6.808-30.355-8.848-37.322-1.832-11.759-4.728-15.137Z" transform="translate(-13586.3 -5000.758)" fill="#12263f"/>
          <path id="Trazado_143913" data-name="Trazado 143913" d="M13677.895,5076.086a.414.414,0,0,1,.184-.129.949.949,0,0,1,.624,0,.925.925,0,0,1,.611.7,1,1,0,0,1-1.583,1,.92.92,0,0,1-.362-.856.9.9,0,0,1,.268-.558c.1-.1.185-.125.194-.115a1.337,1.337,0,0,0-.278.682.741.741,0,0,0,.318.652.761.761,0,0,0,1.2-.751.737.737,0,0,0-.441-.572A1.259,1.259,0,0,0,13677.895,5076.086Z" transform="translate(-13609.029 -5002.918)" fill="#5e6178"/>
          <path id="Trazado_143914" data-name="Trazado 143914" d="M13678.33,5092.96a1.086,1.086,0,0,1-.225.065c-.154.035-.378.075-.666.109a9.211,9.211,0,0,1-2.488-.04,6.841,6.841,0,0,1-.822-.169,1.047,1.047,0,0,1-.412-.244.844.844,0,0,1-.224-.453c-.08-.642-.075-1.279-.115-1.991-.06-1.383-.119-2.9-.188-4.479-.126-3.19-.225-6.076-.284-8.166,0-1-.045-1.852-.06-2.488v-.672a.723.723,0,0,1,0-.234.861.861,0,0,1,.035.234c0,.184.035.4.055.672.035.623.08,1.458.141,2.488.1,2.09.232,4.976.357,8.161.06,1.593.119,3.11.169,4.479.035.682.024,1.369.084,1.945a.672.672,0,0,0,.5.548,6.45,6.45,0,0,0,.786.179,10.242,10.242,0,0,0,2.447.119A6.76,6.76,0,0,1,13678.33,5092.96Z" transform="translate(-13606.756 -5002.063)" fill="#5e6178"/>
          <path id="Trazado_143915" data-name="Trazado 143915" d="M13702.05,5084.061a1.505,1.505,0,0,1-.383.284,4.979,4.979,0,0,1-1.2.5,5.255,5.255,0,0,1-6.467-3.663c-.039-.138-.072-.276-.1-.417a5.032,5.032,0,0,1-.084-1.3,1.507,1.507,0,0,1,.084-.5,9.187,9.187,0,0,0,.181,1.736,5.232,5.232,0,0,0,6.245,3.974l.116-.028A9.2,9.2,0,0,0,13702.05,5084.061Z" transform="translate(-13617.292 -5004.455)" fill="#5e6178"/>
          <path id="Trazado_143916" data-name="Trazado 143916" d="M13685.95,5077.675a17.172,17.172,0,0,1-.133-4.175A16.649,16.649,0,0,1,13685.95,5077.675Z" transform="translate(-13613.244 -5001.711)" fill="#5e6178"/>
          <path id="Trazado_143917" data-name="Trazado 143917" d="M13689.361,5077.136a11.9,11.9,0,0,1,0-2.061,10.642,10.642,0,0,1,.119-2.055,6.613,6.613,0,0,1,.14,2.065A6.524,6.524,0,0,1,13689.361,5077.136Z" transform="translate(-13615.036 -5001.471)" fill="#5e6178"/>
          <path id="Trazado_143918" data-name="Trazado 143918" d="M13682.081,5079.107a1.277,1.277,0,0,1-.25.07l-.721.149c-.626.129-1.543.284-2.678.448a73.6,73.6,0,0,1-17.874.364c-1.141-.12-2.06-.239-2.692-.339l-.726-.119a.908.908,0,0,1-.254-.06.884.884,0,0,1,.259,0l.736.069c.631.07,1.557.159,2.7.253a84.735,84.735,0,0,0,17.831-.363c1.133-.14,2.055-.264,2.687-.363l.73-.1A1.493,1.493,0,0,1,13682.081,5079.107Z" transform="translate(-13598.744 -5004.527)" fill="#5e6178"/>
          <path id="Trazado_143919" data-name="Trazado 143919" d="M13650.643,5081.81a3.513,3.513,0,0,1-.717,1.125,6.926,6.926,0,0,1-5.781,2.487,3.555,3.555,0,0,1-1.311-.263c0-.045.5.069,1.318.08a7.432,7.432,0,0,0,5.634-2.434C13650.343,5082.228,13650.6,5081.81,13650.643,5081.81Z" transform="translate(-13591.684 -5005.885)" fill="#5e6178"/>
          <path id="Trazado_143920" data-name="Trazado 143920" d="M13682.982,5094.673c-.074,0-.16-2.434-.189-5.429s0-5.435.069-5.435.155,2.428.189,5.429S13683.052,5094.673,13682.982,5094.673Z" transform="translate(-13611.752 -5006.89)" fill="#5e6178"/>
          <path id="Trazado_143921" data-name="Trazado 143921" d="M13675.94,5122.364a19.611,19.611,0,0,1-.068-3.195,1.6,1.6,0,1,1,.258.005A19.792,19.792,0,0,1,13675.94,5122.364Z" transform="translate(-13608.264 -5023.052)" fill="#5e6178"/>
          <path id="Trazado_143922" data-name="Trazado 143922" d="M13696.275,5116.05a10.564,10.564,0,0,1-1.559.284c-.965.154-2.3.368-3.763.638s-2.786.552-3.741.761a11.228,11.228,0,0,1-1.558.294,8.123,8.123,0,0,1,1.493-.5c.949-.254,2.269-.562,3.737-.836s2.812-.457,3.786-.562A8.393,8.393,0,0,1,13696.275,5116.05Z" transform="translate(-13613.197 -5023.083)" fill="#5e6178"/>
          <path id="Trazado_143923" data-name="Trazado 143923" d="M13697.365,5120.522a15.75,15.75,0,0,1-1.821.06c-1.125,0-2.678.054-4.39.144s-3.26.209-4.384.3a15.257,15.257,0,0,1-1.817.124,1.522,1.522,0,0,1,.5-.11c.31-.059.762-.124,1.319-.194,1.119-.144,2.672-.3,4.388-.388s3.279-.09,4.406-.06c.566,0,1,.035,1.333.055A1.686,1.686,0,0,1,13697.365,5120.522Z" transform="translate(-13612.843 -5025.264)" fill="#5e6178"/>
          <path id="Trazado_143924" data-name="Trazado 143924" d="M13659.632,5115.032a10,10,0,0,1-1.285-.5,30.841,30.841,0,0,0-3.119-1.1,30.345,30.345,0,0,0-3.219-.737,9.6,9.6,0,0,1-1.354-.253,5.467,5.467,0,0,1,1.38.069,21.012,21.012,0,0,1,6.389,1.852A5.677,5.677,0,0,1,13659.632,5115.032Z" transform="translate(-13595.613 -5021.268)" fill="#5e6178"/>
          <path id="Trazado_143925" data-name="Trazado 143925" d="M13740.908,5272.73v.667s11.479,4.234,11.664,6.384l-22.537.532.13-7.509A12.993,12.993,0,0,0,13740.908,5272.73Z" transform="translate(-13635.492 -5101.799)" fill="#43a99b"/>
          <g id="Grupo_90184" data-name="Grupo 90184" transform="translate(96.379 173.326)" opacity="0.6">
            <path id="Trazado_143926" data-name="Trazado 143926" d="M13734.357,5277.567a.921.921,0,0,0-.613,1.065.888.888,0,0,0,1.051.617.965.965,0,0,0,.642-1.129.927.927,0,0,0-1.164-.523" transform="translate(-13733.725 -5277.543)" fill="#ffbf9d"/>
          </g>
          <g id="Grupo_90185" data-name="Grupo 90185" transform="translate(94.563 176.708)" opacity="0.6">
            <path id="Trazado_143927" data-name="Trazado 143927" d="M13730.075,5286.147l.029-1.806,21.587.149s1,.414.922,1.125Z" transform="translate(-13730.075 -5284.341)" fill="#ffbf9d"/>
          </g>
          <path id="Trazado_143928" data-name="Trazado 143928" d="M13750.04,5274.1c0,.109-.547.169-1.079.538s-.811.836-.915.8.05-.682.7-1.115S13750.065,5274,13750.04,5274.1Z" transform="translate(-13644.525 -5102.442)" fill="#344154"/>
          <path id="Trazado_143929" data-name="Trazado 143929" d="M13755.406,5276c.03.1-.441.3-.806.776s-.463.97-.572.97-.194-.622.271-1.2S13755.4,5275.883,13755.406,5276Z" transform="translate(-13647.503 -5103.419)" fill="#344154"/>
          <path id="Trazado_143930" data-name="Trazado 143930" d="M13759.571,5279.733c-.1.025-.265-.522,0-1.13s.777-.86.826-.771-.263.423-.5.925S13759.681,5279.718,13759.571,5279.733Z" transform="translate(-13650.259 -5104.354)" fill="#344154"/>
          <path id="Trazado_143931" data-name="Trazado 143931" d="M13658.321,5277.87s-5.973,4.245-8.885.567l-.755,1.787-3.4,12.694a1.7,1.7,0,0,0,.961,2.036,1.647,1.647,0,0,0,1.741-.334c2.459-2.338,11.477-11,11.385-12.176l-.033-3.116a1.584,1.584,0,0,0-1-1.458Z" transform="translate(-13592.879 -5104.381)" fill="#43a99b"/>
          <g id="Grupo_90186" data-name="Grupo 90186" transform="translate(53.653 176.977)" opacity="0.6">
            <path id="Trazado_143932" data-name="Trazado 143932" d="M13647.865,5298.56l12.838-13.68v.682a1.849,1.849,0,0,1-.606,1.493c-1.039,1.4-3.912,4.533-10.732,11.077a1.626,1.626,0,0,1-1.494.418Z" transform="translate(-13647.865 -5284.88)" fill="#ffbf9d"/>
          </g>
          <g id="Grupo_90187" data-name="Grupo 90187" transform="translate(64.201 174.806)" opacity="0.6">
            <path id="Trazado_143933" data-name="Trazado 143933" d="M13669.472,5280.663a.994.994,0,0,0-.279,1.3.967.967,0,0,0,1.29.289,1.045,1.045,0,0,0,.282-1.379,1,1,0,0,0-1.368-.149" transform="translate(-13669.061 -5280.517)" fill="#ffbf9d"/>
          </g>
          <path id="Trazado_143934" data-name="Trazado 143934" d="M13652.017,5296.432a5.013,5.013,0,0,0-1.407-1.258,5.759,5.759,0,0,0-1.847-.358c-.02-.1.189-.165.567-.219a2.6,2.6,0,0,1,1.438.264,2.482,2.482,0,0,1,1.075.995C13652.032,5296.189,13652.058,5296.418,13652.017,5296.432Z" transform="translate(-13594.663 -5112.777)" fill="#344154"/>
          <path id="Trazado_143935" data-name="Trazado 143935" d="M13649.976,5301.445c-.079.07-.592-.452-1.423-.7s-1.543-.11-1.566-.209a1.794,1.794,0,0,1,1.671-.129C13649.6,5300.7,13650.055,5301.4,13649.976,5301.445Z" transform="translate(-13593.771 -5115.646)" fill="#344154"/>
          <path id="Trazado_143936" data-name="Trazado 143936" d="M13655.059,5290.88a15.831,15.831,0,0,0-2.119-1.225,19.536,19.536,0,0,0-2.384-.562,3.516,3.516,0,0,1,2.514.233A3.628,3.628,0,0,1,13655.059,5290.88Z" transform="translate(-13595.563 -5109.957)" fill="#344154"/>
          <path id="Trazado_143937" data-name="Trazado 143937" d="M13655.943,5284.3c-.039.1-.93-.274-2.086-.323s-2.068.229-2.1.129a3.99,3.99,0,0,1,4.189.194Z" transform="translate(-13596.165 -5107.262)" fill="#344154"/>
          <path id="Trazado_143938" data-name="Trazado 143938" d="M13652.49,5281.307a1.421,1.421,0,0,1,.089-.6,4.258,4.258,0,0,1,.771-1.493,1.839,1.839,0,0,1,.95-.731.653.653,0,0,1,.706.283,1.065,1.065,0,0,1,.121.756,2.33,2.33,0,0,1-2.4,1.742,2.7,2.7,0,0,1-2.345-1.876.9.9,0,0,1,.1-.771.646.646,0,0,1,.731-.214,2.3,2.3,0,0,1,.935.736,4.637,4.637,0,0,1,.852,1.428,1.415,1.415,0,0,1,.14.592,7.526,7.526,0,0,0-1.175-1.856,2.138,2.138,0,0,0-.836-.623.354.354,0,0,0-.4.115.636.636,0,0,0-.035.5,2.407,2.407,0,0,0,2.05,1.6,1.991,1.991,0,0,0,2.061-1.448.783.783,0,0,0-.055-.532.355.355,0,0,0-.389-.16,1.671,1.671,0,0,0-.82.6A6.342,6.342,0,0,0,13652.49,5281.307Z" transform="translate(-13595.452 -5104.628)" fill="#344154"/>
          <path id="Trazado_143939" data-name="Trazado 143939" d="M13681.4,4983.138c-.937-.746-2.03-1.269-2.986-1.965a7.1,7.1,0,0,1-2.095-3.712l-7.679.672a30.2,30.2,0,0,0-1,9.31,5.893,5.893,0,0,0,1.156,3.748,6.578,6.578,0,0,0,3.981,1.611l7.006,1.12a4.273,4.273,0,0,0,2.488-.109,3.284,3.284,0,0,0,1.492-1.866A7.925,7.925,0,0,0,13681.4,4983.138Z" transform="translate(-13604.131 -4953.463)" fill="#344154"/>
          <path id="Trazado_143940" data-name="Trazado 143940" d="M13638.125,4965.784c-.408-2.274.031-4.588.24-6.862a78.292,78.292,0,0,0,0-10.132,59.22,59.22,0,0,1,.184-10.092c.443-3.27,1.492-6.385,3.27-8.141a3.918,3.918,0,0,1,6.107.3l-.7,8.619a250.477,250.477,0,0,1,.379,36.76,19.41,19.41,0,0,1-7.1.069,1.491,1.491,0,0,1-1.293-.96,5.352,5.352,0,0,1,.262-2.623,8.064,8.064,0,0,0-.373-3.553A32.293,32.293,0,0,1,13638.125,4965.784Z" transform="translate(-13589.234 -4929.237)" fill="#344154"/>
          <path id="Trazado_143941" data-name="Trazado 143941" d="M13650.684,4932.315a5.992,5.992,0,0,1,2.488-1.493,2.029,2.029,0,0,1,1.164-.075.878.878,0,0,1,.652.876l-2.3,3.254a1.583,1.583,0,0,1-1.746.08,1.629,1.629,0,0,1-.955-1.021A1.879,1.879,0,0,1,13650.684,4932.315Z" transform="translate(-13595.273 -4929.97)" fill="#5e6178"/>
          <path id="Trazado_143942" data-name="Trazado 143942" d="M13677.155,4996.9" transform="translate(-13608.926 -4963.229)" fill="#ffbe9d"/>
          <path id="Trazado_143943" data-name="Trazado 143943" d="M13667.842,4944.42a9.128,9.128,0,0,0-9.232-8.36,8.863,8.863,0,0,0-8.75,8.974c0,.118.008.237.012.356l1.7,19.9a1.726,1.726,0,0,0,.459,1.03,8.131,8.131,0,0,0,5.609,2.528,8.5,8.5,0,0,0,5.041-1.836,1.687,1.687,0,0,0,.641-1.567l-.621-5.13h0a11.805,11.805,0,0,0,1.318-.249c1.123-.458,3.855-1.314,3.98-5.822A90.642,90.642,0,0,0,13667.842,4944.42Z" transform="translate(-13595.212 -4932.665)" fill="#a57e6d"/>
          <path id="Trazado_143944" data-name="Trazado 143944" d="M13673.913,4961.259a5.335,5.335,0,0,1,1.26-.324c.2-.035.388-.089.413-.224a1.027,1.027,0,0,0-.184-.578c-.225-.462-.464-.95-.717-1.458a26.037,26.037,0,0,1-1.647-3.827,26.922,26.922,0,0,1,1.961,3.688q.356.746.691,1.493a1.142,1.142,0,0,1,.163.766.494.494,0,0,1-.309.313,1.434,1.434,0,0,1-.332.075A5.339,5.339,0,0,1,13673.913,4961.259Z" transform="translate(-13606.854 -4942.104)" fill="#344154"/>
          <path id="Trazado_143945" data-name="Trazado 143945" d="M13681.528,4957.914a.718.718,0,0,1-.648.776.7.7,0,0,1-.8-.581v-.007a.725.725,0,0,1,.646-.781.706.706,0,0,1,.807.59Z" transform="translate(-13610.393 -4943.342)" fill="#344154"/>
          <path id="Trazado_143946" data-name="Trazado 143946" d="M13680.686,4954.935c-.069.125-.7-.283-1.492-.164s-1.273.677-1.379.573,0-.264.219-.5a1.723,1.723,0,0,1,1.076-.6,1.751,1.751,0,0,1,1.209.274C13680.606,4954.681,13680.721,4954.875,13680.686,4954.935Z" transform="translate(-13609.237 -4941.791)" fill="#344154"/>
          <path id="Trazado_143947" data-name="Trazado 143947" d="M13666.686,4959.3a.717.717,0,0,1-.646.775.7.7,0,0,1-.806-.581v-.011a.715.715,0,0,1,.646-.775.706.706,0,0,1,.807.59Z" transform="translate(-13602.935 -4944.041)" fill="#344154"/>
          <path id="Trazado_143948" data-name="Trazado 143948" d="M13665.187,4956.246c-.1.119-.713-.374-1.562-.359s-1.464.5-1.559.383.044-.264.309-.5a1.975,1.975,0,0,1,2.492-.021C13665.136,4955.987,13665.23,4956.2,13665.187,4956.246Z" transform="translate(-13601.332 -4942.34)" fill="#344154"/>
          <path id="Trazado_143949" data-name="Trazado 143949" d="M13668.531,4983.343a12.841,12.841,0,0,1-7.066-1.453s1.578,3.832,7.242,2.876Z" transform="translate(-13601.044 -4955.688)" fill="#755246"/>
          <path id="Trazado_143950" data-name="Trazado 143950" d="M13672.105,4971.069a1.459,1.459,0,0,0-1.312-.423,1.318,1.318,0,0,0-.857.542.811.811,0,0,0,0,.926,1,1,0,0,0,1.057.18,2.974,2.974,0,0,0,.955-.667.863.863,0,0,0,.209-.244.259.259,0,0,0,0-.289" transform="translate(-13605.228 -4950.028)" fill="#755246"/>
          <path id="Trazado_143951" data-name="Trazado 143951" d="M13665.622,4950.9c-.062.214-.852.189-1.763.384s-1.632.5-1.771.333c-.065-.084.044-.293.322-.5a3.031,3.031,0,0,1,1.285-.582,3.14,3.14,0,0,1,1.413.03C13665.456,4950.637,13665.646,4950.791,13665.622,4950.9Z" transform="translate(-13601.349 -4939.901)" fill="#344154"/>
          <path id="Trazado_143952" data-name="Trazado 143952" d="M13680,4951.521c-.154.184-.8.03-1.588.054s-1.422.185-1.586,0c-.07-.089.025-.268.3-.448a2.809,2.809,0,0,1,2.549-.024C13679.969,4951.252,13680.068,4951.431,13680,4951.521Z" transform="translate(-13608.747 -4940.074)" fill="#344154"/>
          <path id="Trazado_143953" data-name="Trazado 143953" d="M13656.744,4933.008a2.681,2.681,0,0,0-2.179-.846c-3.534,0-7.088,2.622-8.6,5.817a11.559,11.559,0,0,0,.9,10.535l1.327.04c2.679-.557,6.121-8.738,9.3-13.436C13657.893,4934.521,13657.187,4933.555,13656.744,4933.008Z" transform="translate(-13592.813 -4930.702)" fill="#344154"/>
          <path id="Trazado_143954" data-name="Trazado 143954" d="M13675.186,4934.309c-1.687-1.438-4.328-3.1-7.16-1.518-.318.906.731,1.866,1.567,2.394,1.225.776,2.265,1.264,3.076,1.831,1.642,1.14,3.756,3.11,4.259,5.569.034.154.071,5,.219,4.951s.6-5.972.647-7.359A6.534,6.534,0,0,0,13675.186,4934.309Z" transform="translate(-13604.311 -4930.7)" fill="#344154"/>
          <path id="Trazado_143955" data-name="Trazado 143955" d="M13649.375,4961.585c-.09-.029-3.484-.83-3.181,2.558s3.634,2.4,3.629,2.3S13649.375,4961.585,13649.375,4961.585Z" transform="translate(-13593.36 -4945.436)" fill="#a57e6d"/>
          <path id="Trazado_143956" data-name="Trazado 143956" d="M13649.565,4966.4a1.273,1.273,0,0,1-.148.1.574.574,0,0,1-.443.044,1.463,1.463,0,0,1-.787-1.249,1.938,1.938,0,0,1,.1-.861.687.687,0,0,1,.408-.5.3.3,0,0,1,.358.134c.055.09.039.159.059.164s.065-.064.024-.2a.366.366,0,0,0-.149-.2.432.432,0,0,0-.332-.055.835.835,0,0,0-.573.577,1.979,1.979,0,0,0-.123.961,1.527,1.527,0,0,0,.994,1.388.622.622,0,0,0,.532-.134C13649.565,4966.48,13649.58,4966.406,13649.565,4966.4Z" transform="translate(-13594.249 -4946.584)" fill="#755246"/>
          <path id="Trazado_143957" data-name="Trazado 143957" d="M13677.2,4937.67a3.72,3.72,0,0,1-.966.254,14.057,14.057,0,0,1-4.8,0,3.422,3.422,0,0,1-.967-.244,6.763,6.763,0,0,1,1,.1,21.568,21.568,0,0,0,2.377.129,20.6,20.6,0,0,0,2.379-.159A5.737,5.737,0,0,1,13677.2,4937.67Z" transform="translate(-13605.565 -4933.474)" fill="#5e6178"/>
          <path id="Trazado_143958" data-name="Trazado 143958" d="M13681.916,4941.783a1.881,1.881,0,0,1-.711.269,5.672,5.672,0,0,1-3.607-.323,1.917,1.917,0,0,1-.65-.389,7.765,7.765,0,0,0,4.969.443Z" transform="translate(-13608.822 -4935.317)" fill="#5e6178"/>
          <path id="Trazado_143959" data-name="Trazado 143959" d="M13646.285,4940.8c0-.045.742,0,1.915-.189a14.562,14.562,0,0,0,2.025-.468,19.061,19.061,0,0,0,2.364-.946,20.992,20.992,0,0,0,2.21-1.269,19.3,19.3,0,0,0,1.663-1.259c.9-.767,1.393-1.324,1.418-1.294a2.691,2.691,0,0,1-.324.4,5.864,5.864,0,0,1-.413.447c-.17.17-.359.364-.588.558a16.1,16.1,0,0,1-1.647,1.3,18.861,18.861,0,0,1-2.225,1.3,17.463,17.463,0,0,1-2.4.94,13.336,13.336,0,0,1-2.061.433,7.174,7.174,0,0,1-.806.07,4.418,4.418,0,0,1-.612,0A2.292,2.292,0,0,1,13646.285,4940.8Z" transform="translate(-13593.419 -4932.322)" fill="#5e6178"/>
          <path id="Trazado_143960" data-name="Trazado 143960" d="M13658.813,4937.81a2.678,2.678,0,0,1-.213.5,5.059,5.059,0,0,1-.288.572c-.125.214-.249.473-.428.732a14.145,14.145,0,0,1-1.313,1.771,15.006,15.006,0,0,1-1.962,1.856,14.712,14.712,0,0,1-2.289,1.443,13.719,13.719,0,0,1-2.051.817c-.293.1-.576.154-.815.219s-.452.094-.626.124a3.362,3.362,0,0,1-.543.064c0-.044.761-.159,1.94-.552a15,15,0,0,0,1.991-.846,14.488,14.488,0,0,0,4.188-3.254,15.152,15.152,0,0,0,1.334-1.722C13658.451,4938.492,13658.774,4937.81,13658.813,4937.81Z" transform="translate(-13594.423 -4933.543)" fill="#5e6178"/>
          <path id="Trazado_143961" data-name="Trazado 143961" d="M13664.135,4932.1a1.3,1.3,0,0,1,.683-.04,2.96,2.96,0,0,1,1.492.7,2.481,2.481,0,0,1,.329.354,2.019,2.019,0,0,1,.219.388,4.839,4.839,0,0,1,.278.687,1.006,1.006,0,0,1,.036.682c-.036,0-.026-.259-.175-.632a6.874,6.874,0,0,0-.314-.647,1.885,1.885,0,0,0-.209-.354,2.6,2.6,0,0,0-.3-.318,3.193,3.193,0,0,0-1.383-.706C13664.395,4932.122,13664.14,4932.136,13664.135,4932.1Z" transform="translate(-13602.385 -4930.642)" fill="#5e6178"/>
          <path id="Trazado_143962" data-name="Trazado 143962" d="M13646.019,4947.746a.594.594,0,0,0-.051-.174c-.034-.115-.094-.274-.158-.5a15.345,15.345,0,0,1-.5-1.816,13.03,13.03,0,0,1-.254-2.767,10.971,10.971,0,0,1,.566-3.339,8.657,8.657,0,0,1,.747-1.587,9.324,9.324,0,0,1,1-1.309,11.228,11.228,0,0,1,2.1-1.806,16.184,16.184,0,0,1,1.616-.956l.458-.233a.691.691,0,0,0,.156-.09l-.166.06c-.109.049-.272.109-.473.209a13.416,13.416,0,0,0-1.651.916,11.123,11.123,0,0,0-2.155,1.8,9.312,9.312,0,0,0-1,1.329,8.373,8.373,0,0,0-.766,1.617,10.781,10.781,0,0,0-.562,3.389,12.616,12.616,0,0,0,.288,2.788,12.806,12.806,0,0,0,.528,1.816c.074.213.148.368.188.5A1.076,1.076,0,0,0,13646.019,4947.746Z" transform="translate(-13592.739 -4931.213)" fill="#5e6178"/>
          <path id="Trazado_143963" data-name="Trazado 143963" d="M13672.07,4971.793c0-.1-.771-.214-1.661-.612s-1.523-1-1.574-.9a3.037,3.037,0,0,0,1.493,1.224A2.561,2.561,0,0,0,13672.07,4971.793Z" transform="translate(-13604.747 -4949.851)" fill="#344154"/>
          <path id="Trazado_143964" data-name="Trazado 143964" d="M13663.6,4990.707l-4.868-.577-11.509,1.488-5.878,3.273,10.212,4.3,7.43-1.521Z" transform="translate(-13590.936 -4959.828)" fill="#a57e6d"/>
          <path id="Trazado_143965" data-name="Trazado 143965" d="M13639.146,4992.9l-8.152,3.324,1.827,15.65s3.03-1.085,4.657,6.822a73.116,73.116,0,0,1,1.652,12.968l29.648-1.055s-1.08-18.954-1.622-23.18l-1.99-16.137-7.647-1.279S13650.147,5002.46,13639.146,4992.9Z" transform="translate(-13585.735 -4959.768)" fill="#43a99b"/>
          <path id="Trazado_143966" data-name="Trazado 143966" d="M13697.3,4992.578s3.611-.259,6.469,4.737c2.17,3.8,2.936,5.27,2.936,5.27l-8.4,4.907-3.359-9.171Z" transform="translate(-13617.864 -4961.056)" fill="#43a99b"/>
          <path id="Trazado_143967" data-name="Trazado 143967" d="M13622.345,5002.38a18.289,18.289,0,0,0-4.977,4.225,54.228,54.228,0,0,0-3.792,6.757l9.953,5.534,1.493-2.842Z" transform="translate(-13576.986 -4965.982)" fill="#43a99b"/>
          <path id="Trazado_143968" data-name="Trazado 143968" d="M13635.381,5017.018c-.045,0,.215-.682.442-1.8a13.262,13.262,0,0,0,.265-1.991,15.191,15.191,0,0,0-.061-2.449,15.95,15.95,0,0,0-.5-2.4,13.418,13.418,0,0,0-.7-1.876c-.5-1.036-.875-1.628-.835-1.652a1.836,1.836,0,0,1,.308.393,9,9,0,0,1,.691,1.179,12.312,12.312,0,0,1,.767,1.886,13.987,13.987,0,0,1,.5,2.443,13.584,13.584,0,0,1,.045,2.489,11.827,11.827,0,0,1-.323,1.99,9.21,9.21,0,0,1-.408,1.3A1.654,1.654,0,0,1,13635.381,5017.018Z" transform="translate(-13587.242 -4967.223)" fill="#344154"/>
          <path id="Trazado_143969" data-name="Trazado 143969" d="M13697.956,5001.355a33.806,33.806,0,0,0-1.133-3.319q-.773-1.58-1.7-3.076a3.456,3.456,0,0,1,.687.787,12.161,12.161,0,0,1,2.025,4.573A3.113,3.113,0,0,1,13697.956,5001.355Z" transform="translate(-13617.954 -4962.254)" fill="#344154"/>
          <path id="Trazado_143970" data-name="Trazado 143970" d="M13667.346,4990.06a1,1,0,0,1-.08.254c-.069.159-.149.4-.3.7a11.9,11.9,0,0,1-1.493,2.358,13.149,13.149,0,0,1-3.05,2.792,12.892,12.892,0,0,1-13.6.324,11.994,11.994,0,0,1-2.234-1.668c-.244-.219-.408-.417-.527-.542s-.175-.2-.164-.2.27.244.762.672a13.149,13.149,0,0,0,2.253,1.582,13.388,13.388,0,0,0,3.813,1.424,12.5,12.5,0,0,0,9.56-1.787,13.425,13.425,0,0,0,3.04-2.708,13.171,13.171,0,0,0,1.533-2.289C13667.176,4990.389,13667.346,4990.055,13667.346,4990.06Z" transform="translate(-13593.225 -4959.792)" fill="#344154"/>
          <path id="Trazado_143971" data-name="Trazado 143971" d="M13651.372,4999.12a78.733,78.733,0,0,1-3.3-16.317c-.333-3.906-1.354-7.056-1.493-10.9l-2.224,3.937a107.234,107.234,0,0,0-2.433,15.038c-.146,1.587-.2,3.359.834,4.574.831.995,2.265,1.447,2.723,2.642.5,1.294-.229,3.205,1,3.852a1.62,1.62,0,0,0,1.855-.463,4.757,4.757,0,0,0,.9-1.826c.116,1,1.28,2.05,2.036,1.378C13651.734,5000.578,13651.576,4999.767,13651.372,4999.12Z" transform="translate(-13591.185 -4950.67)" fill="#344154"/>
          <path id="Trazado_143972" data-name="Trazado 143972" d="M13540.652,5042.91h0a8.048,8.048,0,0,0,10.5,4.38c.223-.091.441-.193.654-.3l110.9-57.834,14.161-20.522-24.348,3.718-108.348,60.481A8.045,8.045,0,0,0,13540.652,5042.91Z" transform="translate(-13540.048 -4949.027)" fill="#f6f6f6"/>
          <path id="Trazado_143973" data-name="Trazado 143973" d="M13544.173,5097.64a8.046,8.046,0,0,0-3.521,10.082h0a8.047,8.047,0,0,0,10.5,4.379c.223-.091.441-.193.654-.3Z" transform="translate(-13540.048 -5013.838)" fill="#344154"/>
          <g id="Grupo_90188" data-name="Grupo 90188" transform="translate(4.125 23.32)" opacity="0.4">
            <path id="Trazado_143974" data-name="Trazado 143974" d="M13656.678,4976.1l-108.344,60.481,1.3,2.419,108.771-59.671Z" transform="translate(-13548.334 -4976.1)" fill="#344154"/>
          </g>
          <g id="Grupo_90189" data-name="Grupo 90189" transform="translate(10.509 36.856)" opacity="0.4">
            <path id="Trazado_143975" data-name="Trazado 143975" d="M13671.409,5003.3l-110.245,58.779,1.255,2.324,110.9-57.834Z" transform="translate(-13561.164 -5003.3)" fill="#344154"/>
          </g>
          <g id="Grupo_90190" data-name="Grupo 90190" transform="translate(7.27 29.829)" opacity="0.4">
            <path id="Trazado_143976" data-name="Trazado 143976" d="M13663.761,4989.18l-109.106,59.795,1.737,3.225,109.225-59.69Z" transform="translate(-13554.654 -4989.18)" fill="#344154"/>
          </g>
          <g id="Grupo_90191" data-name="Grupo 90191" transform="translate(112.468 21.046)" opacity="0.4">
            <path id="Trazado_143977" data-name="Trazado 143977" d="M13776.246,4990.608l-10.189-16.805,14.9-2.274,4.584,5.6Z" transform="translate(-13766.057 -4971.529)" fill="#ffbf9d"/>
          </g>
          <path id="Trazado_143978" data-name="Trazado 143978" d="M13747.165,5016.291l1.991-2.1s-.234-4.782.582-5.972l.423-.706s-.423-2.325.826-2.861c.353-.881.812-1.239,1.433-.747,0,0-.349-1.751,1.284-1.991s2.1,7.176,2.1,7.176.817,3.324-1.05,3.324a4.208,4.208,0,0,1-2.219,1.284s-.348,1.99-1.99,1.866Z" transform="translate(-13644.098 -4965.745)" fill="#a57e6d"/>
          <path id="Trazado_143979" data-name="Trazado 143979" d="M13752.074,5023.88a.616.616,0,0,1,.184.239,1.313,1.313,0,0,1,.094.821,1.824,1.824,0,0,1-.611,1.061,3.687,3.687,0,0,1-1.3.711,9.185,9.185,0,0,1-2.6.5,3.157,3.157,0,0,1-1.1-.059,16.521,16.521,0,0,0,3.608-.7,3.728,3.728,0,0,0,1.229-.646,1.717,1.717,0,0,0,.592-.921A1.666,1.666,0,0,0,13752.074,5023.88Z" transform="translate(-13643.886 -4976.783)" fill="#755246"/>
          <path id="Trazado_143980" data-name="Trazado 143980" d="M13759.073,5012.059c-.081,0-.086-1.493-.438-3.274s-.911-3.165-.837-3.195a3.048,3.048,0,0,1,.434.876,13.373,13.373,0,0,1,.657,2.269,14.25,14.25,0,0,1,.253,2.349A3,3,0,0,1,13759.073,5012.059Z" transform="translate(-13649.436 -4967.594)" fill="#755246"/>
          <path id="Trazado_143981" data-name="Trazado 143981" d="M13756.173,5013.8c-.075,0-.213-1.449-.588-3.2s-.825-3.145-.757-3.17a11.207,11.207,0,0,1,1,3.116A11.416,11.416,0,0,1,13756.173,5013.8Z" transform="translate(-13647.943 -4968.519)" fill="#755246"/>
          <path id="Trazado_143982" data-name="Trazado 143982" d="M13762.285,5020.118c.059-.04.3.418.145,1s-.6.855-.629.791a8.1,8.1,0,0,0,.38-.856C13762.3,5020.56,13762.216,5020.143,13762.285,5020.118Z" transform="translate(-13651.448 -4974.892)" fill="#755246"/>
          <path id="Trazado_143983" data-name="Trazado 143983" d="M13753.372,5017.138a9.766,9.766,0,0,1-.155-1.817,10.406,10.406,0,0,1-.074-1.821,4.842,4.842,0,0,1,.334,1.807A5,5,0,0,1,13753.372,5017.138Z" transform="translate(-13647.094 -4971.569)" fill="#755246"/>
          <path id="Trazado_143984" data-name="Trazado 143984" d="M13605.479,5024.45s-6.583,13.879-7.578,15.949-2.6,5.9,0,8.041,20.736,2.279,20.736,2.279l.9-7.311-11.942-2.89,7.016-10.535Z" transform="translate(-13568.401 -4977.07)" fill="#a57e6d"/>
          <path id="Trazado_143985" data-name="Trazado 143985" d="M13642.813,5057.544a6,6,0,0,1,1.573-2.07c1.14-.995,3.647-1.761,3.982-2.711s1.272-.209,1.049.97a12.024,12.024,0,0,1-1.692,2.732,4.807,4.807,0,0,0,3.035-.244c1.215-.7,5.476-1.956,5.911-1.358s-.6.891-1.073,1.165c-.363.2-3.186,1.6-3.186,1.6s5.613-.189,6.32.08,0,.965-.374,1a9.18,9.18,0,0,0-1.864,1.493,2.549,2.549,0,0,1-1.7.686h-1.3l3.981.418s.681.627-.269.956c-.428.144-12.441,1.876-13.378,1.931-1.61.095-4.159.5-4.159.5l.647-7.464Z" transform="translate(-13590.091 -4991.076)" fill="#a57e6d"/>
          <path id="Trazado_143986" data-name="Trazado 143986" d="M13671.868,5065.191a8.539,8.539,0,0,1-2.686.8,8.73,8.73,0,0,1-2.788.165c0-.074,1.24-.149,2.742-.418S13671.844,5065.121,13671.868,5065.191Z" transform="translate(-13603.521 -4997.532)" fill="#755246"/>
        </g>
        <g id="freepik--speech-bubble--inject-81" transform="translate(338.411 38.018)">
          <path id="Trazado_143987" data-name="Trazado 143987" d="M13703.066,4934.354l3.124-5.514a14.778,14.778,0,1,1,3.538,3.937h0Z" transform="translate(-13703.066 -4906.3)" fill="url(#linear-gradient-2)"/>
          <path id="Trazado_143988" data-name="Trazado 143988" d="M13703.066,4934.348l6.683-1.493h.09l-.055-.075h0l-.086.08a14.77,14.77,0,0,0,7.086,2.986,13.4,13.4,0,0,0,2.34.12c.4,0,.812-.03,1.229-.065l1.244-.189a14.81,14.81,0,0,0,11.764-17.329c-.059-.3-.123-.592-.2-.884a14.515,14.515,0,0,0-3.169-6.082,14.849,14.849,0,0,0-5.693-4.065,15.109,15.109,0,0,0-6.627-1.02,14.534,14.534,0,0,0-6.082,1.8,15,15,0,0,0-7.012,8.633,15.948,15.948,0,0,0-.642,4.808,14.7,14.7,0,0,0,2.215,7.325v-.06l-3.076,5.543,3.175-5.474v-.059a14.691,14.691,0,0,1-2.144-7.271,15.87,15.87,0,0,1,.657-4.747,14.82,14.82,0,0,1,6.925-8.544,14.4,14.4,0,0,1,5.973-1.757,14.85,14.85,0,0,1,6.523,1,14.614,14.614,0,0,1,5.6,3.981,14.28,14.28,0,0,1,3.12,5.971,14.925,14.925,0,0,1,.181,6.469,14.746,14.746,0,0,1-11.551,11.5l-1.229.189c-.409.035-.817.045-1.214.07a12.56,12.56,0,0,1-2.311-.11,14.675,14.675,0,0,1-7.035-2.916l-.368-.284.284.363h0l.033-.094Z" transform="translate(-13703.066 -4906.294)" fill="#344154"/>
          <path id="Trazado_143989" data-name="Trazado 143989" d="M13719.744,4931.716l2.065-2.065,3.981,3.538,7.816-7.519,1.918,2.06-10.028,9.439Z" transform="translate(-13711.444 -4916.028)" fill="#12263f"/>
        </g>
      </g>
    </g>
    <rect id="Rectángulo_300211" data-name="Rectángulo 300211" width="429" height="298" transform="translate(-9068 -5250)" fill="none"/>
  </g>
</svg>
