<svg xmlns="http://www.w3.org/2000/svg" xmlns:xlink="http://www.w3.org/1999/xlink" width="388.37" height="265.149" viewBox="0 0 388.37 265.149">
  <defs>
    <linearGradient id="linear-gradient" x1="0.5" x2="0.5" y2="1" gradientUnits="objectBoundingBox">
      <stop offset="0" stop-color="#fff"/>
      <stop offset="1" stop-color="#f1f7fa"/>
    </linearGradient>
    <linearGradient id="linear-gradient-2" x1="0.5" x2="0.5" y2="1" gradientUnits="objectBoundingBox">
      <stop offset="0" stop-color="#fff"/>
      <stop offset="1" stop-color="#d3d3d3"/>
    </linearGradient>
  </defs>
  <g id="Grupo_46795" data-name="Grupo 46795" transform="translate(-343.613 -798.768)">
    <g id="Grupo_46739" data-name="Grupo 46739" transform="translate(343.613 802.546)">
      <g id="Grupo_46726" data-name="Grupo 46726" transform="translate(49.842 79.432)">
        <path id="Trazado_97178" data-name="Trazado 97178" d="M728.462,1473.615h40.229a9.016,9.016,0,0,1,9.017,9.016v18.754a9.016,9.016,0,0,1-9.017,9.016h-.3l3.229,10.817a.513.513,0,0,1-.8.554L755.913,1510.4H728.462a9.016,9.016,0,0,1-9.017-9.016v-18.754A9.016,9.016,0,0,1,728.462,1473.615Z" transform="translate(-719.445 -1473.615)" fill="#f1f1f1"/>
        <path id="Trazado_97179" data-name="Trazado 97179" d="M798.736,1522.761H760.112a4.463,4.463,0,0,1-4.463-4.464h0a4.463,4.463,0,0,1,4.463-4.462h38.624a4.463,4.463,0,0,1,4.463,4.462h0A4.463,4.463,0,0,1,798.736,1522.761Z" transform="translate(-749.508 -1507.013)" fill="#00223d" opacity="0.25"/>
        <path id="Trazado_97180" data-name="Trazado 97180" d="M798.736,1603.12H760.112a4.463,4.463,0,0,1-4.463-4.463h0a4.463,4.463,0,0,1,4.463-4.463h38.624a4.463,4.463,0,0,1,4.463,4.463h0A4.463,4.463,0,0,1,798.736,1603.12Z" transform="translate(-749.508 -1573.743)" fill="#00223d" opacity="0.25"/>
      </g>
      <g id="Grupo_46727" data-name="Grupo 46727" transform="translate(251.35 28.81)">
        <path id="Trazado_97181" data-name="Trazado 97181" d="M1961.223,1175.156H1917.35a9.833,9.833,0,0,0-9.833,9.833v20.452a9.833,9.833,0,0,0,9.833,9.833h.325l-3.521,11.8a.559.559,0,0,0,.875.6l16.256-12.4h29.938a9.833,9.833,0,0,0,9.833-9.833v-20.452A9.833,9.833,0,0,0,1961.223,1175.156Z" transform="translate(-1907.517 -1175.156)" fill="#f1f1f1"/>
        <rect id="Rectángulo_28254" data-name="Rectángulo 28254" width="52.108" height="8.926" rx="4.463" transform="translate(5.195 8.36)" fill="#00223d" opacity="0.25"/>
        <path id="Rectángulo_28255" data-name="Rectángulo 28255" d="M4.463,0H25.148a4.463,4.463,0,0,1,4.463,4.463v0a4.463,4.463,0,0,1-4.463,4.463H4.463A4.463,4.463,0,0,1,0,4.463v0A4.463,4.463,0,0,1,4.463,0Z" transform="translate(6.625 21.855)" fill="#00223d" opacity="0.25"/>
      </g>
      <g id="Grupo_46728" data-name="Grupo 46728" transform="translate(10.948 178.461)">
        <path id="Trazado_97182" data-name="Trazado 97182" d="M491.457,2059.365a9.653,9.653,0,0,1,5.987-1.885c5.026,0,7.687,2.735,7.687,6.579,0,2.217-1.072,4.471-3.252,6.726-2.772,2.918-4.767,4.36-6.024,4.36a2.082,2.082,0,0,1-2.106-2.106c0-1.034.961-2.069,2.624-3.584a1.585,1.585,0,0,1,.3-.259c1.885-1.737,2.476-2.7,2.476-3.881a2.195,2.195,0,0,0-2.439-2.291,7.94,7.94,0,0,0-2.365.443,7.622,7.622,0,0,1-2,.444,2.305,2.305,0,0,1-2.217-2.366A2.8,2.8,0,0,1,491.457,2059.365Zm5.063,24.65a3.671,3.671,0,0,1-3.769-3.77,3.614,3.614,0,0,1,3.769-3.474,3.542,3.542,0,0,1,3.474,3.474A3.588,3.588,0,0,1,496.52,2084.016Z" transform="translate(-490.127 -2057.481)" fill="#26aab7"/>
      </g>
      <g id="Grupo_46729" data-name="Grupo 46729" transform="translate(313.322 96.178)">
        <path id="Trazado_97183" data-name="Trazado 97183" d="M2273.775,1573.587a6.344,6.344,0,0,1,3.937-1.239c3.3,0,5.056,1.8,5.056,4.326a6.471,6.471,0,0,1-2.139,4.424c-1.823,1.92-3.136,2.868-3.962,2.868a1.37,1.37,0,0,1-1.385-1.385c0-.681.632-1.361,1.726-2.358a1.133,1.133,0,0,1,.194-.17c1.24-1.142,1.629-1.774,1.629-2.551a1.444,1.444,0,0,0-1.6-1.507,5.214,5.214,0,0,0-1.556.292,4.994,4.994,0,0,1-1.312.291,1.515,1.515,0,0,1-1.458-1.555A1.838,1.838,0,0,1,2273.775,1573.587Zm3.33,16.211a2.414,2.414,0,0,1-2.479-2.479,2.377,2.377,0,0,1,2.479-2.284,2.329,2.329,0,0,1,2.284,2.284A2.36,2.36,0,0,1,2277.1,1589.8Z" transform="translate(-2272.9 -1572.348)" fill="#3c4973"/>
      </g>
      <g id="Grupo_46735" data-name="Grupo 46735" transform="translate(339.273 144.563)">
        <g id="Grupo_46730" data-name="Grupo 46730">
          <path id="Trazado_97184" data-name="Trazado 97184" d="M2473.521,1900.3h-46.143a1.477,1.477,0,0,1-1.477-1.477V1859.1a1.477,1.477,0,1,1,2.954,0v38.242h44.666a1.477,1.477,0,1,1,0,2.954Z" transform="translate(-2425.901 -1857.623)" fill="#3c4973"/>
        </g>
        <g id="Grupo_46734" data-name="Grupo 46734" transform="translate(3.493 6.371)">
          <g id="Grupo_46731" data-name="Grupo 46731" transform="translate(0 3.87)">
            <path id="Trazado_97185" data-name="Trazado 97185" d="M2447.972,1940.728a1.477,1.477,0,0,1-1.062-2.5l14.914-15.427a1.476,1.476,0,0,1,1.865-.213l7.052,4.574,7.437-8.641a1.477,1.477,0,1,1,2.239,1.927l-8.277,9.619a1.478,1.478,0,0,1-1.924.275l-7.113-4.615-14.067,14.553A1.474,1.474,0,0,1,2447.972,1940.728Z" transform="translate(-2446.495 -1918.005)" fill="#f5ca56"/>
          </g>
          <g id="Grupo_46733" data-name="Grupo 46733" transform="translate(27.321)">
            <g id="Grupo_46732" data-name="Grupo 46732">
              <path id="Trazado_97186" data-name="Trazado 97186" d="M2614.212,1905.9l-2.1-4.263-4.529-1.445,10.083-5.008Z" transform="translate(-2607.578 -1895.188)" fill="#f5ca56"/>
            </g>
          </g>
        </g>
      </g>
      <g id="Grupo_46736" data-name="Grupo 46736" transform="translate(67.954 25.323)">
        <path id="Trazado_97187" data-name="Trazado 97187" d="M835.17,1172.47a8.938,8.938,0,1,1,8.938-8.938A8.948,8.948,0,0,1,835.17,1172.47Zm0-15.415a6.477,6.477,0,1,0,6.477,6.477A6.484,6.484,0,0,0,835.17,1157.055Z" transform="translate(-826.232 -1154.593)" fill="#00223d"/>
      </g>
      <g id="Grupo_46737" data-name="Grupo 46737" transform="translate(343.041 101.248)">
        <path id="Trazado_97188" data-name="Trazado 97188" d="M2454.669,1615.334a6.547,6.547,0,1,1,6.548-6.547A6.554,6.554,0,0,1,2454.669,1615.334Zm0-11.291a4.744,4.744,0,1,0,4.744,4.744A4.749,4.749,0,0,0,2454.669,1604.043Z" transform="translate(-2448.122 -1602.24)" fill="#ebf3fa" opacity="0.25"/>
      </g>
      <g id="Grupo_46738" data-name="Grupo 46738" transform="translate(0 138.475)">
        <path id="Trazado_97189" data-name="Trazado 97189" d="M431.46,1833.487a5.879,5.879,0,1,1,5.878-5.879A5.886,5.886,0,0,1,431.46,1833.487Zm0-10.138a4.26,4.26,0,1,0,4.259,4.259A4.264,4.264,0,0,0,431.46,1823.349Z" transform="translate(-425.581 -1821.73)" fill="#7d6eb2"/>
      </g>
      <path id="Trazado_97190" data-name="Trazado 97190" d="M2286.869,1090.615a3.2,3.2,0,1,1-3.2-3.2A3.2,3.2,0,0,1,2286.869,1090.615Z" transform="translate(-1965.865 -1073.488)" fill="#fff"/>
      <circle id="Elipse_3864" data-name="Elipse 3864" cx="6.289" cy="6.289" r="6.289" transform="translate(25.491 76.342) rotate(-45)" fill="#ebf3fa" opacity="0.25"/>
      <path id="Trazado_97191" data-name="Trazado 97191" d="M2384.569,1010.02a4.728,4.728,0,1,1-4.728-4.728A4.728,4.728,0,0,1,2384.569,1010.02Z" transform="translate(-2044.456 -1005.292)" fill="#ebf3fa" opacity="0.25"/>
      <path id="Trazado_97192" data-name="Trazado 97192" d="M2527.749,1682.7a4.036,4.036,0,1,1-4.036-4.036A4.036,4.036,0,0,1,2527.749,1682.7Z" transform="translate(-2164.5 -1564.457)" fill="#ebf3fa" opacity="0.25"/>
      <path id="Trazado_97193" data-name="Trazado 97193" d="M2312.052,1152.665a5.031,5.031,0,1,1-5.031-5.031A5.03,5.03,0,0,1,2312.052,1152.665Z" transform="translate(-1983.733 -1123.491)" fill="#fff"/>
      <circle id="Elipse_3865" data-name="Elipse 3865" cx="5.103" cy="5.103" r="5.103" transform="translate(85.161 17.275) rotate(-22.5)" fill="#00223d"/>
    </g>
    <path id="Trazado_97194" data-name="Trazado 97194" d="M932.343,2528.841H630.279a1.785,1.785,0,0,1-1.784-1.785h0a1.784,1.784,0,0,1,1.784-1.784H932.343a1.784,1.784,0,0,1,1.785,1.784h0A1.785,1.785,0,0,1,932.343,2528.841Z" transform="translate(-250.466 -1464.924)" fill="url(#linear-gradient)"/>
    <g id="Grupo_46788" data-name="Grupo 46788" transform="translate(361.912 873.616)">
      <g id="Grupo_46746" data-name="Grupo 46746" transform="translate(100.605 8.576)">
        <path id="v-2" d="M1201.248,1625.025h.005l4.636.017,1.05,10.951-5.412,2.857-5.772-2.825.933-10.983Z" transform="translate(-1184.031 -1599.559)" fill="#e49963"/>
        <g id="Grupo_46745" data-name="Grupo 46745">
          <path id="Trazado_97195" data-name="Trazado 97195" d="M1146.948,1510.384c2.854,7.131,9.707,11.095,15.308,8.853s7.827-9.839,4.973-16.969-9.707-11.1-15.308-8.854S1144.094,1503.253,1146.948,1510.384Z" transform="translate(-1142.47 -1489.75)" fill="#e49963"/>
          <path id="Trazado_97196" data-name="Trazado 97196" d="M1257.331,1554.407a1.049,1.049,0,1,0,.262-1.46A1.049,1.049,0,0,0,1257.331,1554.407Z" transform="translate(-1235.006 -1539.549)"/>
          <path id="Trazado_97197" data-name="Trazado 97197" d="M1210.927,1572.649a1.135,1.135,0,1,0,.283-1.581A1.135,1.135,0,0,0,1210.927,1572.649Z" transform="translate(-1196.46 -1554.585)"/>
          <path id="Trazado_97198" data-name="Trazado 97198" d="M1248.857,1572.347c1.418,1.118,3.192,2.468,3.192,2.468a2.753,2.753,0,0,1-1.98,2.451c.723-.656,1.358-1.528.605-2.536S1248.857,1572.347,1248.857,1572.347Z" transform="translate(-1228.126 -1555.816)" fill="#d68d5d"/>
          <g id="Grupo_46740" data-name="Grupo 46740" transform="translate(11.875 14.507)">
            <path id="Trazado_97199" data-name="Trazado 97199" d="M1197.169,1563.284a.523.523,0,0,1-.51-.645,2.791,2.791,0,0,1,2.548-2.229.523.523,0,1,1,0,1.047c-1.182.006-1.531,1.411-1.535,1.426A.523.523,0,0,1,1197.169,1563.284Z" transform="translate(-1196.645 -1560.41)" fill="#201d40"/>
          </g>
          <g id="Grupo_46741" data-name="Grupo 46741" transform="translate(20.79 10.991)">
            <path id="Trazado_97200" data-name="Trazado 97200" d="M1249.639,1541.33a.442.442,0,0,1-.22-.06.437.437,0,0,1-.156-.6,2.155,2.155,0,0,1,1.344-.961,2.237,2.237,0,0,1,1.818.576.436.436,0,1,1-.545.682,1.418,1.418,0,0,0-1.114-.4,1.262,1.262,0,0,0-.75.544A.436.436,0,0,1,1249.639,1541.33Z" transform="translate(-1249.203 -1539.683)" fill="#201d40"/>
          </g>
          <path id="Trazado_97201" data-name="Trazado 97201" d="M1127.21,1490.187c-2.414-6.871,3.466-10.822,3.466-10.822s-1.577-.141-1.766-2.356a5.828,5.828,0,0,0,3.667-.079c7.837-2.837,13.233-2.8,13.233.554,0,1.193,5.175.376,4.742,8.4.03-.567-1.819-3.867-3.567-4.2s-.17,2.007-3.822,2.508c-3.685.506-6.395-.388-8.646,1.689-1.761,1.813-2.2,11.036-1.93,11.591C1131.974,1496.206,1128.271,1493.207,1127.21,1490.187Z" transform="translate(-1126.629 -1474.88)" fill="#3c4973"/>
          <path id="Trazado_97202" data-name="Trazado 97202" d="M1181.617,1572.347s.333,4.184-.27,5.478c-.628-1.678-1.976.1-3.242.268-3.06.4-8.579-.616-9.126,3.973-3.739,1.183-7.242-6.82-7.242-6.82-.214,8.941,6.329,14.019,15.745,12.531C1183.685,1586.8,1184.26,1578.16,1181.617,1572.347Z" transform="translate(-1155.778 -1555.816)" fill="#3c4973"/>
          <g id="Grupo_46742" data-name="Grupo 46742" transform="translate(17.316 22.628)">
            <path id="Trazado_97203" data-name="Trazado 97203" d="M1230.8,1610.768a7.954,7.954,0,0,1-1.889-.741.349.349,0,0,1,.329-.616,5.054,5.054,0,0,0,3.86.655,3.644,3.644,0,0,0,2.009-1.59.349.349,0,0,1,.618.324,4.293,4.293,0,0,1-2.411,1.93A4.72,4.72,0,0,1,1230.8,1610.768Z" transform="translate(-1228.725 -1608.291)" fill="#d68d5d"/>
          </g>
          <g id="Grupo_46744" data-name="Grupo 46744" transform="translate(1.421 18.993)">
            <path id="Trazado_97204" data-name="Trazado 97204" d="M1139.458,1587.355a2.73,2.73,0,1,1-4.162.732A3.018,3.018,0,0,1,1139.458,1587.355Z" transform="translate(-1135.008 -1586.858)" fill="#e49963"/>
            <g id="Grupo_46743" data-name="Grupo 46743" transform="translate(1.756 1.458)">
              <path id="Trazado_97205" data-name="Trazado 97205" d="M1147.815,1598.352a.4.4,0,0,0,.12-.136,1.785,1.785,0,0,0-.19-2.185,1.9,1.9,0,0,0-2.168-.4.395.395,0,0,0,.356.7,1.126,1.126,0,0,1,1.246.244,1.011,1.011,0,0,1,.06,1.258.4.4,0,0,0,.575.511Z" transform="translate(-1145.361 -1595.453)" fill="#d68d5d"/>
            </g>
          </g>
        </g>
      </g>
      <path id="Trazado_97206" data-name="Trazado 97206" d="M1236.547,2472.7a4.283,4.283,0,0,1,3.1-2.978c4.1,5.656,14.167,2.185,13.834,9.836-15.31-.1-21.673,0-21.673,0a56.1,56.1,0,0,1,.676-7.561l.8.146Z" transform="translate(-1113.36 -2292.415)"/>
      <path id="Trazado_97207" data-name="Trazado 97207" d="M1101.493,2473.578a4.282,4.282,0,0,1,3.1-2.978c4.1,5.657,14.167,2.185,13.834,9.835-15.31-.1-21.672,0-21.672,0a56.175,56.175,0,0,1,.676-7.56l.8.146Z" transform="translate(-1001.214 -2293.142)"/>
      <path id="Trazado_97208" data-name="Trazado 97208" d="M1223.1,1960.59s2.486,36.253,1.476,44.313-4.586,18.393-4.181,45.053c-4.991,1.249-12.221,0-12.221,0s-1.072-30.145,4.2-43.61c-2.145-13.078-9.03-43.033-9.03-43.033Z" transform="translate(-1089.734 -1869.634)" fill="#213755"/>
      <path id="Trazado_97209" data-name="Trazado 97209" d="M1121.747,1966.432s-5.019,40.7-7.476,48.421-7.249,14.246-11.7,40.51c-5.129.257-9.9,0-9.9,0s.692-33.313,8.68-40.889c.27-13.263-1.292-47.78-1.292-47.78Z" transform="translate(-997.824 -1874.484)" fill="#344966"/>
      <g id="v" transform="translate(99.634 43.736)">
        <path id="h-5" d="M1122.056,1684.2s8.718-3.052,11.625-1.652c9.033,4.349,11.1,0,11.1,0,2.886.249,11.6,1.652,11.6,1.652,0,9.73.65,19.494.473,26.858-.125,6.412,1.1,23.863,1.1,23.863a88.067,88.067,0,0,1-18.7,2.585,85.548,85.548,0,0,1-18.346-2.483s.485-17.674.889-24.244C1121.663,1703.418,1122.056,1693.907,1122.056,1684.2Z" transform="translate(-1120.905 -1682.183)" fill="#26aab7"/>
      </g>
      <g id="c" transform="translate(132.636 45.756)">
        <path id="c-2" data-name="c" d="M1333.455,1708.551c-3.6-8.585-14.276-14.045-15.5-14.462l-2.476,11.021a64.5,64.5,0,0,1,8.853,6.315c-.631,3.068-.526,6.078-2.3,9.96,0,0,1.543-2.129,3.446-.87,1.85,1.225,5.253-1.275,5.253-1.275S1336.2,1715.109,1333.455,1708.551Z" transform="translate(-1315.482 -1694.09)" fill="#0a94a2"/>
      </g>
      <g id="c-3" data-name="c" transform="translate(88.001 45.756)">
        <g id="c-4" data-name="c" transform="translate(35.639 3.326)">
          <g id="c-5" data-name="c">
            <path id="c-6" data-name="c" d="M1291.913,1746.529a.935.935,0,0,0,.187.038h.2a.973.973,0,0,0,.828-.679l9.592-30.926a.933.933,0,0,0,.038-.188,1.038,1.038,0,0,0,0-.122c0-.025,0-.049,0-.074s-.009-.042-.012-.063a.971.971,0,0,0-.668-.773.982.982,0,0,0-.182-.039,1.039,1.039,0,0,0-.208,0h-24.148l-9.677,32.864h24.059Z" transform="translate(-1266.949 -1713.698)" fill="#8ec8c8"/>
            <path id="c-7" data-name="c" d="M1273.258,1713.742a.975.975,0,0,0-1.22.642l-9.532,30.85-.021.072a.975.975,0,0,0,.637,1.216v0a.974.974,0,0,0,1.219-.641l9.557-30.92A.975.975,0,0,0,1273.258,1713.742Z" transform="translate(-1262.441 -1713.698)" fill="#00223d"/>
          </g>
        </g>
        <path id="c-8" data-name="c" d="M1431.419,1798.171a1,1,0,0,1,.289-.126c-.01-.015-.021-.029-.032-.044a1.761,1.761,0,0,1,.09-2.42,1.046,1.046,0,0,1,.347-.146,1.456,1.456,0,0,1,.447-1.619,1.1,1.1,0,0,1,.623-.174,1.454,1.454,0,0,1,.476-1.7,1.706,1.706,0,0,1,1.857,2.8,1.218,1.218,0,0,1-.539.194,1.657,1.657,0,0,1-.242,2.156,1.043,1.043,0,0,1-.347.145,1.455,1.455,0,0,1-.446,1.619,1.081,1.081,0,0,1-.576.174,1.244,1.244,0,0,1-.379,1.5,1.441,1.441,0,0,1-1.568-2.366Z" transform="translate(-1366.719 -1775.181)" fill="#e49963"/>
        <path id="Trazado_97210" data-name="Trazado 97210" d="M1258.746,1796.216l2.2-1.276a4.158,4.158,0,0,1,4.144-3.2c-.405,1.31-.988,3.2-.988,3.2s1.74,1.351,5.866-.961c4.034-.907,2.31,2.034,3.648,2.246,1.973.311-1.438,4.188-5.466,4.781-5.212.768-5.83-.3-5.83-.3l-2.949,1.031Z" transform="translate(-1223.734 -1775.18)" fill="#e49963"/>
        <path id="c-9" data-name="c" d="M1066.961,1718.461c7.357-.513,19.908-4.148,19.908-4.148a11.862,11.862,0,0,1,1.453,7.173c-11.425,10.017-28.621,13.256-33.9,10.844-4.817-2.2-1.417-31.524,10.678-38.24h0C1069.249,1701.105,1066.961,1718.461,1066.961,1718.461Z" transform="translate(-1052.319 -1694.09)" fill="#0a94a2"/>
      </g>
      <g id="Grupo_46755" data-name="Grupo 46755" transform="translate(180.454 0)">
        <path id="Trazado_97211" data-name="Trazado 97211" d="M1770.01,2471.244c-4.1,5.468-14.167,2.113-13.834,9.509,15.31-.1,21.673,0,21.673,0a52.491,52.491,0,0,0-.676-7.31Z" transform="translate(-1729.241 -2293.676)" fill="#060f17"/>
        <path id="Trazado_97212" data-name="Trazado 97212" d="M1905.062,2472.088c-4.1,5.469-14.167,2.113-13.834,9.509,15.31-.095,21.672,0,21.672,0a52.471,52.471,0,0,0-.675-7.309Z" transform="translate(-1841.388 -2294.377)" fill="#060f17"/>
        <path id="Trazado_97213" data-name="Trazado 97213" d="M1787.585,1979.039s-2.486,35.048-1.476,42.839,4.586,17.782,4.18,43.554c4.991,1.208,12.222,0,12.222,0s1.072-29.142-4.2-42.159c2.146-12.643,9.03-41.6,9.03-41.6Z" transform="translate(-1753.904 -1884.953)" fill="#060f17"/>
        <path id="Trazado_97214" data-name="Trazado 97214" d="M1851.69,1984.686s5.019,39.347,7.477,46.81,7.248,13.774,11.7,39.163a53.268,53.268,0,0,0,11.241-1.015s-2.028-31.19-10.016-38.514c-.27-12.822,1.291-46.191,1.291-46.191Z" transform="translate(-1808.562 -1889.642)" fill="#060f17"/>
        <g id="Grupo_46752" data-name="Grupo 46752" transform="translate(41.114 9.04)">
          <g id="Grupo_46751" data-name="Grupo 46751">
            <g id="Grupo_46750" data-name="Grupo 46750">
              <path id="Trazado_97215" data-name="Trazado 97215" d="M1871.748,1523.022c-2.721,6.8-9.255,10.577-14.594,8.44s-7.462-9.38-4.742-16.178,9.255-10.577,14.594-8.441S1874.468,1516.223,1871.748,1523.022Z" transform="translate(-1849.292 -1501.391)" fill="#e49963"/>
              <path id="Trazado_97216" data-name="Trazado 97216" d="M1862.984,1564.993a1,1,0,1,1-.25-1.392A1,1,0,0,1,1862.984,1564.993Z" transform="translate(-1857.543 -1548.869)"/>
              <path id="Trazado_97217" data-name="Trazado 97217" d="M1906.417,1582.385a1.083,1.083,0,1,1-.271-1.507A1.083,1.083,0,0,1,1906.417,1582.385Z" transform="translate(-1893.484 -1563.203)"/>
              <path id="Trazado_97218" data-name="Trazado 97218" d="M1865.96,1582.1c-1.353,1.066-3.043,2.352-3.043,2.352a2.626,2.626,0,0,0,1.888,2.336c-.69-.625-1.294-1.457-.577-2.418S1865.96,1582.1,1865.96,1582.1Z" transform="translate(-1858.999 -1564.377)" fill="#d68d5d"/>
              <g id="Grupo_46747" data-name="Grupo 46747" transform="translate(12.459 15.79)">
                <path id="Trazado_97219" data-name="Trazado 97219" d="M1915.722,1573.455a.5.5,0,0,1-.485-.384c-.013-.052-.348-1.353-1.463-1.358a.5.5,0,1,1,0-1,2.662,2.662,0,0,1,2.429,2.125.5.5,0,0,1-.37.6A.474.474,0,0,1,1915.722,1573.455Z" transform="translate(-1913.277 -1570.715)"/>
              </g>
              <g id="Grupo_46748" data-name="Grupo 46748" transform="translate(3.677 12.438)">
                <path id="Trazado_97220" data-name="Trazado 97220" d="M1864.309,1552.525a.416.416,0,0,1-.358-.2,1.213,1.213,0,0,0-.723-.522,1.358,1.358,0,0,0-1.056.382.416.416,0,0,1-.519-.65,2.132,2.132,0,0,1,1.733-.549,2.047,2.047,0,0,1,1.281.916.416.416,0,0,1-.358.626Z" transform="translate(-1861.497 -1550.954)"/>
              </g>
              <path id="Trazado_97221" data-name="Trazado 97221" d="M1860.375,1499.96c-1.967-6.326.521-9.686.521-9.686-1.689-.339-2.346.246-2.346.246a3.752,3.752,0,0,1-.208-3.248c-3.491-1.361-5.23.9-8.38,1.662-4.314,1.043-9.641-.678-10.14-5.943a.9.9,0,0,1,1.4-.83,3.961,3.961,0,0,0,2.35.687,4.236,4.236,0,0,1-.95-2.43.9.9,0,0,1,1.484-.7c.9.747,2.561,1.452,5.527.9,1.974-.369,6.494-3.532,9.309-2.914,2.3.5,4.127,2.463,4.914,5.267a7.232,7.232,0,0,1,6.224,6.813c.557,6.116-6.528,10.81-6.528,10.81Z" transform="translate(-1839.818 -1477.62)" fill="#3c4973"/>
              <path id="Trazado_97222" data-name="Trazado 97222" d="M1947.991,1600.762a2.6,2.6,0,1,0,3.97.683A2.878,2.878,0,0,0,1947.991,1600.762Z" transform="translate(-1928.205 -1579.477)" fill="#e49963"/>
              <g id="Grupo_46749" data-name="Grupo 46749" transform="translate(19.642 22.195)">
                <path id="Trazado_97223" data-name="Trazado 97223" d="M1956.01,1611.248a.374.374,0,0,1-.115-.128,1.7,1.7,0,0,1,.173-2.084,1.814,1.814,0,0,1,2.066-.387.377.377,0,0,1-.337.673,1.073,1.073,0,0,0-1.187.237.962.962,0,0,0-.054,1.2.376.376,0,0,1-.546.489Z" transform="translate(-1955.623 -1608.478)" fill="#d68d5d"/>
              </g>
              <path id="Trazado_97224" data-name="Trazado 97224" d="M1864.505,1620.17a.319.319,0,0,1,.337-.48,22.614,22.614,0,0,0,5.979.534.319.319,0,0,1,.246.532,3.978,3.978,0,0,1-6.562-.586Z" transform="translate(-1860.278 -1595.588)" fill="#fff"/>
            </g>
          </g>
        </g>
        <path id="Trazado_97225" data-name="Trazado 97225" d="M1686.843,1672.408s.255-.693-21.777-.515l-5.907,6.981c6.113,4.9,26.587,5.773,26.587,5.773Z" transform="translate(-1648.686 -1629.878)" fill="#060f17"/>
        <path id="Trazado_97226" data-name="Trazado 97226" d="M1869.579,1668.546l6.949-.649,6.723,1.874-7.575,7.8Z" transform="translate(-1823.417 -1626.584)" fill="#6451a8"/>
        <path id="Trazado_97227" data-name="Trazado 97227" d="M1883.782,1647.785c2.832,2.325,3.411,3.932,9.426.824l.9-9.249-9.794-.772Z" transform="translate(-1835.211 -1602.246)" fill="#e49963"/>
        <path id="Trazado_97228" data-name="Trazado 97228" d="M1826.374,1676.672h0l-2.059-.815.276-2.908-5.713,4.587-1.613.257-1.542-.54-4.8-5.531-.246,2.911-1.818.364h0l-6.552,1.061-.78,36.371-2.585,12.374a62.36,62.36,0,0,0,27.978,2.3l-.321-12.422,6.79-35.546Z" transform="translate(-1764.756 -1629.76)" fill="#1565c0"/>
        <path id="Trazado_97229" data-name="Trazado 97229" d="M1879.494,1729.174l-4.105,27.77,2.274,3.158,2.963-2.276,1.008-28.42Z" transform="translate(-1828.241 -1677.468)" fill="#636363"/>
        <path id="Trazado_97230" data-name="Trazado 97230" d="M1898.15,1707.907l1.5-.4,1.529.667-.646,3.293-2.152-.193Z" transform="translate(-1847.142 -1659.479)" fill="#636363"/>
        <g id="Grupo_46753" data-name="Grupo 46753" transform="translate(29.261 42.195)">
          <path id="Trazado_97231" data-name="Trazado 97231" d="M1786.738,1673.094l-1.03,33.544-4.439,21.6s-7.022-.708-11.336-4.813l5.529-16.261,1.89-33.982Z" transform="translate(-1769.933 -1673.094)" fill="#060f17"/>
          <path id="Trazado_97232" data-name="Trazado 97232" d="M1838.982,1673.094l-1.024,33.1-5.111-25.363Z" transform="translate(-1822.176 -1673.094)" fill="#122739"/>
        </g>
        <g id="Grupo_46754" data-name="Grupo 46754" transform="translate(51.241 44.34)">
          <path id="Trazado_97233" data-name="Trazado 97233" d="M1908.643,1685.745l-9.118,54.383s12.1,1.486,17.075-1.786l-2.7-17.877,3.3-30.35Z" transform="translate(-1899.525 -1685.745)" fill="#060f17"/>
          <path id="Trazado_97234" data-name="Trazado 97234" d="M1927.195,1685.745l-5.329,31.874,9.542-24.048Z" transform="translate(-1918.077 -1685.745)" fill="#122739"/>
        </g>
        <path id="Trazado_97235" data-name="Trazado 97235" d="M1597.521,1436.677c.485,1.7.63,3.526,2.782,4.441,0,0-.318,5.63-.081,10.25,0,0,5.208-5.873,5.207-5.878a30.952,30.952,0,0,1-.253-7.382c.074-.519.176-1.036.257-1.556.224-1.262.6-2.554-.174-4.078-2.972-5.888-1.971-7.826-2.381-8.113-.665-.293-2.229.891-1.345,3.785a10.578,10.578,0,0,1,.645,4.174s-2.246-.424-3.044.361C1598.773,1433.039,1596.954,1434.693,1597.521,1436.677Z" transform="translate(-1597.412 -1424.318)" fill="#e49963"/>
        <path id="Trazado_97236" data-name="Trazado 97236" d="M1605.179,1536.792c3.036-1.011,4.634-1.467,6.994-1.467,5.58,16.63,9.558,22.9,7.9,27.67-1.383,3.98-5.76,3.662-7.9.679C1609.35,1559.741,1606.851,1544.793,1605.179,1536.792Z" transform="translate(-1603.862 -1516.497)" fill="#060f17"/>
        <path id="Trazado_97237" data-name="Trazado 97237" d="M1987.579,1711.508l17.581,27.505,20.881,11.79-6.436,6.408-20.948-9.182-14.377-20.286Z" transform="translate(-1918.663 -1662.798)" fill="#060f17"/>
        <path id="Trazado_97238" data-name="Trazado 97238" d="M1868.925,1677.793s-2.587,2.611-4.964,3.279l-2.812-7.436,1.43-1.914Z" transform="translate(-1816.417 -1629.76)" fill="#fff"/>
        <path id="Trazado_97239" data-name="Trazado 97239" d="M1907,1683.8a12.454,12.454,0,0,0,4.3,4.11l4.091-6.794-1.068-2.159Z" transform="translate(-1854.488 -1635.763)" fill="#fff"/>
      </g>
      <g id="с" transform="translate(92.058 117.543)">
        <path id="с-2" data-name="с" d="M1236.28,2126.134H1082.772c-3.608,0-6.533-1.968-6.533-4.4h0c0-2.428,2.925-4.4,6.533-4.4H1236.28c3.608,0,6.532,1.968,6.532,4.4h0C1242.812,2124.166,1239.888,2126.134,1236.28,2126.134Z" transform="translate(-1076.239 -2117.342)" fill="url(#linear-gradient-2)"/>
        <g id="Grupo_46756" data-name="Grupo 46756" transform="translate(61.991 5.42)">
          <path id="Trazado_97240" data-name="Trazado 97240" d="M1443.808,2214.613h0a2.072,2.072,0,0,1-1.735-3.2L1482.6,2149.3l3.469,2.265-40.531,62.112A2.072,2.072,0,0,1,1443.808,2214.613Z" transform="translate(-1441.733 -2149.296)" fill="url(#linear-gradient-2)"/>
        </g>
        <g id="Grupo_46757" data-name="Grupo 46757" transform="translate(60.241 5.42)">
          <path id="Trazado_97241" data-name="Trazado 97241" d="M1473.679,2214.613h0a2.072,2.072,0,0,0,1.735-3.2l-40.531-62.113-3.469,2.265,40.531,62.112A2.074,2.074,0,0,0,1473.679,2214.613Z" transform="translate(-1431.413 -2149.296)" fill="url(#linear-gradient-2)"/>
        </g>
      </g>
      <g id="с-3" data-name="с" transform="translate(250.831 93.236)">
        <path id="с-4" data-name="с" d="M2046.136,2346.747h0a1.984,1.984,0,0,1-1.984-1.985V2309.6h3.968v35.157A1.984,1.984,0,0,1,2046.136,2346.747Z" transform="translate(-2038.758 -2252.689)" fill="url(#linear-gradient-2)"/>
        <path id="с-5" data-name="с" d="M2128.229,2346.747h0a1.984,1.984,0,0,1-1.984-1.985V2309.6h3.969v35.157A1.985,1.985,0,0,1,2128.229,2346.747Z" transform="translate(-2106.927 -2252.689)" fill="url(#linear-gradient-2)"/>
        <path id="с-6" data-name="с" d="M2235.952,2346.747h0a1.984,1.984,0,0,1-1.984-1.985V2309.6h3.968v35.157A1.984,1.984,0,0,1,2235.952,2346.747Z" transform="translate(-2196.379 -2252.689)" fill="url(#linear-gradient-2)"/>
        <path id="с-7" data-name="с" d="M2318.046,2346.747h0a1.985,1.985,0,0,1-1.985-1.985V2309.6h3.969v35.157A1.984,1.984,0,0,1,2318.046,2346.747Z" transform="translate(-2264.549 -2252.689)" fill="url(#linear-gradient-2)"/>
        <path id="с-8" data-name="с" d="M2043.89,1978.771v41.838a.862.862,0,0,1-.862.862h-25.941a4.739,4.739,0,0,0-4.739,4.738h0a4.738,4.738,0,0,0,4.739,4.739h31.541a4.738,4.738,0,0,0,4.739-4.739v-47.438a4.739,4.739,0,0,0-4.739-4.739h0A4.739,4.739,0,0,0,2043.89,1978.771Z" transform="translate(-2012.349 -1974.032)" fill="#344966"/>
        <rect id="с-9" data-name="с" width="20.51" height="48.207" transform="translate(36.28 0)" fill="#344966"/>
        <path id="с-10" data-name="с" d="M2164.812,1978.771v41.838a.863.863,0,0,1-.862.862h-25.941a4.738,4.738,0,0,0-4.739,4.738h0a4.738,4.738,0,0,0,4.739,4.739h31.542a4.738,4.738,0,0,0,4.739-4.739v-47.438a4.739,4.739,0,0,0-4.739-4.739h0A4.739,4.739,0,0,0,2164.812,1978.771Z" transform="translate(-2112.761 -1974.032)" fill="url(#linear-gradient-2)"/>
      </g>
      <g id="с-11" data-name="с" transform="translate(36.387 93.236)">
        <path id="с-12" data-name="с" d="M1057.557,2346.747h0a1.984,1.984,0,0,0,1.984-1.985V2309.6h-3.969v35.157A1.985,1.985,0,0,0,1057.557,2346.747Z" transform="translate(-1003.407 -2252.689)" fill="url(#linear-gradient-2)"/>
        <path id="с-13" data-name="с" d="M975.462,2346.747h0a1.984,1.984,0,0,0,1.984-1.985V2309.6h-3.968v35.157A1.984,1.984,0,0,0,975.462,2346.747Z" transform="translate(-935.237 -2252.689)" fill="url(#linear-gradient-2)"/>
        <path id="с-14" data-name="с" d="M867.741,2346.747h0a1.984,1.984,0,0,0,1.984-1.985V2309.6h-3.969v35.157A1.984,1.984,0,0,0,867.741,2346.747Z" transform="translate(-845.786 -2252.689)" fill="url(#linear-gradient-2)"/>
        <path id="с-15" data-name="с" d="M785.647,2346.747h0a1.984,1.984,0,0,0,1.984-1.985V2309.6h-3.968v35.157A1.984,1.984,0,0,0,785.647,2346.747Z" transform="translate(-777.616 -2252.689)" fill="url(#linear-gradient-2)"/>
        <path id="с-16" data-name="с" d="M878.408,1978.771v41.838a.862.862,0,0,0,.862.862h25.94a4.739,4.739,0,0,1,4.739,4.738h0a4.739,4.739,0,0,1-4.739,4.739H873.669a4.739,4.739,0,0,1-4.739-4.739v-47.438a4.739,4.739,0,0,1,4.739-4.739h0A4.739,4.739,0,0,1,878.408,1978.771Z" transform="translate(-848.421 -1974.032)" fill="#344966"/>
        <rect id="с-17" data-name="с" width="20.509" height="48.207" transform="translate(25.248 48.207) rotate(180)" fill="#344966"/>
        <path id="с-18" data-name="с" d="M757.487,1978.771v41.838a.862.862,0,0,0,.862.862h25.94a4.739,4.739,0,0,1,4.739,4.738h0a4.739,4.739,0,0,1-4.739,4.739H752.748a4.739,4.739,0,0,1-4.739-4.739v-47.438a4.739,4.739,0,0,1,4.739-4.739h0A4.739,4.739,0,0,1,757.487,1978.771Z" transform="translate(-748.009 -1974.032)" fill="url(#linear-gradient-2)"/>
      </g>
      <g id="Grupo_46762" data-name="Grupo 46762" transform="translate(192.038 47.027)">
        <path id="Trazado_97242" data-name="Trazado 97242" d="M2096.3,1736.546c-4.376-1.578-11.137-5.031-6.644-11.339s4.377-3.555,2.76-11.217,3.831-13.69,9.025-12.165,6.52,5.728,12.886,4.665,11.658,4.891,9.262,10.055-3.42,7.65-1.179,10.508,12.338,5.938,8.126,12.786-6.141,6.427-4.679,9.937-1.911,7.506-7.764,6.96-11.153-2.759-13.3-9.295S2096.3,1736.546,2096.3,1736.546Z" transform="translate(-2016.521 -1701.588)" fill="#3c4973"/>
        <path id="Trazado_97243" data-name="Trazado 97243" d="M2013.156,2462.364l-3.458,1.033-2.6-2.662a12.867,12.867,0,0,0-.4-3.869l6.46-1.072A55.964,55.964,0,0,1,2013.156,2462.364Z" transform="translate(-1948.861 -2327.874)" fill="#e49963"/>
        <path id="Trazado_97244" data-name="Trazado 97244" d="M1955.437,2485.211a3.54,3.54,0,0,0-2.58-2.4c-3.417,4.557-11.807,1.761-11.529,7.925,12.76-.079,18.062,0,18.062,0a43.789,43.789,0,0,0-.563-6.092l-.665.117Z" transform="translate(-1894.575 -2350.31)" fill="#aaa5a5"/>
        <path id="Trazado_97245" data-name="Trazado 97245" d="M1881.4,2465.1l-3.6.248-2.07-2.206a21.042,21.042,0,0,0,.579-4.827l6.07.27A55.971,55.971,0,0,1,1881.4,2465.1Z" transform="translate(-1840.111 -2329.97)" fill="#e49963"/>
        <path id="Trazado_97246" data-name="Trazado 97246" d="M1821.138,2485.211a3.54,3.54,0,0,0-2.58-2.4c-3.416,4.557-11.807,1.761-11.529,7.925,12.759-.079,18.062,0,18.062,0a43.715,43.715,0,0,0-.563-6.092l-.665.117Z" transform="translate(-1783.054 -2350.31)" fill="#aaa5a5"/>
        <path id="Trazado_97247" data-name="Trazado 97247" d="M1917.82,2141.984c-9.83,1.323-37.522,11.585-39.065,13.442-3.188,3.835-1.508,24.7-3.021,41.921l8.048.475c3.856-14.022,3.548-20.074,5.292-36.158,0,0,31.637,2.37,43.069-5.346C1943.929,2148.36,1925.769,2140.1,1917.82,2141.984Z" transform="translate(-1840.111 -2067.063)" fill="#213755"/>
        <path id="Trazado_97248" data-name="Trazado 97248" d="M1938.622,2022.791c2.323.4,3.218,2.26,3.778,5.692-8.851,5.214-22,5.585-22,5.585l-4.191-2.073S1926.754,2028.2,1938.622,2022.791Z" transform="translate(-1873.723 -1968.312)" fill="#d68d5d"/>
        <path id="Trazado_97249" data-name="Trazado 97249" d="M2072.83,1912.77c-3.873,5.628-18.711,17.732-21.167,18.113l-2.975-8.328s14.486-15.68,17.123-18.451C2070.367,1899.3,2079.171,1903.594,2072.83,1912.77Z" transform="translate(-1983.731 -1868.103)" fill="#d68d5d"/>
        <path id="Trazado_97250" data-name="Trazado 97250" d="M2094.825,1908.761c3.105-3.347,7.15-10.9,12.415-10.364s5.643,6.124,4.057,9.131-7.065,10.42-7.065,10.42Z" transform="translate(-2022.043 -1864.994)" fill="#9b9393"/>
        <path id="Trazado_97251" data-name="Trazado 97251" d="M1965.1,2043.109c2.231.769,3.5,7.8,2.878,8.335-9.565,3.789-29.467-.309-29.467-.309l-1.057-3.6S1952.521,2046.608,1965.1,2043.109Z" transform="translate(-1891.362 -1985.184)" fill="#e49963"/>
        <path id="Trazado_97252" data-name="Trazado 97252" d="M2137.119,1937.087c-2.187-11.285-3.13-15.285-4.039-20.6-2.245-13.126,4.357-22.351-6.962-28.642l-8.25,1.33c-6.671,7.018-10.778,13.389-11.129,17.789-.485,5.676,5.148,8.756,5.148,8.756l-2.266,15.454s-.533,1.262,8.77,3.019S2137.119,1937.087,2137.119,1937.087Z" transform="translate(-2031.911 -1856.258)" fill="#aaa5a5"/>
        <path id="Trazado_97253" data-name="Trazado 97253" d="M2125.138,1921.606c-3.873,5.693-20.423,20.162-22.91,20.29l-1.78-8.634s15.035-17.619,17.672-20.422C2122.676,1907.976,2131.48,1912.323,2125.138,1921.606Z" transform="translate(-2026.713 -1875.338)" fill="#e49963"/>
        <path id="Trazado_97254" data-name="Trazado 97254" d="M2152.735,1918.541c2.89-4.205,8.719-11.964,13.984-11.427s5.644,6.123,4.057,9.131-7.066,10.421-7.066,10.421Z" transform="translate(-2070.131 -1872.233)" fill="#9b9393"/>
        <path id="Trazado_97255" data-name="Trazado 97255" d="M1877.123,2064.6c-3.043-.748-9.658-2.971-12.323,4,.669,1.278,3.118-1.879,4.17-2.171,1.67-.464,3.1.413,4.367,1.621,1.813,1.732,4.843.156,4.843.156Z" transform="translate(-1831.033 -2002.251)" fill="#e49963"/>
        <g id="Grupo_46758" data-name="Grupo 46758" transform="translate(0 41.148)">
          <path id="Trazado_97256" data-name="Trazado 97256" d="M1783.551,2098.118h-28.583v-3.838h32.422A3.838,3.838,0,0,1,1783.551,2098.118Z" transform="translate(-1739.829 -2068.824)" fill="#3c4973"/>
          <path id="Trazado_97257" data-name="Trazado 97257" d="M1666.15,1949.378l14.7,24.11,3.4-1.785-16.484-27.508h0A3.838,3.838,0,0,0,1666.15,1949.378Z" transform="translate(-1665.708 -1944.194)" fill="#3c4973"/>
        </g>
        <path id="Trazado_97258" data-name="Trazado 97258" d="M2160.725,1762.408c-1.39,5.8-6.212,9.626-10.771,8.534s-7.128-6.682-5.738-12.487,6.212-9.625,10.771-8.534S2162.115,1756.6,2160.725,1762.408Z" transform="translate(-2062.743 -1741.568)" fill="#e49963"/>
        <path id="Trazado_97259" data-name="Trazado 97259" d="M2187.807,1842.481l-7.577,4.7s-.671,3.349-1.008,4.435c-.693,2.242,1.961,3.222,4.2,1.826a6.565,6.565,0,0,0,2.814-3.263Z" transform="translate(-2092.032 -1818.584)" fill="#e49963"/>
        <path id="Trazado_97260" data-name="Trazado 97260" d="M2142.988,1749.233c2.154.186,6.818-.189,8.518-2.206,1.214,4.1,6.369,7.994,10.632,9.822.172-4.2.141-11.933-7.393-15.145C2148.829,1739.182,2142.988,1749.233,2142.988,1749.233Z" transform="translate(-2062.038 -1734.563)" fill="#3c4973"/>
        <path id="Trazado_97261" data-name="Trazado 97261" d="M2151.094,1804.365a.816.816,0,1,1-.366-1.094A.816.816,0,0,1,2151.094,1804.365Z" transform="translate(-2067.485 -1785.954)"/>
        <path id="Trazado_97262" data-name="Trazado 97262" d="M2188.225,1813.2a.883.883,0,1,1-.4-1.183A.882.882,0,0,1,2188.225,1813.2Z" transform="translate(-2098.212 -1793.213)"/>
        <g id="Grupo_46759" data-name="Grupo 46759" transform="translate(88.935 17.362)">
          <path id="Trazado_97263" data-name="Trazado 97263" d="M2192.114,1805.849a.3.3,0,0,1-.142-.146,2.338,2.338,0,0,0-1.649-1.142.307.307,0,0,1,.086-.608,2.922,2.922,0,0,1,2.121,1.491.308.308,0,0,1-.151.407A.3.3,0,0,1,2192.114,1805.849Z" transform="translate(-2190.06 -1803.951)" fill="#2e2d57"/>
        </g>
        <g id="Grupo_46760" data-name="Grupo 46760" transform="translate(81.661 16.119)">
          <path id="Trazado_97264" data-name="Trazado 97264" d="M2147.343,1797.733a.307.307,0,0,1-.079-.493,2.153,2.153,0,0,1,2.139-.525.307.307,0,0,1-.2.581,1.541,1.541,0,0,0-1.509.381A.307.307,0,0,1,2147.343,1797.733Z" transform="translate(-2147.173 -1796.623)" fill="#2e2d57"/>
        </g>
        <path id="Trazado_97265" data-name="Trazado 97265" d="M2154.824,1820.371a8.168,8.168,0,0,1-1.268,1.2.323.323,0,0,0-.106.431,4.444,4.444,0,0,0,1.97,1.378.086.086,0,0,0,.091-.144,4.2,4.2,0,0,1-1-1.171.382.382,0,0,1,0-.349c.128-.252.383-.767.554-1.194A.145.145,0,0,0,2154.824,1820.371Z" transform="translate(-2070.69 -1800.187)" fill="#d68d5d"/>
        <path id="Trazado_97266" data-name="Trazado 97266" d="M2225.079,1821.621a2.122,2.122,0,1,0,3.282.081A2.346,2.346,0,0,0,2225.079,1821.621Z" transform="translate(-2129.29 -1800.745)" fill="#e49963"/>
        <g id="Grupo_46761" data-name="Grupo 46761" transform="translate(95.961 21.403)">
          <path id="Trazado_97267" data-name="Trazado 97267" d="M2231.944,1830.19a.3.3,0,0,1-.108-.09,1.388,1.388,0,0,1-.107-1.7,1.479,1.479,0,0,1,1.62-.556.307.307,0,1,1-.192.583.874.874,0,0,0-.929.331.785.785,0,0,0,.1.974.307.307,0,0,1-.383.459Z" transform="translate(-2231.486 -1827.777)" fill="#d68d5d"/>
        </g>
        <path id="Trazado_97268" data-name="Trazado 97268" d="M1993.293,2150.557c-9.83,1.323-37.564,10.312-39.107,12.169-3.188,3.835,3.91,20.258,6.18,41.4h9.488c-.1-15.065,1.1-28.922-3.531-33.835,0,0,26.583-1.773,39.835-1.773C2012.913,2168.518,2016.651,2145.691,1993.293,2150.557Z" transform="translate(-1904.585 -2073.843)" fill="#344966"/>
        <path id="Trazado_97269" data-name="Trazado 97269" d="M2159.06,1847.433a.25.25,0,0,1,.229-.4,17.757,17.757,0,0,0,4.707,0,.25.25,0,0,1,.229.4,3.119,3.119,0,0,1-5.165-.005Z" transform="translate(-2075.342 -1822.364)" fill="#fff"/>
      </g>
      <g id="Grupo_46787" data-name="Grupo 46787" transform="translate(0 51.386)">
        <g id="Grupo_46763" data-name="Grupo 46763" transform="translate(63.638 34.115)">
          <path id="Trazado_97270" data-name="Trazado 97270" d="M1040.02,2047.854c-1.877,1.25-1.357,8.056-.649,8.4,9.761,1.193,26.248-6.894,26.248-6.894l.646-3.617A169.291,169.291,0,0,1,1040.02,2047.854Z" transform="translate(-1016.668 -2025.847)" fill="#e49963"/>
          <path id="Trazado_97271" data-name="Trazado 97271" d="M910.582,1938.628c3.49,5.58,18.763,20.009,21.133,20.223l2.019-8.18s-13.71-17.383-16.126-20.157C913.436,1925.7,904.867,1929.528,910.582,1938.628Z" transform="translate(-908.677 -1928.424)" fill="#e49963"/>
        </g>
        <path id="Trazado_97272" data-name="Trazado 97272" d="M803.744,1741.788c.42-5.713-1.232-10.76-5.788-13.331-4.617-2.6-10.4-.049-10.4-.049h0s-4.9-1.742-9.333,3.146-1.081,9.189-2.9,12.753c-1.075,2.111-6.541,2.546-5.129,9.422.407,1.983,2.792,3.318,4.812,3.45,3.549.233,6.854-1.139,8.293.233,4.741,4.521,15.247,2.886,16.717-1.25.456-1.282,9.907,1.2,8.964-7.535C808.505,1744.2,803.369,1746.894,803.744,1741.788Z" transform="translate(-729.854 -1727.286)" fill="#3c4973"/>
        <g id="Grupo_46766" data-name="Grupo 46766" transform="translate(54.913 31.586)">
          <g id="Grupo_46765" data-name="Grupo 46765">
            <g id="Grupo_46764" data-name="Grupo 46764">
              <path id="Trazado_97273" data-name="Trazado 97273" d="M867.552,1914.9l-7.5-1.386-2.814,3.744,5.98,12.259,8.795-7.466Z" transform="translate(-857.235 -1913.512)" fill="#e49963"/>
            </g>
          </g>
        </g>
        <g id="Grupo_46769" data-name="Grupo 46769" transform="translate(45.883 31.577)">
          <g id="Grupo_46768" data-name="Grupo 46768">
            <g id="Grupo_46767" data-name="Grupo 46767">
              <path id="Trazado_97274" data-name="Trazado 97274" d="M833.068,1944.413c-.128-2.333,3.641-11.912,1.657-16.734-1.445-3.879-3.86-10.39-6.816-11.476-1.4-.513-2.829-.87-4.567-1.35,0,0,.98,4.887-1.063,5.051-3.933.316-6.441-6.436-6.441-6.436-2.121-.2-11.849,2.993-11.844,3.792.023,6.257,5.106,15.385,6.768,22.15.654,7.305-1.895,16.048-1.9,16.879,0,0,15.649,4.4,24.925-.708C833.978,1954.87,833.245,1947.634,833.068,1944.413Z" transform="translate(-803.995 -1913.459)" fill="#1565c0"/>
            </g>
          </g>
        </g>
        <path id="Trazado_97275" data-name="Trazado 97275" d="M825.026,2121.723s-3.455,8.715-4.3,14.2,3.912,9.007,3.912,9.007h39.538s4.232-6.865,3.014-11.6-4.023-5.494-4.023-5.494Z" transform="translate(-771.925 -2054.824)" fill="#1565c0"/>
        <path id="Trazado_97276" data-name="Trazado 97276" d="M953.493,2156.029c-5.048-.712-19.7,4.979-25.945,17.342h17.476Z" transform="translate(-860.709 -2083.26)" fill="#d68d5d"/>
        <g id="Grupo_46770" data-name="Grupo 46770" transform="translate(87.248 72.561)">
          <path id="Trazado_97277" data-name="Trazado 97277" d="M1047.879,2159.855a14.007,14.007,0,0,0,1.766-2.513,4.36,4.36,0,0,1,7.029-.824c7.287,8.034,22.821,26.349,26.284,28.628.979.644,6.688,3.931,12.115,3.281,0,0,2.679,1.021.894,3.148-.918,1.1-14.711,2.226-14.711,2.226l-1.075-4.05c-8.029-5.942-18.024-5.515-26.5-16.379A32.651,32.651,0,0,1,1047.879,2159.855Z" transform="translate(-1047.879 -2155.098)" fill="#d68d5d"/>
          <path id="Trazado_97278" data-name="Trazado 97278" d="M1238.885,2349.287l5.551,3.6.763-.909-4.5-4.2c2.557-2.018,8.481-.335,8.481-.335,1.94-1.253,5.722-5.318,6.113-7.5-1.243-1.548-5.38,1.637-5.38,1.637a5.078,5.078,0,0,1-2.195,3.487c-4.519.975-9.024-.309-12.7-2.175C1235.016,2342.9,1231.945,2347.554,1238.885,2349.287Z" transform="translate(-1202.714 -2308.246)" fill="#1565c0"/>
        </g>
        <g id="Grupo_46771" data-name="Grupo 46771" transform="translate(84.159 78.326)">
          <path id="Trazado_97279" data-name="Trazado 97279" d="M1032.674,2189.174a2.613,2.613,0,0,0-1.911,2.156c-.4,2.8-2.437,8.482.325,14.429,6.781,14.6,10.784,24.218,11.5,27.985-1.771,3.317,5.291,12.378,5.4,12.971l5.083-1.591s-2.917-4.338-3.967-6.037c-2.5-4.045-2.91-9.01-3.316-12.858-1.735-16.428,1.248-26.8-10.639-36.438A2.776,2.776,0,0,0,1032.674,2189.174Z" transform="translate(-1029.666 -2189.091)" fill="#e49963"/>
          <path id="Trazado_97280" data-name="Trazado 97280" d="M1086.858,2459.313l.5,6.6,1.185.056.609-6.126c3.155.81,5.408,6.541,5.408,6.541,2.173.784,7.7,1.326,9.667.315.478-1.926-4.564-3.285-4.564-3.285a5.08,5.08,0,0,1-4.1.37,19.648,19.648,0,0,1-6.17-11.417S1084.028,2452.744,1086.858,2459.313Z" transform="translate(-1076.473 -2407.71)" fill="#1565c0"/>
        </g>
        <g id="Grupo_46774" data-name="Grupo 46774" transform="translate(57.242 25.93)">
          <g id="Grupo_46773" data-name="Grupo 46773">
            <g id="Grupo_46772" data-name="Grupo 46772">
              <path id="Trazado_97281" data-name="Trazado 97281" d="M877.055,1881.083l-6.093-.912.485,5.655s1.166,2.562,2.519,2.736l4.985-1.35Z" transform="translate(-870.963 -1880.17)" fill="#e49963"/>
            </g>
          </g>
        </g>
        <g id="Grupo_46778" data-name="Grupo 46778" transform="translate(49.951 4.325)">
          <path id="Trazado_97282" data-name="Trazado 97282" d="M835.635,1767.127c1.573,6.569,7.03,10.892,12.189,9.657s8.066-7.562,6.494-14.13-7.03-10.893-12.189-9.657S834.063,1760.558,835.635,1767.127Z" transform="translate(-833.982 -1752.785)" fill="#e49963"/>
          <path id="Trazado_97283" data-name="Trazado 97283" d="M933.149,1814.607a.923.923,0,1,0,.414-1.238A.923.923,0,0,0,933.149,1814.607Z" transform="translate(-915.23 -1803.014)"/>
          <path id="Trazado_97284" data-name="Trazado 97284" d="M890.387,1824.608a1,1,0,1,0,.449-1.34A1,1,0,0,0,890.387,1824.608Z" transform="translate(-879.714 -1811.227)"/>
          <g id="Grupo_46775" data-name="Grupo 46775" transform="translate(9.066 10.406)">
            <path id="Trazado_97285" data-name="Trazado 97285" d="M881.931,1816.286a.344.344,0,0,0,.16-.165,2.647,2.647,0,0,1,1.866-1.292.347.347,0,0,0-.1-.688,3.305,3.305,0,0,0-2.4,1.688.347.347,0,0,0,.47.457Z" transform="translate(-881.428 -1814.137)" fill="#2e2d57"/>
          </g>
          <g id="Grupo_46776" data-name="Grupo 46776" transform="translate(17.366 8.999)">
            <path id="Trazado_97286" data-name="Trazado 97286" d="M932.929,1807.1a.343.343,0,0,0,.092-.067.347.347,0,0,0,0-.491,2.439,2.439,0,0,0-2.42-.594.347.347,0,0,0,.225.657,1.741,1.741,0,0,1,1.707.43A.347.347,0,0,0,932.929,1807.1Z" transform="translate(-930.364 -1805.844)" fill="#2e2d57"/>
          </g>
          <path id="Trazado_97287" data-name="Trazado 97287" d="M926.152,1832.718a9.251,9.251,0,0,0,1.434,1.362.366.366,0,0,1,.121.487,5.015,5.015,0,0,1-2.229,1.559.1.1,0,0,1-.1-.163,4.732,4.732,0,0,0,1.136-1.325.435.435,0,0,0,0-.395c-.145-.286-.433-.869-.628-1.351A.164.164,0,0,1,926.152,1832.718Z" transform="translate(-908.827 -1819.119)" fill="#d68d5d"/>
          <path id="Trazado_97288" data-name="Trazado 97288" d="M832.112,1834.133a2.4,2.4,0,1,1-3.715.092A2.654,2.654,0,0,1,832.112,1834.133Z" transform="translate(-827.976 -1819.75)" fill="#e49963"/>
          <g id="Grupo_46777" data-name="Grupo 46777" transform="translate(1.594 14.979)">
            <path id="Trazado_97289" data-name="Trazado 97289" d="M839.2,1843.829a.347.347,0,0,0,.122-.1,1.57,1.57,0,0,0,.121-1.925,1.674,1.674,0,0,0-1.833-.63.348.348,0,0,0,.218.66.99.99,0,0,1,1.051.375.889.889,0,0,1-.112,1.1.347.347,0,0,0,.433.52Z" transform="translate(-837.376 -1841.099)" fill="#d68d5d"/>
          </g>
          <path id="Trazado_97290" data-name="Trazado 97290" d="M896.227,1861.678a.277.277,0,0,1,.254-.441,19.666,19.666,0,0,0,5.214,0,.277.277,0,0,1,.254.441,3.456,3.456,0,0,1-5.722,0Z" transform="translate(-884.605 -1842.84)" fill="#fff"/>
        </g>
        <path id="Trazado_97291" data-name="Trazado 97291" d="M832.456,1760.428c6.158-.825,14.774-7.1,15.481-10.318-1.191-3.868-7.537-5.812-11.121-4.02S829.848,1755.561,832.456,1760.428Z" transform="translate(-780.979 -1742.343)" fill="#3c4973"/>
        <path id="Trazado_97292" data-name="Trazado 97292" d="M1171.351,1951h0a1.562,1.562,0,0,1-1-1.969l9.505-29.117a1.561,1.561,0,0,1,1.968-1h0a1.561,1.561,0,0,1,1,1.969L1173.319,1950A1.562,1.562,0,0,1,1171.351,1951Z" transform="translate(-1062.266 -1886.346)" fill="#fff"/>
        <path id="Trazado_97293" data-name="Trazado 97293" d="M1199.832,2017.9l1.936-5.933a8.023,8.023,0,0,1,0,6.653c-1.679,3.239-3.276,3.384-3.276,3.384Z" transform="translate(-1085.698 -1963.679)" fill="#e49963"/>
        <path id="Trazado_97294" data-name="Trazado 97294" d="M1185.256,2017.9c-.49-1.151-1.643-4.033-.49-4.02s1.341,1.412,1.341,1.412Z" transform="translate(-1073.889 -1965.27)" fill="#e49963"/>
        <g id="Grupo_46786" data-name="Grupo 46786" transform="translate(0 26.429)">
          <g id="Grupo_46781" data-name="Grupo 46781" transform="translate(16.148 3.513)">
            <g id="Grupo_46780" data-name="Grupo 46780">
              <g id="Grupo_46779" data-name="Grupo 46779">
                <path id="Trazado_97295" data-name="Trazado 97295" d="M628.678,1909.169a4.317,4.317,0,0,0,.9-5.342c1.435-.307,9,11.156,12.265,18.441,5.692-5.736,15.721-13.484,18.433-13.935,0,0,3.658-.983,4.973,3.44,1.173,3.948-3.4,6.746-3.4,6.746s-19.576,13.821-22.471,12.592C634.869,1929.2,630.792,1912.75,628.678,1909.169Z" transform="translate(-628.678 -1903.821)" fill="#e49963"/>
              </g>
            </g>
          </g>
          <g id="Grupo_46785" data-name="Grupo 46785">
            <g id="Grupo_46784" data-name="Grupo 46784">
              <g id="Grupo_46783" data-name="Grupo 46783">
                <g id="Grupo_46782" data-name="Grupo 46782">
                  <path id="Trazado_97296" data-name="Trazado 97296" d="M545.532,1891.642c1.6.1,3.573-.692,4.188.74l3.153-1.537.191-1.9c-2.709-4.341-9.313-5.573-9.966-5.63-1.7-.149-2.488-.324-2.62-.1s-.549,1.739,1.916,2.036c3.093.371,1.04,2.844-5.235.49-1.571-.589-4.528.176-3.458,1.324C534.878,1888.331,538.264,1891.2,545.532,1891.642Z" transform="translate(-533.472 -1883.108)" fill="#e49963"/>
                </g>
              </g>
            </g>
          </g>
        </g>
      </g>
    </g>
    <g id="Grupo_46790" data-name="Grupo 46790" transform="translate(454.208 798.768)">
      <path id="Trazado_97297" data-name="Trazado 97297" d="M1407.744,1412.273a9.8,9.8,0,0,1-.554,3.246c-1.808,5.191-7.844,9-15.013,9s-13.2-3.813-15.012-9a9.791,9.791,0,0,1-.554-3.246Z" transform="translate(-1334.05 -1327.16)" fill="#3c4973"/>
      <path id="Trazado_97298" data-name="Trazado 97298" d="M1407.744,1412.273a9.8,9.8,0,0,1-.554,3.246h-30.025a9.791,9.791,0,0,1-.554-3.246Z" transform="translate(-1334.05 -1327.16)" fill="#00223d"/>
      <path id="Trazado_97299" data-name="Trazado 97299" d="M1313.251,802.463a32.6,32.6,0,1,0-58.364,19.971,40.806,40.806,0,0,1,8.65,25.011v.161h34.23v-.16a40.922,40.922,0,0,1,8.673-25.042A32.451,32.451,0,0,0,1313.251,802.463Z" transform="translate(-1222.525 -769.864)" fill="url(#linear-gradient-2)"/>
      <g id="Grupo_46789" data-name="Grupo 46789" transform="translate(43.024 23.918)">
        <path id="Trazado_97300" data-name="Trazado 97300" d="M1400.143,1000.525a.833.833,0,0,1-.787-1.108c.038-.111,3.882-11.186,6.675-22.464,4.951-19.99,2.4-23.239,1.078-23.708-3.9-1.38-7,.661-8.915,2.616a16.6,16.6,0,0,0-1.612,1.93,31.589,31.589,0,0,1,2.211,4.709c1.726,4.612,2.185,8.92,1.227,11.523a4.09,4.09,0,0,1-4.422,2.868,4.724,4.724,0,0,1-4.218-3.338c-.878-2.332-.765-5.761.312-9.408a25.114,25.114,0,0,1,2.926-6.428,16.162,16.162,0,0,0-3.925-4.436c-2.145-1.564-4.16-1.632-5.988-.2-3.776,2.951-3.92,11.827-.418,25.667a183.428,183.428,0,0,0,6.7,20.634.833.833,0,0,1-1.546.624,185.133,185.133,0,0,1-6.767-20.834c-3.733-14.746-3.4-23.966,1-27.4,2.417-1.889,5.256-1.829,8,.169a17.272,17.272,0,0,1,3.962,4.338,17.662,17.662,0,0,1,1.366-1.577c3.188-3.253,6.975-4.325,10.661-3.02,2.3.813,3.237,3.9,2.879,9.443a97.867,97.867,0,0,1-2.9,16.247c-2.812,11.351-6.678,22.49-6.717,22.6A.833.833,0,0,1,1400.143,1000.525Zm-4.575-41.175a23.661,23.661,0,0,0-2.276,5.266c-.961,3.258-1.092,6.379-.35,8.349a3.084,3.084,0,0,0,2.783,2.263,2.426,2.426,0,0,0,2.733-1.781C1399.561,970.446,1398.221,964.314,1395.568,959.351Z" transform="translate(-1380.108 -950.391)" fill="#f5ca56"/>
      </g>
      <path id="Rectángulo_28256" data-name="Rectángulo 28256" d="M6.271,0h28.2A6.271,6.271,0,0,1,40.74,6.271v0a6.27,6.27,0,0,1-6.27,6.27H6.271A6.271,6.271,0,0,1,0,6.271v0A6.271,6.271,0,0,1,6.271,0Z" transform="translate(37.757 73.637)" fill="#3c4973"/>
      <path id="Trazado_97301" data-name="Trazado 97301" d="M1824.321,990.054h-10.659a2.747,2.747,0,0,1-2.747-2.747h0a2.747,2.747,0,0,1,2.747-2.747h10.659a2.747,2.747,0,0,1,2.747,2.747h0A2.747,2.747,0,0,1,1824.321,990.054Z" transform="translate(-1710.814 -956.115)" fill="#f5ca56"/>
      <path id="Trazado_97302" data-name="Trazado 97302" d="M1068.776,990.054h-10.659a2.747,2.747,0,0,1-2.747-2.747h0a2.747,2.747,0,0,1,2.747-2.747h10.659a2.747,2.747,0,0,1,2.747,2.747h0A2.747,2.747,0,0,1,1068.776,990.054Z" transform="translate(-1055.371 -956.115)" fill="#f5ca56"/>
      <path id="Trazado_97303" data-name="Trazado 97303" d="M1145.044,781.251l-8.482-6.454a2.747,2.747,0,0,1-.523-3.849h0a2.747,2.747,0,0,1,3.85-.523l8.482,6.454a2.748,2.748,0,0,1,.523,3.85h0A2.747,2.747,0,0,1,1145.044,781.251Z" transform="translate(-1124.865 -769.864)" fill="#f5ca56"/>
      <path id="Trazado_97304" data-name="Trazado 97304" d="M1747.543,781.251l8.482-6.454a2.747,2.747,0,0,0,.523-3.849h0a2.747,2.747,0,0,0-3.85-.523l-8.482,6.454a2.747,2.747,0,0,0-.523,3.85h0A2.747,2.747,0,0,0,1747.543,781.251Z" transform="translate(-1652.01 -769.864)" fill="#f5ca56"/>
      <path id="Trazado_97305" data-name="Trazado 97305" d="M1145.044,1176.808l-8.482,6.454a2.747,2.747,0,0,0-.523,3.849h0a2.747,2.747,0,0,0,3.85.523l8.482-6.454a2.748,2.748,0,0,0,.523-3.85h0A2.747,2.747,0,0,0,1145.044,1176.808Z" transform="translate(-1124.865 -1122.405)" fill="#f5ca56"/>
      <path id="Trazado_97306" data-name="Trazado 97306" d="M1747.543,1176.808l8.482,6.454a2.747,2.747,0,0,1,.523,3.849h0a2.748,2.748,0,0,1-3.85.523l-8.482-6.454a2.747,2.747,0,0,1-.523-3.85h0A2.747,2.747,0,0,1,1747.543,1176.808Z" transform="translate(-1652.01 -1122.405)" fill="#f5ca56"/>
    </g>
    <g id="Grupo_46794" data-name="Grupo 46794" transform="translate(498.594 975.132)">
      <g id="Grupo_46792" data-name="Grupo 46792" transform="translate(3.508 11.474)">
        <path id="Trazado_97307" data-name="Trazado 97307" d="M1386.505,2091.585v2.281h.621a.546.546,0,0,1,.546.546v.09a.546.546,0,0,1-.546.547h-26.471a.636.636,0,0,1-.635-.635v-3.285a.635.635,0,0,1,.635-.635h26.471a.545.545,0,0,1,.546.545h0a.546.546,0,0,1-.546.546Z" transform="translate(-1360.02 -2090.494)" fill="#f5ca56"/>
        <path id="Rectángulo_28257" data-name="Rectángulo 28257" d="M1.141,0H23.616a0,0,0,0,1,0,0V2.281a0,0,0,0,1,0,0H1.14A1.14,1.14,0,0,1,0,1.141v0A1.141,1.141,0,0,1,1.141,0Z" transform="translate(2.948 1.092)" fill="#fff"/>
      </g>
      <g id="Grupo_46793" data-name="Grupo 46793" transform="translate(0 6.432)">
        <path id="Trazado_97308" data-name="Trazado 97308" d="M1340.507,2061.977v2.524h-.622a.578.578,0,0,0-.545.6v.1a.577.577,0,0,0,.545.6h26.472a.672.672,0,0,0,.635-.7v-3.635a.672.672,0,0,0-.635-.7h-26.472a.577.577,0,0,0-.545.6h0a.577.577,0,0,0,.545.6Z" transform="translate(-1339.34 -2060.77)" fill="#1565c0"/>
        <path id="Rectángulo_28258" data-name="Rectángulo 28258" d="M1.262,0H23.616a0,0,0,0,1,0,0V2.524a0,0,0,0,1,0,0H1.262A1.262,1.262,0,0,1,0,1.262v0A1.262,1.262,0,0,1,1.262,0Z" transform="translate(24.704 3.732) rotate(180)" fill="#fff"/>
      </g>
      <path id="Rectángulo_28259" data-name="Rectángulo 28259" d="M2.046,0H24.023A2.047,2.047,0,0,1,26.07,2.047v0a2.047,2.047,0,0,1-2.047,2.047H2.046A2.046,2.046,0,0,1,0,2.047v0A2.046,2.046,0,0,1,2.046,0Z" transform="translate(2.157 0)" fill="#f5ca56"/>
      <rect id="Rectángulo_28260" data-name="Rectángulo 28260" width="26.069" height="2.339" rx="1.17" transform="translate(3.861 4.093)" fill="#26aab7"/>
    </g>
  </g>
</svg>
