<svg xmlns="http://www.w3.org/2000/svg" xmlns:xlink="http://www.w3.org/1999/xlink" width="308.125" height="255.266" viewBox="0 0 308.125 255.266">
  <defs>
    <filter id="Rectángulo_296385" x="0" y="0" width="280.044" height="239.514" filterUnits="userSpaceOnUse">
      <feOffset dy="3" input="SourceAlpha"/>
      <feGaussianBlur stdDeviation="3" result="blur"/>
      <feFlood flood-opacity="0.161"/>
      <feComposite operator="in" in2="blur"/>
      <feComposite in="SourceGraphic"/>
    </filter>
    <filter id="Rectángulo_296384" x="27.08" y="27.266" width="281.044" height="228" filterUnits="userSpaceOnUse">
      <feOffset dy="3" input="SourceAlpha"/>
      <feGaussianBlur stdDeviation="3" result="blur-2"/>
      <feFlood flood-opacity="0.161"/>
      <feComposite operator="in" in2="blur-2"/>
      <feComposite in="SourceGraphic"/>
    </filter>
  </defs>
  <g id="Grupo_889532" data-name="Grupo 889532" transform="translate(5894.08 9547.146)">
    <g transform="matrix(1, 0, 0, 1, -5894.08, -9547.15)" filter="url(#Rectángulo_296385)">
      <rect id="Rectángulo_296385-2" data-name="Rectángulo 296385" width="262.044" height="221.513" transform="translate(9 6)" fill="#f6f6f6"/>
    </g>
    <g transform="matrix(1, 0, 0, 1, -5894.08, -9547.15)" filter="url(#Rectángulo_296384)">
      <g id="Rectángulo_296384-2" data-name="Rectángulo 296384" transform="translate(36.08 33.27)" fill="#fff" stroke="#707070" stroke-width="1">
        <rect width="263.044" height="210" stroke="none"/>
        <rect x="0.5" y="0.5" width="262.044" height="209" fill="none"/>
      </g>
    </g>
    <circle id="Elipse_8069" data-name="Elipse 8069" cx="18.5" cy="18.5" r="18.5" transform="translate(-5840 -9500.845)" fill="#26aab7"/>
    <circle id="Elipse_8070" data-name="Elipse 8070" cx="18.5" cy="18.5" r="18.5" transform="translate(-5840 -9452.845)" fill="#1565c0"/>
    <circle id="Elipse_8071" data-name="Elipse 8071" cx="18.5" cy="18.5" r="18.5" transform="translate(-5840 -9404.845)" fill="#26aab7"/>
    <circle id="Elipse_8072" data-name="Elipse 8072" cx="18.5" cy="18.5" r="18.5" transform="translate(-5840 -9356.845)" fill="#1565c0"/>
    <circle id="Elipse_8057" data-name="Elipse 8057" cx="18.5" cy="18.5" r="18.5" transform="translate(-5745 -9500.845)" fill="#26aab7"/>
    <circle id="Elipse_8058" data-name="Elipse 8058" cx="18.5" cy="18.5" r="18.5" transform="translate(-5745 -9452.845)" fill="#1565c0"/>
    <circle id="Elipse_8059" data-name="Elipse 8059" cx="18.5" cy="18.5" r="18.5" transform="translate(-5745 -9404.845)" fill="#26aab7"/>
    <circle id="Elipse_8060" data-name="Elipse 8060" cx="18.5" cy="18.5" r="18.5" transform="translate(-5745 -9356.845)" fill="#1565c0"/>
    <ellipse id="Elipse_8065" data-name="Elipse 8065" cx="18" cy="18.5" rx="18" ry="18.5" transform="translate(-5792 -9500.845)" fill="#1565c0"/>
    <ellipse id="Elipse_8066" data-name="Elipse 8066" cx="18" cy="18.5" rx="18" ry="18.5" transform="translate(-5792 -9452.845)" fill="#26aab7"/>
    <ellipse id="Elipse_8067" data-name="Elipse 8067" cx="18" cy="18.5" rx="18" ry="18.5" transform="translate(-5792 -9404.845)" fill="#1565c0"/>
    <ellipse id="Elipse_8068" data-name="Elipse 8068" cx="18" cy="18.5" rx="18" ry="18.5" transform="translate(-5792 -9356.845)" fill="#26aab7"/>
    <ellipse id="Elipse_8061" data-name="Elipse 8061" cx="18" cy="18.5" rx="18" ry="18.5" transform="translate(-5697 -9500.845)" fill="#1565c0"/>
    <ellipse id="Elipse_8062" data-name="Elipse 8062" cx="18" cy="18.5" rx="18" ry="18.5" transform="translate(-5697 -9452.845)" fill="#26aab7"/>
    <ellipse id="Elipse_8063" data-name="Elipse 8063" cx="18" cy="18.5" rx="18" ry="18.5" transform="translate(-5697 -9356.845)" fill="#26aab7"/>
    <circle id="Elipse_8053" data-name="Elipse 8053" cx="18.5" cy="18.5" r="18.5" transform="translate(-5650 -9500.845)" fill="#26aab7"/>
    <circle id="Elipse_8054" data-name="Elipse 8054" cx="18.5" cy="18.5" r="18.5" transform="translate(-5650 -9452.845)" fill="#1565c0"/>
    <circle id="Elipse_8055" data-name="Elipse 8055" cx="18.5" cy="18.5" r="18.5" transform="translate(-5650 -9404.845)" fill="#26aab7"/>
    <circle id="Elipse_8064" data-name="Elipse 8064" cx="18.5" cy="18.5" r="18.5" transform="translate(-5697 -9404.845)" fill="#1565c0"/>
    <circle id="Elipse_8056" data-name="Elipse 8056" cx="18.5" cy="18.5" r="18.5" transform="translate(-5650 -9356.845)" fill="#1565c0"/>
  </g>
</svg>
