<svg xmlns="http://www.w3.org/2000/svg" xmlns:xlink="http://www.w3.org/1999/xlink" width="363.074" height="249.084" viewBox="0 0 363.074 249.084">
  <defs>
    <filter id="Rectángulo_296413" x="0" y="0" width="329.677" height="230.349" filterUnits="userSpaceOnUse">
      <feOffset dy="3" input="SourceAlpha"/>
      <feGaussianBlur stdDeviation="3" result="blur"/>
      <feFlood flood-opacity="0.161"/>
      <feComposite operator="in" in2="blur"/>
      <feComposite in="SourceGraphic"/>
    </filter>
    <filter id="Rectángulo_296414" x="32.209" y="32.43" width="330.865" height="216.654" filterUnits="userSpaceOnUse">
      <feOffset dy="3" input="SourceAlpha"/>
      <feGaussianBlur stdDeviation="3" result="blur-2"/>
      <feFlood flood-opacity="0.161"/>
      <feComposite operator="in" in2="blur-2"/>
      <feComposite in="SourceGraphic"/>
    </filter>
    <clipPath id="clip-path">
      <rect id="Rectángulo_296422" data-name="Rectángulo 296422" width="274.63" height="150.375" fill="#12263f"/>
    </clipPath>
  </defs>
  <g id="Grupo_889541" data-name="Grupo 889541" transform="translate(8848.08 8737.189)">
    <g transform="matrix(1, 0, 0, 1, -8848.08, -8737.19)" filter="url(#Rectángulo_296413)">
      <rect id="Rectángulo_296413-2" data-name="Rectángulo 296413" width="311.676" height="212.348" transform="translate(9 6)" fill="#f6f6f6"/>
    </g>
    <g transform="matrix(1, 0, 0, 1, -8848.08, -8737.19)" filter="url(#Rectángulo_296414)">
      <g id="Rectángulo_296414-2" data-name="Rectángulo 296414" transform="translate(41.21 38.43)" fill="#fff" stroke="#707070" stroke-width="1">
        <rect width="312.866" height="198.654" stroke="none"/>
        <rect x="0.5" y="0.5" width="311.866" height="197.654" fill="none"/>
      </g>
    </g>
    <g id="Grupo_882766" data-name="Grupo 882766" transform="translate(-8787.754 -8671.216)">
      <g id="Grupo_882765" data-name="Grupo 882765" clip-path="url(#clip-path)">
        <path id="Trazado_599785" data-name="Trazado 599785" d="M16.637,587.5a16.6,16.6,0,1,1-.281,33.208,16.6,16.6,0,0,1,.281-33.208m-5.854,23.079c2.885-.106,5.307-1.1,6.8-3.72,1.609-2.822.82-6-1.761-7.308a8.156,8.156,0,0,0-9.612,2.273c-1.64,2.2-1.725,5.24-.129,6.988a5.929,5.929,0,0,0,4.7,1.768M20.95,599.216l-1.73,10.949h3.952c.258-1.552.5-3.119.782-4.681.434-2.444,1.908-3.394,4.295-2.794a4.114,4.114,0,0,0,.455.054l.569-3.646a5.085,5.085,0,0,0-4.542,1.649l.145-1.532Z" transform="translate(0 -470.335)" fill="#12263f"/>
        <path id="Trazado_599786" data-name="Trazado 599786" d="M541.88,372.136l15.451,38.2a15.527,15.527,0,0,0-1.615.011c-.648.074-.929-.22-1.157-.794-1.386-3.482-2.828-6.943-4.2-10.431a1.293,1.293,0,0,0-1.448-.973q-7.077.071-14.154,0a1.237,1.237,0,0,0-1.38.917c-1.372,3.487-2.814,6.946-4.2,10.428a1.247,1.247,0,0,1-1.213.873c-2.3.318-3.689-.521-4.964-2.533-3.073-4.849-6.468-9.493-9.711-14.234-.392-.573-.775-.986-1.659-.678V410.28H509.3V373.251a86.356,86.356,0,0,1,9.663.58c4.228.709,6.836,4.134,7.029,8.494.148,3.343-.6,6.348-3.419,8.493a10.734,10.734,0,0,1-5.951,2c-.32.022-.644,0-1.18,0l11.365,16.448,15.072-37.132m-30.2,3.522v15.077c2.067-.106,4.066-.079,6.026-.339a6.944,6.944,0,0,0,5.88-6.274c.423-3.458-1.185-6.594-4.1-7.785-2.5-1.023-5.14-.733-7.808-.678m22.994,20.255H549.03l-7.151-17.693-7.2,17.693" transform="translate(-407.729 -297.92)" fill="#12263f"/>
        <path id="Trazado_599787" data-name="Trazado 599787" d="M1202.323,46.132l.085-1.742h6.965V64.356h-6.988V62.2a7.261,7.261,0,0,1-4.321,2.685,10,10,0,0,1-11.752-8.265,10.853,10.853,0,0,1,3.656-10.768,9.486,9.486,0,0,1,12.354.278m-4.288,3.784a4.314,4.314,0,0,0-4.57,4.447,4.261,4.261,0,0,0,4.479,4.516,4.484,4.484,0,1,0,.091-8.963" transform="translate(-949.545 -34.986)" fill="#12263f"/>
        <path id="Trazado_599788" data-name="Trazado 599788" d="M246.019,42.7c3.405.267,6.492,1.114,8.988,3.475a10.332,10.332,0,0,1-2.067,16.343,13.882,13.882,0,0,1-13.381.27c-4.206-2.073-5.994-5.7-5.563-10.323.409-4.391,2.939-7.241,7-8.678a38.867,38.867,0,0,1,5.019-1.087m4.548,10.924a4.57,4.57,0,0,0-9.138.018,4.571,4.571,0,0,0,9.138-.018" transform="translate(-187.279 -34.184)" fill="#12263f"/>
        <path id="Trazado_599789" data-name="Trazado 599789" d="M680.385,29.509H672.77V.117h16.77V6.5h-9.085v4.938h8.268v6.539h-8.338Z" transform="translate(-538.598 -0.094)" fill="#12263f"/>
        <path id="Trazado_599790" data-name="Trazado 599790" d="M509.957,55.674H495.134a3.7,3.7,0,0,0,1.675,3.818,4.611,4.611,0,0,0,5.785-.882,1.034,1.034,0,0,1,.64-.352c1.86-.029,3.721-.019,5.581-.016.227,0,.455.034.795.062a7.269,7.269,0,0,1-3,4.67c-3.134,2.3-6.679,2.584-10.361,1.867A9.577,9.577,0,0,1,489.5,60.5,11.208,11.208,0,0,1,489.185,49c1.841-3.561,5.127-4.925,8.966-5.152a11.942,11.942,0,0,1,6.745,1.331c4.023,2.279,5.087,6.029,5.062,10.494m-6.788-4.116a3.8,3.8,0,0,0-3.941-3.145c-2.128.025-3.821,1.356-3.956,3.145Z" transform="translate(-390.48 -35.079)" fill="#12263f"/>
        <path id="Trazado_599791" data-name="Trazado 599791" d="M770.313,47.227h7.045v2.212c0,2.758,0,5.517,0,8.275a10.44,10.44,0,0,0,.082,1.491c.32,2.178,1.358,3,3.709,2.96,2.008-.03,3.068-.919,3.217-3.017.159-2.249.125-4.512.152-6.769.02-1.69,0-3.381,0-5.138h7.08v1.121c0,3.755.019,7.511-.006,11.266-.027,4.07-2.054,6.72-6,7.729a18.494,18.494,0,0,1-9.654-.08,7.181,7.181,0,0,1-5.687-7.161c-.1-4.151-.024-8.307-.02-12.461a2.831,2.831,0,0,1,.071-.426" transform="translate(-616.604 -37.808)" fill="#12263f"/>
        <path id="Trazado_599792" data-name="Trazado 599792" d="M986.531,47.22h6.955a1.263,1.263,0,0,1,.1.32c0,4.253.116,8.51-.038,12.758-.136,3.733-2.176,6.055-5.82,7.015a18.578,18.578,0,0,1-9.556.011,7.279,7.279,0,0,1-5.917-7.394c-.086-4.119-.014-8.241-.008-12.361a1.918,1.918,0,0,1,.073-.339h7.041V48.3q0,4.586,0,9.172c0,.365.007.731.029,1.1.2,3.351,2.08,3.9,4.731,3.49a2.642,2.642,0,0,0,2.21-2.4,14.063,14.063,0,0,0,.188-2.28c.019-3.354.008-6.708.008-10.164" transform="translate(-778.324 -37.803)" fill="#12263f"/>
        <path id="Trazado_599793" data-name="Trazado 599793" d="M136.3,0h7.59V22.94h9.131V29.4H136.3Z" transform="translate(-109.117)" fill="#12263f"/>
        <path id="Trazado_599794" data-name="Trazado 599794" d="M941.506,397.708H928.368v-2.062h15.488c.191,5.019-.854,9.578-4.716,13.108a19.224,19.224,0,0,1-31.651-9.569c-2.435-9.745,3.9-20.115,13.84-22.666a19.287,19.287,0,0,1,20.79,7.719,2.432,2.432,0,0,1,.15.321l-1.745,1.392a45.24,45.24,0,0,0-3.545-3.736c-4.787-4.048-10.256-5.291-16.181-3.118-6.172,2.264-10.129,6.76-11.159,13.283-1.135,7.186,1.741,12.9,7.826,16.713,6.1,3.828,12.308,3.295,18.267-.617a12.248,12.248,0,0,0,5.711-9.565c.033-.359.038-.72.062-1.2" transform="translate(-726.088 -300.927)" fill="#12263f"/>
        <path id="Trazado_599795" data-name="Trazado 599795" d="M383.374,46.871l-4.148,7.938c-1.966,3.762-3.948,7.516-5.883,11.294a1.32,1.32,0,0,1-1.452.868c-1.181-.093-2.6.3-3.491-.232-.856-.508-1.182-1.921-1.722-2.946q-4.238-8.056-8.465-16.118c-.106-.2-.2-.411-.35-.729.347-.03.619-.073.892-.074,2.025-.006,4.052.034,6.076-.022a1.278,1.278,0,0,1,1.415.882c1.274,2.843,2.615,5.656,3.935,8.479.111.238.243.466.432.826.251-.5.462-.907.653-1.318,1.269-2.737,2.524-5.48,3.817-8.206.128-.269.479-.609.732-.614,2.449-.046,4.9-.028,7.56-.028" transform="translate(-286.492 -37.506)" fill="#12263f"/>
        <path id="Trazado_599796" data-name="Trazado 599796" d="M1113.439,378.176h2.3v15.607H1138.1c.016-.357.045-.709.045-1.061q0-6.578,0-13.156c0-1.449,0-1.451,1.437-1.44.261,0,.522.024.855.04v36.905h-2.262V396.086H1115.8v18.962h-2.364Z" transform="translate(-891.382 -302.714)" fill="#12263f"/>
        <path id="Trazado_599797" data-name="Trazado 599797" d="M895.622,29.036h-2.207v-5.9h2.15V17.156h7.16V23.09h4.062c0,1.893.019,3.676-.031,5.456,0,.167-.432.448-.673.46-1.058.051-2.12.022-3.31.022v14.1h-7.151Z" transform="translate(-715.238 -13.735)" fill="#12263f"/>
        <rect id="Rectángulo_296415" data-name="Rectángulo 296415" width="7.534" height="29.345" transform="translate(1.685 0.042)" fill="#12263f"/>
        <path id="Trazado_599798" data-name="Trazado 599798" d="M365.554,378.474c0,.445,0,.837,0,1.229q.016,11.816.042,23.632a19.129,19.129,0,0,0,.242,2.677c.777,5.326,4.915,7.182,9.01,7.627a11.418,11.418,0,0,0,5.547-.914,8.089,8.089,0,0,0,5.3-7,29.4,29.4,0,0,0,.21-3.478q.027-11.267.009-22.535V378.47h2.321c.018.319.051.638.051.956,0,8.01.039,16.021-.031,24.031a18.514,18.514,0,0,1-.7,4.9,9.822,9.822,0,0,1-6.235,6.42,14.084,14.084,0,0,1-12.921-.9c-3.676-2.143-5.126-5.564-5.163-9.62-.077-8.475-.043-16.951-.052-25.426a2.289,2.289,0,0,1,.067-.358Z" transform="translate(-290.755 -302.991)" fill="#12263f"/>
        <path id="Trazado_599799" data-name="Trazado 599799" d="M128.727,378.349H131.1c0,.412,0,.794,0,1.176,0,7.31.029,14.62-.018,21.93a32.432,32.432,0,0,1-.436,5.646,9.79,9.79,0,0,1-6,7.329,14.084,14.084,0,0,1-13.12-.442,9.91,9.91,0,0,1-5.449-9.018c-.133-8.77-.055-17.543-.061-26.314a1.461,1.461,0,0,1,.069-.271h2.283c0,.363,0,.745,0,1.127,0,8.008-.1,16.017.044,24.023.137,7.488,6.226,11.73,13.423,9.565,4.367-1.314,6.584-3.94,6.713-8.538.183-6.507.14-13.02.184-19.531.015-2.19,0-4.381,0-6.68" transform="translate(-84.853 -302.894)" fill="#12263f"/>
        <path id="Trazado_599800" data-name="Trazado 599800" d="M1103.662,45.887h7.015v3.052a2.261,2.261,0,0,0,.385-.307c1.669-2.477,4.128-3.176,6.932-3.037a.9.9,0,0,1,.64.591c.049,2.018.029,4.037.029,5.963a30.574,30.574,0,0,0-3.389-.347,3.977,3.977,0,0,0-4.319,3.8c-.237,2.335-.176,4.7-.229,7.054-.023,1.056,0,2.112,0,3.229h-7.059Z" transform="translate(-883.555 -36.489)" fill="#12263f"/>
        <path id="Trazado_599801" data-name="Trazado 599801" d="M1335.665.084H1343V19.466c-2.291,0-4.538.018-6.785-.032-.188,0-.515-.454-.526-.708-.055-1.292-.029-2.588-.029-3.882q0-6.771,0-13.542Z" transform="translate(-1069.285 -0.067)" fill="#12263f"/>
        <path id="Trazado_599802" data-name="Trazado 599802" d="M6.319,378.816h14.8v2.139H8.683V394.32H20.756v2.172H8.65v19.13H6.319Z" transform="translate(-5.059 -303.267)" fill="#12263f"/>
        <path id="Trazado_599803" data-name="Trazado 599803" d="M1273.012,380.656h-9.535v-2.182c.362-.017.685-.044,1.009-.044,6.444,0,12.888.017,19.331-.023.9-.006,1.12.269,1.109,1.128-.01.821-.148,1.167-1.087,1.144-2.785-.068-5.572-.025-8.487-.025V415.29h-2.34Z" transform="translate(-1011.498 -302.94)" fill="#12263f"/>
        <path id="Trazado_599804" data-name="Trazado 599804" d="M253.679,381.021h-9.515v-2.158h21.348v2.13h-9.48v34.643h-2.353Z" transform="translate(-195.47 -303.305)" fill="#12263f"/>
        <path id="Trazado_599805" data-name="Trazado 599805" d="M794.266,415.289V378.424h2.3v34.7h9.372v2.164Z" transform="translate(-635.863 -302.953)" fill="#12263f"/>
        <path id="Trazado_599806" data-name="Trazado 599806" d="M693.447,683.538a2.853,2.853,0,0,1,1.845,3.324,3.568,3.568,0,0,1-3.278,3.213,8.55,8.55,0,0,1-.995.044c-1.49,0-2.98,0-4.537,0V677.015c2.095.027,4.22-.331,6.278.368a3.231,3.231,0,0,1,2.206,4.1,8.251,8.251,0,0,1-1.519,2.051M690,687.246c1.12.05,1.721-.361,1.756-1.161.036-.836-.569-1.288-1.756-1.268Zm0-5.187c1.174-.048,1.715-.5,1.573-1.276-.162-.885-.782-1.014-1.631-.878,0,.5-.006.962,0,1.42,0,.225.033.45.055.734" transform="translate(-549.575 -541.941)" fill="#12263f"/>
        <path id="Trazado_599807" data-name="Trazado 599807" d="M1230.569,687.674h-3.328l-.138-.817c-.07.016-.15.01-.182.046a2.378,2.378,0,0,1-4.249-.724,8.649,8.649,0,0,1-.182-5.659c.567-2.142,2.963-3.136,4.7-.922v-5.665h3.375Zm-3.22-4.486a7.122,7.122,0,0,0-.2-1.368c-.089-.262-.406-.617-.623-.619a.9.9,0,0,0-.689.554,17.151,17.151,0,0,0,.035,2.727c.016.185.416.472.634.467a.882.882,0,0,0,.62-.5,6.224,6.224,0,0,0,.224-1.259" transform="translate(-978.376 -539.528)" fill="#12263f"/>
        <path id="Trazado_599808" data-name="Trazado 599808" d="M808.756,687.6h-3.3l-.079-.826c-.09.025-.2.023-.257.078-1.635,1.626-3.526,1.217-4.326-.964a8.455,8.455,0,0,1-.147-5.193c.706-2.652,2.775-3.213,4.785-1.2v-5.659h3.32Zm-3.224-4.471a4.336,4.336,0,0,0-.111-1.22,3.578,3.578,0,0,0-.7-.835c-.242.24-.668.464-.692.724a12.666,12.666,0,0,0,.041,2.537c.024.218.426.51.685.545.182.025.527-.291.6-.52a6.166,6.166,0,0,0,.18-1.232" transform="translate(-640.705 -539.456)" fill="#12263f"/>
        <path id="Trazado_599809" data-name="Trazado 599809" d="M1010.364,679.584v-5.713h3.313v13.724h-3.32l-.123-.761a7.073,7.073,0,0,1-1.579.96,2.329,2.329,0,0,1-2.814-1.5,8.044,8.044,0,0,1-.006-6.4c.823-1.969,2.755-2.13,4.529-.312m.049,3.52a4.792,4.792,0,0,0-.109-1.188,3.16,3.16,0,0,0-.624-.808c-.27.245-.741.466-.774.74a10.1,10.1,0,0,0,.025,2.44.947.947,0,0,0,.716.608c.251-.03.539-.421.657-.717a3.784,3.784,0,0,0,.109-1.073" transform="translate(-804.709 -539.479)" fill="#12263f"/>
        <path id="Trazado_599810" data-name="Trazado 599810" d="M878.009,377.981v36.8h-2.252c-.02-.43-.057-.85-.057-1.269q0-16.9,0-33.8c0-2.1,0-2.1,2.312-1.733" transform="translate(-701.054 -302.45)" fill="#12263f"/>
        <path id="Trazado_599811" data-name="Trazado 599811" d="M471.429,685.493a14.732,14.732,0,0,1-1.6-.011c-.832-.093-1.168.223-1.048,1.053.046.318.042.644.065,1.041h2.924v2.971h-6.4V677.568h6.427v2.995h-2.943V682.4h2.582Z" transform="translate(-372.555 -542.438)" fill="#12263f"/>
        <path id="Trazado_599812" data-name="Trazado 599812" d="M395.166,697.322c-.026-.425-.047-.782-.072-1.208.871,0,1.7,0,2.524,0,.26,0,.521.023.846.038v9.09h-3.249c-.019-.339-.038-.659-.058-1.021-.092.036-.192.045-.242.1-1.652,1.855-3.7,1.492-4.469-.855a8.191,8.191,0,0,1,.068-5.662c.88-2.245,2.82-2.533,4.377-.7a2.007,2.007,0,0,0,.275.213m-1.669,3.34a7.842,7.842,0,0,0,.169,1.437.867.867,0,0,0,.579.54c.212.008.61-.29.625-.478a24.725,24.725,0,0,0,.046-2.93c-.007-.171-.342-.449-.537-.458a.743.743,0,0,0-.579.408,11.584,11.584,0,0,0-.3,1.482" transform="translate(-312.201 -557.119)" fill="#12263f"/>
        <path id="Trazado_599813" data-name="Trazado 599813" d="M1296.095,697.5c-.046-.6-.071-.922-.1-1.3h3.363v9.062h-3.281v-1.2c-.282.335-.43.537-.6.712a2.25,2.25,0,0,1-3.754-.513,7.612,7.612,0,0,1-.014-7,2.259,2.259,0,0,1,3.876-.409c.127.146.241.3.513.643m-1.688,3.179a7.96,7.96,0,0,0,.166,1.446.871.871,0,0,0,.574.546c.21.012.613-.283.629-.469a24.876,24.876,0,0,0,.06-2.936c-.006-.171-.341-.45-.538-.462a.744.744,0,0,0-.587.4,11.286,11.286,0,0,0-.3,1.474" transform="translate(-1033.421 -557.148)" fill="#12263f"/>
        <path id="Trazado_599814" data-name="Trazado 599814" d="M622.189,705.462h-3.262c.023-.412.043-.768.07-1.253-.345.367-.582.669-.869.915a2.251,2.251,0,0,1-3.679-.907,8.092,8.092,0,0,1-.3-5.827c.782-2.577,2.781-2.96,4.749-.87l-.058-1.138h3.345Zm-3.315-4.508a3.987,3.987,0,0,0-.08-1.132,4.128,4.128,0,0,0-.653-.871c-.244.272-.658.522-.7.822a10.189,10.189,0,0,0-.025,2.358c.027.271.394.509.606.762.239-.237.588-.435.69-.721a4.946,4.946,0,0,0,.161-1.218" transform="translate(-491.348 -557.332)" fill="#12263f"/>
        <path id="Trazado_599815" data-name="Trazado 599815" d="M1340.3,110.039a4.527,4.527,0,0,1-4.5,4.6,4.562,4.562,0,1,1-.08-9.123,4.52,4.52,0,0,1,4.584,4.519" transform="translate(-1065.67 -84.476)" fill="#12263f"/>
        <path id="Trazado_599816" data-name="Trazado 599816" d="M1097.71,696.231h3.282v1.437c.27-.334.431-.545.6-.746a2.3,2.3,0,0,1,2.389-.866,2.153,2.153,0,0,1,1.7,1.874,16.078,16.078,0,0,1,.154,2.48c.022,1.593.006,3.186.006,4.868h-3.428c0-1.472.026-2.957-.014-4.44-.015-.534.284-1.412-.6-1.423-.916-.012-.714.9-.734,1.474-.049,1.451-.016,2.905-.016,4.417h-3.341Z" transform="translate(-878.79 -557.185)" fill="#12263f"/>
        <path id="Trazado_599817" data-name="Trazado 599817" d="M969.227,705.313H965.8c0-1.538.023-3.022-.012-4.5-.013-.546.213-1.4-.668-1.393-.859.007-.659.854-.672,1.4-.034,1.455-.012,2.912-.012,4.459h-3.344v-9.036h3.284v1.421c.247-.32.393-.526.557-.717a2.306,2.306,0,0,1,2.376-.891A2.086,2.086,0,0,1,969.045,698c.144,1.48.141,2.976.177,4.466.023.922,0,1.845,0,2.852" transform="translate(-769.421 -557.191)" fill="#12263f"/>
        <path id="Trazado_599818" data-name="Trazado 599818" d="M879.349,679.655c-2.373-.99-3.734-.165-3.923,2.338a7.762,7.762,0,0,0,.2,2.365c.413,1.712,1.7,2.253,3.269,1.46.139-.071.276-.145.446-.234,0,1.056.058,2.04-.038,3.009-.026.259-.485.588-.806.687a4.957,4.957,0,0,1-6.036-2.951,9.334,9.334,0,0,1-.108-6.912,5.524,5.524,0,0,1,6.148-3.508c.625.125.907.383.866,1.057-.054.879-.013,1.763-.013,2.689" transform="translate(-697.884 -541.032)" fill="#12263f"/>
        <path id="Trazado_599819" data-name="Trazado 599819" d="M191.479,677.45h6.129v3H195.03v1.935l2.367.127v2.966H194.99v4.969h-3.511Z" transform="translate(-153.292 -542.344)" fill="#12263f"/>
        <path id="Trazado_599820" data-name="Trazado 599820" d="M230.063,697.19h3.364c0,1.3,0,2.548,0,3.8a8.315,8.315,0,0,0,.032,1.686,3.526,3.526,0,0,0,.66,1.037c.205-.335.571-.662.588-1.007.072-1.423.039-2.852.044-4.279,0-.39,0-.78,0-1.227h3.556a64.365,64.365,0,0,1-.5,7.058c-.317,1.823-2.536,2.648-4.843,2.172a3.255,3.255,0,0,1-2.879-3.1c-.11-2.012-.026-4.035-.026-6.142" transform="translate(-184.156 -558.147)" fill="#12263f"/>
        <path id="Trazado_599821" data-name="Trazado 599821" d="M309.873,697.044a2.838,2.838,0,0,1,.427-.074c.927-.006,1.854,0,2.942,0v3.586c0,.531-.028,1.064.007,1.592s-.187,1.321.61,1.344.645-.775.658-1.3c.029-1.16.009-2.322.008-3.483v-1.662h3.264a55.571,55.571,0,0,1-.061,6.7c-.247,2.014-2.462,2.991-4.907,2.519a3.235,3.235,0,0,1-2.921-3.157c-.111-2.007-.026-4.025-.026-6.065" transform="translate(-248.049 -557.968)" fill="#12263f"/>
        <path id="Trazado_599822" data-name="Trazado 599822" d="M1059.862,701.47h-5.243c.3.574.415,1.047.719,1.286.146.115.63-.253.977-.324a10.627,10.627,0,0,1,1.532-.191c.557-.031,1.118-.007,1.926-.007a11.18,11.18,0,0,1-.841,1.762,4.035,4.035,0,0,1-4.175,1.472,3.582,3.582,0,0,1-3.039-2.529,6.007,6.007,0,0,1,.14-4.368,4.075,4.075,0,0,1,4.257-2.611,3.935,3.935,0,0,1,3.532,3.38c.12.644.136,1.307.215,2.131m-3.637-1.893.263-.268c-.3-.291-.613-.817-.907-.808s-.6.534-.9.834l.2.243Z" transform="translate(-841.694 -557.145)" fill="#12263f"/>
        <path id="Trazado_599823" data-name="Trazado 599823" d="M1186.859,701.494h-5.244a4.2,4.2,0,0,0,.719,1.272c.144.115.632-.26.981-.333a10.494,10.494,0,0,1,1.535-.191c.558-.031,1.12-.007,1.942-.007a11.3,11.3,0,0,1-.928,1.848,4.062,4.062,0,0,1-4.122,1.389,3.588,3.588,0,0,1-3.036-2.54,6.017,6.017,0,0,1,.147-4.371,4.066,4.066,0,0,1,4.17-2.6,3.9,3.9,0,0,1,3.6,3.308c.139.671.152,1.368.241,2.228m-5.18-2.233.242.329h1.329l.212-.238c-.28-.3-.553-.839-.844-.848s-.625.483-.939.757" transform="translate(-943.36 -557.149)" fill="#12263f"/>
        <path id="Trazado_599824" data-name="Trazado 599824" d="M741.645,700.754c-.04,3.665-3.078,5.766-6.214,4.3-2.044-.957-2.94-3.952-1.961-6.549,1.085-2.876,5.221-3.623,7.077-1.172a13.915,13.915,0,0,1,1.371,3.315l-.273.108m-3.265-.08a9.921,9.921,0,0,0-.3-1.61c-.092-.258-.457-.61-.665-.588-.279.029-.735.365-.749.592a26.594,26.594,0,0,0,.031,3.323.8.8,0,0,0,.621.5.994.994,0,0,0,.728-.514,10.939,10.939,0,0,0,.336-1.7" transform="translate(-586.873 -557.079)" fill="#12263f"/>
        <path id="Trazado_599825" data-name="Trazado 599825" d="M922.858,700.762c.008,3.568-2.545,5.616-5.725,4.592-1.693-.545-2.67-2.028-2.819-4.278-.232-3.512,2.34-5.756,5.6-4.884,1.833.49,2.938,2.206,2.944,4.571m-5.29-.035a11.447,11.447,0,0,0,.329,1.736.962.962,0,0,0,.708.549c.24,0,.672-.342.685-.554a26.535,26.535,0,0,0-.005-3.327c-.014-.209-.452-.546-.691-.542a.986.986,0,0,0-.7.56,9.311,9.311,0,0,0-.327,1.578" transform="translate(-731.958 -557.197)" fill="#12263f"/>
        <path id="Trazado_599826" data-name="Trazado 599826" d="M501.609,706.053c.8-1.377,1.463-2.63,2.246-3.8a1.471,1.471,0,0,0-.029-1.865c-.715-1.1-1.35-2.252-2.1-3.515,1.266,0,2.353-.026,3.436.023.205.009.464.28.579.495a13.411,13.411,0,0,1,.571,1.554c.476-3.255,2.738-1.661,4.4-1.956-.679,1.106-1.313,2.244-2.055,3.307a1.434,1.434,0,0,0-.009,1.928c.822,1.155,1.512,2.4,2.388,3.824-1.34,0-2.506.028-3.669-.03-.171-.009-.357-.407-.474-.654-.183-.386-.312-.8-.472-1.217-.783.495-.345,2.043-1.789,1.925-.942-.077-1.895-.015-3.021-.015" transform="translate(-401.572 -557.874)" fill="#12263f"/>
        <path id="Trazado_599827" data-name="Trazado 599827" d="M1148.855,696.685l-1.1,2.373a3.711,3.711,0,0,0-.944-.552,2.758,2.758,0,0,0-.955.124c.14.265.22.608.436.777a5.737,5.737,0,0,0,1.071.513,2.518,2.518,0,0,1,1.662,2.381,2.866,2.866,0,0,1-1.58,2.69c-1.835.954-3.585.547-5.354-.433l1.164-2.349a9.465,9.465,0,0,0,1.508.723c.244.07.576-.168.868-.266a2.864,2.864,0,0,0-.5-.729,4.109,4.109,0,0,0-.908-.395,2.561,2.561,0,0,1-1.8-2.494,2.8,2.8,0,0,1,1.8-2.74,5.215,5.215,0,0,1,4.636.377" transform="translate(-914.321 -557.134)" fill="#12263f"/>
        <path id="Trazado_599828" data-name="Trazado 599828" d="M1344.274,696.665l-1.112,2.369a6.039,6.039,0,0,0-1.152-.639c-.21-.064-.5.148-.761.236.1.226.129.546.3.658a14.587,14.587,0,0,0,1.331.657,2.779,2.779,0,0,1,.313,4.814,4.994,4.994,0,0,1-5.648-.3l1.13-2.292a7.561,7.561,0,0,0,1.4.722c.277.079.639-.137.962-.221a3.215,3.215,0,0,0-.57-.783,6.241,6.241,0,0,0-1-.431,2.546,2.546,0,0,1-1.633-2.4,2.771,2.771,0,0,1,1.586-2.666,5.133,5.133,0,0,1,4.854.272" transform="translate(-1070.793 -557.115)" fill="#12263f"/>
        <path id="Trazado_599829" data-name="Trazado 599829" d="M1216.376,316.924l.944-3.922h2.56c-.777,2.194-1.518,4.338-2.32,6.459-.07.184-.538.268-.833.3a12.431,12.431,0,0,1-1.383.013l-.721-3.188-.17-.043c-.2.792-.4,1.584-.607,2.375-.126.485-.223.991-.938.862-.618-.112-1.372.319-1.693-.714-.628-2.02-1.377-4-2.1-6.068h2.531l.881,3.89,1.012-3.894h1.9l.939,3.928" transform="translate(-967.977 -250.574)" fill="#12263f"/>
        <rect id="Rectángulo_296416" data-name="Rectángulo 296416" width="3.304" height="13.727" transform="translate(155.557 134.402)" fill="#12263f"/>
        <path id="Trazado_599830" data-name="Trazado 599830" d="M555.647,686.416l1.139.1v2.608l-1.07.154v6.3h-3.4v-6.262l-.953-.187v-2.579l.924-.163v-2.525h3.364Z" transform="translate(-441.4 -547.475)" fill="#12263f"/>
        <path id="Trazado_599831" data-name="Trazado 599831" d="M277.586,695.248v-6.168c-1.777-.482-.552-1.862-1.033-2.809l1.024-.234c0-.6.029-1.19-.008-1.78-.038-.609.2-.83.806-.8.824.038,1.651.009,2.581.009v2.572l1.1.183v2.573l-1.019.162v6.294Z" transform="translate(-221.399 -547.15)" fill="#12263f"/>
        <path id="Trazado_599832" data-name="Trazado 599832" d="M903.23,189.274h1.187a3.875,3.875,0,0,1,.075.522c0,3.584,0,7.168-.206,10.886l-8.6-8.912v8.6l-1.16.064V188.82l8.7,9.069Z" transform="translate(-716.128 -151.163)" fill="#12263f"/>
        <path id="Trazado_599833" data-name="Trazado 599833" d="M360.5,694.974v1.018l2.37-1.589v3.755c-.6.13-1.441.066-1.744.437a3.863,3.863,0,0,0-.556,2.028c-.091,1.055-.038,2.122-.051,3.183,0,.058-.049.116-.1.232h-3.271v-9.065Z" transform="translate(-285.921 -555.916)" fill="#12263f"/>
        <path id="Trazado_599834" data-name="Trazado 599834" d="M588.478,699.725c-1.753-.351-2.3.1-2.334,1.842-.021,1.194-.018,2.387-.031,3.581,0,.059-.05.117-.107.239h-3.286v-9.056h3.365c-.026.425-.051.845-.089,1.471.664-.98,1.278-1.756,2.483-1.7Z" transform="translate(-466.505 -557.271)" fill="#12263f"/>
        <path id="Trazado_599835" data-name="Trazado 599835" d="M272.524,319.271a3.55,3.55,0,0,1-3.808-3.585,3.835,3.835,0,1,1,3.808,3.585m1.295-3.525a1.268,1.268,0,0,0-1.32-1.3,1.328,1.328,0,0,0,.062,2.655,1.256,1.256,0,0,0,1.258-1.356" transform="translate(-215.124 -249.932)" fill="#12263f"/>
        <path id="Trazado_599836" data-name="Trazado 599836" d="M1059.8,315.693a3.83,3.83,0,0,1-7.636.079,3.828,3.828,0,0,1,7.636-.079m-2.491.091a1.3,1.3,0,0,0-1.292-1.346,1.256,1.256,0,0,0-1.31,1.3,1.243,1.243,0,0,0,1.265,1.342,1.3,1.3,0,0,0,1.338-1.3" transform="translate(-842.324 -249.92)" fill="#12263f"/>
        <path id="Trazado_599837" data-name="Trazado 599837" d="M1138.329,319.283c0-1.962,0-3.845,0-5.728,0-.324.03-.647.054-1.146a34.421,34.421,0,0,1,4.1.312,3.342,3.342,0,0,1-.581,6.55c-1.15.067-2.307.013-3.578.013m2.549-2.012c1.258-.123,1.757-.667,1.586-1.607-.141-.773-.688-1.083-1.586-.894Z" transform="translate(-911.308 -250.104)" fill="#12263f"/>
        <path id="Trazado_599838" data-name="Trazado 599838" d="M1341.085,313h2.392v6.72h-2.346v-2.272l-1.569-.069v2.343h-2.411v-6.689h2.343v2.134h1.591Z" transform="translate(-1070.479 -250.578)" fill="#12263f"/>
        <path id="Trazado_599839" data-name="Trazado 599839" d="M1016.479,316.514a1.73,1.73,0,0,1,1.066,2.026,1.934,1.934,0,0,1-2.026,1.445c-1.221.05-2.447.012-3.758.012v-6.67c1.354,0,2.734-.1,4.092.027a1.711,1.711,0,0,1,.625,3.16m-2.417,1.764.246.293.94-.78-1.185-.844Z" transform="translate(-809.983 -250.809)" fill="#12263f"/>
        <path id="Trazado_599840" data-name="Trazado 599840" d="M665.906,319.974a6.9,6.9,0,0,1-2.547-.069c-.6-.282-.937-1.138-1.467-1.846l-.086,1.873h-2.287v-6.646c1.346,0,2.725-.1,4.083.033a1.947,1.947,0,0,1,1.723,1.8c.162.966-.1,1.5-1.162,2.23l1.744,2.621m-4.017-3.637a3.894,3.894,0,0,0,.94-.514.612.612,0,0,0-.094-.595,2.636,2.636,0,0,0-.846-.2Z" transform="translate(-527.989 -250.779)" fill="#12263f"/>
        <path id="Trazado_599841" data-name="Trazado 599841" d="M895.361,312.868c1.256,0,2.448-.073,3.628.019a2.057,2.057,0,0,1,2.137,2.248,8.265,8.265,0,0,1-.946,2.192l1.548,2.321a6.659,6.659,0,0,1-2.475-.066c-.616-.29-.977-1.122-1.493-1.771v1.761h-2.4Zm2.383,3.078a3.275,3.275,0,0,0,.893-.407.62.62,0,0,0-.036-.611,2.74,2.74,0,0,0-.857-.264Z" transform="translate(-716.796 -250.449)" fill="#12263f"/>
        <path id="Trazado_599842" data-name="Trazado 599842" d="M613.251,313.114h2.5c0,1.213-.015,2.365.007,3.516.009.5-.167,1.2.637,1.21.863.011.7-.732.709-1.258.028-1.123.008-2.248.008-3.45h2.364a43.083,43.083,0,0,1-.041,4.78c-.159,1.42-1.479,2.165-3.153,2.091-1.809-.081-2.844-.909-3-2.549-.1-1.052-.03-2.119-.035-3.18,0-.359,0-.718,0-1.161" transform="translate(-490.934 -250.669)" fill="#12263f"/>
        <path id="Trazado_599843" data-name="Trazado 599843" d="M347.1,313.015h2.463c0,.8,0,1.572,0,2.349a9.244,9.244,0,0,0,.046,1.684c.052.275.408.491.627.734.228-.262.637-.515.652-.789.07-1.284.031-2.573.031-3.94h2.41a42.982,42.982,0,0,1-.037,4.663c-.169,1.532-1.506,2.325-3.251,2.2-1.815-.125-2.834-1.005-2.924-2.624-.061-1.09-.016-2.187-.019-3.281,0-.295,0-.589,0-1" transform="translate(-277.863 -250.589)" fill="#12263f"/>
        <path id="Trazado_599844" data-name="Trazado 599844" d="M131.154,319.323c-2.438.9-3.462-.533-4.357-2.355v2.461h-2.37v-6.691h2.3v2.493l.192.043a15.158,15.158,0,0,0,.932-1.693,1.277,1.277,0,0,1,1.528-.91,14.365,14.365,0,0,0,1.666.012L128.93,316l2.224,3.32" transform="translate(-99.611 -250.299)" fill="#12263f"/>
        <path id="Trazado_599845" data-name="Trazado 599845" d="M535.808,312.953h2.356a45.7,45.7,0,0,1-.062,4.939,2.536,2.536,0,0,1-1.3,1.592c-2.507,1.274-4.8-.186-4.81-2.965,0-1.154,0-2.308,0-3.529h2.435c0,1.137,0,2.252,0,3.367a1.722,1.722,0,0,0,.059.78,2.7,2.7,0,0,0,.665.591c.218-.273.609-.537.624-.82.068-1.282.03-2.57.03-3.955" transform="translate(-425.895 -250.54)" fill="#12263f"/>
        <path id="Trazado_599846" data-name="Trazado 599846" d="M726.428,196.836l3.369,4.777a1.383,1.383,0,0,1-1.935-.622c-.9-1.414-1.9-2.766-2.861-4.144l-.263.061v4.806l-1.194.06V190.5a30.251,30.251,0,0,1,3.272.262,2.644,2.644,0,0,1,2.375,2.751,2.948,2.948,0,0,1-2.141,3.093c-.186.064-.369.135-.623.229m-1.706-1.092c1.238.059,2.467.112,2.982-1.056a2.77,2.77,0,0,0-.177-2.221c-.6-.995-1.758-.775-2.805-.753Z" transform="translate(-579.245 -152.509)" fill="#12263f"/>
        <path id="Trazado_599847" data-name="Trazado 599847" d="M942.585,319.589c-.838,0-1.434.018-2.028-.01a.958.958,0,0,1-.614-.209,1.347,1.347,0,0,0-2.284-.02.9.9,0,0,1-.59.228c-.627.029-1.255.011-2.042.011.57-1.646,1.108-3.19,1.64-4.736.732-2.128.73-2.129,2.989-2.081.131,0,.263.017.51.035l2.419,6.782m-3.7-4.217-.218-.027-.329,1.747h.942l-.4-1.72" transform="translate(-748.552 -250.385)" fill="#12263f"/>
        <path id="Trazado_599848" data-name="Trazado 599848" d="M707.278,319.553c-.81,0-1.5.01-2.189-.008a.667.667,0,0,1-.424-.176c-.862-.89-1.469-.872-2.334-.019-.19.187-.6.18-.919.2-.493.031-.989.008-1.585.008a6.4,6.4,0,0,1,.159-.792c.6-1.755,1.237-3.5,1.818-5.262a.941.941,0,0,1,1.045-.786c1.979,0,1.978-.028,2.654,1.869.576,1.617,1.156,3.233,1.776,4.965m-3.289-2.5-.415-1.67-.239.022-.324,1.649Z" transform="translate(-560.258 -250.352)" fill="#12263f"/>
        <path id="Trazado_599849" data-name="Trazado 599849" d="M1229.6,188.247l4.972,11.55c-1.22.32-1.22.32-1.654-.714-.968-2.308-.981-2.154-3.411-2.357-1.882-.157-2.857.45-3.344,2.243-.3,1.093-.424,1.059-1.69.9l5.127-11.619m1.841,7.361-1.87-4.472-1.911,4.472Z" transform="translate(-980.27 -150.704)" fill="#12263f"/>
        <path id="Trazado_599850" data-name="Trazado 599850" d="M810.124,319.248c.687-1.044,1.351-1.956,1.893-2.935a1.465,1.465,0,0,0,0-1.206c-.45-.838-1.037-1.6-1.582-2.415,1.955-.518,2.615-.289,3.435,1.294.457-2.11,2-1.366,3.462-1.47-.51.772-.885,1.456-1.372,2.047a1.506,1.506,0,0,0-.029,2.242,24.144,24.144,0,0,1,1.614,2.391c-2.23.419-2.474.315-3.75-1.655-.467,2.16-2.005,1.913-3.671,1.706" transform="translate(-648.558 -250.132)" fill="#12263f"/>
        <path id="Trazado_599851" data-name="Trazado 599851" d="M768.022,199.852l5.116-11.594,4.988,11.587c-.945.347-1.385.038-1.718-.808-.891-2.268-.944-2.084-3.336-2.307-1.948-.181-2.95.494-3.358,2.313-.2.9-.771,1.136-1.692.808m6.964-4.217-1.877-4.5-1.911,4.5Z" transform="translate(-614.853 -150.713)" fill="#12263f"/>
        <path id="Trazado_599852" data-name="Trazado 599852" d="M1003.093,199.869c-.955.345-1.394.024-1.725-.823-.882-2.257-.92-2.242-3.346-2.242-2.391,0-2.424-.013-3.293,2.185-.316.8-.713,1.215-1.75.907l5.124-11.612,4.99,11.585m-3.152-4.233-1.873-4.489-1.887,4.489Z" transform="translate(-794.946 -150.734)" fill="#12263f"/>
        <path id="Trazado_599853" data-name="Trazado 599853" d="M291.262,199.863l5.119-11.586,4.95,11.49c-1,.432-1.321.394-1.574-.594-.5-1.94-1.563-2.515-3.59-2.467-1.783.042-2.771.479-3.163,2.206-.19.838-.64,1.386-1.741.95m6.974-4.213-1.893-4.5-1.9,4.5Z" transform="translate(-233.175 -150.728)" fill="#12263f"/>
        <path id="Trazado_599854" data-name="Trazado 599854" d="M557.779,191.019h1.112c0,.58-.005,1.132,0,1.683.024,2.089-.015,4.182.1,6.266a2.753,2.753,0,0,0,5.431.017c.116-1.618.071-3.248.087-4.873.01-.991,0-1.983,0-3.054h1.234c0,.688.009,1.376,0,2.063-.033,2.055.032,4.119-.144,6.162a3.65,3.65,0,0,1-3.9,3.1c-2.047,0-3.779-1.237-3.88-3.1-.147-2.706-.038-5.425-.038-8.262" transform="translate(-446.508 -152.923)" fill="#12263f"/>
        <path id="Trazado_599855" data-name="Trazado 599855" d="M662.71,190.878h1.126c0,1.217-.005,2.4,0,3.585.007,1.362-.033,2.728.053,4.085a2.768,2.768,0,0,0,5.527-.044c.083-2.124.034-4.253.042-6.38,0-.391,0-.783,0-1.238l1.01-.051c.093.107.173.155.173.2-.017,2.688.07,5.382-.1,8.06-.121,1.915-1.88,3.158-3.969,3.129-2.049-.028-3.725-1.27-3.828-3.171-.144-2.677-.036-5.368-.036-8.18" transform="translate(-530.513 -152.777)" fill="#12263f"/>
        <path id="Trazado_599856" data-name="Trazado 599856" d="M775.71,313.091H780.2v1.779a13.772,13.772,0,0,0-1.438.016c-.2.021-.38.22-.569.338a1.922,1.922,0,0,0,.594.326,9.886,9.886,0,0,0,1.265.015v1.693c-.444.023-.9.019-1.34.083-.183.026-.346.2-.518.3.182.125.356.338.55.358a15.337,15.337,0,0,0,1.555.017v1.766H775.71Z" transform="translate(-621.008 -250.65)" fill="#12263f"/>
        <path id="Trazado_599857" data-name="Trazado 599857" d="M436.269,319.771h-4.614v-6.714h4.478v1.785a13.678,13.678,0,0,0-1.374.014,2.022,2.022,0,0,0-.614.295,2.153,2.153,0,0,0,.648.37,8.015,8.015,0,0,0,1.231.017V317.3a10.287,10.287,0,0,0-1.315.017c-.2.027-.377.23-.564.353a1.888,1.888,0,0,0,.6.307c.485.046.978.015,1.52.015Z" transform="translate(-345.569 -250.623)" fill="#12263f"/>
        <path id="Trazado_599858" data-name="Trazado 599858" d="M1342.305,191.434l-.7.471a10.73,10.73,0,0,0-2.032-.984,1.774,1.774,0,0,0-2.02,1.233,1.489,1.489,0,0,0,.929,1.861c.814.441,1.688.774,2.5,1.222a2.957,2.957,0,0,1,1.564,3.766,3.484,3.484,0,0,1-3.74,2.344,3.22,3.22,0,0,1-3.02-2.863l1.016-.291c.382,1.008.859,1.854,2.018,2.015a2.372,2.372,0,0,0,2.551-1.46,1.945,1.945,0,0,0-1.052-2.5c-.691-.389-1.427-.7-2.146-1.04a2.772,2.772,0,0,1-1.909-2.745,2.633,2.633,0,0,1,1.864-2.457,3.3,3.3,0,0,1,3.6.7,6.209,6.209,0,0,1,.574.737" transform="translate(-1069.388 -151.905)" fill="#12263f"/>
        <path id="Trazado_599859" data-name="Trazado 599859" d="M212.089,192.206c-2.952-1.745-5.125-1.6-6.828.449a4.67,4.67,0,0,0,.147,6.117c1.761,1.922,4.015,2.021,6.61.292.306,1.233.239,1.383-.836,1.867a5.857,5.857,0,0,1-6.932-1.675,5.757,5.757,0,0,1-.143-7.032,5.9,5.9,0,0,1,6.849-2c.973.369,1.5.892,1.132,1.981" transform="translate(-162.499 -151.978)" fill="#12263f"/>
        <path id="Trazado_599860" data-name="Trazado 599860" d="M56.9,198.466l.963-.289a8.346,8.346,0,0,0,.486.984,2.132,2.132,0,0,0,2.3,1.017,2.222,2.222,0,0,0,1.9-1.783,1.957,1.957,0,0,0-1.162-2.2c-.645-.337-1.324-.609-1.976-.934-1.616-.8-2.225-1.729-2.037-3.062a2.931,2.931,0,0,1,2.363-2.393,3.3,3.3,0,0,1,3.61,1.629l-.652.452a10.382,10.382,0,0,0-1.955-.978,1.776,1.776,0,0,0-2.063,1.166c-.337.954.18,1.533.934,1.941.873.472,1.809.829,2.665,1.327a2.9,2.9,0,0,1,1.355,3.674,3.518,3.518,0,0,1-3.863,2.3,3.172,3.172,0,0,1-2.862-2.852" transform="translate(-45.553 -151.887)" fill="#12263f"/>
        <path id="Trazado_599861" data-name="Trazado 599861" d="M394.708,316.951c-.543-.169-.895-.308-1.26-.387-.875-.189-1.592-.575-1.734-1.537a2.182,2.182,0,0,1,1.112-2.27,3.706,3.706,0,0,1,3.95.118l-.575,1.517-1.947-.317-.107.444c.359.134.712.293,1.079.4,1.291.371,1.779.885,1.792,1.925a2.331,2.331,0,0,1-1.762,2.263,4.993,4.993,0,0,1-3.762-.466l.643-1.76c.795.193,1.54,1.046,2.57.072" transform="translate(-313.418 -249.971)" fill="#12263f"/>
        <path id="Trazado_599862" data-name="Trazado 599862" d="M1172.272,199.072c.333,1.063-.136,1.57-1.048,1.929a5.893,5.893,0,0,1-6.869-1.9,5.7,5.7,0,0,1,0-6.94,5.9,5.9,0,0,1,6.863-1.934c.9.354,1.395.856,1.047,1.954a5.549,5.549,0,0,0-3.731-1.217,4.482,4.482,0,0,0-3.3,1.992,4.656,4.656,0,0,0,.432,5.866c1.705,1.83,3.749,1.917,6.6.248" transform="translate(-931.201 -151.965)" fill="#12263f"/>
        <path id="Trazado_599863" data-name="Trazado 599863" d="M174.572,313.135v1.772a11.259,11.259,0,0,0-1.367.016,2.278,2.278,0,0,0-.677.34,2.913,2.913,0,0,0,.715.318,7.932,7.932,0,0,0,1.153.014v1.688a6.815,6.815,0,0,0-.85.088c-.346.078-.681.208-1.021.316a7.958,7.958,0,0,0,1.072.356,5.876,5.876,0,0,0,1.035.012v1.775H170.08v-6.7Z" transform="translate(-136.16 -250.686)" fill="#12263f"/>
        <path id="Trazado_599864" data-name="Trazado 599864" d="M162.974,196.733h-4.245v4.434h4.433v1.084h-5.635V191.172h5.664c.014.3.027.575.048,1.009h-4.525v3.453c1.209,0,2.4.032,3.579-.011.766-.028.95.281.683,1.11" transform="translate(-126.11 -153.046)" fill="#12263f"/>
        <path id="Trazado_599865" data-name="Trazado 599865" d="M15.711,191.127c.272.807-.006,1.069-.773,1.043-1.189-.039-2.38-.01-3.64-.01v3.4h4.295c.02.391.035.7.056,1.127H11.286v4.48c1.247,0,2.469.024,3.689-.009.725-.02.981.255.755,1.031H10.068V191.127Z" transform="translate(-8.06 -153.01)" fill="#12263f"/>
        <path id="Trazado_599866" data-name="Trazado 599866" d="M1291.409,190.55a32.765,32.765,0,0,1,3.486.222,2.888,2.888,0,0,1,2.387,3.087,2.933,2.933,0,0,1-2.6,2.928c-.65.1-1.312.107-2.085.166v4.793h-1.186Zm1.2,5.229c1.221-.015,2.41.152,3.141-.955a1.9,1.9,0,0,0-.088-2.331c-.8-.956-1.932-.771-3.054-.74Z" transform="translate(-1033.859 -152.548)" fill="#12263f"/>
        <path id="Trazado_599867" data-name="Trazado 599867" d="M111.549,201.737H110.4V190.526a30.66,30.66,0,0,1,3.58.241,2.887,2.887,0,0,1,2.294,3.064,2.93,2.93,0,0,1-2.494,2.919c-.709.12-1.436.136-2.227.206Zm.078-10.041v4.048c1.2.029,2.386.16,3.119-.951a1.909,1.909,0,0,0-.042-2.256c-.768-1.019-1.928-.8-3.077-.842" transform="translate(-88.38 -152.529)" fill="#12263f"/>
        <path id="Trazado_599868" data-name="Trazado 599868" d="M500.779,313.079v1.915a13.38,13.38,0,0,0-1.415.015,1.894,1.894,0,0,0-.6.318c.189.118.367.309.569.338a8.884,8.884,0,0,0,1.213.016v1.714l-1.787.118v2.261h-2.465v-6.694Z" transform="translate(-397.314 -250.641)" fill="#12263f"/>
        <path id="Trazado_599869" data-name="Trazado 599869" d="M579.465,319.922H577v-4.538l-1.382-.111v-2.054h5.174v2.041l-1.329.109Z" transform="translate(-460.822 -250.753)" fill="#12263f"/>
        <path id="Trazado_599870" data-name="Trazado 599870" d="M426.825,201.923h-1.1c0-1.3.049-2.557-.021-3.807a4.352,4.352,0,0,0-.466-1.773c-.987-1.834-2.055-3.623-3.106-5.452a1.338,1.338,0,0,1,1.894.778c.689,1.345,1.481,2.637,2.309,4.09.831-1.444,1.574-2.728,2.31-4.016.584-1.022.58-1.024,1.915-.9-.577,1.015-1.048,2.033-1.687,2.932a9.665,9.665,0,0,0-1.945,7.176,3.635,3.635,0,0,1-.016.7,1.546,1.546,0,0,1-.088.278" transform="translate(-337.946 -152.711)" fill="#12263f"/>
        <path id="Trazado_599871" data-name="Trazado 599871" d="M861.106,319.893h-2.449v-4.519l-1.385-.122V313.2h5.093v2.071l-1.259.065Z" transform="translate(-686.304 -250.738)" fill="#12263f"/>
        <path id="Trazado_599872" data-name="Trazado 599872" d="M1303.15,319.831h-2.442v-4.536l-1.333-.089v-2.079h5.088v2.091l-1.313.064Z" transform="translate(-1040.237 -250.679)" fill="#12263f"/>
        <path id="Trazado_599873" data-name="Trazado 599873" d="M237.511,313.173v2.075l-1.313.072v4.529h-2.44v-4.517l-1.339-.079v-2.079Z" transform="translate(-186.067 -250.716)" fill="#12263f"/>
        <path id="Trazado_599874" data-name="Trazado 599874" d="M1103.566,319.851V313.17h2.455V317.7l2,.1v2.053Z" transform="translate(-883.478 -250.714)" fill="#12263f"/>
        <path id="Trazado_599875" data-name="Trazado 599875" d="M62.444,313.069h2.391v4.574H66.88v2.112H62.444Z" transform="translate(-49.991 -250.633)" fill="#12263f"/>
        <path id="Trazado_599876" data-name="Trazado 599876" d="M514.189,202.292H513V191.225h4.967v.989h-3.729v3.462c.978,0,1.9.034,2.823-.011.754-.036.964.264.706,1.081h-3.582Z" transform="translate(-410.694 -153.088)" fill="#12263f"/>
        <path id="Trazado_599877" data-name="Trazado 599877" d="M617.072,202.174H615.9V192.158h-2.728c-.028-.412-.05-.724-.076-1.1h6.609c.326.812.037,1.1-.777,1.052-.586-.035-1.175-.007-1.86-.007Z" transform="translate(-490.828 -152.959)" fill="#12263f"/>
        <rect id="Rectángulo_296417" data-name="Rectángulo 296417" width="2.352" height="6.739" transform="translate(19.495 62.433)" fill="#12263f"/>
        <path id="Trazado_599878" data-name="Trazado 599878" d="M1059.55,202.244V191.182h1.166v10h3.069l.053,1.064Z" transform="translate(-848.241 -153.054)" fill="#12263f"/>
        <path id="Trazado_599879" data-name="Trazado 599879" d="M395.566,191.031h1.108v10.035h3.052v1.072h-4.16Z" transform="translate(-316.677 -152.933)" fill="#12263f"/>
        <path id="Trazado_599880" data-name="Trazado 599880" d="M358.183,202.272V191.186h1.154v10.029c.813,0,1.536.03,2.254-.008.817-.043.975.329.745,1.066Z" transform="translate(-286.749 -153.057)" fill="#12263f"/>
        <path id="Trazado_599881" data-name="Trazado 599881" d="M1097.409,191.006h1.111v10.067c.83,0,1.554.028,2.275-.008.753-.037.954.29.719,1.037h-4.106Z" transform="translate(-878.549 -152.913)" fill="#12263f"/>
        <rect id="Rectángulo_296418" data-name="Rectángulo 296418" width="2.326" height="6.717" transform="translate(254.294 62.424)" fill="#12263f"/>
        <rect id="Rectángulo_296419" data-name="Rectángulo 296419" width="2.291" height="6.709" transform="translate(1.467 62.421)" fill="#12263f"/>
        <rect id="Rectángulo_296420" data-name="Rectángulo 296420" width="1.096" height="11.105" transform="translate(53.792 38.095)" fill="#12263f"/>
        <rect id="Rectángulo_296421" data-name="Rectángulo 296421" width="1.086" height="11.094" transform="translate(173.003 38.121)" fill="#12263f"/>
        <path id="Trazado_599882" data-name="Trazado 599882" d="M700.72,617.1c.817-.087,1.607-.414,2.006-.151a2.781,2.781,0,0,1,.825,1.738,13.675,13.675,0,0,1,.032,2.364l-.3.154c-.148-.213-.406-.417-.423-.639-.055-.725.061-1.47-.058-2.179-.058-.345-.493-.626-.758-.936-.29.3-.764.563-.83.906a19.385,19.385,0,0,0-.081,2.177c-.018.238-.239.46-.366.689l-.361-.128c0-.818.007-1.636,0-2.453-.006-.546-.029-1.138-.759-1.173-.769-.037-.895.579-.94,1.153-.049.626.008,1.26-.038,1.887-.015.211-.2.41-.311.615-.123-.187-.348-.372-.353-.562-.033-1.188-.017-2.378-.017-3.671,1.021.375,2.111-.705,2.734.21" transform="translate(-558.781 -493.728)" fill="#12263f"/>
        <path id="Trazado_599883" data-name="Trazado 599883" d="M621.194,621.873c-.148-.207-.406-.4-.423-.622-.059-.725.05-1.471-.072-2.18-.06-.351-.485-.639-.744-.955-.29.308-.762.58-.831.931a20.594,20.594,0,0,0-.083,2.178c-.019.225-.274.43-.42.644l-.26-.153v-4.167l2.9.138-.022.06a5.288,5.288,0,0,1,1.925-.119c.812.266.75,1.147.752,1.882,0,.63.015,1.261-.023,1.888-.008.137-.21.262-.323.392-.113-.131-.316-.258-.324-.395-.041-.727-.023-1.458-.044-2.186-.016-.558-.094-1.118-.841-1.084-.692.031-.844.562-.861,1.124-.025.823-.006,1.647-.006,2.47l-.3.156" transform="translate(-495.039 -494.389)" fill="#12263f"/>
        <path id="Trazado_599884" data-name="Trazado 599884" d="M432.63,613.1a2.935,2.935,0,0,1-5.869-.1,2.935,2.935,0,0,1,5.869.1m-.61-.022a2.332,2.332,0,0,0-2.311-2.351,2.337,2.337,0,0,0-.025,4.674,2.324,2.324,0,0,0,2.336-2.323" transform="translate(-341.65 -488.464)" fill="#12263f"/>
        <path id="Trazado_599885" data-name="Trazado 599885" d="M1150.016,613.532a3.522,3.522,0,0,1,3.367-3.388,2.434,2.434,0,0,1,2.511,2.5,3.474,3.474,0,0,1-3.419,3.315,2.366,2.366,0,0,1-2.459-2.428m.606-.146a1.916,1.916,0,0,0,1.981,2.014,2.805,2.805,0,0,0,2.679-2.672,1.9,1.9,0,0,0-1.977-2.013,2.81,2.81,0,0,0-2.684,2.671" transform="translate(-920.665 -488.46)" fill="#12263f"/>
        <path id="Trazado_599886" data-name="Trazado 599886" d="M1114.63,615.962a2.4,2.4,0,0,1-2.473-2.53,3.576,3.576,0,0,1,3.491-3.282,2.476,2.476,0,0,1,2.439,2.505,3.555,3.555,0,0,1-3.457,3.307m.834-5.247a2.879,2.879,0,0,0-2.7,2.68,1.952,1.952,0,0,0,2,2.009,2.847,2.847,0,0,0,2.7-2.671,1.964,1.964,0,0,0-2-2.018" transform="translate(-890.356 -488.464)" fill="#12263f"/>
        <path id="Trazado_599887" data-name="Trazado 599887" d="M393.081,615.956a2.943,2.943,0,0,1-2.919-2.9,3.019,3.019,0,0,1,2.937-2.918,3.06,3.06,0,0,1,2.984,2.883,2.972,2.972,0,0,1-3,2.937m.064-.561a2.342,2.342,0,1,0-2.376-2.314,2.38,2.38,0,0,0,2.376,2.314" transform="translate(-312.351 -488.454)" fill="#12263f"/>
        <path id="Trazado_599888" data-name="Trazado 599888" d="M369.322,613.543a1.444,1.444,0,0,1,.4,1.872c-.375.78-1.348,1.029-3.1.782v-5.425c.9-.112,1.873-.3,2.4.5.325.5.193,1.3.3,2.268m-2.064,2.36a10.679,10.679,0,0,0,1.835-.713,1.05,1.05,0,0,0,.02-.952,11.169,11.169,0,0,0-1.855-.742Zm-.01-2.6a3.962,3.962,0,0,0,1.344-.58,1.067,1.067,0,0,0-.009-1.062,3.742,3.742,0,0,0-1.336-.495Z" transform="translate(-293.506 -488.881)" fill="#12263f"/>
        <path id="Trazado_599889" data-name="Trazado 599889" d="M1085.011,616.271l.883-5.54c.85-.051,1.844-.364,2.33.528.274.5-.008,1.311-.051,2.226a1.322,1.322,0,0,1,.19,1.78c-.769,1.275-2.047.957-3.352,1.007m.731-.64c.819.076,1.562.191,2.029-.546.15-.237.206-.824.1-.883a13.528,13.528,0,0,0-1.8-.721l-.325,2.15m.36-2.25a6.423,6.423,0,0,0,1.535-.775.994.994,0,0,0,.084-.978,3.767,3.767,0,0,0-1.272-.521l-.347,2.275" transform="translate(-868.624 -488.855)" fill="#12263f"/>
        <path id="Trazado_599890" data-name="Trazado 599890" d="M802.5,619.3h-3.263l-.2.259c.354.367.652.919,1.078,1.046s.959-.179,1.441-.317c.24-.068.465-.186.916-.372a2.092,2.092,0,0,1-2.659,1.37,2.192,2.192,0,0,1-1.325-2.583,2,2,0,0,1,2.163-1.767c1.12.082,1.785.908,1.847,2.363m-3.335-.962.174.306H801.7l.115-.3c-.446-.244-.891-.677-1.338-.679s-.877.434-1.316.677" transform="translate(-639.2 -493.896)" fill="#12263f"/>
        <path id="Trazado_599891" data-name="Trazado 599891" d="M654.937,619.277H651.8l-.222.237c.292.357.523.9.894,1.023a2.959,2.959,0,0,0,1.466-.156,5.645,5.645,0,0,1,.858-.292,1.958,1.958,0,0,1-2.594,1.159,2.3,2.3,0,0,1-1.2-2.756,2.05,2.05,0,0,1,2.232-1.562c1.079.125,1.7.955,1.706,2.345m-3.284-.986.113.327h2.38l.131-.307c-.417-.233-.837-.656-1.251-.65-.46.006-.915.4-1.372.63" transform="translate(-521.101 -493.884)" fill="#12263f"/>
        <path id="Trazado_599892" data-name="Trazado 599892" d="M734.361,620.3a2.159,2.159,0,0,1-2.736.887,2.266,2.266,0,0,1-1.049-2.814,1.987,1.987,0,0,1,2.207-1.448c1.069.147,1.692.979,1.719,2.369h-3.269c.209,1.362,1.277,1.814,2.279,1.049a4.516,4.516,0,0,1,.721-.373l.128.328m-.7-1.641.178-.32c-.467-.248-.931-.682-1.4-.689-.419-.006-.845.46-1.268.717l.161.292Z" transform="translate(-584.774 -493.87)" fill="#12263f"/>
        <path id="Trazado_599893" data-name="Trazado 599893" d="M846.213,619.3h-3.234l-.19.269c.322.351.589.885.981,1a3.033,3.033,0,0,0,1.456-.232,4.06,4.06,0,0,1,.781-.261,1.9,1.9,0,0,1-2.553,1.183,2.22,2.22,0,0,1-1.254-2.549,2.033,2.033,0,0,1,2.162-1.781c1.115.07,1.78.888,1.851,2.368m-3.338-.907.159.266H845.4l.139-.32c-.465-.241-.93-.668-1.395-.668-.423,0-.846.464-1.269.723" transform="translate(-674.199 -493.895)" fill="#12263f"/>
        <path id="Trazado_599894" data-name="Trazado 599894" d="M298.507,614.133v2.354c-.659-.352-.8-2.278-.556-5.482,1.286-.357,2.366-.073,2.691.707.357.857-.036,1.643-1.187,2.309l1.576,2.292c-.677.071-.677.071-1.292-.83q-.487-.713-.976-1.425Zm.06-.494a5.033,5.033,0,0,0,1.415-.766,1.067,1.067,0,0,0-.063-1.058,3.941,3.941,0,0,0-1.352-.511Z" transform="translate(-238.439 -489.028)" fill="#12263f"/>
        <path id="Trazado_599895" data-name="Trazado 599895" d="M1017.593,613.934l.634,1.186.615,1.148c-.689.077-.687.076-1.159-.82-.253-.481-.513-.958-.839-1.566-.484.907-.146,1.9-.768,2.536l-.336-.076q.267-1.828.535-3.657a2.313,2.313,0,0,1,.107-.485c.195-.508-.245-1.4.813-1.393.8.008,1.715-.073,1.967.933a1.631,1.631,0,0,1-1.013,1.95c-.169.082-.344.151-.557.245m-.914-.518c1.1-.049,1.87-.224,1.873-1.2a1.237,1.237,0,0,0-.925-.786c-1.175.176-.464,1.232-.948,1.983" transform="translate(-813.168 -488.991)" fill="#12263f"/>
        <path id="Trazado_599896" data-name="Trazado 599896" d="M593.243,621.407a2.2,2.2,0,0,1-2.225-2.2,2.236,2.236,0,1,1,4.472.023,2.2,2.2,0,0,1-2.246,2.179m.026-.662a1.555,1.555,0,1,0-.079-3.108,1.519,1.519,0,0,0-1.47,1.549,1.5,1.5,0,0,0,1.549,1.559" transform="translate(-473.149 -493.918)" fill="#12263f"/>
        <path id="Trazado_599897" data-name="Trazado 599897" d="M1188.281,610.484c-.1.82-.179,1.5-.269,2.256,1.251-.568,1.861-1.951,3.326-2.035l-2.808,2.426,2.288,3.124c-1.679-.338-1.822-1.909-2.929-2.626l-.523,2.564-.522-.1c.287-1.775.568-3.551.878-5.322.017-.1.279-.147.559-.283" transform="translate(-950.148 -488.733)" fill="#12263f"/>
        <path id="Trazado_599898" data-name="Trazado 599898" d="M524.489,619.238a2.235,2.235,0,0,1-4.468-.041,2.234,2.234,0,1,1,4.468.041m-.691-.033a1.55,1.55,0,0,0-1.581-1.569,1.525,1.525,0,0,0-1.5,1.551,1.539,1.539,0,1,0,3.077.019" transform="translate(-416.311 -493.917)" fill="#12263f"/>
        <path id="Trazado_599899" data-name="Trazado 599899" d="M325.216,615.438c-.191-.214-.473-.4-.556-.647-.245-.741-.6-1.149-1.486-1.059-.783.08-1.6-.118-1.822.995-.051.262-.367.471-.561.7l-.289-.187,2.512-5.751,2.45,5.684-.249.26m-1.275-2.315-.953-2.183-.905,2.183Z" transform="translate(-256.583 -487.941)" fill="#12263f"/>
        <path id="Trazado_599900" data-name="Trazado 599900" d="M1038.848,615.219l3.424-5.721,1.562,5.726-.264.183c-.182-.255-.357-.516-.547-.765-.229-.3-.5-.853-.7-.833-.756.072-1.67-.517-2.263.442-.263.425-.59.81-.888,1.213l-.323-.245m3.184-4.292-1.3,2.2h1.871l-.57-2.2" transform="translate(-831.667 -487.944)" fill="#12263f"/>
        <path id="Trazado_599901" data-name="Trazado 599901" d="M1268.881,615.362c-1.137-.055-.7-1.023-1.256-1.589a10,10,0,0,0-1.946.04c-.319.06-.561.545-.833.842-.242.264-.478.535-.717.8l-.272-.225,3.416-5.722,1.609,5.851m-1.844-4.441-1.284,2.215h1.854l-.57-2.215" transform="translate(-1011.801 -487.954)" fill="#12263f"/>
        <path id="Trazado_599902" data-name="Trazado 599902" d="M466.279,612.393l2.7,3c-1.514-.113-1.9-1.618-3.085-2.352-.067.859-.13,1.679-.194,2.5l-.406-.047v-5.785c.839.794.31,1.648.612,2.362,1.061-.521,1.538-1.891,2.754-2.19l.181.22-2.562,2.3" transform="translate(-372.498 -488.11)" fill="#12263f"/>
        <path id="Trazado_599903" data-name="Trazado 599903" d="M987.432,610.752c-.17,1.069-.351,2.137-.505,3.208-.163,1.125.114,1.642.908,1.767a1.592,1.592,0,0,0,1.806-1.332c.2-1,.306-2.028.493-3.036a3.316,3.316,0,0,1,.376-.786l.354.14c-.26,1.411-.428,2.846-.81,4.223a2.053,2.053,0,0,1-2.592,1.256c-.471-.183-1.119-.772-1.112-1.167a32.118,32.118,0,0,1,.5-4.123c.017-.117.253-.2.388-.3l.2.15" transform="translate(-789.64 -488.805)" fill="#12263f"/>
        <path id="Trazado_599904" data-name="Trazado 599904" d="M933.361,609.447c-.172,1.1-.34,2.2-.519,3.291-.127.778-.126,1.493.843,1.718a1.538,1.538,0,0,0,1.857-1.236c.212-1,.32-2.028.508-3.037a4.428,4.428,0,0,1,.35-.855l.448.137a40.621,40.621,0,0,1-1.1,4.583,2,2,0,0,1-2.407.923c-.692-.211-1.219-.648-1.14-1.423.13-1.282.359-2.554.544-3.831.034-.232.055-.466.081-.7l.532.428" transform="translate(-746.285 -487.56)" fill="#12263f"/>
        <path id="Trazado_599905" data-name="Trazado 599905" d="M217.154,610.7a4.475,4.475,0,0,1,.141.745c.018.828.005,1.656.008,2.483,0,1.326.406,1.891,1.344,1.894.967,0,1.4-.6,1.408-1.953,0-.795-.007-1.59.006-2.384a1.143,1.143,0,0,1,.347-.8c.094.182.265.363.27.547.025,1.059.052,2.121,0,3.178a1.943,1.943,0,0,1-2.041,1.977,1.9,1.9,0,0,1-1.954-2.041c-.037-1.2-.008-2.4-.008-3.6l.483-.045" transform="translate(-173.451 -488.892)" fill="#12263f"/>
        <path id="Trazado_599906" data-name="Trazado 599906" d="M272.589,610.533a39.528,39.528,0,0,1-.043,4.318c-.095.86-.919,1.273-1.791,1.3s-1.744-.3-1.864-1.171a35.083,35.083,0,0,1-.129-4.345c0-.046.149-.094.383-.234a5.661,5.661,0,0,1,.154.847c.019,1-.021,2,.026,2.991a1.284,1.284,0,0,0,1.393,1.361,1.317,1.317,0,0,0,1.338-1.414c.024-.963-.008-1.928.014-2.891a4.3,4.3,0,0,1,.18-.823l.338.066" transform="translate(-215.159 -488.664)" fill="#12263f"/>
        <path id="Trazado_599907" data-name="Trazado 599907" d="M870.017,621.6c0-1.162.007-1.986,0-2.809-.007-.622-.184-1.145-.934-1.147-.714,0-1,.484-1.025,1.1-.039.823-.01,1.65-.01,2.475l-.29.17c-.154-.2-.434-.393-.443-.6-.046-1.06-.038-2.124-.009-3.185,0-.176.206-.346.316-.519.558.456,1.035-.1,1.554-.121a1.205,1.205,0,0,1,1.434,1.065,22.011,22.011,0,0,1,.084,2.88c0,.161-.3.317-.675.686" transform="translate(-694.317 -493.925)" fill="#12263f"/>
        <path id="Trazado_599908" data-name="Trazado 599908" d="M1335.484,614.866c-.281.934-1.261,1.319-2.445,1.05a2.4,2.4,0,0,1-1.853-2.672,3.56,3.56,0,0,1,3.607-3.032c.563.072,1.417.013,1.288,1.069-1.8-.766-2.854-.567-3.775.686a2.238,2.238,0,0,0-.086,2.761c.674.84,1.693.9,3.263.138" transform="translate(-1065.686 -488.5)" fill="#12263f"/>
        <path id="Trazado_599909" data-name="Trazado 599909" d="M754.162,620.539a1.989,1.989,0,0,1,.687.2c.463.365.959.5,1.233-.071.1-.2-.341-.674-.565-1-.063-.093-.274-.079-.347-.17-.306-.382-.8-.784-.807-1.182a1.379,1.379,0,0,1,.895-.984c.423-.093.94.24,1.416.388l-.127.441a3.934,3.934,0,0,0-.806-.148,2.728,2.728,0,0,0-.691.194,2.181,2.181,0,0,0,.313.624c.153.153.462.156.606.313.35.384.835.791.9,1.242a1.355,1.355,0,0,1-.725,1.116,3.48,3.48,0,0,1-1.659-.2c-.17-.042-.277-.34-.413-.521l.093-.246" transform="translate(-603.683 -494.204)" fill="#12263f"/>
        <path id="Trazado_599910" data-name="Trazado 599910" d="M576.741,618.179a3.217,3.217,0,0,0-.788-.137,3.135,3.135,0,0,0-.754.244,2.012,2.012,0,0,0,.4.586c.292.206.759.243.945.5.277.385.614.989.486,1.338a1.707,1.707,0,0,1-1.191.942c-.456.046-.966-.391-1.435-.647a.486.486,0,0,1,.072-.4.459.459,0,0,1,.418-.021c.2.1.353.395.533.4a3,3,0,0,0,.881-.234,3.8,3.8,0,0,0-.323-.9c-.109-.166-.451-.166-.594-.325-.323-.362-.8-.773-.809-1.172a1.365,1.365,0,0,1,.869-.992c.418-.1.934.23,1.407.372l-.113.445" transform="translate(-459.828 -494.225)" fill="#12263f"/>
        <path id="Trazado_599911" data-name="Trazado 599911" d="M821.147,617.251c1.021.55.893,1.938,1.647,2.69.486-.864.972-1.742,1.487-2.6.032-.054.3.031.548.065l-2.041,4.409-1.977-4.294.336-.267" transform="translate(-657.114 -494.151)" fill="#12263f"/>
        <path id="Trazado_599912" data-name="Trazado 599912" d="M907.9,616.6l.849-5.469h2.47l.057.335-2.007.283-.225,1.479,1.776.118.049.37-1.853.234c-.506.8-.062,1.986-.815,2.729l-.3-.079" transform="translate(-726.836 -489.25)" fill="#12263f"/>
        <path id="Trazado_599913" data-name="Trazado 599913" d="M195.852,614.148v2.66l-.369-.02V611.31h2.326l.038.331-1.82.245v1.489l1.734.118.063.351-1.973.3" transform="translate(-156.497 -489.395)" fill="#12263f"/>
        <path id="Trazado_599914" data-name="Trazado 599914" d="M674.538,615.39c0-.789.039-1.581-.016-2.366a6.576,6.576,0,0,0-.341-1.209.7.7,0,0,1-.027-.377c.174-.529.372-1.05.627-1.754.146.138.444.285.472.472.074.5-.079,1.068.637,1.241a.936.936,0,0,1,0,.411c-.99.184-.54.959-.6,1.493-.058.555.028,1.126-.034,1.68-.024.216-.281.405-.431.607l-.291-.2" transform="translate(-539.692 -488.094)" fill="#12263f"/>
        <path id="Trazado_599915" data-name="Trazado 599915" d="M964.039,616.849c.244-1.587.487-3.174.738-4.8l-1.293-.235q.009-.149.018-.3h3.233l.07.234-1.327.305c-.589,1.528-.318,3.382-1.051,4.954l-.388-.157" transform="translate(-771.333 -489.556)" fill="#12263f"/>
        <path id="Trazado_599916" data-name="Trazado 599916" d="M245.657,611.881l-1.388-.313.053-.292h3.243l.077.286-1.29.311c-.1,1.625-.193,3.247-.3,4.868,0,.007-.183,0-.394,0Z" transform="translate(-195.554 -489.367)" fill="#12263f"/>
        <path id="Trazado_599917" data-name="Trazado 599917" d="M1248.113,616.251l.75-4.839-1.273-.257.011-.283a12.363,12.363,0,0,1,3.226-.148l.078.395-1.319.256c-.354,1.619-.715,3.266-1.088,4.91a3.212,3.212,0,0,1-.384-.034" transform="translate(-998.779 -488.897)" fill="#12263f"/>
        <path id="Trazado_599918" data-name="Trazado 599918" d="M1299.153,610.873l-.746,4.816,1.423.09c-.2.612-.461.667-2.092.441a53.6,53.6,0,0,1,.938-5.514l.477.167" transform="translate(-1038.926 -488.911)" fill="#12263f"/>
        <path id="Trazado_599919" data-name="Trazado 599919" d="M546.708,617.539a9.178,9.178,0,0,1,1.38-.227,3.1,3.1,0,0,1,.839.243c-.207.126-.406.343-.622.36-.732.059-.827.607-.877,1.124-.063.657.005,1.326-.042,1.985-.014.2-.224.382-.344.573-.111-.169-.315-.335-.319-.506-.028-1.214-.015-2.43-.015-3.552" transform="translate(-437.674 -494.2)" fill="#12263f"/>
        <path id="Trazado_599920" data-name="Trazado 599920" d="M1232.645,616.624c-.227-1.233.625-5.318,1.149-5.5.137,1.429-.658,5.239-1.149,5.5" transform="translate(-986.784 -489.244)" fill="#12263f"/>
        <path id="Trazado_599921" data-name="Trazado 599921" d="M1318.149,610.932c.33,1.435-.472,5.281-1.114,5.615a27.57,27.57,0,0,1,1.114-5.615" transform="translate(-1054.375 -489.092)" fill="#12263f"/>
        <path id="Trazado_599922" data-name="Trazado 599922" d="M687.414,617.824c.776.157.838.46.674,3.492-.014.262-.241.513-.368.768l-.305-.125Z" transform="translate(-550.321 -494.609)" fill="#12263f"/>
        <path id="Trazado_599923" data-name="Trazado 599923" d="M1366.089,615.234a15.011,15.011,0,0,1,.994-4.28,16.072,16.072,0,0,1-.533,4.417Z" transform="translate(-1093.646 -489.109)" fill="#12263f"/>
        <path id="Trazado_599924" data-name="Trazado 599924" d="M493.045,632.713c.283.322.547.519.515.6-.3.776-.645,1.533-.979,2.3l-.435-.174.9-2.724" transform="translate(-393.997 -506.529)" fill="#12263f"/>
        <path id="Trazado_599925" data-name="Trazado 599925" d="M772.818,636.932c.237-.724.456-1.456.733-2.164.034-.086.374-.052.725-.09l-1.032,2.352-.426-.1" transform="translate(-618.692 -508.102)" fill="#12263f"/>
        <path id="Trazado_599926" data-name="Trazado 599926" d="M1067.512,324.848a1.3,1.3,0,0,1-1.338,1.3,1.243,1.243,0,0,1-1.265-1.342,1.256,1.256,0,0,1,1.31-1.3,1.3,1.3,0,0,1,1.292,1.346" transform="translate(-852.531 -258.985)" fill="#12263f"/>
        <path id="Trazado_599927" data-name="Trazado 599927" d="M1151.112,326.53v-2.5c.9-.188,1.445.121,1.586.894.171.94-.328,1.484-1.586,1.607" transform="translate(-921.542 -259.364)" fill="#12263f"/>
        <path id="Trazado_599928" data-name="Trazado 599928" d="M1023.3,332.96v-1.331l1.185.844-.939.78-.246-.293" transform="translate(-819.219 -265.491)" fill="#12263f"/>
        <path id="Trazado_599929" data-name="Trazado 599929" d="M671.406,323.473v-1.307a2.636,2.636,0,0,1,.846.2.612.612,0,0,1,.094.595,3.894,3.894,0,0,1-.94.514" transform="translate(-537.505 -257.915)" fill="#12263f"/>
        <path id="Trazado_599930" data-name="Trazado 599930" d="M907.309,323.265v-1.282a2.742,2.742,0,0,1,.857.264.62.62,0,0,1,.036.611,3.275,3.275,0,0,1-.893.407" transform="translate(-726.362 -257.769)" fill="#12263f"/>
        <path id="Trazado_599931" data-name="Trazado 599931" d="M952.183,325.746l.4,1.72h-.942l.329-1.747.218.027" transform="translate(-761.848 -260.76)" fill="#12263f"/>
        <path id="Trazado_599932" data-name="Trazado 599932" d="M716.777,327.762H715.8l.324-1.649.239-.022.415,1.67" transform="translate(-573.045 -261.058)" fill="#12263f"/>
        <path id="Trazado_599933" data-name="Trazado 599933" d="M48.134,666.614a1.882,1.882,0,0,1-2.123-1.96,2.857,2.857,0,0,1,2.857-2.835,1.929,1.929,0,0,1,2.137,1.975,2.836,2.836,0,0,1-2.871,2.82" transform="translate(-36.835 -529.83)" fill="#12263f"/>
      </g>
    </g>
  </g>
</svg>
