<svg id="Grupo_882801" data-name="Grupo 882801" xmlns="http://www.w3.org/2000/svg" xmlns:xlink="http://www.w3.org/1999/xlink" width="110" height="89.179" viewBox="0 0 110 89.179">
  <defs>
    <clipPath id="clip-path">
      <rect id="Rectángulo_296500" data-name="Rectángulo 296500" width="110" height="89.179" fill="#12263f"/>
    </clipPath>
  </defs>
  <g id="Grupo_882800" data-name="Grupo 882800" clip-path="url(#clip-path)">
    <path id="Trazado_600101" data-name="Trazado 600101" d="M18.136,20.845a60.534,60.534,0,0,0-1.714,6.232,14.96,14.96,0,0,0-.039,5.129c.878,4.769,4.843,7.868,10.275,8.087a18.336,18.336,0,0,0,5.346-.541c11.6-3.065,23.173-6.236,34.752-9.38a1.345,1.345,0,0,0,.806-.651H59.528c-.127-3.712-.246-7.2-.365-10.679l-.519-.117L54.5,29.565H47.491L58.41.2h7.049l-2.494,7,.362.229a37.418,37.418,0,0,0,3.324-4.006c1.7-2.706,3.936-3.6,7.123-3.406C78.488.309,83.233.1,87.964.1h2.822l-1.8,4.945H81.915L79.682,11.16h6.45a24.955,24.955,0,0,1-2.016,5.688H77.528l-2.6,6.917h7.8c-.085.817-.144,1.379-.216,2.067a4.1,4.1,0,0,0,1.037-.011q10.1-2.718,20.2-5.469c2.75-.746,5.5-1.495,8.255-2.224a2.942,2.942,0,0,1,1.847.034c-.56.3-1.1.644-1.684.9q-39.145,16.9-78.3,33.78a49.249,49.249,0,0,1-12.625,3.98A16.27,16.27,0,0,1,9.419,54.281a9.641,9.641,0,0,1-4.341-9.923,20.816,20.816,0,0,1,.869-3.949c2.5-7.457,7.05-13.673,12.189-19.563m48.3,5.19.555.03L76.088,1.788c-.392.145-.555.156-.635.242-2.948,3.2-5.918,6.375-8.794,9.635a3.363,3.363,0,0,0-.545,2.059c-.017,2.549.06,5.1.128,7.647.041,1.555.13,3.109.2,4.663" transform="translate(-3.846 0)" fill="#12263f"/>
    <path id="Trazado_600102" data-name="Trazado 600102" d="M18.516,298.138h5.829c.08,1.258.154,2.427.238,3.747.252-.215.451-.314.546-.475,1.959-3.313,4.095-4.277,7.9-3.518.658.131,1.3.339,1.947.532.613.184,1.221.653,1.758-.192.109-.171.544-.186.829-.187,3.818-.012,7.636-.008,11.574-.008a14.666,14.666,0,0,1,.12,5.254l-3.14.237v15.415a17.643,17.643,0,0,1-6.089.174V303.676a13.123,13.123,0,0,0-1.453-.265c-1.742-.1-3.515.652-5.235-.47a1.46,1.46,0,0,0-2.126.651c-.365.807.132,1.437.735,1.949.744.631,1.517,1.228,2.247,1.875,2.962,2.623,3.669,5.766,2.007,8.839-1.539,2.845-5.051,4.163-8.611,3.156a22.118,22.118,0,0,1-2.678-1.143V313c.53.216.96.413,1.4.568a13.047,13.047,0,0,0,2.122.67c.743.123,1.7.1,1.888-.77a3.11,3.11,0,0,0-.5-2.006c-.327-.555-1-.895-1.462-1.383-1.264-1.33-2.5-2.689-3.814-4.112,0,2.178-.021,4.329,0,6.48.054,4.58-2.393,7.191-6.976,7.228a12.4,12.4,0,0,1-3.96-.607c-2.007-.67-2.865-1.913-3.946-5.1-.271.839-.451,1.468-.677,2.079a5.909,5.909,0,0,1-8.248,3,1.537,1.537,0,0,1-.706-1.02C-.035,316.71.015,315.375.015,314c3.2.63,3.454.447,3.454-2.59,0-3.451-.061-6.9-.092-10.353-.008-.887,0-1.774,0-2.823H15.707c.042.8.109,1.532.114,2.261.025,3.752.015,7.5.056,11.255.017,1.532.482,2.267,1.291,2.269s1.327-.72,1.342-2.262c.039-3.9.008-7.8.006-11.705,0-.583,0-1.165,0-1.916" transform="translate(0 -230.59)" fill="#12263f"/>
    <path id="Trazado_600103" data-name="Trazado 600103" d="M238.91,318.838V297.761c2.674,0,5.222-.2,7.727.048,3.412.332,5.534,2.439,6.521,5.685.26.856.434,1.739.738,2.981.319-1.409.5-2.505.819-3.561a7.745,7.745,0,0,1,7.862-5.813,6.722,6.722,0,0,1,6.543,4.3,17.086,17.086,0,0,1-.058,13.768,6.6,6.6,0,0,1-6.412,4.121c-3.028.082-5.536-.917-6.949-3.652a39.258,39.258,0,0,1-1.909-5.423c-.182.716-.367,1.58-.621,2.423-1.122,3.717-3.807,6.3-8.055,6.207-2.01-.043-4.021-.007-6.206-.007M264.24,308a42.029,42.029,0,0,0-.7-4.4,1.426,1.426,0,0,0-2.784-.1,16.515,16.515,0,0,0-.012,9.039,2.157,2.157,0,0,0,1.366,1.243c.878.2,1.347-.582,1.491-1.336.277-1.457.431-2.937.641-4.449m-19.384,5.593a1.555,1.555,0,0,0,2.052-1.043,11.722,11.722,0,0,0-.078-8.081c-.3-.777-.9-1.4-1.974-.822Z" transform="translate(-185.085 -230.165)" fill="#12263f"/>
    <path id="Trazado_600104" data-name="Trazado 600104" d="M81.852.839h7.46c-.2,3.759-.392,7.448-.587,11.137l.428.1L93.446.853h6.592c-.106,1.814-6.212,18.644-10.6,29.285H81.886q.318-5.495.636-10.991l-.425-.084-4.218,11.13H70.854l11-29.354" transform="translate(-54.891 -0.65)" fill="#12263f"/>
    <path id="Trazado_600105" data-name="Trazado 600105" d="M168.241,1.12H175.3l-10.97,29.268h-7.056L168.241,1.12" transform="translate(-121.84 -0.868)" fill="#12263f"/>
    <path id="Trazado_600106" data-name="Trazado 600106" d="M434.6,320.964h-5.858V305.388l-3.5-.3V299.98h12.677v5.1l-3.264.246c-.143,5.122-.007,10.247-.052,15.635" transform="translate(-329.436 -232.397)" fill="#12263f"/>
    <path id="Trazado_600107" data-name="Trazado 600107" d="M401.226,321.122h-5.535c-.555-1.543-.8-17.919-.308-20.947h5.843Z" transform="translate(-306.102 -232.548)" fill="#12263f"/>
  </g>
</svg>
