<svg id="Grupo_882810" data-name="Grupo 882810" xmlns="http://www.w3.org/2000/svg" xmlns:xlink="http://www.w3.org/1999/xlink" width="99.331" height="99.366" viewBox="0 0 99.331 99.366">
  <defs>
    <clipPath id="clip-path">
      <rect id="Rectángulo_296517" data-name="Rectángulo 296517" width="99.331" height="99.366" fill="#12263f"/>
    </clipPath>
  </defs>
  <g id="Grupo_882809" data-name="Grupo 882809" clip-path="url(#clip-path)">
    <path id="Trazado_600139" data-name="Trazado 600139" d="M0,130.226a4.681,4.681,0,0,1,3.412-3.355,7.1,7.1,0,0,1,1.442-.131c3.169-.011,6.337-.006,9.506-.006h1.155v-1.213q0-11.688-.005-23.377c0-1.759.423-2.188,2.156-2.189,3.91,0,7.821,0,11.86,0-1.13-2.4-.59-4.872-.711-7.295a4.8,4.8,0,0,1,.067-.964,1.288,1.288,0,0,1,1.343-1.158,1.259,1.259,0,0,1,1.416,1.175c.085,1.028.062,2.065.08,3.1.014.808-.025,1.619.036,2.423a2.774,2.774,0,0,0,2.85,2.711c1.2.035,2.392.014,3.589.014q12.949,0,25.9,0c2.459,0,3.513-1.022,3.515-3.448.007-7.016.026-14.032,0-21.049-.03-7.084-5.316-11.894-12.5-11.333a22.437,22.437,0,0,0-.321,6.392c.107.8.179,1.606.239,2.411a1.513,1.513,0,0,1-1.262,1.777,1.462,1.462,0,0,1-1.608-1.44c-.145-1.088-.235-2.183-.354-3.327H47.543c-.173,1.731-.356,3.455-.516,5.181q-.543,5.84-1.061,11.682a1.582,1.582,0,0,0,.109.927c1.144,1.752,2.331,3.475,3.594,5.338,1.26-1.857,2.461-3.6,3.624-5.372a1.444,1.444,0,0,0,.085-.84c-.166-1.932-.354-3.861-.529-5.793-.041-.451-.084-.9-.091-1.354a1.467,1.467,0,0,1,1.274-1.657,1.505,1.505,0,0,1,1.614,1.459c.157,1.315.254,2.637.376,3.957.125,1.351.289,2.7.351,4.055a2.418,2.418,0,0,1-.36,1.36q-2.433,3.679-4.956,7.3c-.863,1.243-1.925,1.228-2.8-.032q-2.483-3.587-4.9-7.217a2.3,2.3,0,0,1-.4-1.351c.5-5.665,1.1-11.322,1.545-16.991.166-2.136-.017-4.3-.041-6.412A10.983,10.983,0,0,0,31.8,74.315c-.162,3.485-.052,6.982-.072,10.473a7.1,7.1,0,0,1-.081,1.253,1.284,1.284,0,0,1-1.364,1.124,1.305,1.305,0,0,1-1.388-1.1,2.865,2.865,0,0,1-.078-.672c.014-3.718-.073-7.44.076-11.152a13.765,13.765,0,0,1,12.96-13.058c.245-.014.489-.033.9-.062a9.575,9.575,0,0,1-2.5-8.431,9.165,9.165,0,0,1,3.809-5.983,9.416,9.416,0,0,1,12.26.875c3.171,3,4.444,8.622.336,13.507.559.055,1.051.081,1.536.154,7.429,1.114,12.249,6.573,12.317,14.1.065,7.145.034,14.291-.009,21.436a21.133,21.133,0,0,1-.5,3.177h2.221c3.265,0,6.531,0,9.8.009,1.253.005,1.8.527,1.8,1.759q.018,7.42,0,14.841c0,1.065-.571,1.695-1.449,1.694s-1.446-.631-1.45-1.7c-.014-4.171-.006-8.342-.007-12.513v-1.112H18.481v23.725H80.906c0-1.06-.009-2.145,0-3.231.013-1.193.587-1.9,1.5-1.876.884.023,1.409.7,1.416,1.846.006,1.064,0,2.128,0,3.337H84.89c3.33,0,6.661-.019,9.991,0a4.358,4.358,0,0,1,4.218,2.986,4.142,4.142,0,0,1-1.46,4.759,8.87,8.87,0,0,1-2.484.953,4.109,4.109,0,0,1-1.158.029q-44.231,0-88.463.03c-2.723,0-4.623-.878-5.532-3.522Zm49.66-.577H5.239a7.207,7.207,0,0,0-.968.022,1.428,1.428,0,0,0-.025,2.846,12.059,12.059,0,0,0,1.549.035q44.178,0,88.357,0c1.555,0,2.287-.484,2.26-1.49-.027-.974-.721-1.415-2.234-1.415H49.66M56.323,54.7a6.657,6.657,0,1,0-6.862,6.448A6.695,6.695,0,0,0,56.323,54.7M47.512,66.92h4.316c.091-.963.177-1.875.264-2.79H47.224l.288,2.79" transform="translate(0 -36.128)" fill="#12263f"/>
    <path id="Trazado_600140" data-name="Trazado 600140" d="M249.718,0a1.9,1.9,0,0,1,1.073,1.988c-.029.872.024,1.748-.033,2.617a1.367,1.367,0,0,1-1.477,1.447A1.353,1.353,0,0,1,247.9,4.6a15.452,15.452,0,0,1,.036-3.094c.088-.543.654-1.009,1-1.51Z" transform="translate(-199.661)" fill="#12263f"/>
    <path id="Trazado_600141" data-name="Trazado 600141" d="M210.513,366.809c.156-.957.409-2.162.523-3.38a2.015,2.015,0,0,0-.418-1.338c-.677-.819-1.475-1.537-2.22-2.3a2.01,2.01,0,0,1-.61-2.2,2.031,2.031,0,0,1,1.806-1.4,3.468,3.468,0,0,1,.667-.109c2.519.173,3.894-1.134,4.515-3.445a4.067,4.067,0,0,1,.278-.617,2.049,2.049,0,0,1,1.932-1.376,2.089,2.089,0,0,1,1.908,1.417c.419.908.9,1.791,1.257,2.723a1.436,1.436,0,0,0,1.355,1c.962.108,1.917.275,2.874.42a2.023,2.023,0,0,1,1.782,1.425,2,2,0,0,1-.587,2.119c-.762.792-1.578,1.536-2.285,2.372a1.9,1.9,0,0,0-.4,1.257c.089,1.058.318,2.1.488,3.156a2.05,2.05,0,0,1-3.232,2.241c-.784-.449-1.612-.829-2.365-1.322a1.364,1.364,0,0,0-1.669.024,28.414,28.414,0,0,1-2.712,1.5c-1.505.725-2.941-.242-2.886-2.167m6.284-11.974c-.541,2.945-2.355,4.1-5.141,3.9.9,1.133,1.973,1.98,2.312,3.057.334,1.061-.079,2.356-.183,3.827,2.143-2.062,4.25-1.931,6.331-.1-.081-1.43-.472-2.743-.128-3.821.338-1.057,1.423-1.875,2.161-2.775-1.163-.3-2.474-.316-3.329-.949s-1.252-1.882-2.023-3.146" transform="translate(-167.299 -282.485)" fill="#12263f"/>
    <path id="Trazado_600142" data-name="Trazado 600142" d="M140.719,384.089c-.031,1.446-1.446,2.472-2.564,1.721a4.109,4.109,0,0,0-5.207-.023c-1.259.857-2.781-.392-2.594-1.95.093-.769.3-1.528.338-2.3a1.95,1.95,0,0,0-.389-1.163c-.405-.538-.944-.972-1.4-1.474a1.879,1.879,0,0,1,1.072-3.285.36.36,0,0,1,.094-.02c2.006.133,3.128-.874,3.673-2.741a1.773,1.773,0,0,1,1.81-1.353,1.811,1.811,0,0,1,1.783,1.4,3.332,3.332,0,0,0,3.607,2.71,1.729,1.729,0,0,1,1.752,1.293,1.8,1.8,0,0,1-.637,2.094,3.642,3.642,0,0,0-1.418,4.591,2.573,2.573,0,0,1,.081.5m-8.284-5.819a3.234,3.234,0,0,1,1.023,4.084,2.952,2.952,0,0,1,4.131-.069,3.171,3.171,0,0,1,1.075-4.029,3.164,3.164,0,0,1-3.168-2.275,3.059,3.059,0,0,1-3.062,2.29" transform="translate(-103.334 -299.287)" fill="#12263f"/>
    <path id="Trazado_600143" data-name="Trazado 600143" d="M310.106,384.022a18.864,18.864,0,0,1,.371-2.292,1.339,1.339,0,0,0-.516-1.512,15.243,15.243,0,0,1-1.421-1.456,1.844,1.844,0,0,1,1.01-3.094.9.9,0,0,1,.281-.069c2.1.178,3.128-1,3.714-2.831a1.746,1.746,0,0,1,1.771-1.266,1.7,1.7,0,0,1,1.7,1.222c.569,1.913,1.684,2.968,3.784,2.907a1.661,1.661,0,0,1,1.657,1.269,1.726,1.726,0,0,1-.568,2.017,3.792,3.792,0,0,0-1.462,4.774,1.7,1.7,0,0,1-.707,1.969,1.588,1.588,0,0,1-1.994.095c-1.677-1.333-3.188-1.166-4.92,0a1.781,1.781,0,0,1-2.7-1.735m8.279-5.747a3.115,3.115,0,0,1-3.087-2.294,3.059,3.059,0,0,1-3.134,2.231c1.417,1.754,1.417,1.754,1.257,3.965,1.239-.986,2.483-.982,3.947.131a3.166,3.166,0,0,1,1.018-4.034" transform="translate(-248.149 -299.284)" fill="#12263f"/>
    <path id="Trazado_600144" data-name="Trazado 600144" d="M324.325,50.7a3.69,3.69,0,0,1-.772.928,26.935,26.935,0,0,1-2.58,1.516,1.48,1.48,0,0,1-2.036-.46,1.425,1.425,0,0,1,.546-2,28.027,28.027,0,0,1,2.764-1.581c1.06-.515,2.118.175,2.078,1.6" transform="translate(-256.765 -39.414)" fill="#12263f"/>
    <path id="Trazado_600145" data-name="Trazado 600145" d="M153.182,100.644c-.548,0-1.1.044-1.642-.01a1.43,1.43,0,0,1,.006-2.856c1.092-.058,2.191-.055,3.284,0a1.443,1.443,0,0,1,1.42,1.434,1.468,1.468,0,0,1-1.427,1.433c-.544.044-1.094.008-1.642.008v0" transform="translate(-120.989 -78.735)" fill="#12263f"/>
    <path id="Trazado_600146" data-name="Trazado 600146" d="M332.761,97.82c.548,0,1.1-.041,1.642.01a1.409,1.409,0,0,1,1.357,1.477,1.363,1.363,0,0,1-1.355,1.379,29.98,29.98,0,0,1-3.38-.007,1.329,1.329,0,0,1-1.307-1.419,1.35,1.35,0,0,1,1.305-1.423,16.232,16.232,0,0,1,1.738-.012v0" transform="translate(-265.622 -78.792)" fill="#12263f"/>
    <path id="Trazado_600147" data-name="Trazado 600147" d="M293.446,14.028a6.8,6.8,0,0,1-.323.955c-.5.9-.994,1.808-1.546,2.678a1.426,1.426,0,0,1-1.925.571,1.4,1.4,0,0,1-.6-1.911,33.413,33.413,0,0,1,1.694-2.924,1.22,1.22,0,0,1,1.687-.489,4.6,4.6,0,0,1,1.018,1.12" transform="translate(-232.722 -10.263)" fill="#12263f"/>
    <path id="Trazado_600148" data-name="Trazado 600148" d="M168.915,51.7c.022,1.306-1.062,2.044-2.041,1.571a25.991,25.991,0,0,1-2.924-1.688,1.382,1.382,0,0,1-.426-1.951,1.33,1.33,0,0,1,1.854-.5,29.487,29.487,0,0,1,2.839,1.643,3.05,3.05,0,0,1,.7.927" transform="translate(-131.544 -39.427)" fill="#12263f"/>
    <path id="Trazado_600149" data-name="Trazado 600149" d="M203.864,17.362c-.421.506-.713,1.185-1.131,1.273a2,2,0,0,1-1.678-.469,15.451,15.451,0,0,1-1.716-2.9,1.393,1.393,0,0,1,.591-1.915,1.327,1.327,0,0,1,1.861.479c.707,1.1,1.332,2.257,2.073,3.528" transform="translate(-160.453 -10.603)" fill="#12263f"/>
  </g>
</svg>
