<svg id="Grupo_882796" data-name="Grupo 882796" xmlns="http://www.w3.org/2000/svg" xmlns:xlink="http://www.w3.org/1999/xlink" width="104.241" height="104.208" viewBox="0 0 104.241 104.208">
  <defs>
    <clipPath id="clip-path">
      <rect id="Rectángulo_296397" data-name="Rectángulo 296397" width="104.241" height="104.208" fill="#12263f"/>
    </clipPath>
  </defs>
  <g id="Grupo_882749" data-name="Grupo 882749" clip-path="url(#clip-path)">
    <path id="Trazado_599766" data-name="Trazado 599766" d="M51.677,104.2c-29-.529-52.155-24.1-51.67-52.6C.5,22.8,24.334-.5,52.782.008c28.625.507,51.824,24.166,51.455,52.474-.377,28.847-24.147,52.237-52.56,51.717m-24.628-90.1C11.68,23,3.489,42.8,7.157,61.462,10.935,80.681,27.072,95.289,47.35,97.847,61.338,99.612,80.8,91.925,85.182,82.906c-38.611,6.016-70.46-29.867-58.134-68.811m59.3,8.187a5.786,5.786,0,0,0-.577-1.191C75.123,8.457,53.683,2.708,38.347,8.509a6.823,6.823,0,0,0-3.259,3.173,40.171,40.171,0,0,0-4.411,20.354,7.053,7.053,0,0,0,2.368,4.606,43.544,43.544,0,0,0,25.893,9.18,4.657,4.657,0,0,0,3.618-1.613,54.178,54.178,0,0,1,23.8-21.928M95.8,38.314A55.6,55.6,0,0,1,67.751,51.666,4.282,4.282,0,0,0,64.9,54.361c-1.078,5.928-1.8,11.92-2.646,17.891-.34,2.411,1.016,3.331,3.139,3.792a46.972,46.972,0,0,0,24.386-.764,5.487,5.487,0,0,0,3.076-2.269c5.526-10.905,6.61-22.238,2.946-34.7M32.766,45.357C36.207,57,46.594,69.116,55.378,71.694c.987-6.454,1.981-12.952,2.843-18.581L32.766,45.357M69.428,44.9a45.212,45.212,0,0,0,23.916-12.93l-2.8-4.7A46.973,46.973,0,0,0,69.428,44.9" transform="translate(0 0)" fill="#12263f"/>
  </g>
</svg>
