<svg id="Grupo_882799" data-name="Grupo 882799" xmlns="http://www.w3.org/2000/svg" xmlns:xlink="http://www.w3.org/1999/xlink" width="97.488" height="103.123" viewBox="0 0 97.488 103.123">
  <defs>
    <clipPath id="clip-path">
      <rect id="Rect치ngulo_296499" data-name="Rect치ngulo 296499" width="97.488" height="103.123" fill="#12263f"/>
    </clipPath>
  </defs>
  <g id="Grupo_882798" data-name="Grupo 882798" clip-path="url(#clip-path)">
    <path id="Trazado_600093" data-name="Trazado 600093" d="M30.13,350.4a28.389,28.389,0,0,0-.507-3.312,5.045,5.045,0,0,0-4.69-3.736c-1.645-.1-3.3-.095-4.935-.268a11.643,11.643,0,0,1-7.51-3.942,12.106,12.106,0,0,1-3.509-8.334,32.166,32.166,0,0,0-1.511-8.82,11.474,11.474,0,0,1-.29-1.172c-.094-.569-.437-.77-.974-.834a11.3,11.3,0,0,1-1.8-.344C.872,318.615-1.124,313.964.672,310.8c.509-.9,1.1-1.747,1.666-2.612,1.311-2.011,2.618-4.024,3.945-6.024a14.064,14.064,0,0,0,2.194-6.6A57.821,57.821,0,0,1,12.434,278.8c.3-.711.65-1.4.963-2.1.133-.3.3-.385.609-.229.888.455,1.784.894,2.674,1.343a.694.694,0,0,1,.355,1.062,42.91,42.91,0,0,0-3.255,10.235c-.449,2.57-.906,5.148-1.158,7.741a18.318,18.318,0,0,1-3.046,8.189c-1.361,2.124-2.808,4.193-4.2,6.294a11.53,11.53,0,0,0-.847,1.45,1.914,1.914,0,0,0,1.4,2.781,25.593,25.593,0,0,0,2.827.2c.49.027.981.028,1.471.055a.546.546,0,0,1,.57.546c.216,1.384.467,2.763.724,4.14.07.374.206.736.327,1.154,1.18-.154,2.32-.315,3.463-.449.939-.11,1.88-.22,2.823-.271.7-.037.959.21,1.052.9.115.851.173,1.71.3,2.559.067.454-.136.578-.525.63-1.823.242-3.644.5-5.469.739-.283.037-.463.076-.445.42.09,1.662.132,3.327.256,4.985a8.7,8.7,0,0,0,8.163,7.779A31.43,31.43,0,0,0,34.978,336.7a17.734,17.734,0,0,0,3.278-1.852A5.229,5.229,0,0,0,39.44,333.3c.174-.273.285-.5.669-.425q1.623.32,3.254.6c.425.074.487.279.369.665a8.075,8.075,0,0,1-2.69,3.992,20.45,20.45,0,0,1-7.273,3.54c-.585.173-1.167.354-1.826.555.1.211.162.379.247.538.521.97,1.061,1.93,1.56,2.911a.635.635,0,0,0,.651.448q15.862-.018,31.724-.01c.139,0,.278-.012.476-.022,0-.27.007-.525,0-.78a74.93,74.93,0,0,1,.171-9.882,53.159,53.159,0,0,1,2.988-13.294c1.189-3.215,2.528-6.378,3.9-9.523a29.809,29.809,0,0,0,2.557-12.2c-.008-1.279,0-2.558,0-3.932l4.14-.511c.063.85.135,1.645.178,2.441a35.165,35.165,0,0,1-3.22,16.45,87.979,87.979,0,0,0-4.88,13.127,54.75,54.75,0,0,0-1.5,16.117c.068,2.1.229,4.2.348,6.3Z" transform="translate(-0.001 -247.281)" fill="#12263f"/>
    <path id="Trazado_600094" data-name="Trazado 600094" d="M380.514,55.364H360.477c-.056-.808-.123-1.6-.165-2.4a15.254,15.254,0,0,0-4.531-10.286c-1.357-1.369-2.764-2.706-3.978-4.2a22.887,22.887,0,0,1-5.109-14.945,23.681,23.681,0,0,1,46.4-6.521,22.7,22.7,0,0,1-3.466,20.533,54.394,54.394,0,0,1-5.046,5.564,14.112,14.112,0,0,0-4.065,9.957c-.012.75,0,1.5,0,2.3M377.429,45.9l.1.036c.086-.162.167-.327.26-.485a24.019,24.019,0,0,1,1.853-3.043c1.4-1.7,2.883-3.345,4.431-4.915A18.629,18.629,0,0,0,389.3,19.5a19.392,19.392,0,0,0-38.311,3.6,18.832,18.832,0,0,0,2.3,10,26.565,26.565,0,0,0,4.714,5.759,21.478,21.478,0,0,1,4.613,5.952,5.87,5.87,0,0,0,.437.658.97.97,0,0,0,.022-.51c-.805-4.392-1.6-8.786-2.426-13.173a8.7,8.7,0,0,1,.45-5.455,9.159,9.159,0,0,1,8.56-5.588c3.368-.125,6.314.784,8.413,3.62a8.447,8.447,0,0,1,1.877,6.531c-.617,3.838-1.275,7.67-1.92,11.5-.2,1.166-.4,2.331-.607,3.5m-8.791,5.191c1.011,0,1.956,0,2.9,0,.475,0,.684-.252.747-.7.076-.537.187-1.069.275-1.6,1.011-6.1,2.034-12.189,3.023-18.289a4.478,4.478,0,0,0-2.383-4.834,6.969,6.969,0,0,0-4.92-.434c-2.5.535-3.917,2.995-3.418,5.708q1.192,6.481,2.388,12.961c.446,2.39.921,4.775,1.388,7.19" transform="translate(-310.175 0)" fill="#12263f"/>
    <path id="Trazado_600095" data-name="Trazado 600095" d="M497.281,571.436V567.22h15.748v4.221c-.768,0-1.587.021-2.4-.007a.887.887,0,0,0-1.067.759A4.6,4.6,0,0,1,506,575.749a4.687,4.687,0,0,1-5.382-3.512c-.193-.8-.193-.8-.99-.8h-2.347" transform="translate(-444.9 -507.471)" fill="#12263f"/>
    <path id="Trazado_600096" data-name="Trazado 600096" d="M238.681,301.318l2.856,3.142-6.739,6.734-2.879-2.877,6.761-7" transform="translate(-207.491 -269.578)" fill="#12263f"/>
    <rect id="Rect치ngulo_296498" data-name="Rect치ngulo 296498" width="9.782" height="4.21" transform="translate(87.707 20.763)" fill="#12263f"/>
    <path id="Trazado_600097" data-name="Trazado 600097" d="M214.009,197.1v4.218c-.192.009-.363.024-.534.024-2.839,0-5.679-.011-8.518.013-.48,0-.587-.147-.576-.6.03-1.206.01-2.413.01-3.658Z" transform="translate(-182.852 -176.337)" fill="#12263f"/>
    <path id="Trazado_600098" data-name="Trazado 600098" d="M807.335,31.8l3.111,2.787-6.98,6.6-2.7-2.7,6.566-6.685" transform="translate(-716.419 -28.447)" fill="#12263f"/>
    <path id="Trazado_600099" data-name="Trazado 600099" d="M237.32,33.9l2.844-2.853,6.737,6.737-2.847,2.845L237.32,33.9" transform="translate(-212.322 -27.774)" fill="#12263f"/>
    <path id="Trazado_600100" data-name="Trazado 600100" d="M809.144,303.4l6.7,6.705-2.911,2.881-6.68-6.686,2.889-2.9" transform="translate(-721.327 -271.445)" fill="#12263f"/>
  </g>
</svg>
