<svg id="Grupo_882808" data-name="Grupo 882808" xmlns="http://www.w3.org/2000/svg" xmlns:xlink="http://www.w3.org/1999/xlink" width="121.5" height="121.466" viewBox="0 0 121.5 121.466">
  <defs>
    <clipPath id="clip-path">
      <rect id="Rectángulo_296514" data-name="Rectángulo 296514" width="121.5" height="121.466" fill="#12263f"/>
    </clipPath>
  </defs>
  <g id="Grupo_882807" data-name="Grupo 882807" clip-path="url(#clip-path)">
    <path id="Trazado_600133" data-name="Trazado 600133" d="M307.936,121.466a2.874,2.874,0,0,1-1.413-2.768c.038-7.589.018-15.178.02-22.768,0-2.174.628-2.792,2.848-2.794q8.955-.007,17.91,0h1.46V89.067c-.58,0-1.156.02-1.73,0a2.038,2.038,0,0,1-2.243-2.3c-.017-3.518.008-7.036-.018-10.554a7.6,7.6,0,0,0-.262-1.979q-8.8-31.343-17.648-62.672a3.348,3.348,0,0,1,.577-3.3c1.811-2.295,3.548-4.649,5.275-7.008A2.838,2.838,0,0,1,315.226,0q15.657.036,31.313,0a2.825,2.825,0,0,1,2.492,1.284c1.722,2.363,3.467,4.711,5.272,7.011a3.27,3.27,0,0,1,.573,3.195Q347.1,39,339.366,66.524c-.727,2.583-1.477,5.16-2.176,7.75a7.911,7.911,0,0,0-.266,1.979c-.026,3.36-.009,6.72-.013,10.08,0,2.135-.588,2.711-2.757,2.741-.387.005-.774.034-1.222.055v4.006h1.389q8.955,0,17.91,0c2.364,0,2.92.566,2.92,2.944,0,7.55-.02,15.1.02,22.649a2.754,2.754,0,0,1-1.444,2.737Zm2.754-4.135h40.327V97.252H310.69ZM342.337,12.218H319.375L330.747,52.5l.22-.011,11.369-40.269m-31.053.039L328.31,72.773h3.863c-.08-.332-.128-.559-.191-.783q-7.965-28.306-15.932-56.611c-.972-3.452-.973-3.452-4.525-3.2a1.756,1.756,0,0,0-.241.078m39.175-.115a26.028,26.028,0,0,1-2.624-.018c-.959-.1-1.364.238-1.628,1.184q-6.465,23.086-12.991,46.155a2.816,2.816,0,0,0-.1,1.383c.525,2.056,1.121,4.093,1.692,6.137l.209.026,15.438-54.867m-1.439-4.1c-.922-1.233-1.656-2.315-2.506-3.3a2.024,2.024,0,0,0-1.341-.66q-14.34-.056-28.681-.018c-.329,0-.793.039-.963.248-.956,1.171-1.841,2.4-2.84,3.728ZM332.778,76.977h-3.887v7.974h3.887Z" transform="translate(-233.672 0)" fill="#12263f"/>
    <path id="Trazado_600134" data-name="Trazado 600134" d="M0,35.417a2.825,2.825,0,0,1,2.756-1.424q18.5.046,37,.005a3.446,3.446,0,0,1,2.635,1.074q8.612,8.661,17.276,17.271a3.444,3.444,0,0,1,1.084,2.63q-.029,28.694-.015,57.388c0,1.951-.665,2.62-2.648,2.62Q30.4,114.989,2.7,115A2.933,2.933,0,0,1,0,113.7Zm4.1,75.411H56.621V56.291H55.259q-7.056,0-14.112,0c-2.018,0-2.689-.677-2.691-2.713q-.006-7.114,0-14.227c0-.414-.037-.828-.056-1.22H4.1Zm49.16-58.606L42.6,41.568V52.222Z" transform="translate(0 -25.914)" fill="#12263f"/>
    <path id="Trazado_600135" data-name="Trazado 600135" d="M0,393.342A2.677,2.677,0,0,1,2.78,391.8q23.52.037,47.04.018c2.145,0,2.832.691,2.833,2.83,0,7.581-.018,15.163.021,22.744a2.838,2.838,0,0,1-1.425,2.755H0Zm4.081,22.7H48.544V403.756c-1.587.074-3.112.205-4.637.208q-17.017.026-34.034,0c-1.919,0-3.838-.117-5.793-.182Zm43.9-20.094H4.674c.192.81.358,1.53.533,2.247.422,1.729.424,1.73,2.2,1.73h37.81a2.431,2.431,0,0,0,.938-.029c.386-.177.889-.438,1.012-.782.353-.992.541-2.043.817-3.167" transform="translate(0 -298.681)" fill="#12263f"/>
    <path id="Trazado_600136" data-name="Trazado 600136" d="M101.626,78.958H97.695V4.16H43.1V.06H98.912c2.141,0,2.769.617,2.769,2.73q0,37.477,0,74.954c0,.385-.033.769-.053,1.213" transform="translate(-32.856 -0.045)" fill="#12263f"/>
    <path id="Trazado_600137" data-name="Trazado 600137" d="M352.77,432.675c0,.434-.031.87.006,1.3a2.659,2.659,0,0,1-1.786,2.862c-5.315,2.487-3.282,2.471-8.5.039a2.822,2.822,0,0,1-1.9-3.028c.068-1.021,0-2.049.02-3.074a2.159,2.159,0,0,1,1.311-2.066,37.881,37.881,0,0,1,3.608-1.754,3.966,3.966,0,0,1,2.345-.006c1.039.322,1.962,1,2.98,1.417a2.756,2.756,0,0,1,1.93,3.127,11.333,11.333,0,0,0-.006,1.182m-4.065-.067c-.009-.677-1.141-1.643-1.964-1.676-.786-.032-2.084,1.012-2.091,1.682-.008.7,1.2,1.724,2.035,1.733s2.029-1.01,2.02-1.738" transform="translate(-259.629 -325.343)" fill="#12263f"/>
    <rect id="Rectángulo_296507" data-name="Rectángulo 296507" width="16.048" height="3.929" transform="translate(97.267 101.291)" fill="#12263f"/>
    <rect id="Rectángulo_296508" data-name="Rectángulo 296508" width="16.017" height="3.894" transform="translate(97.304 109.39)" fill="#12263f"/>
    <rect id="Rectángulo_296509" data-name="Rectángulo 296509" width="44.459" height="3.846" transform="translate(8.161 77.013)" fill="#12263f"/>
    <path id="Trazado_600138" data-name="Trazado 600138" d="M50.194,76.464q0,1.421,0,2.843a2,2,0,0,1-1.448,2.067c-1.978.672-3.952,1.356-5.949,1.965a2.7,2.7,0,0,1-1.49-.044c-1.883-.577-3.739-1.241-5.616-1.839A2.227,2.227,0,0,1,34,79.063q.028-2.665,0-5.331a2.17,2.17,0,0,1,1.7-2.374,3.1,3.1,0,0,0,.67-.23c4.052-2.219,8.037-1.7,12.062.149A2.425,2.425,0,0,1,50.2,73.739c-.031.907-.006,1.816-.006,2.724ZM38.131,77.9c3.313,1.521,3.656,1.49,6.724.563,1.1-.332,1.284-.882,1.338-1.922.068-1.323-.276-2.085-1.639-2.286a5.416,5.416,0,0,1-1.234-.4c-1.89-.775-3.383.561-5.056.933q-.086,1.5-.171,3a.32.32,0,0,0,.04.111" transform="translate(-25.919 -53.109)" fill="#12263f"/>
    <rect id="Rectángulo_296510" data-name="Rectángulo 296510" width="5.909" height="3.869" transform="translate(28.436 16.267)" fill="#12263f"/>
    <rect id="Rectángulo_296511" data-name="Rectángulo 296511" width="5.931" height="3.865" transform="translate(28.416 24.385)" fill="#12263f"/>
    <rect id="Rectángulo_296512" data-name="Rectángulo 296512" width="12.023" height="3.864" transform="translate(16.234 109.417)" fill="#12263f"/>
    <rect id="Rectángulo_296513" data-name="Rectángulo 296513" width="3.87" height="3.927" transform="translate(8.163 109.405)" fill="#12263f"/>
  </g>
</svg>
