<svg xmlns="http://www.w3.org/2000/svg" width="410.391" height="299.098" viewBox="0 0 410.391 299.098">
  <g id="Grupo_882887" data-name="Grupo 882887" transform="translate(0 -54.953)">
    <g id="Background_Complete" data-name="Background Complete" transform="translate(0 54.953)">
      <g id="Grupo_66249" data-name="Grupo 66249">
        <rect id="Rectángulo_30170" data-name="Rectángulo 30170" width="410.39" height="0.205" transform="translate(0 268.761)" fill="#ebebeb"/>
        <rect id="Rectángulo_30171" data-name="Rectángulo 30171" width="27.186" height="0.205" transform="translate(342.084 281.972)" fill="#ebebeb"/>
        <rect id="Rectángulo_30172" data-name="Rectángulo 30172" width="7.135" height="0.205" transform="translate(264.724 284.199)" fill="#ebebeb"/>
        <rect id="Rectángulo_30173" data-name="Rectángulo 30173" width="15.753" height="0.205" transform="translate(325.51 274.35)" fill="#ebebeb"/>
        <rect id="Rectángulo_30174" data-name="Rectángulo 30174" width="35.452" height="0.205" transform="translate(43.057 275.729)" fill="#ebebeb"/>
        <rect id="Rectángulo_30175" data-name="Rectángulo 30175" width="5.198" height="0.205" transform="translate(85.817 275.729)" fill="#ebebeb"/>
        <rect id="Rectángulo_30176" data-name="Rectángulo 30176" width="76.887" height="0.205" transform="translate(107.909 279.195)" fill="#ebebeb"/>
        <path id="Trazado_132629" data-name="Trazado 132629" d="M201.384,287.108H42.892a4.691,4.691,0,0,1-4.685-4.685V59.637a4.69,4.69,0,0,1,4.685-4.684H201.384a4.69,4.69,0,0,1,4.684,4.684V282.423A4.691,4.691,0,0,1,201.384,287.108ZM42.892,55.158a4.484,4.484,0,0,0-4.48,4.479V282.423a4.484,4.484,0,0,0,4.48,4.48H201.384a4.484,4.484,0,0,0,4.479-4.48V59.637a4.484,4.484,0,0,0-4.479-4.479Z" transform="translate(-6.847 -54.953)" fill="#ebebeb"/>
        <path id="Trazado_132630" data-name="Trazado 132630" d="M417.68,287.108H259.189a4.69,4.69,0,0,1-4.684-4.685V59.637a4.689,4.689,0,0,1,4.684-4.684H417.68a4.69,4.69,0,0,1,4.686,4.684V282.423A4.691,4.691,0,0,1,417.68,287.108ZM259.189,55.158a4.484,4.484,0,0,0-4.479,4.479V282.423a4.484,4.484,0,0,0,4.479,4.48H417.68a4.485,4.485,0,0,0,4.481-4.48V59.637a4.485,4.485,0,0,0-4.481-4.479Z" transform="translate(-45.612 -54.953)" fill="#ebebeb"/>
      </g>
      <g id="Grupo_66269" data-name="Grupo 66269" transform="translate(39.243 11.178)">
        <g id="Grupo_66250" data-name="Grupo 66250" transform="translate(215.367 7.266)">
          <path id="Trazado_132631" data-name="Trazado 132631" d="M346.091,94.423a4.011,4.011,0,0,0-5.166-3.844,8.588,8.588,0,0,0,.089-1.232,8.5,8.5,0,0,0-10.064-8.353,7.428,7.428,0,0,0-13.774,3.756c-.042,0-.082-.007-.124-.007a6.847,6.847,0,1,0,0,13.693H342.2l-.006-.006A4.011,4.011,0,0,0,346.091,94.423Z" transform="translate(-310.205 -77.425)" fill="#f0f0f0"/>
          <path id="Trazado_132632" data-name="Trazado 132632" d="M333.426,103.745V95.92h-6.382v7.824h-5.2l8.388,7.088,8.388-7.088Z" transform="translate(-312.291 -80.74)" fill="#e0e0e0"/>
        </g>
        <g id="Grupo_66251" data-name="Grupo 66251" transform="translate(49.257)">
          <path id="Trazado_132633" data-name="Trazado 132633" d="M184.039,104.673a8.517,8.517,0,0,0-10.971-8.163,18.236,18.236,0,0,0,.191-2.617,18.041,18.041,0,0,0-21.376-17.74,15.775,15.775,0,0,0-29.254,7.976c-.089,0-.174-.013-.263-.013a14.541,14.541,0,1,0,0,29.081h53.4l-.011-.011A8.519,8.519,0,0,0,184.039,104.673Z" transform="translate(-107.825 -68.572)" fill="#f0f0f0"/>
          <path id="Trazado_132634" data-name="Trazado 132634" d="M143.586,110.076v16.617H157.14V110.076h11.037L150.363,95.023l-17.814,15.053Z" transform="translate(-112.256 -73.313)" fill="#e0e0e0"/>
        </g>
        <g id="Grupo_66256" data-name="Grupo 66256" transform="translate(119.661 25.689)">
          <path id="Trazado_132635" data-name="Trazado 132635" d="M208.97,158.252V135.9H277.41v22.122" transform="translate(-196.356 -106.328)" fill="none" stroke="#e6e6e6" stroke-miterlimit="10" stroke-width="1"/>
          <line id="Línea_1769" data-name="Línea 1769" y2="43.348" transform="translate(47.846 8.515)" fill="none" stroke="#e6e6e6" stroke-miterlimit="10" stroke-width="1"/>
          <g id="Grupo_66252" data-name="Grupo 66252" transform="translate(35.231)">
            <rect id="Rectángulo_30177" data-name="Rectángulo 30177" width="25.229" height="15.804" rx="1.187" fill="#f0f0f0"/>
            <rect id="Rectángulo_30178" data-name="Rectángulo 30178" width="23.486" height="13.316" rx="0.421" transform="translate(0.871 1.857)" fill="#e0e0e0"/>
          </g>
          <g id="Grupo_66253" data-name="Grupo 66253" transform="translate(0 49.897)">
            <rect id="Rectángulo_30179" data-name="Rectángulo 30179" width="25.229" height="15.804" rx="1.187" fill="#f0f0f0"/>
            <rect id="Rectángulo_30180" data-name="Rectángulo 30180" width="23.486" height="13.316" rx="0.421" transform="translate(0.871 1.857)" fill="#e0e0e0"/>
          </g>
          <g id="Grupo_66254" data-name="Grupo 66254" transform="translate(35.231 49.897)">
            <rect id="Rectángulo_30181" data-name="Rectángulo 30181" width="25.229" height="15.804" rx="1.187" fill="#f0f0f0"/>
            <rect id="Rectángulo_30182" data-name="Rectángulo 30182" width="23.486" height="13.316" rx="0.421" transform="translate(0.871 1.857)" fill="#e0e0e0"/>
          </g>
          <g id="Grupo_66255" data-name="Grupo 66255" transform="translate(68.494 49.897)">
            <rect id="Rectángulo_30183" data-name="Rectángulo 30183" width="25.229" height="15.804" rx="1.187" fill="#f0f0f0"/>
            <rect id="Rectángulo_30184" data-name="Rectángulo 30184" width="23.486" height="13.316" rx="0.421" transform="translate(0.871 1.857)" fill="#e0e0e0"/>
          </g>
          <path id="Rectángulo_30185" data-name="Rectángulo 30185" d="M.806,0H9.439a.805.805,0,0,1,.805.805V9.439a.806.806,0,0,1-.806.806H.805A.805.805,0,0,1,0,9.439V.806A.806.806,0,0,1,.806,0Z" transform="translate(40.602 29.576) rotate(-45)" fill="#e0e0e0" style="isolation: isolate"/>
        </g>
        <g id="Grupo_66259" data-name="Grupo 66259" transform="translate(0.652 44.386)">
          <rect id="Rectángulo_30186" data-name="Rectángulo 30186" width="17.852" height="10.698" rx="0.871" transform="translate(16.087)" fill="#e0e0e0" opacity="0.8"/>
          <rect id="Rectángulo_30187" data-name="Rectángulo 30187" width="14.438" height="8.167" rx="0.871" transform="translate(6.973 23.01)" fill="#e0e0e0"/>
          <rect id="Rectángulo_30188" data-name="Rectángulo 30188" width="14.438" height="8.167" rx="0.871" transform="translate(28.879 23.01)" fill="#e0e0e0"/>
          <g id="Grupo_66257" data-name="Grupo 66257" transform="translate(22.269 40.291)">
            <rect id="Rectángulo_30189" data-name="Rectángulo 30189" width="7.578" height="6.976" rx="0.871" fill="#e0e0e0"/>
            <rect id="Rectángulo_30190" data-name="Rectángulo 30190" width="7.578" height="6.976" rx="0.871" transform="translate(9.624)" fill="#e0e0e0"/>
            <rect id="Rectángulo_30191" data-name="Rectángulo 30191" width="7.578" height="6.976" rx="0.871" transform="translate(19.248)" fill="#e0e0e0"/>
          </g>
          <rect id="Rectángulo_30192" data-name="Rectángulo 30192" width="7.578" height="6.976" rx="0.871" transform="translate(0 40.291)" fill="#e0e0e0"/>
          <rect id="Rectángulo_30193" data-name="Rectángulo 30193" width="7.578" height="6.976" rx="0.871" transform="translate(10.446 40.291)" fill="#e0e0e0"/>
          <g id="Grupo_66258" data-name="Grupo 66258" transform="translate(3.262 10.698)">
            <path id="Trazado_132636" data-name="Trazado 132636" d="M86.921,148h.821V142.25H77.071v-6.566h-.821v6.566H65.58V148H66.4v-4.925h20.52Z" transform="translate(-54.91 -135.684)" fill="#e0e0e0"/>
            <path id="Trazado_132637" data-name="Trazado 132637" d="M63.251,165.609H52.58v4.1H53.4V166.43h9.849v3.283h.821v-9.029h-.821Z" transform="translate(-52.58 -140.165)" fill="#e0e0e0"/>
            <path id="Trazado_132638" data-name="Trazado 132638" d="M90.251,166.43v-5.745H89.43v5.745H79.58v3.283H80.4V167.25H89.43v2.462h.821V167.25h9.029v2.462h.821V166.43Z" transform="translate(-57.419 -140.165)" fill="#e0e0e0"/>
          </g>
        </g>
        <g id="Grupo_66260" data-name="Grupo 66260" transform="translate(249.042 31.347)">
          <path id="Trazado_132639" data-name="Trazado 132639" d="M380.993,122.371v5.9l3.036.286A15.746,15.746,0,0,0,386.293,134l-1.95,2.356,4.17,4.17,2.356-1.95a15.763,15.763,0,0,0,5.446,2.265l.286,3.036h5.9l.286-3.037a15.749,15.749,0,0,0,5.447-2.264l2.356,1.95,4.17-4.17L412.8,134a15.745,15.745,0,0,0,2.264-5.446l3.037-.286v-5.9l-3.037-.286a15.738,15.738,0,0,0-2.264-5.446l1.95-2.356-4.17-4.17-2.356,1.949a15.765,15.765,0,0,0-5.447-2.264l-.286-3.036h-5.9l-.286,3.036a15.761,15.761,0,0,0-5.446,2.264l-2.356-1.949-4.17,4.17,1.95,2.355a15.75,15.75,0,0,0-2.264,5.447Zm18.555-5.034a7.982,7.982,0,1,1-7.982,7.982A7.982,7.982,0,0,1,399.548,117.337Z" transform="translate(-356.567 -106.764)" fill="#f5f5f5"/>
          <path id="Trazado_132640" data-name="Trazado 132640" d="M381.9,172.366a12.338,12.338,0,0,0,4.268-1.775l1.846,1.528,3.267-3.267-1.528-1.846a12.331,12.331,0,0,0,1.775-4.268l2.379-.224v-4.62l-2.379-.224a12.324,12.324,0,0,0-1.775-4.268l1.528-1.846-3.267-3.267-1.846,1.527a12.352,12.352,0,0,0-4.268-1.774l-.224-2.379H377.06l-.224,2.379a12.341,12.341,0,0,0-4.267,1.774l-1.846-1.527-3.268,3.267,1.528,1.846a12.356,12.356,0,0,0-1.775,4.268l-2.379.224v4.62l2.379.224a12.363,12.363,0,0,0,1.775,4.268l-1.528,1.846,3.268,3.267,1.846-1.528a12.327,12.327,0,0,0,4.267,1.775l.224,2.379h4.621ZM373.116,160.2a6.255,6.255,0,1,1,6.254,6.255A6.255,6.255,0,0,1,373.116,160.2Z" transform="translate(-353.67 -113.736)" fill="#f5f5f5"/>
          <path id="Trazado_132641" data-name="Trazado 132641" d="M369.16,143.156l1.55,1.284,2.745-2.744-1.284-1.55a10.375,10.375,0,0,0,1.491-3.585l2-.188v-3.881l-2-.188a10.368,10.368,0,0,0-1.491-3.585l1.284-1.55-2.745-2.745-1.55,1.285a10.374,10.374,0,0,0-3.585-1.491l-.188-2h-3.881l-.188,2a10.352,10.352,0,0,0-3.585,1.491l-1.55-1.285-2.744,2.745,1.283,1.55a10.368,10.368,0,0,0-1.491,3.585l-2,.188v3.881l2,.188a10.39,10.39,0,0,0,1.491,3.585l-1.283,1.55,2.744,2.744,1.55-1.284a10.368,10.368,0,0,0,3.585,1.491l.188,2h3.881l.188-2A10.375,10.375,0,0,0,369.16,143.156Zm-10.967-8.724a5.254,5.254,0,1,1,5.254,5.254A5.254,5.254,0,0,1,358.192,134.432Z" transform="translate(-351.233 -109.534)" fill="#f5f5f5"/>
        </g>
        <g id="Grupo_66263" data-name="Grupo 66263" transform="translate(266.28 209.676)">
          <g id="Grupo_66261" data-name="Grupo 66261" transform="translate(0)">
            <rect id="Rectángulo_30194" data-name="Rectángulo 30194" width="55.114" height="35.846" fill="#f5f5f5"/>
          </g>
          <rect id="Rectángulo_30195" data-name="Rectángulo 30195" width="51.081" height="27.333" transform="translate(2.016 6.721)" fill="#e0e0e0"/>
          <g id="Grupo_66262" data-name="Grupo 66262" transform="translate(6.179 10.805)">
            <rect id="Rectángulo_30196" data-name="Rectángulo 30196" width="37.786" height="1.176" fill="#f5f5f5"/>
            <rect id="Rectángulo_30197" data-name="Rectángulo 30197" width="18.129" height="1.176" transform="translate(0 3.601)" fill="#f5f5f5"/>
            <rect id="Rectángulo_30198" data-name="Rectángulo 30198" width="22.834" height="1.176" transform="translate(0 7.202)" fill="#f5f5f5"/>
            <rect id="Rectángulo_30199" data-name="Rectángulo 30199" width="8.048" height="1.176" transform="translate(0 10.803)" fill="#f5f5f5"/>
            <rect id="Rectángulo_30200" data-name="Rectángulo 30200" width="5.211" height="1.176" transform="translate(0 14.404)" fill="#f5f5f5"/>
          </g>
        </g>
        <g id="Grupo_66268" data-name="Grupo 66268" transform="translate(0 209.473)">
          <rect id="Rectángulo_30201" data-name="Rectángulo 30201" width="39.217" height="24.189" transform="matrix(1, -0.005, 0.005, 1, 0, 0.179)" fill="#ebebeb"/>
          <g id="Grupo_66267" data-name="Grupo 66267" transform="translate(7.069 6.082)">
            <g id="Grupo_66264" data-name="Grupo 66264" transform="translate(0 0.043)">
              <path id="Trazado_132642" data-name="Trazado 132642" d="M64.4,343.408a.817.817,0,0,1-.483-.158l-7.156-5.228a.82.82,0,0,1-.006-1.321l7.108-5.292a.821.821,0,1,1,.98,1.317l-6.215,4.627,6.257,4.572a.821.821,0,0,1-.485,1.484Z" transform="translate(-56.425 -331.246)" fill="#fafafa"/>
            </g>
            <g id="Grupo_66265" data-name="Grupo 66265" transform="translate(16.392)">
              <path id="Trazado_132643" data-name="Trazado 132643" d="M77.266,343.355a.821.821,0,0,1-.492-1.479l6.215-4.628-6.257-4.57a.821.821,0,1,1,.969-1.326l7.156,5.227a.82.82,0,0,1,.006,1.321l-7.107,5.293A.821.821,0,0,1,77.266,343.355Z" transform="translate(-76.396 -331.194)" fill="#fafafa"/>
            </g>
            <g id="Grupo_66266" data-name="Grupo 66266" transform="translate(9.93 0.012)">
              <path id="Trazado_132644" data-name="Trazado 132644" d="M69.345,343.388a.821.821,0,0,1-.775-1.092l3.686-10.537a.821.821,0,1,1,1.55.542l-3.686,10.537A.821.821,0,0,1,69.345,343.388Z" transform="translate(-68.523 -331.208)" fill="#fafafa"/>
            </g>
          </g>
        </g>
      </g>
    </g>
    <g id="Ladder" transform="translate(249.833 303.986)">
      <g id="Grupo_66275" data-name="Grupo 66275">
        <g id="Grupo_66270" data-name="Grupo 66270" transform="translate(24.623 2.163)">
          <path id="Trazado_132645" data-name="Trazado 132645" d="M334.385,406.34h6.025L348.617,361h-6.025Z" transform="translate(-334.385 -360.998)" fill="#263238"/>
          <path id="Trazado_132646" data-name="Trazado 132646" d="M334.385,406.34h6.025L348.617,361h-6.025Z" transform="translate(-334.385 -360.998)" fill="#fff" opacity="0.2"/>
          <path id="Trazado_132647" data-name="Trazado 132647" d="M334.385,406.34h4.384L346.976,361h-4.384Z" transform="translate(-334.385 -360.998)" fill="#fff" opacity="0.2"/>
        </g>
        <path id="Trazado_132648" data-name="Trazado 132648" d="M313.4,376.85h24.125a1.332,1.332,0,0,0,1.331-1.332h0a1.331,1.331,0,0,0-1.331-1.331H313.4a1.331,1.331,0,0,0-1.331,1.331h0A1.332,1.332,0,0,0,313.4,376.85Z" transform="translate(-305.761 -361.199)" fill="#263238"/>
        <path id="Trazado_132649" data-name="Trazado 132649" d="M310.134,395.344h24.124a1.332,1.332,0,0,0,1.332-1.331h0a1.332,1.332,0,0,0-1.332-1.332H310.134a1.332,1.332,0,0,0-1.332,1.332h0A1.332,1.332,0,0,0,310.134,395.344Z" transform="translate(-305.176 -364.513)" fill="#263238"/>
        <g id="Grupo_66271" data-name="Grupo 66271" transform="translate(0 2.163)">
          <path id="Trazado_132650" data-name="Trazado 132650" d="M304.385,406.34h6.025L318.617,361h-6.025Z" transform="translate(-304.385 -360.998)" fill="#263238"/>
          <path id="Trazado_132651" data-name="Trazado 132651" d="M304.385,406.34h6.025L318.617,361h-6.025Z" transform="translate(-304.385 -360.998)" fill="#fff" opacity="0.2"/>
          <path id="Trazado_132652" data-name="Trazado 132652" d="M304.385,406.34h4.384L316.976,361h-4.384Z" transform="translate(-304.385 -360.998)" fill="#fff" opacity="0.2"/>
        </g>
        <g id="Grupo_66272" data-name="Grupo 66272" transform="translate(41.86 2.163)">
          <path id="Trazado_132653" data-name="Trazado 132653" d="M369.618,406.34h-6.025L355.385,361h6.025Z" transform="translate(-355.385 -360.998)" fill="#263238"/>
          <path id="Trazado_132654" data-name="Trazado 132654" d="M369.618,406.34h-6.025L355.385,361h6.025Z" transform="translate(-355.385 -360.998)" fill="#fff" opacity="0.4"/>
          <path id="Trazado_132655" data-name="Trazado 132655" d="M367.976,406.34h-4.384L355.385,361h4.384Z" transform="translate(-355.385 -360.998)" fill="#fff" opacity="0.2"/>
        </g>
        <path id="Trazado_132656" data-name="Trazado 132656" d="M354.258,376.85H330.134a1.333,1.333,0,0,1-1.332-1.332h0a1.332,1.332,0,0,1,1.332-1.331h24.124a1.332,1.332,0,0,1,1.332,1.331h0A1.333,1.333,0,0,1,354.258,376.85Z" transform="translate(-308.761 -361.199)" fill="#263238"/>
        <path id="Trazado_132657" data-name="Trazado 132657" d="M357.523,395.344H333.4a1.331,1.331,0,0,1-1.331-1.331h0a1.332,1.332,0,0,1,1.331-1.332h24.125a1.332,1.332,0,0,1,1.331,1.332h0A1.331,1.331,0,0,1,357.523,395.344Z" transform="translate(-309.346 -364.513)" fill="#263238"/>
        <path id="Trazado_132658" data-name="Trazado 132658" d="M354.258,376.85H330.134a1.333,1.333,0,0,1-1.332-1.332h0a1.332,1.332,0,0,1,1.332-1.331h24.124a1.332,1.332,0,0,1,1.332,1.331h0A1.333,1.333,0,0,1,354.258,376.85Z" transform="translate(-308.761 -361.199)" fill="#fff" opacity="0.2"/>
        <path id="Trazado_132659" data-name="Trazado 132659" d="M357.523,395.344H333.4a1.331,1.331,0,0,1-1.331-1.331h0a1.332,1.332,0,0,1,1.331-1.332h24.125a1.332,1.332,0,0,1,1.331,1.332h0A1.331,1.331,0,0,1,357.523,395.344Z" transform="translate(-309.346 -364.513)" fill="#fff" opacity="0.2"/>
        <g id="Grupo_66273" data-name="Grupo 66273" transform="translate(17.236 2.163)">
          <path id="Trazado_132660" data-name="Trazado 132660" d="M339.617,406.34h-6.025L325.385,361h6.025Z" transform="translate(-325.385 -360.998)" fill="#263238"/>
          <path id="Trazado_132661" data-name="Trazado 132661" d="M339.617,406.34h-6.025L325.385,361h6.025Z" transform="translate(-325.385 -360.998)" fill="#fff" opacity="0.4"/>
          <path id="Trazado_132662" data-name="Trazado 132662" d="M337.976,406.34h-4.384L325.385,361h4.384Z" transform="translate(-325.385 -360.998)" fill="#fff" opacity="0.2"/>
        </g>
        <g id="Grupo_66274" data-name="Grupo 66274" transform="translate(5.682)">
          <rect id="Rectángulo_30202" data-name="Rectángulo 30202" width="45.531" height="4.326" rx="1.187" fill="#263238"/>
          <rect id="Rectángulo_30203" data-name="Rectángulo 30203" width="18.517" height="4.326" rx="1.187" fill="#fff" opacity="0.2"/>
        </g>
      </g>
    </g>
    <g id="interface" transform="translate(104.406 315.054)">
      <g id="Grupo_66278" data-name="Grupo 66278" transform="translate(0 0)">
        <g id="Grupo_66276" data-name="Grupo 66276">
          <rect id="Rectángulo_30204" data-name="Rectángulo 30204" width="55.114" height="35.846" fill="#12263f"/>
        </g>
        <rect id="Rectángulo_30206" data-name="Rectángulo 30206" width="51.081" height="27.333" transform="translate(2.016 6.721)" fill="#d2e1f1"/>
        <g id="Grupo_66277" data-name="Grupo 66277" transform="translate(6.179 10.805)">
          <rect id="Rectángulo_30207" data-name="Rectángulo 30207" width="37.786" height="1.176" fill="#fff"/>
          <rect id="Rectángulo_30208" data-name="Rectángulo 30208" width="18.13" height="1.176" transform="translate(0 3.601)" fill="#fff"/>
          <rect id="Rectángulo_30209" data-name="Rectángulo 30209" width="22.834" height="1.176" transform="translate(0 7.202)" fill="#fff"/>
          <rect id="Rectángulo_30210" data-name="Rectángulo 30210" width="8.048" height="1.176" transform="translate(0 10.803)" fill="#fff"/>
          <rect id="Rectángulo_30211" data-name="Rectángulo 30211" width="5.212" height="1.176" transform="translate(0 14.404)" fill="#fff"/>
        </g>
      </g>
    </g>
    <g id="Monitor" transform="translate(94.011 144.77)">
      <g id="Grupo_66296" data-name="Grupo 66296">
        <g id="Grupo_66279" data-name="Grupo 66279" transform="translate(88.75 147.074)">
          <path id="Trazado_132663" data-name="Trazado 132663" d="M267.536,403.215H222.667l7.6-59.645h29.673Z" transform="translate(-222.667 -343.57)" fill="#12263f"/>
          <path id="Trazado_132665" data-name="Trazado 132665" d="M264.612,371.363,229,362.41l2.4-18.84h29.669Z" transform="translate(-223.802 -343.57)" opacity="0.1" style="isolation: isolate"/>
        </g>
        <g id="Grupo_66280" data-name="Grupo 66280">
          <path id="Trazado_132666" data-name="Trazado 132666" d="M331.494,164.382H119.951a5.413,5.413,0,0,0-5.413,5.413V313.007a5.413,5.413,0,0,0,5.413,5.413H331.494a5.413,5.413,0,0,0,5.413-5.413V169.8A5.413,5.413,0,0,0,331.494,164.382Z" transform="translate(-114.538 -164.382)" fill="#12263f"/>
        </g>
        <rect id="Rectángulo_30212" data-name="Rectángulo 30212" width="208.125" height="138.096" transform="translate(7.123 5.301)" fill="#d2e1f1"/>
        <g id="Grupo_66281" data-name="Grupo 66281" transform="translate(72.653 202.237)">
          <rect id="Rectángulo_30213" data-name="Rectángulo 30213" width="77.063" height="4.409" rx="1.037" fill="#12263f"/>
        </g>
        <g id="Grupo_66291" data-name="Grupo 66291" transform="translate(7.123 5.433)">
          <rect id="Rectángulo_30215" data-name="Rectángulo 30215" width="208.125" height="20.583" opacity="0.2" style="isolation: isolate"/>
          <rect id="Rectángulo_30216" data-name="Rectángulo 30216" width="89.188" height="117.137" transform="translate(0 20.827)" fill="#fff" opacity="0.4"/>
          <g id="Grupo_66285" data-name="Grupo 66285" transform="translate(96.964 6.461)">
            <rect id="Rectángulo_30217" data-name="Rectángulo 30217" width="77.829" height="44.998" transform="translate(1.301 1.301)" fill="none" stroke="#fff" stroke-miterlimit="10" stroke-width="1" stroke-dasharray="5"/>
            <g id="Grupo_66282" data-name="Grupo 66282">
              <rect id="Rectángulo_30218" data-name="Rectángulo 30218" width="2.602" height="2.602" transform="translate(77.829)" fill="#407bff" stroke="#fff" stroke-miterlimit="10" stroke-width="1"/>
              <rect id="Rectángulo_30219" data-name="Rectángulo 30219" width="2.602" height="2.602" transform="translate(77.829 44.998)" fill="#407bff" stroke="#fff" stroke-miterlimit="10" stroke-width="1"/>
              <rect id="Rectángulo_30220" data-name="Rectángulo 30220" width="2.602" height="2.602" fill="#407bff" stroke="#fff" stroke-miterlimit="10" stroke-width="1"/>
              <rect id="Rectángulo_30221" data-name="Rectángulo 30221" width="2.602" height="2.602" transform="translate(0 44.998)" fill="#407bff" stroke="#fff" stroke-miterlimit="10" stroke-width="1"/>
            </g>
            <g id="Grupo_66283" data-name="Grupo 66283" transform="translate(38.915)">
              <rect id="Rectángulo_30222" data-name="Rectángulo 30222" width="2.602" height="2.602" fill="#407bff" stroke="#fff" stroke-miterlimit="10" stroke-width="1"/>
              <rect id="Rectángulo_30223" data-name="Rectángulo 30223" width="2.602" height="2.602" transform="translate(0 44.998)" fill="#407bff" stroke="#fff" stroke-miterlimit="10" stroke-width="1"/>
            </g>
            <g id="Grupo_66284" data-name="Grupo 66284" transform="translate(0 22.499)">
              <rect id="Rectángulo_30224" data-name="Rectángulo 30224" width="2.602" height="2.602" transform="translate(77.829)" fill="#407bff" stroke="#fff" stroke-miterlimit="10" stroke-width="1"/>
              <rect id="Rectángulo_30225" data-name="Rectángulo 30225" width="2.602" height="2.602" fill="#407bff" stroke="#fff" stroke-miterlimit="10" stroke-width="1"/>
            </g>
          </g>
          <path id="Rectángulo_30226" data-name="Rectángulo 30226" d="M1.893,0H20.259a1.894,1.894,0,0,1,1.894,1.894V6.3A1.894,1.894,0,0,1,20.259,8.2H1.893A1.893,1.893,0,0,1,0,6.3V1.893A1.893,1.893,0,0,1,1.893,0Z" transform="translate(148.429 22.876)" fill="#fff" opacity="0.7"/>
          <path id="Rectángulo_30227" data-name="Rectángulo 30227" d="M1.893,0H20.259a1.894,1.894,0,0,1,1.894,1.894V6.3A1.893,1.893,0,0,1,20.259,8.2H1.894A1.894,1.894,0,0,1,0,6.3V1.893A1.893,1.893,0,0,1,1.893,0Z" transform="translate(115.597 22.876)" fill="#fff" opacity="0.7"/>
          <path id="Rectángulo_30228" data-name="Rectángulo 30228" d="M1.894,0H20.259a1.894,1.894,0,0,1,1.894,1.894V6.3A1.893,1.893,0,0,1,20.259,8.2H1.894A1.894,1.894,0,0,1,0,6.3V1.894A1.894,1.894,0,0,1,1.894,0Z" transform="translate(73.329 122.674)" fill="#fff" opacity="0.7"/>
          <g id="Grupo_66286" data-name="Grupo 66286" transform="translate(194.392 7.319)">
            <line id="Línea_1770" data-name="Línea 1770" x2="6.927" fill="none" stroke="#fff" stroke-linecap="round" stroke-linejoin="round" stroke-width="1.5"/>
            <line id="Línea_1771" data-name="Línea 1771" x2="6.927" transform="translate(0 3.283)" fill="none" stroke="#fff" stroke-linecap="round" stroke-linejoin="round" stroke-width="1.5"/>
            <line id="Línea_1772" data-name="Línea 1772" x2="6.927" transform="translate(0 6.566)" fill="none" stroke="#fff" stroke-linecap="round" stroke-linejoin="round" stroke-width="1.5"/>
          </g>
          <rect id="Rectángulo_30229" data-name="Rectángulo 30229" width="69.81" height="69.81" transform="translate(14.109 38.985)" fill="#fff" opacity="0.5"/>
          <g id="Grupo_66287" data-name="Grupo 66287" transform="translate(42.032 43.393)">
            <line id="Línea_1773" data-name="Línea 1773" y2="60.213" transform="translate(1.301 1.301)" fill="none" stroke="#12263f" stroke-miterlimit="10" stroke-width="1"/>
            <path id="Trazado_132668" data-name="Trazado 132668" d="M206.117,285.667h0a30.106,30.106,0,0,1-30.106-30.106h0a30.106,30.106,0,0,1,30.106-30.106h0" transform="translate(-174.71 -224.154)" fill="none" stroke="#12263f" stroke-miterlimit="10" stroke-width="1"/>
            <rect id="Rectángulo_30230" data-name="Rectángulo 30230" width="2.602" height="2.602" transform="translate(30.106)" fill="#fff" stroke="#12263f" stroke-miterlimit="10" stroke-width="1"/>
            <rect id="Rectángulo_30231" data-name="Rectángulo 30231" width="2.602" height="2.602" transform="translate(30.106 60.213)" fill="#fff" stroke="#12263f" stroke-miterlimit="10" stroke-width="1"/>
            <rect id="Rectángulo_30232" data-name="Rectángulo 30232" width="2.602" height="2.602" transform="translate(0 30.106)" fill="#fff" stroke="#12263f" stroke-miterlimit="10" stroke-width="1"/>
            <path id="Trazado_132669" data-name="Trazado 132669" d="M176.538,225.308a.675.675,0,1,1-.675-.675A.674.674,0,0,1,176.538,225.308Z" transform="translate(-174.563 -224.006)" fill="#fff" stroke="#12263f" stroke-miterlimit="10" stroke-width="1"/>
            <path id="Trazado_132670" data-name="Trazado 132670" d="M176.538,298.668a.675.675,0,1,1-.675-.674A.675.675,0,0,1,176.538,298.668Z" transform="translate(-174.563 -237.154)" fill="#fff" stroke="#12263f" stroke-miterlimit="10" stroke-width="1"/>
          </g>
          <path id="Trazado_132671" data-name="Trazado 132671" d="M310.98,319H289.849a6.107,6.107,0,0,1-6.107-6.107h0a6.107,6.107,0,0,1,6.107-6.107H310.98a6.107,6.107,0,0,1,6.107,6.107h0A6.107,6.107,0,0,1,310.98,319Z" transform="translate(-151.986 -195.337)" fill="#fff" opacity="0.7"/>
          <path id="Trazado_132672" data-name="Trazado 132672" d="M325,257.635H259.72a1.335,1.335,0,0,1-1.335-1.335h0a1.335,1.335,0,0,1,1.335-1.335H325a1.335,1.335,0,0,1,1.335,1.335h0A1.335,1.335,0,0,1,325,257.635Z" transform="translate(-147.441 -186.049)" fill="#fff" opacity="0.7"/>
          <path id="Trazado_132673" data-name="Trazado 132673" d="M325,269.512H259.72a1.335,1.335,0,0,1-1.335-1.335h0a1.335,1.335,0,0,1,1.335-1.335H325a1.335,1.335,0,0,1,1.335,1.335h0A1.335,1.335,0,0,1,325,269.512Z" transform="translate(-147.441 -188.178)" fill="#fff" opacity="0.7"/>
          <path id="Trazado_132674" data-name="Trazado 132674" d="M330.381,281.388H289.72a1.335,1.335,0,0,1-1.335-1.335h0a1.335,1.335,0,0,1,1.335-1.335h40.661a1.335,1.335,0,0,1,1.335,1.335h0A1.335,1.335,0,0,1,330.381,281.388Z" transform="translate(-152.818 -190.306)" fill="#fff" opacity="0.7"/>
          <g id="Grupo_66288" data-name="Grupo 66288" transform="translate(6.573 5.706)">
            <rect id="Rectángulo_30233" data-name="Rectángulo 30233" width="4.612" height="4.612" opacity="0.4" style="isolation: isolate"/>
            <path id="Rectángulo_30234" data-name="Rectángulo 30234" d="M1.439,0H3.172a1.44,1.44,0,0,1,1.44,1.44V3.172A1.439,1.439,0,0,1,3.172,4.612H1.44A1.44,1.44,0,0,1,0,3.172V1.439A1.439,1.439,0,0,1,1.439,0Z" transform="translate(8.967)" opacity="0.4" style="isolation: isolate"/>
            <path id="Rectángulo_30235" data-name="Rectángulo 30235" d="M2.306,0h0A2.306,2.306,0,0,1,4.612,2.306v0A2.306,2.306,0,0,1,2.306,4.612h0A2.306,2.306,0,0,1,0,2.306v0A2.306,2.306,0,0,1,2.306,0Z" transform="translate(17.935)" opacity="0.4" style="isolation: isolate"/>
          </g>
          <g id="Grupo_66290" data-name="Grupo 66290" transform="translate(9.403 112.87)">
            <g id="Grupo_66289" data-name="Grupo 66289">
              <path id="Trazado_132675" data-name="Trazado 132675" d="M145.985,315.071v-1.8l-.926-.087a4.794,4.794,0,0,0-.69-1.66l.6-.718-1.271-1.271-.718.594a4.791,4.791,0,0,0-1.66-.69l-.087-.925h-1.8l-.087.925a4.789,4.789,0,0,0-1.66.69l-.718-.594-1.271,1.271.594.718a4.8,4.8,0,0,0-.69,1.66l-.925.087v1.8l.925.087a4.791,4.791,0,0,0,.69,1.66l-.594.718,1.271,1.271.718-.6a4.789,4.789,0,0,0,1.66.69l.087.926h1.8l.087-.926a4.791,4.791,0,0,0,1.66-.69l.718.6,1.271-1.271-.6-.718a4.79,4.79,0,0,0,.69-1.66Zm-5.656,1.534a2.433,2.433,0,1,1,2.433-2.433A2.433,2.433,0,0,1,140.329,316.6Z" transform="translate(-134.673 -308.516)" fill="#fff" opacity="0.9"/>
              <path id="Trazado_132676" data-name="Trazado 132676" d="M155.394,321.561v-1.408l-.726-.069a3.751,3.751,0,0,0-.541-1.3l.466-.563-1-1-.563.465a3.77,3.77,0,0,0-1.3-.541l-.068-.725h-1.408l-.068.725a3.77,3.77,0,0,0-1.3.541l-.563-.465-1,1,.466.563a3.751,3.751,0,0,0-.541,1.3l-.726.069v1.408l.726.068a3.755,3.755,0,0,0,.541,1.3l-.466.562,1,1,.563-.466a3.755,3.755,0,0,0,1.3.541l.068.726h1.408l.068-.726a3.755,3.755,0,0,0,1.3-.541l.563.466,1-1-.466-.562a3.755,3.755,0,0,0,.541-1.3Zm-4.432,1.2a1.907,1.907,0,1,1,1.907-1.907A1.907,1.907,0,0,1,150.962,322.764Z" transform="translate(-136.798 -309.933)" fill="#fff" opacity="0.6"/>
              <path id="Trazado_132677" data-name="Trazado 132677" d="M146.829,326.612v-1.183l-.609-.057a3.154,3.154,0,0,0-.455-1.092l.392-.473-.836-.836-.473.392a3.155,3.155,0,0,0-1.092-.455l-.057-.609h-1.183l-.057.609a3.158,3.158,0,0,0-1.093.455l-.472-.392-.837.836.392.473a3.153,3.153,0,0,0-.454,1.092l-.61.057v1.183l.609.057a3.153,3.153,0,0,0,.454,1.092l-.392.473.837.836.472-.391a3.174,3.174,0,0,0,1.093.454l.057.609H143.7l.057-.609a3.17,3.17,0,0,0,1.092-.454l.473.391.836-.836-.392-.473a3.154,3.154,0,0,0,.455-1.092Zm-3.723,1.01a1.6,1.6,0,1,1,1.6-1.6A1.6,1.6,0,0,1,143.106,327.622Z" transform="translate(-135.517 -310.986)" fill="#fff" opacity="0.4"/>
            </g>
          </g>
        </g>
        <g id="Grupo_66293" data-name="Grupo 66293" transform="translate(182.738 12.73)">
          <g id="Grupo_66292" data-name="Grupo 66292" transform="translate(0 0)">
            <path id="Trazado_132678" data-name="Trazado 132678" d="M337.177,179.892l3.482,9.306,5.824-5.824Z" transform="translate(-337.177 -179.892)" fill="#12263f"/>
            <rect id="Rectángulo_30236" data-name="Rectángulo 30236" width="1.835" height="4.078" transform="translate(4.304 5.601) rotate(-45)" fill="#12263f"/>
          </g>
        </g>
        <g id="Grupo_66294" data-name="Grupo 66294" transform="translate(39.202 39.215)">
          <path id="Trazado_132680" data-name="Trazado 132680" d="M163.254,218.937l8.755,3.277-4.59-4.591a.894.894,0,0,1-1.075-.138.906.906,0,1,1,1.282-1.281.894.894,0,0,1,.137,1.074l4.591,4.591-3.277-8.757-2.9.643-.113-1.047-.549-.549-3.215,3.214.549.549,1.047.113Z" transform="translate(-162.3 -212.16)" fill="#263238"/>
          <path id="Trazado_132681" data-name="Trazado 132681" d="M163.254,218.937l8.755,3.277-4.59-4.591a.894.894,0,0,1-1.075-.138.906.906,0,1,1,1.282-1.281.894.894,0,0,1,.137,1.074l4.591,4.591-3.277-8.757-2.9.643-.113-1.047-.549-.549-3.215,3.214.549.549,1.047.113Z" transform="translate(-162.3 -212.16)" fill="#fff" opacity="0.2"/>
        </g>
      </g>
    </g>
    <g id="Character_2" data-name="Character 2" transform="translate(285.705 142.036)">
      <g id="Grupo_66305" data-name="Grupo 66305">
        <g id="Grupo_66298" data-name="Grupo 66298" transform="translate(64.3 38.501)">
          <path id="Trazado_132686" data-name="Trazado 132686" d="M439.13,207.958c2.911,3.363,17.735,31.917,14.869,38.583s-26.616-1.019-26.616-1.019l1.419-9.407s9.23.324,10.113-.551-12.486-14.227-12.486-14.227Z" transform="translate(-426.429 -207.958)" fill="#1565c0"/>
        </g>
        <path id="Trazado_132688" data-name="Trazado 132688" d="M452.476,249.929c-.008,0-.016.008-.025.016-.148.074-.312.148-.476.213a.576.576,0,0,1-.066.025,3.652,3.652,0,0,1-.451.156,9.958,9.958,0,0,1-2.052.427c-.2.025-.394.041-.6.057-.3.025-.591.041-.895.049-.254.008-.517.016-.78.016-7.962.008-19.543-3.735-19.543-3.735l1.42-9.414s10.391.878,11.278,0a.109.109,0,0,0,.025-.041c.164-.345-.985-1.51-2.684-3l-.016-.016c-2.61-3.209-7.838-8.553-10-10.736l6.008-6.419,4.572-.492S448.29,233.382,452.476,249.929Z" transform="translate(-362.338 -171.085)" opacity="0.2" style="isolation: isolate"/>
        <g id="Grupo_66299" data-name="Grupo 66299" transform="translate(45.021 36.482)">
          <path id="Trazado_132689" data-name="Trazado 132689" d="M404.972,206.581c-1.646,1.193-2.455,2.884-1.808,3.776l43.372,59.8c.647.892,2.505.648,4.15-.545s2.455-2.884,1.807-3.776l-43.372-59.8C408.475,205.144,406.616,205.388,404.972,206.581Z" transform="translate(-402.941 -205.499)" fill="#263238"/>
          <path id="Trazado_132690" data-name="Trazado 132690" d="M409.121,206.037l43.372,59.8c.646.891-.165,2.583-1.806,3.773s-3.5,1.435-4.147.544l-43.372-59.8a1.867,1.867,0,0,1,.158-1.99,4.8,4.8,0,0,1,.823-1.074,6.438,6.438,0,0,1,.824-.709C406.614,205.391,408.475,205.146,409.121,206.037Z" transform="translate(-402.941 -205.499)" fill="#fff" opacity="0.7"/>
          <path id="Trazado_132691" data-name="Trazado 132691" d="M452.575,266.225c.646.891-.165,2.583-1.806,3.773s-3.5,1.435-4.147.544c-.357-.492.538-1.234,1.058-2.313l-44.271-59.475a4.806,4.806,0,0,1,.823-1.074l43.377,59.8a6.482,6.482,0,0,1,.819-.716C450.069,265.579,451.929,265.334,452.575,266.225Z" transform="translate(-403.025 -205.89)" opacity="0.3" style="isolation: isolate"/>
        </g>
        <g id="Grupo_66300" data-name="Grupo 66300" transform="translate(40.23 34.256)">
          <path id="Trazado_132692" data-name="Trazado 132692" d="M398.553,204.436c-1.389,1.484-1.862,3.3-1.058,4.05l53.925,50.486c.8.753,2.583.162,3.972-1.322s1.863-3.3,1.058-4.051l-53.925-50.485C401.721,202.36,399.943,202.952,398.553,204.436Z" transform="translate(-397.104 -202.786)" fill="#407bff"/>
          <path id="Trazado_132693" data-name="Trazado 132693" d="M402.524,203.114,456.45,253.6c.8.752.328,2.568-1.057,4.048s-3.166,2.072-3.968,1.321L397.5,208.483a1.866,1.866,0,0,1-.222-1.984,4.817,4.817,0,0,1,.6-1.211,6.613,6.613,0,0,1,.675-.853C399.94,202.956,401.722,202.363,402.524,203.114Z" transform="translate(-397.104 -202.787)" fill="#fff" opacity="0.7"/>
          <path id="Trazado_132694" data-name="Trazado 132694" d="M456.486,254.146c.8.752.328,2.568-1.057,4.048s-3.166,2.072-3.968,1.321c-.444-.414.295-1.313.6-2.471l-54.748-50a4.817,4.817,0,0,1,.6-1.211l53.932,50.492a6.512,6.512,0,0,1,.669-.859C453.9,253.988,455.684,253.395,456.486,254.146Z" transform="translate(-397.141 -203.333)" opacity="0.3" style="isolation: isolate"/>
        </g>
        <path id="Trazado_132695" data-name="Trazado 132695" d="M411.291,381.579l-4.112.066c-4.178-19.625-7.133-43.912-8.971-62.232-.287-2.873-.55-5.59-.78-8.126-.107-1.207-.213-2.364-.312-3.48-.492-5.507-.829-9.874-1.034-12.574-.148-1.97-.222-3.053-.222-3.053h14.856l-.139,3.784-.46,12.492-.049,1.428-.312,8.249-.517,14.044C414.336,351.949,411.291,381.579,411.291,381.579Z" transform="translate(-356.651 -184.551)" fill="#ebb376"/>
        <path id="Trazado_132696" data-name="Trazado 132696" d="M448.618,380.6l-4.046.763c-8.1-20.249-15.71-46.177-20.659-64.292-.763-2.807-1.469-5.434-2.1-7.814-.033-.123-.057-.238-.09-.353-1.248-4.728-2.208-8.5-2.807-10.884-.46-1.871-.714-2.9-.714-2.9l14.643-2.528.829,6.156,1.223,9.045.238,1.773.829,6.164,2.224,16.531C446.574,350.884,448.618,380.6,448.618,380.6Z" transform="translate(-360.655 -184.626)" fill="#ebb376"/>
        <path id="Trazado_132697" data-name="Trazado 132697" d="M435.051,308.985l-13.083,1.461c-.033-.123-.057-.238-.09-.353-1.248-4.728-2.208-8.5-2.807-10.884l14.758.73Z" transform="translate(-360.811 -185.811)" opacity="0.2" style="isolation: isolate"/>
        <path id="Trazado_132698" data-name="Trazado 132698" d="M410.625,296.63l-.46,12.492-.049,1.428-12.64,1.4c-.107-1.207-.213-2.364-.312-3.48-.492-5.507-.829-9.874-1.034-12.574Z" transform="translate(-356.699 -185.218)" opacity="0.2" style="isolation: isolate"/>
        <path id="Trazado_132699" data-name="Trazado 132699" d="M399.79,414.755a8.07,8.07,0,0,1,2.573-1.4h0s2.8-2.777,4.146-11.136l3.664-.955a3.121,3.121,0,0,1,3.333,1.3,1.762,1.762,0,0,1,.233.481,21.345,21.345,0,0,1,.392,2.717,75.518,75.518,0,0,1,.053,9.179h-.662l-.263-5.764c-.1-1.956-1.6.339-2.024,2.445s-1.34,4.349-5.628,4.454C400.6,416.177,398.526,415.981,399.79,414.755Z" transform="translate(-357.29 -204.085)" fill="#1565c0"/>
        <path id="Trazado_132700" data-name="Trazado 132700" d="M415.027,401.782c.241-1.956.316-5.357.316-5.357l-8.141.9a15.7,15.7,0,0,1,.172,6.771C411.476,403.024,415.027,401.782,415.027,401.782Z" transform="translate(-358.684 -203.234)" fill="#1565c0"/>
        <path id="Trazado_132701" data-name="Trazado 132701" d="M440.149,414.755a8.062,8.062,0,0,1,2.573-1.4h0s2.8-2.777,4.146-11.136l3.664-.955a3.122,3.122,0,0,1,3.333,1.3,1.787,1.787,0,0,1,.233.481,21.329,21.329,0,0,1,.392,2.717,75.527,75.527,0,0,1,.053,9.179h-.662l-.263-5.764c-.1-1.956-1.595.339-2.023,2.445s-1.34,4.349-5.628,4.454C440.962,416.177,438.885,415.981,440.149,414.755Z" transform="translate(-364.524 -204.085)" fill="#1565c0"/>
        <path id="Trazado_132702" data-name="Trazado 132702" d="M455.386,401.782c.24-1.956.316-5.357.316-5.357l-8.141.9a15.7,15.7,0,0,1,.173,6.771C451.835,403.024,455.386,401.782,455.386,401.782Z" transform="translate(-365.917 -203.234)" fill="#1565c0"/>
        <path id="Trazado_132703" data-name="Trazado 132703" d="M431.738,294.937l-15.488,1.978-.6.074-3.185-11.671-.837,12.509-16.6-.87c-7.4-43.395,5.245-53.646,5.245-53.646l22.514,4.531c10.2,17.331,7.77,37.478,7.77,37.478Z" transform="translate(-356.087 -175.793)" fill="#ffd947"/>
        <g id="Grupo_66301" data-name="Grupo 66301" transform="translate(50.954)">
          <path id="Trazado_132704" data-name="Trazado 132704" d="M413.547,176.766c0,1.7-.756,3.085-1.688,3.085s-1.688-1.381-1.688-3.085.756-3.085,1.688-3.085S413.547,175.062,413.547,176.766Z" transform="translate(-410.17 -163.314)" fill="none" stroke="#263238" stroke-linecap="round" stroke-linejoin="round" stroke-width="0.5"/>
          <path id="Trazado_132705" data-name="Trazado 132705" d="M425.033,185.48a1.162,1.162,0,0,1-.2.144,8.975,8.975,0,0,1-3.145,1.538c-3.326.767-5.6.313-7.08-1.193H414.6c-2.077-2.257-2.6-6.256-2.3-11.079a18.117,18.117,0,0,1,1.053-5.633c.008-.016.008-.071.016-.085.03-.061.053-.144.082-.205a6.585,6.585,0,0,1,4.839-4.018,13.346,13.346,0,0,1,2.851-.321C430.548,164.53,432.241,180.109,425.033,185.48Z" transform="translate(-410.539 -161.691)" fill="#ebb376"/>
          <path id="Trazado_132706" data-name="Trazado 132706" d="M425.358,190.047a8.751,8.751,0,0,1-3.145,1.407c-3.326.767-5.6.2-7.08-1.324a9.384,9.384,0,0,0,5.966-.489A4.891,4.891,0,0,1,425.358,190.047Z" transform="translate(-411.059 -166.115)" opacity="0.2" style="isolation: isolate"/>
          <path id="Trazado_132707" data-name="Trazado 132707" d="M426.655,198.129c.579,2.678-2.889,3.769-2.889,3.769-5.673-2.422-6.726-5.439-6.726-5.439,4.733-2.468,3.363-9.45,3.363-9.45l.964.474,6.758,1.322s-1.875,3.6-2.124,4.418c0,.007-.007.016-.007.023C424.722,197.535,426.655,198.129,426.655,198.129Z" transform="translate(-411.401 -165.702)" fill="#ebb376"/>
          <path id="Trazado_132708" data-name="Trazado 132708" d="M413.6,168.661a9.888,9.888,0,0,0,5.732,9.428s2.684,6.851,6.634,6.948c5.387.131,10.134-7.533,8.268-15.339C431.81,159.575,416.473,158.752,413.6,168.661Z" transform="translate(-410.782 -161.158)" fill="#263238"/>
          <path id="Trazado_132709" data-name="Trazado 132709" d="M416.725,178.816c0-1.029.829-2.757,2.428-2.523,1.656.243,2.573,4.323-1.495,5.235C417.075,181.66,416.72,180.963,416.725,178.816Z" transform="translate(-411.345 -163.778)" fill="#ebb376"/>
          <path id="Trazado_132710" data-name="Trazado 132710" d="M424.632,161.544s-6.292-1.591-9.77.939c-4.062,2.954-5.6,6.011-.793,10.755,0,0,10.564-3.424,14.076-2.7a38.016,38.016,0,0,1,6.023,1.749C434.909,165.311,428.146,160.118,424.632,161.544Z" transform="translate(-410.334 -161.05)" fill="#263238"/>
          <path id="Trazado_132711" data-name="Trazado 132711" d="M416.52,174.551s1.681,7.606-.937,14.084c0,0,14.937,5.182,20.132,2.368s.433-12.265.216-17.713-2.585-13.5-10.492-11.694S416.52,174.551,416.52,174.551Z" transform="translate(-411.14 -161.101)" fill="#263238"/>
          <line id="Línea_1774" data-name="Línea 1774" x2="6.311" transform="translate(0 12.965)" fill="none" stroke="#263238" stroke-linecap="round" stroke-linejoin="round" stroke-width="0.5"/>
        </g>
        <path id="Trazado_132712" data-name="Trazado 132712" d="M420.564,302.215l-.6.074-3.185-11.671s6.829-11.663,4.695-17.737C421.779,273.307,429.133,284.215,420.564,302.215Z" transform="translate(-360.4 -181.092)" opacity="0.2" style="isolation: isolate"/>
        <g id="Grupo_66302" data-name="Grupo 66302" transform="translate(39.593 30.804)">
          <path id="Trazado_132713" data-name="Trazado 132713" d="M404.11,199.613s7.51-2.679,18.833.589,11.738,8.09,11.738,8.09-7.174,16.258-8.3,34.666l-29.5-1.1S393.36,215.878,404.11,199.613Z" transform="translate(-396.327 -198.58)" fill="#1565c0"/>
        </g>
        <path id="Trazado_132715" data-name="Trazado 132715" d="M403.7,225.368s-1.223,7.486-7.362,12.1a88.006,88.006,0,0,1,.821-13.206Z" transform="translate(-356.736 -172.379)" opacity="0.2" style="isolation: isolate"/>
        <path id="Trazado_132716" data-name="Trazado 132716" d="M362.465,196.587l-3.719-5.517s-.572-2.4-1.287-2.943-7.868-3.579-8.726-3.565-.859,5.565,0,6.509,5.364,2.965,6.544,3.171.608,0,.608,0l3.29,6.559Z" transform="translate(-348.089 -165.264)" fill="#ebb376"/>
        <g id="Grupo_66303" data-name="Grupo 66303" transform="translate(7.939 27.329)">
          <path id="Trazado_132717" data-name="Trazado 132717" d="M397.2,198.855a162.137,162.137,0,0,0-23,11.867l-12-16.375s-3.241,1.005-4.435,6.634c0,0,6.167,23.487,14.176,25.814s24.851-6.784,24.851-6.784S401.679,207.77,397.2,198.855Z" transform="translate(-357.762 -194.346)" fill="#1565c0"/>
        </g>
        <g id="Grupo_66304" data-name="Grupo 66304" transform="translate(54.968 30.803)">
          <path id="Trazado_132719" data-name="Trazado 132719" d="M415.06,198.582s2.619,18.743,10.919,19.5,12.014-13.089,10.607-14.771S424.49,198.457,415.06,198.582Z" transform="translate(-415.06 -198.579)" fill="#263238"/>
          <path id="Trazado_132720" data-name="Trazado 132720" d="M415.06,198.582s2.619,18.743,10.919,19.5,12.014-13.089,10.607-14.771S424.49,198.457,415.06,198.582Z" transform="translate(-415.06 -198.579)" fill="#7d6eb2" opacity="0.3" style="isolation: isolate"/>
        </g>
      </g>
    </g>
    <g id="Character_1" data-name="Character 1" transform="translate(17.485 124.431)">
      <g id="_Group_" data-name="&lt;Group&gt;" transform="translate(0 0)">
        <path id="Trazado_132721" data-name="Trazado 132721" d="M55.362,405.592H61.44l.5-14.079H55.857Z" transform="translate(-27.407 -184.749)" fill="#b97964"/>
        <path id="Trazado_132722" data-name="Trazado 132722" d="M61.8,407.809H54.418a.534.534,0,0,0-.518.418l-1.2,5.412a.9.9,0,0,0,.692,1.063.887.887,0,0,0,.2.02c2.389-.039,4.129-.186,7.129-.186,1.848,0,7.422.194,9.973.194s2.884-2.521,1.84-2.752c-4.685-1.021-8.211-2.436-9.711-3.781A1.468,1.468,0,0,0,61.8,407.809Z" transform="translate(-26.927 -187.67)" fill="#ffd947"/>
        <path id="Trazado_132723" data-name="Trazado 132723" d="M64.278,408.547a.147.147,0,0,1-.108-.124.131.131,0,0,1,.07-.139c.217-.14,2.18-1.345,2.853-1a.433.433,0,0,1,.247.4.848.848,0,0,1-.3.773,1.818,1.818,0,0,1-1.167.309A7.3,7.3,0,0,1,64.278,408.547Zm.418-.2a2.95,2.95,0,0,0,2.164-.108.594.594,0,0,0,.194-.518c-.008-.117-.054-.17-.093-.17a.325.325,0,0,0-.185-.039A5.9,5.9,0,0,0,64.7,408.346Z" transform="translate(-28.985 -187.565)" fill="#407bff"/>
        <path id="Trazado_132724" data-name="Trazado 132724" d="M64.24,408.277a.153.153,0,0,1-.07-.131c.008-.085.155-1.832.859-2.4a.771.771,0,0,1,.611-.185.471.471,0,0,1,.464.378c.124.642-1.09,1.98-1.716,2.32h-.07A.127.127,0,0,1,64.24,408.277Zm.974-2.365a3.405,3.405,0,0,0-.719,1.9c.626-.471,1.4-1.484,1.322-1.879-.008-.039-.024-.147-.209-.147h-.07A.5.5,0,0,0,65.214,405.912Z" transform="translate(-28.986 -187.265)" fill="#407bff"/>
        <path id="Trazado_132725" data-name="Trazado 132725" d="M55.908,391.522h6.085l-.263,7.26H55.645Z" transform="translate(-27.458 -184.751)" opacity="0.2" style="isolation: isolate"/>
        <path id="Trazado_132726" data-name="Trazado 132726" d="M93.494,406.269l6.272.663,1.177-13.528-6.272-.663Z" transform="translate(-34.241 -184.969)" fill="#b97964"/>
        <path id="Trazado_132727" data-name="Trazado 132727" d="M99.953,407.574H92.569a.533.533,0,0,0-.518.417l-1.2,5.412a.9.9,0,0,0,.692,1.063.885.885,0,0,0,.2.02c2.389-.039,4.129-.186,7.129-.186,1.848,0,7.422.193,9.973.193s2.884-2.52,1.84-2.752c-4.685-1.02-8.211-2.435-9.711-3.781A1.468,1.468,0,0,0,99.953,407.574Z" transform="translate(-33.764 -187.627)" fill="#ffd947"/>
        <path id="Trazado_132728" data-name="Trazado 132728" d="M102.429,408.311a.145.145,0,0,1-.108-.123.132.132,0,0,1,.07-.14c.217-.139,2.18-1.345,2.853-1a.432.432,0,0,1,.247.4.849.849,0,0,1-.3.773,1.813,1.813,0,0,1-1.167.309A7.252,7.252,0,0,1,102.429,408.311Zm.418-.2a2.954,2.954,0,0,0,2.164-.108.6.6,0,0,0,.194-.519c-.008-.116-.054-.17-.093-.17a.339.339,0,0,0-.186-.039A5.911,5.911,0,0,0,102.847,408.11Z" transform="translate(-35.823 -187.523)" fill="#407bff"/>
        <path id="Trazado_132729" data-name="Trazado 132729" d="M102.391,408.042a.154.154,0,0,1-.07-.131c.008-.085.155-1.833.859-2.4a.774.774,0,0,1,.611-.185.472.472,0,0,1,.464.379c.124.642-1.09,1.979-1.716,2.32h-.07A.13.13,0,0,1,102.391,408.042Zm.974-2.365a3.4,3.4,0,0,0-.719,1.9c.626-.472,1.4-1.485,1.322-1.879-.008-.039-.024-.147-.209-.147h-.07A.489.489,0,0,0,103.365,405.677Z" transform="translate(-35.823 -187.222)" fill="#407bff"/>
        <path id="Trazado_132730" data-name="Trazado 132730" d="M94.794,392.741l6.272.663-.612,6.977-6.272-.663Z" transform="translate(-34.364 -184.969)" opacity="0.2" style="isolation: isolate"/>
        <path id="Trazado_132731" data-name="Trazado 132731" d="M57.928,241.05H90.187c3.068,16.75,12.669,76.022,5.781,128.832l-10.921-1.354s1.011-70.109-8.631-96.028c-1.11,13.871-2.426,28.63-3.57,36.484-2.806,19.33-8.814,61.573-8.814,61.573H52.913s2.274-40.435,3.325-59.432C57.387,290.5,57.884,245.285,57.928,241.05Z" transform="translate(-26.968 -157.783)" fill="#12263f"/>
        <g id="Grupo_66306" data-name="Grupo 66306" transform="translate(56.732 208.889)">
          <path id="Trazado_132732" data-name="Trazado 132732" d="M103.939,399.857l-13.517-2.011.413-3.743,14.061,1.846Z" transform="translate(-90.422 -394.103)" fill="#727997"/>
        </g>
        <g id="Grupo_66307" data-name="Grupo 66307" transform="translate(25.288 208.689)">
          <path id="Trazado_132733" data-name="Trazado 132733" d="M65.226,398.033H52.112v-3.92l13.608-.255Z" transform="translate(-52.112 -393.858)" fill="#727997"/>
        </g>
        <path id="Trazado_132734" data-name="Trazado 132734" d="M81.55,276.864a86.473,86.473,0,0,1,3.6,13.956c.9-12.343-2.706-25.434-2.706-25.434Z" transform="translate(-32.1 -162.145)" opacity="0.2" style="isolation: isolate"/>
        <path id="Trazado_132735" data-name="Trazado 132735" d="M57.751,247.89l-.736,3.9s22.572,2.923,36.616,2.842l-.487-2.679Z" transform="translate(-27.703 -159.009)" fill="#7d6eb2"/>
        <path id="Trazado_132736" data-name="Trazado 132736" d="M113.737,206.138s7.811,24.616,13.149,26.226,18.917-18.7,18.917-18.7,12.169-.117,12.714-.948-3.162-9.4-4.052-9.415-11.484,3.987-11.9,4.655-12.569,12.3-13.163,11.967-5.19-14.975-5.19-14.975Z" transform="translate(-37.869 -151.017)" fill="#b97964"/>
        <path id="Trazado_132737" data-name="Trazado 132737" d="M154.7,214.314a2.611,2.611,0,0,0,.292-.075c-.053-.03-.1-.06-.143-.09A1,1,0,0,1,154.7,214.314Z" transform="translate(-45.21 -152.962)" fill="#b97964"/>
        <g id="Grupo_66308" data-name="Grupo 66308" transform="translate(71.437 38.277)">
          <path id="Trazado_132738" data-name="Trazado 132738" d="M108.338,200.24l.952,1.754,4.445,8.216.922,1.694,12.466-4.333s-5.18-19.355-6.979-21.334Z" transform="translate(-108.338 -186.237)" fill="#ffd947"/>
        </g>
        <path id="Trazado_132740" data-name="Trazado 132740" d="M109.5,204.437l4.445,8.216c2.743-5.4,1.949-12.781,1.949-12.781Z" transform="translate(-37.109 -150.403)" opacity="0.2" style="isolation: isolate"/>
        <g id="Grupo_66309" data-name="Grupo 66309" transform="translate(29.308 29.028)">
          <path id="Trazado_132741" data-name="Trazado 132741" d="M110.944,184.216A26.448,26.448,0,0,0,92.169,175.1c-12.221-.574-16.058.642-20.524,4.628-6.524,5.824-14.63,56.016-14.63,56.016a113.338,113.338,0,0,0,36.622,3.983s.147-13.931,4.555-23.322A260.818,260.818,0,0,0,110.944,184.216Z" transform="translate(-57.012 -174.969)" fill="#ffd947"/>
          <path id="Trazado_132744" data-name="Trazado 132744" d="M107.066,200.615l2.435.244-1.786,1.38Z" transform="translate(-65.982 -179.565)" fill="#fff" opacity="0.4" style="isolation: isolate"/>
        </g>
        <path id="Trazado_132745" data-name="Trazado 132745" d="M95.468,174.088c1.321,3.776,6.238,5.5,8.818,5.718a4.383,4.383,0,0,0,4.674-2.534s-2.941-1.463-2.651-3.118a7.767,7.767,0,0,1,1.214-2.807,16.2,16.2,0,0,1,1.008-1.388l-4.718-10.114C102.756,164.259,99.531,172.676,95.468,174.088Z" transform="translate(-34.595 -143.23)" fill="#b97964"/>
        <path id="Trazado_132746" data-name="Trazado 132746" d="M105.232,165.57c-2.252,4.9.928,8.313,2.687,9.61a7.767,7.767,0,0,1,1.214-2.807Z" transform="translate(-36.205 -144.256)" opacity="0.2" style="isolation: isolate"/>
        <g id="Grupo_66312" data-name="Grupo 66312" transform="translate(62.274)">
          <g id="Grupo_66310" data-name="Grupo 66310" transform="translate(14.943 7.615)">
            <path id="Trazado_132747" data-name="Trazado 132747" d="M123.017,149.437s1.509,8.337-2.843,11.683-4.794-12.24-4.794-12.24Z" transform="translate(-115.38 -148.88)" fill="#b97964"/>
            <path id="Trazado_132748" data-name="Trazado 132748" d="M123.017,149.437s1.509,8.337-2.843,11.683-4.794-12.24-4.794-12.24Z" transform="translate(-115.38 -148.88)" opacity="0.4" style="isolation: isolate"/>
          </g>
          <path id="Trazado_132749" data-name="Trazado 132749" d="M105.307,168.076a7.6,7.6,0,0,0,8.809,2.7,8.592,8.592,0,0,0,5.1-4.886c2.043-5.178,2.5-17.821-3.02-17.349-4.525.387-8.963-1.014-11.273,2.9a8.181,8.181,0,0,0-1.134,3.66C103.292,161.1,102.718,164.607,105.307,168.076Z" transform="translate(-98.283 -141.201)" fill="#b97964"/>
          <path id="Trazado_132750" data-name="Trazado 132750" d="M114.61,159.956c-.1.476.129.913.451.958s.629-.316.7-.8-.136-.914-.451-.958S114.683,159.465,114.61,159.956Z" transform="translate(-100.295 -143.106)" fill="#263238"/>
          <path id="Trazado_132751" data-name="Trazado 132751" d="M121.295,160.9c-.1.476.136.915.451.959s.629-.317.7-.8-.136-.914-.451-.958S121.361,160.442,121.295,160.9Z" transform="translate(-101.493 -143.276)" fill="#263238"/>
          <path id="Trazado_132752" data-name="Trazado 132752" d="M118.99,161.068a17.435,17.435,0,0,0,1.729,4.481,2.836,2.836,0,0,1-2.394.1Z" transform="translate(-100.965 -143.449)" fill="#a24e3f"/>
          <path id="Trazado_132753" data-name="Trazado 132753" d="M112.8,157.375a.3.3,0,0,0,.292-.072,2.322,2.322,0,0,1,1.959-.7.286.286,0,0,0,.121-.559h0a2.853,2.853,0,0,0-2.482.845.287.287,0,0,0-.013.4l0,0A.443.443,0,0,0,112.8,157.375Z" transform="translate(-99.94 -142.544)" fill="#263238"/>
          <path id="Trazado_132754" data-name="Trazado 132754" d="M124.1,158.694a.28.28,0,0,0,.167.035.286.286,0,0,0,.19-.357l0-.006a2.853,2.853,0,0,0-1.825-1.893.286.286,0,0,0-.351.2h0a.294.294,0,0,0,.2.352h0a2.319,2.319,0,0,1,1.422,1.522A.3.3,0,0,0,124.1,158.694Z" transform="translate(-101.672 -142.624)" fill="#263238"/>
          <path id="Trazado_132755" data-name="Trazado 132755" d="M113.684,166.918s1.01,2.169,3.065,2.088" transform="translate(-100.133 -144.497)" fill="none" stroke="#263238" stroke-linecap="round" stroke-linejoin="round" stroke-width="0.5"/>
          <g id="Grupo_66311" data-name="Grupo 66311" transform="translate(2.192 7.084)">
            <path id="Trazado_132756" data-name="Trazado 132756" d="M108.585,148.233l.076,2.672a1.978,1.978,0,0,0-1.221,2.388c.645,2.3-.937,5.631-2.772,6.846,0,0,.038-.968-.8-.815s-1.078,5.187.283,7.727a14.548,14.548,0,0,1-3.767-8.06c-.8-4.985-.659-8.145.048-10.527Z" transform="translate(-99.845 -148.233)" fill="#b97964"/>
            <path id="Trazado_132757" data-name="Trazado 132757" d="M108.585,148.233l.076,2.672a1.978,1.978,0,0,0-1.221,2.388c.645,2.3-.937,5.631-2.772,6.846,0,0,.038-.968-.8-.815s-1.078,5.187.283,7.727a14.548,14.548,0,0,1-3.767-8.06c-.8-4.985-.659-8.145.048-10.527Z" transform="translate(-99.845 -148.233)" opacity="0.4" style="isolation: isolate"/>
          </g>
          <path id="Trazado_132758" data-name="Trazado 132758" d="M99.427,149.9a27.739,27.739,0,0,0,8.754-.537c8.273-1.646,11.79,1.4,11.79,1.4a5.208,5.208,0,0,0,1.72-4.07c-.244-2.383-3.549-2.789-3.549-2.789s-1-2.679-3.189-3.491-4.388,1.218-4.388,1.218-2.736-2.638-5.918-1.889a4.777,4.777,0,0,0-3.819,4.649s-3.734.382-3.652,2.3S99.427,149.9,99.427,149.9Z" transform="translate(-97.174 -139.602)" fill="#263238"/>
          <ellipse id="Elipse_4103" data-name="Elipse 4103" cx="2.681" cy="3.091" rx="2.681" ry="3.091" transform="translate(12.269 14.158)" fill="none" stroke="#263238" stroke-linecap="round" stroke-linejoin="round" stroke-width="0.5"/>
          <path id="Trazado_132759" data-name="Trazado 132759" d="M125.7,160.5a2.708,2.708,0,1,1-2.681-3.09A2.908,2.908,0,0,1,125.7,160.5Z" transform="translate(-101.327 -142.793)" fill="none" stroke="#263238" stroke-linecap="round" stroke-linejoin="round" stroke-width="0.5"/>
          <path id="Trazado_132760" data-name="Trazado 132760" d="M118.654,161.02s.864-.544,1.386.088" transform="translate(-101.024 -143.401)" fill="none" stroke="#263238" stroke-linecap="round" stroke-linejoin="round" stroke-width="0.5"/>
          <path id="Trazado_132761" data-name="Trazado 132761" d="M110.672,160.475l-4.708-.628a2.312,2.312,0,0,0-1.726.468l-.205.16" transform="translate(-98.404 -143.227)" fill="none" stroke="#263238" stroke-linecap="round" stroke-linejoin="round" stroke-width="0.5"/>
          <path id="Trazado_132762" data-name="Trazado 132762" d="M99.831,161.275a5.728,5.728,0,0,0,2.845,3.328c1.8.9,3.075-.616,2.9-2.512-.171-1.684-1.293-4.235-3.257-4.328A2.558,2.558,0,0,0,99.831,161.275Z" transform="translate(-97.625 -142.856)" fill="#b97964"/>
        </g>
        <path id="Trazado_132763" data-name="Trazado 132763" d="M63.322,211.606C71.065,208.39,77.19,195.1,77.19,195.1l-4.4-2.661-5.974,4.8c-.18.653-.36,1.32-.54,1.994-.8,3.043-1.589,6.289-2.331,9.572C63.734,209.739,63.524,210.676,63.322,211.606Z" transform="translate(-28.834 -149.071)" opacity="0.2" style="isolation: isolate"/>
        <path id="Trazado_132764" data-name="Trazado 132764" d="M115.308,216.436l13.367-4.909.379,1.136-13.367,4.762Z" transform="translate(-38.15 -152.492)" fill="#7d6eb2"/>
        <g id="Grupo_66314" data-name="Grupo 66314" transform="translate(0 91.582)">
          <rect id="Rectángulo_30237" data-name="Rectángulo 30237" width="39.217" height="24.189" transform="translate(3.789 0) rotate(9.013)" fill="#727997"/>
          <g id="Grupo_66313" data-name="Grupo 66313" transform="translate(9.633 9.095)">
            <path id="Trazado_132765" data-name="Trazado 132765" d="M40.907,262.261l-7.867,4.078,6.219,6.312" transform="translate(-33.04 -262.261)" fill="none" stroke="#fff" stroke-linecap="round" stroke-linejoin="round" stroke-width="2"/>
            <path id="Trazado_132766" data-name="Trazado 132766" d="M51.789,274.423l7.867-4.078-6.219-6.312" transform="translate(-36.4 -262.579)" fill="none" stroke="#fff" stroke-linecap="round" stroke-linejoin="round" stroke-width="2"/>
            <line id="Línea_1775" data-name="Línea 1775" y1="9.805" x2="5.336" transform="translate(8.96 1.02)" fill="none" stroke="#fff" stroke-linecap="round" stroke-linejoin="round" stroke-width="2"/>
          </g>
        </g>
        <path id="Trazado_132767" data-name="Trazado 132767" d="M64.11,183.375s-14.6,14.654-16.59,17.5-5.8,34.421-5.8,34.421-.8.278-.871.96-.129,9.549,0,9.959,6.849,4.557,7.838,3.571,2.373-11.027,2.373-11.027L47.52,235.3s4.124-23.254,6.7-27.017,13.214-11.827,13.214-11.827Z" transform="translate(-24.793 -147.447)" fill="#b97964"/>
        <g id="Grupo_66315" data-name="Grupo 66315" transform="translate(26.835 30.029)">
          <path id="Trazado_132768" data-name="Trazado 132768" d="M77.7,176.188c2.127,4.505.51,13.993-3.41,17.341a115.052,115.052,0,0,1-13.123,9.416L54,193.568s7.617-7.437,12.23-11.722A20.877,20.877,0,0,1,77.7,176.188Z" transform="translate(-53.997 -176.188)" fill="#ffd947"/>
        </g>
        <path id="Trazado_132770" data-name="Trazado 132770" d="M53.8,196.626l-.886,1.208,7.482,9.778,1.058-.758Z" transform="translate(-26.969 -149.822)" fill="#7d6eb2"/>
      </g>
    </g>
  </g>
</svg>
