<svg id="Grupo_888485" data-name="Grupo 888485" xmlns="http://www.w3.org/2000/svg" xmlns:xlink="http://www.w3.org/1999/xlink" width="131.772" height="141.18" viewBox="0 0 131.772 141.18">
  <defs>
    <clipPath id="clip-path">
      <rect id="Rectángulo_299379" data-name="Rectángulo 299379" width="131.772" height="141.18" fill="#12263f"/>
    </clipPath>
    <clipPath id="clip-path-2">
      <rect id="Rectángulo_299382" data-name="Rectángulo 299382" width="58.203" height="93.776" fill="#12263f"/>
    </clipPath>
  </defs>
  <path id="Trazado_604676" data-name="Trazado 604676" d="M60.186,17.652h79.266V123.43H60.186ZM139.542,0V13.076H60.1V.02H55.662v13.2H46.993v4.386h8.652V123.563H46.963v4.386h8.753v13.23h4.413V128.021h79.428V141.18h4.413V127.9H152.7v-4.435h-8.667V17.558h8.648V13.123h-8.754V0Z" transform="translate(-33.984)" fill="#12263f"/>
  <g id="Grupo_888483" data-name="Grupo 888483">
    <g id="Grupo_888482" data-name="Grupo 888482" clip-path="url(#clip-path)">
      <path id="Trazado_604677" data-name="Trazado 604677" d="M443.8,373.244c-1.324,1.9-2.659,3.8-3.969,5.712-1.593,2.327-3.187,2.326-4.769-.036-1.272-1.9-2.53-3.811-3.874-5.836l3.665-2.451,2.613,3.78,2.528-3.726,3.805,2.282Z" transform="translate(-312.023 -268.205)" fill="#12263f"/>
      <path id="Trazado_604678" data-name="Trazado 604678" d="M443.726,111.3l-3.793,2.275-2.533-3.7-2.6,3.735-3.707-2.431c1.6-2.351,3.063-4.707,4.74-6.9.867-1.136,2.635-.811,3.53.478,1.2,1.73,2.34,3.5,3.521,5.247a13.091,13.091,0,0,0,.846,1.021Z" transform="translate(-311.954 -74.961)" fill="#12263f"/>
      <path id="Trazado_604679" data-name="Trazado 604679" d="M.045,373.067l3.691-2.46,2.584,3.8,2.584-3.8,3.69,2.46c-1.506,2.257-2.9,4.463-4.416,6.576a2.163,2.163,0,0,1-3.716,0c-1.52-2.112-2.91-4.318-4.418-6.577" transform="translate(-0.033 -268.187)" fill="#12263f"/>
      <path id="Trazado_604680" data-name="Trazado 604680" d="M8.882,113.653,6.306,109.9,3.7,113.631,0,111.2c1.574-2.331,3.032-4.65,4.662-6.842a2.19,2.19,0,0,1,3.476.232c1.5,2.137,2.913,4.34,4.424,6.609l-3.68,2.452" transform="translate(0 -74.974)" fill="#12263f"/>
      <rect id="Rectángulo_299365" data-name="Rectángulo 299365" width="4.228" height="4.233" transform="translate(4.162 44.185)" fill="#12263f"/>
      <rect id="Rectángulo_299366" data-name="Rectángulo 299366" width="4.235" height="4.233" transform="translate(123.323 44.137)" fill="#12263f"/>
      <rect id="Rectángulo_299367" data-name="Rectángulo 299367" width="4.182" height="4.281" transform="translate(4.191 52.994)" fill="#12263f"/>
      <rect id="Rectángulo_299368" data-name="Rectángulo 299368" width="4.228" height="4.233" transform="translate(123.303 53.013)" fill="#12263f"/>
      <rect id="Rectángulo_299369" data-name="Rectángulo 299369" width="4.247" height="4.272" transform="translate(4.152 61.784)" fill="#12263f"/>
      <rect id="Rectángulo_299370" data-name="Rectángulo 299370" width="4.271" height="4.248" transform="translate(4.14 75.062)" fill="#12263f"/>
      <rect id="Rectángulo_299371" data-name="Rectángulo 299371" width="4.23" height="4.256" transform="translate(123.326 75.058)" fill="#12263f"/>
      <rect id="Rectángulo_299372" data-name="Rectángulo 299372" width="4.273" height="4.202" transform="translate(4.115 83.914)" fill="#12263f"/>
      <rect id="Rectángulo_299373" data-name="Rectángulo 299373" width="4.28" height="4.215" transform="translate(123.298 83.907)" fill="#12263f"/>
      <rect id="Rectángulo_299374" data-name="Rectángulo 299374" width="4.224" height="4.25" transform="translate(4.164 92.694)" fill="#12263f"/>
      <rect id="Rectángulo_299375" data-name="Rectángulo 299375" width="4.182" height="4.281" transform="translate(123.343 92.659)" fill="#12263f"/>
      <rect id="Rectángulo_299376" data-name="Rectángulo 299376" width="4.232" height="4.258" transform="translate(123.325 61.815)" fill="#12263f"/>
      <g id="Grupo_888487" data-name="Grupo 888487" transform="translate(37.903 22.801)">
        <g id="Grupo_888486" data-name="Grupo 888486" transform="translate(0 0)" clip-path="url(#clip-path-2)">
          <path id="Trazado_604687" data-name="Trazado 604687" d="M37.34,49.258c5.366,0,10.117-.026,14.867.007,7.174.049,10.219,3.014,10.261,9.978.048,7.756.263,15.519-.009,23.265-.1,2.727-1.287,5.455-2.211,8.1a79.392,79.392,0,0,1-3.325,7.914c-.382.8-1.318,1.342-2,2-.667-.72-2-1.559-1.89-2.138a71.415,71.415,0,0,1,2.188-8.373c.974-3.135,2.837-6.181,3.013-9.338.407-7.322,0-14.687-.011-22.035,0-2.407-.554-4.275-4.058-4.764a35.525,35.525,0,0,1-.04,4.777c-.328,2.313,1.427,6.387-2.05,6.4-3.918.01-1.882-4.2-2.29-6.584a26.64,26.64,0,0,1-.046-4.427c-3.157-1.043-4.282-.029-4.065,2.941a24.456,24.456,0,0,1-.086,5.7c-.158.957-1.218,1.764-1.87,2.64-.762-.921-2.076-1.783-2.182-2.775a83.143,83.143,0,0,1-.1-8.681H37.34a60.641,60.641,0,0,1-.1,7.861c-.171,1.274-1.376,2.41-2.113,3.608-.64-1.156-1.792-2.294-1.835-3.472-.2-5.436.1-10.893-.2-16.32-.083-1.519-1.424-4.083-2.447-4.219-2.686-.359-2.487,2.17-2.486,4.061,0,12.519-.08,25.04.149,37.555.039,2.124,1.588,4.184,2.193,6.343a80.724,80.724,0,0,1,2.081,9.24c.084.541-1.336,1.861-2.018,1.831-.731-.032-2.09-1.336-2-1.907.591-3.915-1.862-6.589-3.374-9.712a14.207,14.207,0,0,1-1.142-5.917c-.1-12.791-.083-25.583-.057-38.375.009-4.768,2.516-7.593,6.58-7.6,4.144-.006,6.661,2.757,6.763,7.454.032,1.47,0,2.942,0,4.968" transform="translate(-4.39 -6.747)" fill="#12263f"/>
          <path id="Trazado_604688" data-name="Trazado 604688" d="M40.556,30.622a68.119,68.119,0,0,1-.088,7.344c-.1.944-1.2,1.782-1.836,2.667-.813-.882-2.273-1.727-2.328-2.655-.249-4.207-.071-8.437-.1-12.659-.057-7.348-4.453-12.4-11.012-12.706-6.91-.326-11.6,4.154-12.609,11.7-.185,1.388-1.453,2.631-2.222,3.941C9.714,26.8,8.5,25.346,8.522,23.906A16.2,16.2,0,0,1,24.195,8.165a15.9,15.9,0,0,1,16.067,13.9c.382,2.818.3,5.7.433,8.552l-.138,0" transform="translate(-1.561 -1.493)" fill="#12263f"/>
          <path id="Trazado_604689" data-name="Trazado 604689" d="M10.867,53.624c-.388-.267-1.388-.591-1.557-1.161-.22-.741-.055-2.2.421-2.451,6.442-3.419,5.4-9.409,5.363-15.071-.016-2.859-.145-5.727.04-8.574.252-3.88,1.748-7.182,5.564-8.787.762-.321,1.91.272,2.879.444-.193.962-.067,2.466-.631,2.8-3.6,2.116-3.541,5.457-3.476,8.932.076,4.082.1,8.168-.008,12.249-.132,5.109-4.623,11.333-8.594,11.62" transform="translate(-1.688 -3.203)" fill="#12263f"/>
          <path id="Trazado_604690" data-name="Trazado 604690" d="M25.073,0C29.972.318,35,1.8,39,5.6c.809.769.79,2.411,1.152,3.65-1.191-.1-2.647.219-3.534-.35-9.757-6.265-15.51-6.151-24.913.482-.813.573-2.29.2-3.459.271C8.5,8.485,8.4,7,9.087,6.2c3.039-3.535,10-6.188,15.986-6.2" transform="translate(-1.51 0)" fill="#12263f"/>
          <path id="Trazado_604691" data-name="Trazado 604691" d="M5.115,14.978A14.8,14.8,0,0,1,5.8,18.594c-.369,6.051-1.155,12.089-1.234,18.14C4.532,39.323,6.017,41.9,6.5,44.541c.216,1.188-.337,2.516-.542,3.78a23.963,23.963,0,0,1-3.318-2.179,4.566,4.566,0,0,1-.966-2.207,52.249,52.249,0,0,1-.132-25.7C1.84,17,2.961,15.954,3.7,14.819l1.412.159" transform="translate(0 -2.714)" fill="#12263f"/>
          <path id="Trazado_604692" data-name="Trazado 604692" d="M51.048,31.918c-.96-5-1.982-9.983-2.825-15-.164-.977.369-2.072.581-3.111,1.1.488,2.683.68,3.2,1.526a12.15,12.15,0,0,1,1.846,5.32q.594,8.919.555,17.871c-.006,1.113-1.385,2.218-2.13,3.327-.71-1.224-1.809-2.38-2.039-3.689a35.413,35.413,0,0,1-.091-6.089l.9-.155" transform="translate(-8.827 -2.529)" fill="#12263f"/>
          <path id="Trazado_604693" data-name="Trazado 604693" d="M37.837,28.552a4.99,4.99,0,0,1-.167,2.058c-.3.743-1.287,1.847-1.741,1.747-.841-.185-2.138-1.114-2.157-1.765-.107-3.69.081-7.343-3.351-9.951a2.847,2.847,0,0,1,.52-2.38,4.037,4.037,0,0,1,2.955.276c2.76,1.521,3.888,4.408,3.94,10.015" transform="translate(-5.552 -3.314)" fill="#12263f"/>
          <path id="Trazado_604694" data-name="Trazado 604694" d="M13.391,45.231c-.146.184-.66,1.434-1.362,1.551-.77.129-2.321-.64-2.475-1.277a35.371,35.371,0,0,1-.988-7.481c-.017-.685,1.256-1.4,1.938-2.106.687.686,1.791,1.273,1.979,2.076a67.987,67.987,0,0,1,.909,7.237" transform="translate(-1.569 -6.579)" fill="#12263f"/>
          <path id="Trazado_604695" data-name="Trazado 604695" d="M31.136,29.168l-3.3,2.844c-.676-1.106-1.755-2.167-1.885-3.334-.087-.781,1.175-1.712,1.834-2.576.948.867,1.9,1.735,3.35,3.065" transform="translate(-4.752 -4.781)" fill="#12263f"/>
        </g>
      </g>
    </g>
  </g>
</svg>
