<svg xmlns="http://www.w3.org/2000/svg" xmlns:xlink="http://www.w3.org/1999/xlink" width="121" height="121" viewBox="0 0 121 121">
  <defs>
    <clipPath id="clip-path">
      <rect id="Rectángulo_299167" data-name="Rectángulo 299167" width="82.22" height="100.631" transform="translate(0 0)" fill="none"/>
    </clipPath>
  </defs>
  <g id="Grupo_889582" data-name="Grupo 889582" transform="translate(5777 3450)">
    <g id="Grupo_889579" data-name="Grupo 889579" transform="translate(1 10.416)">
      <g id="Grupo_889576" data-name="Grupo 889576" transform="translate(-5759 -3450.417)">
        <g id="Grupo_888295" data-name="Grupo 888295" transform="translate(0 0.001)" clip-path="url(#clip-path)">
          <path id="Trazado_603576" data-name="Trazado 603576" d="M97.614,165.2a8.315,8.315,0,0,1-1.128-1.417c-.638-1.288-1.2-2.617-1.737-3.95a1.084,1.084,0,0,0-1.053-.782c-2.723-.275-4.421-1.839-4.595-4.129a4.144,4.144,0,0,1,1.275-3.371c-2.287-2.047-2.326-4.56-.039-6.122a3.907,3.907,0,0,1-.829-5.124c1.013-1.893,2.829-2.386,4.789-2.5.545-3.292-.355-4.725-2.488-5.872a28.5,28.5,0,0,1-10.288-9.5c-.091-.136-.177-.275-.263-.415a1.6,1.6,0,0,1,.352-2.4c.707-.469,1.468-.173,2.154.709a36.434,36.434,0,0,0,3.793,4.611,35.756,35.756,0,0,0,5.862,4.4c2.721,1.62,4.132,3.8,4.044,6.964-.04,1.435-.006,1.435,1.418,1.438,2.611,0,2.61,0,2.611-2.6q.005-8.7.012-17.394c0-.385,0-.769,0-1.279-1.593,0-3.089.025-4.584,0a7.58,7.58,0,0,1-7.468-6.059,7.618,7.618,0,1,1,15.061-1.891c.071,1.562.012,3.13.012,4.781H107.6c0-1.526-.01-2.991,0-4.457a7.625,7.625,0,1,1,7.7,7.622c-1.5.044-3.008.007-4.589.007V137.7h3.965c0-.539.009-1.052,0-1.564a6.959,6.959,0,0,1,3.964-6.693,25.82,25.82,0,0,0,11.025-11.388,26.472,26.472,0,0,0-10.093-34.527c-1.33-.8-1.7-1.531-1.186-2.377.554-.917,1.418-.982,2.724-.205,19.347,11.512,19.042,39.76-.575,50.862-2.369,1.341-3.185,2.5-2.751,5.983,2.324.167,4.385.844,5.178,3.366a3.742,3.742,0,0,1-1.232,4.234,3.719,3.719,0,0,1,1.354,3.093,3.6,3.6,0,0,1-1.176,2.88,14.84,14.84,0,0,1,1.012,2.811c.4,2.817-1.161,4.571-4.3,4.867a1.347,1.347,0,0,0-1.341.97c-.5,1.28-1.036,2.547-1.646,3.775a8.358,8.358,0,0,1-1.128,1.418Zm8.445-24.388q-4.075,0-8.15,0c-1.342,0-2.685-.013-4.026.025a1.477,1.477,0,0,0-1.554,1.444,1.534,1.534,0,0,0,1.409,1.6,6.006,6.006,0,0,0,.882.03q4.86.009,9.721.014c.524,0,1.05-.024,1.57.021a1.343,1.343,0,0,1,1.335,1.318,1.379,1.379,0,0,1-1.084,1.545,4.022,4.022,0,0,1-1.069.085c-3.633.007-7.267,0-10.9.011-1.2,0-1.859.554-1.887,1.525s.664,1.6,1.822,1.6q11.931.018,23.862,0c1.16,0,1.845-.629,1.838-1.595s-.679-1.538-1.863-1.544c-1.8-.01-3.6.007-5.4-.007-1.149-.009-1.792-.556-1.81-1.488s.611-1.469,1.787-1.477c1.637-.011,3.273,0,4.91,0a7,7,0,0,0,.785-.016,1.581,1.581,0,0,0,1.572-1.662,1.512,1.512,0,0,0-1.67-1.427c-4.026-.013-8.052-.006-12.078-.007m0,12.2v.011H94.475c-.1,0-.2,0-.294,0-1.181.019-1.862.588-1.855,1.55s.7,1.54,1.88,1.542q11.829.016,23.659.012c1.251,0,1.952-.587,1.944-1.579s-.692-1.533-1.97-1.535q-5.89-.006-11.78,0m-4.466-39.787a45.483,45.483,0,0,0-.332-5.678c-.4-2.218-2.59-3.506-5-3.267a4.556,4.556,0,0,0-3.916,4.037c-.2,2.271,1.209,4.542,3.369,4.853a42.815,42.815,0,0,0,5.877.055m11.871.14v-.046c.752,0,1.508.055,2.254-.01a4.478,4.478,0,0,0,4.072-4.492,4.545,4.545,0,0,0-3.831-4.529,4.39,4.39,0,0,0-5.126,3.48,33.834,33.834,0,0,0-.158,5.084c0,.171.4.468.634.489.714.065,1.437.023,2.156.023m-5.947,3.162h-2.935V137.72h2.935Zm-9.852,42.6,1.362,3.115c4.552,0,9.062,0,13.572-.013a.809.809,0,0,0,.624-.3c.435-.891.808-1.812,1.236-2.8Z" transform="translate(-64.952 -64.572)"/>
          <path id="Trazado_603577" data-name="Trazado 603577" d="M59.417,91.864A29.658,29.658,0,0,1,96.133,63.335c.253.064.51.121.756.207a1.488,1.488,0,0,1,1.049,1.921,1.444,1.444,0,0,1-1.878.948A26.476,26.476,0,0,0,63.708,99.94c.35,1.1.028,1.92-.809,2.187-.921.293-1.693-.162-2.066-1.285a29.315,29.315,0,0,1-1.416-8.979" transform="translate(-47.715 -50.181)"/>
          <path id="Trazado_603578" data-name="Trazado 603578" d="M204.163,4.512c0,.982.029,1.964-.008,2.944a1.454,1.454,0,0,1-1.5,1.578,1.431,1.431,0,0,1-1.416-1.562q-.051-2.944,0-5.889a1.463,1.463,0,1,1,2.918-.016c.037.98.008,1.963.008,2.944" transform="translate(-161.585 0)"/>
          <path id="Trazado_603579" data-name="Trazado 603579" d="M66.109,64.775c-.333.415-.57.958-.972,1.142a1.626,1.626,0,0,1-1.432-.04c-1.638-1.5-3.224-3.063-4.736-4.69a1.277,1.277,0,0,1,.252-1.921,1.383,1.383,0,0,1,2.027.133q2.106,2.058,4.158,4.169a6.323,6.323,0,0,1,.7,1.206" transform="translate(-47.088 -47.288)"/>
          <path id="Trazado_603580" data-name="Trazado 603580" d="M323.579,66.2c-.369-.276-.949-.5-1.115-.891a1.748,1.748,0,0,1,.084-1.522c1.475-1.617,3.033-3.162,4.627-4.663a1.264,1.264,0,0,1,1.857.146,1.28,1.28,0,0,1,.144,1.863c-1.5,1.6-3.077,3.119-4.646,4.647a3.534,3.534,0,0,1-.952.419" transform="translate(-258.852 -47.201)"/>
          <path id="Trazado_603581" data-name="Trazado 603581" d="M66.328,324.042a6.583,6.583,0,0,1-.715,1.211q-2.012,2.079-4.089,4.1a1.453,1.453,0,0,1-2.182.127,1.479,1.479,0,0,1,.09-2.18c1.369-1.4,2.727-2.827,4.188-4.132a2.061,2.061,0,0,1,1.671-.305c.414.114.683.751,1.038,1.184" transform="translate(-47.304 -259.227)"/>
          <path id="Trazado_603582" data-name="Trazado 603582" d="M328.979,327.823c-.265.346-.489.914-.88,1.076a1.753,1.753,0,0,1-1.516-.073c-1.617-1.472-3.162-3.028-4.665-4.618a1.265,1.265,0,0,1,.139-1.857,1.281,1.281,0,0,1,1.862-.146c1.6,1.494,3.123,3.068,4.653,4.634a3.5,3.5,0,0,1,.408.985" transform="translate(-258.241 -258.478)"/>
          <path id="Trazado_603583" data-name="Trazado 603583" d="M4.493,201.48c.981,0,1.963-.02,2.944.006a1.469,1.469,0,1,1,.01,2.93q-2.944.041-5.888,0A1.437,1.437,0,0,1,0,202.9a1.42,1.42,0,0,1,1.548-1.416c.981-.026,1.963-.006,2.944-.006" transform="translate(0 -161.794)"/>
          <path id="Trazado_603584" data-name="Trazado 603584" d="M376.2,201.48c.981,0,1.963-.02,2.944,0a1.467,1.467,0,1,1,.018,2.93q-2.944.043-5.888,0a1.469,1.469,0,1,1-.018-2.929c.981-.027,1.963-.006,2.944-.006" transform="translate(-298.484 -161.794)"/>
          <path id="Trazado_603585" data-name="Trazado 603585" d="M152.638,387.134c4.026,0,8.052-.007,12.078.006a1.513,1.513,0,0,1,1.67,1.427,1.581,1.581,0,0,1-1.572,1.662,7.048,7.048,0,0,1-.785.016c-1.637,0-3.273-.007-4.91,0-1.177.008-1.8.54-1.787,1.477s.661,1.479,1.81,1.488c1.8.014,3.6,0,5.4.007,1.184.007,1.856.576,1.863,1.544s-.677,1.594-1.838,1.595q-11.931.013-23.861,0c-1.158,0-1.851-.648-1.822-1.6s.689-1.522,1.888-1.525c3.633-.01,7.266,0,10.9-.011a4,4,0,0,0,1.069-.084,1.378,1.378,0,0,0,1.084-1.545,1.342,1.342,0,0,0-1.334-1.318c-.52-.046-1.047-.021-1.57-.022q-4.86-.008-9.721-.014a5.98,5.98,0,0,1-.882-.03,1.534,1.534,0,0,1-1.409-1.6,1.477,1.477,0,0,1,1.554-1.443c1.341-.038,2.684-.024,4.026-.026q4.075,0,8.15,0" transform="translate(-111.531 -310.89)" fill="#1565c0"/>
          <path id="Trazado_603586" data-name="Trazado 603586" d="M152.729,449.094q5.89,0,11.78,0c1.278,0,1.963.544,1.97,1.535s-.694,1.578-1.944,1.579q-11.829,0-23.659-.012c-1.185,0-1.873-.588-1.88-1.542s.673-1.532,1.855-1.55c.1,0,.2,0,.294,0h11.584Z" transform="translate(-111.621 -360.647)" fill="#b2ebf2"/>
          <path id="Trazado_603587" data-name="Trazado 603587" d="M148.272,210.485a42.816,42.816,0,0,1-5.877-.055c-2.159-.311-3.564-2.582-3.368-4.853a4.556,4.556,0,0,1,3.916-4.037c2.408-.24,4.6,1.049,5,3.267a45.491,45.491,0,0,1,.332,5.678" transform="translate(-111.631 -161.825)" fill="#fb8c00"/>
          <path id="Trazado_603588" data-name="Trazado 603588" d="M234.873,210.607c-.719,0-1.443.041-2.156-.024-.234-.021-.634-.318-.634-.489a33.829,33.829,0,0,1,.158-5.084,4.391,4.391,0,0,1,5.126-3.48,4.546,4.546,0,0,1,3.832,4.529,4.478,4.478,0,0,1-4.072,4.492c-.746.066-1.5.01-2.254.01Z" transform="translate(-186.361 -161.807)" fill="#fb8c00"/>
          <rect id="Rectángulo_299166" data-name="Rectángulo 299166" width="2.935" height="21.187" transform="translate(39.629 51.962)" fill="#fb8c00"/>
          <path id="Trazado_603589" data-name="Trazado 603589" d="M166.1,480.158h16.794c-.428.989-.8,1.91-1.236,2.8a.809.809,0,0,1-.624.3c-4.51.017-9.02.013-13.572.013l-1.362-3.115" transform="translate(-133.386 -385.595)" fill="#b2ebf2"/>
        </g>
      </g>
    </g>
    <rect id="Rectángulo_300218" data-name="Rectángulo 300218" width="121" height="121" transform="translate(-5777 -3450)" fill="none"/>
  </g>
</svg>
