<svg xmlns="http://www.w3.org/2000/svg" xmlns:xlink="http://www.w3.org/1999/xlink" width="121" height="121" viewBox="0 0 121 121">
  <defs>
    <clipPath id="clip-path">
      <rect id="Rectángulo_299169" data-name="Rectángulo 299169" width="104.572" height="101.141" fill="#12263f"/>
    </clipPath>
  </defs>
  <g id="Grupo_889584" data-name="Grupo 889584" transform="translate(5076 3450)">
    <g id="Grupo_889581" data-name="Grupo 889581" transform="translate(-151.423 19.241)">
      <g id="Grupo_889578" data-name="Grupo 889578" transform="translate(-4916.577 -3459.241)">
        <g id="Grupo_888297" data-name="Grupo 888297" clip-path="url(#clip-path)">
          <path id="Trazado_603590" data-name="Trazado 603590" d="M104.572,67.321c-1.036,3.736-4,5.941-6.8,8.14-2.44,1.917-5.881,1.36-8.211-.892-1.417-1.369-2.76-2.815-4.137-4.227l-.278.091q0,1.079,0,2.159c0,4.416-2.561,6.979-6.966,6.982-1.8,0-3.591,0-5.5,0,0,1.472,0,2.857,0,4.241.011,4.381-2.595,6.969-7,6.95-1.086,0-2.171,0-3.393,0,0,1.2,0,2.344,0,3.489.007,4.28-2.557,6.881-6.843,6.883q-24.252.012-48.5,0C2.5,101.13,0,98.6,0,94.156Q0,61.327,0,28.5c0-4.372,2.536-6.916,6.9-6.924,1.119,0,2.237,0,3.49,0,0-1.245,0-2.424,0-3.6.014-4.219,2.586-6.774,6.832-6.785,1.833,0,3.665,0,5.628,0,0-1.492,0-2.91,0-4.327C22.854,2.6,25.372.019,29.61.012Q47.225-.017,64.84.041a3.729,3.729,0,0,1,2.206.8c5.687,4.764,11.313,9.6,16.977,14.392a3.1,3.1,0,0,1,1.135,2.586c-.024,8.407-.007,16.815-.037,25.222a2.266,2.266,0,0,0,.753,1.773C91,49.9,96.076,55.021,101.209,60.093a10.984,10.984,0,0,1,3.364,4.982ZM68.5,79.568h-.964c-3.37,0-6.74.009-10.11,0a2.058,2.058,0,0,1-2.338-2.008c-.028-1.287.846-2.086,2.337-2.088q10.416-.01,20.832,0c2,0,2.759-.77,2.766-2.792.007-1.872-.026-3.745.016-5.616a2.129,2.129,0,0,0-.7-1.7Q67.925,53.005,55.566,40.6a11.434,11.434,0,0,1-2.4-3.6c-1.77-4.3-3.35-8.686-5.03-13.027A2.876,2.876,0,0,1,52,20.126q6.422,2.47,12.856,4.909A10.885,10.885,0,0,1,68.8,27.668c3.75,3.808,7.537,7.578,11.312,11.36.228.228.478.432.81.73a3.965,3.965,0,0,0,.087-.517c.006-6.433,0-12.867.023-19.3,0-.692-.326-.763-.879-.76q-4.493.022-8.986,0A10.4,10.4,0,0,1,68.939,19c-3.532-.805-5.617-3.654-5.621-7.6,0-2.374,0-4.747,0-7.178-.438-.021-.769-.05-1.1-.05Q45.929,4.161,29.641,4.16c-2,0-2.683.7-2.683,2.712q0,32.882,0,65.764c0,2.093.717,2.817,2.821,2.825,2.927.01,5.855,0,8.782.008a2.046,2.046,0,0,1,2.211,1.571,2.077,2.077,0,0,1-2.193,2.52c-2.893.025-5.792-.1-8.679.035-4.14.2-7.118-2.793-7.093-7.091.109-18.585.047-37.171.047-55.756v-1.28a1.475,1.475,0,0,0-.372-.139q-2.5-.018-5-.02c-2.322,0-2.982.657-2.982,2.963q0,32.678,0,65.356c0,2.379.622,3,3.035,3q24.049.007,48.1.008a7.508,7.508,0,0,0,1.018-.045,1.876,1.876,0,0,0,1.824-1.76c.1-1.719.027-3.447.027-5.259M58.15,90.758H56.775q-19.705,0-39.411-.011a9.662,9.662,0,0,1-2.423-.258c-2.823-.742-4.545-3.182-4.546-6.364q-.006-28.537,0-57.075V25.681H7.1c-2.3,0-3,.693-3,2.963q0,32.724,0,65.447c0,2.261.635,2.887,2.933,2.887l33.081.008q7.811,0,15.621,0c1.4,0,2.3-.636,2.388-1.85.1-1.412.024-2.837.024-4.376m31.6-35.889L66.993,32.082l-6.914,6.953,22.75,22.758,6.919-6.924M85.868,64.962c2.22,2.248,4.456,4.573,6.767,6.823a2.343,2.343,0,0,0,3.334-.033q1.977-1.845,3.826-3.824a2.3,2.3,0,0,0,.078-3.254c-2.264-2.34-4.623-4.588-6.889-6.819l-7.116,7.108M63.844,29.052,52.892,24.884l4.187,10.933,6.765-6.765M77.419,15.035l-10-8.5c0,2.03-.035,3.763.01,5.494A2.94,2.94,0,0,0,70.1,15.011c2.331.089,4.667.024,7.32.024" transform="translate(0 0)" fill="#12263f"/>
          <path id="Trazado_603591" data-name="Trazado 603591" d="M323.247,179.56l-6.919,6.924-22.749-22.758,6.914-6.953,22.754,22.787" transform="translate(-233.5 -124.691)" fill="#fb8c00"/>
          <path id="Trazado_603592" data-name="Trazado 603592" d="M419.6,289.82l7.116-7.108c2.266,2.231,4.625,4.479,6.889,6.819a2.305,2.305,0,0,1-.078,3.255q-1.847,1.975-3.826,3.824a2.343,2.343,0,0,1-3.334.033c-2.311-2.249-4.547-4.575-6.767-6.823" transform="translate(-333.736 -224.857)" fill="#26aab7"/>
          <path id="Trazado_603593" data-name="Trazado 603593" d="M269.415,125.769l-6.765,6.765L258.463,121.6l10.952,4.168" transform="translate(-205.571 -96.716)" fill="#636363"/>
          <path id="Trazado_603594" data-name="Trazado 603594" d="M339.419,40.421c-2.653,0-4.989.066-7.32-.024a2.94,2.94,0,0,1-2.665-2.986c-.045-1.73-.01-3.463-.01-5.494l10,8.5" transform="translate(-262 -25.386)" fill="#fffae7"/>
          <path id="Trazado_603595" data-name="Trazado 603595" d="M166.632,232.057h9.291a3.512,3.512,0,0,1,3.833,3.8c.021,2.144.026,4.288,0,6.432a3.471,3.471,0,0,1-3.7,3.722q-9.5.031-18.991,0a3.4,3.4,0,0,1-3.647-3.639c-.024-2.212-.03-4.425,0-6.637a3.419,3.419,0,0,1,3.721-3.667c3.165-.016,6.33,0,9.5,0Zm8.952,4.162h-18v5.628h18Z" transform="translate(-122.004 -184.568)" fill="#12263f"/>
          <path id="Trazado_603596" data-name="Trazado 603596" d="M172.362,328.043q-8.265,0-16.53,0c-1.433,0-2.288-.77-2.3-2.02a1.994,1.994,0,0,1,1.953-2.066c.711-.048,1.428-.022,2.142-.022l30.713,0c.238,0,.477-.008.714.007a2.091,2.091,0,0,1,2.072,2.086,2.026,2.026,0,0,1-2.133,2c-5,.017-10,.011-15,.014h-1.633" transform="translate(-122.113 -257.637)" fill="#12263f"/>
          <path id="Trazado_603597" data-name="Trazado 603597" d="M167.046,48.788H156.532c-.306,0-.613.008-.918-.009a2.05,2.05,0,1,1-.012-4.1c1.018-.048,2.041-.015,3.062-.015q9.646,0,19.292,0a4.51,4.51,0,0,1,1.012.084,1.979,1.979,0,0,1,1.577,2.183,1.912,1.912,0,0,1-1.863,1.816c-1.733.062-3.469.039-5.2.043-2.143,0-4.287,0-6.43,0" transform="translate(-122.107 -35.516)" fill="#12263f"/>
          <path id="Trazado_603598" data-name="Trazado 603598" d="M162.238,191.914q-2.958,0-5.917,0a6.728,6.728,0,0,1-.916-.035,2.01,2.01,0,0,1-1.87-2.147,1.925,1.925,0,0,1,1.983-1.914q6.733-.055,13.466-.01a1.969,1.969,0,0,1,2.035,1.987,2.033,2.033,0,0,1-2.15,2.1c-2.209.048-4.42.013-6.631.013v.006" transform="translate(-122.114 -149.357)" fill="#12263f"/>
          <path id="Trazado_603599" data-name="Trazado 603599" d="M160.448,140.144c1.564,0,3.128-.014,4.692,0a2.053,2.053,0,0,1,2.3,2.039,2.1,2.1,0,0,1-2.3,2.057q-4.692.025-9.384,0a2.035,2.035,0,0,1-2.228-2.112,2,2,0,0,1,2.231-1.987c1.564-.021,3.128,0,4.692-.005" transform="translate(-122.107 -111.46)" fill="#12263f"/>
          <path id="Trazado_603600" data-name="Trazado 603600" d="M159.278,96.488c-1.222,0-2.445.021-3.666-.006A2.04,2.04,0,1,1,155.6,92.4q3.665-.052,7.332,0a2.043,2.043,0,1,1-.087,4.082c-1.188.018-2.376,0-3.564,0" transform="translate(-122.114 -73.473)" fill="#12263f"/>
          <path id="Trazado_603601" data-name="Trazado 603601" d="M224.285,370.833a1.976,1.976,0,0,1,1.951-2.051,2.052,2.052,0,0,1,2.172,1.963,2.1,2.1,0,0,1-2.029,2.126,2.038,2.038,0,0,1-2.094-2.039" transform="translate(-178.387 -293.313)" fill="#12263f"/>
          <rect id="Rectángulo_299168" data-name="Rectángulo 299168" width="18" height="5.628" transform="translate(35.579 51.651)" fill="#b2ebf2"/>
        </g>
      </g>
    </g>
    <rect id="Rectángulo_300216" data-name="Rectángulo 300216" width="121" height="121" transform="translate(-5076 -3450)" fill="none"/>
  </g>
</svg>
