<svg xmlns="http://www.w3.org/2000/svg" xmlns:xlink="http://www.w3.org/1999/xlink" width="108.419" height="108.419" viewBox="0 0 108.419 108.419">
  <defs>
    <linearGradient id="linear-gradient" x1="0.5" x2="0.5" y2="1" gradientUnits="objectBoundingBox">
      <stop offset="0" stop-color="#fdbe41"/>
      <stop offset="1" stop-color="#d09f40"/>
    </linearGradient>
    <clipPath id="clip-path">
      <rect id="Rectángulo_299191" data-name="Rectángulo 299191" width="66.277" height="65.015" fill="#12263f"/>
    </clipPath>
  </defs>
  <g id="Grupo_889653" data-name="Grupo 889653" transform="translate(5728.942 885.845)">
    <circle id="Elipse_6021" data-name="Elipse 6021" cx="54.209" cy="54.209" r="54.209" transform="translate(-5728.942 -885.845)" fill="url(#linear-gradient)"/>
    <g id="Grupo_888336" data-name="Grupo 888336" transform="translate(-5702.598 -867.911)">
      <g id="Grupo_888335" data-name="Grupo 888335" clip-path="url(#clip-path)">
        <path id="Trazado_603794" data-name="Trazado 603794" d="M37.16,60.9a30.419,30.419,0,0,1-11.365-.11c-.054.638-.069,1.217-.157,1.786a2.644,2.644,0,0,1-2.687,2.289q-2.264.009-4.528,0a2.631,2.631,0,0,1-2.732-2.516c-.076-1.722-.063-3.448-.055-5.172a.948.948,0,0,0-.465-.9,26.172,26.172,0,0,1-5.262-4.745,1.21,1.21,0,0,0-.8-.369c-1.638-.034-3.278-.017-4.917-.017A3.88,3.88,0,0,1,.044,47.232C-.021,43.416,0,39.6.032,35.782a3.93,3.93,0,0,1,4-3.939c.43.011.86,0,1.33,0a21.051,21.051,0,0,1,.851-2.416c.781-1.595,1.633-3.157,2.5-4.706a.625.625,0,0,0-.032-.835C7.654,22.539,6.65,21.169,5.631,19.8c2.467-2.239,5.193-2.41,8.1-1.149a1,1,0,0,0,1.141-.11,28.1,28.1,0,0,1,7.544-3.783,10.22,10.22,0,0,1-.559-7.673,9.991,9.991,0,0,1,3.837-5.206A10.114,10.114,0,0,1,37.357,1.82,10,10,0,0,1,41.44,7.589a10.289,10.289,0,0,1-.6,6.981c8.385,2.909,14.445,8.173,17.274,16.714.9-.3,1.768-.643,2.667-.885a3.742,3.742,0,0,1,1.407-.067A1.952,1.952,0,0,1,63.945,31.9a.965.965,0,0,0,.686.743,6.843,6.843,0,0,1,1.272.609.612.612,0,0,1,.241.938c-.266.377-.595.324-.956.105-.344-.208-.714-.374-1.12-.582-.339.787-.612,1.588-1.471,1.806a2.251,2.251,0,0,1-1.179-.083,1.731,1.731,0,0,1-1.222-2.01c.132-.964.757-1.341,2.409-1.423a1.418,1.418,0,0,0-1.668-.35,12.085,12.085,0,0,0-2.13.867.716.716,0,0,0-.285.576c.105,1.648.365,3.295.355,4.941a20.6,20.6,0,0,1-3.2,10.712,24.27,24.27,0,0,1-7.814,7.931,1.2,1.2,0,0,0-.621,1.2c.038,1.379.018,2.76.011,4.14a2.763,2.763,0,0,1-2.961,2.976c-1.445,0-2.893-.061-4.334.018a2.773,2.773,0,0,1-2.794-2.768c-.022-.407,0-.816,0-1.342m.625-42.111-.212-.168c.34.1.69.176,1.019.3,1.454.569,2.917,1.119,4.345,1.746a1.249,1.249,0,0,1,.688,1.759,1.288,1.288,0,0,1-1.823.514c-.117-.053-.232-.111-.347-.168a21.057,21.057,0,0,0-14.787-1.633,38.568,38.568,0,0,0-4.342,1.549c-.95.361-1.7.073-1.94-.81a1.293,1.293,0,0,1,.9-1.517c1.454-.608,2.928-1.168,4.387-1.745-.522-.477-1.076-1.007-1.661-1.5a.636.636,0,0,0-.513-.042,22.708,22.708,0,0,0-7.611,3.937c-.942.774-1.739,1.089-2.722.2a1.3,1.3,0,0,0-.4-.213,5.367,5.367,0,0,0-3.4-.462l2.715,3.644a54.5,54.5,0,0,0-2.917,4.868A53.758,53.758,0,0,0,7.274,34.38c-.879,0-1.889-.005-2.9,0-1.3.009-1.78.5-1.781,1.8q0,5.305,0,10.611c0,1.323.453,1.787,1.773,1.791,1.982.006,3.963.007,5.945-.013a1.087,1.087,0,0,1,.917.437,48.963,48.963,0,0,0,3.511,3.684c1.122,1.013,2.415,1.837,3.655,2.761a1.424,1.424,0,0,0-.089.342c-.052,2.042-.1,4.084-.137,6.126-.007.413.3.445.633.438,1.12-.024,2.24-.031,3.36-.041,1.094-.01,1.023.122,1.024-1,0-1.258,0-2.517,0-3.846a28.679,28.679,0,0,0,16.571.224v4.72h4.888c.015-.273.037-.485.036-.7,0-1.768.021-3.538-.032-5.3a1.119,1.119,0,0,1,.664-1.152,21.955,21.955,0,0,0,9.141-9.63,18.4,18.4,0,0,0,.055-16.477C51.483,22.827,46.3,18.994,39.7,16.935a.526.526,0,0,0-.45.062c-.506.582-.98,1.192-1.465,1.793m-6.119-16.2a7.658,7.658,0,1,0,7.562,8.007,7.63,7.63,0,0,0-7.562-8.007M62.809,33.4c-.5,0-1-.415-1.309.2-.164.328.083.564.421.652.7.184.624-.443.889-.849" transform="translate(0 0)" fill="#12263f"/>
        <path id="Trazado_603795" data-name="Trazado 603795" d="M105.458,239.228a2.065,2.065,0,0,1,2.106,2.114,2.125,2.125,0,0,1-4.25-.014,2.1,2.1,0,0,1,2.144-2.1" transform="translate(-89.945 -208.271)" fill="#12263f"/>
      </g>
    </g>
  </g>
</svg>
