<svg xmlns="http://www.w3.org/2000/svg" xmlns:xlink="http://www.w3.org/1999/xlink" width="126" height="126" viewBox="0 0 126 126">
  <defs>
    <filter id="Elipse_6233" x="0" y="0" width="126" height="126" filterUnits="userSpaceOnUse">
      <feOffset dy="3" input="SourceAlpha"/>
      <feGaussianBlur stdDeviation="3" result="blur"/>
      <feFlood flood-opacity="0.161"/>
      <feComposite operator="in" in2="blur"/>
      <feComposite in="SourceGraphic"/>
    </filter>
    <clipPath id="clip-path">
      <rect id="Rectángulo_299171" data-name="Rectángulo 299171" width="47.942" height="64.695" fill="#1565c0"/>
    </clipPath>
  </defs>
  <g id="Grupo_889586" data-name="Grupo 889586" transform="translate(-199.61 -8663.893)">
    <g transform="matrix(1, 0, 0, 1, 199.61, 8663.89)" filter="url(#Elipse_6233)">
      <circle id="Elipse_6233-2" data-name="Elipse 6233" cx="54" cy="54" r="54" transform="translate(9 6)" fill="#fff"/>
    </g>
    <g id="Grupo_888301" data-name="Grupo 888301" transform="translate(239.412 8689.817)">
      <g id="Grupo_888300" data-name="Grupo 888300" clip-path="url(#clip-path)">
        <path id="Trazado_603613" data-name="Trazado 603613" d="M7.874,59.827v2.559H45.607V12.119h-.475c-1.947,0-3.893,0-5.84,0A1.139,1.139,0,0,1,38.144,10.6a1.091,1.091,0,0,1,1.052-.77q3.8-.013,7.592,0a1.117,1.117,0,0,1,1.149,1.179c.009.329,0,.659,0,.988q0,25.629,0,51.258c0,1.042-.394,1.436-1.433,1.436H6.972c-1.013,0-1.417-.4-1.418-1.408,0-1.134,0-2.268,0-3.437-.2-.009-.364-.022-.524-.022-1.228,0-2.456,0-3.684,0A1.178,1.178,0,0,1,0,58.475Q0,44.189,0,29.9,0,18.111,0,6.318a1.2,1.2,0,0,1,1.376-1.37q2.448,0,4.9,0h.552A4.449,4.449,0,0,1,8.553.821,4.07,4.07,0,0,1,11.34.012,4.123,4.123,0,0,1,14.349,1.6a4.508,4.508,0,0,1,.9,3.353h.573c3.848,0,7.7.005,11.545-.006a1.674,1.674,0,0,1,1.278.522q6.63,6.647,13.276,13.277a1.5,1.5,0,0,1,.469,1.12q-.008,19.34-.005,38.68c0,.881-.451,1.286-1.41,1.286H7.874m32.2-38.99H27.953c-1.06,0-1.455-.4-1.455-1.473q0-5.795,0-11.589V7.285H15.261c0,1.355.005,2.67,0,3.985a4.215,4.215,0,1,1-8.43.008c-.008-1.153,0-2.306,0-3.459,0-.175,0-.35,0-.55H2.324V57.5H40.071ZM28.82,18.506h9.4L28.82,9.1ZM9.127,7.73h0c0,1.167-.007,2.334,0,3.5a1.917,1.917,0,0,0,1.84,1.987,1.889,1.889,0,0,0,2-1.868q.055-3.59,0-7.182a1.9,1.9,0,0,0-1.951-1.883,1.928,1.928,0,0,0-1.89,1.988c-.01,1.152,0,2.3,0,3.457" transform="translate(0 0)" fill="#1565c0"/>
        <path id="Trazado_603614" data-name="Trazado 603614" d="M82.51,408.589H68.545a1.162,1.162,0,1,1,.013-2.3q13.92,0,27.84,0a2.2,2.2,0,0,1,.445.037,1.109,1.109,0,0,1,.909,1.164,1.121,1.121,0,0,1-.965,1.078,3.527,3.527,0,0,1-.538.019H82.51" transform="translate(-61.189 -369.781)" fill="#1565c0"/>
        <path id="Trazado_603615" data-name="Trazado 603615" d="M82.509,289.151q6.959,0,13.919,0a1.143,1.143,0,0,1,1.3,1.071,1.1,1.1,0,0,1-.888,1.178,2.254,2.254,0,0,1-.489.042q-13.874,0-27.747,0a2.773,2.773,0,0,1-.4-.019,1.141,1.141,0,0,1,.033-2.267,6.265,6.265,0,0,1,.673-.009h13.6" transform="translate(-61.164 -263.166)" fill="#1565c0"/>
        <path id="Trazado_603616" data-name="Trazado 603616" d="M82.542,582.067q6.937,0,13.873,0a1.249,1.249,0,0,1,1.222.588,1.127,1.127,0,0,1-.722,1.665,2.627,2.627,0,0,1-.579.046q-13.806,0-27.612,0a2.3,2.3,0,0,1-.791-.113,1.1,1.1,0,0,1-.661-1.162,1.127,1.127,0,0,1,.949-1,3.033,3.033,0,0,1,.492-.02H82.542" transform="translate(-61.221 -529.764)" fill="#1565c0"/>
        <path id="Trazado_603617" data-name="Trazado 603617" d="M82.447,523.523q6.892,0,13.784,0a3.522,3.522,0,0,1,.581.029,1.113,1.113,0,0,1,.932,1.147,1.127,1.127,0,0,1-.947,1.094,2.832,2.832,0,0,1-.448.018q-13.874,0-27.747,0a2.1,2.1,0,0,1-.618-.072,1.132,1.132,0,0,1,.231-2.195,8.033,8.033,0,0,1,.807-.019H82.447" transform="translate(-61.178 -476.483)" fill="#1565c0"/>
        <path id="Trazado_603618" data-name="Trazado 603618" d="M82.444,467.286H69.02c-.254,0-.51.007-.763-.012a1.128,1.128,0,0,1-1.045-1.1,1.146,1.146,0,0,1,1.023-1.167,2.567,2.567,0,0,1,.269-.006H96.429c.826,0,1.339.473,1.306,1.195a1.112,1.112,0,0,1-.971,1.067,4.175,4.175,0,0,1-.538.017H82.444" transform="translate(-61.172 -423.223)" fill="#1565c0"/>
        <path id="Trazado_603619" data-name="Trazado 603619" d="M82.5,350.11q-7,0-13.991,0a1.155,1.155,0,0,1-1.289-1.131c-.011-.692.5-1.149,1.313-1.149q10.977,0,21.953,0c2.019,0,4.038-.007,6.057,0a1.122,1.122,0,0,1,1.1,1.6,1.049,1.049,0,0,1-1.022.67q-2.511.01-5.021.01-4.549,0-9.1,0Z" transform="translate(-61.182 -316.573)" fill="#1565c0"/>
        <path id="Trazado_603620" data-name="Trazado 603620" d="M75.478,232.744c-2.381,0-4.761.006-7.142,0a1.112,1.112,0,0,1-1.065-1.661,1.821,1.821,0,0,1,.836-.588,2.044,2.044,0,0,1,.756-.034h13.3c.18,0,.36,0,.539.01a1.135,1.135,0,0,1-.033,2.268c-1.153.017-2.306.007-3.459.007H75.478" transform="translate(-61.077 -209.735)" fill="#1565c0"/>
      </g>
    </g>
  </g>
</svg>
