<svg xmlns="http://www.w3.org/2000/svg" xmlns:xlink="http://www.w3.org/1999/xlink" width="108.419" height="108.419" viewBox="0 0 108.419 108.419">
  <defs>
    <linearGradient id="linear-gradient" x1="0.5" x2="0.5" y2="1" gradientUnits="objectBoundingBox">
      <stop offset="0" stop-color="#fdbe41"/>
      <stop offset="1" stop-color="#d09f40"/>
    </linearGradient>
    <clipPath id="clip-path">
      <rect id="Rectángulo_299190" data-name="Rectángulo 299190" width="72.577" height="54.509" fill="#12263f"/>
    </clipPath>
  </defs>
  <g id="Grupo_889652" data-name="Grupo 889652" transform="translate(6038.904 885.845)">
    <circle id="Elipse_6020" data-name="Elipse 6020" cx="54.209" cy="54.209" r="54.209" transform="translate(-6038.904 -885.845)" fill="url(#linear-gradient)"/>
    <g id="Grupo_888334" data-name="Grupo 888334" transform="translate(-6020 -860.666)">
      <g id="Grupo_888333" data-name="Grupo 888333" clip-path="url(#clip-path)">
        <path id="Trazado_603777" data-name="Trazado 603777" d="M161.465,29.1c-.241,1.462-.41,2.94-.735,4.384a27.29,27.29,0,0,1-36.817,19.035,3.207,3.207,0,0,0-1.167-.2q-8.789-.019-17.577-.012a3.034,3.034,0,0,1-.839-.078.949.949,0,0,1-.721-1.077.96.96,0,0,1,.888-.943,5.238,5.238,0,0,1,.778-.023H119.33c-.837-.633-1.563-1.134-2.235-1.7-7.3-6.134-10.725-13.947-10.084-23.479a26.127,26.127,0,0,1,3.98-12.11,3.307,3.307,0,0,1,.358-.525,1.046,1.046,0,0,1,1.758,1.088,4.51,4.51,0,0,1-.422.734c-9.283,15.1-.049,35.129,17.463,37.874A25.123,25.123,0,0,0,139.8,2.783c-9.259-1.989-17.268.539-23.944,7.26-.133.134-.258.278-.4.4a1.016,1.016,0,0,1-1.415.012A.982.982,0,0,1,113.946,9a27.1,27.1,0,0,1,2.163-2.14c.972-.844,2.008-1.614,3.15-2.522H105.274a5.068,5.068,0,0,1-.778-.023.962.962,0,0,1-.887-.946.95.95,0,0,1,.723-1.076,3.045,3.045,0,0,1,.839-.077c5.859,0,11.718,0,17.577-.014a3.639,3.639,0,0,0,1.3-.248,27.292,27.292,0,0,1,36.941,20.259c.2,1.061.32,2.138.477,3.208Z" transform="translate(-88.889 0)" fill="#12263f"/>
        <path id="Trazado_603778" data-name="Trazado 603778" d="M190.744,85.285a21.181,21.181,0,1,1,21.033-24.023c.061.42.094.845.133,1.268.073.783-.313,1.336-.966,1.392-.618.053-1.074-.384-1.14-1.163a19.073,19.073,0,0,0-37.842-1.765,19.069,19.069,0,0,0,37.6,6.359,1.714,1.714,0,0,1,.488-1.038,1.417,1.417,0,0,1,1.1-.107.862.862,0,0,1,.542,1.1,38.2,38.2,0,0,1-1.2,4.5,21.182,21.182,0,0,1-19.753,13.478" transform="translate(-145.477 -36.839)" fill="#12263f"/>
        <path id="Trazado_603779" data-name="Trazado 603779" d="M313.484,130.382h2.739c.283,0,.568-.012.849.009a1.066,1.066,0,0,1,1.067,1.014,1.021,1.021,0,0,1-1.006,1.067q-2.37.058-4.742,0a1,1,0,0,1-1.029-1.117q-.013-4.387,0-8.774a1.064,1.064,0,1,1,2.116.018c.011,2.312,0,4.623,0,6.935v.843" transform="translate(-267.132 -104.174)" fill="#12263f"/>
        <path id="Trazado_603780" data-name="Trazado 603780" d="M37.973,72.481c-1.795,0-3.589,0-5.384,0-.823,0-1.309-.415-1.3-1.07.013-.622.5-1.047,1.266-1.049q5.384-.013,10.768,0c.823,0,1.293.421,1.281,1.09s-.457,1.028-1.322,1.03c-1.771,0-3.542,0-5.313,0" transform="translate(-26.848 -60.361)" fill="#12263f"/>
        <path id="Trazado_603781" data-name="Trazado 603781" d="M37.979,298.521c1.771,0,3.542,0,5.313,0,.86,0,1.309.361,1.318,1.034s-.463,1.085-1.286,1.087q-5.349.011-10.7,0c-.822,0-1.32-.412-1.332-1.056-.012-.676.479-1.063,1.37-1.065,1.771,0,3.542,0,5.313,0" transform="translate(-26.85 -256.119)" fill="#12263f"/>
        <path id="Trazado_603782" data-name="Trazado 603782" d="M6.444,160.379c-1.7,0-3.4,0-5.1,0C.5,160.374.025,160,0,159.359c-.022-.676.479-1.1,1.348-1.1q5.131-.009,10.263,0c.873,0,1.358.42,1.335,1.106-.022.665-.467,1.011-1.339,1.014-1.722.006-3.445,0-5.167,0" transform="translate(-0.003 -135.774)" fill="#12263f"/>
        <path id="Trazado_603783" data-name="Trazado 603783" d="M6.52,210.622c1.7,0,3.4,0,5.1,0,.869,0,1.315.353,1.333,1.02.019.684-.469,1.1-1.343,1.1q-5.131.009-10.263,0c-.864,0-1.367-.434-1.341-1.11.024-.643.5-1.007,1.351-1.01,1.722-.006,3.445,0,5.167,0" transform="translate(-0.001 -180.705)" fill="#12263f"/>
        <path id="Trazado_603784" data-name="Trazado 603784" d="M79.7,123.433c-.707,0-1.414.017-2.12,0a1.052,1.052,0,1,1-.056-2.1c1.46-.031,2.921-.029,4.381,0A1.067,1.067,0,0,1,83,122.39a1.055,1.055,0,0,1-1.11,1.037c-.73.023-1.46.005-2.191.006" transform="translate(-65.607 -104.074)" fill="#12263f"/>
        <path id="Trazado_603785" data-name="Trazado 603785" d="M79.743,247.527c.707,0,1.414-.016,2.12,0a1.052,1.052,0,1,1,.066,2.1c-1.483.03-2.968.031-4.451,0a1.048,1.048,0,1,1,.074-2.094c.73-.024,1.46-.005,2.191-.006" transform="translate(-65.602 -212.363)" fill="#12263f"/>
        <path id="Trazado_603786" data-name="Trazado 603786" d="M313.4,77.505c0,.282.018.565,0,.846a1.071,1.071,0,0,1-1.028,1.053,1.053,1.053,0,0,1-1.076-1,12.66,12.66,0,0,1,0-1.762,1,1,0,0,1,1.021-.974,1.033,1.033,0,0,1,1.078.991c.026.28,0,.564.005.846" transform="translate(-267.055 -64.918)" fill="#12263f"/>
        <path id="Trazado_603787" data-name="Trazado 603787" d="M235.881,106.672a4.565,4.565,0,0,1,.834.444,12.259,12.259,0,0,1,1.148,1.143,1.02,1.02,0,0,1-.037,1.509,1.057,1.057,0,0,1-1.466-.037,6.813,6.813,0,0,1-1.17-1.213,1.377,1.377,0,0,1-.144-1.09c.117-.308.536-.5.835-.756" transform="translate(-201.612 -91.52)" fill="#12263f"/>
        <path id="Trazado_603788" data-name="Trazado 603788" d="M383.644,109.12a3.833,3.833,0,0,1-.393.786,13.59,13.59,0,0,1-1.19,1.2,1.048,1.048,0,0,1-1.465-.015,1,1,0,0,1-.03-1.456,6.385,6.385,0,0,1,1.262-1.218,1.5,1.5,0,0,1,1.157-.1c.28.1.444.525.658.805" transform="translate(-326.255 -92.869)" fill="#12263f"/>
        <path id="Trazado_603789" data-name="Trazado 603789" d="M235.422,257.086c-.806.006-1.415-.863-.989-1.48a6.818,6.818,0,0,1,1.624-1.629,1.233,1.233,0,0,1,1.131.155c.24.187.438.842.3,1.024a17.265,17.265,0,0,1-1.776,1.849c-.072.071-.221.063-.291.081" transform="translate(-201.014 -217.833)" fill="#12263f"/>
        <path id="Trazado_603790" data-name="Trazado 603790" d="M381.873,252.8a3.192,3.192,0,0,1,.689.339,13.828,13.828,0,0,1,1.289,1.3.96.96,0,0,1-.087,1.4.937.937,0,0,1-1.341.087,7.425,7.425,0,0,1-1.371-1.4,1.267,1.267,0,0,1-.036-1.089c.145-.292.581-.439.857-.628" transform="translate(-326.807 -216.888)" fill="#12263f"/>
        <path id="Trazado_603791" data-name="Trazado 603791" d="M311.357,283.727c0-.282-.02-.566,0-.846a1.074,1.074,0,0,1,1.053-1.03,1.057,1.057,0,0,1,1.053,1.025c.032.539.027,1.082.005,1.622a1.064,1.064,0,0,1-1.053,1.1,1.077,1.077,0,0,1-1.062-1.094c-.016-.258,0-.517,0-.776h0" transform="translate(-267.125 -241.817)" fill="#12263f"/>
        <path id="Trazado_603792" data-name="Trazado 603792" d="M204.478,184.558a8.383,8.383,0,0,1,.914.006.943.943,0,0,1,.922.972.928.928,0,0,1-.877,1.076,10.545,10.545,0,0,1-1.964-.005.921.921,0,0,1-.86-1.023.965.965,0,0,1,.951-1.022,8.614,8.614,0,0,1,.914-.006v0" transform="translate(-173.834 -158.332)" fill="#12263f"/>
        <path id="Trazado_603793" data-name="Trazado 603793" d="M410.864,184.525c.282,0,.565-.02.845,0a1,1,0,0,1,1.015,1.037.961.961,0,0,1-.938,1.034,10.769,10.769,0,0,1-1.826,0,1.039,1.039,0,0,1,.06-2.072c.28-.023.563,0,.845,0" transform="translate(-350.919 -158.309)" fill="#12263f"/>
      </g>
    </g>
  </g>
</svg>
