<svg xmlns="http://www.w3.org/2000/svg" xmlns:xlink="http://www.w3.org/1999/xlink" width="108.419" height="108.419" viewBox="0 0 108.419 108.419">
  <defs>
    <linearGradient id="linear-gradient" x1="0.5" x2="0.5" y2="1" gradientUnits="objectBoundingBox">
      <stop offset="0" stop-color="#fdbe41"/>
      <stop offset="1" stop-color="#d09f40"/>
    </linearGradient>
    <clipPath id="clip-path">
      <rect id="Rectángulo_299189" data-name="Rectángulo 299189" width="63.498" height="64.232" fill="#12263f"/>
    </clipPath>
  </defs>
  <g id="Grupo_889651" data-name="Grupo 889651" transform="translate(6354.118 883.565)">
    <circle id="Elipse_6019" data-name="Elipse 6019" cx="54.209" cy="54.209" r="54.209" transform="translate(-6354.118 -883.565)" fill="url(#linear-gradient)"/>
    <g id="Grupo_888332" data-name="Grupo 888332" transform="translate(-6330.608 -863.584)">
      <g id="Grupo_888331" data-name="Grupo 888331" clip-path="url(#clip-path)">
        <path id="Trazado_603771" data-name="Trazado 603771" d="M55.706,0c.233.079.468.155.7.239a4.444,4.444,0,0,1,3.2,4.008c.125,1.579.063,3.175.04,4.763a1.219,1.219,0,0,1-1.258,1.28A1.244,1.244,0,0,1,57.132,9c-.032-1.358-.007-2.717-.015-4.076a2.182,2.182,0,0,0-2.42-2.4q-23.079,0-46.157,0a2.181,2.181,0,0,0-2.429,2.39q-.011,7.588,0,15.177a2.168,2.168,0,0,0,2.394,2.357c.983.006,1.965,0,2.948,0,1.41,0,1.762.358,1.763,1.791q0,2.665,0,5.331c0,.181,0,.363,0,.722.275-.268.432-.416.583-.57,2.15-2.2,4.309-4.383,6.441-6.595a2.12,2.12,0,0,1,1.661-.689q9.846.024,19.692,0a2.125,2.125,0,0,1,1.661.692c2.134,2.211,4.293,4.4,6.438,6.6a4.111,4.111,0,0,1,.366.508l.175-.1c.013-.171.038-.342.038-.512,0-1.86-.007-3.721,0-5.581,0-1.173.426-1.591,1.586-1.6.982,0,1.965.007,2.948,0a2.156,2.156,0,0,0,2.311-2.058c.11-.923.613-1.4,1.4-1.341.763.061,1.187.661,1.119,1.583a4.658,4.658,0,0,1-4.544,4.331c-.728.02-1.457,0-2.245,0-.015.246-.038.445-.038.645,0,2.09.009,4.181-.01,6.271a.687.687,0,0,0,.55.8,9.33,9.33,0,0,1,5.907,11.7.685.685,0,0,0,.209.811,12.8,12.8,0,0,1,4.029,9.47c.007,1.505.013,3.01,0,4.515a4.984,4.984,0,0,1-5.064,5.04q-8.184.024-16.368,0a4.957,4.957,0,0,1-5.047-5.047c0-2.109-.057-4.23.142-6.324a12.062,12.062,0,0,1,3.83-7.62c.239-.233.4-.418.268-.8A9.371,9.371,0,0,1,48.3,32.359a2.9,2.9,0,0,0,.276-.092c-.137-.163-.231-.292-.341-.4-2.119-2.167-4.232-4.34-6.372-6.486a1.424,1.424,0,0,0-.91-.381q-9.219-.033-18.438-.005a1.186,1.186,0,0,0-.772.265c-2.24,2.253-4.456,4.53-6.678,6.8a1.822,1.822,0,0,0-.143.207c.413.119.8.223,1.189.343a9.355,9.355,0,0,1,6.162,11.722.763.763,0,0,0,.235.914,12.725,12.725,0,0,1,3.973,9.24q.029,2.351.006,4.7a5,5,0,0,1-5.007,5.036q-1.223.019-2.446,0a1.264,1.264,0,1,1,.018-2.518c.773-.012,1.547.007,2.32-.005a2.484,2.484,0,0,0,2.587-2.621c-.015-2,.044-4.02-.145-6.011A9.611,9.611,0,0,0,20.9,47.185a9.658,9.658,0,0,1-15.29,0A9.469,9.469,0,0,0,2.8,52.381a39.878,39.878,0,0,0-.269,4.554c-.031.73-.013,1.463,0,2.195A2.5,2.5,0,0,0,5.047,61.7c.794.02,1.589,0,2.383.007a1.262,1.262,0,1,1,.032,2.515A22.988,22.988,0,0,1,4.088,64.1,4.832,4.832,0,0,1,.014,59.317C0,57.187-.049,55.045.142,52.929a12.048,12.048,0,0,1,3.837-7.681.759.759,0,0,0,.243-.913,9.311,9.311,0,0,1,5.853-11.618.762.762,0,0,0,.623-.876c-.033-2.256-.014-4.512-.014-6.87-.859,0-1.687.017-2.515,0A4.638,4.638,0,0,1,3.72,21.4a6.212,6.212,0,0,1-.15-1.428Q3.552,12.448,3.56,4.923A4.7,4.7,0,0,1,7.319.105,1.2,1.2,0,0,0,7.537,0Zm-13.1,47.166a9.684,9.684,0,0,0-2.932,5.857c-.187,1.927-.124,3.879-.144,5.82A2.529,2.529,0,0,0,42.38,61.7q4.639,0,9.278,0c2.236,0,4.472.007,6.708-.007a2.424,2.424,0,0,0,2.575-2.3,61.129,61.129,0,0,0-.122-6.322A9.66,9.66,0,0,0,57.9,47.186a9.647,9.647,0,0,1-15.294-.02M13.153,34.689A6.865,6.865,0,1,0,20.189,41.4a6.923,6.923,0,0,0-7.036-6.706m37.069,0a6.866,6.866,0,1,0,6.962,6.847,6.933,6.933,0,0,0-6.962-6.847" transform="translate(0)" fill="#12263f"/>
        <path id="Trazado_603772" data-name="Trazado 603772" d="M119.253,116.528H101.822c-1.069,0-1.693-.542-1.6-1.382a1.287,1.287,0,0,1,1.4-1.149c1.17-.015,2.341,0,3.511,0l31.35,0c.084,0,.167,0,.251,0,.946.014,1.528.514,1.512,1.3-.015.763-.569,1.234-1.5,1.235q-8.59.008-17.18,0h-.313Z" transform="translate(-87.617 -99.66)" fill="#12263f"/>
        <path id="Trazado_603773" data-name="Trazado 603773" d="M213.2,54.639q5.45,0,10.9,0a5.739,5.739,0,0,1,.75.026,1.2,1.2,0,0,1,1.045,1.085,1.162,1.162,0,0,1-.707,1.272,2.168,2.168,0,0,1-.853.141q-11.151.011-22.3,0a2.3,2.3,0,0,1-.794-.123,1.186,1.186,0,0,1-.737-1.369,1.159,1.159,0,0,1,1.046-1.007,5.271,5.271,0,0,1,.75-.025h10.9" transform="translate(-175.278 -47.771)" fill="#12263f"/>
        <path id="Trazado_603774" data-name="Trazado 603774" d="M103.327,54.633c.626,0,1.252-.019,1.876,0a1.253,1.253,0,0,1,.017,2.506c-1.25.032-2.5.031-3.753,0a1.256,1.256,0,1,1,.046-2.512c.6-.019,1.209,0,1.814,0v0" transform="translate(-87.606 -47.759)" fill="#12263f"/>
        <path id="Trazado_603775" data-name="Trazado 603775" d="M455.864,106.728a1.25,1.25,0,0,1,1.221,1.306,1.263,1.263,0,0,1-1.26,1.211,1.282,1.282,0,0,1-1.259-1.283,1.262,1.262,0,0,1,1.3-1.234" transform="translate(-397.433 -93.314)" fill="#12263f"/>
        <path id="Trazado_603776" data-name="Trazado 603776" d="M96.6,490.943a1.254,1.254,0,0,1,1.25,1.282,1.263,1.263,0,0,1-2.525-.026,1.253,1.253,0,0,1,1.275-1.256" transform="translate(-83.346 -429.239)" fill="#12263f"/>
      </g>
    </g>
  </g>
</svg>
