<svg xmlns="http://www.w3.org/2000/svg" width="80.681" height="80.655" viewBox="0 0 80.681 80.655">
  <g id="WUegU6" transform="translate(-1253.826 6118.252)">
    <g id="Grupo_888980" data-name="Grupo 888980" transform="translate(1253.826 -6118.252)">
      <path id="Trazado_605724" data-name="Trazado 605724" d="M1276.2-6037.6a1.84,1.84,0,0,1-.595-2.405c.948-2.722,1.838-5.464,2.752-8.2.432-1.294.734-1.509,2.114-1.509h51.3v-2.684H1286.74c-.262,0-.526.011-.787-.009a1.321,1.321,0,0,1-1.315-1.3,1.319,1.319,0,0,1,1.189-1.343,5.658,5.658,0,0,1,.864-.029h42.394v-48.312h-69.85v48.24a6.362,6.362,0,0,1,.624.215,1.242,1.242,0,0,1,.77,1.4,1.166,1.166,0,0,1-1.066,1.095,8.942,8.942,0,0,1-1.885.01,1.241,1.241,0,0,1-1.131-1.138,5.524,5.524,0,0,1-.036-.942q0-23.941,0-47.883v-1.028a3.109,3.109,0,0,1-2.683-2.067v-3.937a3.135,3.135,0,0,1,3.366-2.11c8.4.044,16.805.021,25.208.021h1.02c0-.908-.007-1.668,0-2.428a4.032,4.032,0,0,1,4.356-4.3q6.381-.013,12.762,0a4.039,4.039,0,0,1,4.36,4.377c.005.753,0,1.507,0,2.353h1.016q10.871,0,21.742,0c1.418,0,2.837-.025,4.253.021a2.6,2.6,0,0,1,2.569,2.568c.038.944.033,1.891,0,2.835a2.641,2.641,0,0,1-2,2.523l-.642.181v48.233c2.105.585,2.656,1.311,2.656,3.474q0,.709,0,1.418c0,2.276-.969,3.237-3.267,3.238h-20.862c.806,2.413,1.552,4.729,2.358,7.022a1.828,1.828,0,0,1-.6,2.4h-.945a7.641,7.641,0,0,1-.986-1.521c-.923-2.612-1.776-5.25-2.646-7.854H1295.57c0,.333,0,.617,0,.9-.017,2.175-.049,4.352-.047,6.526a2.075,2.075,0,0,1-.891,1.948h-.788a1.7,1.7,0,0,1-1.031-1.84c.04-2.2.051-4.4.073-6.606,0-.3,0-.608,0-.944H1280.8c-.113.313-.234.63-.341.95-.772,2.309-1.513,4.628-2.333,6.92a7.749,7.749,0,0,1-.986,1.521Zm-19.668-68.6h75.231v-2.56h-75.231Zm29.588-5.369h16.093c0-.784,0-1.514,0-2.245-.009-1.285-.466-1.743-1.76-1.747-2.071-.007-4.141,0-6.212,0-2.176,0-4.351-.008-6.527,0-.97,0-1.54.448-1.583,1.271C1286.084-6113.4,1286.119-6112.514,1286.119-6111.571Z" transform="translate(-1253.826 6118.253)" fill="#12263f"/>
      <path id="Trazado_605725" data-name="Trazado 605725" d="M1280.684-5777.022a9.76,9.76,0,0,1-1.841-1.066c-1.26-1.148-2.443-2.382-3.631-3.6a2.656,2.656,0,0,1,.019-3.991c1.446-1.485,2.929-2.935,4.4-4.4q6.513-6.517,13.032-13.026a6.261,6.261,0,0,1,1.442-1.065q3.642-1.944,7.323-3.815c1.823-.923,3.719-.117,4.027,1.757a3.452,3.452,0,0,1-.338,1.953c-1.274,2.585-2.629,5.131-3.974,7.682a3.993,3.993,0,0,1-.715.928q-8.706,8.722-17.423,17.433a2.92,2.92,0,0,1-2.214,1.028ZM1297.759-5797l-3.61-3.6L1281-5787.458l3.6,3.6Zm4.987-8.48-.11-.119-6.105,3.185,3.015,3.067Zm-21.911,25.422,1.729-1.608-3.669-3.665-1.693,1.643Z" transform="translate(-1271.083 5857.283)" fill="#12263f"/>
      <path id="Trazado_605726" data-name="Trazado 605726" d="M1459.745-5992.689c-2.31,0-4.621,0-6.931,0-2.088,0-3.145-1.062-3.151-3.155q-.011-4.252,0-8.5c.006-2.069,1.084-3.131,3.173-3.133q6.931-.007,13.862,0c2.065,0,3.119,1.04,3.124,3.076q.011,4.332,0,8.662a2.734,2.734,0,0,1-3.068,3.054C1464.418-5992.683,1462.081-5992.689,1459.745-5992.689Zm-7.358-3.937,5-3.47-5-3.464Zm9.731-3.466,4.955,3.427v-6.859Zm2.027,4.67c-.808-.561-1.439-1-2.077-1.439-.758-.516-1.528-1.434-2.28-1.421-.8.013-1.581.908-2.36,1.433-.631.425-1.247.874-2.033,1.427Zm-8.768-9.339c1.489,1.028,2.807,1.947,4.139,2.843a.536.536,0,0,0,.483,0c1.335-.9,2.656-1.818,4.137-2.841Z" transform="translate(-1418.751 6024.967)" fill="#12263f"/>
      <path id="Trazado_605727" data-name="Trazado 605727" d="M1604.531-5862.734c2.361,0,4.722-.006,7.083,0a2.679,2.679,0,0,1,2.964,2.9q.028,4.485,0,8.971a2.7,2.7,0,0,1-2.962,2.916q-7.123.015-14.246,0a2.7,2.7,0,0,1-2.943-2.873q-.051-4.524,0-9.049a2.693,2.693,0,0,1,2.941-2.867C1599.756-5862.741,1602.144-5862.734,1604.531-5862.734Zm-7.381,11.25c1.426-1.785,2.7-3.381,3.975-4.971.934-1.16,1.809-1.154,2.751.018,1.412,1.757,2.813,3.524,4.227,5.28.159.2.367.488.564.5,1.06.049,2.122.023,3.173.023v-4.018c-3.03.11-5.391-1.774-5.354-5.341h-9.335Zm5.346-2.377-2.533,3.167h5.063Zm9.393-6.149h-2.5a1.925,1.925,0,0,0,1.923,2.613.793.793,0,0,0,.553-.522A20.766,20.766,0,0,0,1611.89-5860.01Z" transform="translate(-1540.651 5903.063)" fill="#12263f"/>
      <path id="Trazado_605728" data-name="Trazado 605728" d="M1314.911-6007.483c2.361,0,4.723-.005,7.084,0a2.7,2.7,0,0,1,3,3.024q.011,4.367,0,8.735a2.724,2.724,0,0,1-3.011,3.03q-7.044.014-14.089,0a2.775,2.775,0,0,1-3.063-3.081q-.012-4.329,0-8.656a2.751,2.751,0,0,1,3.074-3.053C1310.241-6007.487,1312.576-6007.483,1314.911-6007.483Zm7.354,8.012a4.709,4.709,0,0,1-3.94-1.331,4.826,4.826,0,0,1-1.362-3.937h-9.4v8.451c.264-.307.43-.49.584-.683,1.115-1.392,2.224-2.79,3.343-4.18,1-1.243,1.849-1.235,2.853.019,1.394,1.74,2.778,3.489,4.185,5.219a1.264,1.264,0,0,0,.722.506c.987.059,1.98.024,3.015.024Zm-6.791,4.063-2.567-3.2-2.561,3.2Zm6.836-9.392h-1.51c-1.185,0-1.482.5-.937,1.582a1.9,1.9,0,0,0,1.935,1.066.757.757,0,0,0,.489-.513C1322.346-6003.337,1322.31-6004.018,1322.31-6004.8Z" transform="translate(-1296.776 6024.967)" fill="#12263f"/>
      <path id="Trazado_605729" data-name="Trazado 605729" d="M1604.535-6007.484c2.361,0,4.722-.006,7.083,0a2.687,2.687,0,0,1,2.981,2.963q.022,4.446,0,8.892a2.693,2.693,0,0,1-2.947,2.933q-7.123.02-14.245,0a2.721,2.721,0,0,1-2.961-2.939q-.04-4.445,0-8.891a2.716,2.716,0,0,1,3.009-2.958C1599.813-6007.489,1602.174-6007.484,1604.535-6007.484Zm7.315,12.062v-9.324h-3.027a4.682,4.682,0,0,1-1.536,5.744,4.533,4.533,0,0,1-5.171.215c-2.248-1.435-2.686-3.52-1.887-5.974H1597.2v9.338Zm-7.426-5.36a2.055,2.055,0,0,0,2.106-1.9,2.06,2.06,0,0,0-1.89-2.115,2.045,2.045,0,0,0-2.1,1.9A2.029,2.029,0,0,0,1604.424-6000.782Z" transform="translate(-1540.671 6024.968)" fill="#12263f"/>
      <path id="Trazado_605730" data-name="Trazado 605730" d="M1464.3-5850.826c-1.291-.892-2.575-1.8-3.884-2.661a.856.856,0,0,0-.679.021,7.287,7.287,0,0,0-.785.518,1.342,1.342,0,0,1-1.836-.256,1.379,1.379,0,0,1,.2-1.846c.089-.094.188-.178.369-.347l-4.925-3.421c-.038.4-.056.7-.1.994a1.285,1.285,0,0,1-1.256,1.182c-.67-.009-1.252-.321-1.293-1.015a13.933,13.933,0,0,1,.095-3.271,2.454,2.454,0,0,1,2.56-1.823q7.319-.037,14.638,0a2.636,2.636,0,0,1,2.752,2.8q.029,4.6,0,9.207a2.621,2.621,0,0,1-2.709,2.758c-3.646.033-7.293.02-10.939.007-.995,0-1.6-.558-1.58-1.373s.61-1.3,1.633-1.3c2.309-.009,4.617,0,6.926,0h.764Zm3.124-1.107v-6.874l-4.957,3.438Zm-2.96-8.1h-8.735c1.468,1.014,2.767,1.926,4.088,2.8a.681.681,0,0,0,.609-.028C1461.732-5858.124,1463.015-5859.025,1464.466-5860.029Z" transform="translate(-1419.095 5903.093)" fill="#12263f"/>
      <path id="Trazado_605731" data-name="Trazado 605731" d="M1322.263-5860.022h-14.745v9.383h.886c1.5,0,2.993-.013,4.49.009a1.341,1.341,0,0,1,1.433,1.27,1.3,1.3,0,0,1-1.247,1.369c-1.993.045-3.993.083-5.982-.033a2.5,2.5,0,0,1-2.3-2.584c-.042-3.176-.05-6.353.006-9.528a2.6,2.6,0,0,1,2.713-2.6q7.365-.03,14.73,0a2.621,2.621,0,0,1,2.689,2.7c.026,1.338.019,2.678,0,4.016-.01.957-.521,1.527-1.323,1.53a1.359,1.359,0,0,1-1.351-1.519C1322.245-5857.326,1322.263-5858.637,1322.263-5860.022Z" transform="translate(-1296.728 5903.08)" fill="#12263f"/>
      <path id="Trazado_605732" data-name="Trazado 605732" d="M1604.792-5751.968q4.091,0,8.182,0a3.417,3.417,0,0,1,.783.045,1.242,1.242,0,0,1,1.044,1.21,1.231,1.231,0,0,1-.963,1.348,3.045,3.045,0,0,1-.856.074q-8.222.006-16.443,0a3.563,3.563,0,0,1-.782-.049,1.285,1.285,0,0,1-1.063-1.289,1.3,1.3,0,0,1,1.131-1.31,4.879,4.879,0,0,1,.784-.032Q1600.7-5751.97,1604.792-5751.968Z" transform="translate(-1540.895 5809.776)" fill="#12263f"/>
      <path id="Trazado_605733" data-name="Trazado 605733" d="M1459.953-5896.757c2.78,0,5.561-.025,8.34.024a2.175,2.175,0,0,1,1.377.54,1.23,1.23,0,0,1-.551,1.983,3.033,3.033,0,0,1-1,.131q-8.222.011-16.444.005c-.1,0-.21,0-.315,0-.934-.043-1.531-.576-1.524-1.357a1.366,1.366,0,0,1,1.544-1.321C1454.236-5896.764,1457.094-5896.757,1459.953-5896.757Z" transform="translate(-1418.899 5931.72)" fill="#12263f"/>
      <path id="Trazado_605734" data-name="Trazado 605734" d="M1315.076-5896.729q4.052,0,8.1,0a6.1,6.1,0,0,1,.707.019,1.3,1.3,0,0,1,1.207,1.231,1.258,1.258,0,0,1-1.045,1.368,3.511,3.511,0,0,1-.858.063q-8.143.005-16.287,0c-.183,0-.368.009-.551-.007a1.392,1.392,0,0,1-1.39-1.337,1.353,1.353,0,0,1,1.458-1.332c2.885-.016,5.77-.006,8.655-.006Z" transform="translate(-1296.893 5931.691)" fill="#12263f"/>
      <path id="Trazado_605735" data-name="Trazado 605735" d="M1604.837-5896.735q4.052,0,8.1,0a3.853,3.853,0,0,1,.861.046,1.229,1.229,0,0,1,1.025,1.142,1.207,1.207,0,0,1-.827,1.359,2.739,2.739,0,0,1-.924.13q-8.3.011-16.6,0a3,3,0,0,1-.7-.062,1.271,1.271,0,0,1-1.039-1.373,1.276,1.276,0,0,1,1.213-1.229,5.594,5.594,0,0,1,.707-.018Z" transform="translate(-1540.925 5931.697)" fill="#12263f"/>
      <path id="Trazado_605736" data-name="Trazado 605736" d="M1476.391-5752.008c2.336,0,4.671,0,7.006,0,1.085,0,1.679.481,1.684,1.331s-.593,1.348-1.67,1.349q-7.046.007-14.091,0c-.655,0-1.27-.164-1.466-.813a1.566,1.566,0,0,1,.168-1.294,2.075,2.075,0,0,1,1.364-.554C1471.72-5752.037,1474.056-5752.008,1476.391-5752.008Z" transform="translate(-1434.021 5809.817)" fill="#12263f"/>
      <path id="Trazado_605737" data-name="Trazado 605737" d="M1307.118-5749.354a8.568,8.568,0,0,1-.86,0,1.372,1.372,0,0,1-1.3-1.33,1.354,1.354,0,0,1,1.3-1.322,11.442,11.442,0,0,1,1.487-.006,1.345,1.345,0,0,1,1.366,1.331,1.363,1.363,0,0,1-1.369,1.335c-.208.017-.417,0-.626,0Z" transform="translate(-1296.891 5809.834)" fill="#12263f"/>
    </g>
  </g>
</svg>
