<svg xmlns="http://www.w3.org/2000/svg" width="84.229" height="81.286" viewBox="0 0 84.229 81.286">
  <g id="LsrFKT" transform="translate(-1498.917 5463.154)">
    <g id="Grupo_888979" data-name="Grupo 888979" transform="translate(1498.917 -5463.154)">
      <path id="Trazado_605718" data-name="Trazado 605718" d="M1583.146-5443.229q-9.191,11.944-18.366,23.9a2.233,2.233,0,0,0-.368,1.276q-.029,16.9-.016,33.8c0,1.917-.464,2.381-2.372,2.383h-60.775c-1.841,0-2.32-.485-2.32-2.354q0-29.4-.013-58.8a3.043,3.043,0,0,1,.955-2.333q8.456-8.41,16.867-16.862a2.953,2.953,0,0,1,2.257-.935q21.588.029,43.176.015c1.693,0,2.224.525,2.225,2.2q0,6.785,0,13.569v.982c.3-.353.493-.565.668-.792,1.407-1.822,2.8-3.652,4.219-5.467.9-1.151,1.723-1.261,2.872-.379q5.022,3.854,10.023,7.735a8.014,8.014,0,0,1,.966,1.074Zm-22.056,28.662c-1.6,2.071-3.014,3.987-4.529,5.823a3.513,3.513,0,0,1-1.713,1.127c-3.128.8-6.281,1.5-9.429,2.226-1.619.372-2.41-.211-2.469-1.875-.112-3.205-.168-6.413-.288-9.617a3.187,3.187,0,0,1,.736-2.185q8.648-11.188,17.249-22.411a2.355,2.355,0,0,0,.455-1.326c.031-5.4.021-10.8.018-16.2,0-.267-.025-.533-.039-.811H1519.99v.951q0,7.28,0,14.557c0,1.681-.538,2.221-2.213,2.223q-7.319,0-14.638,0h-.879v56.892h58.831Zm18.138-28.893-2.761-2.126-24.551,31.876c.947.729,1.828,1.406,2.755,2.121C1562.877-5422.241,1571.035-5432.827,1579.228-5443.46Zm-29.9,27.76,24.552-31.877-2.754-2.121c-8.206,10.65-16.36,21.234-24.557,31.875Zm-32.633-41.492-11.769,11.767H1516.7Zm34.557,47.092-5.144-3.951v5.143Z" transform="translate(-1498.917 5463.154)" fill="#12263f"/>
      <path id="Trazado_605719" data-name="Trazado 605719" d="M1587.493-5316.065a8.13,8.13,0,0,1,3.9-6.818,7.946,7.946,0,0,1,8.493-.459,8.043,8.043,0,0,1,4.678,7.78,8.185,8.185,0,0,1-5.923,7.926c-.561.2-.615.481-.567.966.367,3.677.706,7.359,1.085,11.036.158,1.531-.281,2.4-1.377,2.54-1.073.134-1.717-.63-1.865-2.171-.368-3.815-.758-7.63-1.108-11.446-.045-.5-.265-.616-.688-.727C1590.116-5308.481,1587.622-5311.607,1587.493-5316.065Zm8.45,5.592a5.312,5.312,0,0,0,5.4-5.152,5.36,5.36,0,0,0-5.239-5.419,5.317,5.317,0,0,0-5.341,5.219A5.279,5.279,0,0,0,1595.944-5310.473Z" transform="translate(-1572.896 5347.232)" fill="#12263f"/>
      <path id="Trazado_605720" data-name="Trazado 605720" d="M1681.343-5133.49a5.911,5.911,0,0,1-.9-.345q-5.6-3.089-11.188-6.2c-.67-.37-1.239-.892-1.087-1.662a2.191,2.191,0,0,1,.97-1.357,1.877,1.877,0,0,1,1.527.1c3.845,2.082,7.663,4.213,11.477,6.353a1.59,1.59,0,0,1,.88,1.923A1.6,1.6,0,0,1,1681.343-5133.49Z" transform="translate(-1640.253 5195.906)" fill="#12263f"/>
      <path id="Trazado_605721" data-name="Trazado 605721" d="M1631.771-5117.9c-.192.8-.444,1.866-.7,2.928q-.915,3.828-1.832,7.654c-.285,1.182-1.079,1.765-2.032,1.518-.986-.254-1.409-1.083-1.129-2.268q1.189-5.026,2.4-10.048a4.174,4.174,0,0,1,.26-.774,1.586,1.586,0,0,1,1.821-.917A1.721,1.721,0,0,1,1631.771-5117.9Z" transform="translate(-1605.052 5176.427)" fill="#12263f"/>
      <path id="Trazado_605722" data-name="Trazado 605722" d="M1674.251-5249.855a5.152,5.152,0,0,1-.581.962q-3.25,3.706-6.542,7.375a1.673,1.673,0,0,1-2.459.385,1.66,1.66,0,0,1,.022-2.539c2.19-2.487,4.4-4.956,6.6-7.434a1.67,1.67,0,0,1,1.983-.569C1673.946-5251.406,1674.283-5250.862,1674.251-5249.855Z" transform="translate(-1636.871 5286.636)" fill="#12263f"/>
      <path id="Trazado_605723" data-name="Trazado 605723" d="M1558.615-5198.438c-1.286,0-2.572.012-3.858-.008a3.386,3.386,0,0,1-1.124-.175,1.551,1.551,0,0,1-.9-1.75,1.483,1.483,0,0,1,1.474-1.295q4.431-.045,8.863,0a1.516,1.516,0,0,1,1.526,1.519,1.558,1.558,0,0,1-1.388,1.648,1.9,1.9,0,0,1-.323.052c-1.422,0-2.845,0-4.268,0Z" transform="translate(-1543.842 5244.782)" fill="#12263f"/>
    </g>
  </g>
</svg>
