<svg xmlns="http://www.w3.org/2000/svg" xmlns:xlink="http://www.w3.org/1999/xlink" width="126" height="126" viewBox="0 0 126 126">
  <defs>
    <filter id="Elipse_8126" x="0" y="0" width="126" height="126" filterUnits="userSpaceOnUse">
      <feOffset dy="3" input="SourceAlpha"/>
      <feGaussianBlur stdDeviation="3" result="blur"/>
      <feFlood flood-opacity="0.161"/>
      <feComposite operator="in" in2="blur"/>
      <feComposite in="SourceGraphic"/>
    </filter>
    <clipPath id="clip-path">
      <rect id="Rectángulo_299258" data-name="Rectángulo 299258" width="74.953" height="74.906" fill="#1565c0"/>
    </clipPath>
  </defs>
  <g id="Grupo_889651" data-name="Grupo 889651" transform="translate(-199.61 -11849.273)">
    <g transform="matrix(1, 0, 0, 1, 199.61, 11849.27)" filter="url(#Elipse_8126)">
      <circle id="Elipse_8126-2" data-name="Elipse 8126" cx="54" cy="54" r="54" transform="translate(9 6)" fill="#fff"/>
    </g>
    <g id="Grupo_888410" data-name="Grupo 888410" transform="translate(228.084 11871.598)">
      <g id="Grupo_888409" data-name="Grupo 888409" clip-path="url(#clip-path)">
        <path id="Trazado_604242" data-name="Trazado 604242" d="M0,27.927c.116-.26.222-.525.35-.779A3.592,3.592,0,0,1,3.5,25c.873-.048,1.751-.009,2.757-.009,0-.4,0-.724,0-1.052a3.731,3.731,0,0,1,3.922-3.97c.843-.023,1.688,0,2.722,0-3.16-2.868-4.565-6.255-4.023-10.32a10.838,10.838,0,0,1,4.263-7.326A11.292,11.292,0,0,1,29.979,6.031,11.206,11.206,0,0,1,39.922.007a11.026,11.026,0,0,1,7.545,2.85,11.357,11.357,0,0,1-.367,17.1c.867,0,1.611,0,2.355,0,2.767.011,4.256,1.494,4.261,4.241,0,1.048,0,2.1,0,3.2h2.449c.027-.146.059-.306.088-.467a3.7,3.7,0,0,1,3.69-3.225c3.756-.047,7.513-.053,11.269,0a3.679,3.679,0,0,1,3.724,3.807q.036,8.67,0,17.34a3.7,3.7,0,0,1-3.794,3.817q-5.561.075-11.123,0c-2.135-.026-3.407-1.3-3.856-3.7H53.716c0,.327-.014.637,0,.944.284,5.452-.921,6.727-6.537,6.53-4.166-.146-8.341-.029-12.512-.029h-.9v2.5c.7,0,1.372-.005,2.045,0,1.959.018,2.9.965,2.914,2.935.008,1.414.014,2.829,0,4.244a2.458,2.458,0,0,1-2.085,2.749c-.449.12-.418.383-.417.7q0,4.244,0,8.487c0,.29-.04.579-.062.869H33.667q.013-4.893.022-9.785c0-.04-.042-.08-.069-.128h-2.4c0,.375,0,.688,0,1q-.019,4.456-.038,8.912H28.69V64.991H26.2v9.915H23.713V65c-2.054-.642-2.484-1.227-2.484-3.328,0-1.291,0-2.583,0-3.874a2.561,2.561,0,0,1,2.822-2.874c.7-.012,1.4,0,2.11,0v-2.5h-.925q-7.42,0-14.84,0A3.756,3.756,0,0,1,6.261,48.3c0-.279,0-.559,0-.9-1.006,0-1.882.023-2.756-.006A3.317,3.317,0,0,1,.918,46.086,12.083,12.083,0,0,1,0,44.465V27.927M29.945,49.917q9.731,0,19.463,0c1.439,0,1.813-.377,1.813-1.822q0-11.888,0-23.775c0-1.488-.366-1.857-1.854-1.857q-19.389,0-38.779,0c-1.505,0-1.829.332-1.829,1.861q0,11.851,0,23.7c0,1.573.314,1.891,1.87,1.891H29.945M58.7,36.173q0,4.17,0,8.339c0,1.228.448,1.679,1.678,1.682q5.195.009,10.389,0c1.231,0,1.678-.453,1.679-1.681q0-8.3,0-16.605c0-1.28-.433-1.714-1.715-1.715q-5.158-.006-10.316,0c-1.283,0-1.715.435-1.716,1.715q-.005,4.133,0,8.266M39.941,19.948a8.74,8.74,0,1,0-8.717-8.784,8.765,8.765,0,0,0,8.717,8.784m-19.983,0a8.74,8.74,0,1,0-8.7-8.786,8.723,8.723,0,0,0,8.7,8.786M6.211,44.922V27.464c-.7,0-1.358,0-2.013,0-1.3.006-1.7.408-1.7,1.7q0,5.191,0,10.382c0,1.316-.015,2.632.006,3.948a1.274,1.274,0,0,0,1.4,1.421c.753.019,1.507,0,2.316,0m17.551,12.55v4.956h2.426c3.116,0,6.232.007,9.348-.015.225,0,.641-.2.645-.32.044-1.524.029-3.051.029-4.621ZM56.169,30.008H53.756V42.393h2.413ZM32.652,19.9l-2.673-3.326L27.306,19.9ZM28.775,54.876h2.386V52.463H28.775Z" transform="translate(0 0)" fill="#1565c0"/>
        <path id="Trazado_604243" data-name="Trazado 604243" d="M152.173,276.016c0,.438.017.877,0,1.315a2.413,2.413,0,0,1-2.359,2.4c-.9.039-1.8.037-2.7,0a2.433,2.433,0,0,1-2.4-2.371c-.044-.874-.038-1.754,0-2.629a2.491,2.491,0,0,1,2.484-2.462c.827-.03,1.657-.028,2.484,0a2.476,2.476,0,0,1,2.5,2.5c.015.414,0,.828,0,1.242h0m-2.531-1.21h-2.4v2.387h2.4Z" transform="translate(-123.463 -232.331)" fill="#1565c0"/>
        <path id="Trazado_604244" data-name="Trazado 604244" d="M80.434,279.714c-.463,0-.927.023-1.388,0a2.411,2.411,0,0,1-2.337-2.346c-.035-.9-.033-1.8,0-2.7a2.44,2.44,0,0,1,2.368-2.406c.9-.045,1.8-.045,2.7,0a2.474,2.474,0,0,1,2.391,2.471c.026.8.019,1.607,0,2.41a2.48,2.48,0,0,1-2.57,2.586c-.389.012-.779,0-1.169,0v-.011m-1.2-2.54H81.62v-2.422H79.238Z" transform="translate(-65.44 -232.307)" fill="#1565c0"/>
        <rect id="Rectángulo_299255" data-name="Rectángulo 299255" width="2.409" height="2.42" transform="translate(11.303 25.011)" fill="#1565c0"/>
        <rect id="Rectángulo_299256" data-name="Rectángulo 299256" width="2.402" height="2.392" transform="translate(16.296 25.012)" fill="#1565c0"/>
        <rect id="Rectángulo_299257" data-name="Rectángulo 299257" width="2.398" height="2.404" transform="translate(21.267 25.006)" fill="#1565c0"/>
        <path id="Trazado_604245" data-name="Trazado 604245" d="M250.9,58.395a3.71,3.71,0,0,1-3.735-3.7,3.737,3.737,0,1,1,3.735,3.7m1.221-3.751a1.246,1.246,0,0,0-1.216-1.208,1.229,1.229,0,0,0-1.227,1.261,1.2,1.2,0,0,0,1.28,1.192,1.216,1.216,0,0,0,1.164-1.245" transform="translate(-210.921 -43.457)" fill="#1565c0"/>
        <path id="Trazado_604246" data-name="Trazado 604246" d="M118.28,54.661a3.735,3.735,0,1,1-7.47-.025,3.735,3.735,0,0,1,7.47.025m-3.732,1.227A1.234,1.234,0,0,0,115.78,54.7a1.267,1.267,0,0,0-1.233-1.276,1.282,1.282,0,0,0-1.236,1.277,1.24,1.24,0,0,0,1.237,1.185" transform="translate(-94.562 -43.453)" fill="#1565c0"/>
      </g>
    </g>
  </g>
</svg>
