<svg xmlns="http://www.w3.org/2000/svg" xmlns:xlink="http://www.w3.org/1999/xlink" width="126" height="126" viewBox="0 0 126 126">
  <defs>
    <filter id="Elipse_8125" x="0" y="0" width="126" height="126" filterUnits="userSpaceOnUse">
      <feOffset dy="3" input="SourceAlpha"/>
      <feGaussianBlur stdDeviation="3" result="blur"/>
      <feFlood flood-opacity="0.161"/>
      <feComposite operator="in" in2="blur"/>
      <feComposite in="SourceGraphic"/>
    </filter>
    <clipPath id="clip-path">
      <rect id="Rectángulo_299259" data-name="Rectángulo 299259" width="74.754" height="54.206" fill="#1565c0"/>
    </clipPath>
  </defs>
  <g id="Grupo_889652" data-name="Grupo 889652" transform="translate(-801.611 -11849.273)">
    <g transform="matrix(1, 0, 0, 1, 801.61, 11849.27)" filter="url(#Elipse_8125)">
      <circle id="Elipse_8125-2" data-name="Elipse 8125" cx="54" cy="54" r="54" transform="translate(9 6)" fill="#fff"/>
    </g>
    <g id="Grupo_888412" data-name="Grupo 888412" transform="translate(830.582 11881.825)">
      <g id="Grupo_888411" data-name="Grupo 888411" clip-path="url(#clip-path)">
        <path id="Trazado_604247" data-name="Trazado 604247" d="M57.428,0A3.866,3.866,0,0,1,60.2,2.875a5.244,5.244,0,0,1,.086,1.045q.007,13.47,0,26.941a3.206,3.206,0,0,1-.019.6,1.2,1.2,0,0,1-2.372,0,4.288,4.288,0,0,1-.019-.751q0-13.282,0-26.565c0-1.386-.349-1.736-1.728-1.736H4.188c-1.4,0-1.75.343-1.75,1.713q0,18.776,0,37.552c0,1.324.364,1.683,1.705,1.683h32.61a5.032,5.032,0,0,1,.752.015,1.16,1.16,0,0,1,1.079,1.155A1.184,1.184,0,0,1,37.5,45.752a5.528,5.528,0,0,1-.677.013H4.135c-2.7,0-4.108-1.419-4.108-4.143,0-12.367.029-24.734-.027-37.1C-.01,2.286.743.754,2.89,0Z" transform="translate(0)" fill="#1565c0"/>
        <path id="Trazado_604248" data-name="Trazado 604248" d="M305.459,235.386a1.883,1.883,0,0,1-1.746.767c-2.6-.037-5.208-.014-7.9-.014,0,.426.016.794,0,1.161a1.184,1.184,0,0,1-1.232,1.239q-1.768.039-3.537,0a1.194,1.194,0,0,1-1.248-1.3c-.013-.344,0-.689,0-1.1H273.478a3.606,3.606,0,0,1-.75-.026,1.193,1.193,0,0,1,0-2.356,3.887,3.887,0,0,1,.75-.025h16.31c0-.416-.011-.76,0-1.1a1.207,1.207,0,0,1,1.325-1.3c1.078-.018,2.158-.011,3.236,0,1.028.008,1.446.436,1.461,1.472,0,.275,0,.549,0,.934h.822c2.358,0,4.717.024,7.075-.014a1.869,1.869,0,0,1,1.745.767Zm-12.109-1.618h-1.105v2.344h1.105Z" transform="translate(-230.705 -196.395)" fill="#1565c0"/>
        <path id="Trazado_604249" data-name="Trazado 604249" d="M305.459,315.165a1.883,1.883,0,0,1-1.746.767c-2.6-.036-5.208-.014-7.9-.014,0,.426.016.794,0,1.161a1.184,1.184,0,0,1-1.232,1.239q-1.768.04-3.537,0a1.194,1.194,0,0,1-1.248-1.3c-.013-.344,0-.688,0-1.1H273.478a3.62,3.62,0,0,1-.75-.026,1.193,1.193,0,0,1,0-2.356,3.866,3.866,0,0,1,.75-.025h16.31c0-.416-.011-.76,0-1.1a1.207,1.207,0,0,1,1.325-1.3c1.078-.018,2.158-.012,3.236,0,1.028.008,1.446.436,1.461,1.472,0,.275,0,.549,0,.934h.822c2.358,0,4.717.024,7.075-.014a1.869,1.869,0,0,1,1.745.767Zm-12.105-1.623h-1.113v2.344h1.113Z" transform="translate(-230.705 -264.13)" fill="#1565c0"/>
        <path id="Trazado_604250" data-name="Trazado 604250" d="M468.1,288.663a1.774,1.774,0,0,1-1.743.763c-.6-.05-1.2.005-1.8-.016a1.2,1.2,0,1,1,0-2.4,11.812,11.812,0,0,1,2.249.028,4.429,4.429,0,0,1,1.3.719Z" transform="translate(-393.345 -243.65)" fill="#1565c0"/>
        <path id="Trazado_604251" data-name="Trazado 604251" d="M149.615,90.637A10.845,10.845,0,1,1,138.743,79.79a10.857,10.857,0,0,1,10.872,10.847m-2.41-.006a8.435,8.435,0,1,0-8.493,8.425,8.439,8.439,0,0,0,8.493-8.425" transform="translate(-108.613 -67.745)" fill="#1565c0"/>
        <path id="Trazado_604252" data-name="Trazado 604252" d="M281.307,276.029h-7.829c-1.233,0-1.8-.378-1.807-1.2s.57-1.21,1.794-1.21h7.843c0-.386-.009-.727,0-1.067a1.221,1.221,0,0,1,1.365-1.338c1.079-.015,2.158-.012,3.237,0,.979.01,1.4.447,1.421,1.437.005.3,0,.591,0,.969h.863q4.818,0,9.637,0c1,0,1.566.461,1.546,1.232-.019.744-.569,1.173-1.53,1.174q-4.818,0-9.637,0h-.881c0,.415.012.76,0,1.1a1.212,1.212,0,0,1-1.328,1.3c-1.079.018-2.158.012-3.237,0-1.024-.008-1.443-.44-1.457-1.477,0-.274,0-.548,0-.93m2.459-.057h1.121v-2.316h-1.121Z" transform="translate(-230.659 -230.263)" fill="#1565c0"/>
        <path id="Trazado_604253" data-name="Trazado 604253" d="M38.174,257.691c-1.506,0-3.013,0-4.519,0-.95,0-1.5-.452-1.5-1.2s.549-1.2,1.5-1.2q4.519-.006,9.038,0c.951,0,1.5.451,1.5,1.2s-.553,1.2-1.5,1.2c-1.506.006-3.013,0-4.519,0" transform="translate(-27.3 -216.743)" fill="#1565c0"/>
        <path id="Trazado_604254" data-name="Trazado 604254" d="M121.718,257.62a5.77,5.77,0,0,1-.6,0,1.2,1.2,0,0,1-1.141-1.178,1.18,1.18,0,0,1,1.107-1.205,8.567,8.567,0,0,1,1.354,0,1.184,1.184,0,0,1,1.142,1.174,1.2,1.2,0,0,1-1.108,1.209,7.137,7.137,0,0,1-.752.005" transform="translate(-101.863 -216.679)" fill="#1565c0"/>
        <path id="Trazado_604255" data-name="Trazado 604255" d="M175.805,117.77c0-1.5-.008-3.008,0-4.512.01-1.337.91-1.852,2.06-1.165q3.775,2.255,7.53,4.544a1.229,1.229,0,0,1,.022,2.3q-3.784,2.312-7.6,4.581c-1.1.657-2.005.127-2.016-1.163-.012-1.529,0-3.058,0-4.587m6.853.023-4.4-2.653v5.315l4.4-2.662" transform="translate(-149.262 -94.912)" fill="#1565c0"/>
      </g>
    </g>
  </g>
</svg>
