<svg xmlns="http://www.w3.org/2000/svg" xmlns:xlink="http://www.w3.org/1999/xlink" width="205.962" height="176.901" viewBox="0 0 205.962 176.901">
  <defs>
    <clipPath id="clip-path">
      <rect id="Rectángulo_299355" data-name="Rectángulo 299355" width="121.488" height="123.733" fill="none"/>
    </clipPath>
  </defs>
  <g id="Grupo_885889" data-name="Grupo 885889" transform="translate(44.926 44.403)">
    <rect id="Rectángulo_49533" data-name="Rectángulo 49533" width="144.8" height="111.233" transform="translate(16.236 21.265)" fill="#ffde96"/>
    <g id="Grupo_169217" data-name="Grupo 169217" transform="translate(-44.926 -44.403)">
      <rect id="Rectángulo_49754" data-name="Rectángulo 49754" width="166.13" height="153.889" transform="translate(0 0)" fill="none"/>
      <g id="Grupo_888480" data-name="Grupo 888480" transform="translate(44.962 20.76)">
        <g id="Grupo_888479" data-name="Grupo 888479" clip-path="url(#clip-path)">
          <path id="Trazado_604653" data-name="Trazado 604653" d="M36.832,0c2.035,1.106,4.127,2.119,6.094,3.334,5.99,3.7,11.931,7.483,17.894,11.228,5,3.142,8.281,7.543,9.127,13.419a32.1,32.1,0,0,1-.08,7.807,92.619,92.619,0,0,0-.392,17.477c.024.281.044.563.042.844-.009,1.207-.593,1.934-1.617,2.028a1.814,1.814,0,0,1-2.01-1.794,29.88,29.88,0,0,1-.287-4.335c.219-5.425.354-10.862.855-16.264.634-6.824-1.584-12.193-7.38-15.906C52.066,13.344,44.991,8.947,37.935,4.52c-2.069-1.3-4.115-1.012-5.351.7a3.911,3.911,0,0,0,.892,5.558c4.046,3.382,8.052,6.815,12.166,10.113,5.255,4.212,6.982,9.645,5.845,16.118q-.688,3.915-1.635,7.783a4.839,4.839,0,0,1-9.368.388,83.635,83.635,0,0,0-6.715-14.935,18.065,18.065,0,0,0-5.5-5.822c-6.038-4.075-12.011-8.247-18.027-12.354-2.668-1.822-5.569-.84-6.392,2.147A4.173,4.173,0,0,0,5.2,18.471q2.781,2.772,5.555,5.551a5.468,5.468,0,0,1,.857,1.006,1.642,1.642,0,0,1-.26,2.108,1.7,1.7,0,0,1-2.2.32,2.138,2.138,0,0,1-.482-.36c-2.274-2.282-4.622-4.5-6.792-6.873a7.678,7.678,0,0,1,.017-10.076,7.543,7.543,0,0,1,9.529-1.655c.6.332,1.162.721,1.725,1.108,5.176,3.554,10.24,7.286,15.555,10.619A27.445,27.445,0,0,1,39.249,32.61c1.555,3.439,2.918,6.966,4.364,10.455a4.864,4.864,0,0,0,.509,1.216,1.574,1.574,0,0,0,1.045.62,1.3,1.3,0,0,0,.992-.681,35.213,35.213,0,0,0,1.878-12.455,10.035,10.035,0,0,0-3.8-7.167Q37.783,19.139,31.277,13.74a7.719,7.719,0,0,1-3.153-5.979A7.592,7.592,0,0,1,33.76.24c.224-.062.438-.159.656-.24Z" transform="translate(0)"/>
          <path id="Trazado_604654" data-name="Trazado 604654" d="M96.461,192.272a40.455,40.455,0,0,0,11.27-1.8c3.822-1.228,7.033-.241,9.245,2.714a10.545,10.545,0,0,1,1.649,5.227c.149,1.157.279,2.318.5,3.463a9.617,9.617,0,0,0,19.05-1.672,12.13,12.13,0,0,0-6.839-11.474c-1.27-.692-2.6-1.3-3.79-2.11a6.675,6.675,0,0,1-1.2-9.869,23.965,23.965,0,0,1,9.041-6.077c2.217-.854,4.095-.088,5.927,1.3,4.138,3.126,8.368,6.129,12.565,9.176a6.137,6.137,0,0,0,.938.543,1.9,1.9,0,0,0,2.421-.413,1.845,1.845,0,0,0,.167-2.535,48.5,48.5,0,0,0-3.3-4.166c-3.241-3.469-6.518-6.909-9.878-10.263a8.879,8.879,0,0,0-8.479-2.317c-3.585.714-7.146,1.678-10.768,2.054-7.669.8-15.669-4.97-17.642-12.4-.342-1.289.065-2.27,1.074-2.594a1.845,1.845,0,0,1,2.442,1.525,13.835,13.835,0,0,0,17.081,9.4c2.416-.61,4.857-1.134,7.3-1.612a12.606,12.606,0,0,1,11.412,3.154A107.6,107.6,0,0,1,160.1,176.181a5.665,5.665,0,0,1-.082,7.511,5.5,5.5,0,0,1-7.534.881c-4.532-3.128-8.977-6.385-13.387-9.683-1.1-.826-2.08-1.215-3.269-.437-2.148,1.4-4.372,2.72-6.369,4.318-1.872,1.5-1.36,4.023.81,5.295a47.445,47.445,0,0,1,6.235,3.857c6.273,5.137,7.2,15.139,1.962,20.872a13.3,13.3,0,0,1-22.973-6.4c-.33-1.613-.49-3.261-.717-4.894-.411-2.965-2.727-4.544-5.57-3.636-11.468,3.664-22.643,2.4-33.4-2.428-7.693-3.449-12.694-9.593-15.151-17.686-.687-2.263-1.127-4.606-1.6-6.928a5.188,5.188,0,0,1,3.082-5.921,5.11,5.11,0,0,1,6.408,1.847c1.506,2.232,2.973,4.506,4.25,6.874a13.724,13.724,0,0,0,10.158,7.555,17.556,17.556,0,0,0,2.119.449,8.272,8.272,0,0,0,1.853-.328,5.461,5.461,0,0,0-.369-1.746c-2.724-4.464-5.7-8.786-8.226-13.355q-7.246-13.086-14.068-26.4a46.017,46.017,0,0,0-9.476-12.994,20.22,20.22,0,0,1-1.443-1.461,1.819,1.819,0,0,1-.041-2.606,1.777,1.777,0,0,1,2.6.044,63.321,63.321,0,0,1,5.724,6.044,55.975,55.975,0,0,1,5.251,8.21C73.06,145,79.189,157,86.319,168.455c1.3,2.082,2.766,4.066,3.945,6.211a4.658,4.658,0,0,1-2.97,6.619,2.758,2.758,0,0,1-.947.152c-6.464-.6-12.205-2.565-15.814-8.49q-2.228-3.659-4.459-7.316c-.188-.308-.357-.729-.642-.854-.576-.254-1.344-.618-1.813-.419a1.939,1.939,0,0,0-.94,1.578c1.455,10.727,6.317,19.465,17.8,23.493a49.638,49.638,0,0,0,15.976,2.843" transform="translate(-39.996 -89.567)"/>
          <path id="Trazado_604655" data-name="Trazado 604655" d="M19.132,434.343q-6.283,0-12.566,0c-2.519,0-3.173-.886-2.47-3.318q2.226-7.705,4.454-15.41c.527-1.822.955-2.166,2.791-2.168q7.793-.009,15.586,0c1.78,0,2.282.375,2.768,2.051q2.3,7.935,4.579,15.876c.563,1.967-.162,2.952-2.214,2.962-4.309.022-8.619.007-12.928.007M8.037,430.629c4.371,0,8.546.018,12.72-.039.3,0,.752-.516.86-.875,1.088-3.611,2.119-7.24,3.166-10.864.15-.518.3-1.036.487-1.692-4.364,0-8.539-.013-12.714.029a1.116,1.116,0,0,0-.808.65c-1.246,4.188-2.445,8.39-3.713,12.792m19.695-8.7-2.491,8.626h4.97l-2.479-8.626" transform="translate(-2.903 -313.332)"/>
          <path id="Trazado_604656" data-name="Trazado 604656" d="M359.315,102.855c-3.662,0-7.325.006-10.987,0-2.295-.005-3-.93-2.375-3.118q1.956-6.837,3.934-13.666c.442-1.524.986-1.941,2.608-1.946q6.882-.021,13.764,0c1.564,0,2.06.386,2.5,1.9q2.029,6.941,4.027,13.891c.55,1.922-.224,2.932-2.245,2.942-3.743.018-7.486.005-11.228.005m9.423-3.692c-1.023-3.558-2.023-6.929-2.946-10.322-.224-.825-.607-1.043-1.423-1.03-2.972.048-5.945.016-8.918.023-.337,0-.674.058-1.13.1,1.045,3.638,2.033,7.145,3.089,10.631a1.268,1.268,0,0,0,.981.57c1.564.061,3.133.027,4.7.027h5.648M353.7,99.069l-1.749-6.051-.238.018-1.754,6.127c1.036,0,1.87.007,2.7,0,.307,0,.614-.051,1.038-.089" transform="translate(-262.021 -63.745)"/>
          <path id="Trazado_604657" data-name="Trazado 604657" d="M234.147,328.325a7.4,7.4,0,0,1-7.357-6.347,4.109,4.109,0,0,0-.7-1.731,6.178,6.178,0,1,1,10.043-7.2,4.776,4.776,0,0,0,1.484,1.3,7.51,7.51,0,0,1,3.7,8.413,7.433,7.433,0,0,1-7.164,5.565m-.064-3.659a3.712,3.712,0,0,0,3.7-3,3.63,3.63,0,0,0-2.271-4.167,3.3,3.3,0,0,1-2.243-1.966,2.191,2.191,0,0,0-2.3-1.421,2.363,2.363,0,0,0-2.209,1.593,2.209,2.209,0,0,0,.586,2.637,3.117,3.117,0,0,1,1.079,2.649,3.632,3.632,0,0,0,3.664,3.678" transform="translate(-170.443 -235.253)"/>
          <path id="Trazado_604658" data-name="Trazado 604658" d="M21.2,442.256c1.268-4.4,2.466-8.6,3.713-12.792a1.118,1.118,0,0,1,.808-.65c4.174-.042,8.349-.029,12.714-.029-.189.656-.338,1.174-.487,1.692-1.047,3.624-2.078,7.253-3.167,10.864-.108.358-.561.871-.86.875-4.174.058-8.349.039-12.72.039" transform="translate(-16.069 -324.96)" fill="#b2ebf2"/>
          <path id="Trazado_604659" data-name="Trazado 604659" d="M94.746,448.5l2.479,8.626h-4.97l2.491-8.626" transform="translate(-69.917 -339.899)" fill="#1565c0"/>
          <path id="Trazado_604660" data-name="Trazado 604660" d="M395.608,110.739H389.96c-1.567,0-3.135.034-4.7-.027a1.267,1.267,0,0,1-.981-.569c-1.057-3.487-2.045-6.994-3.09-10.631.456-.042.793-.1,1.131-.1,2.973-.007,5.946.025,8.918-.023.816-.013,1.2.2,1.423,1.03.923,3.393,1.923,6.764,2.946,10.322" transform="translate(-288.89 -75.322)" fill="#b2ebf2"/>
          <path id="Trazado_604661" data-name="Trazado 604661" d="M366.9,126.946c-.423.038-.73.085-1.038.089-.834.011-1.668,0-2.7,0l1.754-6.127.238-.018,1.749,6.051" transform="translate(-275.227 -91.622)" fill="#1565c0"/>
          <path id="Trazado_604662" data-name="Trazado 604662" d="M245.53,336.215a3.632,3.632,0,0,1-3.664-3.678,3.117,3.117,0,0,0-1.079-2.649,2.209,2.209,0,0,1-.586-2.637,2.363,2.363,0,0,1,2.209-1.593,2.191,2.191,0,0,1,2.3,1.421,3.3,3.3,0,0,0,2.243,1.966,3.63,3.63,0,0,1,2.271,4.167,3.712,3.712,0,0,1-3.7,3" transform="translate(-181.89 -246.801)" fill="#fb8c00"/>
        </g>
      </g>
    </g>
  </g>
</svg>
