<svg xmlns="http://www.w3.org/2000/svg" width="99" height="99" viewBox="0 0 99 99">
  <g id="Grupo_889650" data-name="Grupo 889650" transform="translate(4816 1109)">
    <g id="LwdD94.tif" transform="translate(-4806 -1099)">
      <g id="Grupo_157288" data-name="Grupo 157288" transform="translate(0 0)">
        <path id="Trazado_197625" data-name="Trazado 197625" d="M-2520.106,355.65h-2.526a1.733,1.733,0,0,0-.338-.159,7.754,7.754,0,0,1-5.506-4.526,1.492,1.492,0,0,0-.673-.658,3.81,3.81,0,0,1-2.241-2.677,3.673,3.673,0,0,1,.679-3.133c-.363-1.235-.662-2.255-.96-3.272-2.441,2.443-4.92,4.942-7.425,7.414a3.725,3.725,0,0,1-1.228.8c-3.588,1.4-7.191,2.767-10.783,4.158-1.724.668-3.436,1.37-5.153,2.057H-2558c-2.66-1.518-3.053-2.665-1.923-5.611,1.861-4.851,3.713-9.705,5.6-14.547a4.1,4.1,0,0,1,.891-1.353q5.053-5.106,10.155-10.162a.967.967,0,0,0,.277-1.152,17.159,17.159,0,0,1-.9-3.73c-.147-2.1-.04-4.225-.04-6.365.024.008-.025-.022-.075-.022q-3.867-.009-7.734-.014a16.906,16.906,0,0,1-2.128-.043,7.644,7.644,0,0,1-6.615-6.642,7.642,7.642,0,0,1,4.813-7.975c.165-.066.328-.138.372-.157a40.441,40.441,0,0,1,.03-4.938,12.577,12.577,0,0,1,11.921-10.556,12.523,12.523,0,0,1,11.4,6.224.879.879,0,0,0,.719.333,10.034,10.034,0,0,1,10.823,4.422,1.284,1.284,0,0,0,.744.436c1.567.317,3.149.555,4.708.9a1.183,1.183,0,0,0,1.3-.334c4.67-4.707,9.34-9.414,14.062-14.068a9.7,9.7,0,0,1,9.952-2.585,9.852,9.852,0,0,1,7.149,7.4c.094.352.192.7.288,1.056v2.843c-.045.061-.12.118-.131.185a10.651,10.651,0,0,1-3.261,5.975c-4.223,4.184-8.367,8.449-12.646,12.574-1.151,1.11-1.617,2.05-1.043,3.622a22.751,22.751,0,0,1,.72,3.9h2.465c0,.812,0,1.546,0,2.28a2.447,2.447,0,0,0,1.481,2.471,2.352,2.352,0,0,0,2.862-.636c.552-.556,1.047-1.169,1.5-1.686l5.518,5.52c-.539.517-1.136,1.067-1.708,1.643a2.324,2.324,0,0,0-.573,2.74,2.416,2.416,0,0,0,2.367,1.524c.815.014,1.63,0,2.446,0v7.58c-.815,0-1.631-.014-2.446,0a2.393,2.393,0,0,0-2.365,1.52,2.347,2.347,0,0,0,.574,2.744c.573.574,1.167,1.127,1.645,1.586l-5.447,5.472c-.463-.489-.982-1.045-1.512-1.593a2.359,2.359,0,0,0-2.792-.662,2.462,2.462,0,0,0-1.555,2.508c.005.754,0,1.508,0,2.257h-7.573V348.27a2.453,2.453,0,0,0-1.486-2.471,2.342,2.342,0,0,0-2.859.643c-.55.558-1.044,1.171-1.766,1.988l-1.433-1.863a3.984,3.984,0,0,1-2.57,3.835,1.117,1.117,0,0,0-.469.555,6.8,6.8,0,0,1-2.529,3.157A31.292,31.292,0,0,1-2520.106,355.65Zm-27.743-50.578c-.065-.359-.119-.694-.186-1.026a5.005,5.005,0,0,0-5.874-3.858,4.983,4.983,0,0,0-3.981,5.785,5.023,5.023,0,0,0,5.152,4.2q16.811.014,33.621,0c.132,0,.264,0,.4-.007a3.826,3.826,0,0,0,3.619-3.264,3.809,3.809,0,0,0-2.148-3.945,3.651,3.651,0,0,0-4.525,1.1,12.76,12.76,0,0,0-1.052,2.265h-2.34a5.8,5.8,0,0,1,2.581-4.95,2.6,2.6,0,0,0,1.209-2.429,7.658,7.658,0,0,0-.114-1.253,7.542,7.542,0,0,0-7.1-6.454,7.632,7.632,0,0,0-7.639,5.53c-.189.664-.144.987.584,1.294a4.569,4.569,0,0,1,2.819,4.483h-2.388c-.418-1.623-1.243-2.429-2.5-2.477s-2.085.72-2.689,2.462h-2.4a4.891,4.891,0,0,1,3.236-4.648.942.942,0,0,0,.684-.826,9.823,9.823,0,0,1,3.719-6.207c.344-.274.7-.529,1.048-.786a9.982,9.982,0,0,0-12.895-4.229c-5.162,2.36-6.793,8.1-5.51,11.681,4.264.554,7.445,3.922,7.094,7.559Zm29.048-5.049c.094.017.169.038.245.043a6.35,6.35,0,0,1,6.015,5.733,6.272,6.272,0,0,1-5.181,6.783,15.226,15.226,0,0,1-2.672.108c-1.569.015-3.138,0-4.767,0,0,1.167,0,2.24,0,3.314,0,1.316.431,1.743,1.753,1.744,3.156,0,6.313,0,9.47,0a3.76,3.76,0,0,1,3.933,3.743,3.762,3.762,0,0,1-3.927,3.828q-5.958.008-11.917,0a3.636,3.636,0,0,0-.708.024,1.22,1.22,0,0,0-1.105,1.24,1.227,1.227,0,0,0,1.1,1.244,2.72,2.72,0,0,0,.551.023c.71,0,1.421,0,2.131,0a3.742,3.742,0,0,1,3.766,3.749c.014,2.1,0,4.193,0,6.365,1.9,0,3.7.013,5.513-.021.172,0,.377-.279.5-.47a44.934,44.934,0,0,1,2.963-4.439c1.687-1.976,3.586-3.772,5.411-5.63a15.114,15.114,0,0,0,4.356-13.576c-1.234-7.8-5.59-13.226-12.9-16.206A42.4,42.4,0,0,0-2519,296.3C-2518.929,297.667-2518.867,298.813-2518.8,300.023Zm-3.831,37.923c0-2.133.018-4.182-.009-6.23a1.271,1.271,0,0,0-1.362-1.327c-.762-.027-1.526,0-2.289-.008a3.762,3.762,0,0,1-3.914-3.763,3.757,3.757,0,0,1,3.944-3.81q5.92-.006,11.84,0a4.384,4.384,0,0,0,.787-.028,1.235,1.235,0,0,0,.951-1.784,1.443,1.443,0,0,0-1.461-.723q-4.775.011-9.551,0a3.757,3.757,0,0,1-3.984-4.008c0-1.174,0-2.348,0-3.571-4.414,0-8.725,0-13.035.018a.686.686,0,0,0-.52.4c-.708,4.04-.427,7.97,1.981,11.416a41.575,41.575,0,0,0,4.508,5.151c2.456,2.5,4.943,4.96,6.292,8.27Zm32.5,6.428,1.735-1.7a4.9,4.9,0,0,1-.977-5.452,4.945,4.945,0,0,1,4.575-3.1v-2.45c-4.582-.347-6.264-4.459-3.588-8.615l-1.692-1.713a4.914,4.914,0,0,1-5.03,1.223,5.047,5.047,0,0,1-3.492-3.817q-.737,2.675-1.452,5.275a8.862,8.862,0,0,1,8.97,8.139,8.85,8.85,0,0,1-6.95,9.4,8.662,8.662,0,0,1-6.1-.9,8.976,8.976,0,0,1-4.557-6.568,15.29,15.29,0,0,0-3.3,5.069.782.782,0,0,0,.144.562,3.882,3.882,0,0,1,.536,2.722.858.858,0,0,0,.165.606c.416.505.876.974,1.34,1.479a4.985,4.985,0,0,1,5.563-1.12,4.963,4.963,0,0,1,3.131,4.656h2.439A5.081,5.081,0,0,1-2490.134,344.374Zm-9.032-60.871,10.782,10.785c4.351-3.883,4.9-8.863,1.254-12.3C-2490.053,279.232-2495.223,278.5-2499.166,283.5Zm-47.565,56.266,9.139-9.158-3.89-4.526-9.461,9.467Zm-5.719-1.886a.177.177,0,0,0-.074.073c-1,2.59-2.012,5.177-2.983,7.779a.864.864,0,0,0,.234.706c1.3,1.338,2.641,2.636,3.936,3.978a.741.741,0,0,0,.961.169c1.19-.481,2.392-.933,3.59-1.4l4.069-1.575Zm7.854,3.834,4.42,4.419c2.739-2.744,5.547-5.55,8.339-8.372a.651.651,0,0,0,.126-.59,20.307,20.307,0,0,0-3.776-4.573Zm51.012-8.806a6.358,6.358,0,0,0-6.341-6.308,3.175,3.175,0,0,0-2.861,1.3,15.952,15.952,0,0,1-2.462,2.654,2.918,2.918,0,0,0-.963,2.377,6.38,6.38,0,0,0,6.361,6.3A6.383,6.383,0,0,0-2493.584,332.911Zm-5.051-37.174-5.646,5.63,3.462,5.173,6.5-6.491Zm-2.07-1.925-4.308-4.3-6.411,6.41,5.19,3.479Zm-2.27-6.506,10.686,10.686,1.754-1.625-10.754-10.757Zm-18.417,55.712q2.953,0,5.906,0c1.052,0,1.67-.463,1.687-1.243s-.608-1.286-1.641-1.287q-5.946-.005-11.892,0c-.983,0-1.59.481-1.607,1.241-.017.786.608,1.285,1.64,1.288C-2525.33,343.023-2523.361,343.02-2521.392,343.02Zm.01,5.053c2.048,0,4.1.01,6.143,0a1.315,1.315,0,0,0,1.441-1.248,1.3,1.3,0,0,0-1.415-1.272c-4.095-.012-8.19-.022-12.285.02a1.679,1.679,0,0,0-1.182.591,1.275,1.275,0,0,0-.05,1.2,1.921,1.921,0,0,0,1.286.68C-2525.427,348.113-2523.4,348.073-2521.383,348.072Zm4.408,2.571h-8.794a5.069,5.069,0,0,0,4.4,2.457A5.051,5.051,0,0,0-2516.975,350.643Zm-36.711,1.2-3.035-3.027c-.382,1-.814,2.04-1.161,3.108a1.094,1.094,0,0,0,.2.9.952.952,0,0,0,.836.2C-2555.764,352.669-2554.707,352.233-2553.686,351.842Z" transform="translate(2560.549 -277.279)" fill="#12263f"/>
        <path id="Trazado_197626" data-name="Trazado 197626" d="M-2193.518,608.781a3.761,3.761,0,0,1-3.8,3.8,3.758,3.758,0,0,1-3.774-3.818,3.76,3.76,0,0,1,3.757-3.755A3.757,3.757,0,0,1-2193.518,608.781Zm-2.531,0a1.315,1.315,0,0,0-1.268-1.244,1.314,1.314,0,0,0-1.242,1.268,1.316,1.316,0,0,0,1.267,1.244A1.319,1.319,0,0,0-2196.049,608.777Z" transform="translate(2257.954 -553.159)" fill="#12263f"/>
      </g>
    </g>
    <rect id="Rectángulo_300225" data-name="Rectángulo 300225" width="99" height="99" transform="translate(-4816 -1109)" fill="none"/>
  </g>
</svg>
