<svg xmlns="http://www.w3.org/2000/svg" width="81.694" height="81.705" viewBox="0 0 81.694 81.705">
  <g id="baTjcF" transform="translate(-623.105 6046.461)">
    <g id="Grupo_888981" data-name="Grupo 888981" transform="translate(623.105 -6046.461)">
      <path id="Trazado_605738" data-name="Trazado 605738" d="M679.55-5941.344a13.194,13.194,0,0,0,6.726,6.626,28.839,28.839,0,0,0,3.476,1.365,8.229,8.229,0,0,0,2.263.171c3.008.018,4.609,1.615,4.611,4.636,0,.709.02,1.419-.008,2.127a1.356,1.356,0,0,1-1.39,1.408c-.226.015-.454,0-.681,0H660.6c-.17,0-.34,0-.51,0-.982-.025-1.6-.571-1.574-1.4a1.379,1.379,0,0,1,1.561-1.321q5.743-.013,11.487,0h22.336c0-.532.035-.982-.008-1.424a1.318,1.318,0,0,0-1.326-1.291c-.282-.024-.567-.008-.851-.008H636.4c-2.243,0-2.539.326-2.354,2.723h19.694a4.725,4.725,0,0,1,.849.022,1.282,1.282,0,0,1,1.17,1.344,1.29,1.29,0,0,1-1.183,1.335,4.235,4.235,0,0,1-.764.021H633.224c-1.557,0-1.947-.4-1.95-1.965,0-.6,0-1.191,0-1.787a4.075,4.075,0,0,1,4.4-4.409c5.065.063,10.654-3.837,12.257-7.334l.386-.842h-1q-7.786,0-15.571,0c-5.163,0-8.633-3.48-8.634-8.654q0-20.634,0-41.268c0-4.376,2.87-7.257,7.232-7.259q11.061-.005,22.123,0a4.234,4.234,0,0,1,.764.021,1.286,1.286,0,0,1,1.176,1.34,1.286,1.286,0,0,1-1.177,1.339,4.771,4.771,0,0,1-.849.022q-11.019,0-22.038,0c-2.839,0-4.507,1.655-4.507,4.477q0,20.719,0,41.438a5.45,5.45,0,0,0,5.788,5.82q33.014,0,66.028,0a4.1,4.1,0,0,0,4.424-4.391q.01-6.3,0-12.593c0-.227-.01-.455,0-.681a1.365,1.365,0,0,1,1.322-1.389,1.34,1.34,0,0,1,1.386,1.407c.026,1.872.01,3.744.01,5.616q0,3.7,0,7.4c0,4.5-2.841,7.35-7.314,7.351q-8.424,0-16.847,0Zm-34.643,8.111h38.16c-.071-.1-.092-.158-.133-.184a16.421,16.421,0,0,1-6.206-7.469,1.071,1.071,0,0,0-.834-.438c-7.963-.023-15.925-.012-23.888-.033a.9.9,0,0,0-.976.687,14.132,14.132,0,0,1-3.142,4.8C646.955-5934.941,645.916-5934.117,644.907-5933.233Z" transform="translate(-623.105 6006.705)" fill="#12263f"/>
      <path id="Trazado_605739" data-name="Trazado 605739" d="M772.685-5997.438a3.921,3.921,0,0,0-3.676-2.711c-1.247-.033-2.5-.008-3.744-.012s-1.623-.317-1.83-1.517c-.369-2.15-.706-4.306-1.115-6.448a1.537,1.537,0,0,0-.672-.923c-.952-.55-1.958-1-3.019-1.534l-2.71,5.416a2.865,2.865,0,0,0-.228.456c-.42,1.45-1.452,1.889-2.876,1.991-3.137.225-6.264.594-9.4.871a1.367,1.367,0,0,0-1.228.821,6.583,6.583,0,0,1-5.618,3.574c-1.135.083-1.691-.465-1.695-1.6q-.014-4.51,0-9.02c0-1.111.5-1.655,1.617-1.6a36.675,36.675,0,0,0,10.028-1,1,1,0,0,0,.93-.96c.317-2.043.667-4.082,1.014-6.121.189-1.112.591-1.458,1.706-1.459,3.031-.006,6.062,0,9.208,0,0-1.4.009-2.748,0-4.1-.006-.674.022-1.318.7-1.7a1.663,1.663,0,0,1,1.82.269c1.136.7,2.319,1.32,3.411,2.079a3.416,3.416,0,0,0,2.635.521c2.074-.305,4.158-.547,6.239-.806,1.029-.128,1.594-.657,1.525-1.456-.073-.848-.74-1.277-1.826-1.13-1.909.258-3.818.521-5.722.818a2.047,2.047,0,0,1-1.734-.452c-1.869-1.522-3.748-3.031-5.652-4.509a2.017,2.017,0,0,0-1.133-.409c-3.091-.033-6.189-.129-9.273.021-2,.1-3.966.67-5.964.851a2.413,2.413,0,0,0-2.386,1.977c-.614,2-1.433,3.936-2.18,5.893-.237.621-.293,1.206.391,1.532s1.1-.087,1.441-.658c.893-1.513,1.826-3,2.7-4.525a1.812,1.812,0,0,1,1.786-1.035c1.162.042,2.326,0,3.488.014,1.054.014,1.54.516,1.564,1.58.008.34,0,.681,0,1.021a1.326,1.326,0,0,1-1.162,1.448,1.3,1.3,0,0,1-1.5-.966c-.039-.1-.071-.212-.1-.312-.068-.017-.123-.034-.178-.044a2.092,2.092,0,0,0-2.589,1.377,25.58,25.58,0,0,1-1.813,3.072,3.694,3.694,0,0,1-4.8,1.512,3.666,3.666,0,0,1-1.838-4.734c1.011-2.766,2.03-5.529,3.122-8.263a1.935,1.935,0,0,1,1.146-1.085c2.974-.57,5.97-1.027,8.959-1.521-.975-2.576-.769-5.31-.418-7.98a6.564,6.564,0,0,1,6.416-5.521c.935-.026,1.872-.023,2.808,0a1.35,1.35,0,0,1,1.48,1.487c.013,3.205.037,6.411-.028,9.615a10.731,10.731,0,0,1-.481,2.241,17.224,17.224,0,0,1,2.135,1.2c1.672,1.267,3.3,2.592,4.916,3.931a1.7,1.7,0,0,0,1.469.414q2.562-.4,5.134-.731a4.019,4.019,0,0,1,4.529,3.309,3.933,3.933,0,0,1-3.2,4.59c-2.935.478-5.9.8-8.852,1.136a2.2,2.2,0,0,1-1.183-.361c-.988-.547-1.944-1.15-3.068-1.825,0,.957-.035,1.787.024,2.611.015.211.3.448.513.592,2.186,1.473,4.374,2.942,6.583,4.381a2.205,2.205,0,0,1,1.1,1.784c.29,2.99.664,5.972.97,8.961a1.152,1.152,0,0,0,.726,1.014,6.694,6.694,0,0,1,3.652,5.218c.234,1.557-.3,2.164-1.872,2.165q-4.3,0-8.594,0c-1.09,0-1.708-.482-1.732-1.324-.025-.874.617-1.395,1.743-1.4C767.678-5997.441,770.141-5997.438,772.685-5997.438ZM751.03-6016.5c-.06.313-.119.584-.164.858-.308,1.843-.6,3.689-.924,5.53-.256,1.465-.468,1.652-1.931,1.925-1.636.305-3.269.622-4.913.936v2.652a2.069,2.069,0,0,0,.306.022c3.074-.3,6.15-.582,9.219-.924.273-.03.594-.391.741-.676,1.089-2.114,2.137-4.249,3.2-6.375.66-1.317,1.208-1.506,2.5-.868,1.04.515,2.086,1.02,3.115,1.555,2.966,1.542,2.384.73,2.988,4.132.285,1.605.547,3.215.815,4.8h2.576c0-.16.01-.272,0-.381-.286-2.62-.563-5.24-.88-7.855a1.181,1.181,0,0,0-.472-.729c-2.153-1.469-4.324-2.912-6.5-4.352a1.225,1.225,0,0,0-.616-.235C757.091-6016.5,754.088-6016.5,751.03-6016.5Zm1.547-21.748c0,1-.031,1.91.007,2.814a2.73,2.73,0,0,0,2.477,2.584,2.624,2.624,0,0,0,2.86-2.126,23.459,23.459,0,0,0,.031-3.272Zm-14.936,37.718c2.681-.862,2.97-3.449,2.544-6.392h-2.544ZM758-6043.641c-2.593-.357-4.749.772-5.032,2.567H758Z" transform="translate(-715.813 6046.461)" fill="#12263f"/>
      <path id="Trazado_605740" data-name="Trazado 605740" d="M739.834-5737.5q-9.274,0-18.547-.01a1.13,1.13,0,0,0-1.183.659,4,4,0,0,1-7.027-.025,1.065,1.065,0,0,0-1.111-.634c-2.41.025-4.821.014-7.232.01-1.123,0-1.768-.527-1.742-1.4.025-.843.641-1.319,1.733-1.321,2.411,0,4.821-.021,7.232.012a1.136,1.136,0,0,0,1.16-.7,4,4,0,0,1,6.982.035,1.124,1.124,0,0,0,1.182.659q18.377-.018,36.754-.009a5.509,5.509,0,0,1,.934.022,1.28,1.28,0,0,1,1.179,1.335,1.286,1.286,0,0,1-1.173,1.342,4.724,4.724,0,0,1-.849.022Zm-23.226-.006a1.373,1.373,0,0,0,1.347-1.346,1.37,1.37,0,0,0-1.408-1.367,1.372,1.372,0,0,0-1.3,1.388A1.368,1.368,0,0,0,716.608-5737.508Z" transform="translate(-689.37 5794.694)" fill="#12263f"/>
      <path id="Trazado_605741" data-name="Trazado 605741" d="M1030.493-5882.543q0,5.275,0,10.55c0,1.324-.459,1.771-1.8,1.774-1.56,0-3.12.007-4.68,0-1.181-.006-1.684-.483-1.685-1.63q-.009-10.635,0-21.271c0-1.106.5-1.593,1.626-1.6q2.467-.015,4.935,0c1.1.008,1.6.506,1.6,1.626C1030.5-5889.578,1030.493-5886.061,1030.493-5882.543Zm-2.76-9.413H1025.1v2.619h2.633Zm-2.645,8.067h2.618v-2.624h-2.618Zm-.01,5.435h2.647v-2.6h-2.647Zm2.677,2.843h-2.648v2.6h2.648Z" transform="translate(-954.25 5920.603)" fill="#12263f"/>
      <path id="Trazado_605742" data-name="Trazado 605742" d="M917.277-5998.522q6.122,0,12.245,0a6.812,6.812,0,0,1,7.153,7.161q.01,11.82,0,23.64a3.655,3.655,0,0,1-.021.679,1.291,1.291,0,0,1-1.34,1.176,1.282,1.282,0,0,1-1.339-1.174,4.8,4.8,0,0,1-.022-.849q0-11.65,0-23.3c0-3-1.613-4.611-4.624-4.611h-24.66a4.044,4.044,0,0,1-.931-.039,1.281,1.281,0,0,1-1.082-1.333,1.283,1.283,0,0,1,1.1-1.315,3.878,3.878,0,0,1,.847-.033Q910.941-5998.523,917.277-5998.522Z" transform="translate(-854.987 6006.7)" fill="#12263f"/>
      <path id="Trazado_605743" data-name="Trazado 605743" d="M659.191-5907.981c-.879,0-1.758.017-2.637,0a1.364,1.364,0,0,1-1.467-1.329,1.36,1.36,0,0,1,1.5-1.382q2.594-.026,5.189,0a1.356,1.356,0,0,1,1.468,1.327,1.374,1.374,0,0,1-1.5,1.385C660.893-5907.966,660.042-5907.98,659.191-5907.981Z" transform="translate(-649.633 5933.858)" fill="#12263f"/>
      <path id="Trazado_605744" data-name="Trazado 605744" d="M659.138-5876.043c-.851,0-1.7.015-2.552,0a1.37,1.37,0,0,1-1.5-1.383,1.354,1.354,0,0,1,1.465-1.328q2.594-.029,5.189,0a1.364,1.364,0,0,1,1.5,1.38,1.366,1.366,0,0,1-1.466,1.331C660.9-5876.026,660.017-5876.043,659.138-5876.043Z" transform="translate(-649.634 5907.366)" fill="#12263f"/>
      <path id="Trazado_605745" data-name="Trazado 605745" d="M659.13-5844.105c-.851,0-1.7.016-2.552,0a1.368,1.368,0,0,1-1.492-1.39,1.356,1.356,0,0,1,1.473-1.321q2.594-.028,5.189,0a1.363,1.363,0,0,1,1.493,1.388,1.369,1.369,0,0,1-1.474,1.323C660.888-5844.089,660.009-5844.105,659.13-5844.105Z" transform="translate(-649.633 5880.874)" fill="#12263f"/>
      <path id="Trazado_605746" data-name="Trazado 605746" d="M658.453-5812.186c-.652,0-1.305.021-1.956-.005a1.354,1.354,0,0,1-1.41-1.384,1.336,1.336,0,0,1,1.384-1.32q2-.043,4,0a1.342,1.342,0,0,1,1.411,1.381,1.354,1.354,0,0,1-1.386,1.324C659.815-5812.163,659.134-5812.187,658.453-5812.186Z" transform="translate(-649.633 5854.399)" fill="#12263f"/>
      <path id="Trazado_605747" data-name="Trazado 605747" d="M657.81-5780.273c-.482,0-.966.032-1.445-.007a1.338,1.338,0,0,1-1.276-1.34,1.314,1.314,0,0,1,1.264-1.347c.962-.046,1.929-.045,2.891,0a1.317,1.317,0,0,1,1.277,1.336,1.341,1.341,0,0,1-1.265,1.352C658.777-5780.241,658.292-5780.274,657.81-5780.273Z" transform="translate(-649.635 5827.927)" fill="#12263f"/>
    </g>
  </g>
</svg>
