<svg xmlns="http://www.w3.org/2000/svg" xmlns:xlink="http://www.w3.org/1999/xlink" width="205.962" height="176.901" viewBox="0 0 205.962 176.901">
  <defs>
    <clipPath id="clip-path">
      <rect id="Rectángulo_299362" data-name="Rectángulo 299362" width="128.674" height="125.223" fill="#12263f"/>
    </clipPath>
  </defs>
  <g id="Grupo_885894" data-name="Grupo 885894" transform="translate(44.926 44.403)">
    <rect id="Rectángulo_49533" data-name="Rectángulo 49533" width="144.8" height="111.233" transform="translate(16.236 21.265)" fill="#ffde96"/>
    <g id="Grupo_169217" data-name="Grupo 169217" transform="translate(-44.926 -44.403)">
      <rect id="Rectángulo_49754" data-name="Rectángulo 49754" width="166.13" height="153.889" transform="translate(0 0)" fill="none"/>
      <g id="Grupo_888481" data-name="Grupo 888481" transform="translate(21.962 10)">
        <g id="Grupo_888481-2" data-name="Grupo 888481" clip-path="url(#clip-path)">
          <path id="Trazado_604663" data-name="Trazado 604663" d="M5.235,135.4c0-1.649,0-3.251,0-4.853,0-3.752,1.013-5.146,4.621-6.277v-.939q0-27.34.014-54.68a1.7,1.7,0,0,0-.7-1.5,6.219,6.219,0,0,1-2.347-4.91c-.019-.8,0-1.6,0-2.543-.523,0-.986.008-1.449,0A2.144,2.144,0,0,1,3.049,57.43q-.025-6.567,0-13.134c0-1.185.612-1.872,1.925-2.226q8.016-2.163,16.037-4.308Q32.87,34.582,44.726,31.4a2.292,2.292,0,0,1,2.537.582,2.188,2.188,0,0,1-1.3,3.6q-7.63,2.053-15.262,4.1C23.315,41.654,15.931,43.647,8.535,45.6c-.851.224-1.2.528-1.167,1.477.084,2.41.026,4.824.03,7.236,0,.319.028.638.044,1H121.2v-9.38c-1.711-.462-3.457-.938-5.207-1.4q-16.522-4.4-33.044-8.794c-1.526-.406-2.252-1.308-2.052-2.553a2.12,2.12,0,0,1,2.781-1.752c3.888,1.01,7.769,2.051,11.651,3.085q14.063,3.746,28.125,7.5c1.73.461,2.166,1.04,2.166,2.849q0,6.031,0,12.062c0,2.058-.716,2.771-2.8,2.784-.291,0-.582.024-.975.042,0,.756-.007,1.462,0,2.169a6.621,6.621,0,0,1-2.556,5.457,1.4,1.4,0,0,0-.468.947q-.033,27.742-.018,55.485c0,.147.019.293.031.481a2.635,2.635,0,0,0,.316.122,5.1,5.1,0,0,1,4.27,5.454q.008,2.635.019,5.271c0,.082.055.164.017.057a19.306,19.306,0,0,1,2.909,1.138,4.54,4.54,0,0,1,2.276,4.016c.045,2.769.027,5.54.007,8.309a2.107,2.107,0,0,1-2.242,2.241c-.387.012-.774,0-1.161,0H2.845c-2.16,0-2.845-.675-2.845-2.809q0-3.484,0-6.969c0-3.411,1.69-5.306,5.235-5.718m4.374.054H91.58a9.574,9.574,0,0,1,1.16.026,2.152,2.152,0,0,1,1.816,2.746c-.3,1.069-1.107,1.568-2.579,1.568l-46.665,0H6.388a4.228,4.228,0,0,0-1.242.039c-.306.1-.753.438-.761.682-.062,1.983-.035,3.969-.035,5.986H124.328c0-1.857.006-3.665,0-5.473,0-1.05-.187-1.226-1.269-1.23-2.114-.007-4.229,0-6.343,0q-5.852,0-11.7,0a2.175,2.175,0,1,1-.062-4.331c4.318-.019,8.636-.008,12.955-.009h1.16c0-1.875,0-3.653,0-5.43,0-1.186-.133-1.317-1.346-1.317q-10,0-19.994,0H22.048c-.624,0-1.247.018-1.871.017q-4.824-.005-9.648-.017c-.518,0-.906.2-.912.752-.021,1.959-.008,3.919-.008,6m35.544-11.144c0-.4,0-.744,0-1.091q0-15.274,0-30.549a13.387,13.387,0,0,1,.026-1.428,3.2,3.2,0,0,1,2.17-2.9,8.035,8.035,0,0,1,2.533-.351c6.664-.024,13.329-.007,19.993-.006,3.272,0,6.545-.029,9.817,0a3.55,3.55,0,0,1,3.784,3.731c.012.446.028.892.028,1.339q0,15.1,0,30.192V124.3h5.362c0-.437,0-.818,0-1.2q0-17.148-.009-34.3c0-6.758.013-13.517-.011-20.275A1.632,1.632,0,0,0,88.4,67.4a6.787,6.787,0,0,1-2.593-5.627c.009-.67,0-1.34,0-2.009H42.846c0,.863.02,1.663,0,2.462A6.281,6.281,0,0,1,40.431,67.2a1.6,1.6,0,0,0-.635,1.439q.02,27.331.011,54.662v1.011Zm4.4-.07H62.109V92.385H49.552ZM79.111,92.383H66.553v31.856H79.111ZM18.351,68.758H14.289v55.555h4.062Zm12.936-.027V124.32c.343.017.634.041.925.043,1.034.005,2.069,0,3.144,0V68.732Zm66.068.028H93.29v55.554h4.064Zm12.937-.027v55.585c.339.018.628.044.918.045,1.034.005,2.068,0,3.145,0V68.733ZM26.8,68.772H22.872v55.537H26.8Zm75.077,55.546h3.929V68.742h-3.929Zm15.595-64.5H90.188c0,.708,0,1.3,0,1.9.011,1.881.773,2.63,2.683,2.63q10.893,0,21.786,0a6.67,6.67,0,0,0,.891-.029,2.074,2.074,0,0,0,1.911-1.925c.066-.854.013-1.716.013-2.572M11.186,59.743c0,.694,0,1.286,0,1.878.006,2,.733,2.719,2.765,2.72q5.4,0,10.8,0,5.622,0,11.243,0c1.284,0,2.226-.559,2.371-1.591a21.82,21.82,0,0,0,.029-3Z" transform="translate(0 -25.674)" fill="#12263f"/>
          <path id="Trazado_604664" data-name="Trazado 604664" d="M295.94,0a13.953,13.953,0,1,1-13.993,14.028A13.928,13.928,0,0,1,295.94,0m-.078,23.526a9.592,9.592,0,1,0-9.573-9.64,9.611,9.611,0,0,0,9.573,9.64" transform="translate(-231.563 0.001)" fill="#12263f"/>
          <path id="Trazado_604665" data-name="Trazado 604665" d="M485.794,117.451q5.8,0,11.6,0a2.175,2.175,0,0,1,2.231,1.446,2.022,2.022,0,0,1-.633,2.333,4.1,4.1,0,0,1-1.993.558c-7.258.038-14.517.024-21.776.023-.446,0-.894.02-1.338-.015a2.172,2.172,0,1,1,.127-4.342c2.915-.018,5.831-.006,8.746-.006h3.034" transform="translate(-387.465 -96.459)" fill="#12263f"/>
          <path id="Trazado_604666" data-name="Trazado 604666" d="M105.749,117.457q5.756,0,11.512,0a2.167,2.167,0,0,1,2.425,2.243,2.086,2.086,0,0,1-1.76,2.053,5.907,5.907,0,0,1-.977.067q-11.289,0-22.578,0c-1.629,0-2.565-.728-2.646-2.031a2.143,2.143,0,0,1,2.333-2.327c3.9-.013,7.794,0,11.691-.005" transform="translate(-75.33 -96.466)" fill="#12263f"/>
          <path id="Trazado_604667" data-name="Trazado 604667" d="M29.58,583.294c0-2.077-.013-4.037.008-6,.006-.553.394-.754.912-.752q4.824.011,9.648.017c.624,0,1.247-.017,1.871-.017h75.673q10,0,19.994,0c1.213,0,1.344.131,1.346,1.317,0,1.777,0,3.555,0,5.43h-1.16c-4.318,0-8.636-.011-12.955.009a2.175,2.175,0,1,0,.062,4.331q5.852.012,11.7,0c2.114,0,4.229,0,6.343,0,1.082,0,1.264.18,1.269,1.23.008,1.808,0,3.617,0,5.473H24.321c0-2.016-.027-4,.035-5.986.008-.244.454-.585.761-.682a4.235,4.235,0,0,1,1.242-.038l85.589,0c1.472,0,2.282-.5,2.579-1.568a2.152,2.152,0,0,0-1.816-2.746,9.577,9.577,0,0,0-1.16-.026H29.58Z" transform="translate(-19.97 -473.515)" fill="#b2ebf2"/>
          <rect id="Rectángulo_299356" data-name="Rectángulo 299356" width="12.557" height="31.855" transform="translate(49.553 66.711)" fill="#e8e8e8"/>
          <rect id="Rectángulo_299357" data-name="Rectángulo 299357" width="12.559" height="31.856" transform="translate(66.553 66.709)" fill="#e8e8e8"/>
          <rect id="Rectángulo_299358" data-name="Rectángulo 299358" width="4.062" height="55.555" transform="translate(14.289 43.085)" fill="#b0c0d2"/>
          <path id="Trazado_604668" data-name="Trazado 604668" d="M175.082,240.952h4.069v55.632c-1.075,0-2.11,0-3.144,0-.291,0-.582-.026-.925-.043Z" transform="translate(-143.795 -197.894)" fill="#b0c0d2"/>
          <rect id="Rectángulo_299359" data-name="Rectángulo 299359" width="4.064" height="55.554" transform="translate(93.29 43.086)" fill="#b0c0d2"/>
          <path id="Trazado_604669" data-name="Trazado 604669" d="M617.189,240.955h4.064v55.632c-1.077,0-2.111,0-3.145,0-.29,0-.58-.028-.918-.045Z" transform="translate(-506.897 -197.896)" fill="#b0c0d2"/>
          <rect id="Rectángulo_299360" data-name="Rectángulo 299360" width="3.928" height="55.537" transform="translate(22.872 43.098)" fill="#b0c0d2"/>
          <rect id="Rectángulo_299361" data-name="Rectángulo 299361" width="3.929" height="55.576" transform="translate(101.878 43.069)" fill="#b0c0d2"/>
          <path id="Trazado_604670" data-name="Trazado 604670" d="M531.971,191.053c0,.855.052,1.718-.013,2.572a2.074,2.074,0,0,1-1.911,1.925,6.67,6.67,0,0,1-.891.029q-10.893,0-21.786,0c-1.909,0-2.672-.749-2.683-2.63,0-.594,0-1.188,0-1.9Z" transform="translate(-414.497 -156.912)" fill="#b0c0d2"/>
          <path id="Trazado_604671" data-name="Trazado 604671" d="M62.6,190.652H89.8a21.821,21.821,0,0,1-.029,3c-.146,1.033-1.088,1.589-2.371,1.591q-5.622.011-11.243,0-5.4,0-10.8,0c-2.032,0-2.759-.719-2.765-2.72,0-.592,0-1.185,0-1.878" transform="translate(-51.409 -156.582)" fill="#b0c0d2"/>
          <path id="Trazado_604672" data-name="Trazado 604672" d="M315.817,43.484A9.592,9.592,0,1,1,325.453,34a9.612,9.612,0,0,1-9.636,9.486m2.195-11.925c0-.8.02-1.6,0-2.406a2.159,2.159,0,0,0-4.317-.024,15.682,15.682,0,0,0,.012,2.315,2.868,2.868,0,0,1-1.081,2.632c-1.368,1.251-1.508,2.561-.535,3.547,1,1.013,2.233.742,3.65-.486,1.741-1.509,2.851-3.173,2.275-5.579" transform="translate(-251.518 -19.958)" fill="#fb8c00"/>
          <path id="Trazado_604673" data-name="Trazado 604673" d="M312.59,283.205c-2.858,0-5.717.022-8.575-.007a2.165,2.165,0,0,1-2.137-2.992,2.053,2.053,0,0,1,2.021-1.354c5.776-.011,11.552-.021,17.328,0a2.1,2.1,0,0,1,2.2,2.195,2.142,2.142,0,0,1-2.26,2.145c-2.858.026-5.716.008-8.575.009" transform="translate(-247.79 -229.011)" fill="#12263f"/>
          <path id="Trazado_604674" data-name="Trazado 604674" d="M312.68,228.521q-4.2,0-8.394,0a2.183,2.183,0,1,1-.021-4.331q8.394-.013,16.788,0a2.183,2.183,0,1,1,.021,4.333q-4.2.007-8.394,0" transform="translate(-247.883 -184.121)" fill="#12263f"/>
          <path id="Trazado_604675" data-name="Trazado 604675" d="M341.976,43.947c.576,2.406-.534,4.07-2.275,5.579-1.417,1.228-2.649,1.5-3.65.486-.974-.986-.833-2.3.534-3.547a2.868,2.868,0,0,0,1.081-2.632,15.682,15.682,0,0,1-.012-2.315,2.159,2.159,0,0,1,4.317.024c.024.8,0,1.6,0,2.406" transform="translate(-275.482 -32.346)" fill="#12263f"/>
        </g>
      </g>
    </g>
  </g>
</svg>
