<svg xmlns="http://www.w3.org/2000/svg" width="1103.971" height="58.509" viewBox="0 0 1103.971 58.509">
  <g id="Grupo_889591" data-name="Grupo 889591" transform="translate(-1061 8979.49)">
    <rect id="Rectángulo_299411" data-name="Rectángulo 299411" width="143.971" height="58.509" rx="10" transform="translate(1061 -8979.49)" fill="#f8edc2" opacity="0.8"/>
    <rect id="Rectángulo_299421" data-name="Rectángulo 299421" width="143.971" height="58.509" rx="10" transform="translate(1445 -8979.49)" fill="#b2ebf2" opacity="0.8"/>
    <rect id="Rectángulo_299423" data-name="Rectángulo 299423" width="143.971" height="58.509" rx="10" transform="translate(1829 -8979.49)" fill="#b0c0d2" opacity="0.8"/>
    <rect id="Rectángulo_299419" data-name="Rectángulo 299419" width="143.971" height="58.509" rx="10" transform="translate(1253 -8979.49)" fill="#26aab7" opacity="0.8"/>
    <rect id="Rectángulo_299420" data-name="Rectángulo 299420" width="143.971" height="58.509" rx="10" transform="translate(1637 -8979.49)" fill="#cee1f5" opacity="0.8"/>
    <rect id="Rectángulo_299422" data-name="Rectángulo 299422" width="143.971" height="58.509" rx="10" transform="translate(2021 -8979.49)" fill="#a2aac8" opacity="0.8"/>
    <path id="Trazado_605816" data-name="Trazado 605816" d="M-37.094-4.453V0h-1.5V-11.375h4.2a4.215,4.215,0,0,1,2.926.953A3.231,3.231,0,0,1-30.414-7.9a3.189,3.189,0,0,1-1.035,2.551,4.4,4.4,0,0,1-2.965.895Zm0-1.227h2.7a2.7,2.7,0,0,0,1.844-.567,2.075,2.075,0,0,0,.641-1.64,2.143,2.143,0,0,0-.641-1.628,2.525,2.525,0,0,0-1.758-.634h-2.781ZM-24.328-4.6H-27V0h-1.508V-11.375h3.766a4.457,4.457,0,0,1,2.957.875A3.148,3.148,0,0,1-20.75-7.953,3.062,3.062,0,0,1-21.324-6.1a3.428,3.428,0,0,1-1.6,1.18L-20.25-.094V0h-1.609ZM-27-5.828h2.3a2.6,2.6,0,0,0,1.777-.579,1.959,1.959,0,0,0,.66-1.55,2.062,2.062,0,0,0-.629-1.62,2.663,2.663,0,0,0-1.816-.571H-27Zm17.1.508A7.037,7.037,0,0,1-10.461-2.4,4.261,4.261,0,0,1-12.055-.5a4.385,4.385,0,0,1-2.406.656A4.348,4.348,0,0,1-16.844-.5a4.363,4.363,0,0,1-1.613-1.883,6.752,6.752,0,0,1-.59-2.832v-.82a6.953,6.953,0,0,1,.57-2.9,4.347,4.347,0,0,1,1.613-1.926,4.329,4.329,0,0,1,2.387-.668,4.41,4.41,0,0,1,2.41.66,4.253,4.253,0,0,1,1.605,1.914A7.071,7.071,0,0,1-9.9-6.039Zm-1.492-.734A5.1,5.1,0,0,0-12.2-9.16a2.68,2.68,0,0,0-2.273-1.082A2.651,2.651,0,0,0-16.715-9.16a5,5,0,0,0-.84,3v.836a5.107,5.107,0,0,0,.824,3.082,2.662,2.662,0,0,0,2.27,1.121,2.652,2.652,0,0,0,2.25-1.059,5.079,5.079,0,0,0,.82-3.035Zm6.875.391,2.969-5.711h1.7L-3.766-4.242V0h-1.5V-4.242l-3.922-7.133h1.719Zm12.57.406H3.125v4.031H8.852V0H1.625V-11.375H8.773v1.227H3.125v3.664h4.93ZM19.086-3.609A4.185,4.185,0,0,1,17.754-.824a4.365,4.365,0,0,1-2.98.98,4.008,4.008,0,0,1-3.23-1.445,5.815,5.815,0,0,1-1.215-3.867V-6.25a6.481,6.481,0,0,1,.566-2.789A4.231,4.231,0,0,1,12.5-10.887a4.47,4.47,0,0,1,2.406-.645,4.11,4.11,0,0,1,2.906,1.012,4.235,4.235,0,0,1,1.273,2.8H17.578a3.268,3.268,0,0,0-.848-1.975,2.565,2.565,0,0,0-1.824-.611,2.684,2.684,0,0,0-2.254,1.063,4.882,4.882,0,0,0-.816,3.026v1.1a5.018,5.018,0,0,0,.773,2.948A2.5,2.5,0,0,0,14.773-1.07a2.887,2.887,0,0,0,1.918-.566,3.143,3.143,0,0,0,.887-1.973Zm9.68-6.539H25.109V0H23.617V-10.148H19.969v-1.227h8.8ZM38.984-5.32A7.037,7.037,0,0,1,38.422-2.4,4.261,4.261,0,0,1,36.828-.5a4.385,4.385,0,0,1-2.406.656A4.347,4.347,0,0,1,32.039-.5a4.363,4.363,0,0,1-1.613-1.883,6.752,6.752,0,0,1-.59-2.832v-.82a6.953,6.953,0,0,1,.57-2.9,4.347,4.347,0,0,1,1.613-1.926,4.329,4.329,0,0,1,2.387-.668,4.41,4.41,0,0,1,2.41.66,4.253,4.253,0,0,1,1.605,1.914,7.071,7.071,0,0,1,.563,2.918Zm-1.492-.734A5.1,5.1,0,0,0,36.68-9.16a2.68,2.68,0,0,0-2.273-1.082A2.651,2.651,0,0,0,32.168-9.16a5,5,0,0,0-.84,3v.836a5.107,5.107,0,0,0,.824,3.082,2.662,2.662,0,0,0,2.27,1.121,2.652,2.652,0,0,0,2.25-1.059,5.079,5.079,0,0,0,.82-3.035Z" transform="translate(1133 -8944.49)" fill="#12263f" opacity="0.8"/>
    <path id="Trazado_605814" data-name="Trazado 605814" d="M-55.27-4.453V0h-1.5V-11.375h4.2a4.215,4.215,0,0,1,2.926.953A3.231,3.231,0,0,1-48.59-7.9a3.189,3.189,0,0,1-1.035,2.551,4.4,4.4,0,0,1-2.965.895Zm0-1.227h2.7a2.7,2.7,0,0,0,1.844-.567,2.075,2.075,0,0,0,.641-1.64,2.143,2.143,0,0,0-.641-1.628,2.525,2.525,0,0,0-1.758-.634H-55.27Zm10.1,4.453h5.391V0h-6.9V-11.375h1.508Zm13.531-1.75H-36.4L-37.473,0H-39.02l4.344-11.375h1.313L-29.012,0h-1.539ZM-35.949-4.2h3.867l-1.937-5.32ZM-18.738,0h-1.508l-5.727-8.766V0H-27.48V-11.375h1.508l5.742,8.8v-8.8h1.492Zm4.273,0h-1.5V-11.375h1.5Zm9.016-5.023h-4.773V0h-1.5V-11.375h7.047v1.227h-5.547v3.9h4.773ZM-1.27,0h-1.5V-11.375h1.5ZM9.84-3.609A4.185,4.185,0,0,1,8.508-.824a4.365,4.365,0,0,1-2.98.98A4.008,4.008,0,0,1,2.3-1.289,5.815,5.815,0,0,1,1.082-5.156V-6.25a6.481,6.481,0,0,1,.566-2.789,4.231,4.231,0,0,1,1.605-1.848,4.47,4.47,0,0,1,2.406-.645A4.11,4.11,0,0,1,8.566-10.52a4.235,4.235,0,0,1,1.273,2.8H8.332a3.268,3.268,0,0,0-.848-1.975A2.565,2.565,0,0,0,5.66-10.3,2.684,2.684,0,0,0,3.406-9.241,4.882,4.882,0,0,0,2.59-6.215v1.1a5.018,5.018,0,0,0,.773,2.948A2.5,2.5,0,0,0,5.527-1.07a2.887,2.887,0,0,0,1.918-.566,3.143,3.143,0,0,0,.887-1.973Zm8.328.633H13.4L12.332,0H10.785l4.344-11.375h1.313L20.793,0H19.254ZM13.855-4.2h3.867l-1.937-5.32Zm16.75.594A4.185,4.185,0,0,1,29.273-.824a4.365,4.365,0,0,1-2.98.98,4.008,4.008,0,0,1-3.23-1.445,5.815,5.815,0,0,1-1.215-3.867V-6.25a6.481,6.481,0,0,1,.566-2.789,4.231,4.231,0,0,1,1.605-1.848,4.47,4.47,0,0,1,2.406-.645,4.11,4.11,0,0,1,2.906,1.012,4.235,4.235,0,0,1,1.273,2.8H29.1a3.268,3.268,0,0,0-.848-1.975,2.565,2.565,0,0,0-1.824-.611,2.684,2.684,0,0,0-2.254,1.063,4.882,4.882,0,0,0-.816,3.026v1.1a5.018,5.018,0,0,0,.773,2.948A2.5,2.5,0,0,0,26.293-1.07a2.886,2.886,0,0,0,1.918-.566A3.143,3.143,0,0,0,29.1-3.609ZM34.262,0h-1.5V-11.375h1.5ZM45.754-5.32A7.037,7.037,0,0,1,45.191-2.4,4.261,4.261,0,0,1,43.6-.5a4.385,4.385,0,0,1-2.406.656A4.347,4.347,0,0,1,38.809-.5,4.363,4.363,0,0,1,37.2-2.387a6.752,6.752,0,0,1-.59-2.832v-.82a6.953,6.953,0,0,1,.57-2.9,4.347,4.347,0,0,1,1.613-1.926,4.329,4.329,0,0,1,2.387-.668,4.41,4.41,0,0,1,2.41.66,4.253,4.253,0,0,1,1.605,1.914,7.071,7.071,0,0,1,.563,2.918Zm-1.492-.734a5.1,5.1,0,0,0-.812-3.105,2.68,2.68,0,0,0-2.273-1.082A2.651,2.651,0,0,0,38.938-9.16a5,5,0,0,0-.84,3v.836a5.107,5.107,0,0,0,.824,3.082,2.662,2.662,0,0,0,2.27,1.121,2.652,2.652,0,0,0,2.25-1.059,5.079,5.079,0,0,0,.82-3.035ZM41.91-14.422h1.75l-2.094,2.3-1.164,0ZM56.746,0H55.238L49.512-8.766V0H48V-11.375h1.508l5.742,8.8v-8.8h1.492Z" transform="translate(1517 -8944.49)" fill="#12263f" opacity="0.8"/>
    <path id="Trazado_605812" data-name="Trazado 605812" d="M-39.77-5.258H-44.7v4.031h5.727V0H-46.2V-11.375h7.148v1.227H-44.7v3.664h4.93Zm6.43,3.266,3.25-9.383h1.641L-32.668,0H-34l-4.211-11.375h1.633Zm12.109-.984H-26L-27.066,0h-1.547l4.344-11.375h1.313L-18.605,0h-1.539ZM-25.543-4.2h3.867l-1.937-5.32Zm9.977,2.977h5.391V0h-6.9V-11.375h1.508ZM-.879-11.375v7.734A3.628,3.628,0,0,1-1.891-1.008,4.077,4.077,0,0,1-4.613.141l-.4.016A4.258,4.258,0,0,1-7.988-.852,3.6,3.6,0,0,1-9.113-3.625v-7.75h1.484v7.7a2.6,2.6,0,0,0,.68,1.918,2.612,2.612,0,0,0,1.938.684,2.63,2.63,0,0,0,1.949-.68,2.6,2.6,0,0,0,.676-1.914v-7.711ZM7.6-2.977H2.832L1.762,0H.215L4.559-11.375H5.871L10.223,0H8.684ZM3.285-4.2H7.152L5.215-9.523Zm16.75.594A4.185,4.185,0,0,1,18.7-.824a4.365,4.365,0,0,1-2.98.98,4.008,4.008,0,0,1-3.23-1.445,5.815,5.815,0,0,1-1.215-3.867V-6.25a6.481,6.481,0,0,1,.566-2.789,4.231,4.231,0,0,1,1.605-1.848,4.47,4.47,0,0,1,2.406-.645,4.11,4.11,0,0,1,2.906,1.012,4.235,4.235,0,0,1,1.273,2.8H18.527a3.268,3.268,0,0,0-.848-1.975,2.565,2.565,0,0,0-1.824-.611A2.684,2.684,0,0,0,13.6-9.241a4.882,4.882,0,0,0-.816,3.026v1.1a5.018,5.018,0,0,0,.773,2.948A2.5,2.5,0,0,0,15.723-1.07a2.886,2.886,0,0,0,1.918-.566,3.143,3.143,0,0,0,.887-1.973ZM23.691,0h-1.5V-11.375h1.5ZM35.184-5.32A7.037,7.037,0,0,1,34.621-2.4,4.261,4.261,0,0,1,33.027-.5a4.385,4.385,0,0,1-2.406.656A4.347,4.347,0,0,1,28.238-.5a4.363,4.363,0,0,1-1.613-1.883,6.752,6.752,0,0,1-.59-2.832v-.82a6.953,6.953,0,0,1,.57-2.9,4.347,4.347,0,0,1,1.613-1.926,4.329,4.329,0,0,1,2.387-.668,4.41,4.41,0,0,1,2.41.66,4.253,4.253,0,0,1,1.605,1.914,7.071,7.071,0,0,1,.563,2.918Zm-1.492-.734a5.1,5.1,0,0,0-.812-3.105,2.68,2.68,0,0,0-2.273-1.082A2.651,2.651,0,0,0,28.367-9.16a5,5,0,0,0-.84,3v.836a5.107,5.107,0,0,0,.824,3.082,2.662,2.662,0,0,0,2.27,1.121,2.652,2.652,0,0,0,2.25-1.059,5.079,5.079,0,0,0,.82-3.035ZM31.34-14.422h1.75L31-12.125l-1.164,0ZM46.176,0H44.668L38.941-8.766V0H37.434V-11.375h1.508l5.742,8.8v-8.8h1.492Z" transform="translate(1901 -8944.49)" fill="#12263f" opacity="0.8"/>
    <path id="Trazado_605815" data-name="Trazado 605815" d="M-26.758-2.977h-4.766L-32.594,0h-1.547L-29.8-11.375h1.313L-24.133,0h-1.539ZM-31.07-4.2H-27.2l-1.937-5.32ZM-13.859,0h-1.508l-5.727-8.766V0H-22.6V-11.375h1.508l5.742,8.8v-8.8h1.492Zm9.086-2.977H-9.539L-10.609,0h-1.547l4.344-11.375H-6.5L-2.148,0H-3.687ZM-9.086-4.2h3.867l-1.937-5.32Zm2.672-10.2h1.75l-2.094,2.3-1.164,0Zm7.3,13.18H6.281V0h-6.9V-11.375H.891ZM9.6,0H8.1V-11.375H9.6ZM15.7-5.07a7.053,7.053,0,0,1-2.809-1.363,2.6,2.6,0,0,1-.879-2,2.751,2.751,0,0,1,1.074-2.223,4.269,4.269,0,0,1,2.793-.879,4.66,4.66,0,0,1,2.09.453,3.436,3.436,0,0,1,1.422,1.25,3.2,3.2,0,0,1,.5,1.742H18.383a2.08,2.08,0,0,0-.656-1.627,2.669,2.669,0,0,0-1.852-.592,2.732,2.732,0,0,0-1.73.489,1.632,1.632,0,0,0-.621,1.358,1.468,1.468,0,0,0,.59,1.178,5.785,5.785,0,0,0,2.008.88,9.316,9.316,0,0,1,2.219.88A3.367,3.367,0,0,1,19.527-4.4a2.861,2.861,0,0,1,.387,1.508A2.658,2.658,0,0,1,18.836-.676a4.6,4.6,0,0,1-2.883.832,5.347,5.347,0,0,1-2.187-.449A3.681,3.681,0,0,1,12.2-1.523,3,3,0,0,1,11.648-3.3h1.508a1.959,1.959,0,0,0,.762,1.629,3.207,3.207,0,0,0,2.035.6,2.948,2.948,0,0,0,1.82-.484,1.573,1.573,0,0,0,.633-1.32,1.545,1.545,0,0,0-.586-1.293A6.755,6.755,0,0,0,15.7-5.07ZM23.445,0h-1.5V-11.375h1.5Zm6.094-5.07A7.053,7.053,0,0,1,26.73-6.434a2.6,2.6,0,0,1-.879-2,2.751,2.751,0,0,1,1.074-2.223,4.269,4.269,0,0,1,2.793-.879,4.66,4.66,0,0,1,2.09.453,3.436,3.436,0,0,1,1.422,1.25,3.2,3.2,0,0,1,.5,1.742H32.227a2.08,2.08,0,0,0-.656-1.627,2.669,2.669,0,0,0-1.852-.592,2.732,2.732,0,0,0-1.73.489,1.632,1.632,0,0,0-.621,1.358,1.468,1.468,0,0,0,.59,1.178,5.785,5.785,0,0,0,2.008.88,9.316,9.316,0,0,1,2.219.88A3.367,3.367,0,0,1,33.371-4.4a2.861,2.861,0,0,1,.387,1.508A2.658,2.658,0,0,1,32.68-.676,4.6,4.6,0,0,1,29.8.156a5.347,5.347,0,0,1-2.187-.449,3.681,3.681,0,0,1-1.566-1.23A3,3,0,0,1,25.492-3.3H27a1.959,1.959,0,0,0,.762,1.629,3.207,3.207,0,0,0,2.035.6,2.948,2.948,0,0,0,1.82-.484,1.573,1.573,0,0,0,.633-1.32,1.545,1.545,0,0,0-.586-1.293A6.755,6.755,0,0,0,29.539-5.07Z" transform="translate(1325 -8944.49)" fill="#12263f" opacity="0.8"/>
    <path id="Trazado_605813" data-name="Trazado 605813" d="M-34.738-5.258h-4.93v4.031h5.727V0h-7.227V-11.375h7.148v1.227h-5.648v3.664h4.93Zm7.43-6.117H-25.8V-3.32a3.336,3.336,0,0,1-.98,2.555,3.66,3.66,0,0,1-2.613.922,3.762,3.762,0,0,1-2.641-.867,3.132,3.132,0,0,1-.945-2.43h1.5a2.086,2.086,0,0,0,.535,1.523,2.073,2.073,0,0,0,1.551.547,2.012,2.012,0,0,0,1.5-.586A2.27,2.27,0,0,0-27.309-3.3Zm10.492,6.117h-4.93v4.031h5.727V0h-7.227V-11.375H-16.1v1.227h-5.648v3.664h4.93ZM-5.785-3.609A4.185,4.185,0,0,1-7.117-.824a4.365,4.365,0,0,1-2.98.98,4.008,4.008,0,0,1-3.23-1.445,5.815,5.815,0,0,1-1.215-3.867V-6.25a6.481,6.481,0,0,1,.566-2.789,4.231,4.231,0,0,1,1.605-1.848,4.47,4.47,0,0,1,2.406-.645A4.11,4.11,0,0,1-7.059-10.52a4.235,4.235,0,0,1,1.273,2.8H-7.293a3.268,3.268,0,0,0-.848-1.975A2.565,2.565,0,0,0-9.965-10.3a2.684,2.684,0,0,0-2.254,1.063,4.882,4.882,0,0,0-.816,3.026v1.1a5.018,5.018,0,0,0,.773,2.948A2.5,2.5,0,0,0-10.1-1.07,2.887,2.887,0,0,0-8.18-1.637a3.143,3.143,0,0,0,.887-1.973ZM4.27-11.375v7.734A3.628,3.628,0,0,1,3.258-1.008,4.077,4.077,0,0,1,.535.141l-.4.016A4.258,4.258,0,0,1-2.84-.852,3.6,3.6,0,0,1-3.965-3.625v-7.75H-2.48v7.7A2.6,2.6,0,0,0-1.8-1.754,2.612,2.612,0,0,0,.137-1.07a2.63,2.63,0,0,0,1.949-.68,2.6,2.6,0,0,0,.676-1.914v-7.711ZM15-3.609A4.185,4.185,0,0,1,13.672-.824a4.365,4.365,0,0,1-2.98.98,4.008,4.008,0,0,1-3.23-1.445A5.815,5.815,0,0,1,6.246-5.156V-6.25a6.481,6.481,0,0,1,.566-2.789,4.231,4.231,0,0,1,1.605-1.848,4.47,4.47,0,0,1,2.406-.645A4.11,4.11,0,0,1,13.73-10.52,4.235,4.235,0,0,1,15-7.719H13.5a3.268,3.268,0,0,0-.848-1.975,2.565,2.565,0,0,0-1.824-.611A2.684,2.684,0,0,0,8.57-9.241a4.882,4.882,0,0,0-.816,3.026v1.1a5.018,5.018,0,0,0,.773,2.948A2.5,2.5,0,0,0,10.691-1.07a2.887,2.887,0,0,0,1.918-.566A3.143,3.143,0,0,0,13.5-3.609ZM18.66,0h-1.5V-11.375h1.5ZM30.152-5.32A7.037,7.037,0,0,1,29.59-2.4,4.261,4.261,0,0,1,28-.5,4.385,4.385,0,0,1,25.59.156,4.347,4.347,0,0,1,23.207-.5a4.363,4.363,0,0,1-1.613-1.883A6.752,6.752,0,0,1,21-5.219v-.82a6.953,6.953,0,0,1,.57-2.9,4.347,4.347,0,0,1,1.613-1.926,4.329,4.329,0,0,1,2.387-.668,4.41,4.41,0,0,1,2.41.66A4.253,4.253,0,0,1,29.59-8.957a7.071,7.071,0,0,1,.563,2.918ZM28.66-6.055a5.1,5.1,0,0,0-.812-3.105,2.68,2.68,0,0,0-2.273-1.082A2.651,2.651,0,0,0,23.336-9.16a5,5,0,0,0-.84,3v.836a5.107,5.107,0,0,0,.824,3.082,2.662,2.662,0,0,0,2.27,1.121,2.652,2.652,0,0,0,2.25-1.059,5.079,5.079,0,0,0,.82-3.035Zm-2.352-8.367h1.75l-2.094,2.3-1.164,0ZM41.145,0H39.637L33.91-8.766V0H32.4V-11.375H33.91l5.742,8.8v-8.8h1.492Z" transform="translate(1709 -8944.49)" fill="#12263f" opacity="0.8"/>
    <path id="Trazado_605811" data-name="Trazado 605811" d="M-16.641-3.609A4.185,4.185,0,0,1-17.973-.824a4.365,4.365,0,0,1-2.98.98,4.008,4.008,0,0,1-3.23-1.445A5.815,5.815,0,0,1-25.4-5.156V-6.25a6.481,6.481,0,0,1,.566-2.789,4.231,4.231,0,0,1,1.605-1.848,4.47,4.47,0,0,1,2.406-.645,4.11,4.11,0,0,1,2.906,1.012,4.235,4.235,0,0,1,1.273,2.8h-1.508A3.268,3.268,0,0,0-19-9.693,2.565,2.565,0,0,0-20.82-10.3a2.684,2.684,0,0,0-2.254,1.063,4.882,4.882,0,0,0-.816,3.026v1.1a5.018,5.018,0,0,0,.773,2.948A2.5,2.5,0,0,0-20.953-1.07a2.886,2.886,0,0,0,1.918-.566,3.143,3.143,0,0,0,.887-1.973ZM-12.984,0h-1.5V-11.375h1.5Zm9.172-5.258h-4.93v4.031h5.727V0h-7.227V-11.375h7.148v1.227H-8.742v3.664h4.93ZM3.023-4.6H.352V0H-1.156V-11.375H2.609a4.457,4.457,0,0,1,2.957.875A3.148,3.148,0,0,1,6.6-7.953,3.062,3.062,0,0,1,6.027-6.1a3.428,3.428,0,0,1-1.6,1.18L7.1-.094V0H5.492ZM.352-5.828h2.3a2.6,2.6,0,0,0,1.777-.579,1.959,1.959,0,0,0,.66-1.55,2.062,2.062,0,0,0-.629-1.62,2.663,2.663,0,0,0-1.816-.571H.352ZM12.875-4.6H10.2V0H8.7V-11.375h3.766a4.457,4.457,0,0,1,2.957.875,3.148,3.148,0,0,1,1.035,2.547A3.062,3.062,0,0,1,15.879-6.1a3.428,3.428,0,0,1-1.6,1.18L16.953-.094V0H15.344ZM10.2-5.828h2.3a2.6,2.6,0,0,0,1.777-.579,1.959,1.959,0,0,0,.66-1.55,2.062,2.062,0,0,0-.629-1.62,2.663,2.663,0,0,0-1.816-.571H10.2Zm14.781.57h-4.93v4.031h5.727V0H18.555V-11.375H25.7v1.227H20.055v3.664h4.93Z" transform="translate(2093 -8944.49)" fill="#12263f" opacity="0.8"/>
    <path id="Unión_57" data-name="Unión 57" d="M0,0H21.872V12.083H0Z" transform="translate(1234.164 -8944.772) rotate(180)" fill="#bec1c7"/>
    <path id="Unión_58" data-name="Unión 58" d="M19.62,14.01,0,28.021V0Z" transform="translate(1225.45 -8964.246)" fill="#bec1c7"/>
    <path id="Unión_57-2" data-name="Unión 57" d="M0,0H21.872V12.083H0Z" transform="translate(1618.164 -8944.772) rotate(180)" fill="#bec1c7"/>
    <path id="Unión_58-2" data-name="Unión 58" d="M19.62,14.01,0,28.021V0Z" transform="translate(1609.45 -8964.246)" fill="#bec1c7"/>
    <path id="Unión_57-3" data-name="Unión 57" d="M0,0H21.872V12.083H0Z" transform="translate(2002.164 -8944.772) rotate(180)" fill="#bec1c7"/>
    <path id="Unión_58-3" data-name="Unión 58" d="M19.62,14.01,0,28.021V0Z" transform="translate(1993.45 -8964.246)" fill="#bec1c7"/>
    <path id="Unión_57-4" data-name="Unión 57" d="M0,0H21.872V12.083H0Z" transform="translate(1426.164 -8944.772) rotate(180)" fill="#bec1c7"/>
    <path id="Unión_58-4" data-name="Unión 58" d="M19.62,14.01,0,28.021V0Z" transform="translate(1417.45 -8964.246)" fill="#bec1c7"/>
    <path id="Unión_57-5" data-name="Unión 57" d="M0,0H21.872V12.083H0Z" transform="translate(1810.164 -8944.772) rotate(180)" fill="#bec1c7"/>
    <path id="Unión_58-5" data-name="Unión 58" d="M19.62,14.01,0,28.021V0Z" transform="translate(1801.45 -8964.246)" fill="#bec1c7"/>
  </g>
</svg>
