<svg xmlns="http://www.w3.org/2000/svg" width="1134" height="161" viewBox="0 0 1134 161">
  <g id="Grupo_889596" data-name="Grupo 889596" transform="translate(-689 6962)">
    <g id="Trazado_605880" data-name="Trazado 605880" transform="translate(787 -6885)" fill="#fff">
      <path d="M 126 82 L 10 82 C 5.588779926300049 82 2 78.41121673583984 2 74 L 2 10 C 2 5.588779926300049 5.588779926300049 2 10 2 L 126 2 C 130.4112243652344 2 134 5.588779926300049 134 10 L 134 74 C 134 78.41121673583984 130.4112243652344 82 126 82 Z" stroke="none"/>
      <path d="M 10 4 C 6.69158935546875 4 4 6.691581726074219 4 10 L 4 74 C 4 77.30841827392578 6.69158935546875 80 10 80 L 126 80 C 129.3084106445312 80 132 77.30841827392578 132 74 L 132 10 C 132 6.691581726074219 129.3084106445312 4 126 4 L 10 4 M 10 0 L 126 0 C 131.5228271484375 0 136 4.477142333984375 136 10 L 136 74 C 136 79.52285766601562 131.5228271484375 84 126 84 L 10 84 C 4.477142333984375 84 0 79.52285766601562 0 74 L 0 10 C 0 4.477142333984375 4.477142333984375 0 10 0 Z" stroke="none" fill="#12263f"/>
    </g>
    <g id="Trazado_605881" data-name="Trazado 605881" transform="translate(987 -6885)" fill="#fff">
      <path d="M 126 82 L 10 82 C 5.588779926300049 82 2 78.41121673583984 2 74 L 2 10 C 2 5.588779926300049 5.588779926300049 2 10 2 L 126 2 C 130.4112243652344 2 134 5.588779926300049 134 10 L 134 74 C 134 78.41121673583984 130.4112243652344 82 126 82 Z" stroke="none"/>
      <path d="M 10 4 C 6.69158935546875 4 4 6.691581726074219 4 10 L 4 74 C 4 77.30841827392578 6.69158935546875 80 10 80 L 126 80 C 129.3084106445312 80 132 77.30841827392578 132 74 L 132 10 C 132 6.691581726074219 129.3084106445312 4 126 4 L 10 4 M 10 0 L 126 0 C 131.5228271484375 0 136 4.477142333984375 136 10 L 136 74 C 136 79.52285766601562 131.5228271484375 84 126 84 L 10 84 C 4.477142333984375 84 0 79.52285766601562 0 74 L 0 10 C 0 4.477142333984375 4.477142333984375 0 10 0 Z" stroke="none" fill="#12263f"/>
    </g>
    <g id="Trazado_605884" data-name="Trazado 605884" transform="translate(1186 -6885)" fill="#fff">
      <path d="M 126 82 L 10 82 C 5.588779926300049 82 2 78.41121673583984 2 74 L 2 10 C 2 5.588779926300049 5.588779926300049 2 10 2 L 126 2 C 130.4112243652344 2 134 5.588779926300049 134 10 L 134 74 C 134 78.41121673583984 130.4112243652344 82 126 82 Z" stroke="none"/>
      <path d="M 10 4 C 6.69158935546875 4 4 6.691581726074219 4 10 L 4 74 C 4 77.30841827392578 6.69158935546875 80 10 80 L 126 80 C 129.3084106445312 80 132 77.30841827392578 132 74 L 132 10 C 132 6.691581726074219 129.3084106445312 4 126 4 L 10 4 M 10 0 L 126 0 C 131.5228271484375 0 136 4.477142333984375 136 10 L 136 74 C 136 79.52285766601562 131.5228271484375 84 126 84 L 10 84 C 4.477142333984375 84 0 79.52285766601562 0 74 L 0 10 C 0 4.477142333984375 4.477142333984375 0 10 0 Z" stroke="none" fill="#12263f"/>
    </g>
    <g id="Trazado_605885" data-name="Trazado 605885" transform="translate(1385 -6886)" fill="#fff">
      <path d="M 126 82 L 10 82 C 5.588779926300049 82 2 78.41121673583984 2 74 L 2 10 C 2 5.588779926300049 5.588779926300049 2 10 2 L 126 2 C 130.4112243652344 2 134 5.588779926300049 134 10 L 134 74 C 134 78.41121673583984 130.4112243652344 82 126 82 Z" stroke="none"/>
      <path d="M 10 4 C 6.69158935546875 4 4 6.691581726074219 4 10 L 4 74 C 4 77.30841827392578 6.69158935546875 80 10 80 L 126 80 C 129.3084106445312 80 132 77.30841827392578 132 74 L 132 10 C 132 6.691581726074219 129.3084106445312 4 126 4 L 10 4 M 10 0 L 126 0 C 131.5228271484375 0 136 4.477142333984375 136 10 L 136 74 C 136 79.52285766601562 131.5228271484375 84 126 84 L 10 84 C 4.477142333984375 84 0 79.52285766601562 0 74 L 0 10 C 0 4.477142333984375 4.477142333984375 0 10 0 Z" stroke="none" fill="#12263f"/>
    </g>
    <g id="Trazado_605900" data-name="Trazado 605900" transform="translate(1584 -6886)" fill="#fff">
      <path d="M 126 82 L 10 82 C 5.588779926300049 82 2 78.41121673583984 2 74 L 2 10 C 2 5.588779926300049 5.588779926300049 2 10 2 L 126 2 C 130.4112243652344 2 134 5.588779926300049 134 10 L 134 74 C 134 78.41121673583984 130.4112243652344 82 126 82 Z" stroke="none"/>
      <path d="M 10 4 C 6.69158935546875 4 4 6.691581726074219 4 10 L 4 74 C 4 77.30841827392578 6.69158935546875 80 10 80 L 126 80 C 129.3084106445312 80 132 77.30841827392578 132 74 L 132 10 C 132 6.691581726074219 129.3084106445312 4 126 4 L 10 4 M 10 0 L 126 0 C 131.5228271484375 0 136 4.477142333984375 136 10 L 136 74 C 136 79.52285766601562 131.5228271484375 84 126 84 L 10 84 C 4.477142333984375 84 0 79.52285766601562 0 74 L 0 10 C 0 4.477142333984375 4.477142333984375 0 10 0 Z" stroke="none" fill="#12263f"/>
    </g>
    <path id="Trazado_604784" data-name="Trazado 604784" d="M-435-8382.5h48.672" transform="translate(1358 1538)" fill="none" stroke="#12263f" stroke-width="4"/>
    <path id="Trazado_604786" data-name="Trazado 604786" d="M-435-8382.5h48.672" transform="translate(1558 1538)" fill="none" stroke="#12263f" stroke-width="4"/>
    <path id="Trazado_604787" data-name="Trazado 604787" d="M-435-8382.5h48.672" transform="translate(1757 1538)" fill="none" stroke="#12263f" stroke-width="4"/>
    <path id="Trazado_604785" data-name="Trazado 604785" d="M-435-8382.5h48.672" transform="translate(1159 1538)" fill="none" stroke="#12263f" stroke-width="4"/>
    <path id="Trazado_605886" data-name="Trazado 605886" d="M11,0,22,20H0Z" transform="translate(986 -6855) rotate(90)" fill="#12263f"/>
    <path id="Trazado_605887" data-name="Trazado 605887" d="M11,0,22,20H0Z" transform="translate(1186 -6855) rotate(90)" fill="#12263f"/>
    <path id="Trazado_605888" data-name="Trazado 605888" d="M11,0,22,20H0Z" transform="translate(1385 -6855) rotate(90)" fill="#12263f"/>
    <path id="Trazado_604788" data-name="Trazado 604788" d="M-435-8382.5h48.672" transform="translate(1956 1538)" fill="none" stroke="#12263f" stroke-width="4"/>
    <path id="Polígono_51" data-name="Polígono 51" d="M11,0,22,20H0Z" transform="translate(1584 -6855) rotate(90)" fill="#12263f"/>
    <path id="Trazado_604788-2" data-name="Trazado 604788" d="M-435-8382.5h48.672" transform="translate(2155 1538)" fill="none" stroke="#12263f" stroke-width="4"/>
    <path id="Polígono_51-2" data-name="Polígono 51" d="M11,0,22,20H0Z" transform="translate(1783 -6855) rotate(90)" fill="#12263f"/>
    <path id="Trazado_605889" data-name="Trazado 605889" d="M11,0,22,20H0Z" transform="translate(787 -6855) rotate(90)" fill="#12263f"/>
    <path id="Trazado_605882" data-name="Trazado 605882" d="M11,0,22,20H0Z" transform="translate(1043 -6885) rotate(180)" fill="#12263f"/>
    <path id="Trazado_605890" data-name="Trazado 605890" d="M11,0,22,20H0Z" transform="translate(1240 -6885) rotate(180)" fill="#12263f"/>
    <g id="Trazado_605891" data-name="Trazado 605891" transform="translate(689 -6863)" fill="#12263f">
      <path d="M 20 38 C 15.19202995300293 38 10.67183017730713 36.12767028808594 7.272079944610596 32.72792053222656 C 3.872329950332642 29.32817077636719 2 24.80797958374023 2 20 C 2 15.19202995300293 3.872329950332642 10.67183017730713 7.272079944610596 7.272079944610596 C 10.67183017730713 3.872329950332642 15.19202995300293 2 20 2 C 24.80797958374023 2 29.32817077636719 3.872329950332642 32.72792053222656 7.272079944610596 C 36.12767028808594 10.67183017730713 38 15.19202995300293 38 20 C 38 24.80797958374023 36.12767028808594 29.32817077636719 32.72792053222656 32.72792053222656 C 29.32817077636719 36.12767028808594 24.80797958374023 38 20 38 Z" stroke="none"/>
      <path d="M 20 4 C 15.72624015808105 4 11.70829010009766 5.664291381835938 8.686290740966797 8.686290740966797 C 5.664291381835938 11.70829010009766 4 15.72624015808105 4 20 C 4 24.27375984191895 5.664291381835938 28.29170989990234 8.686290740966797 31.3137092590332 C 11.70829010009766 34.33570861816406 15.72624015808105 36 20 36 C 24.27375984191895 36 28.29170989990234 34.33570861816406 31.3137092590332 31.3137092590332 C 34.33570861816406 28.29170989990234 36 24.27375984191895 36 20 C 36 15.72624015808105 34.33570861816406 11.70829010009766 31.3137092590332 8.686290740966797 C 28.29170989990234 5.664291381835938 24.27375984191895 4 20 4 M 20 0 C 31.04570007324219 0 40 8.954299926757812 40 20 C 40 31.04570007324219 31.04570007324219 40 20 40 C 8.954299926757812 40 0 31.04570007324219 0 20 C 0 8.954299926757812 8.954299926757812 0 20 0 Z" stroke="none" fill="#12263f"/>
    </g>
    <g id="Trazado_605903" data-name="Trazado 605903" transform="translate(1783 -6863)" fill="none">
      <path d="M20,0A20,20,0,1,1,0,20,20,20,0,0,1,20,0Z" stroke="none"/>
      <path d="M 20 4 C 15.72624015808105 4 11.70829010009766 5.664291381835938 8.686290740966797 8.686290740966797 C 5.664291381835938 11.70829010009766 4 15.72624015808105 4 20 C 4 24.27375984191895 5.664291381835938 28.29170989990234 8.686290740966797 31.3137092590332 C 11.70829010009766 34.33570861816406 15.72624015808105 36 20 36 C 24.27375984191895 36 28.29170989990234 34.33570861816406 31.3137092590332 31.3137092590332 C 34.33570861816406 28.29170989990234 36 24.27375984191895 36 20 C 36 15.72624015808105 34.33570861816406 11.70829010009766 31.3137092590332 8.686290740966797 C 28.29170989990234 5.664291381835938 24.27375984191895 4 20 4 M 20 0 C 31.04570007324219 0 40 8.954299926757812 40 20 C 40 31.04570007324219 31.04570007324219 40 20 40 C 8.954299926757812 40 0 31.04570007324219 0 20 C 0 8.954299926757812 8.954299926757812 0 20 0 Z" stroke="none" fill="#12263f"/>
    </g>
    <path id="Trazado_605892" data-name="Trazado 605892" d="M60.379,10.055h-4.5v3.063H61.16V15H53.535V3.625h7.609v1.9H55.879V8.234h4.5Zm4.086-3.508.07.977a2.951,2.951,0,0,1,2.43-1.133,2.453,2.453,0,0,1,2,.789,3.682,3.682,0,0,1,.672,2.359V15H67.379V9.581a1.47,1.47,0,0,0-.312-1.045,1.4,1.4,0,0,0-1.039-.325,1.553,1.553,0,0,0-1.43.814V15H62.34V6.547ZM39.145,32.664a6.134,6.134,0,0,0-.812-.062,1.654,1.654,0,0,0-1.68.867V39H34.395V30.547h2.133l.063,1.008a2.092,2.092,0,0,1,1.883-1.164,2.366,2.366,0,0,1,.7.1Zm4.828,6.492a4.15,4.15,0,0,1-3.027-1.141,4.054,4.054,0,0,1-1.168-3.039v-.219a5.106,5.106,0,0,1,.492-2.277,3.612,3.612,0,0,1,1.395-1.547,3.914,3.914,0,0,1,2.059-.543,3.508,3.508,0,0,1,2.73,1.094,4.444,4.444,0,0,1,1,3.1v.922H42.066a2.1,2.1,0,0,0,.66,1.328,2,2,0,0,0,1.395.5,2.437,2.437,0,0,0,2.039-.945l1.109,1.242a3.389,3.389,0,0,1-1.375,1.121A4.511,4.511,0,0,1,43.973,39.156Zm-.258-6.945a1.411,1.411,0,0,0-1.09.455,2.357,2.357,0,0,0-.535,1.3H45.23v-.181a1.681,1.681,0,0,0-.406-1.165A1.456,1.456,0,0,0,43.715,32.211Zm4.688,2.5a4.954,4.954,0,0,1,.926-3.133,3,3,0,0,1,2.5-1.187,2.631,2.631,0,0,1,2.164.953l.094-.8h2.047v8.172a3.613,3.613,0,0,1-.5,1.93,3.236,3.236,0,0,1-1.418,1.25,4.985,4.985,0,0,1-2.141.43,4.635,4.635,0,0,1-1.812-.371A3.217,3.217,0,0,1,48.918,41l1-1.375a2.645,2.645,0,0,0,2.047.945,1.936,1.936,0,0,0,1.4-.48,1.8,1.8,0,0,0,.5-1.363v-.453a2.612,2.612,0,0,1-2.055.883,2.992,2.992,0,0,1-2.465-1.191A4.953,4.953,0,0,1,48.4,34.8Zm2.258.161a3.1,3.1,0,0,0,.461,1.809,1.465,1.465,0,0,0,1.266.655,1.567,1.567,0,0,0,1.477-.777V32.988a1.563,1.563,0,0,0-1.461-.777,1.474,1.474,0,0,0-1.277.667A3.5,3.5,0,0,0,50.66,34.872ZM60.246,39H57.98V30.547h2.266Zm-2.4-10.641a1.112,1.112,0,0,1,.34-.836,1.465,1.465,0,0,1,1.848,0,1.193,1.193,0,0,1,0,1.68,1.448,1.448,0,0,1-1.836,0A1.108,1.108,0,0,1,57.848,28.359Zm8.836,8.3a.727.727,0,0,0-.41-.652,4.659,4.659,0,0,0-1.316-.426q-3.016-.633-3.016-2.562a2.323,2.323,0,0,1,.934-1.879,3.766,3.766,0,0,1,2.441-.754,4.053,4.053,0,0,1,2.574.758,2.388,2.388,0,0,1,.965,1.969H66.6a1.092,1.092,0,0,0-.312-.8A1.322,1.322,0,0,0,65.309,32a1.351,1.351,0,0,0-.883.258.814.814,0,0,0-.312.656.7.7,0,0,0,.355.605,3.657,3.657,0,0,0,1.2.4,9.8,9.8,0,0,1,1.422.379,2.336,2.336,0,0,1,1.789,2.273,2.2,2.2,0,0,1-.992,1.871,4.28,4.28,0,0,1-2.562.715,4.47,4.47,0,0,1-1.887-.379,3.166,3.166,0,0,1-1.293-1.039,2.414,2.414,0,0,1-.469-1.426h2.141a1.179,1.179,0,0,0,.445.922,1.766,1.766,0,0,0,1.109.32,1.635,1.635,0,0,0,.98-.246A.766.766,0,0,0,66.684,36.664Zm6.352-8.2v2.078H74.48V32.2H73.035v4.219a1.007,1.007,0,0,0,.18.672.9.9,0,0,0,.688.2,3.6,3.6,0,0,0,.664-.055v1.711a4.648,4.648,0,0,1-1.367.2,2.156,2.156,0,0,1-2.422-2.4V32.2H69.543V30.547h1.234V28.469Zm7.453,4.2a6.134,6.134,0,0,0-.812-.062,1.654,1.654,0,0,0-1.68.867V39H75.738V30.547h2.133l.063,1.008a2.092,2.092,0,0,1,1.883-1.164,2.366,2.366,0,0,1,.7.1Zm.453,2.031a5.013,5.013,0,0,1,.484-2.242A3.546,3.546,0,0,1,82.82,30.93a4.069,4.069,0,0,1,2.113-.539,3.849,3.849,0,0,1,2.793,1.047,4.2,4.2,0,0,1,1.207,2.844l.016.578a4.418,4.418,0,0,1-1.086,3.121,4.209,4.209,0,0,1-5.832,0,4.5,4.5,0,0,1-1.09-3.187Zm2.258.16a3.16,3.16,0,0,0,.453,1.843,1.628,1.628,0,0,0,2.578.008,3.457,3.457,0,0,0,.461-2.015,3.128,3.128,0,0,0-.461-1.831,1.5,1.5,0,0,0-1.3-.649,1.474,1.474,0,0,0-1.281.646A3.516,3.516,0,0,0,83.2,34.856Z" transform="translate(794 -6864)" fill="#12263f"/>
    <path id="Trazado_605893" data-name="Trazado 605893" d="M13.211,10.055h-4.5v3.063h5.281V15H6.367V3.625h7.609v1.9H8.711V8.234h4.5ZM17.3,6.547l.07.977A2.951,2.951,0,0,1,19.8,6.391a2.453,2.453,0,0,1,2,.789,3.682,3.682,0,0,1,.672,2.359V15H20.211V9.581A1.47,1.47,0,0,0,19.9,8.536a1.4,1.4,0,0,0-1.039-.325,1.553,1.553,0,0,0-1.43.814V15H15.172V6.547Zm15.445,6.117a.727.727,0,0,0-.41-.652,4.659,4.659,0,0,0-1.316-.426Q28,10.953,28,9.023a2.323,2.323,0,0,1,.934-1.879,3.766,3.766,0,0,1,2.441-.754,4.053,4.053,0,0,1,2.574.758,2.388,2.388,0,0,1,.965,1.969H32.656a1.092,1.092,0,0,0-.312-.8A1.322,1.322,0,0,0,31.367,8a1.351,1.351,0,0,0-.883.258.814.814,0,0,0-.312.656.7.7,0,0,0,.355.605,3.657,3.657,0,0,0,1.2.4,9.8,9.8,0,0,1,1.422.379,2.336,2.336,0,0,1,1.789,2.273,2.2,2.2,0,0,1-.992,1.871,4.28,4.28,0,0,1-2.562.715,4.47,4.47,0,0,1-1.887-.379A3.166,3.166,0,0,1,28.2,13.738a2.414,2.414,0,0,1-.469-1.426h2.141a1.179,1.179,0,0,0,.445.922,1.766,1.766,0,0,0,1.109.32,1.635,1.635,0,0,0,.98-.246A.766.766,0,0,0,32.742,12.664Zm7.539,2.492a4.15,4.15,0,0,1-3.027-1.141,4.054,4.054,0,0,1-1.168-3.039v-.219a5.106,5.106,0,0,1,.492-2.277,3.612,3.612,0,0,1,1.395-1.547,3.914,3.914,0,0,1,2.059-.543,3.508,3.508,0,0,1,2.73,1.094,4.444,4.444,0,0,1,1,3.1v.922H38.375a2.1,2.1,0,0,0,.66,1.328,2,2,0,0,0,1.395.5,2.437,2.437,0,0,0,2.039-.945l1.109,1.242A3.389,3.389,0,0,1,42.2,14.754,4.511,4.511,0,0,1,40.281,15.156Zm-.258-6.945a1.411,1.411,0,0,0-1.09.455,2.357,2.357,0,0,0-.535,1.3h3.141V9.788a1.681,1.681,0,0,0-.406-1.165A1.456,1.456,0,0,0,40.023,8.211ZM47.422,15H45.156V3h2.266Zm5.75.156a4.15,4.15,0,0,1-3.027-1.141,4.054,4.054,0,0,1-1.168-3.039v-.219a5.106,5.106,0,0,1,.492-2.277,3.612,3.612,0,0,1,1.395-1.547,3.914,3.914,0,0,1,2.059-.543,3.508,3.508,0,0,1,2.73,1.094,4.444,4.444,0,0,1,1,3.1v.922H51.266a2.1,2.1,0,0,0,.66,1.328,2,2,0,0,0,1.395.5,2.437,2.437,0,0,0,2.039-.945l1.109,1.242a3.389,3.389,0,0,1-1.375,1.121A4.511,4.511,0,0,1,53.172,15.156Zm-.258-6.945a1.411,1.411,0,0,0-1.09.455,2.357,2.357,0,0,0-.535,1.3H54.43V9.788a1.681,1.681,0,0,0-.406-1.165A1.456,1.456,0,0,0,52.914,8.211Zm8.531,5.125a1.481,1.481,0,0,0,1.016-.344,1.2,1.2,0,0,0,.406-.914h2.117a2.9,2.9,0,0,1-.469,1.574,3.093,3.093,0,0,1-1.262,1.109,3.949,3.949,0,0,1-1.77.395A3.67,3.67,0,0,1,58.625,14a4.56,4.56,0,0,1-1.047-3.184v-.148a4.508,4.508,0,0,1,1.039-3.117,3.627,3.627,0,0,1,2.852-1.164,3.555,3.555,0,0,1,2.543.9,3.2,3.2,0,0,1,.973,2.4H62.867a1.551,1.551,0,0,0-.406-1.072,1.51,1.51,0,0,0-2.223.163,3.333,3.333,0,0,0-.4,1.866v.235a3.375,3.375,0,0,0,.4,1.878A1.377,1.377,0,0,0,61.445,13.336Zm8.344,0a1.481,1.481,0,0,0,1.016-.344,1.2,1.2,0,0,0,.406-.914h2.117a2.9,2.9,0,0,1-.469,1.574A3.093,3.093,0,0,1,71.6,14.762a3.949,3.949,0,0,1-1.77.395A3.67,3.67,0,0,1,66.969,14a4.56,4.56,0,0,1-1.047-3.184v-.148a4.508,4.508,0,0,1,1.039-3.117,3.627,3.627,0,0,1,2.852-1.164,3.555,3.555,0,0,1,2.543.9,3.2,3.2,0,0,1,.973,2.4H71.211A1.551,1.551,0,0,0,70.8,8.623a1.51,1.51,0,0,0-2.223.163,3.333,3.333,0,0,0-.4,1.866v.235a3.375,3.375,0,0,0,.4,1.878A1.377,1.377,0,0,0,69.789,13.336ZM77,15H74.734V6.547H77ZM74.6,4.359a1.112,1.112,0,0,1,.34-.836,1.465,1.465,0,0,1,1.848,0,1.105,1.105,0,0,1,.344.836,1.108,1.108,0,0,1-.348.844,1.448,1.448,0,0,1-1.836,0A1.108,1.108,0,0,1,74.6,4.359ZM78.508,10.7a5.013,5.013,0,0,1,.484-2.242A3.546,3.546,0,0,1,80.387,6.93,4.069,4.069,0,0,1,82.5,6.391a3.849,3.849,0,0,1,2.793,1.047A4.2,4.2,0,0,1,86.5,10.281l.016.578A4.418,4.418,0,0,1,85.43,13.98a4.209,4.209,0,0,1-5.832,0,4.5,4.5,0,0,1-1.09-3.187Zm2.258.16a3.16,3.16,0,0,0,.453,1.843,1.628,1.628,0,0,0,2.578.008,3.457,3.457,0,0,0,.461-2.015A3.128,3.128,0,0,0,83.8,8.86a1.5,1.5,0,0,0-1.3-.649,1.474,1.474,0,0,0-1.281.646A3.516,3.516,0,0,0,80.766,10.856ZM82.945,3h2.461L83.242,5.422H81.406Zm7.039,3.547.07.977a2.951,2.951,0,0,1,2.43-1.133,2.453,2.453,0,0,1,2,.789,3.682,3.682,0,0,1,.672,2.359V15H92.9V9.581a1.47,1.47,0,0,0-.312-1.045,1.4,1.4,0,0,0-1.039-.325,1.553,1.553,0,0,0-1.43.814V15H87.859V6.547ZM100.5,10.711a5.094,5.094,0,0,1,.887-3.148,2.877,2.877,0,0,1,2.426-1.172,2.589,2.589,0,0,1,2.039.922V3h2.266V15h-2.039l-.109-.9a2.657,2.657,0,0,1-2.172,1.055A2.869,2.869,0,0,1,101.4,13.98,5.258,5.258,0,0,1,100.5,10.711Zm2.258.161a3.355,3.355,0,0,0,.414,1.829,1.348,1.348,0,0,0,1.2.636,1.51,1.51,0,0,0,1.477-.887V9.1a1.489,1.489,0,0,0-1.461-.887Q102.758,8.211,102.758,10.872Zm11,4.285a4.15,4.15,0,0,1-3.027-1.141,4.054,4.054,0,0,1-1.168-3.039v-.219a5.106,5.106,0,0,1,.492-2.277,3.612,3.612,0,0,1,1.395-1.547,3.914,3.914,0,0,1,2.059-.543,3.508,3.508,0,0,1,2.73,1.094,4.444,4.444,0,0,1,1,3.1v.922h-5.383a2.1,2.1,0,0,0,.66,1.328,2,2,0,0,0,1.395.5,2.437,2.437,0,0,0,2.039-.945l1.109,1.242a3.389,3.389,0,0,1-1.375,1.121A4.511,4.511,0,0,1,113.758,15.156ZM113.5,8.211a1.411,1.411,0,0,0-1.09.455,2.357,2.357,0,0,0-.535,1.3h3.141V9.788a1.681,1.681,0,0,0-.406-1.165A1.456,1.456,0,0,0,113.5,8.211ZM10.953,39H8.688V27h2.266Zm6.758,0a2.507,2.507,0,0,1-.227-.758,2.732,2.732,0,0,1-2.133.914,3,3,0,0,1-2.059-.719,2.312,2.312,0,0,1-.816-1.812,2.389,2.389,0,0,1,1-2.062,4.915,4.915,0,0,1,2.879-.727h1.039v-.484a1.393,1.393,0,0,0-.3-.937,1.183,1.183,0,0,0-.949-.352,1.345,1.345,0,0,0-.895.273.929.929,0,0,0-.324.75H12.664a2.268,2.268,0,0,1,.453-1.359,3,3,0,0,1,1.281-.98,4.669,4.669,0,0,1,1.859-.355,3.689,3.689,0,0,1,2.48.785,2.747,2.747,0,0,1,.918,2.207v3.664a4.041,4.041,0,0,0,.336,1.82V39Zm-1.867-1.57a1.945,1.945,0,0,0,.922-.223,1.462,1.462,0,0,0,.625-.6V35.156h-.844q-1.7,0-1.8,1.172l-.008.133a.9.9,0,0,0,.3.7A1.153,1.153,0,0,0,15.844,37.43Zm13.422,1.727a4.15,4.15,0,0,1-3.027-1.141,4.054,4.054,0,0,1-1.168-3.039v-.219a5.106,5.106,0,0,1,.492-2.277,3.612,3.612,0,0,1,1.395-1.547,3.914,3.914,0,0,1,2.059-.543,3.508,3.508,0,0,1,2.73,1.094,4.444,4.444,0,0,1,1,3.1v.922H27.359a2.1,2.1,0,0,0,.66,1.328,2,2,0,0,0,1.395.5,2.437,2.437,0,0,0,2.039-.945l1.109,1.242a3.389,3.389,0,0,1-1.375,1.121A4.511,4.511,0,0,1,29.266,39.156Zm-.258-6.945a1.411,1.411,0,0,0-1.09.455,2.357,2.357,0,0,0-.535,1.3h3.141v-.181a1.681,1.681,0,0,0-.406-1.165A1.456,1.456,0,0,0,29.008,32.211ZM38.6,36.664a.727.727,0,0,0-.41-.652,4.659,4.659,0,0,0-1.316-.426q-3.016-.633-3.016-2.562a2.323,2.323,0,0,1,.934-1.879,3.766,3.766,0,0,1,2.441-.754,4.053,4.053,0,0,1,2.574.758,2.388,2.388,0,0,1,.965,1.969H38.516a1.092,1.092,0,0,0-.312-.8A1.322,1.322,0,0,0,37.227,32a1.351,1.351,0,0,0-.883.258.814.814,0,0,0-.312.656.7.7,0,0,0,.355.605,3.657,3.657,0,0,0,1.2.4,9.8,9.8,0,0,1,1.422.379A2.336,2.336,0,0,1,40.8,36.57a2.205,2.205,0,0,1-.992,1.871,4.28,4.28,0,0,1-2.562.715,4.47,4.47,0,0,1-1.887-.379,3.166,3.166,0,0,1-1.293-1.039,2.414,2.414,0,0,1-.469-1.426h2.141a1.179,1.179,0,0,0,.445.922,1.766,1.766,0,0,0,1.109.32,1.635,1.635,0,0,0,.98-.246A.766.766,0,0,0,38.6,36.664Zm11.258-1.812a5.07,5.07,0,0,1-.887,3.129,2.843,2.843,0,0,1-2.395,1.176,2.633,2.633,0,0,1-2.07-.891V42.25H42.25v-11.7h2.094l.078.828a2.654,2.654,0,0,1,2.141-.984,2.862,2.862,0,0,1,2.43,1.156,5.207,5.207,0,0,1,.867,3.188ZM47.6,34.679a3.345,3.345,0,0,0-.418-1.826,1.36,1.36,0,0,0-1.215-.643,1.478,1.478,0,0,0-1.461.815V36.5a1.5,1.5,0,0,0,1.477.839Q47.6,37.336,47.6,34.679Zm7.547,4.477a4.15,4.15,0,0,1-3.027-1.141,4.054,4.054,0,0,1-1.168-3.039v-.219a5.106,5.106,0,0,1,.492-2.277,3.612,3.612,0,0,1,1.395-1.547,3.914,3.914,0,0,1,2.059-.543,3.508,3.508,0,0,1,2.73,1.094,4.444,4.444,0,0,1,1,3.1v.922H53.242a2.1,2.1,0,0,0,.66,1.328,2,2,0,0,0,1.395.5,2.437,2.437,0,0,0,2.039-.945l1.109,1.242a3.389,3.389,0,0,1-1.375,1.121A4.511,4.511,0,0,1,55.148,39.156Zm-.258-6.945a1.411,1.411,0,0,0-1.09.455,2.357,2.357,0,0,0-.535,1.3h3.141v-.181A1.681,1.681,0,0,0,56,32.623,1.456,1.456,0,0,0,54.891,32.211Zm8.531,5.125a1.481,1.481,0,0,0,1.016-.344,1.2,1.2,0,0,0,.406-.914h2.117a2.9,2.9,0,0,1-.469,1.574,3.093,3.093,0,0,1-1.262,1.109,3.949,3.949,0,0,1-1.77.395A3.67,3.67,0,0,1,60.6,38a4.56,4.56,0,0,1-1.047-3.184v-.148a4.508,4.508,0,0,1,1.039-3.117,3.627,3.627,0,0,1,2.852-1.164,3.555,3.555,0,0,1,2.543.9,3.2,3.2,0,0,1,.973,2.4H64.844a1.551,1.551,0,0,0-.406-1.072,1.51,1.51,0,0,0-2.223.163,3.333,3.333,0,0,0-.4,1.866v.235a3.375,3.375,0,0,0,.4,1.878A1.377,1.377,0,0,0,63.422,37.336ZM70.633,39H68.367V30.547h2.266Zm-2.4-10.641a1.112,1.112,0,0,1,.34-.836,1.465,1.465,0,0,1,1.848,0,1.193,1.193,0,0,1,0,1.68,1.448,1.448,0,0,1-1.836,0A1.108,1.108,0,0,1,68.234,28.359ZM77.391,39a2.507,2.507,0,0,1-.227-.758,2.732,2.732,0,0,1-2.133.914,3,3,0,0,1-2.059-.719,2.312,2.312,0,0,1-.816-1.812,2.389,2.389,0,0,1,1-2.062,4.915,4.915,0,0,1,2.879-.727H77.07v-.484a1.393,1.393,0,0,0-.3-.937,1.183,1.183,0,0,0-.949-.352,1.345,1.345,0,0,0-.895.273.929.929,0,0,0-.324.75H72.344a2.268,2.268,0,0,1,.453-1.359,3,3,0,0,1,1.281-.98,4.669,4.669,0,0,1,1.859-.355,3.689,3.689,0,0,1,2.48.785,2.747,2.747,0,0,1,.918,2.207v3.664a4.041,4.041,0,0,0,.336,1.82V39Zm-1.867-1.57a1.945,1.945,0,0,0,.922-.223,1.462,1.462,0,0,0,.625-.6V35.156h-.844q-1.7,0-1.8,1.172l-.008.133a.9.9,0,0,0,.3.7A1.153,1.153,0,0,0,75.523,37.43ZM83.453,39H81.188V27h2.266ZM87.7,39H85.43V30.547H87.7ZM85.3,28.359a1.112,1.112,0,0,1,.34-.836,1.465,1.465,0,0,1,1.848,0,1.193,1.193,0,0,1,0,1.68,1.448,1.448,0,0,1-1.836,0A1.108,1.108,0,0,1,85.3,28.359ZM89.2,34.711a5.094,5.094,0,0,1,.887-3.148,2.877,2.877,0,0,1,2.426-1.172,2.589,2.589,0,0,1,2.039.922V27H96.82V39H94.781l-.109-.9A2.657,2.657,0,0,1,92.5,39.156a2.869,2.869,0,0,1-2.395-1.176A5.258,5.258,0,0,1,89.2,34.711Zm2.258.161a3.355,3.355,0,0,0,.414,1.829,1.348,1.348,0,0,0,1.2.636,1.51,1.51,0,0,0,1.477-.887V33.1a1.489,1.489,0,0,0-1.461-.887Q91.461,32.211,91.461,34.872ZM103.469,39a2.507,2.507,0,0,1-.227-.758,2.732,2.732,0,0,1-2.133.914,3,3,0,0,1-2.059-.719,2.312,2.312,0,0,1-.816-1.812,2.389,2.389,0,0,1,1-2.062,4.915,4.915,0,0,1,2.879-.727h1.039v-.484a1.393,1.393,0,0,0-.3-.937,1.183,1.183,0,0,0-.949-.352,1.345,1.345,0,0,0-.895.273.929.929,0,0,0-.324.75H98.422a2.268,2.268,0,0,1,.453-1.359,3,3,0,0,1,1.281-.98,4.669,4.669,0,0,1,1.859-.355,3.689,3.689,0,0,1,2.48.785,2.747,2.747,0,0,1,.918,2.207v3.664a4.041,4.041,0,0,0,.336,1.82V39ZM101.6,37.43a1.945,1.945,0,0,0,.922-.223,1.462,1.462,0,0,0,.625-.6V35.156H102.3q-1.7,0-1.8,1.172l-.008.133a.9.9,0,0,0,.3.7A1.153,1.153,0,0,0,101.6,37.43Zm5.2-2.719a5.094,5.094,0,0,1,.887-3.148,2.877,2.877,0,0,1,2.426-1.172,2.589,2.589,0,0,1,2.039.922V27h2.266V39h-2.039l-.109-.9a2.657,2.657,0,0,1-2.172,1.055A2.869,2.869,0,0,1,107.7,37.98,5.258,5.258,0,0,1,106.8,34.711Zm2.258.161a3.355,3.355,0,0,0,.414,1.829,1.348,1.348,0,0,0,1.2.636,1.51,1.51,0,0,0,1.477-.887V33.1a1.489,1.489,0,0,0-1.461-.887Q109.055,32.211,109.055,34.872Z" transform="translate(994 -6864)" fill="#12263f"/>
    <path id="Trazado_605894" data-name="Trazado 605894" d="M60.379,10.055h-4.5v3.063H61.16V15H53.535V3.625h7.609v1.9H55.879V8.234h4.5Zm4.086-3.508.07.977a2.951,2.951,0,0,1,2.43-1.133,2.453,2.453,0,0,1,2,.789,3.682,3.682,0,0,1,.672,2.359V15H67.379V9.581a1.47,1.47,0,0,0-.312-1.045,1.4,1.4,0,0,0-1.039-.325,1.553,1.553,0,0,0-1.43.814V15H62.34V6.547ZM15.848,39a2.507,2.507,0,0,1-.227-.758,2.732,2.732,0,0,1-2.133.914,3,3,0,0,1-2.059-.719,2.312,2.312,0,0,1-.816-1.812,2.389,2.389,0,0,1,1-2.062,4.915,4.915,0,0,1,2.879-.727h1.039v-.484a1.393,1.393,0,0,0-.3-.937,1.183,1.183,0,0,0-.949-.352,1.345,1.345,0,0,0-.895.273.929.929,0,0,0-.324.75H10.8a2.268,2.268,0,0,1,.453-1.359,3,3,0,0,1,1.281-.98,4.669,4.669,0,0,1,1.859-.355,3.689,3.689,0,0,1,2.48.785,2.747,2.747,0,0,1,.918,2.207v3.664a4.041,4.041,0,0,0,.336,1.82V39ZM13.98,37.43a1.945,1.945,0,0,0,.922-.223,1.462,1.462,0,0,0,.625-.6V35.156h-.844q-1.7,0-1.8,1.172l-.008.133a.9.9,0,0,0,.3.7A1.153,1.153,0,0,0,13.98,37.43ZM19.2,34.711a4.954,4.954,0,0,1,.926-3.133,3,3,0,0,1,2.5-1.187,2.631,2.631,0,0,1,2.164.953l.094-.8h2.047v8.172a3.613,3.613,0,0,1-.5,1.93A3.236,3.236,0,0,1,25,41.9a4.985,4.985,0,0,1-2.141.43,4.635,4.635,0,0,1-1.812-.371A3.217,3.217,0,0,1,19.715,41l1-1.375a2.645,2.645,0,0,0,2.047.945,1.936,1.936,0,0,0,1.4-.48,1.8,1.8,0,0,0,.5-1.363v-.453a2.612,2.612,0,0,1-2.055.883,2.992,2.992,0,0,1-2.465-1.191A4.953,4.953,0,0,1,19.2,34.8Zm2.258.161a3.1,3.1,0,0,0,.461,1.809,1.465,1.465,0,0,0,1.266.655,1.567,1.567,0,0,0,1.477-.777V32.988a1.563,1.563,0,0,0-1.461-.777,1.474,1.474,0,0,0-1.277.667A3.5,3.5,0,0,0,21.457,34.872Zm11.094,4.285a4.15,4.15,0,0,1-3.027-1.141,4.054,4.054,0,0,1-1.168-3.039v-.219a5.106,5.106,0,0,1,.492-2.277,3.612,3.612,0,0,1,1.395-1.547,3.914,3.914,0,0,1,2.059-.543,3.508,3.508,0,0,1,2.73,1.094,4.444,4.444,0,0,1,1,3.1v.922H30.645a2.1,2.1,0,0,0,.66,1.328,2,2,0,0,0,1.395.5,2.437,2.437,0,0,0,2.039-.945l1.109,1.242a3.389,3.389,0,0,1-1.375,1.121A4.511,4.511,0,0,1,32.551,39.156Zm-.258-6.945a1.411,1.411,0,0,0-1.09.455,2.357,2.357,0,0,0-.535,1.3h3.141v-.181a1.681,1.681,0,0,0-.406-1.165A1.456,1.456,0,0,0,32.293,32.211Zm7.094-1.664.07.977a2.951,2.951,0,0,1,2.43-1.133,2.453,2.453,0,0,1,2,.789,3.682,3.682,0,0,1,.672,2.359V39H42.3V33.581a1.47,1.47,0,0,0-.312-1.045,1.4,1.4,0,0,0-1.039-.325,1.553,1.553,0,0,0-1.43.814V39H37.262V30.547Zm6.531,4.164a5.094,5.094,0,0,1,.887-3.148,2.877,2.877,0,0,1,2.426-1.172,2.589,2.589,0,0,1,2.039.922V27h2.266V39H51.5l-.109-.9a2.657,2.657,0,0,1-2.172,1.055A2.869,2.869,0,0,1,46.82,37.98,5.258,5.258,0,0,1,45.918,34.711Zm2.258.161A3.355,3.355,0,0,0,48.59,36.7a1.348,1.348,0,0,0,1.2.636,1.51,1.51,0,0,0,1.477-.887V33.1a1.489,1.489,0,0,0-1.461-.887Q48.176,32.211,48.176,34.872ZM60.184,39a2.507,2.507,0,0,1-.227-.758,2.732,2.732,0,0,1-2.133.914,3,3,0,0,1-2.059-.719,2.312,2.312,0,0,1-.816-1.812,2.389,2.389,0,0,1,1-2.062,4.915,4.915,0,0,1,2.879-.727h1.039v-.484a1.393,1.393,0,0,0-.3-.937,1.183,1.183,0,0,0-.949-.352,1.345,1.345,0,0,0-.895.273.929.929,0,0,0-.324.75H55.137a2.268,2.268,0,0,1,.453-1.359,3,3,0,0,1,1.281-.98,4.669,4.669,0,0,1,1.859-.355,3.689,3.689,0,0,1,2.48.785,2.747,2.747,0,0,1,.918,2.207v3.664a4.041,4.041,0,0,0,.336,1.82V39Zm-1.867-1.57a1.945,1.945,0,0,0,.922-.223,1.462,1.462,0,0,0,.625-.6V35.156H59.02q-1.7,0-1.8,1.172l-.008.133a.9.9,0,0,0,.3.7A1.153,1.153,0,0,0,58.316,37.43Zm7.664-6.883.07.945a2.971,2.971,0,0,1,2.43-1.1,2.255,2.255,0,0,1,2.242,1.289,2.9,2.9,0,0,1,2.539-1.289,2.521,2.521,0,0,1,2.047.8,3.681,3.681,0,0,1,.672,2.41V39H73.715V33.6a1.616,1.616,0,0,0-.281-1.053,1.245,1.245,0,0,0-.992-.333,1.409,1.409,0,0,0-1.406.971L71.043,39H68.785V33.6A1.6,1.6,0,0,0,68.5,32.54a1.257,1.257,0,0,0-.984-.329,1.463,1.463,0,0,0-1.391.8V39H63.863V30.547ZM80.1,39H77.832V30.547H80.1ZM77.7,28.359a1.112,1.112,0,0,1,.34-.836,1.465,1.465,0,0,1,1.848,0,1.193,1.193,0,0,1,0,1.68,1.448,1.448,0,0,1-1.836,0A1.108,1.108,0,0,1,77.7,28.359Zm8.148,10.8a4.15,4.15,0,0,1-3.027-1.141,4.054,4.054,0,0,1-1.168-3.039v-.219a5.106,5.106,0,0,1,.492-2.277,3.612,3.612,0,0,1,1.395-1.547,3.914,3.914,0,0,1,2.059-.543,3.508,3.508,0,0,1,2.73,1.094,4.444,4.444,0,0,1,1,3.1v.922H83.941a2.1,2.1,0,0,0,.66,1.328,2,2,0,0,0,1.395.5,2.437,2.437,0,0,0,2.039-.945l1.109,1.242a3.389,3.389,0,0,1-1.375,1.121A4.511,4.511,0,0,1,85.848,39.156Zm-.258-6.945a1.411,1.411,0,0,0-1.09.455,2.357,2.357,0,0,0-.535,1.3h3.141v-.181a1.681,1.681,0,0,0-.406-1.165A1.456,1.456,0,0,0,85.59,32.211Zm7.094-1.664.07.977a2.951,2.951,0,0,1,2.43-1.133,2.453,2.453,0,0,1,2,.789,3.682,3.682,0,0,1,.672,2.359V39H95.6V33.581a1.47,1.47,0,0,0-.312-1.045,1.4,1.4,0,0,0-1.039-.325,1.553,1.553,0,0,0-1.43.814V39H90.559V30.547Zm9.586-2.078v2.078h1.445V32.2H102.27v4.219a1.007,1.007,0,0,0,.18.672.9.9,0,0,0,.688.2,3.6,3.6,0,0,0,.664-.055v1.711a4.648,4.648,0,0,1-1.367.2,2.156,2.156,0,0,1-2.422-2.4V32.2H98.777V30.547h1.234V28.469Zm2.117,6.227a5.013,5.013,0,0,1,.484-2.242,3.546,3.546,0,0,1,1.395-1.523,4.069,4.069,0,0,1,2.113-.539,3.849,3.849,0,0,1,2.793,1.047,4.2,4.2,0,0,1,1.207,2.844l.016.578a4.418,4.418,0,0,1-1.086,3.121,4.209,4.209,0,0,1-5.832,0,4.5,4.5,0,0,1-1.09-3.187Zm2.258.16A3.16,3.16,0,0,0,107.1,36.7a1.628,1.628,0,0,0,2.578.008,3.457,3.457,0,0,0,.461-2.015,3.128,3.128,0,0,0-.461-1.831,1.5,1.5,0,0,0-1.3-.649,1.474,1.474,0,0,0-1.281.646A3.516,3.516,0,0,0,106.645,34.856ZM37.906,58.711a5.094,5.094,0,0,1,.887-3.148,2.877,2.877,0,0,1,2.426-1.172,2.589,2.589,0,0,1,2.039.922V51h2.266V63H43.484l-.109-.9A2.657,2.657,0,0,1,41.2,63.156a2.869,2.869,0,0,1-2.395-1.176A5.258,5.258,0,0,1,37.906,58.711Zm2.258.161a3.355,3.355,0,0,0,.414,1.829,1.348,1.348,0,0,0,1.2.636,1.51,1.51,0,0,0,1.477-.887V57.1a1.489,1.489,0,0,0-1.461-.887Q40.164,56.211,40.164,58.872Zm11,4.285a4.15,4.15,0,0,1-3.027-1.141,4.054,4.054,0,0,1-1.168-3.039v-.219a5.106,5.106,0,0,1,.492-2.277,3.612,3.612,0,0,1,1.395-1.547,3.914,3.914,0,0,1,2.059-.543,3.508,3.508,0,0,1,2.73,1.094,4.444,4.444,0,0,1,1,3.1v.922H49.258a2.1,2.1,0,0,0,.66,1.328,2,2,0,0,0,1.395.5,2.437,2.437,0,0,0,2.039-.945l1.109,1.242a3.389,3.389,0,0,1-1.375,1.121A4.511,4.511,0,0,1,51.164,63.156Zm-.258-6.945a1.411,1.411,0,0,0-1.09.455,2.357,2.357,0,0,0-.535,1.3h3.141v-.181a1.681,1.681,0,0,0-.406-1.165A1.456,1.456,0,0,0,50.906,56.211Zm12.516,5.125a1.481,1.481,0,0,0,1.016-.344,1.2,1.2,0,0,0,.406-.914h2.117a2.9,2.9,0,0,1-.469,1.574,3.093,3.093,0,0,1-1.262,1.109,3.949,3.949,0,0,1-1.77.395A3.67,3.67,0,0,1,60.6,62a4.56,4.56,0,0,1-1.047-3.184v-.148a4.508,4.508,0,0,1,1.039-3.117,3.627,3.627,0,0,1,2.852-1.164,3.555,3.555,0,0,1,2.543.9,3.2,3.2,0,0,1,.973,2.4H64.844a1.551,1.551,0,0,0-.406-1.072,1.51,1.51,0,0,0-2.223.163,3.333,3.333,0,0,0-.4,1.866v.235a3.375,3.375,0,0,0,.4,1.878A1.377,1.377,0,0,0,63.422,61.336ZM70.633,63H68.367V54.547h2.266Zm-2.4-10.641a1.112,1.112,0,0,1,.34-.836,1.465,1.465,0,0,1,1.848,0,1.193,1.193,0,0,1,0,1.68,1.448,1.448,0,0,1-1.836,0A1.108,1.108,0,0,1,68.234,52.359Zm6.961.109v2.078h1.445V56.2H75.2v4.219a1.007,1.007,0,0,0,.18.672.9.9,0,0,0,.688.2,3.6,3.6,0,0,0,.664-.055v1.711a4.648,4.648,0,0,1-1.367.2,2.156,2.156,0,0,1-2.422-2.4V56.2H71.7V54.547h1.234V52.469ZM82.8,63a2.507,2.507,0,0,1-.227-.758,2.732,2.732,0,0,1-2.133.914,3,3,0,0,1-2.059-.719,2.312,2.312,0,0,1-.816-1.812,2.389,2.389,0,0,1,1-2.062,4.915,4.915,0,0,1,2.879-.727h1.039v-.484a1.393,1.393,0,0,0-.3-.937,1.183,1.183,0,0,0-.949-.352,1.345,1.345,0,0,0-.895.273.929.929,0,0,0-.324.75H77.75a2.268,2.268,0,0,1,.453-1.359,3,3,0,0,1,1.281-.98,4.669,4.669,0,0,1,1.859-.355,3.689,3.689,0,0,1,2.48.785,2.747,2.747,0,0,1,.918,2.207v3.664a4.041,4.041,0,0,0,.336,1.82V63ZM80.93,61.43a1.945,1.945,0,0,0,.922-.223,1.462,1.462,0,0,0,.625-.6V59.156h-.844q-1.7,0-1.8,1.172l-.008.133a.9.9,0,0,0,.3.7A1.153,1.153,0,0,0,80.93,61.43Z" transform="translate(1193 -6876)" fill="#12263f"/>
    <path id="Trazado_605895" data-name="Trazado 605895" d="M10.914,10.055h-4.5v3.063H11.7V15H4.07V3.625H11.68v1.9H6.414V8.234h4.5ZM15,6.547l.07.977A2.951,2.951,0,0,1,17.5,6.391a2.453,2.453,0,0,1,2,.789,3.682,3.682,0,0,1,.672,2.359V15H17.914V9.581A1.47,1.47,0,0,0,17.6,8.536a1.4,1.4,0,0,0-1.039-.325,1.553,1.553,0,0,0-1.43.814V15H12.875V6.547Zm14.383,6.789a1.481,1.481,0,0,0,1.016-.344,1.2,1.2,0,0,0,.406-.914h2.117a2.9,2.9,0,0,1-.469,1.574,3.093,3.093,0,0,1-1.262,1.109,3.949,3.949,0,0,1-1.77.395A3.67,3.67,0,0,1,26.563,14a4.56,4.56,0,0,1-1.047-3.184v-.148a4.508,4.508,0,0,1,1.039-3.117,3.627,3.627,0,0,1,2.852-1.164,3.555,3.555,0,0,1,2.543.9,3.2,3.2,0,0,1,.973,2.4H30.8A1.551,1.551,0,0,0,30.4,8.623a1.51,1.51,0,0,0-2.223.163,3.333,3.333,0,0,0-.4,1.866v.235a3.375,3.375,0,0,0,.4,1.878A1.377,1.377,0,0,0,29.383,13.336ZM33.859,10.7a5.013,5.013,0,0,1,.484-2.242A3.546,3.546,0,0,1,35.738,6.93a4.069,4.069,0,0,1,2.113-.539,3.849,3.849,0,0,1,2.793,1.047,4.2,4.2,0,0,1,1.207,2.844l.016.578a4.418,4.418,0,0,1-1.086,3.121,4.209,4.209,0,0,1-5.832,0,4.5,4.5,0,0,1-1.09-3.187Zm2.258.16A3.16,3.16,0,0,0,36.57,12.7a1.628,1.628,0,0,0,2.578.008,3.457,3.457,0,0,0,.461-2.015,3.128,3.128,0,0,0-.461-1.831,1.5,1.5,0,0,0-1.3-.649,1.474,1.474,0,0,0-1.281.646A3.516,3.516,0,0,0,36.117,10.856Zm9.219-4.309.07.977a2.951,2.951,0,0,1,2.43-1.133,2.453,2.453,0,0,1,2,.789,3.682,3.682,0,0,1,.672,2.359V15H48.25V9.581a1.47,1.47,0,0,0-.312-1.045A1.4,1.4,0,0,0,46.9,8.211a1.553,1.553,0,0,0-1.43.814V15H43.211V6.547ZM52.766,15V8.2H51.508V6.547h1.258V6.156a3.17,3.17,0,0,1,.98-2.457,3.945,3.945,0,0,1,2.723-.863,9.031,9.031,0,0,1,2.563.461L58.7,5.164a10,10,0,0,0-1.187-.293,5.835,5.835,0,0,0-.906-.066q-1.578,0-1.578,1.4v.344H56.7V8.2H55.031V15Zm7.32,0H57.82V6.547h2.266ZM66.7,8.664a6.134,6.134,0,0,0-.812-.062,1.654,1.654,0,0,0-1.68.867V15H61.953V6.547h2.133l.063,1.008a2.092,2.092,0,0,1,1.883-1.164,2.366,2.366,0,0,1,.7.1Zm3.2-2.117.07.945a2.971,2.971,0,0,1,2.43-1.1A2.255,2.255,0,0,1,74.648,7.68a2.9,2.9,0,0,1,2.539-1.289,2.521,2.521,0,0,1,2.047.8,3.681,3.681,0,0,1,.672,2.41V15H77.641V9.6a1.616,1.616,0,0,0-.281-1.053,1.245,1.245,0,0,0-.992-.333,1.409,1.409,0,0,0-1.406.971L74.969,15H72.711V9.6a1.6,1.6,0,0,0-.289-1.065,1.257,1.257,0,0,0-.984-.329,1.463,1.463,0,0,0-1.391.8V15H67.789V6.547ZM86.539,15a2.507,2.507,0,0,1-.227-.758,2.732,2.732,0,0,1-2.133.914,3,3,0,0,1-2.059-.719,2.312,2.312,0,0,1-.816-1.812,2.389,2.389,0,0,1,1-2.062,4.915,4.915,0,0,1,2.879-.727h1.039V9.352a1.393,1.393,0,0,0-.3-.937,1.183,1.183,0,0,0-.949-.352,1.345,1.345,0,0,0-.895.273.929.929,0,0,0-.324.75H81.492a2.268,2.268,0,0,1,.453-1.359,3,3,0,0,1,1.281-.98,4.669,4.669,0,0,1,1.859-.355,3.689,3.689,0,0,1,2.48.785,2.747,2.747,0,0,1,.918,2.207v3.664a4.041,4.041,0,0,0,.336,1.82V15Zm-1.867-1.57a1.945,1.945,0,0,0,.922-.223,1.462,1.462,0,0,0,.625-.6V11.156h-.844q-1.7,0-1.8,1.172l-.008.133a.9.9,0,0,0,.3.7A1.153,1.153,0,0,0,84.672,13.43Zm9.063-.094a1.481,1.481,0,0,0,1.016-.344,1.2,1.2,0,0,0,.406-.914h2.117a2.9,2.9,0,0,1-.469,1.574,3.093,3.093,0,0,1-1.262,1.109,3.949,3.949,0,0,1-1.77.395A3.67,3.67,0,0,1,90.914,14a4.56,4.56,0,0,1-1.047-3.184v-.148a4.508,4.508,0,0,1,1.039-3.117,3.627,3.627,0,0,1,2.852-1.164,3.555,3.555,0,0,1,2.543.9,3.2,3.2,0,0,1,.973,2.4H95.156a1.551,1.551,0,0,0-.406-1.072,1.51,1.51,0,0,0-2.223.163,3.333,3.333,0,0,0-.4,1.866v.235a3.375,3.375,0,0,0,.4,1.878A1.377,1.377,0,0,0,93.734,13.336ZM100.945,15H98.68V6.547h2.266Zm-2.4-10.641a1.112,1.112,0,0,1,.34-.836,1.465,1.465,0,0,1,1.848,0,1.105,1.105,0,0,1,.344.836,1.108,1.108,0,0,1-.348.844,1.448,1.448,0,0,1-1.836,0A1.108,1.108,0,0,1,98.547,4.359Zm3.906,6.336a5.013,5.013,0,0,1,.484-2.242,3.546,3.546,0,0,1,1.395-1.523,4.069,4.069,0,0,1,2.113-.539,3.849,3.849,0,0,1,2.793,1.047,4.2,4.2,0,0,1,1.207,2.844l.016.578a4.418,4.418,0,0,1-1.086,3.121,4.209,4.209,0,0,1-5.832,0,4.5,4.5,0,0,1-1.09-3.187Zm2.258.16a3.16,3.16,0,0,0,.453,1.843,1.628,1.628,0,0,0,2.578.008,3.457,3.457,0,0,0,.461-2.015,3.128,3.128,0,0,0-.461-1.831,1.5,1.5,0,0,0-1.3-.649,1.474,1.474,0,0,0-1.281.646A3.516,3.516,0,0,0,104.711,10.856ZM106.891,3h2.461l-2.164,2.422h-1.836Zm7.039,3.547.07.977a2.951,2.951,0,0,1,2.43-1.133,2.453,2.453,0,0,1,2,.789,3.682,3.682,0,0,1,.672,2.359V15h-2.258V9.581a1.47,1.47,0,0,0-.312-1.045,1.4,1.4,0,0,0-1.039-.325,1.553,1.553,0,0,0-1.43.814V15H111.8V6.547ZM29.5,34.711a5.094,5.094,0,0,1,.887-3.148,2.877,2.877,0,0,1,2.426-1.172,2.589,2.589,0,0,1,2.039.922V27h2.266V39H35.082l-.109-.9A2.657,2.657,0,0,1,32.8,39.156a2.869,2.869,0,0,1-2.395-1.176A5.258,5.258,0,0,1,29.5,34.711Zm2.258.161a3.355,3.355,0,0,0,.414,1.829,1.348,1.348,0,0,0,1.2.636,1.51,1.51,0,0,0,1.477-.887V33.1a1.489,1.489,0,0,0-1.461-.887Q31.762,32.211,31.762,34.872Zm11,4.285a4.15,4.15,0,0,1-3.027-1.141,4.054,4.054,0,0,1-1.168-3.039v-.219a5.106,5.106,0,0,1,.492-2.277,3.612,3.612,0,0,1,1.395-1.547,3.914,3.914,0,0,1,2.059-.543,3.508,3.508,0,0,1,2.73,1.094,4.444,4.444,0,0,1,1,3.1v.922H40.855a2.1,2.1,0,0,0,.66,1.328,2,2,0,0,0,1.395.5,2.437,2.437,0,0,0,2.039-.945l1.109,1.242a3.389,3.389,0,0,1-1.375,1.121A4.511,4.511,0,0,1,42.762,39.156ZM42.5,32.211a1.411,1.411,0,0,0-1.09.455,2.357,2.357,0,0,0-.535,1.3H44.02v-.181a1.681,1.681,0,0,0-.406-1.165A1.456,1.456,0,0,0,42.5,32.211ZM53.887,39H51.621V27h2.266Zm6.758,0a2.507,2.507,0,0,1-.227-.758,2.732,2.732,0,0,1-2.133.914,3,3,0,0,1-2.059-.719,2.312,2.312,0,0,1-.816-1.812,2.389,2.389,0,0,1,1-2.062,4.915,4.915,0,0,1,2.879-.727h1.039v-.484a1.393,1.393,0,0,0-.3-.937,1.183,1.183,0,0,0-.949-.352,1.345,1.345,0,0,0-.895.273.929.929,0,0,0-.324.75H55.6a2.268,2.268,0,0,1,.453-1.359,3,3,0,0,1,1.281-.98,4.669,4.669,0,0,1,1.859-.355,3.689,3.689,0,0,1,2.48.785,2.747,2.747,0,0,1,.918,2.207v3.664a4.041,4.041,0,0,0,.336,1.82V39Zm-1.867-1.57a1.945,1.945,0,0,0,.922-.223,1.462,1.462,0,0,0,.625-.6V35.156H59.48q-1.7,0-1.8,1.172l-.008.133a.9.9,0,0,0,.3.7A1.153,1.153,0,0,0,58.777,37.43Zm13.047-.094a1.481,1.481,0,0,0,1.016-.344,1.2,1.2,0,0,0,.406-.914h2.117a2.9,2.9,0,0,1-.469,1.574,3.093,3.093,0,0,1-1.262,1.109,3.949,3.949,0,0,1-1.77.395A3.67,3.67,0,0,1,69,38a4.56,4.56,0,0,1-1.047-3.184v-.148A4.508,4.508,0,0,1,69,31.555a3.627,3.627,0,0,1,2.852-1.164,3.555,3.555,0,0,1,2.543.9,3.2,3.2,0,0,1,.973,2.4H73.246a1.551,1.551,0,0,0-.406-1.072,1.51,1.51,0,0,0-2.223.163,3.333,3.333,0,0,0-.4,1.866v.235a3.375,3.375,0,0,0,.4,1.878A1.377,1.377,0,0,0,71.824,37.336ZM79.035,39H76.77V30.547h2.266Zm-2.4-10.641a1.112,1.112,0,0,1,.34-.836,1.465,1.465,0,0,1,1.848,0,1.193,1.193,0,0,1,0,1.68,1.448,1.448,0,0,1-1.836,0A1.108,1.108,0,0,1,76.637,28.359Zm6.961.109v2.078h1.445V32.2H83.6v4.219a1.007,1.007,0,0,0,.18.672.9.9,0,0,0,.688.2,3.6,3.6,0,0,0,.664-.055v1.711a4.648,4.648,0,0,1-1.367.2,2.156,2.156,0,0,1-2.422-2.4V32.2H80.105V30.547H81.34V28.469ZM91.2,39a2.507,2.507,0,0,1-.227-.758,2.732,2.732,0,0,1-2.133.914,3,3,0,0,1-2.059-.719,2.312,2.312,0,0,1-.816-1.812,2.389,2.389,0,0,1,1-2.062,4.915,4.915,0,0,1,2.879-.727h1.039v-.484a1.393,1.393,0,0,0-.3-.937,1.183,1.183,0,0,0-.949-.352,1.345,1.345,0,0,0-.895.273.929.929,0,0,0-.324.75H86.152a2.268,2.268,0,0,1,.453-1.359,3,3,0,0,1,1.281-.98,4.669,4.669,0,0,1,1.859-.355,3.689,3.689,0,0,1,2.48.785,2.747,2.747,0,0,1,.918,2.207v3.664a4.041,4.041,0,0,0,.336,1.82V39Zm-1.867-1.57a1.945,1.945,0,0,0,.922-.223,1.462,1.462,0,0,0,.625-.6V35.156h-.844q-1.7,0-1.8,1.172l-.008.133a.9.9,0,0,0,.3.7A1.153,1.153,0,0,0,89.332,37.43Z" transform="translate(1392 -6865)" fill="#12263f"/>
    <path id="Trazado_605902" data-name="Trazado 605902" d="M60.379,10.055h-4.5v3.063H61.16V15H53.535V3.625h7.609v1.9H55.879V8.234h4.5Zm4.086-3.508.07.977a2.951,2.951,0,0,1,2.43-1.133,2.453,2.453,0,0,1,2,.789,3.682,3.682,0,0,1,.672,2.359V15H67.379V9.581a1.47,1.47,0,0,0-.312-1.045,1.4,1.4,0,0,0-1.039-.325,1.553,1.553,0,0,0-1.43.814V15H62.34V6.547ZM45.18,37.336a1.481,1.481,0,0,0,1.016-.344,1.2,1.2,0,0,0,.406-.914h2.117a2.9,2.9,0,0,1-.469,1.574,3.093,3.093,0,0,1-1.262,1.109,3.949,3.949,0,0,1-1.77.395A3.67,3.67,0,0,1,42.359,38a4.56,4.56,0,0,1-1.047-3.184v-.148a4.508,4.508,0,0,1,1.039-3.117A3.627,3.627,0,0,1,45.2,30.391a3.555,3.555,0,0,1,2.543.9,3.2,3.2,0,0,1,.973,2.4H46.6a1.551,1.551,0,0,0-.406-1.072,1.51,1.51,0,0,0-2.223.163,3.333,3.333,0,0,0-.4,1.866v.235a3.375,3.375,0,0,0,.4,1.878A1.377,1.377,0,0,0,45.18,37.336ZM52.391,39H50.125V30.547h2.266Zm-2.4-10.641a1.112,1.112,0,0,1,.34-.836,1.465,1.465,0,0,1,1.848,0,1.193,1.193,0,0,1,0,1.68,1.448,1.448,0,0,1-1.836,0A1.108,1.108,0,0,1,49.992,28.359Zm8.148,10.8a4.15,4.15,0,0,1-3.027-1.141,4.054,4.054,0,0,1-1.168-3.039v-.219a5.106,5.106,0,0,1,.492-2.277,3.612,3.612,0,0,1,1.395-1.547,3.914,3.914,0,0,1,2.059-.543,3.508,3.508,0,0,1,2.73,1.094,4.444,4.444,0,0,1,1,3.1v.922H56.234a2.1,2.1,0,0,0,.66,1.328,2,2,0,0,0,1.395.5,2.437,2.437,0,0,0,2.039-.945l1.109,1.242a3.389,3.389,0,0,1-1.375,1.121A4.511,4.511,0,0,1,58.141,39.156Zm-.258-6.945a1.411,1.411,0,0,0-1.09.455,2.357,2.357,0,0,0-.535,1.3H59.4v-.181a1.681,1.681,0,0,0-.406-1.165A1.456,1.456,0,0,0,57.883,32.211Zm9.766.453a6.134,6.134,0,0,0-.812-.062,1.654,1.654,0,0,0-1.68.867V39H62.9V30.547h2.133l.063,1.008a2.092,2.092,0,0,1,1.883-1.164,2.366,2.366,0,0,1,.7.1Zm5.836,0a6.134,6.134,0,0,0-.812-.062,1.654,1.654,0,0,0-1.68.867V39H68.734V30.547h2.133l.063,1.008a2.092,2.092,0,0,1,1.883-1.164,2.366,2.366,0,0,1,.7.1Zm4.828,6.492a4.15,4.15,0,0,1-3.027-1.141,4.054,4.054,0,0,1-1.168-3.039v-.219a5.106,5.106,0,0,1,.492-2.277A3.612,3.612,0,0,1,76,30.934a3.914,3.914,0,0,1,2.059-.543,3.508,3.508,0,0,1,2.73,1.094,4.444,4.444,0,0,1,1,3.1v.922H76.406a2.1,2.1,0,0,0,.66,1.328,2,2,0,0,0,1.395.5,2.437,2.437,0,0,0,2.039-.945l1.109,1.242a3.389,3.389,0,0,1-1.375,1.121A4.511,4.511,0,0,1,78.313,39.156Zm-.258-6.945a1.411,1.411,0,0,0-1.09.455,2.357,2.357,0,0,0-.535,1.3H79.57v-.181a1.681,1.681,0,0,0-.406-1.165A1.456,1.456,0,0,0,78.055,32.211Z" transform="translate(1591 -6865)" fill="#12263f"/>
    <g id="Trazado_605904" data-name="Trazado 605904" transform="translate(1791 -6855)" fill="#12263f">
      <path d="M 12 23.5 C 8.928239822387695 23.5 6.040329933166504 22.30378913879395 3.868269920349121 20.13172912597656 C 1.696210026741028 17.95966911315918 0.5 15.0717601776123 0.5 12 C 0.5 8.928239822387695 1.696210026741028 6.040329933166504 3.868269920349121 3.868269920349121 C 6.040329933166504 1.696210026741028 8.928239822387695 0.5 12 0.5 C 15.0717601776123 0.5 17.95966911315918 1.696210026741028 20.13172912597656 3.868269920349121 C 22.30378913879395 6.040329933166504 23.5 8.928239822387695 23.5 12 C 23.5 15.0717601776123 22.30378913879395 17.95966911315918 20.13172912597656 20.13172912597656 C 17.95966911315918 22.30378913879395 15.0717601776123 23.5 12 23.5 Z" stroke="none"/>
      <path d="M 12 1 C 9.061790466308594 1 6.299449920654297 2.144199371337891 4.221820831298828 4.221820831298828 C 2.144199371337891 6.299449920654297 1 9.061790466308594 1 12 C 1 14.93820953369141 2.144199371337891 17.7005500793457 4.221820831298828 19.77817916870117 C 6.299449920654297 21.85580062866211 9.061790466308594 23 12 23 C 14.93820953369141 23 17.7005500793457 21.85580062866211 19.77817916870117 19.77817916870117 C 21.85580062866211 17.7005500793457 23 14.93820953369141 23 12 C 23 9.061790466308594 21.85580062866211 6.299449920654297 19.77817916870117 4.221820831298828 C 17.7005500793457 2.144199371337891 14.93820953369141 1 12 1 M 12 0 C 18.62742042541504 0 24 5.372579574584961 24 12 C 24 18.62742042541504 18.62742042541504 24 12 24 C 5.372579574584961 24 0 18.62742042541504 0 12 C 0 5.372579574584961 5.372579574584961 0 12 0 Z" stroke="none" fill="#12263f"/>
    </g>
    <path id="Trazado_604790" data-name="Trazado 604790" d="M-88.052-8021v-53.279h-55.729v44.448" transform="translate(1176 1136)" fill="none" stroke="#12263f" stroke-width="4"/>
    <path id="Trazado_604791" data-name="Trazado 604791" d="M-88.052-8021v-53.279h-55.729v44.448" transform="translate(1373 1136)" fill="none" stroke="#12263f" stroke-width="4"/>
    <path id="Trazado_605883" data-name="Trazado 605883" d="M-26.582-4.148A5.119,5.119,0,0,1-27.449-.98,2.872,2.872,0,0,1-29.871.156,2.639,2.639,0,0,1-32.066-.9l-.1.9H-34.2V-12h2.258v4.3a2.571,2.571,0,0,1,2.055-.914,2.9,2.9,0,0,1,2.426,1.137,5.126,5.126,0,0,1,.879,3.2Zm-2.258-.172A3.381,3.381,0,0,0-29.246-6.2a1.372,1.372,0,0,0-1.211-.592,1.489,1.489,0,0,0-1.484.885v3.346a1.509,1.509,0,0,0,1.5.893A1.4,1.4,0,0,0-29-2.745,5.6,5.6,0,0,0-28.84-4.321Zm8.711,3.461A2.831,2.831,0,0,1-22.441.156a2.67,2.67,0,0,1-2.074-.781,3.335,3.335,0,0,1-.73-2.289V-8.453h2.258v5.467q0,1.322,1.2,1.322a1.63,1.63,0,0,0,1.578-.8V-8.453h2.266V0h-2.125Zm8.469-1.477a.727.727,0,0,0-.41-.652,4.659,4.659,0,0,0-1.316-.426Q-16.4-4.047-16.4-5.977a2.323,2.323,0,0,1,.934-1.879,3.766,3.766,0,0,1,2.441-.754,4.053,4.053,0,0,1,2.574.758,2.388,2.388,0,0,1,.965,1.969h-2.258a1.092,1.092,0,0,0-.312-.8A1.322,1.322,0,0,0-13.035-7a1.351,1.351,0,0,0-.883.258.814.814,0,0,0-.312.656.7.7,0,0,0,.355.605,3.657,3.657,0,0,0,1.2.4,9.8,9.8,0,0,1,1.422.379A2.336,2.336,0,0,1-9.465-2.43a2.2,2.2,0,0,1-.992,1.871A4.28,4.28,0,0,1-13.02.156a4.47,4.47,0,0,1-1.887-.379A3.166,3.166,0,0,1-16.2-1.262a2.414,2.414,0,0,1-.469-1.426h2.141a1.179,1.179,0,0,0,.445.922,1.766,1.766,0,0,0,1.109.32,1.635,1.635,0,0,0,.98-.246A.766.766,0,0,0-11.66-2.336Zm7.164.672A1.481,1.481,0,0,0-3.48-2.008a1.2,1.2,0,0,0,.406-.914H-.957a2.9,2.9,0,0,1-.469,1.574A3.093,3.093,0,0,1-2.687-.238a3.949,3.949,0,0,1-1.77.395A3.67,3.67,0,0,1-7.316-1,4.56,4.56,0,0,1-8.363-4.18v-.148A4.508,4.508,0,0,1-7.324-7.445,3.627,3.627,0,0,1-4.473-8.609a3.555,3.555,0,0,1,2.543.9A3.2,3.2,0,0,1-.957-5.3H-3.074A1.551,1.551,0,0,0-3.48-6.377a1.354,1.354,0,0,0-1.031-.412A1.36,1.36,0,0,0-5.7-6.214a3.333,3.333,0,0,0-.4,1.866v.235a3.375,3.375,0,0,0,.4,1.878A1.377,1.377,0,0,0-4.5-1.664ZM5.23,0A2.507,2.507,0,0,1,5-.758,2.732,2.732,0,0,1,2.871.156,3,3,0,0,1,.813-.562,2.312,2.312,0,0,1,0-2.375a2.389,2.389,0,0,1,1-2.062,4.915,4.915,0,0,1,2.879-.727H4.91v-.484a1.393,1.393,0,0,0-.3-.937,1.183,1.183,0,0,0-.949-.352,1.345,1.345,0,0,0-.895.273.929.929,0,0,0-.324.75H.184A2.268,2.268,0,0,1,.637-7.273a3,3,0,0,1,1.281-.98,4.669,4.669,0,0,1,1.859-.355,3.689,3.689,0,0,1,2.48.785,2.747,2.747,0,0,1,.918,2.207v3.664a4.041,4.041,0,0,0,.336,1.82V0ZM3.363-1.57a1.945,1.945,0,0,0,.922-.223,1.462,1.462,0,0,0,.625-.6V-3.844H4.066q-1.7,0-1.8,1.172l-.008.133a.9.9,0,0,0,.3.7A1.153,1.153,0,0,0,3.363-1.57Zm7.625-6.883.07.977a2.951,2.951,0,0,1,2.43-1.133,2.453,2.453,0,0,1,2,.789,3.682,3.682,0,0,1,.672,2.359V0H13.9V-5.419a1.47,1.47,0,0,0-.312-1.045,1.4,1.4,0,0,0-1.039-.325,1.553,1.553,0,0,0-1.43.814V0H8.863V-8.453ZM17.52-4.289a5.094,5.094,0,0,1,.887-3.148,2.877,2.877,0,0,1,2.426-1.172,2.589,2.589,0,0,1,2.039.922V-12h2.266V0H23.1l-.109-.9A2.657,2.657,0,0,1,20.816.156,2.869,2.869,0,0,1,18.422-1.02,5.258,5.258,0,0,1,17.52-4.289Zm2.258.161A3.355,3.355,0,0,0,20.191-2.3a1.348,1.348,0,0,0,1.2.636,1.51,1.51,0,0,0,1.477-.887V-5.9a1.489,1.489,0,0,0-1.461-.887Q19.777-6.789,19.777-4.128ZM26.535-4.3a5.013,5.013,0,0,1,.484-2.242A3.546,3.546,0,0,1,28.414-8.07a4.069,4.069,0,0,1,2.113-.539A3.849,3.849,0,0,1,33.32-7.562a4.2,4.2,0,0,1,1.207,2.844l.016.578A4.418,4.418,0,0,1,33.457-1.02,3.775,3.775,0,0,1,30.543.156a3.793,3.793,0,0,1-2.918-1.172A4.5,4.5,0,0,1,26.535-4.2Zm2.258.16A3.16,3.16,0,0,0,29.246-2.3a1.5,1.5,0,0,0,1.3.638,1.5,1.5,0,0,0,1.281-.63,3.457,3.457,0,0,0,.461-2.015,3.128,3.128,0,0,0-.461-1.831,1.5,1.5,0,0,0-1.3-.649,1.474,1.474,0,0,0-1.281.646A3.516,3.516,0,0,0,28.793-4.144Z" transform="translate(1060 -6950)" fill="#12263f"/>
    <path id="Trazado_605896" data-name="Trazado 605896" d="M-19.046,0V-9.242h3.021a3.507,3.507,0,0,1,2.263.622A2.242,2.242,0,0,1-13-6.779a1.877,1.877,0,0,1-.368,1.146,2.387,2.387,0,0,1-1,.771,2.143,2.143,0,0,1,1.184.8,2.286,2.286,0,0,1,.435,1.4,2.472,2.472,0,0,1-.806,1.955A3.334,3.334,0,0,1-15.841,0Zm1.219-4.323V-1h2.012a1.938,1.938,0,0,0,1.343-.441,1.549,1.549,0,0,0,.492-1.216q0-1.669-1.815-1.669Zm0-.978h1.841a1.93,1.93,0,0,0,1.279-.4,1.344,1.344,0,0,0,.479-1.088,1.321,1.321,0,0,0-.444-1.11,2.182,2.182,0,0,0-1.352-.347h-1.8ZM-6.9-.679A2.494,2.494,0,0,1-8.909.127a2.135,2.135,0,0,1-1.673-.638A2.761,2.761,0,0,1-11.162-2.4V-6.868h1.174v4.437q0,1.562,1.27,1.562a1.758,1.758,0,0,0,1.79-1v-5h1.174V0H-6.871ZM.029-1.822a.865.865,0,0,0-.359-.74,3.452,3.452,0,0,0-1.25-.454A5.912,5.912,0,0,1-3-3.472a2.014,2.014,0,0,1-.774-.635,1.518,1.518,0,0,1-.251-.876,1.782,1.782,0,0,1,.714-1.428A2.789,2.789,0,0,1-1.482-7a2.87,2.87,0,0,1,1.895.6A1.915,1.915,0,0,1,1.139-4.85H-.041a1.06,1.06,0,0,0-.409-.832A1.534,1.534,0,0,0-1.482-6.03a1.605,1.605,0,0,0-1,.279.879.879,0,0,0-.362.73.712.712,0,0,0,.336.641,4.139,4.139,0,0,0,1.216.413A6.334,6.334,0,0,1,.13-3.5a2.079,2.079,0,0,1,.809.657A1.615,1.615,0,0,1,1.2-1.9,1.758,1.758,0,0,1,.467-.428,3.089,3.089,0,0,1-1.444.127,3.459,3.459,0,0,1-2.9-.165,2.375,2.375,0,0,1-3.9-.981a1.966,1.966,0,0,1-.359-1.133h1.174a1.216,1.216,0,0,0,.473.936,1.835,1.835,0,0,0,1.165.346A1.894,1.894,0,0,0-.375-1.1.829.829,0,0,0,.029-1.822Zm5.459.99a1.692,1.692,0,0,0,1.1-.381,1.34,1.34,0,0,0,.521-.952H8.217a2.13,2.13,0,0,1-.406,1.124,2.676,2.676,0,0,1-1,.851A2.885,2.885,0,0,1,5.488.127,2.829,2.829,0,0,1,3.256-.809a3.729,3.729,0,0,1-.828-2.561v-.2A4.135,4.135,0,0,1,2.8-5.351,2.8,2.8,0,0,1,3.853-6.563,3,3,0,0,1,5.481-7,2.755,2.755,0,0,1,7.4-6.3a2.473,2.473,0,0,1,.816,1.8H7.106A1.618,1.618,0,0,0,6.6-5.6a1.57,1.57,0,0,0-1.12-.428,1.644,1.644,0,0,0-1.387.644A3.026,3.026,0,0,0,3.6-3.523V-3.3a2.965,2.965,0,0,0,.489,1.828A1.651,1.651,0,0,0,5.488-.832ZM13.778,0a2.467,2.467,0,0,1-.165-.724,2.62,2.62,0,0,1-1.955.851A2.424,2.424,0,0,1,9.991-.448,1.859,1.859,0,0,1,9.341-1.9a1.942,1.942,0,0,1,.816-1.666,3.846,3.846,0,0,1,2.295-.594h1.143V-4.7a1.319,1.319,0,0,0-.368-.981,1.48,1.48,0,0,0-1.085-.365,1.712,1.712,0,0,0-1.054.317.935.935,0,0,0-.425.768H9.48a1.621,1.621,0,0,1,.365-.993,2.491,2.491,0,0,1,.99-.759A3.331,3.331,0,0,1,12.21-7a2.715,2.715,0,0,1,1.86.594,2.141,2.141,0,0,1,.7,1.635v3.161a3.865,3.865,0,0,0,.241,1.5V0ZM11.829-.9a2.064,2.064,0,0,0,1.047-.286,1.728,1.728,0,0,0,.717-.743V-3.333h-.92q-2.158,0-2.158,1.263a1.069,1.069,0,0,0,.368.863A1.415,1.415,0,0,0,11.829-.9Zm8.1-4.919a3.519,3.519,0,0,0-.578-.044,1.547,1.547,0,0,0-1.568.984V0H16.609V-6.868h1.143l.019.793A1.829,1.829,0,0,1,19.408-7a1.2,1.2,0,0,1,.521.089Z" transform="translate(955 -6860)" fill="#12263f"/>
    <path id="Trazado_605897" data-name="Trazado 605897" d="M-18.142-2.418h-3.872L-22.883,0H-24.14l3.529-9.242h1.066L-16.009,0h-1.25Zm-3.5-1H-18.5l-1.574-4.323Zm6.417-.076a4.037,4.037,0,0,1,.743-2.555A2.375,2.375,0,0,1-12.518-7a2.363,2.363,0,0,1,1.961.889l.057-.762h1.073v6.7a2.794,2.794,0,0,1-.79,2.1A2.916,2.916,0,0,1-12.34,2.7a3.532,3.532,0,0,1-1.454-.317,2.5,2.5,0,0,1-1.085-.87l.609-.7a2.3,2.3,0,0,0,1.847.933,1.8,1.8,0,0,0,1.336-.482A1.844,1.844,0,0,0-10.607-.1v-.59A2.414,2.414,0,0,1-12.53.127a2.346,2.346,0,0,1-1.952-.971A4.244,4.244,0,0,1-15.228-3.491Zm1.181.133a3.08,3.08,0,0,0,.476,1.825,1.547,1.547,0,0,0,1.333.663,1.72,1.72,0,0,0,1.631-1.009V-5.015A1.74,1.74,0,0,0-12.226-6a1.561,1.561,0,0,0-1.339.667A3.354,3.354,0,0,0-14.047-3.358ZM-4.805.127A3,3,0,0,1-7.078-.79a3.4,3.4,0,0,1-.876-2.453v-.216a4.121,4.121,0,0,1,.39-1.825A3.045,3.045,0,0,1-6.471-6.541,2.745,2.745,0,0,1-4.951-7a2.572,2.572,0,0,1,2.082.882,3.82,3.82,0,0,1,.743,2.526V-3.1H-6.779a2.441,2.441,0,0,0,.594,1.641,1.866,1.866,0,0,0,1.444.625,2.045,2.045,0,0,0,1.054-.254,2.648,2.648,0,0,0,.755-.673l.717.559A2.884,2.884,0,0,1-4.805.127ZM-4.951-6.03a1.566,1.566,0,0,0-1.193.517,2.515,2.515,0,0,0-.6,1.45H-3.3v-.089a2.237,2.237,0,0,0-.482-1.387A1.475,1.475,0,0,0-4.951-6.03ZM.343-6.868.381-6A2.5,2.5,0,0,1,2.438-7q2.177,0,2.2,2.457V0H3.459V-4.545a1.581,1.581,0,0,0-.34-1.1A1.361,1.361,0,0,0,2.082-6a1.7,1.7,0,0,0-1,.3,2.069,2.069,0,0,0-.673.8V0H-.768V-6.868ZM6.119-3.491a4.023,4.023,0,0,1,.749-2.542A2.369,2.369,0,0,1,8.83-7a2.382,2.382,0,0,1,1.911.825V-9.75h1.174V0H10.835l-.057-.736A2.391,2.391,0,0,1,8.817.127,2.346,2.346,0,0,1,6.871-.851,4.069,4.069,0,0,1,6.119-3.4Zm1.174.133A3.046,3.046,0,0,0,7.776-1.53a1.56,1.56,0,0,0,1.333.66,1.713,1.713,0,0,0,1.631-1V-5.027A1.726,1.726,0,0,0,9.122-6a1.567,1.567,0,0,0-1.346.667A3.354,3.354,0,0,0,7.293-3.358ZM17.977,0a2.467,2.467,0,0,1-.165-.724,2.62,2.62,0,0,1-1.955.851A2.424,2.424,0,0,1,14.19-.448,1.859,1.859,0,0,1,13.54-1.9a1.942,1.942,0,0,1,.816-1.666,3.846,3.846,0,0,1,2.295-.594h1.143V-4.7a1.319,1.319,0,0,0-.368-.981,1.48,1.48,0,0,0-1.085-.365,1.712,1.712,0,0,0-1.054.317.935.935,0,0,0-.425.768H13.679a1.621,1.621,0,0,1,.365-.993,2.491,2.491,0,0,1,.99-.759A3.331,3.331,0,0,1,16.409-7a2.715,2.715,0,0,1,1.86.594,2.141,2.141,0,0,1,.7,1.635v3.161a3.865,3.865,0,0,0,.241,1.5V0ZM16.028-.9a2.064,2.064,0,0,0,1.047-.286,1.728,1.728,0,0,0,.717-.743V-3.333h-.92q-2.158,0-2.158,1.263a1.069,1.069,0,0,0,.368.863A1.415,1.415,0,0,0,16.028-.9Zm8.1-4.919a3.519,3.519,0,0,0-.578-.044,1.547,1.547,0,0,0-1.568.984V0H20.808V-6.868H21.95l.019.793A1.829,1.829,0,0,1,23.607-7a1.2,1.2,0,0,1,.521.089Z" transform="translate(1155 -6860)" fill="#12263f"/>
    <path id="Trazado_605898" data-name="Trazado 605898" d="M-20.884-2.933A3.4,3.4,0,0,1-21.966-.67a3.547,3.547,0,0,1-2.422.8,3.257,3.257,0,0,1-2.625-1.174A4.724,4.724,0,0,1-28-4.189v-.889a5.266,5.266,0,0,1,.46-2.266,3.438,3.438,0,0,1,1.3-1.5,3.632,3.632,0,0,1,1.955-.524,3.34,3.34,0,0,1,2.361.822,3.441,3.441,0,0,1,1.035,2.276h-1.225a2.655,2.655,0,0,0-.689-1.6,2.084,2.084,0,0,0-1.482-.5,2.181,2.181,0,0,0-1.831.864,3.966,3.966,0,0,0-.663,2.459v.9a4.077,4.077,0,0,0,.628,2.4,2.031,2.031,0,0,0,1.758.889,2.345,2.345,0,0,0,1.558-.46,2.554,2.554,0,0,0,.72-1.6Zm1.168-.565a4.057,4.057,0,0,1,.4-1.815,2.96,2.96,0,0,1,1.1-1.244A3.007,3.007,0,0,1-16.6-7a2.9,2.9,0,0,1,2.269.971,3.736,3.736,0,0,1,.866,2.583v.083a4.092,4.092,0,0,1-.384,1.8,2.916,2.916,0,0,1-1.1,1.241,3.041,3.041,0,0,1-1.641.444,2.889,2.889,0,0,1-2.263-.971,3.718,3.718,0,0,1-.866-2.571Zm1.181.14a2.938,2.938,0,0,0,.53,1.834,1.7,1.7,0,0,0,1.419.692,1.686,1.686,0,0,0,1.422-.7A3.213,3.213,0,0,0-14.638-3.5a2.933,2.933,0,0,0-.536-1.831,1.705,1.705,0,0,0-1.425-.7,1.686,1.686,0,0,0-1.4.692A3.189,3.189,0,0,0-18.535-3.358Zm7.655-3.51.038.863A2.5,2.5,0,0,1-8.785-7q2.177,0,2.2,2.457V0H-7.763V-4.545a1.581,1.581,0,0,0-.34-1.1A1.361,1.361,0,0,0-9.141-6a1.7,1.7,0,0,0-1,.3,2.069,2.069,0,0,0-.673.8V0h-1.174V-6.868ZM-4.424,0V-5.96H-5.51v-.908h1.085v-.584a2.386,2.386,0,0,1,.657-1.79,2.548,2.548,0,0,1,1.857-.641,5.591,5.591,0,0,1,1.8.387l-.2.99a4.069,4.069,0,0,0-1.511-.317,1.478,1.478,0,0,0-1.089.34,1.4,1.4,0,0,0-.333,1.019v.6h1.4v.908h-1.4V0ZM.47,0H-.711V-6.868H.47ZM5.7-5.814a3.519,3.519,0,0,0-.578-.044,1.547,1.547,0,0,0-1.568.984V0H2.38V-6.868H3.523l.019.793A1.829,1.829,0,0,1,5.18-7a1.2,1.2,0,0,1,.521.089ZM7.884-6.868l.032.762A2.536,2.536,0,0,1,9.953-7a1.964,1.964,0,0,1,1.961,1.1,2.6,2.6,0,0,1,.892-.8A2.634,2.634,0,0,1,14.1-7q2.26,0,2.3,2.393V0H15.228V-4.532a1.577,1.577,0,0,0-.336-1.1A1.482,1.482,0,0,0,13.762-6a1.557,1.557,0,0,0-1.085.39,1.584,1.584,0,0,0-.5,1.051V0H10.994V-4.5A1.31,1.31,0,0,0,9.528-6a1.571,1.571,0,0,0-1.581.984V0H6.773V-6.868ZM22.414,0a2.467,2.467,0,0,1-.165-.724,2.62,2.62,0,0,1-1.955.851,2.424,2.424,0,0,1-1.666-.574A1.859,1.859,0,0,1,17.977-1.9a1.942,1.942,0,0,1,.816-1.666,3.846,3.846,0,0,1,2.295-.594h1.143V-4.7a1.319,1.319,0,0,0-.368-.981,1.48,1.48,0,0,0-1.085-.365,1.712,1.712,0,0,0-1.054.317.935.935,0,0,0-.425.768H18.116a1.621,1.621,0,0,1,.365-.993,2.491,2.491,0,0,1,.99-.759A3.331,3.331,0,0,1,20.846-7a2.715,2.715,0,0,1,1.86.594,2.141,2.141,0,0,1,.7,1.635v3.161a3.865,3.865,0,0,0,.241,1.5V0ZM20.465-.9a2.064,2.064,0,0,0,1.047-.286,1.728,1.728,0,0,0,.717-.743V-3.333h-.92q-2.158,0-2.158,1.263a1.069,1.069,0,0,0,.368.863A1.415,1.415,0,0,0,20.465-.9Zm8.1-4.919a3.519,3.519,0,0,0-.578-.044,1.547,1.547,0,0,0-1.568.984V0H25.245V-6.868h1.143l.019.793A1.829,1.829,0,0,1,28.044-7a1.2,1.2,0,0,1,.521.089Z" transform="translate(1354 -6860)" fill="#12263f"/>
    <path id="Trazado_605901" data-name="Trazado 605901" d="M-18.345-8.246h-2.971V0h-1.212V-8.246h-2.964v-1h7.147ZM-14.936.127A3,3,0,0,1-17.208-.79a3.4,3.4,0,0,1-.876-2.453v-.216a4.121,4.121,0,0,1,.39-1.825A3.045,3.045,0,0,1-16.6-6.541,2.745,2.745,0,0,1-15.082-7,2.572,2.572,0,0,1-13-6.113a3.82,3.82,0,0,1,.743,2.526V-3.1H-16.91a2.441,2.441,0,0,0,.594,1.641,1.866,1.866,0,0,0,1.444.625,2.045,2.045,0,0,0,1.054-.254,2.648,2.648,0,0,0,.755-.673l.717.559A2.884,2.884,0,0,1-14.936.127Zm-.146-6.157a1.566,1.566,0,0,0-1.193.517,2.515,2.515,0,0,0-.6,1.45h3.44v-.089a2.237,2.237,0,0,0-.482-1.387A1.475,1.475,0,0,0-15.082-6.03Zm7.5.216a3.519,3.519,0,0,0-.578-.044,1.547,1.547,0,0,0-1.568.984V0H-10.9V-6.868h1.143l.019.793A1.829,1.829,0,0,1-8.1-7a1.2,1.2,0,0,1,.521.089ZM-5.4-6.868l.032.762A2.536,2.536,0,0,1-3.326-7a1.964,1.964,0,0,1,1.961,1.1,2.6,2.6,0,0,1,.892-.8A2.634,2.634,0,0,1,.825-7q2.26,0,2.3,2.393V0H1.949V-4.532a1.577,1.577,0,0,0-.336-1.1A1.482,1.482,0,0,0,.482-6,1.557,1.557,0,0,0-.6-5.608a1.584,1.584,0,0,0-.5,1.051V0H-2.285V-4.5A1.31,1.31,0,0,0-3.751-6a1.571,1.571,0,0,0-1.581.984V0H-6.506V-6.868ZM6.17,0H5V-6.868H6.17ZM4.9-8.69a.7.7,0,0,1,.175-.482.655.655,0,0,1,.517-.2.666.666,0,0,1,.521.2.694.694,0,0,1,.178.482.671.671,0,0,1-.178.476.678.678,0,0,1-.521.19.667.667,0,0,1-.517-.19A.678.678,0,0,1,4.9-8.69ZM9.16-6.868,9.2-6A2.5,2.5,0,0,1,11.254-7q2.177,0,2.2,2.457V0H12.276V-4.545a1.581,1.581,0,0,0-.34-1.1A1.361,1.361,0,0,0,10.9-6a1.7,1.7,0,0,0-1,.3,2.069,2.069,0,0,0-.673.8V0H8.049V-6.868ZM19.462,0A2.467,2.467,0,0,1,19.3-.724a2.62,2.62,0,0,1-1.955.851,2.424,2.424,0,0,1-1.666-.574A1.859,1.859,0,0,1,15.025-1.9a1.942,1.942,0,0,1,.816-1.666,3.846,3.846,0,0,1,2.295-.594h1.143V-4.7a1.319,1.319,0,0,0-.368-.981,1.48,1.48,0,0,0-1.085-.365,1.712,1.712,0,0,0-1.054.317.935.935,0,0,0-.425.768H15.165a1.621,1.621,0,0,1,.365-.993,2.491,2.491,0,0,1,.99-.759A3.331,3.331,0,0,1,17.894-7a2.715,2.715,0,0,1,1.86.594,2.141,2.141,0,0,1,.7,1.635v3.161a3.865,3.865,0,0,0,.241,1.5V0ZM17.513-.9a2.064,2.064,0,0,0,1.047-.286,1.728,1.728,0,0,0,.717-.743V-3.333h-.92q-2.158,0-2.158,1.263a1.069,1.069,0,0,0,.368.863A1.415,1.415,0,0,0,17.513-.9Zm8.1-4.919a3.519,3.519,0,0,0-.578-.044,1.547,1.547,0,0,0-1.568.984V0H22.293V-6.868h1.143l.019.793A1.829,1.829,0,0,1,25.092-7a1.2,1.2,0,0,1,.521.089Z" transform="translate(1551 -6860)" fill="#12263f"/>
    <path id="Trazado_605899" data-name="Trazado 605899" d="M-27.125,0a2.507,2.507,0,0,1-.227-.758,2.732,2.732,0,0,1-2.133.914,3,3,0,0,1-2.059-.719,2.312,2.312,0,0,1-.816-1.812,2.389,2.389,0,0,1,1-2.062,4.915,4.915,0,0,1,2.879-.727h1.039v-.484a1.393,1.393,0,0,0-.3-.937,1.183,1.183,0,0,0-.949-.352,1.345,1.345,0,0,0-.895.273.929.929,0,0,0-.324.75h-2.258a2.268,2.268,0,0,1,.453-1.359,3,3,0,0,1,1.281-.98,4.669,4.669,0,0,1,1.859-.355,3.689,3.689,0,0,1,2.48.785,2.747,2.747,0,0,1,.918,2.207v3.664a4.041,4.041,0,0,0,.336,1.82V0Zm-1.867-1.57a1.945,1.945,0,0,0,.922-.223,1.462,1.462,0,0,0,.625-.6V-3.844h-.844q-1.7,0-1.8,1.172l-.008.133a.9.9,0,0,0,.3.7A1.153,1.153,0,0,0-28.992-1.57Zm10.125-.766a.727.727,0,0,0-.41-.652,4.659,4.659,0,0,0-1.316-.426q-3.016-.633-3.016-2.562a2.323,2.323,0,0,1,.934-1.879,3.766,3.766,0,0,1,2.441-.754,4.053,4.053,0,0,1,2.574.758A2.388,2.388,0,0,1-16.7-5.883h-2.258a1.092,1.092,0,0,0-.312-.8A1.322,1.322,0,0,0-20.242-7a1.351,1.351,0,0,0-.883.258.814.814,0,0,0-.312.656.7.7,0,0,0,.355.605,3.657,3.657,0,0,0,1.2.4,9.8,9.8,0,0,1,1.422.379A2.336,2.336,0,0,1-16.672-2.43a2.2,2.2,0,0,1-.992,1.871,4.28,4.28,0,0,1-2.562.715,4.47,4.47,0,0,1-1.887-.379,3.166,3.166,0,0,1-1.293-1.039,2.414,2.414,0,0,1-.469-1.426h2.141a1.179,1.179,0,0,0,.445.922,1.766,1.766,0,0,0,1.109.32,1.635,1.635,0,0,0,.98-.246A.766.766,0,0,0-18.867-2.336ZM-12.836,0H-15.1V-8.453h2.266Zm-2.4-10.641a1.112,1.112,0,0,1,.34-.836,1.277,1.277,0,0,1,.926-.328,1.28,1.28,0,0,1,.922.328,1.105,1.105,0,0,1,.344.836,1.108,1.108,0,0,1-.348.844,1.283,1.283,0,0,1-.918.328,1.283,1.283,0,0,1-.918-.328A1.108,1.108,0,0,1-15.234-10.641Zm3.93,6.352a4.954,4.954,0,0,1,.926-3.133,3,3,0,0,1,2.5-1.187,2.631,2.631,0,0,1,2.164.953l.094-.8h2.047V-.281a3.613,3.613,0,0,1-.5,1.93A3.236,3.236,0,0,1-5.5,2.9a4.985,4.985,0,0,1-2.141.43,4.635,4.635,0,0,1-1.812-.371A3.217,3.217,0,0,1-10.789,2l1-1.375a2.645,2.645,0,0,0,2.047.945,1.936,1.936,0,0,0,1.4-.48,1.8,1.8,0,0,0,.5-1.363V-.727A2.612,2.612,0,0,1-7.9.156a2.992,2.992,0,0,1-2.465-1.191A4.953,4.953,0,0,1-11.3-4.2Zm2.258.161a3.1,3.1,0,0,0,.461,1.809,1.465,1.465,0,0,0,1.266.655,1.567,1.567,0,0,0,1.477-.777V-6.012A1.563,1.563,0,0,0-7.3-6.789a1.474,1.474,0,0,0-1.277.667A3.5,3.5,0,0,0-9.047-4.128ZM.234-8.453l.07.977a2.951,2.951,0,0,1,2.43-1.133,2.453,2.453,0,0,1,2,.789,3.682,3.682,0,0,1,.672,2.359V0H3.148V-5.419a1.47,1.47,0,0,0-.312-1.045A1.4,1.4,0,0,0,1.8-6.789a1.553,1.553,0,0,0-1.43.814V0H-1.891V-8.453ZM12.016,0a2.507,2.507,0,0,1-.227-.758A2.732,2.732,0,0,1,9.656.156,3,3,0,0,1,7.6-.562a2.312,2.312,0,0,1-.816-1.812,2.389,2.389,0,0,1,1-2.062,4.915,4.915,0,0,1,2.879-.727H11.7v-.484a1.393,1.393,0,0,0-.3-.937,1.183,1.183,0,0,0-.949-.352,1.345,1.345,0,0,0-.895.273.929.929,0,0,0-.324.75H6.969a2.268,2.268,0,0,1,.453-1.359A3,3,0,0,1,8.7-8.254a4.669,4.669,0,0,1,1.859-.355,3.689,3.689,0,0,1,2.48.785,2.747,2.747,0,0,1,.918,2.207v3.664A4.041,4.041,0,0,0,14.3-.133V0ZM10.148-1.57a1.945,1.945,0,0,0,.922-.223,1.462,1.462,0,0,0,.625-.6V-3.844h-.844q-1.7,0-1.8,1.172l-.008.133a.9.9,0,0,0,.3.7A1.153,1.153,0,0,0,10.148-1.57Zm5.2-2.719a5.094,5.094,0,0,1,.887-3.148,2.877,2.877,0,0,1,2.426-1.172,2.589,2.589,0,0,1,2.039.922V-12h2.266V0H20.922l-.109-.9A2.657,2.657,0,0,1,18.641.156,2.869,2.869,0,0,1,16.246-1.02,5.258,5.258,0,0,1,15.344-4.289Zm2.258.161A3.355,3.355,0,0,0,18.016-2.3a1.348,1.348,0,0,0,1.2.636A1.51,1.51,0,0,0,20.7-2.551V-5.9a1.489,1.489,0,0,0-1.461-.887Q17.6-6.789,17.6-4.128ZM24.359-4.3a5.013,5.013,0,0,1,.484-2.242A3.546,3.546,0,0,1,26.238-8.07a4.069,4.069,0,0,1,2.113-.539,3.849,3.849,0,0,1,2.793,1.047,4.2,4.2,0,0,1,1.207,2.844l.016.578A4.418,4.418,0,0,1,31.281-1.02,3.775,3.775,0,0,1,28.367.156a3.793,3.793,0,0,1-2.918-1.172A4.5,4.5,0,0,1,24.359-4.2Zm2.258.16A3.16,3.16,0,0,0,27.07-2.3a1.5,1.5,0,0,0,1.3.638,1.5,1.5,0,0,0,1.281-.63,3.457,3.457,0,0,0,.461-2.015,3.128,3.128,0,0,0-.461-1.831,1.5,1.5,0,0,0-1.3-.649,1.474,1.474,0,0,0-1.281.646A3.516,3.516,0,0,0,26.617-4.144Z" transform="translate(1257 -6950)" fill="#12263f"/>
  </g>
</svg>
