<svg xmlns="http://www.w3.org/2000/svg" xmlns:xlink="http://www.w3.org/1999/xlink" width="466" height="393.943" viewBox="0 0 466 393.943">
  <defs>
    <clipPath id="clip-path">
      <rect id="Rectángulo_58051" data-name="Rectángulo 58051" width="390" height="385.058" fill="none"/>
    </clipPath>
    <clipPath id="clip-path-4">
      <rect id="Rectángulo_58022" data-name="Rectángulo 58022" width="32.504" height="15.304" fill="none"/>
    </clipPath>
    <clipPath id="clip-path-5">
      <rect id="Rectángulo_58023" data-name="Rectángulo 58023" width="5.119" height="5.119" fill="none"/>
    </clipPath>
    <linearGradient id="linear-gradient" x1="0.5" x2="0.5" y2="1" gradientUnits="objectBoundingBox">
      <stop offset="0" stop-color="#4adbd1"/>
      <stop offset="1" stop-color="#5573c6"/>
    </linearGradient>
    <clipPath id="clip-path-6">
      <rect id="Rectángulo_58035" data-name="Rectángulo 58035" width="4.63" height="4.63" fill="none"/>
    </clipPath>
    <clipPath id="clip-path-9">
      <rect id="Rectángulo_58047" data-name="Rectángulo 58047" width="16.45" height="3.619" fill="none"/>
    </clipPath>
    <clipPath id="clip-path-10">
      <rect id="Rectángulo_58048" data-name="Rectángulo 58048" width="17.246" height="4.077" fill="none"/>
    </clipPath>
    <clipPath id="clip-path-11">
      <rect id="Rectángulo_58049" data-name="Rectángulo 58049" width="30.165" height="15.625" fill="none"/>
    </clipPath>
    <clipPath id="clip-path-12">
      <rect id="Rectángulo_59564" data-name="Rectángulo 59564" width="38.699" height="31.799" fill="#f4a338"/>
    </clipPath>
  </defs>
  <g id="Grupo_888580" data-name="Grupo 888580" transform="translate(-992 -1487)">
    <rect id="Rectángulo_299818" data-name="Rectángulo 299818" width="438" height="265" transform="translate(1020 1487)" fill="#f5fafe"/>
    <g id="Grupo_181180" data-name="Grupo 181180" transform="translate(1020 1495.885)">
      <g id="Grupo_180166" data-name="Grupo 180166" clip-path="url(#clip-path)">
        <g id="Grupo_180096" data-name="Grupo 180096">
          <g id="Grupo_180095" data-name="Grupo 180095" clip-path="url(#clip-path)">
            <path id="Trazado_231172" data-name="Trazado 231172" d="M42.062,97.683l-3.9.006a3,3,0,0,0-1.174.127,1.839,1.839,0,0,0-.929.824,1.951,1.951,0,0,0-.219.623,3.956,3.956,0,0,0-.029.689c0,.235,0,.474,0,.717a3.336,3.336,0,0,1-.047.741,1.96,1.96,0,0,1-.87,1.252,1.82,1.82,0,0,1-.765.27c-.278.025-.548.008-.827.013h-3.5l-7.928,0H19.156a2.176,2.176,0,0,1-.565-.055,1.878,1.878,0,0,1-.972-.6,1.991,1.991,0,0,1-.474-1.056,4.424,4.424,0,0,1-.021-.585v-.583a3.109,3.109,0,0,0-.117-1.147,1.876,1.876,0,0,0-.7-.909,1.817,1.817,0,0,0-1.122-.309h-9a6.2,6.2,0,0,0-2.624.5A6.135,6.135,0,0,0,1.383,99.83a6,6,0,0,0-1.236,2.486c-.061.228-.078.466-.119.7-.011.2-.021.4-.028.6v38.95c0,.521,0,1.029,0,1.553,0,1.573,0,3.178,0,4.776v50.615a6.236,6.236,0,0,0,.241,1.888,5.961,5.961,0,0,0,2.317,3.188,6.2,6.2,0,0,0,3.819,1.047l4.06,0,8.037,0,15.715.011,7.657,0c1.263-.007,2.528.02,3.769-.015a5.936,5.936,0,0,0,3.38-1.305,6.356,6.356,0,0,0,1.219-1.348,5.906,5.906,0,0,0,.748-1.643,6.229,6.229,0,0,0,.224-1.785q0-.91,0-1.817,0-3.622,0-7.162c.011-18.867.02-35.858.028-50.128s.026-25.817.034-33.8q0-1.5,0-2.824a6.16,6.16,0,0,0-.438-2.414,5.968,5.968,0,0,0-1.13-1.778,6.01,6.01,0,0,0-3.6-1.9,4.685,4.685,0,0,0-.607-.055c-.137-.009-.206-.015-.206-.015s-.276.006-.817.009l-2.4.007" transform="translate(0 -3.592)" fill="#fafafa"/>
            <path id="Trazado_231173" data-name="Trazado 231173" d="M393.739,97.683l-3.9.006a3,3,0,0,0-1.174.127,1.839,1.839,0,0,0-.928.824,1.953,1.953,0,0,0-.219.623,4.061,4.061,0,0,0-.029.689c0,.235,0,.474,0,.717a3.336,3.336,0,0,1-.047.741,1.96,1.96,0,0,1-.87,1.252,1.82,1.82,0,0,1-.765.27c-.278.025-.548.008-.827.013h-3.5l-7.928,0h-2.724a2.177,2.177,0,0,1-.565-.055,1.878,1.878,0,0,1-.972-.6,1.991,1.991,0,0,1-.474-1.056,4.42,4.42,0,0,1-.021-.585v-.583a3.111,3.111,0,0,0-.117-1.147,1.876,1.876,0,0,0-.7-.909,1.817,1.817,0,0,0-1.122-.309h-9a6.2,6.2,0,0,0-2.624.5,6.136,6.136,0,0,0-2.183,1.629,6,6,0,0,0-1.236,2.486c-.061.228-.078.466-.119.7-.011.2-.021.4-.028.6v38.95c0,.521,0,1.029,0,1.553,0,1.573,0,3.178,0,4.776v50.615a6.2,6.2,0,0,0,.241,1.888,5.965,5.965,0,0,0,2.316,3.188,6.2,6.2,0,0,0,3.819,1.047l4.06,0,8.037,0,15.715.011,7.658,0c1.262-.007,2.527.02,3.768-.015a5.936,5.936,0,0,0,3.38-1.305,6.359,6.359,0,0,0,1.219-1.348,5.906,5.906,0,0,0,.748-1.643,6.229,6.229,0,0,0,.225-1.785v-1.817q0-3.622,0-7.162c.011-18.867.02-35.858.028-50.128s.026-25.817.034-33.8q0-1.5,0-2.824a6.161,6.161,0,0,0-.438-2.414,5.971,5.971,0,0,0-1.13-1.778,6.01,6.01,0,0,0-3.6-1.9,4.672,4.672,0,0,0-.607-.055c-.137-.009-.206-.015-.206-.015s-.276.006-.817.009l-2.4.007" transform="translate(-12.934 -3.592)" fill="#fafafa"/>
          </g>
        </g>
        <g id="Grupo_180152" data-name="Grupo 180152">
          <g id="Grupo_180151" data-name="Grupo 180151" clip-path="url(#clip-path)">
            <path id="Trazado_231174" data-name="Trazado 231174" d="M96.028,55.67l-6.221.01a4.767,4.767,0,0,0-1.873.2,2.93,2.93,0,0,0-1.481,1.313,3.161,3.161,0,0,0-.349,1,6.446,6.446,0,0,0-.046,1.1c0,.376,0,.757,0,1.143a5.354,5.354,0,0,1-.075,1.182,3.135,3.135,0,0,1-1.388,2,2.928,2.928,0,0,1-1.22.431c-.444.039-.874.012-1.319.02l-5.576,0-12.646,0H59.489a3.433,3.433,0,0,1-.9-.088,3,3,0,0,1-1.55-.956,3.181,3.181,0,0,1-.756-1.684,6.9,6.9,0,0,1-.033-.932v-.93a4.973,4.973,0,0,0-.188-1.83A2.99,2.99,0,0,0,54.95,56.2a2.9,2.9,0,0,0-1.791-.493H38.807a9.893,9.893,0,0,0-4.185.792,9.782,9.782,0,0,0-3.482,2.6,9.55,9.55,0,0,0-1.971,3.966c-.1.364-.125.743-.192,1.114-.016.317-.034.633-.043.952V218.091a9.935,9.935,0,0,0,.383,3.01,9.511,9.511,0,0,0,3.7,5.087,9.884,9.884,0,0,0,6.092,1.67l6.475,0,12.821.009,25.067.016,12.215.009c2.013-.012,4.032.032,6.011-.025a9.463,9.463,0,0,0,5.391-2.083,10.114,10.114,0,0,0,1.946-2.15,9.41,9.41,0,0,0,1.193-2.621,9.953,9.953,0,0,0,.358-2.846q0-1.454,0-2.9,0-5.779,0-11.424c.017-30.095.033-57.2.045-79.962s.041-41.182.054-53.915q0-2.387.007-4.5a9.8,9.8,0,0,0-.7-3.85,9.48,9.48,0,0,0-1.8-2.837,9.581,9.581,0,0,0-5.74-3.024,7.932,7.932,0,0,0-.969-.089c-.218-.013-.328-.023-.328-.023s-.442.009-1.3.013l-3.825.012" transform="translate(-1.064 -2.047)" fill="#fafafa"/>
            <path id="Trazado_231175" data-name="Trazado 231175" d="M101.266,55.779s.11,0,.327.01a7.211,7.211,0,0,1,.968.075,8.989,8.989,0,0,1,3.585,1.238,9.172,9.172,0,0,1,2.18,1.767,9.574,9.574,0,0,1,1.821,2.853,9.9,9.9,0,0,1,.715,3.88q0,2.115.006,4.5c.008,12.734.018,31.154.033,53.915s.008,49.867.013,79.962q0,5.644,0,11.423v2.9a10.22,10.22,0,0,1-.367,2.916,9.618,9.618,0,0,1-1.22,2.692,10.333,10.333,0,0,1-1.99,2.21,9.677,9.677,0,0,1-5.518,2.142c-2,.058-3.994.014-6.006.027l-12.17-.006-24.976-.013-12.773-.007-6.452,0a10.1,10.1,0,0,1-6.224-1.718,9.794,9.794,0,0,1-3.788-5.232,10.553,10.553,0,0,1-.4-3.234q0-1.612,0-3.221,0-6.434,0-12.778,0-12.689.006-24.983c.007-16.379.012-32.177.017-47.228s.015-29.351.02-42.735q.007-10.039.013-19.368,0-1.165,0-2.318c.006-.385.033-.774.054-1.16.067-.38.1-.767.2-1.139A9.77,9.77,0,0,1,31.35,59.1a9.7,9.7,0,0,1,7.792-3.452l8.33.01,4.008,0,1.963,0a3.063,3.063,0,0,1,1.881.526,3.165,3.165,0,0,1,1.168,1.535,5.118,5.118,0,0,1,.195,1.887q0,.467,0,.93a6.931,6.931,0,0,0,.03.911,3.015,3.015,0,0,0,.713,1.6,2.817,2.817,0,0,0,1.46.906,3.254,3.254,0,0,0,.861.086h.88l3.449,0,12.6.018,5.555.009c.438-.008.885.02,1.3-.016a2.8,2.8,0,0,0,1.17-.411,3.027,3.027,0,0,0,1.339-1.925,5.324,5.324,0,0,0,.075-1.161q0-.579,0-1.143a6.517,6.517,0,0,1,.05-1.114,3.219,3.219,0,0,1,.36-1.023,3.009,3.009,0,0,1,1.526-1.349,4.791,4.791,0,0,1,1.9-.2l6.2.017,3.812.015c.858,0,1.3.014,1.3.014s-.44.009-1.3.013l-3.812.011-6.2.01a4.732,4.732,0,0,0-1.866.2,2.929,2.929,0,0,0-1.477,1.314,3.143,3.143,0,0,0-.347.994,6.349,6.349,0,0,0-.045,1.1q0,.564,0,1.143a5.425,5.425,0,0,1-.074,1.183,3.138,3.138,0,0,1-1.383,2,2.912,2.912,0,0,1-1.217.431c-.442.039-.87.012-1.314.02l-5.555,0-12.6,0H59.75a3.412,3.412,0,0,1-.9-.088,2.978,2.978,0,0,1-1.544-.956,3.184,3.184,0,0,1-.753-1.684,6.907,6.907,0,0,1-.033-.932v-.93a4.993,4.993,0,0,0-.187-1.83,2.99,2.99,0,0,0-1.108-1.451,2.884,2.884,0,0,0-1.783-.493h-14.3A9.5,9.5,0,0,0,31.5,59.228a9.565,9.565,0,0,0-1.963,3.966c-.1.364-.125.743-.192,1.114-.019.379-.046.755-.052,1.139q0,1.153,0,2.318,0,9.319,0,19.368c0,13.384,0,27.686,0,42.735s0,30.849,0,47.228q0,12.284,0,24.983,0,6.343,0,12.778,0,1.608,0,3.221a10.249,10.249,0,0,0,.388,3.157,9.519,9.519,0,0,0,3.682,5.086,9.816,9.816,0,0,0,6.071,1.67l6.451,0L58.666,228l24.975.016,12.17.009c2.005-.012,4.018.032,5.989-.025a9.41,9.41,0,0,0,5.372-2.082,10.1,10.1,0,0,0,1.938-2.15,9.4,9.4,0,0,0,1.19-2.621,9.986,9.986,0,0,0,.357-2.846q0-1.453,0-2.9,0-5.778,0-11.423c.016-30.095.032-57.2.044-79.962s.041-41.182.054-53.915q0-2.387.007-4.5a9.808,9.808,0,0,0-.7-3.849,9.477,9.477,0,0,0-1.794-2.838,9.538,9.538,0,0,0-5.72-3.024,7.649,7.649,0,0,0-.965-.088c-.217-.013-.327-.024-.327-.024" transform="translate(-1.068 -2.047)" fill="#263238"/>
            <path id="Trazado_231176" data-name="Trazado 231176" d="M105.673,71.85c0,.041-1.579.088-3.526.1s-3.528,0-3.528-.045,1.578-.088,3.526-.1,3.528,0,3.528.045" transform="translate(-3.627 -2.641)" fill="#263238"/>
            <path id="Trazado_231177" data-name="Trazado 231177" d="M105.689,73.724c0,.041-1.579.088-3.527.1s-3.527,0-3.528-.045,1.579-.088,3.527-.1,3.528,0,3.528.045" transform="translate(-3.627 -2.71)" fill="#263238"/>
            <path id="Trazado_231178" data-name="Trazado 231178" d="M105.7,75.6c0,.041-1.579.088-3.527.1s-3.527,0-3.528-.045,1.579-.088,3.527-.1,3.528,0,3.528.045" transform="translate(-3.628 -2.778)" fill="#263238"/>
            <path id="Trazado_231179" data-name="Trazado 231179" d="M39.321,77.514a1.132,1.132,0,0,1,.146-.01l.408-.013,1.506-.036-.042.042c0-.334-.011-.7-.017-1.092,0-.2-.017-.395,0-.629a.578.578,0,0,1,.5-.464c.243,0,.457-.016.72,0a.585.585,0,0,1,.494.582c0,.51.012,1.041.017,1.593l-.069-.068,1.9-.019-.071.073c-.008-.766-.014-1.557-.021-2.368l-.006-.6a.616.616,0,0,0-.267-.449l-.831-.819-.8-.791-.388-.383c-.134-.128-.238-.262-.393-.294a.514.514,0,0,0-.435.084c-.116.1-.238.235-.354.348l-.682.688c-.429.446-.876.852-1.2,1.238a1.343,1.343,0,0,0-.1.709c0,.235,0,.458,0,.669,0,.41,0,.771-.006,1.079,0,.275-.006.5-.009.69a2.2,2.2,0,0,1-.009.249,1.748,1.748,0,0,1-.013-.228c0-.184-.011-.407-.018-.679-.008-.311-.015-.673-.025-1.087,0-.215-.008-.443-.013-.683,0-.121,0-.246-.006-.374a.791.791,0,0,1,.1-.4c.352-.431.771-.812,1.2-1.27.219-.223.445-.455.676-.693.122-.119.223-.239.367-.364a.647.647,0,0,1,.551-.108,1.017,1.017,0,0,1,.457.327l.39.381q.394.387.8.788l.832.818a1.6,1.6,0,0,1,.212.229.632.632,0,0,1,.1.321c0,.2,0,.4,0,.606.007.811.013,1.6.018,2.369v.072h-.072l-1.9.012h-.069v-.069q0-.828-.009-1.593a.457.457,0,0,0-.383-.461c-.219-.012-.477,0-.69,0a.465.465,0,0,0-.409.369c-.018.192,0,.414-.009.608,0,.393,0,.758,0,1.092v.042h-.042l-1.531-.011-.4-.007a.778.778,0,0,1-.131-.008" transform="translate(-1.443 -2.634)" fill="#263238"/>
            <path id="Trazado_231180" data-name="Trazado 231180" d="M87.769,143.361c0,.274-7.557.5-16.878.5s-16.88-.222-16.88-.5,7.556-.5,16.88-.5,16.878.222,16.878.5" transform="translate(-1.986 -5.254)" fill="#263238"/>
            <rect id="Rectángulo_58012" data-name="Rectángulo 58012" width="32.771" height="43.6" transform="translate(47.066 126.664) rotate(-89.681)" fill="#afafaf"/>
            <path id="Trazado_231181" data-name="Trazado 231181" d="M48.863,130.725,64.205,110.44l9.362,12.8L80,116.46l12.459,14.508Z" transform="translate(-1.797 -4.062)" fill="#636363"/>
            <path id="Trazado_231182" data-name="Trazado 231182" d="M78.493,107.8a3.433,3.433,0,1,1-3.414-3.452,3.433,3.433,0,0,1,3.414,3.452" transform="translate(-2.634 -3.838)" fill="#636363"/>
            <path id="Trazado_231185" data-name="Trazado 231185" d="M100.414,155.883c0,.274-13.4.5-29.927.5s-29.93-.222-29.93-.5,13.4-.5,29.93-.5,29.927.222,29.927.5" transform="translate(-1.492 -5.715)" fill="#263238"/>
            <path id="Trazado_231186" data-name="Trazado 231186" d="M100.414,164.546c0,.274-13.4.5-29.927.5s-29.93-.222-29.93-.5,13.4-.5,29.93-.5,29.927.222,29.927.5" transform="translate(-1.492 -6.033)" fill="#263238"/>
            <path id="Trazado_231187" data-name="Trazado 231187" d="M100.414,173.208c0,.274-13.4.5-29.927.5s-29.93-.222-29.93-.5,13.4-.5,29.93-.5,29.927.222,29.927.5" transform="translate(-1.492 -6.352)" fill="#263238"/>
            <path id="Trazado_231188" data-name="Trazado 231188" d="M100.414,181.87c0,.274-13.4.5-29.927.5s-29.93-.222-29.93-.5,13.4-.5,29.93-.5,29.927.222,29.927.5" transform="translate(-1.492 -6.671)" fill="#263238"/>
            <path id="Trazado_231189" data-name="Trazado 231189" d="M100.414,190.533c0,.274-13.4.5-29.927.5s-29.93-.222-29.93-.5,13.4-.5,29.93-.5,29.927.222,29.927.5" transform="translate(-1.492 -6.989)" fill="#263238"/>
            <path id="Trazado_231190" data-name="Trazado 231190" d="M88.021,198.442c0,.137-1.924.26-5.033.351s-7.4.144-12.148.144-9.041-.055-12.15-.144-5.032-.214-5.032-.351,1.923-.261,5.032-.351,7.405-.144,12.15-.144,9.039.055,12.148.144,5.033.214,5.033.351" transform="translate(-1.973 -7.28)" fill="#263238"/>
            <path id="Trazado_231191" data-name="Trazado 231191" d="M157.861,41.125l-6.913.011a5.266,5.266,0,0,0-2.082.225,3.269,3.269,0,0,0-1.646,1.465,3.514,3.514,0,0,0-.387,1.109,7.139,7.139,0,0,0-.051,1.225q0,.629,0,1.275a6.01,6.01,0,0,1-.082,1.319,3.5,3.5,0,0,1-1.543,2.228,3.276,3.276,0,0,1-1.356.48c-.493.043-.97.013-1.466.022l-6.2,0-14.053,0H117.26a3.829,3.829,0,0,1-1-.1,3.321,3.321,0,0,1-1.722-1.065,3.557,3.557,0,0,1-.841-1.878,7.865,7.865,0,0,1-.036-1.039q0-.517,0-1.037a5.543,5.543,0,0,0-.208-2.041,3.333,3.333,0,0,0-1.235-1.618,3.213,3.213,0,0,0-1.989-.55H94.275a10.6,10.6,0,0,0-8.52,3.781,10.683,10.683,0,0,0-2.19,4.423c-.108.406-.139.829-.212,1.244-.018.354-.038.706-.048,1.061v170.6a11.107,11.107,0,0,0,.425,3.358,10.618,10.618,0,0,0,4.108,5.672,10.954,10.954,0,0,0,6.77,1.863l7.2,0,14.247.009,27.855.018,13.573.01c2.237-.012,4.481.036,6.681-.028a10.5,10.5,0,0,0,5.99-2.322,11.294,11.294,0,0,0,2.162-2.4,10.535,10.535,0,0,0,1.325-2.923,11.094,11.094,0,0,0,.4-3.175q0-1.62,0-3.232,0-6.445,0-12.741c.018-33.564.036-63.793.05-89.181s.045-45.929.06-60.13q0-2.663.008-5.024a10.979,10.979,0,0,0-.777-4.293,10.613,10.613,0,0,0-2-3.164A10.633,10.633,0,0,0,165,41.223a8.6,8.6,0,0,0-1.077-.1c-.242-.014-.364-.026-.364-.026s-.49.01-1.449.014l-4.251.013" transform="translate(-3.064 -1.511)" fill="#fafafa"/>
            <path id="Trazado_231192" data-name="Trazado 231192" d="M163.626,41.018s.122,0,.365.011a7.9,7.9,0,0,1,1.081.084,10.036,10.036,0,0,1,4,1.381,10.2,10.2,0,0,1,2.432,1.97,10.653,10.653,0,0,1,2.03,3.182,11.022,11.022,0,0,1,.8,4.327q0,2.361.006,5.024c.009,14.2.021,34.745.037,60.13s.01,55.616.014,89.181q0,6.294,0,12.741v3.232a11.427,11.427,0,0,1-.408,3.252,10.781,10.781,0,0,1-1.362,3A11.532,11.532,0,0,1,170.4,231a10.793,10.793,0,0,1-6.155,2.389c-2.235.065-4.454.016-6.7.03l-13.573-.006-27.855-.014-14.247-.008-7.2,0a11.262,11.262,0,0,1-6.941-1.917,10.919,10.919,0,0,1-4.226-5.835,11.743,11.743,0,0,1-.445-3.605q0-1.8,0-3.594,0-7.174,0-14.251,0-14.151.008-27.863c.007-18.267.013-35.887.019-52.672s.015-32.735.023-47.663q.006-11.195.013-21.6,0-1.3,0-2.585c.006-.43.037-.864.06-1.293.075-.425.108-.856.219-1.27a10.9,10.9,0,0,1,2.241-4.517,10.813,10.813,0,0,1,8.69-3.85l9.29.011,4.469.006,2.189,0a3.414,3.414,0,0,1,2.1.586,3.523,3.523,0,0,1,1.3,1.713,5.7,5.7,0,0,1,.216,2.1q0,.522,0,1.037a7.687,7.687,0,0,0,.034,1.016,3.369,3.369,0,0,0,.8,1.784,3.142,3.142,0,0,0,1.628,1.011,3.63,3.63,0,0,0,.961.094h.982l3.847.006,14.052.02,6.2.011c.489-.009.987.022,1.452-.018a3.134,3.134,0,0,0,1.305-.459,3.369,3.369,0,0,0,1.493-2.147,5.879,5.879,0,0,0,.084-1.294q0-.647,0-1.275a7.13,7.13,0,0,1,.056-1.243,3.572,3.572,0,0,1,.4-1.141,3.364,3.364,0,0,1,1.7-1.5,5.34,5.34,0,0,1,2.116-.225l6.913.018,4.252.017c.957.006,1.448.016,1.448.016s-.49.01-1.448.014l-4.252.013-6.913.011a5.243,5.243,0,0,0-2.081.226,3.261,3.261,0,0,0-1.647,1.464,3.512,3.512,0,0,0-.387,1.109,7.224,7.224,0,0,0-.051,1.225q0,.628,0,1.275a6.01,6.01,0,0,1-.082,1.319,3.5,3.5,0,0,1-1.543,2.228,3.27,3.27,0,0,1-1.356.48c-.493.043-.97.013-1.466.022l-6.2,0-14.053,0h-4.829a3.783,3.783,0,0,1-1-.1,3.321,3.321,0,0,1-1.722-1.065,3.56,3.56,0,0,1-.841-1.877,7.88,7.88,0,0,1-.036-1.04c0-.344,0-.69,0-1.037a5.545,5.545,0,0,0-.208-2.041,3.323,3.323,0,0,0-1.235-1.618,3.22,3.22,0,0,0-1.989-.55H94.34a10.6,10.6,0,0,0-8.52,3.781,10.687,10.687,0,0,0-2.19,4.424c-.108.406-.139.827-.212,1.243-.022.422-.052.842-.058,1.27q0,1.286,0,2.585,0,10.393,0,21.6c0,14.928,0,30.878,0,47.663s0,34.405,0,52.672q0,13.7,0,27.863,0,7.075,0,14.252,0,1.793,0,3.593a11.431,11.431,0,0,0,.433,3.521,10.612,10.612,0,0,0,4.107,5.672,10.955,10.955,0,0,0,6.77,1.863l7.2,0,14.247.009,27.855.018,13.573.01c2.237-.012,4.481.036,6.681-.028a10.5,10.5,0,0,0,5.99-2.322,11.292,11.292,0,0,0,2.162-2.4,10.507,10.507,0,0,0,1.325-2.923,11.1,11.1,0,0,0,.4-3.175q0-1.62,0-3.232,0-6.445,0-12.741c.019-33.564.036-63.793.05-89.181S174.2,71.2,174.216,57q.006-2.663.009-5.024a10.975,10.975,0,0,0-.777-4.293,10.594,10.594,0,0,0-2-3.164,10.634,10.634,0,0,0-6.378-3.371,8.6,8.6,0,0,0-1.077-.1c-.242-.014-.364-.026-.364-.026" transform="translate(-3.055 -1.503)" fill="#263238"/>
            <path id="Trazado_231193" data-name="Trazado 231193" d="M168.541,58.942c0,.046-1.761.1-3.934.116s-3.935,0-3.935-.05,1.761-.1,3.934-.116,3.935,0,3.935.05" transform="translate(-5.909 -2.166)" fill="#263238"/>
            <path id="Trazado_231194" data-name="Trazado 231194" d="M168.559,61.033c0,.046-1.761.1-3.934.116s-3.936,0-3.936-.05,1.762-.1,3.934-.116,3.936,0,3.936.05" transform="translate(-5.91 -2.243)" fill="#263238"/>
            <path id="Trazado_231195" data-name="Trazado 231195" d="M168.576,63.123c0,.046-1.761.1-3.934.116s-3.935,0-3.935-.05,1.761-.1,3.934-.116,3.935,0,3.935.05" transform="translate(-5.91 -2.319)" fill="#263238"/>
            <path id="Trazado_231196" data-name="Trazado 231196" d="M94.539,65.259a1.246,1.246,0,0,1,.164-.011l.455-.015,1.681-.04-.047.048q-.009-.559-.019-1.218c0-.226-.019-.44,0-.7a.645.645,0,0,1,.564-.518c.271-.006.509-.017.8,0a.652.652,0,0,1,.551.648q.01.852.02,1.777l-.078-.076,2.119-.022-.08.082c-.008-.853-.015-1.736-.024-2.64l-.006-.673a.681.681,0,0,0-.3-.5l-.927-.914-.894-.881-.432-.428c-.149-.144-.266-.292-.438-.327a.569.569,0,0,0-.486.092c-.129.109-.266.262-.395.388l-.761.768c-.478.5-.976.95-1.338,1.379a1.492,1.492,0,0,0-.107.791c0,.263,0,.511,0,.747q0,.686-.007,1.2c0,.307-.007.562-.01.77a2.524,2.524,0,0,1-.01.277A2.015,2.015,0,0,1,94.524,65c-.006-.2-.013-.455-.021-.757q-.012-.52-.027-1.213-.007-.36-.014-.761c0-.136,0-.275-.007-.417a.873.873,0,0,1,.118-.443c.391-.481.859-.906,1.342-1.418l.754-.773c.136-.134.248-.267.409-.406a.721.721,0,0,1,.615-.121,1.147,1.147,0,0,1,.509.364c.144.141.289.282.434.427l.9.878.929.911a1.678,1.678,0,0,1,.237.257.688.688,0,0,1,.111.357q0,.335.007.675c.007.9.013,1.788.019,2.641v.081h-.081l-2.119.013h-.078v-.078c0-.615-.007-1.209-.01-1.776a.511.511,0,0,0-.429-.514c-.244-.013-.531,0-.769,0a.52.52,0,0,0-.457.412c-.02.213,0,.461-.01.677q0,.659,0,1.218v.047h-.047l-1.708-.013-.445-.007a.873.873,0,0,1-.146-.009" transform="translate(-3.474 -2.158)" fill="#263238"/>
            <path id="Trazado_231197" data-name="Trazado 231197" d="M138.481,76.683a7.1,7.1,0,1,1-7.1-7.1,7.1,7.1,0,0,1,7.1,7.1" transform="translate(-4.57 -2.559)" fill="#4adbd1"/>
            <path id="Trazado_231198" data-name="Trazado 231198" d="M133.992,79.812h-4.874v-.6a2.437,2.437,0,0,1,4.874,0Z" transform="translate(-4.749 -2.824)" fill="#fff"/>
            <path id="Trazado_231199" data-name="Trazado 231199" d="M133.026,75.412a1.432,1.432,0,1,1-1.432-1.432,1.433,1.433,0,0,1,1.432,1.432" transform="translate(-4.787 -2.721)" fill="#fff"/>
            <path id="Trazado_231200" data-name="Trazado 231200" d="M148.572,96.426c0,.305-8.428.553-18.823.553s-18.825-.248-18.825-.553,8.427-.552,18.825-.552,18.823.247,18.823.552" transform="translate(-4.08 -3.526)" fill="#263238"/>
            <rect id="Rectángulo_58015" data-name="Rectángulo 58015" width="24.431" height="32.504" transform="translate(87.129 136.037) rotate(-89.681)" fill="#afafaf"/>
            <path id="Trazado_231201" data-name="Trazado 231201" d="M90.456,140.654l11.437-15.123,6.98,9.54,4.8-5.052,9.289,10.816Z" transform="translate(-3.327 -4.617)" fill="#636363"/>
            <path id="Trazado_231202" data-name="Trazado 231202" d="M112.547,123.56A2.56,2.56,0,1,1,110,120.986a2.561,2.561,0,0,1,2.546,2.574" transform="translate(-3.951 -4.45)" fill="#636363"/>
            <rect id="Rectángulo_58018" data-name="Rectángulo 58018" width="56.478" height="75.142" transform="matrix(0.006, -1, 1, 0.006, 86.834, 200.052)" fill="#afafaf"/>
            <path id="Trazado_231205" data-name="Trazado 231205" d="M90.149,206.355,116.59,171.4l16.135,22.054,11.092-11.68,21.474,25Z" transform="translate(-3.315 -6.304)" fill="#636363"/>
            <path id="Trazado_231206" data-name="Trazado 231206" d="M141.215,166.838a5.917,5.917,0,1,1-5.883-5.95,5.917,5.917,0,0,1,5.883,5.95" transform="translate(-4.758 -5.917)" fill="#636363"/>
            <rect id="Rectángulo_58021" data-name="Rectángulo 58021" width="24.431" height="32.505" transform="translate(130.041 136.037) rotate(-89.681)" fill="#afafaf"/>
            <path id="Trazado_231209" data-name="Trazado 231209" d="M135.006,140.654l11.437-15.123,6.979,9.54,4.8-5.052,9.288,10.816Z" transform="translate(-4.965 -4.617)" fill="#e8505b"/>
            <path id="Trazado_231210" data-name="Trazado 231210" d="M157.1,123.56a2.56,2.56,0,1,1-2.546-2.574,2.561,2.561,0,0,1,2.546,2.574" transform="translate(-5.589 -4.45)" fill="#e8505b"/>
            <g id="Grupo_180117" data-name="Grupo 180117" transform="translate(130.041 120.914)" opacity="0.2">
              <g id="Grupo_180116" data-name="Grupo 180116">
                <g id="Grupo_180115" data-name="Grupo 180115" clip-path="url(#clip-path-4)">
                  <path id="Trazado_231211" data-name="Trazado 231211" d="M135.006,140.654l11.437-15.123,6.979,9.54,4.8-5.052,9.288,10.816Z" transform="translate(-135.006 -125.531)"/>
                </g>
              </g>
            </g>
            <g id="Grupo_180120" data-name="Grupo 180120" transform="translate(146.389 116.536)" opacity="0.2">
              <g id="Grupo_180119" data-name="Grupo 180119">
                <g id="Grupo_180118" data-name="Grupo 180118" clip-path="url(#clip-path-5)">
                  <path id="Trazado_231212" data-name="Trazado 231212" d="M157.1,123.56a2.56,2.56,0,1,1-2.546-2.574,2.561,2.561,0,0,1,2.546,2.574" transform="translate(-151.978 -120.986)"/>
                </g>
              </g>
            </g>
            <path id="Trazado_231213" data-name="Trazado 231213" d="M367.714,51.013l-6.2.01a4.732,4.732,0,0,0-1.866.2,2.927,2.927,0,0,0-1.477,1.313,3.133,3.133,0,0,0-.347,1,6.452,6.452,0,0,0-.046,1.1q0,.563,0,1.143a5.368,5.368,0,0,1-.074,1.183,3.132,3.132,0,0,1-1.383,2,2.9,2.9,0,0,1-1.216.431c-.442.039-.87.012-1.315.02l-5.555,0-12.6,0h-4.329a3.4,3.4,0,0,1-.9-.088,2.981,2.981,0,0,1-1.544-.956,3.185,3.185,0,0,1-.754-1.684,7.052,7.052,0,0,1-.032-.932q0-.464,0-.93a4.95,4.95,0,0,0-.187-1.83,2.988,2.988,0,0,0-1.107-1.451A2.885,2.885,0,0,0,325,51.048H310.7a9.5,9.5,0,0,0-7.638,3.391A9.574,9.574,0,0,0,301.1,58.4c-.1.364-.124.743-.19,1.114-.016.317-.034.633-.043.952V213.434a9.94,9.94,0,0,0,.381,3.011,9.513,9.513,0,0,0,3.682,5.086A9.818,9.818,0,0,0,311,223.2l6.452,0,12.774.008,24.976.016,12.169.009c2.005-.012,4.018.032,5.99-.025a9.407,9.407,0,0,0,5.371-2.082,10.061,10.061,0,0,0,1.939-2.15,9.426,9.426,0,0,0,1.189-2.621,9.99,9.99,0,0,0,.358-2.846q0-1.453,0-2.9,0-5.779,0-11.424c.016-30.095.032-57.2.044-79.962s.04-41.182.053-53.915q0-2.387.008-4.5a9.834,9.834,0,0,0-.7-3.85,9.486,9.486,0,0,0-1.8-2.837,9.524,9.524,0,0,0-5.719-3.023,7.75,7.75,0,0,0-.965-.09c-.218-.013-.327-.023-.327-.023s-.439.009-1.3.013l-3.811.011" transform="translate(-11.065 -1.875)" fill="#fafafa"/>
            <rect id="Rectángulo_58024" data-name="Rectángulo 58024" width="53.789" height="10.987" transform="translate(303.188 113.947)" fill="#ebebeb"/>
            <path id="Trazado_231214" data-name="Trazado 231214" d="M373,50.917s.11,0,.327.01A7.209,7.209,0,0,1,374.3,51a9,9,0,0,1,3.585,1.238,9.175,9.175,0,0,1,2.18,1.767,9.574,9.574,0,0,1,1.82,2.853,9.911,9.911,0,0,1,.716,3.88q0,2.117,0,4.5c.008,12.734.018,31.154.033,53.915s.008,49.867.013,79.962q0,5.644,0,11.424v2.9a10.221,10.221,0,0,1-.367,2.916,9.624,9.624,0,0,1-1.22,2.692,10.336,10.336,0,0,1-1.99,2.21,9.678,9.678,0,0,1-5.518,2.142c-2,.058-3.993.014-6.006.027l-12.17-.006L330.4,223.41l-12.773-.007-6.453,0a10.1,10.1,0,0,1-6.223-1.718,9.793,9.793,0,0,1-3.788-5.232,10.549,10.549,0,0,1-.4-3.233q0-1.614,0-3.222,0-6.434,0-12.778,0-12.689.007-24.983c.006-16.379.012-32.177.017-47.228s.014-29.351.021-42.735q.006-10.039.012-19.368,0-1.165,0-2.318c.006-.385.034-.774.054-1.16.067-.38.1-.767.2-1.139a9.772,9.772,0,0,1,2.01-4.049,9.7,9.7,0,0,1,7.791-3.452l8.33.01,4.008,0,1.963,0a3.068,3.068,0,0,1,1.881.526,3.159,3.159,0,0,1,1.168,1.535,5.121,5.121,0,0,1,.195,1.888c0,.311,0,.62,0,.93a6.927,6.927,0,0,0,.03.911,3.015,3.015,0,0,0,.713,1.6,2.817,2.817,0,0,0,1.46.906,3.214,3.214,0,0,0,.861.086h.88l3.449,0,12.6.018,5.555.009c.438-.007.885.02,1.3-.016a2.813,2.813,0,0,0,1.17-.41,3.031,3.031,0,0,0,1.339-1.925,5.321,5.321,0,0,0,.075-1.161q0-.579,0-1.143a6.524,6.524,0,0,1,.05-1.114,3.23,3.23,0,0,1,.36-1.023,3.01,3.01,0,0,1,1.526-1.349,4.809,4.809,0,0,1,1.9-.2l6.2.017,3.813.015c.858,0,1.3.014,1.3.014s-.44.009-1.3.013l-3.812.012-6.2.01a4.732,4.732,0,0,0-1.866.2,2.929,2.929,0,0,0-1.477,1.314,3.14,3.14,0,0,0-.347.994,6.334,6.334,0,0,0-.045,1.1q0,.563,0,1.143a5.411,5.411,0,0,1-.074,1.182,3.134,3.134,0,0,1-1.383,2,2.912,2.912,0,0,1-1.216.431c-.443.039-.871.012-1.315.02l-5.555,0-12.6,0h-4.33a3.413,3.413,0,0,1-.9-.088,2.972,2.972,0,0,1-1.543-.956,3.178,3.178,0,0,1-.754-1.684,7.064,7.064,0,0,1-.033-.932v-.93a5,5,0,0,0-.187-1.831,2.99,2.99,0,0,0-1.108-1.451,2.884,2.884,0,0,0-1.783-.493h-14.3a9.5,9.5,0,0,0-7.638,3.391,9.574,9.574,0,0,0-1.964,3.966c-.1.364-.124.743-.191,1.114-.019.379-.046.755-.052,1.139q0,1.153,0,2.318,0,9.319,0,19.368c0,13.384,0,27.686,0,42.735s0,30.849,0,47.228q0,12.285,0,24.983,0,6.343,0,12.778v3.222a10.244,10.244,0,0,0,.387,3.156,9.516,9.516,0,0,0,3.683,5.086,9.814,9.814,0,0,0,6.07,1.67l6.452,0,12.774.008,24.975.016,12.17.009c2.005-.012,4.018.032,5.989-.025a9.41,9.41,0,0,0,5.372-2.083,10.079,10.079,0,0,0,1.938-2.15,9.4,9.4,0,0,0,1.19-2.621,9.987,9.987,0,0,0,.357-2.846q0-1.454,0-2.9,0-5.779,0-11.424c.017-30.095.032-57.2.044-79.962s.041-41.182.054-53.915q0-2.387.007-4.5a9.807,9.807,0,0,0-.7-3.849,9.492,9.492,0,0,0-1.794-2.838,9.14,9.14,0,0,0-2.159-1.766,9.047,9.047,0,0,0-3.561-1.257,7.51,7.51,0,0,0-.965-.089c-.217-.013-.327-.024-.327-.024" transform="translate(-11.061 -1.868)" fill="#263238"/>
            <path id="Trazado_231215" data-name="Trazado 231215" d="M377.407,66.988c0,.041-1.579.088-3.526.1s-3.528,0-3.528-.045,1.578-.088,3.526-.1,3.528,0,3.528.045" transform="translate(-13.621 -2.462)" fill="#263238"/>
            <path id="Trazado_231216" data-name="Trazado 231216" d="M377.423,68.862c0,.041-1.579.088-3.527.1s-3.527,0-3.528-.045,1.579-.088,3.527-.1,3.528,0,3.528.045" transform="translate(-13.621 -2.531)" fill="#263238"/>
            <path id="Trazado_231217" data-name="Trazado 231217" d="M377.438,70.736c0,.041-1.579.088-3.527.1s-3.527,0-3.527-.045,1.578-.088,3.526-.1,3.528,0,3.528.045" transform="translate(-13.622 -2.6)" fill="#263238"/>
            <path id="Trazado_231218" data-name="Trazado 231218" d="M311.055,72.652a1.133,1.133,0,0,1,.146-.01l.408-.013,1.506-.036-.042.042c0-.334-.011-.7-.017-1.092,0-.2-.017-.395,0-.629a.577.577,0,0,1,.5-.464c.243,0,.457-.016.721,0a.585.585,0,0,1,.494.582c0,.51.012,1.041.017,1.593l-.069-.069,1.9-.018-.072.073c-.008-.766-.014-1.558-.021-2.368l-.006-.6a.615.615,0,0,0-.267-.449l-.83-.819-.8-.791-.388-.383c-.133-.129-.238-.262-.393-.294a.51.51,0,0,0-.435.084c-.116.1-.238.235-.355.348l-.682.688c-.429.446-.875.852-1.2,1.237a1.347,1.347,0,0,0-.1.71c0,.235,0,.458,0,.669,0,.41,0,.771-.007,1.079,0,.275-.006.5-.009.69a2.2,2.2,0,0,1-.009.249,1.749,1.749,0,0,1-.013-.228c0-.184-.011-.408-.018-.679q-.011-.467-.025-1.087c0-.215-.008-.443-.013-.683,0-.121,0-.246-.006-.374a.791.791,0,0,1,.1-.4c.352-.431.772-.812,1.2-1.27.219-.223.445-.455.676-.693.122-.119.223-.239.367-.364a.647.647,0,0,1,.551-.108,1.022,1.022,0,0,1,.457.326l.39.382.8.788.833.818a1.6,1.6,0,0,1,.212.229.633.633,0,0,1,.1.321c0,.2,0,.4,0,.606.007.811.012,1.6.018,2.369v.072h-.072l-1.9.012h-.069v-.069q0-.828-.008-1.593a.459.459,0,0,0-.384-.461c-.219-.012-.477,0-.69,0a.464.464,0,0,0-.409.369c-.018.192,0,.414-.008.608v1.135h-.042l-1.53-.011-.4-.007a.777.777,0,0,1-.131-.008" transform="translate(-11.437 -2.455)" fill="#263238"/>
            <rect id="Rectángulo_58025" data-name="Rectángulo 58025" width="53.789" height="10.987" transform="translate(303.301 130.335)" fill="#ebebeb"/>
            <rect id="Rectángulo_58026" data-name="Rectángulo 58026" width="53.789" height="10.987" transform="translate(303.301 146.276)" fill="#ebebeb"/>
            <path id="Trazado_231219" data-name="Trazado 231219" d="M356.062,185.516h-27a5.493,5.493,0,0,1,0-10.986h27a5.493,5.493,0,1,1,0,10.986" transform="translate(-11.9 -6.419)" fill="#12263f"/>
            <path id="Trazado_231220" data-name="Trazado 231220" d="M359.384,106.491c0,.274-7.557.5-16.877.5s-16.88-.222-16.88-.5,7.556-.5,16.88-.5,16.877.222,16.877.5" transform="translate(-11.976 -3.898)" fill="#263238"/>
            <path id="Trazado_231221" data-name="Trazado 231221" d="M321.642,39.206l-6.913.011a5.26,5.26,0,0,0-2.081.226A3.262,3.262,0,0,0,311,40.907a3.51,3.51,0,0,0-.387,1.11,7.211,7.211,0,0,0-.051,1.224q0,.629,0,1.275a6.066,6.066,0,0,1-.083,1.319,3.5,3.5,0,0,1-1.543,2.228,3.275,3.275,0,0,1-1.356.48c-.493.043-.97.013-1.465.022l-6.2,0-14.053,0H281.04a3.782,3.782,0,0,1-1-.1,3.315,3.315,0,0,1-1.722-1.065,3.557,3.557,0,0,1-.841-1.877,7.891,7.891,0,0,1-.036-1.04c0-.344,0-.691,0-1.037a5.543,5.543,0,0,0-.208-2.041,3.333,3.333,0,0,0-1.235-1.618,3.219,3.219,0,0,0-1.989-.55H258.056a10.6,10.6,0,0,0-8.52,3.781,10.683,10.683,0,0,0-2.19,4.423c-.107.406-.139.829-.212,1.244-.018.353-.038.706-.048,1.061v170.6a11.082,11.082,0,0,0,.426,3.359,10.611,10.611,0,0,0,4.107,5.672,10.954,10.954,0,0,0,6.77,1.863l7.2,0,14.247.009,27.855.018,13.573.01c2.237-.013,4.481.036,6.681-.028a10.5,10.5,0,0,0,5.99-2.322,11.29,11.29,0,0,0,2.162-2.4,10.5,10.5,0,0,0,1.325-2.923,11.094,11.094,0,0,0,.4-3.175q0-1.62,0-3.232,0-6.445,0-12.741c.018-33.564.036-63.792.05-89.18s.045-45.93.06-60.131q0-2.663.008-5.024a10.979,10.979,0,0,0-.777-4.293,10.627,10.627,0,0,0-2-3.164,10.634,10.634,0,0,0-6.379-3.371,8.6,8.6,0,0,0-1.077-.1c-.242-.014-.364-.026-.364-.026s-.49.01-1.449.014l-4.251.013" transform="translate(-9.087 -1.441)" fill="#fafafa"/>
            <path id="Trazado_231222" data-name="Trazado 231222" d="M327.407,39.327s.122,0,.365.011a7.872,7.872,0,0,1,1.08.084,10.035,10.035,0,0,1,4,1.381,10.2,10.2,0,0,1,2.431,1.97,10.656,10.656,0,0,1,2.03,3.182,11.057,11.057,0,0,1,.8,4.327q0,2.361.006,5.024c.009,14.2.021,34.745.037,60.13s.009,55.617.014,89.181q0,6.294,0,12.741,0,1.611,0,3.232a11.424,11.424,0,0,1-.407,3.252,10.782,10.782,0,0,1-1.362,3,11.531,11.531,0,0,1-2.219,2.464,10.792,10.792,0,0,1-6.155,2.389c-2.236.066-4.454.016-6.7.03l-13.573-.006-27.855-.014-14.247-.008-7.2,0a11.26,11.26,0,0,1-6.941-1.917,10.914,10.914,0,0,1-4.226-5.835,11.746,11.746,0,0,1-.445-3.605q0-1.8,0-3.594,0-7.174,0-14.251,0-14.151.008-27.863c.006-18.267.013-35.887.018-52.672s.016-32.735.024-47.663q.006-11.195.012-21.6,0-1.3,0-2.585c.006-.43.037-.864.06-1.293.075-.425.108-.856.219-1.27a10.888,10.888,0,0,1,2.241-4.517,10.813,10.813,0,0,1,8.69-3.85l9.29.011,4.469.006,2.189,0a3.407,3.407,0,0,1,2.1.586,3.529,3.529,0,0,1,1.3,1.713,5.719,5.719,0,0,1,.216,2.1c0,.348,0,.694,0,1.037a7.683,7.683,0,0,0,.034,1.016,3.367,3.367,0,0,0,.795,1.784,3.148,3.148,0,0,0,1.629,1.011,3.671,3.671,0,0,0,.961.094h.982l3.846.006,14.053.02,6.2.011c.489-.009.987.022,1.452-.018a3.135,3.135,0,0,0,1.305-.459,3.369,3.369,0,0,0,1.493-2.147,5.875,5.875,0,0,0,.084-1.294q0-.647,0-1.275a7.32,7.32,0,0,1,.056-1.243,3.6,3.6,0,0,1,.4-1.141,3.36,3.36,0,0,1,1.7-1.5,5.34,5.34,0,0,1,2.116-.225l6.913.018,4.251.017c.958.006,1.449.016,1.449.016s-.49.01-1.449.014l-4.251.013-6.913.011a5.243,5.243,0,0,0-2.081.226,3.26,3.26,0,0,0-1.647,1.464,3.488,3.488,0,0,0-.387,1.109,7.126,7.126,0,0,0-.051,1.225q0,.628,0,1.275a5.954,5.954,0,0,1-.083,1.319A3.5,3.5,0,0,1,309,48.211a3.275,3.275,0,0,1-1.356.48c-.493.043-.971.013-1.466.022l-6.2,0-14.053,0H281.1a3.783,3.783,0,0,1-1-.1,3.321,3.321,0,0,1-1.722-1.065,3.553,3.553,0,0,1-.841-1.877,8.031,8.031,0,0,1-.037-1.04V43.6a5.545,5.545,0,0,0-.208-2.041,3.334,3.334,0,0,0-1.235-1.618,3.22,3.22,0,0,0-1.989-.55H258.121a10.6,10.6,0,0,0-8.52,3.781,10.686,10.686,0,0,0-2.19,4.424c-.108.406-.139.827-.213,1.243-.021.422-.052.842-.057,1.27v2.585q0,10.393,0,21.6c0,14.928,0,30.878,0,47.663s0,34.405,0,52.672q0,13.7,0,27.863,0,7.075,0,14.252,0,1.793,0,3.593a11.459,11.459,0,0,0,.432,3.521,10.613,10.613,0,0,0,4.108,5.672,10.953,10.953,0,0,0,6.77,1.863l7.2,0,14.247.009,27.855.018,13.573.01c2.237-.013,4.481.036,6.681-.028a10.5,10.5,0,0,0,5.99-2.322,11.265,11.265,0,0,0,2.161-2.4,10.483,10.483,0,0,0,1.326-2.923,11.093,11.093,0,0,0,.4-3.175q0-1.62,0-3.232,0-6.445.006-12.741c.018-33.564.036-63.792.05-89.181s.045-45.929.059-60.13q0-2.663.009-5.024a10.958,10.958,0,0,0-.778-4.293,10.592,10.592,0,0,0-2-3.164,10.633,10.633,0,0,0-6.378-3.371,8.6,8.6,0,0,0-1.077-.1c-.242-.014-.364-.026-.364-.026" transform="translate(-9.078 -1.441)" fill="#263238"/>
            <path id="Trazado_231223" data-name="Trazado 231223" d="M332.322,57.251c0,.046-1.761.1-3.933.116s-3.935,0-3.936-.05,1.761-.1,3.934-.116,3.935,0,3.935.05" transform="translate(-11.933 -2.103)" fill="#263238"/>
            <path id="Trazado_231224" data-name="Trazado 231224" d="M332.34,59.341c0,.046-1.761.1-3.934.116s-3.935,0-3.935-.05,1.761-.1,3.934-.116,3.935,0,3.935.05" transform="translate(-11.933 -2.18)" fill="#263238"/>
            <path id="Trazado_231225" data-name="Trazado 231225" d="M332.357,61.431c0,.046-1.761.1-3.934.116s-3.935,0-3.935-.05,1.761-.1,3.934-.116,3.934,0,3.935.05" transform="translate(-11.934 -2.257)" fill="#263238"/>
            <path id="Trazado_231226" data-name="Trazado 231226" d="M258.32,63.567a1.248,1.248,0,0,1,.164-.011l.456-.015,1.68-.039-.047.047q-.009-.559-.019-1.218c0-.226-.019-.44,0-.7a.645.645,0,0,1,.563-.518c.271,0,.509-.017.8,0a.653.653,0,0,1,.551.648q.01.852.02,1.777l-.078-.076,2.12-.022-.081.082c-.008-.853-.015-1.736-.024-2.64l-.006-.673a.678.678,0,0,0-.3-.5q-.47-.464-.927-.913t-.894-.882l-.432-.428c-.149-.144-.266-.292-.438-.327a.569.569,0,0,0-.486.092c-.129.109-.266.262-.4.388l-.76.768c-.479.5-.977.95-1.339,1.379a1.5,1.5,0,0,0-.107.791c0,.263,0,.512,0,.747,0,.458,0,.859-.007,1.2,0,.308-.007.562-.009.77a2.621,2.621,0,0,1-.011.277,2,2,0,0,1-.014-.254c-.006-.205-.013-.456-.021-.758q-.012-.52-.028-1.213-.006-.36-.013-.761c0-.136,0-.275-.007-.417a.876.876,0,0,1,.118-.443c.391-.481.859-.906,1.342-1.418l.754-.772c.136-.134.247-.266.409-.406a.721.721,0,0,1,.615-.121,1.147,1.147,0,0,1,.509.364l.435.427.9.878.928.911a1.726,1.726,0,0,1,.237.257.688.688,0,0,1,.111.357q0,.335.007.675c.007.9.014,1.788.019,2.641V63.6h-.081l-2.12.013h-.077v-.078c0-.615-.007-1.208-.01-1.776a.511.511,0,0,0-.429-.514c-.244-.013-.532,0-.769,0a.518.518,0,0,0-.456.412c-.021.213,0,.461-.01.677q0,.659,0,1.218v.047h-.047l-1.708-.012-.445-.008a.869.869,0,0,1-.146-.009" transform="translate(-9.497 -2.096)" fill="#263238"/>
            <path id="Trazado_231227" data-name="Trazado 231227" d="M312.638,104.376a17.8,17.8,0,1,1-17.8-17.8,17.8,17.8,0,0,1,17.8,17.8" transform="translate(-10.189 -3.184)" fill="#1565c0"/>
            <path id="Trazado_231228" data-name="Trazado 231228" d="M301.393,112.216H289.184v-1.5a6.1,6.1,0,1,1,12.209,0Z" transform="translate(-10.636 -3.847)" fill="#fff"/>
            <path id="Trazado_231229" data-name="Trazado 231229" d="M298.973,101.192a3.589,3.589,0,1,1-3.589-3.589,3.589,3.589,0,0,1,3.589,3.589" transform="translate(-10.732 -3.59)" fill="#fff"/>
            <rect id="Rectángulo_58027" data-name="Rectángulo 58027" width="59.99" height="12.253" transform="translate(252.932 139.372)" fill="#ebebeb"/>
            <rect id="Rectángulo_58028" data-name="Rectángulo 58028" width="59.99" height="12.253" transform="translate(252.932 157.152)" fill="#ebebeb"/>
            <path id="Trazado_231230" data-name="Trazado 231230" d="M308.517,200.686H278.405a6.127,6.127,0,0,1,0-12.253h30.112a6.127,6.127,0,1,1,0,12.253" transform="translate(-10.014 -6.93)" fill="url(#linear-gradient)"/>
            <path id="Trazado_231231" data-name="Trazado 231231" d="M312.353,137.006c0,.305-8.428.552-18.823.552s-18.825-.247-18.825-.552,8.427-.553,18.825-.553,18.823.249,18.823.553" transform="translate(-10.103 -5.018)" fill="#263238"/>
            <path id="Trazado_231232" data-name="Trazado 231232" d="M271.072,153.77h-2.65a.47.47,0,0,1-.47-.47,1.766,1.766,0,0,1,1.766-1.767h.059a1.766,1.766,0,0,1,1.766,1.767.47.47,0,0,1-.47.47" transform="translate(-9.855 -5.573)" fill="#e0e0e0"/>
            <path id="Trazado_231233" data-name="Trazado 231233" d="M270.83,150.528a1.055,1.055,0,1,1-1.056-1.056,1.056,1.056,0,0,1,1.056,1.056" transform="translate(-9.883 -5.497)" fill="#e0e0e0"/>
            <rect id="Rectángulo_58029" data-name="Rectángulo 58029" width="3.163" height="2.237" transform="translate(258.31 163.473)" fill="#e0e0e0"/>
            <path id="Trazado_231234" data-name="Trazado 231234" d="M271.674,170.107h-1.061v-.689a.9.9,0,0,0-1.791,0v.689h-1.061v-.689a1.956,1.956,0,0,1,3.913,0Z" transform="translate(-9.848 -6.159)" fill="#e0e0e0"/>
            <path id="Trazado_231235" data-name="Trazado 231235" d="M254.291.168,244,.184a7.85,7.85,0,0,0-3.1.336,4.866,4.866,0,0,0-2.453,2.18,5.235,5.235,0,0,0-.576,1.651,10.621,10.621,0,0,0-.076,1.823q0,.935,0,1.9a8.87,8.87,0,0,1-.123,1.962,5.2,5.2,0,0,1-2.3,3.315,4.862,4.862,0,0,1-2.02.716c-.734.064-1.446.018-2.183.033l-9.228,0-20.93.006h-7.191a5.637,5.637,0,0,1-1.494-.146,4.948,4.948,0,0,1-2.565-1.585,5.289,5.289,0,0,1-1.252-2.8,11.792,11.792,0,0,1-.054-1.548q0-.769,0-1.543a8.237,8.237,0,0,0-.309-3.038,4.958,4.958,0,0,0-1.84-2.408,4.785,4.785,0,0,0-2.962-.819H159.591a16.349,16.349,0,0,0-6.927,1.314A16.183,16.183,0,0,0,146.9,5.853a15.872,15.872,0,0,0-3.262,6.583c-.161.6-.206,1.233-.317,1.85-.027.525-.055,1.051-.071,1.58V119c0,1.38,0,2.723,0,4.111,0,4.164,0,8.412,0,12.643v134.02a16.505,16.505,0,0,0,.634,5A15.79,15.79,0,0,0,150,283.211a16.321,16.321,0,0,0,10.082,2.773l10.717.007L192.02,286l41.486.028,20.215.014c3.331-.019,6.673.054,9.949-.041a15.63,15.63,0,0,0,8.921-3.457,16.743,16.743,0,0,0,3.22-3.568,15.621,15.621,0,0,0,1.975-4.351,16.522,16.522,0,0,0,.594-4.725q0-2.411,0-4.81,0-9.592.008-18.962c.028-49.955.053-94.945.074-132.73.038-37.78.068-68.357.089-89.493q.007-3.963.013-7.477a16.285,16.285,0,0,0-1.159-6.39,15.745,15.745,0,0,0-2.981-4.709A15.192,15.192,0,0,0,270.84,2.4,15.044,15.044,0,0,0,264.926.315a12.675,12.675,0,0,0-1.6-.147c-.36-.022-.542-.039-.542-.039s-.731.015-2.158.022l-6.331.018" transform="translate(-5.268 -0.005)" fill="#fafafa"/>
            <path id="Trazado_231236" data-name="Trazado 231236" d="M262.936.221s.182,0,.542.016a11.637,11.637,0,0,1,1.6.124,14.905,14.905,0,0,1,5.939,2.051,15.187,15.187,0,0,1,3.612,2.927,15.824,15.824,0,0,1,3.015,4.727,16.4,16.4,0,0,1,1.187,6.428q0,3.507.009,7.464c.011,21.1.03,51.617.053,89.328.007,37.715.014,82.621.022,132.485V269.5a16.9,16.9,0,0,1-.607,4.83,16.008,16.008,0,0,1-2.022,4.463,17.134,17.134,0,0,1-3.3,3.659A16.02,16.02,0,0,1,263.85,286c-3.32.1-6.616.024-9.951.044l-20.163-.009-41.381-.021L171.19,286,160.5,286a16.732,16.732,0,0,1-10.311-2.847,16.209,16.209,0,0,1-6.276-8.669,17.429,17.429,0,0,1-.662-5.356q0-2.673,0-5.338,0-10.657,0-21.171.006-21.022.012-41.393c.01-27.137.019-53.312.028-78.248s.024-48.63.035-70.806q.01-16.631.019-32.088,0-1.93,0-3.841c.009-.638.054-1.283.089-1.921.112-.629.161-1.27.325-1.887a16.191,16.191,0,0,1,3.33-6.709,16.488,16.488,0,0,1,5.872-4.388A16.618,16.618,0,0,1,160.007,0l13.8.015,6.639.009,3.253,0A5.07,5.07,0,0,1,186.818.9a5.238,5.238,0,0,1,1.937,2.544,8.482,8.482,0,0,1,.321,3.127q0,.774,0,1.541a11.468,11.468,0,0,0,.049,1.509,5.007,5.007,0,0,0,1.182,2.65,4.672,4.672,0,0,0,2.42,1.5,5.374,5.374,0,0,0,1.427.141l1.458,0,5.715.008,20.877.031,9.2.015c.726-.013,1.466.033,2.156-.028a4.647,4.647,0,0,0,1.938-.681,5.01,5.01,0,0,0,2.219-3.19,8.744,8.744,0,0,0,.124-1.923q0-.961,0-1.894a10.836,10.836,0,0,1,.084-1.846,5.358,5.358,0,0,1,.6-1.7A5,5,0,0,1,241.055.479,7.924,7.924,0,0,1,244.2.144l10.27.027L260.784.2c1.423.008,2.152.024,2.152.024s-.729.015-2.152.022l-6.316.018L244.2.276a7.831,7.831,0,0,0-3.091.335,4.853,4.853,0,0,0-2.447,2.176,5.214,5.214,0,0,0-.574,1.648,10.589,10.589,0,0,0-.076,1.82q0,.933,0,1.894a8.96,8.96,0,0,1-.123,1.959,5.19,5.19,0,0,1-2.292,3.31,4.837,4.837,0,0,1-2.015.713c-.732.065-1.441.019-2.177.034l-9.2,0-20.877.007h-7.173a5.688,5.688,0,0,1-1.49-.145,4.942,4.942,0,0,1-2.558-1.584,5.273,5.273,0,0,1-1.249-2.789,11.738,11.738,0,0,1-.054-1.545q0-.767,0-1.541a8.23,8.23,0,0,0-.308-3.032,4.952,4.952,0,0,0-1.835-2.4A4.765,4.765,0,0,0,183.7.319H160.007A16.294,16.294,0,0,0,153.1,1.63a16.162,16.162,0,0,0-5.748,4.3,15.863,15.863,0,0,0-3.255,6.572c-.16.6-.206,1.23-.315,1.846-.033.627-.078,1.25-.086,1.885q0,1.912,0,3.841,0,15.438.007,32.088c0,22.176,0,45.871.007,70.806s0,51.111,0,78.248q0,20.353,0,41.393,0,10.511,0,21.172,0,2.664,0,5.337a16.981,16.981,0,0,0,.643,5.23,15.76,15.76,0,0,0,6.1,8.427,16.276,16.276,0,0,0,10.057,2.767l10.69.007,21.165.013,41.381.027,20.164.014c3.322-.019,6.656.054,9.924-.041a15.588,15.588,0,0,0,8.9-3.45,16.722,16.722,0,0,0,3.211-3.562,15.579,15.579,0,0,0,1.97-4.342,16.5,16.5,0,0,0,.593-4.716q0-2.407,0-4.8,0-9.575.008-18.926c.027-49.863.053-94.77.073-132.485.038-37.712.068-68.232.09-89.328q.006-3.955.011-7.464a16.234,16.234,0,0,0-1.155-6.377,15.747,15.747,0,0,0-2.974-4.7,15.126,15.126,0,0,0-3.576-2.925,14.993,14.993,0,0,0-5.9-2.083,12.573,12.573,0,0,0-1.6-.146c-.359-.022-.541-.039-.541-.039" transform="translate(-5.268 0)" fill="#263238"/>
            <path id="Trazado_231237" data-name="Trazado 231237" d="M270.238,26.847c0,.068-2.616.144-5.843.171s-5.846-.007-5.847-.075,2.615-.144,5.844-.171,5.845.007,5.846.075" transform="translate(-9.509 -0.984)" fill="#263238"/>
            <path id="Trazado_231238" data-name="Trazado 231238" d="M270.264,29.952c0,.068-2.616.144-5.844.171s-5.845-.007-5.846-.075,2.615-.144,5.844-.171,5.845.007,5.846.075" transform="translate(-9.51 -1.098)" fill="#263238"/>
            <path id="Trazado_231239" data-name="Trazado 231239" d="M270.289,33.057c0,.068-2.616.144-5.843.171s-5.846-.007-5.847-.075,2.615-.144,5.844-.171,5.845.007,5.846.075" transform="translate(-9.511 -1.213)" fill="#263238"/>
            <path id="Trazado_231240" data-name="Trazado 231240" d="M160.3,36.23a2.039,2.039,0,0,1,.243-.015l.676-.023,2.5-.06-.068.07c-.01-.553-.019-1.158-.03-1.81,0-.336-.029-.653,0-1.041a.96.96,0,0,1,.838-.77c.4-.008.756-.026,1.192-.006a.969.969,0,0,1,.818.963c.01.844.02,1.726.031,2.64l-.117-.114,3.149-.033-.119.122c-.012-1.269-.023-2.58-.036-3.923q0-.5-.008-1a1.017,1.017,0,0,0-.443-.744l-1.376-1.357-1.327-1.31-.644-.636c-.221-.214-.394-.433-.651-.486a.843.843,0,0,0-.721.139c-.192.161-.394.388-.587.576l-1.13,1.139c-.71.738-1.451,1.412-1.989,2.05a2.235,2.235,0,0,0-.158,1.175q0,.585,0,1.11-.007,1.02-.012,1.787c0,.457-.01.834-.013,1.143,0,.263-.01.406-.015.411a3.014,3.014,0,0,1-.021-.379c-.009-.3-.019-.675-.032-1.125q-.017-.773-.041-1.8-.009-.535-.02-1.132c0-.2-.007-.407-.01-.618a1.307,1.307,0,0,1,.173-.659c.583-.714,1.278-1.346,1.994-2.106l1.121-1.148c.2-.2.367-.4.607-.6a1.072,1.072,0,0,1,.913-.18,1.694,1.694,0,0,1,.756.54l.646.633,1.332,1.306,1.379,1.354a2.57,2.57,0,0,1,.352.38,1.029,1.029,0,0,1,.165.532q0,.5.009,1c.011,1.344.021,2.655.031,3.923v.121h-.121l-3.149.02h-.115v-.115c0-.914-.01-1.8-.014-2.64a.758.758,0,0,0-.636-.764c-.362-.019-.789-.007-1.141,0a.772.772,0,0,0-.679.613c-.031.316-.008.686-.014,1.006v1.881h-.068l-2.538-.017-.661-.012a1.179,1.179,0,0,1-.218-.013" transform="translate(-5.891 -0.973)" fill="#263238"/>
            <path id="Trazado_231241" data-name="Trazado 231241" d="M257.364,73.1H163.9a8.467,8.467,0,0,1-8.468-8.467V61.483a8.469,8.469,0,0,1,8.468-8.469h93.466a8.469,8.469,0,0,1,8.468,8.469v3.147a8.467,8.467,0,0,1-8.468,8.467" transform="translate(-5.716 -1.95)" fill="#f5f5f5"/>
            <path id="Trazado_231242" data-name="Trazado 231242" d="M257.356,73.088s.216-.024.634-.052a9.069,9.069,0,0,0,1.822-.354,8.747,8.747,0,0,0,2.656-1.4,8.31,8.31,0,0,0,2.518-3.192,8.086,8.086,0,0,0,.665-2.341,21.5,21.5,0,0,0,.076-2.7,18.166,18.166,0,0,0-.131-2.942,8.356,8.356,0,0,0-6.667-6.815,23.094,23.094,0,0,0-3.838-.146l-4.079.007-87.115.061a8.279,8.279,0,0,0-8.235,7.577c-.069,1-.019,2.057-.035,3.078a9.591,9.591,0,0,0,.313,2.986,8.327,8.327,0,0,0,3.42,4.679,7.967,7.967,0,0,0,2.674,1.14,12.192,12.192,0,0,0,2.905.219l5.847,0,11.322.007,39.165.044,26.4.065,7.179.038,1.867.021c.42.008.636.02.636.02s-.216.015-.636.021l-1.867.021c-1.654.008-4.07.022-7.179.039l-26.4.065-39.165.045-11.322.007-5.847,0a12.589,12.589,0,0,1-2.995-.225,8.38,8.38,0,0,1-2.806-1.194,8.731,8.731,0,0,1-3.59-4.9,10.021,10.021,0,0,1-.329-3.1c.015-1.035-.037-2.044.035-3.111A8.686,8.686,0,0,1,163.9,52.8l87.115.061q2.091,0,4.079.007a23.2,23.2,0,0,1,3.888.165,8.583,8.583,0,0,1,6.829,7.037,18.274,18.274,0,0,1,.116,2.976,21.378,21.378,0,0,1-.1,2.729,8.228,8.228,0,0,1-.7,2.382,8.384,8.384,0,0,1-2.589,3.223,8.692,8.692,0,0,1-2.706,1.379,8.575,8.575,0,0,1-1.844.317c-.421.014-.637.011-.637.011" transform="translate(-5.708 -1.942)" fill="#263238"/>
            <path id="Trazado_231243" data-name="Trazado 231243" d="M262.739,62.8c-.039,0-.036-.324-.192-.869a3.627,3.627,0,0,0-1.333-1.907,3.461,3.461,0,1,0,0,5.552,3.631,3.631,0,0,0,1.333-1.907c.156-.545.152-.871.192-.869.014,0,.024.08.03.234a2.715,2.715,0,0,1-.065.673,3.621,3.621,0,0,1-1.313,2.1,3.769,3.769,0,0,1-3.593.589,3.814,3.814,0,0,1,0-7.19,3.772,3.772,0,0,1,3.593.588,3.618,3.618,0,0,1,1.312,2.1,2.68,2.68,0,0,1,.066.673c-.006.154-.015.234-.03.234" transform="translate(-9.388 -2.169)" fill="#263238"/>
            <path id="Trazado_231244" data-name="Trazado 231244" d="M264.979,69.318a7.183,7.183,0,0,1-1.78-1.624,7.228,7.228,0,0,1-1.479-1.9,7.16,7.16,0,0,1,1.78,1.624,7.215,7.215,0,0,1,1.479,1.9" transform="translate(-9.625 -2.419)" fill="#263238"/>
            <path id="Trazado_231245" data-name="Trazado 231245" d="M170.828,61.334H168.86v-.512h4.531v.512h-1.97v5.092h-.592Z" transform="translate(-6.21 -2.237)" fill="#e0e0e0"/>
            <path id="Trazado_231246" data-name="Trazado 231246" d="M177.613,64.549H174.09a1.559,1.559,0,0,0,1.657,1.465,1.658,1.658,0,0,0,1.29-.553l.32.369a2.227,2.227,0,0,1-3.835-1.457,2.028,2.028,0,0,1,2.057-2.137,2.006,2.006,0,0,1,2.041,2.137c0,.048-.008.112-.008.176m-3.523-.425h2.986a1.5,1.5,0,0,0-2.986,0" transform="translate(-6.382 -2.289)" fill="#e0e0e0"/>
            <path id="Trazado_231247" data-name="Trazado 231247" d="M181.515,66.479l-1.337-1.762-1.346,1.762h-.64l1.664-2.161-1.585-2.05h.641l1.265,1.649,1.265-1.649h.624l-1.585,2.05,1.681,2.161Z" transform="translate(-6.554 -2.29)" fill="#e0e0e0"/>
            <path id="Trazado_231248" data-name="Trazado 231248" d="M185.488,66.188a1.353,1.353,0,0,1-.889.3,1.115,1.115,0,0,1-1.233-1.224V62.713h-.752v-.481h.752v-.921h.568v.921h1.281v.481h-1.281v2.513a.674.674,0,0,0,.729.769.942.942,0,0,0,.624-.216Z" transform="translate(-6.716 -2.255)" fill="#e0e0e0"/>
            <path id="Trazado_231249" data-name="Trazado 231249" d="M232.237,93.71c0,.114-8.08.205-18.046.205s-18.048-.092-18.048-.205,8.079-.205,18.048-.205,18.046.092,18.046.205" transform="translate(-7.214 -3.439)" fill="#e8505b"/>
            <path id="Trazado_231250" data-name="Trazado 231250" d="M261.016,101.4c0,.114-14.523.205-32.435.205s-32.438-.092-32.438-.205,14.521-.205,32.438-.205,32.435.091,32.435.205" transform="translate(-7.214 -3.722)" fill="#263238"/>
            <path id="Trazado_231251" data-name="Trazado 231251" d="M260.253,106.892c0,.114-14.353.205-32.054.205s-32.056-.092-32.056-.205,14.349-.205,32.056-.205,32.054.092,32.054.205" transform="translate(-7.214 -3.924)" fill="#263238"/>
            <path id="Trazado_231252" data-name="Trazado 231252" d="M234,112.131c0,.115-8.474.206-18.925.206s-18.927-.091-18.927-.206,8.472-.2,18.927-.2,18.925.092,18.925.2" transform="translate(-7.214 -4.116)" fill="#263238"/>
            <path id="Trazado_231253" data-name="Trazado 231253" d="M232.237,135.507c0,.114-8.08.205-18.046.205s-18.048-.091-18.048-.205,8.079-.205,18.048-.205,18.046.092,18.046.205" transform="translate(-7.214 -4.976)" fill="#e8505b"/>
            <path id="Trazado_231254" data-name="Trazado 231254" d="M261.016,143.2c0,.114-14.523.205-32.435.205s-32.438-.091-32.438-.205,14.521-.205,32.438-.205,32.435.092,32.435.205" transform="translate(-7.214 -5.259)" fill="#263238"/>
            <path id="Trazado_231255" data-name="Trazado 231255" d="M260.253,148.69c0,.114-14.353.205-32.054.205s-32.056-.092-32.056-.205,14.349-.205,32.056-.205,32.054.091,32.054.205" transform="translate(-7.214 -5.461)" fill="#263238"/>
            <path id="Trazado_231256" data-name="Trazado 231256" d="M234,153.929c0,.114-8.474.205-18.925.205s-18.927-.091-18.927-.205,8.472-.205,18.927-.205,18.925.092,18.925.205" transform="translate(-7.214 -5.654)" fill="#263238"/>
            <path id="Trazado_231257" data-name="Trazado 231257" d="M232.237,177.305c0,.114-8.08.205-18.046.205s-18.048-.092-18.048-.205,8.079-.205,18.048-.205,18.046.092,18.046.205" transform="translate(-7.214 -6.513)" fill="#e8505b"/>
            <path id="Trazado_231258" data-name="Trazado 231258" d="M261.016,185c0,.114-14.523.206-32.435.206s-32.438-.092-32.438-.206,14.521-.205,32.438-.205,32.435.091,32.435.205" transform="translate(-7.214 -6.796)" fill="#263238"/>
            <path id="Trazado_231259" data-name="Trazado 231259" d="M260.253,190.488c0,.114-14.353.205-32.054.205s-32.056-.091-32.056-.205,14.349-.205,32.056-.205,32.054.092,32.054.205" transform="translate(-7.214 -6.998)" fill="#263238"/>
            <path id="Trazado_231260" data-name="Trazado 231260" d="M234,195.727c0,.114-8.474.206-18.925.206s-18.927-.093-18.927-.206,8.472-.205,18.927-.205,18.925.092,18.925.205" transform="translate(-7.214 -7.191)" fill="#263238"/>
            <path id="Trazado_231261" data-name="Trazado 231261" d="M232.237,219.1c0,.114-8.08.205-18.046.205s-18.048-.092-18.048-.205,8.079-.205,18.048-.205,18.046.092,18.046.205" transform="translate(-7.214 -8.051)" fill="#e8505b"/>
            <path id="Trazado_231262" data-name="Trazado 231262" d="M261.016,226.794c0,.114-14.523.205-32.435.205s-32.438-.091-32.438-.205,14.521-.205,32.438-.205,32.435.091,32.435.205" transform="translate(-7.214 -8.333)" fill="#263238"/>
            <path id="Trazado_231263" data-name="Trazado 231263" d="M260.253,232.286c0,.114-14.353.205-32.054.205s-32.056-.092-32.056-.205,14.349-.205,32.056-.205,32.054.092,32.054.205" transform="translate(-7.214 -8.535)" fill="#263238"/>
            <path id="Trazado_231264" data-name="Trazado 231264" d="M234,237.525c0,.114-8.474.205-18.925.205s-18.927-.092-18.927-.205,8.472-.205,18.927-.205,18.925.092,18.925.205" transform="translate(-7.214 -8.728)" fill="#263238"/>
            <path id="Trazado_231265" data-name="Trazado 231265" d="M232.237,260.608c0,.114-8.08.205-18.046.205s-18.048-.091-18.048-.205,8.079-.205,18.048-.205,18.046.092,18.046.205" transform="translate(-7.214 -9.577)" fill="#e8505b"/>
            <path id="Trazado_231266" data-name="Trazado 231266" d="M261.016,268.3c0,.114-14.523.205-32.435.205s-32.438-.092-32.438-.205,14.521-.205,32.438-.205,32.435.092,32.435.205" transform="translate(-7.214 -9.86)" fill="#263238"/>
            <path id="Trazado_231267" data-name="Trazado 231267" d="M260.253,273.79c0,.114-14.353.205-32.054.205s-32.056-.092-32.056-.205,14.349-.205,32.056-.205,32.054.093,32.054.205" transform="translate(-7.214 -10.062)" fill="#263238"/>
            <path id="Trazado_231268" data-name="Trazado 231268" d="M234,279.03c0,.114-8.474.205-18.925.205s-18.927-.092-18.927-.205,8.472-.205,18.927-.205,18.925.091,18.925.205" transform="translate(-7.214 -10.255)" fill="#263238"/>
            <rect id="Rectángulo_58030" data-name="Rectángulo 58030" width="22.098" height="29.4" transform="translate(150.153 112.07) rotate(-89.681)" fill="#afafaf"/>
            <path id="Trazado_231269" data-name="Trazado 231269" d="M155.886,115.827l10.345-13.678,6.313,8.629,4.34-4.57,8.4,9.782Z" transform="translate(-5.733 -3.757)" fill="#636363"/>
            <path id="Trazado_231270" data-name="Trazado 231270" d="M175.866,100.365a2.315,2.315,0,1,1-2.3-2.327,2.315,2.315,0,0,1,2.3,2.327" transform="translate(-6.298 -3.606)" fill="#636363"/>
            <rect id="Rectángulo_58033" data-name="Rectángulo 58033" width="22.098" height="29.4" transform="translate(150.153 151.819) rotate(-89.681)" fill="#afafaf"/>
            <path id="Trazado_231273" data-name="Trazado 231273" d="M155.886,157.093l10.345-13.679,6.313,8.629,4.34-4.57,8.4,9.783Z" transform="translate(-5.733 -5.274)" fill="#636363"/>
            <path id="Trazado_231274" data-name="Trazado 231274" d="M175.866,141.631a2.315,2.315,0,1,1-2.3-2.328,2.315,2.315,0,0,1,2.3,2.328" transform="translate(-6.298 -5.123)" fill="#e8505b"/>
            <g id="Grupo_180132" data-name="Grupo 180132" transform="translate(164.938 134.18)" opacity="0.2">
              <g id="Grupo_180131" data-name="Grupo 180131">
                <g id="Grupo_180130" data-name="Grupo 180130" clip-path="url(#clip-path-6)">
                  <path id="Trazado_231276" data-name="Trazado 231276" d="M175.866,141.631a2.315,2.315,0,1,1-2.3-2.328,2.315,2.315,0,0,1,2.3,2.328" transform="translate(-171.236 -139.303)"/>
                </g>
              </g>
            </g>
            <rect id="Rectángulo_58036" data-name="Rectángulo 58036" width="22.098" height="29.4" transform="translate(150.153 191.567) rotate(-89.681)" fill="#afafaf"/>
            <path id="Trazado_231277" data-name="Trazado 231277" d="M155.886,198.359l10.345-13.678,6.313,8.629,4.34-4.569,8.4,9.782Z" transform="translate(-5.733 -6.792)" fill="#636363"/>
            <path id="Trazado_231278" data-name="Trazado 231278" d="M175.866,182.9a2.315,2.315,0,1,1-2.3-2.328,2.315,2.315,0,0,1,2.3,2.328" transform="translate(-6.298 -6.641)" fill="#636363"/>
            <rect id="Rectángulo_58039" data-name="Rectángulo 58039" width="22.098" height="29.4" transform="translate(150.153 231.315) rotate(-89.681)" fill="#afafaf"/>
            <path id="Trazado_231281" data-name="Trazado 231281" d="M155.886,239.625l10.345-13.679,6.313,8.63,4.34-4.571,8.4,9.783Z" transform="translate(-5.733 -8.31)" fill="#636363"/>
            <path id="Trazado_231282" data-name="Trazado 231282" d="M175.866,224.163a2.315,2.315,0,1,1-2.3-2.328,2.315,2.315,0,0,1,2.3,2.328" transform="translate(-6.298 -8.159)" fill="#636363"/>
            <rect id="Rectángulo_58042" data-name="Rectángulo 58042" width="22.098" height="29.4" transform="translate(150.153 270.87) rotate(-89.681)" fill="#afafaf"/>
            <path id="Trazado_231285" data-name="Trazado 231285" d="M155.886,280.69l10.345-13.678,6.313,8.629,4.34-4.569,8.4,9.782Z" transform="translate(-5.733 -9.82)" fill="#636363"/>
            <path id="Trazado_231286" data-name="Trazado 231286" d="M175.866,265.228a2.315,2.315,0,1,1-2.3-2.327,2.315,2.315,0,0,1,2.3,2.327" transform="translate(-6.298 -9.669)" fill="#636363"/>
            <path id="Trazado_231289" data-name="Trazado 231289" d="M395.521,53.7a10.483,10.483,0,1,1-10.484-10.483A10.484,10.484,0,0,1,395.521,53.7" transform="translate(-13.775 -1.589)" fill="#afafaf"/>
            <path id="Trazado_231290" data-name="Trazado 231290" d="M384.633,57.375a.479.479,0,0,1-.305-.11l-3.528-2.9a.481.481,0,1,1,.611-.744l3.156,2.6,4.478-5.481a.481.481,0,1,1,.745.61L385.006,57.2a.484.484,0,0,1-.326.175l-.047,0" transform="translate(-13.998 -1.859)" fill="#fff"/>
            <path id="Trazado_231291" data-name="Trazado 231291" d="M352.308,38.629A14.369,14.369,0,1,1,337.938,24.26a14.37,14.37,0,0,1,14.369,14.369" transform="translate(-11.9 -0.892)" fill="#f4a338"/>
            <path id="Trazado_231292" data-name="Trazado 231292" d="M337.373,43.964a.966.966,0,0,1-.613-.22l-4.835-3.981a.963.963,0,1,1,1.224-1.487l4.089,3.366,5.947-7.276a.963.963,0,0,1,1.492,1.218l-6.559,8.026a.958.958,0,0,1-.65.349c-.032,0-.065,0-.1,0" transform="translate(-12.195 -1.251)" fill="#fff"/>
          </g>
        </g>
        <g id="Grupo_180154" data-name="Grupo 180154">
          <g id="Grupo_180153" data-name="Grupo 180153" clip-path="url(#clip-path)">
            <path id="Trazado_231293" data-name="Trazado 231293" d="M274.332,240.456a29.945,29.945,0,0,1-21.172-34.679c-.275.739-.53,1.49-.749,2.262a29.949,29.949,0,1,0,57.616,16.377c.219-.772.4-1.544.552-2.318a29.946,29.946,0,0,1-36.247,18.358" transform="translate(-9.241 -7.568)" fill="#263238"/>
            <path id="Trazado_231294" data-name="Trazado 231294" d="M289.155,186.6a29.945,29.945,0,0,1,21.172,34.679c.274-.74.53-1.49.749-2.262A29.949,29.949,0,1,0,253.46,202.64c-.219.772-.4,1.544-.552,2.317A29.945,29.945,0,0,1,289.155,186.6" transform="translate(-9.301 -6.652)" fill="#455a64"/>
            <path id="Trazado_231295" data-name="Trazado 231295" d="M311.4,218.806s.02-.165.084-.48c.071-.334.17-.8.3-1.394q.1-.461.224-1.024c.065-.38.1-.8.157-1.254a21.843,21.843,0,0,0,.241-3.141,28.608,28.608,0,0,0-1.027-8.54,29.914,29.914,0,0,0-15.515-18.956,27.773,27.773,0,0,0-3.5-1.445c-.611-.2-1.215-.432-1.845-.6l-1.92-.44c-.324-.067-.643-.161-.973-.209l-1-.123c-.666-.075-1.334-.185-2.012-.234a31.462,31.462,0,0,0-4.129.037,30.922,30.922,0,0,0-4.193.58c-.7.156-1.384.373-2.083.558a15.18,15.18,0,0,0-2.061.7,27.16,27.16,0,0,0-7.766,4.351,28.779,28.779,0,0,0-6.321,6.71,29.431,29.431,0,0,0-5.127,18.03,28.793,28.793,0,0,0,1.846,9.034,27.175,27.175,0,0,0,4.316,7.787,15.148,15.148,0,0,0,1.387,1.679c.5.525.967,1.071,1.477,1.57a31.019,31.019,0,0,0,3.262,2.7,31.545,31.545,0,0,0,3.493,2.2c.6.314,1.229.573,1.835.859l.912.418c.305.133.626.222.937.334l1.865.637c.623.188,1.262.3,1.885.458a27.761,27.761,0,0,0,3.735.612,29.911,29.911,0,0,0,23.166-7.963,28.576,28.576,0,0,0,5.364-6.722,21.848,21.848,0,0,0,1.447-2.8c.189-.415.382-.792.527-1.149q.191-.543.349-.988.308-.86.481-1.34c.112-.3.181-.453.181-.453s-.037.161-.132.467c-.1.326-.249.777-.435,1.359q-.148.451-.327,1c-.138.361-.324.743-.507,1.164a21.261,21.261,0,0,1-1.415,2.835,28.371,28.371,0,0,1-5.34,6.829,30.12,30.12,0,0,1-23.4,8.173,28.069,28.069,0,0,1-3.79-.607c-.632-.154-1.28-.272-1.913-.46l-1.895-.64c-.315-.113-.642-.2-.952-.336l-.927-.422c-.616-.289-1.253-.55-1.865-.868a31.732,31.732,0,0,1-3.553-2.229,31.408,31.408,0,0,1-3.319-2.735c-.519-.507-1-1.06-1.5-1.592a15.622,15.622,0,0,1-1.412-1.7,27.668,27.668,0,0,1-4.4-7.908,29.246,29.246,0,0,1-1.884-9.184,29.889,29.889,0,0,1,5.213-18.331,29.232,29.232,0,0,1,6.432-6.818,27.611,27.611,0,0,1,7.9-4.411,15.332,15.332,0,0,1,2.1-.706c.71-.187,1.408-.406,2.116-.562a31.276,31.276,0,0,1,4.26-.581,31.765,31.765,0,0,1,4.194-.026c.688.051,1.366.164,2.042.242l1.009.129c.334.05.659.145.987.215l1.947.452c.638.172,1.25.414,1.869.615a27.868,27.868,0,0,1,3.543,1.478,30.115,30.115,0,0,1,15.6,19.256,28.362,28.362,0,0,1,.951,8.618,21.207,21.207,0,0,1-.287,3.156c-.066.454-.108.877-.182,1.257l-.248,1.023-.345,1.385c-.081.311-.134.466-.134.466" transform="translate(-9.283 -6.637)" fill="#263238"/>
            <path id="Trazado_231296" data-name="Trazado 231296" d="M301.836,237.757c.378.257,28.74,26.414,39.179,36.195a4.551,4.551,0,1,0,6.217-6.649l-38.925-35.956Z" transform="translate(-11.101 -8.508)" fill="#263238"/>
          </g>
        </g>
        <g id="Grupo_180165" data-name="Grupo 180165">
          <g id="Grupo_180164" data-name="Grupo 180164" clip-path="url(#clip-path)">
            <path id="Trazado_231297" data-name="Trazado 231297" d="M149.915,138.737l.576-2.281a8.506,8.506,0,0,0-.1-4.529l-2.378-7.942a2.981,2.981,0,0,0-1.368-1.726c-1.806-1.039-5.383-3.042-5.687-2.789-2.189,1.82,2.7,5.031,2.7,5.031s1.887,2.1.393,3.663c-1.7,1.775-4.891-2.116-4.891-2.116s.169-.406.322-.329a6.3,6.3,0,0,0,3.074,1.322l0-2.583-2.894-1.814a2.908,2.908,0,0,0-2.15-.379l-1,.215a2.541,2.541,0,0,0-1.584,1.076l-.951,1.427-.4.542a1.811,1.811,0,0,0-.2,1.832l.459,1.01-.629.889a2.724,2.724,0,0,0-.325,2.539l4.882,6.712L145,150.3l7.822-8.4Z" transform="translate(-4.881 -4.393)" fill="#ffbe9d"/>
            <path id="Trazado_231298" data-name="Trazado 231298" d="M134.805,132.075a1.633,1.633,0,0,1-.261-.485,1.358,1.358,0,0,1,.24-1.249l.036-.045-.026-.055-.085-.172a12.247,12.247,0,0,0-1.044-1.91,12.5,12.5,0,0,0,.872,1.995l.085.172.01-.1a1.418,1.418,0,0,0-.209,1.409c.144.352.374.471.383.441" transform="translate(-4.916 -4.713)" fill="#eb996e"/>
            <path id="Trazado_231299" data-name="Trazado 231299" d="M135.453,123.141a2.284,2.284,0,0,0-.148,1.352,10.482,10.482,0,0,0,1.317,3.107,4.006,4.006,0,0,1,.458.906,2.484,2.484,0,0,1,.058.96,2.342,2.342,0,0,0,.171,1.444,2.805,2.805,0,0,0,.947.984,1.62,1.62,0,0,1-1.134-.882,2.464,2.464,0,0,1-.261-1.566,2.285,2.285,0,0,0-.063-.853,3.966,3.966,0,0,0-.433-.836,9.088,9.088,0,0,1-1.27-3.234,1.463,1.463,0,0,1,.358-1.382" transform="translate(-4.968 -4.529)" fill="#eb996e"/>
            <path id="Trazado_231300" data-name="Trazado 231300" d="M139.437,126.1a6.315,6.315,0,0,0-.367-1.075c-.294-.554-.618-.981-.549-1.039.054-.05.49.291.817.9.355.62.192,1.255.1,1.213" transform="translate(-5.094 -4.56)" fill="#eb996e"/>
            <path id="Trazado_231301" data-name="Trazado 231301" d="M152.9,179.791l2.981,3.734,15.465-18.584L151.094,138.3l-10.014,7.854Z" transform="translate(-5.189 -5.086)" fill="#373f51"/>
            <path id="Trazado_231302" data-name="Trazado 231302" d="M224.8,368l1.281,30.191,16.3-.366-1.22-30.251Z" transform="translate(-8.267 -13.519)" fill="#373f51"/>
            <path id="Trazado_231303" data-name="Trazado 231303" d="M234.373,396.867c.136-.008-.117-6.619-.564-14.765s-.922-14.747-1.058-14.739.117,6.617.564,14.766.922,14.746,1.058,14.738" transform="translate(-8.559 -13.511)" fill="#263238"/>
            <path id="Trazado_231304" data-name="Trazado 231304" d="M226.034,397.185l16.3-.419.086,2.135-16.3.365Z" transform="translate(-8.313 -14.592)" fill="#263238"/>
            <path id="Trazado_231305" data-name="Trazado 231305" d="M242.031,388.775c.024-.02-.127-.254-.448-.641a11.321,11.321,0,0,0-1.524-1.484,11.021,11.021,0,0,0-2.712-1.642,8.68,8.68,0,0,0-10.059,2.352,7.5,7.5,0,0,0-1.11,1.826,2.113,2.113,0,0,0-.224.749,17.031,17.031,0,0,1,1.6-2.348,8.683,8.683,0,0,1,5.986-2.79,9.986,9.986,0,0,1,6.307,2.128c1.414,1.048,2.119,1.909,2.185,1.849" transform="translate(-8.31 -14.133)" fill="#263238"/>
            <g id="Grupo_180157" data-name="Grupo 180157" transform="translate(216.922 362.668)" opacity="0.3">
              <g id="Grupo_180156" data-name="Grupo 180156">
                <g id="Grupo_180155" data-name="Grupo 180155" clip-path="url(#clip-path-9)">
                  <path id="Trazado_231306" data-name="Trazado 231306" d="M241.52,376.515l.134,3.327-16.343.292-.106-2.5Z" transform="translate(-225.205 -376.515)"/>
                </g>
              </g>
            </g>
            <path id="Trazado_231307" data-name="Trazado 231307" d="M184.276,369.888l.8,18.375s-18.411,6.98-18.594,10.391l35.685-.263-.065-28.684Z" transform="translate(-6.123 -13.597)" fill="#373f51"/>
            <path id="Trazado_231308" data-name="Trazado 231308" d="M196.913,387.351a1.468,1.468,0,0,1,1.028,1.667,1.411,1.411,0,0,1-1.644,1.033,1.548,1.548,0,0,1-1.079-1.771,1.463,1.463,0,0,1,1.829-.884" transform="translate(-7.178 -14.244)" fill="#e0e0e0"/>
            <path id="Trazado_231309" data-name="Trazado 231309" d="M202.152,399.375l-.007-2.871-34.528,1.3s-1.6.708-1.405,1.833Z" transform="translate(-6.112 -14.582)" fill="#263238"/>
            <path id="Trazado_231310" data-name="Trazado 231310" d="M185.446,389.09c.007.175.885.248,1.753.806.882.536,1.333,1.293,1.494,1.221.162-.035-.108-1.083-1.17-1.74s-2.116-.449-2.077-.288" transform="translate(-6.82 -14.304)" fill="#263238"/>
            <path id="Trazado_231311" data-name="Trazado 231311" d="M181.545,390.741c-.039.171.723.463,1.324,1.2.624.721.78,1.522.955,1.513.166.026.279-1-.486-1.906s-1.79-.976-1.793-.808" transform="translate(-6.677 -14.368)" fill="#263238"/>
            <path id="Trazado_231312" data-name="Trazado 231312" d="M179.3,395.329c.16.037.4-.843-.06-1.8s-1.282-1.334-1.355-1.188c-.1.145.439.657.8,1.449.382.784.438,1.523.613,1.539" transform="translate(-6.542 -14.428)" fill="#263238"/>
            <path id="Trazado_231313" data-name="Trazado 231313" d="M185.742,384.671c.075.16.878-.089,1.871-.029.994.04,1.769.367,1.859.216.1-.127-.658-.772-1.828-.826s-1.988.5-1.9.639" transform="translate(-6.831 -14.124)" fill="#263238"/>
            <path id="Trazado_231314" data-name="Trazado 231314" d="M185.048,380.478a3.375,3.375,0,0,0,1.8-.022,8.124,8.124,0,0,0,1.878-.592,8.531,8.531,0,0,0,1.03-.557,2.214,2.214,0,0,0,.54-.427.765.765,0,0,0,.074-.934.963.963,0,0,0-.772-.4,2.343,2.343,0,0,0-.674.1,6.524,6.524,0,0,0-1.116.392,6.379,6.379,0,0,0-1.652,1.1c-.827.778-1.108,1.436-1.047,1.47.08.057.482-.5,1.325-1.14a7.176,7.176,0,0,1,1.6-.916,6.731,6.731,0,0,1,1.031-.327c.38-.1.7-.108.8.061.037.064.041.091-.038.2a1.808,1.808,0,0,1-.4.312,9.287,9.287,0,0,1-.947.55,9.947,9.947,0,0,1-1.735.68,12.3,12.3,0,0,0-1.7.443" transform="translate(-6.806 -13.885)" fill="#263238"/>
            <path id="Trazado_231315" data-name="Trazado 231315" d="M185.2,380.632a2.866,2.866,0,0,0,.461-1.742,5.856,5.856,0,0,0-.259-1.968,5.924,5.924,0,0,0-.467-1.09,1.487,1.487,0,0,0-1.155-.9.839.839,0,0,0-.747.508,2.409,2.409,0,0,0-.18.661,3.989,3.989,0,0,0,.008,1.213,4.132,4.132,0,0,0,.782,1.853c.71.927,1.444,1.131,1.457,1.071.058-.089-.556-.423-1.1-1.314a4.153,4.153,0,0,1-.582-1.688,3.713,3.713,0,0,1,.025-1.04c.054-.382.195-.692.338-.653.178,0,.485.281.634.585a5.919,5.919,0,0,1,.453.973,6.451,6.451,0,0,1,.362,1.793c.057,1.056-.125,1.714-.03,1.74" transform="translate(-6.723 -13.789)" fill="#263238"/>
            <g id="Grupo_180160" data-name="Grupo 180160" transform="translate(178.799 367.13)" opacity="0.3">
              <g id="Grupo_180159" data-name="Grupo 180159">
                <g id="Grupo_180158" data-name="Grupo 180158" clip-path="url(#clip-path-10)">
                  <path id="Trazado_231316" data-name="Trazado 231316" d="M202.872,381.148l-.036,4.077h-17.21v-3.7Z" transform="translate(-185.626 -381.148)"/>
                </g>
              </g>
            </g>
            <path id="Trazado_231317" data-name="Trazado 231317" d="M263.219,63.538l2.561,9.9s.953,5.474-1.606,5.469c-2.252,0-2.468-2.939-2.468-2.939s1.117-5.99-1.829-5.66c-.409.046-1.485,4.177-2.007,6.284a3.1,3.1,0,0,0,.309,2.272l4.248,7.517a8.866,8.866,0,0,0,3.332,3.342l2.129,1.213.275,4.469,11.956.187L276.475,81.65l-1.52-8.509a2.838,2.838,0,0,0-2.141-1.588l-1.121-.169-.428-1.075a1.887,1.887,0,0,0-1.516-1.175l-.7-.088-.981-2.418c-.325-.8-2.667-6.07-3.531-6.059,0,0-1.951.528-1.319,2.968" transform="translate(-9.481 -2.228)" fill="#ffbe9d"/>
            <path id="Trazado_231318" data-name="Trazado 231318" d="M272.173,75.837a8.531,8.531,0,0,0-.227-1.087,4.1,4.1,0,0,0-1.625-2.071,11.98,11.98,0,0,1-.9-2.595,3.481,3.481,0,0,1-.125-1.122c.033,0,.081.424.263,1.088a16.15,16.15,0,0,0,.914,2.5c.179.157.389.306.585.484a3.691,3.691,0,0,1,.486.554,3.634,3.634,0,0,1,.536,1.119,3.022,3.022,0,0,1,.12.825.776.776,0,0,1-.029.3" transform="translate(-9.904 -2.536)" fill="#eb996e"/>
            <path id="Trazado_231319" data-name="Trazado 231319" d="M274.094,74.913a1.7,1.7,0,0,0-.176-.546,1.411,1.411,0,0,0-1.111-.721l-.061-.006-.022-.06c-.022-.061-.045-.123-.068-.188a12.878,12.878,0,0,1-.682-2.162,12.862,12.862,0,0,1,.87,2.094l.068.188-.082-.065a1.477,1.477,0,0,1,1.209.86c.161.36.084.62.055.606" transform="translate(-10.002 -2.62)" fill="#eb996e"/>
            <path id="Trazado_231320" data-name="Trazado 231320" d="M200.814,122.836l21.68-.278L220.074,104.1s1.481-.317,1.581-8.348.468-21.675.468-21.675A27.914,27.914,0,0,0,194.077,77.6l-1.19.916Z" transform="translate(-7.094 -2.641)" fill="#ffbe9d"/>
            <path id="Trazado_231321" data-name="Trazado 231321" d="M195.295,89.017c-.137-.059-5.518-1.632-5.343,3.859s5.652,4.181,5.656,4.024-.313-7.883-.313-7.883" transform="translate(-6.986 -3.265)" fill="#ffbe9d"/>
            <path id="Trazado_231322" data-name="Trazado 231322" d="M222.24,87.829c.137-.059,5.031-1.379,4.856,4.112s-5.651,4.181-5.656,4.023.8-8.135.8-8.135" transform="translate(-8.144 -3.224)" fill="#ffbe9d"/>
            <path id="Trazado_231323" data-name="Trazado 231323" d="M193.652,87.752c.821,4.6.659,7.018,1.418,10.091,1.2,4.862,3.616,8.591,8,11.019s10.306,2.385,14.069-.921c2.611-2.294,4.462-4.886,4.849-8.341s.775-9.572.8-13.047c.044-6.269.464-12.262.464-12.262l-17.909-3.24-10.191,6.06Z" transform="translate(-7.122 -2.613)" fill="#263238"/>
            <path id="Trazado_231324" data-name="Trazado 231324" d="M212.6,113.159a8.008,8.008,0,0,1-6.141-.677c.052-.138,1.376.277,3.057.456s3.063.076,3.083.222" transform="translate(-7.593 -4.136)" fill="#263238"/>
            <path id="Trazado_231325" data-name="Trazado 231325" d="M194.458,95.287c-.525-4.714-.865-10.106-1.6-15.076-.276-1.865-.941-4.554-.774-6.432a15.587,15.587,0,0,1,1.177-5.522,7.759,7.759,0,0,1,12.086-2.43,5.817,5.817,0,0,1,10.6,2.453,4.038,4.038,0,0,1,6.663,4.046,3.945,3.945,0,0,1,2.661,6.04c-.83,1.277-2.326,1.98-3.241,3.2a4.581,4.581,0,0,0-.275,4.956" transform="translate(-7.063 -2.326)" fill="#263238"/>
            <path id="Trazado_231326" data-name="Trazado 231326" d="M219.484,78.753a1.211,1.211,0,0,1-.2.515,3.618,3.618,0,0,1-1.041,1.17,3.745,3.745,0,0,1-2.329.738,4,4,0,0,1-2.87-1.346l.379-.1a3.731,3.731,0,0,1-2.4,2.747,4.275,4.275,0,0,1-4.037-.509,6.061,6.061,0,0,1-2.272-2.976l.434.049a5.046,5.046,0,0,1-4.056,2.223,4.66,4.66,0,0,1-3.412-1.394,4.735,4.735,0,0,1-1.234-2.1,2.04,2.04,0,0,1-.105-.871c.038,0,.076.3.264.82a4.965,4.965,0,0,0,1.291,1.926,4.4,4.4,0,0,0,3.182,1.2,4.653,4.653,0,0,0,3.659-2.065l.265-.411.169.46a5.644,5.644,0,0,0,2.093,2.725,3.809,3.809,0,0,0,3.582.474A3.307,3.307,0,0,0,213,79.653l.081-.456.3.353a3.662,3.662,0,0,0,2.555,1.272,3.569,3.569,0,0,0,2.169-.591,5.121,5.121,0,0,0,1.384-1.478" transform="translate(-7.221 -2.828)" fill="#455a64"/>
            <path id="Trazado_231327" data-name="Trazado 231327" d="M219.829,76.263a4.977,4.977,0,0,0-.765-2A3.273,3.273,0,0,0,217.181,73a3.4,3.4,0,0,0-2.731.522l-.435.313.045-.537a4.137,4.137,0,0,0-.183-1.578,4.305,4.305,0,0,0-2.2-2.563,4.21,4.21,0,0,0-2.792-.246,5.881,5.881,0,0,0-2.328,1.313c-.021-.015.1-.26.446-.611a4.362,4.362,0,0,1,1.789-1.044,4.438,4.438,0,0,1,3.079.168,4.673,4.673,0,0,1,2.488,2.83,4.516,4.516,0,0,1,.2,1.779l-.389-.224a3.779,3.779,0,0,1,3.126-.54,3.508,3.508,0,0,1,2.042,1.5,3.437,3.437,0,0,1,.548,1.581c.028.392-.024.6-.049.6" transform="translate(-7.597 -2.514)" fill="#455a64"/>
            <path id="Trazado_231328" data-name="Trazado 231328" d="M208.4,76.568c-.069-.03.014-.313-.014-.754a3.575,3.575,0,0,0-.561-1.622,17.2,17.2,0,0,0-1.034-1.455.528.528,0,0,0-.572-.113c-.028-.01-.029-.122.118-.221a.616.616,0,0,1,.673.055,3.969,3.969,0,0,1,.618.626,6.35,6.35,0,0,1,.626.849,3.005,3.005,0,0,1,.486,1.893c-.067.517-.287.773-.34.743" transform="translate(-7.584 -2.66)" fill="#455a64"/>
            <path id="Trazado_231329" data-name="Trazado 231329" d="M197.45,69.48c-.057-.02,0-.428.334-1a2.674,2.674,0,0,1,.817-.86,2.135,2.135,0,0,1,1.456-.319,3.491,3.491,0,0,1,2.174,1.363c.4.508.583.855.533.9s-.343-.23-.793-.656a3.751,3.751,0,0,0-1.979-1.107,2.1,2.1,0,0,0-1.918.885c-.378.471-.554.827-.624.8" transform="translate(-7.261 -2.474)" fill="#455a64"/>
            <path id="Trazado_231330" data-name="Trazado 231330" d="M200.246,93.452a8.9,8.9,0,0,1-1.892-3.5,8.92,8.92,0,0,1-.664-3.925c.147-.018.429,1.724,1.138,3.762s1.545,3.589,1.418,3.665" transform="translate(-7.269 -3.164)" fill="#455a64"/>
            <path id="Trazado_231331" data-name="Trazado 231331" d="M202.763,94.9a6.67,6.67,0,0,1-1.328-2.495,6.689,6.689,0,0,1-.653-2.75,10.216,10.216,0,0,1,1.122,2.573,10.279,10.279,0,0,1,.859,2.672" transform="translate(-7.383 -3.297)" fill="#455a64"/>
            <path id="Trazado_231332" data-name="Trazado 231332" d="M218.376,95.491a10.489,10.489,0,0,1-3.347,8.853,30.37,30.37,0,0,0,2.26-4.205,30.341,30.341,0,0,0,1.087-4.648" transform="translate(-7.908 -3.512)" fill="#455a64"/>
            <path id="Trazado_231333" data-name="Trazado 231333" d="M220.944,91.334a8.464,8.464,0,0,1-1.509,8.291A24.264,24.264,0,0,0,220.8,95.59a24.266,24.266,0,0,0,.143-4.256" transform="translate(-8.07 -3.359)" fill="#455a64"/>
            <path id="Trazado_231334" data-name="Trazado 231334" d="M212.273,247.1l5.274,50.822,3.784,76.537h20.2l.546-162.9-57.825,4.124-11.983,85.467,10.378,74.8H204.8l-5.189-71.125Z" transform="translate(-6.336 -7.781)" fill="#263238"/>
            <path id="Trazado_231335" data-name="Trazado 231335" d="M213.487,248.459a30.476,30.476,0,0,1-3.929,3.874,30.44,30.44,0,0,1-4.264,3.5,60.65,60.65,0,0,1,8.193-7.376" transform="translate(-7.55 -9.138)" fill="#455a64"/>
            <path id="Trazado_231336" data-name="Trazado 231336" d="M213.738,246.905a57.339,57.339,0,0,1,.106-6.524,57.194,57.194,0,0,1,.378-6.515,34.109,34.109,0,0,1,.124,6.534,34.068,34.068,0,0,1-.608,6.506" transform="translate(-7.858 -8.601)" fill="#455a64"/>
            <path id="Trazado_231337" data-name="Trazado 231337" d="M220.673,227.677a1.429,1.429,0,0,1,.324-.036l1-.06,3.832-.187,13.692-.572.234-.01v.236c.008,4.272.016,9.107.025,14.215v.444l-.158.063-8.907,3.569-.084.034-.084-.03-7.875-2.736-.123-.042-.016-.127c-.576-4.435-1.056-8.131-1.4-10.782-.15-1.236-.272-2.227-.361-2.965a8.791,8.791,0,0,1-.1-1.014,1.661,1.661,0,0,1,.063.289c.038.22.082.484.136.8.118.746.276,1.749.474,3,.394,2.609.942,6.246,1.6,10.613l-.14-.169,7.895,2.679-.167,0,8.9-3.59-.157.233v-.275c.009-5.108.017-9.943.024-14.215l.234.225-13.544.336-3.891.069-1.047.01a2.659,2.659,0,0,1-.379-.012" transform="translate(-8.116 -8.342)" fill="#455a64"/>
            <path id="Trazado_231338" data-name="Trazado 231338" d="M190.383,227.948a1.126,1.126,0,0,1,.292-.03l.9-.038,3.465-.108,12.49-.29.229,0-.007.232c-.136,4.219-.292,9.082-.458,14.261l0,.13-.11.071-1.445.944-7.322,4.775-.128.084-.13-.079-8.248-5.025-.1-.064,0-.12c.156-4.43.285-8.12.378-10.768.054-1.234.1-2.223.128-2.959a7.988,7.988,0,0,1,.073-1.01,1.643,1.643,0,0,1,.016.291c0,.221,0,.485,0,.8-.006.748-.012,1.754-.021,3.008-.04,2.617-.094,6.265-.161,10.645l-.1-.184,8.283,4.968-.257,0,7.313-4.79,1.446-.944-.114.2c.19-5.177.367-10.04.521-14.259l.222.227-12.355.067-3.514-.008-.942-.012a1.907,1.907,0,0,1-.34-.02" transform="translate(-6.98 -8.366)" fill="#455a64"/>
            <path id="Trazado_231339" data-name="Trazado 231339" d="M237.556,251.777a14.123,14.123,0,0,1-2.738-.086c-1.686-.125-4.009-.355-6.566-.686s-4.863-.7-6.525-1.012a14.056,14.056,0,0,1-2.669-.616,15.727,15.727,0,0,1,2.724.266l6.535.865,6.537.83a15.642,15.642,0,0,1,2.7.439" transform="translate(-8.056 -9.171)" fill="#455a64"/>
            <path id="Trazado_231340" data-name="Trazado 231340" d="M237.253,310.265c.021.01-.083.292-.478.64a3.2,3.2,0,0,1-2.066.7,4.882,4.882,0,0,1-3.017-1.157,20.846,20.846,0,0,1-2.75-2.782,38.008,38.008,0,0,1-4.09-5.754,12.2,12.2,0,0,1-1.277-2.63,26.989,26.989,0,0,1,1.58,2.446,50.646,50.646,0,0,0,4.168,5.612,23.111,23.111,0,0,0,2.655,2.745,4.673,4.673,0,0,0,2.737,1.166,3.225,3.225,0,0,0,1.942-.5c.4-.275.56-.512.6-.485" transform="translate(-8.222 -11.007)" fill="#455a64"/>
            <path id="Trazado_231341" data-name="Trazado 231341" d="M195.874,312.325a1.375,1.375,0,0,1-.273.649,4.15,4.15,0,0,1-1.4,1.327,5.348,5.348,0,0,1-2.771.728,6.557,6.557,0,0,1-3.339-1.06,11.81,11.81,0,0,1-4.016-4.787,10.606,10.606,0,0,1-1-2.38,17.13,17.13,0,0,1,1.31,2.211,12.669,12.669,0,0,0,3.971,4.532,6.345,6.345,0,0,0,3.083,1.022,5.246,5.246,0,0,0,2.586-.575,5.773,5.773,0,0,0,1.842-1.667" transform="translate(-6.733 -11.283)" fill="#455a64"/>
            <path id="Trazado_231342" data-name="Trazado 231342" d="M197.221,304.576a4.987,4.987,0,0,1-1.66.965,13.1,13.1,0,0,1-9.123.377,4.939,4.939,0,0,1-1.733-.826,16.752,16.752,0,0,0,12.515-.516" transform="translate(-6.793 -11.201)" fill="#455a64"/>
            <path id="Trazado_231343" data-name="Trazado 231343" d="M264.453,117.4H235s-4-2.3-5.936-1.917a7.66,7.66,0,0,0-3.613,2.451l3.9,32.448,9.539-7.059,35.5-3.7A11.293,11.293,0,0,0,285.5,126.989L278.929,92.1l-13.471.446-.532,8.856Z" transform="translate(-8.292 -3.387)" fill="#373f51"/>
            <path id="Trazado_231344" data-name="Trazado 231344" d="M180.711,126.853a18.043,18.043,0,0,0-7.111,8.264c-1.717,4.122-13.445,24.71-19.626,35.482a10.181,10.181,0,0,0,1.474,12.106c3.757,3.927,8.244,2.4,13.725.613,2.456-.8,13.509-17.765,13.509-17.765Z" transform="translate(-5.613 -4.665)" fill="#373f51"/>
            <path id="Trazado_231345" data-name="Trazado 231345" d="M186.842,200.094,180.093,142l1.628-15.482,17.188-7.326,22.262-1.457,21.2,2.334-4.959,59.587,5.425,33.6-59.371,2.684Z" transform="translate(-6.623 -4.33)" fill="#373f51"/>
            <path id="Trazado_231346" data-name="Trazado 231346" d="M186.813,200.772c-.138.016-1.754-12.922-3.609-28.894s-3.25-28.939-3.112-28.955,1.754,12.92,3.61,28.9,3.249,28.935,3.111,28.952" transform="translate(-6.623 -5.256)" fill="#263238"/>
            <path id="Trazado_231347" data-name="Trazado 231347" d="M244.115,133.692a2.1,2.1,0,0,1-.014.524c-.036.4-.08.891-.135,1.492-.139,1.366-.327,3.219-.557,5.478-.471,4.692-1.11,11.049-1.815,18.074-.672,7.062-1.219,13.461-1.565,18.1-.163,2.264-.3,4.123-.4,5.491-.048.6-.088,1.1-.119,1.492a2.091,2.091,0,0,1-.075.519,2.038,2.038,0,0,1-.026-.523c.008-.4.015-.894.026-1.5.026-1.3.115-3.182.236-5.5.256-4.645.747-11.054,1.421-18.121s1.395-13.449,1.961-18.065c.286-2.308.53-4.174.716-5.461.092-.6.168-1.087.228-1.481a2.057,2.057,0,0,1,.114-.512" transform="translate(-8.805 -4.917)" fill="#263238"/>
            <path id="Trazado_231348" data-name="Trazado 231348" d="M232.379,193.738a8.443,8.443,0,0,1-.94,1.149,13.269,13.269,0,0,1-1.206,1.258,22.1,22.1,0,0,1-1.715,1.548,24.7,24.7,0,0,1-2.233,1.694c-.811.6-1.752,1.13-2.728,1.709a33.913,33.913,0,0,1-14.041,4.191c-1.134.05-2.211.125-3.219.065a24.479,24.479,0,0,1-2.8-.193,21.931,21.931,0,0,1-2.283-.354,13.244,13.244,0,0,1-1.7-.391,8.21,8.21,0,0,1-1.416-.446c.027-.111,2.055.522,5.434.838a26.16,26.16,0,0,0,2.766.131c1,.04,2.058-.049,3.176-.111a35.164,35.164,0,0,0,13.855-4.136c.968-.561,1.905-1.067,2.716-1.648a26.131,26.131,0,0,0,2.243-1.625c2.652-2.116,4-3.758,4.085-3.679" transform="translate(-7.286 -7.125)" fill="#263238"/>
            <g id="Grupo_180163" data-name="Grupo 180163" transform="translate(191.127 182.651)" opacity="0.3">
              <g id="Grupo_180162" data-name="Grupo 180162">
                <g id="Grupo_180161" data-name="Grupo 180161" clip-path="url(#clip-path-11)">
                  <path id="Trazado_231349" data-name="Trazado 231349" d="M201,204.433c-2.887-.828-3.052-3.549-1.939-4.722s2.937-1.319,4.539-1.088a23.05,23.05,0,0,0,4.8.651c2.64-.178,4.856-2.015,6.689-3.925s3.573-4.043,5.983-5.138,5.763-.711,7.031,1.613a5.038,5.038,0,0,1-.288,4.822,11.247,11.247,0,0,1-3.575,3.5A29.233,29.233,0,0,1,201,204.433" transform="translate(-198.425 -189.625)"/>
                </g>
              </g>
            </g>
            <path id="Trazado_231350" data-name="Trazado 231350" d="M237.554,119.591a9.137,9.137,0,0,1,5.563,7.709,19.889,19.889,0,0,0-2.107-4.342,19.867,19.867,0,0,0-3.456-3.366" transform="translate(-8.737 -4.398)" fill="#263238"/>
            <path id="Trazado_231351" data-name="Trazado 231351" d="M233.375,118.89a3.482,3.482,0,0,0-.49-.293,2.5,2.5,0,0,0-1.6-.1,4.455,4.455,0,0,0-2.189,1.3,24.531,24.531,0,0,1-2.427,2.468,7.159,7.159,0,0,1-3.988,1.227c-1.516.074-3.123-.084-4.812-.127a94.84,94.84,0,0,0-11,.24,70.587,70.587,0,0,0-19.459,4.294,60.479,60.479,0,0,0-5.537,2.458l-1.458.768c-.335.173-.516.256-.516.256s.168-.106.5-.291l1.443-.8a55.81,55.81,0,0,1,5.52-2.522,69.2,69.2,0,0,1,19.494-4.361,93,93,0,0,1,11.021-.224c1.694.049,3.3.213,4.8.145a7.027,7.027,0,0,0,3.912-1.175,25.374,25.374,0,0,0,2.433-2.433,4.5,4.5,0,0,1,2.25-1.3,2.5,2.5,0,0,1,1.633.138,1.548,1.548,0,0,1,.473.329" transform="translate(-6.616 -4.353)" fill="#fafafa"/>
            <path id="Trazado_231352" data-name="Trazado 231352" d="M240.092,131.254c0,.014-.2-.061-.6-.129a6.2,6.2,0,0,0-1.74-.056,9.7,9.7,0,0,0-2.662.705,32.149,32.149,0,0,0-3.263,1.679,18.166,18.166,0,0,1-4.1,1.764,26.138,26.138,0,0,1-5.06.819c-3.6.224-7.561.28-11.708.6-8.3.571-15.767,1.577-21.145,2.454-2.69.431-4.858.84-6.357,1.112l-1.724.327c-.395.072-.6.1-.6.1s.2-.055.6-.14l1.717-.364c1.495-.3,3.659-.726,6.349-1.176,5.375-.913,12.847-1.942,21.154-2.513,4.148-.322,8.119-.373,11.708-.587a26.168,26.168,0,0,0,5.029-.794,18.17,18.17,0,0,0,4.077-1.729,31.644,31.644,0,0,1,3.289-1.658,9.539,9.539,0,0,1,2.7-.678,5.917,5.917,0,0,1,1.755.093,3.1,3.1,0,0,1,.59.169" transform="translate(-6.662 -4.817)" fill="#fafafa"/>
            <path id="Trazado_231353" data-name="Trazado 231353" d="M240.275,148.274s-.747.348-2.134.894-3.423,1.267-5.989,1.993a90.026,90.026,0,0,1-20.56,3.073,188.643,188.643,0,0,1-20.812-.5l-6.29-.489-1.709-.15c-.391-.037-.6-.065-.6-.065s.207,0,.6.025l1.712.114,6.294.425a199.861,199.861,0,0,0,20.794.435,92.368,92.368,0,0,0,20.531-3.008c2.565-.708,4.606-1.4,6-1.929.7-.249,1.233-.479,1.6-.615s.562-.206.562-.206" transform="translate(-6.7 -5.453)" fill="#fafafa"/>
            <path id="Trazado_231354" data-name="Trazado 231354" d="M238.091,167.9s-.7.305-2,.752a39.869,39.869,0,0,1-5.647,1.444,57.494,57.494,0,0,1-8.6.88c-3.255.112-6.836.006-10.584-.219-7.493-.494-14.273-1.026-19.192-.85-2.456.064-4.44.222-5.806.383-.684.065-1.211.155-1.571.195s-.549.059-.549.059a50.218,50.218,0,0,1,7.923-.779c4.927-.212,11.721.3,19.209.794,3.744.223,7.318.334,10.566.233a58.946,58.946,0,0,0,8.58-.835,42.589,42.589,0,0,0,5.648-1.378c.66-.193,1.154-.4,1.5-.507s.526-.171.526-.171" transform="translate(-6.772 -6.175)" fill="#fafafa"/>
            <path id="Trazado_231355" data-name="Trazado 231355" d="M236.32,183.091s-2.718.9-7.225,1.93c-2.251.524-4.956,1.041-7.976,1.508-3.024.443-6.365.823-9.886,1.045-3.523.2-6.886.229-9.942.153-3.054-.1-5.8-.287-8.1-.537-4.6-.484-7.4-1.045-7.4-1.045s.179.013.516.058l1.473.206c1.276.192,3.132.417,5.43.641s5.042.4,8.092.493c3.051.066,6.407.034,9.924-.17,3.515-.222,6.85-.6,9.871-1.028,3.017-.457,5.721-.958,7.973-1.464s4.069-.945,5.313-1.29l1.437-.381c.329-.086.506-.12.506-.12" transform="translate(-6.833 -6.734)" fill="#fafafa"/>
            <path id="Trazado_231356" data-name="Trazado 231356" d="M238.413,188.64s-.171.072-.5.19l-1.449.525c-1.255.464-3.05,1.191-5.238,2.16s-4.773,2.174-7.7,3.381a50.134,50.134,0,0,1-9.849,3.01,81.433,81.433,0,0,1-18.66,1.031c-2.394-.1-4.327-.224-5.664-.309l-1.537-.109c-.352-.028-.536-.052-.536-.052s.186,0,.537.012l1.54.071,5.664.246a83.9,83.9,0,0,0,18.617-1.087,50.653,50.653,0,0,0,9.817-2.984c2.928-1.194,5.515-2.395,7.716-3.339s4-1.662,5.268-2.1,1.979-.641,1.979-.641" transform="translate(-6.888 -6.938)" fill="#fafafa"/>
            <path id="Trazado_231357" data-name="Trazado 231357" d="M241.363,205.2s-.66.453-1.917,1.166a38.393,38.393,0,0,1-5.562,2.547,61.2,61.2,0,0,1-19.832,3.352c-7.893.143-15.014-.483-20.169-.7-2.579-.126-4.666-.2-6.11-.23l-1.662-.033c-.38-.009-.58-.023-.58-.023s.2-.014.58-.017l1.663,0c1.445.006,3.534.058,6.115.167,5.16.181,12.282.784,20.158.642a62.289,62.289,0,0,0,19.787-3.286,40.476,40.476,0,0,0,5.573-2.481c.644-.327,1.113-.637,1.447-.818s.508-.28.508-.28" transform="translate(-6.823 -7.547)" fill="#fafafa"/>
            <path id="Trazado_231358" data-name="Trazado 231358" d="M252.8,143.227a1.1,1.1,0,0,1,.051-.243c.056-.211.116-.435.182-.684.169-.589.379-1.453.6-2.527a38.866,38.866,0,0,0-.255-17c-.256-1.066-.493-1.924-.68-2.508l-.2-.678a1.111,1.111,0,0,1-.058-.241,1.176,1.176,0,0,1,.1.228c.074.205.152.425.239.667.21.579.469,1.432.744,2.5a36.79,36.79,0,0,1,.256,17.061c-.243,1.074-.475,1.935-.667,2.52-.08.245-.151.466-.219.674a1.182,1.182,0,0,1-.09.23" transform="translate(-9.284 -4.389)" fill="#fafafa"/>
            <path id="Trazado_231359" data-name="Trazado 231359" d="M267.437,139.73a.9.9,0,0,1,0-.221c.008-.2.016-.4.025-.629.032-.545.048-1.336.038-2.311a35.724,35.724,0,0,0-3.363-14.745c-.413-.883-.771-1.588-1.036-2.065l-.295-.556a.97.97,0,0,1-.092-.2.86.86,0,0,1,.126.18c.1.17.212.346.328.538.287.466.665,1.164,1.1,2.043a33.523,33.523,0,0,1,3.377,14.806c-.008.979-.046,1.771-.1,2.316-.022.224-.043.431-.063.627a.9.9,0,0,1-.036.218" transform="translate(-9.662 -4.377)" fill="#fafafa"/>
            <path id="Trazado_231360" data-name="Trazado 231360" d="M286.835,133.007a1.364,1.364,0,0,1-.181-.193l-.489-.575c-.416-.506-1.043-1.218-1.844-2.073a46.422,46.422,0,0,0-14.777-10.579c-1.067-.483-1.943-.847-2.555-1.078l-.7-.277a1.311,1.311,0,0,1-.241-.11,1.289,1.289,0,0,1,.253.071l.717.243c.622.209,1.508.554,2.586,1.021a43.809,43.809,0,0,1,14.824,10.613c.789.87,1.4,1.6,1.8,2.12l.46.6a1.259,1.259,0,0,1,.149.218" transform="translate(-9.785 -4.344)" fill="#fafafa"/>
            <path id="Trazado_231361" data-name="Trazado 231361" d="M282.5,105.231a3.632,3.632,0,0,1-.614.012l-1.669-.03c-1.409-.024-3.356-.041-5.5,0s-4.1.121-5.5.2l-1.667.087a3.506,3.506,0,0,1-.613.01,3.6,3.6,0,0,1,.607-.088c.392-.043.96-.1,1.664-.15,1.406-.11,3.354-.217,5.508-.255s4.1,0,5.513.065c.705.031,1.275.063,1.669.093a3.66,3.66,0,0,1,.61.066" transform="translate(-9.817 -3.861)" fill="#fafafa"/>
            <path id="Trazado_231362" data-name="Trazado 231362" d="M169.8,144.927a2.667,2.667,0,0,1,.362.381c.22.255.551.615.972,1.044a25.3,25.3,0,0,0,3.609,3,46.506,46.506,0,0,0,4.025,2.444l1.254.685a2.6,2.6,0,0,1,.451.271,2.636,2.636,0,0,1-.485-.2c-.307-.141-.747-.354-1.286-.629a36.488,36.488,0,0,1-4.073-2.4,22.055,22.055,0,0,1-3.6-3.071,13.96,13.96,0,0,1-.93-1.092,2.683,2.683,0,0,1-.3-.431" transform="translate(-6.245 -5.33)" fill="#fafafa"/>
            <path id="Trazado_231363" data-name="Trazado 231363" d="M174.02,136.925c.03-.015.222.33.68.771a14.448,14.448,0,0,0,1.946,1.539c.806.542,1.566.991,2.129,1.292s.923.46.912.488a10.843,10.843,0,0,1-3.154-1.614,11.116,11.116,0,0,1-1.935-1.607,2.287,2.287,0,0,1-.578-.869" transform="translate(-6.4 -5.036)" fill="#fafafa"/>
            <path id="Trazado_231364" data-name="Trazado 231364" d="M180.515,170.451a1.065,1.065,0,0,1-.21-.094l-.586-.305c-.508-.268-1.226-.685-2.086-1.244a43.1,43.1,0,0,1-6.273-4.977,39.89,39.89,0,0,1-5.231-6.064,24.128,24.128,0,0,1-1.3-2.054l-.316-.58a1.043,1.043,0,0,1-.1-.208.971.971,0,0,1,.133.189l.349.56c.3.488.747,1.184,1.346,2.012a43.341,43.341,0,0,0,5.253,6,47.09,47.09,0,0,0,6.213,5c.847.572,1.553,1.006,2.047,1.294l.566.338a1.02,1.02,0,0,1,.191.13" transform="translate(-6.047 -5.698)" fill="#fafafa"/>
            <path id="Trazado_231365" data-name="Trazado 231365" d="M153.337,180.4a4.759,4.759,0,0,1-.178-1.1,18.211,18.211,0,0,1-.065-3.05,19.623,19.623,0,0,1,3.2-9.468c2.071-3.313,3.969-6.3,5.364-8.443l1.674-2.527a4.81,4.81,0,0,1,.671-.89,4.731,4.731,0,0,1-.507.995l-1.538,2.612c-1.318,2.193-3.167,5.2-5.237,8.516a20.48,20.48,0,0,0-3.27,9.233c-.223,2.527,0,4.117-.111,4.122" transform="translate(-5.629 -5.698)" fill="#263238"/>
            <path id="Trazado_231366" data-name="Trazado 231366" d="M170.285,184.851a12.523,12.523,0,0,1-3.328-.5,15.6,15.6,0,0,1-11.029-11.03,12.543,12.543,0,0,1-.494-3.328,1.046,1.046,0,0,1,.039.231c.023.151.036.376.082.663a16.633,16.633,0,0,0,.51,2.4A15.851,15.851,0,0,0,167,184.219a16.527,16.527,0,0,0,2.4.511c.286.047.511.059.663.082a1.057,1.057,0,0,1,.231.04" transform="translate(-5.716 -6.252)" fill="#fafafa"/>
            <path id="Trazado_231367" data-name="Trazado 231367" d="M160.341,151.281a.81.81,0,0,1-.169.118l-.5.305c-.439.254-1.058.655-1.8,1.182a25.634,25.634,0,0,0-8.74,10.941c-.35.838-.6,1.53-.755,2.015-.066.2-.127.38-.187.555a.82.82,0,0,1-.078.191.761.761,0,0,1,.04-.2c.047-.18.1-.367.15-.567a19.015,19.015,0,0,1,.7-2.045,24.372,24.372,0,0,1,8.789-11,19.194,19.194,0,0,1,1.841-1.134l.52-.273a.8.8,0,0,1,.188-.083" transform="translate(-5.447 -5.564)" fill="#fafafa"/>
            <path id="Trazado_231368" data-name="Trazado 231368" d="M154.766,143.88a3.22,3.22,0,0,1-.547.195c-.357.106-.866.288-1.481.537a17.271,17.271,0,0,0-4.423,2.678,25.172,25.172,0,0,0-3.583,3.753c-.411.524-.737.955-.956,1.257a3.226,3.226,0,0,1-.362.454,3.14,3.14,0,0,1,.3-.5c.2-.316.51-.76.908-1.3a22.549,22.549,0,0,1,3.568-3.821,16.04,16.04,0,0,1,4.5-2.654A12.807,12.807,0,0,1,154.2,144a3.248,3.248,0,0,1,.569-.119" transform="translate(-5.274 -5.291)" fill="#fafafa"/>
          </g>
        </g>
      </g>
    </g>
    <g id="Grupo_888578" data-name="Grupo 888578">
      <rect id="Rectángulo_299819" data-name="Rectángulo 299819" width="65.53" height="16.922" transform="translate(1084.012 1531.899)" fill="#1565c0"/>
      <path id="Trazado_605119" data-name="Trazado 605119" d="M35.966,141.858l-4.081,11.259H28.746l-2.532-6.99-2.616,6.99H20.459L16.4,141.858h3.076l2.658,7.617,2.762-7.617h2.763l2.679,7.617,2.741-7.617Z" transform="translate(1071.104 1392.744)" fill="#fff"/>
      <path id="Trazado_605120" data-name="Trazado 605120" d="M53.1,141.858l-4.081,11.259H45.885l-2.532-6.99-2.616,6.99H37.6l-4.06-11.259h3.076l2.658,7.617,2.762-7.617H44.8l2.679,7.617,2.742-7.617Z" transform="translate(1073.302 1392.744)" fill="#fff"/>
      <path id="Trazado_605121" data-name="Trazado 605121" d="M70.243,141.858l-4.081,11.259H63.023l-2.532-6.99-2.616,6.99H54.736l-4.06-11.259h3.076l2.658,7.617,2.762-7.617h2.762l2.679,7.617,2.742-7.617Z" transform="translate(1075.501 1392.744)" fill="#fff"/>
      <line id="Línea_2084" data-name="Línea 2084" x2="6.94" transform="translate(1080.542 1531.899)" fill="none" stroke="#38356e" stroke-miterlimit="10" stroke-width="1"/>
      <line id="Línea_2085" data-name="Línea 2085" x2="6.94" transform="translate(1080.542 1548.821)" fill="none" stroke="#38356e" stroke-miterlimit="10" stroke-width="1"/>
      <line id="Línea_2086" data-name="Línea 2086" y2="16.922" transform="translate(1084.012 1531.899)" fill="none" stroke="#38356e" stroke-miterlimit="10" stroke-width="1"/>
    </g>
    <g id="Grupo_888579" data-name="Grupo 888579" transform="translate(-40 26)">
      <path id="Trazado_605122" data-name="Trazado 605122" d="M123.616,118.5H10.948a2.281,2.281,0,0,1-2.281-2.28V46.479a2.281,2.281,0,0,1,2.281-2.28H123.616a2.28,2.28,0,0,1,2.28,2.28V116.22a2.28,2.28,0,0,1-2.28,2.28" transform="translate(1032.303 1644.414)" fill="#12263f"/>
      <path id="Trazado_605123" data-name="Trazado 605123" d="M10.229,114.615V51.83a1.8,1.8,0,0,1,1.8-1.8h110.4a1.8,1.8,0,0,1,1.8,1.8v62.785a1.8,1.8,0,0,1-1.8,1.8H12.026a1.8,1.8,0,0,1-1.8-1.8" transform="translate(1032.358 1644.618)" fill="#fff"/>
      <path id="Trazado_605124" data-name="Trazado 605124" d="M119.738,47.168a1.485,1.485,0,1,1-1.484-1.484,1.484,1.484,0,0,1,1.484,1.484" transform="translate(1036.089 1644.466)" fill="#fff"/>
      <path id="Trazado_605125" data-name="Trazado 605125" d="M115,47.168a1.485,1.485,0,1,1-1.484-1.484A1.484,1.484,0,0,1,115,47.168" transform="translate(1035.923 1644.466)" fill="#fff"/>
      <path id="Trazado_605126" data-name="Trazado 605126" d="M110.26,47.168a1.485,1.485,0,1,1-1.484-1.484,1.484,1.484,0,0,1,1.484,1.484" transform="translate(1035.757 1644.466)" fill="#fff"/>
      <path id="Trazado_605127" data-name="Trazado 605127" d="M26.176,61.716a6,6,0,1,1-6-6,6,6,0,0,1,6,6" transform="translate(1032.496 1644.818)" fill="#1565c0"/>
      <rect id="Rectángulo_299820" data-name="Rectángulo 299820" width="89.493" height="2.835" transform="translate(1061.43 1700.579)" fill="#e8e8e8"/>
      <rect id="Rectángulo_299821" data-name="Rectángulo 299821" width="60.909" height="2.835" transform="translate(1061.43 1705.116)" fill="#e8e8e8"/>
      <rect id="Rectángulo_299822" data-name="Rectángulo 299822" width="31.673" height="2.835" transform="translate(1061.43 1709.933)" fill="#e8e8e8"/>
      <path id="Trazado_605128" data-name="Trazado 605128" d="M26.176,80.183a6,6,0,1,1-6-6,6,6,0,0,1,6,6" transform="translate(1032.496 1645.464)" fill="#fb8c00"/>
      <rect id="Rectángulo_299823" data-name="Rectángulo 299823" width="89.493" height="2.835" transform="translate(1061.43 1719.693)" fill="#e8e8e8"/>
      <rect id="Rectángulo_299824" data-name="Rectángulo 299824" width="60.909" height="2.835" transform="translate(1061.43 1724.229)" fill="#e8e8e8"/>
      <rect id="Rectángulo_299825" data-name="Rectángulo 299825" width="31.673" height="2.835" transform="translate(1061.43 1729.046)" fill="#e8e8e8"/>
      <path id="Trazado_605129" data-name="Trazado 605129" d="M26.176,98.65a6,6,0,1,1-6-6,6,6,0,0,1,6,6" transform="translate(1032.496 1646.111)" fill="#26aab7"/>
      <rect id="Rectángulo_299826" data-name="Rectángulo 299826" width="89.493" height="2.835" transform="translate(1061.43 1738.807)" fill="#e8e8e8"/>
      <rect id="Rectángulo_299827" data-name="Rectángulo 299827" width="60.909" height="2.835" transform="translate(1061.43 1743.343)" fill="#e8e8e8"/>
      <rect id="Rectángulo_299828" data-name="Rectángulo 299828" width="31.673" height="2.835" transform="translate(1061.43 1748.16)" fill="#e8e8e8"/>
      <path id="Trazado_605130" data-name="Trazado 605130" d="M127.355,121.336v1.553H125.8" transform="translate(1036.406 1647.116)" fill="none" stroke="#38356e" stroke-linejoin="round" stroke-width="0.5"/>
      <line id="Línea_2087" data-name="Línea 2087" x1="121.511" transform="translate(1037.621 1770.004)" fill="none" stroke="#38356e" stroke-linejoin="round" stroke-width="0.5" stroke-dasharray="2.972 2.972"/>
      <path id="Trazado_605131" data-name="Trazado 605131" d="M4,122.889H2.445v-1.553" transform="translate(1032.085 1647.116)" fill="none" stroke="#38356e" stroke-linejoin="round" stroke-width="0.5"/>
      <line id="Línea_2088" data-name="Línea 2088" y1="79.959" transform="translate(1034.531 1685.357)" fill="none" stroke="#12263f" stroke-linejoin="round" stroke-width="0.5" stroke-dasharray="3.03 3.03"/>
      <path id="Trazado_605132" data-name="Trazado 605132" d="M2.445,39.591V38.038H4" transform="translate(1032.085 1644.199)" fill="none" stroke="#38356e" stroke-linejoin="round" stroke-width="0.5"/>
      <line id="Línea_2089" data-name="Línea 2089" x2="121.511" transform="translate(1039.16 1682.237)" fill="none" stroke="#38356e" stroke-linejoin="round" stroke-width="0.5" stroke-dasharray="2.972 2.972"/>
      <path id="Trazado_605133" data-name="Trazado 605133" d="M125.8,38.038h1.553v1.553" transform="translate(1036.406 1644.199)" fill="none" stroke="#38356e" stroke-linejoin="round" stroke-width="0.5"/>
      <line id="Línea_2090" data-name="Línea 2090" y2="79.959" transform="translate(1163.761 1686.925)" fill="none" stroke="#38356e" stroke-linejoin="round" stroke-width="0.5" stroke-dasharray="3.03 3.03"/>
      <rect id="Rectángulo_299829" data-name="Rectángulo 299829" width="5.061" height="5.061" transform="translate(1032 1679.706)" fill="#12263f"/>
      <rect id="Rectángulo_299830" data-name="Rectángulo 299830" width="5.061" height="5.061" transform="translate(1161.23 1679.706)" fill="#12263f"/>
      <rect id="Rectángulo_299831" data-name="Rectángulo 299831" width="5.061" height="5.061" transform="translate(1161.23 1767.473)" fill="#12263f"/>
      <rect id="Rectángulo_299832" data-name="Rectángulo 299832" width="5.061" height="5.061" transform="translate(1032.776 1767.473)" fill="#12263f"/>
      <path id="Trazado_605134" data-name="Trazado 605134" d="M84.209,103.293V101.74h1.553" transform="translate(1034.949 1646.429)" fill="none" stroke="#38356e" stroke-linejoin="round" stroke-width="0.5"/>
    </g>
    <path id="Trazado_236852" data-name="Trazado 236852" d="M408.78,278.812v27.354a3.082,3.082,0,0,1-2.632,3.056,2.384,2.384,0,0,1-.463.039H370.543a3.1,3.1,0,0,1-3.1-3.095V278.812a2.967,2.967,0,0,1,.315-1.351,3.085,3.085,0,0,1,2.78-1.754h13.77a3.123,3.123,0,0,0,1.824-.591,3.03,3.03,0,0,0,1.124-1.538,3.1,3.1,0,0,1,2.947-2.139h7.334a3.093,3.093,0,0,1,2.947,2.139,3.1,3.1,0,0,0,2.947,2.129h2.248a3.1,3.1,0,0,1,3.1,3.1" transform="translate(996.853 1339.738)" fill="#c17d23"/>
    <g id="Grupo_182229" data-name="Grupo 182229" transform="translate(1364.301 1617.2)" style="isolation: isolate">
      <g id="Grupo_182228" data-name="Grupo 182228">
        <g id="Grupo_182227" data-name="Grupo 182227" clip-path="url(#clip-path-12)">
          <path id="Trazado_236853" data-name="Trazado 236853" d="M406.147,280.8v29.118l-.039.039H370.542a3.1,3.1,0,0,1-3.1-3.1V279.513a2.963,2.963,0,0,1,.315-1.351H403.5a2.643,2.643,0,0,1,2.643,2.643" transform="translate(-367.448 -278.162)" fill="#f4a338"/>
        </g>
      </g>
    </g>
  </g>
</svg>
