<svg xmlns="http://www.w3.org/2000/svg" xmlns:xlink="http://www.w3.org/1999/xlink" width="205.962" height="176.9" viewBox="0 0 205.962 176.9">
  <defs>
    <clipPath id="clip-path">
      <rect id="Rectángulo_299872" data-name="Rectángulo 299872" width="121.19" height="96.977" fill="#12263f"/>
    </clipPath>
  </defs>
  <g id="Grupo_889636" data-name="Grupo 889636" transform="translate(44.926 44.403)">
    <rect id="Rectángulo_49533" data-name="Rectángulo 49533" width="144.8" height="111.233" transform="translate(16.236 21.265)" fill="#ffde96"/>
    <g id="Grupo_169217" data-name="Grupo 169217" transform="translate(-44.926 -44.403)">
      <rect id="Rectángulo_49754" data-name="Rectángulo 49754" width="166.13" height="153.889" transform="translate(0 0)" fill="none"/>
      <g id="Grupo_888647" data-name="Grupo 888647" transform="translate(33.048 48.45)">
        <g id="Grupo_888646" data-name="Grupo 888646" clip-path="url(#clip-path)">
          <path id="Trazado_605146" data-name="Trazado 605146" d="M198.286,140.7a21.163,21.163,0,0,1-1.1,3.673,7.479,7.479,0,0,1-6.924,4.346c-4.768.074-9.539.029-14.308.029q-33.052,0-66.1,0c-4.3,0-7.3-2.146-8.359-6.054a11.318,11.318,0,0,1-.328-2.915q-.076-31.083-.11-62.166c0-2.349.278-4.617,1.83-6.555,1.914-2.39,4.479-3.177,7.408-3.176q24.478.006,48.957,0c7.45,0,14.9-.021,22.35.01,3.15.013,6.3.039,9.447.233a7.826,7.826,0,0,1,7.012,6.995,8.01,8.01,0,0,0,.232,1.023Zm-48.614-68.59V72.1q-19.991,0-39.981,0c-2.856,0-4.4,1.532-4.4,4.365q-.011,31.922,0,63.845c0,2.731,1.6,4.372,4.309,4.373q40.04.019,80.08,0a4,4,0,0,0,4.341-4.345q.01-31.981,0-63.963a5.155,5.155,0,0,0-.149-1.4q-.82-2.874-4.339-2.871-19.932-.006-39.863,0" transform="translate(-77.097 -51.784)" fill="#12263f"/>
          <path id="Trazado_605147" data-name="Trazado 605147" d="M101.789,0a27.372,27.372,0,0,1,4.452,2.228,6.731,6.731,0,0,1,2.626,5.333c.059,1.491.011,2.986.011,4.608h-4.055c0-.559-.03-1.133,0-1.7.319-5.192-1.438-6.384-6.32-6.305-9.064.146-18.133.042-27.2.042q-30.984,0-61.969,0a19.136,19.136,0,0,0-2.007.076,3.7,3.7,0,0,0-3.223,3,10.761,10.761,0,0,0-.164,1.877q-.012,31.265.006,62.53a8.122,8.122,0,0,0,.316,2.438c.538,1.677,1.943,2.531,4.092,2.551,3.39.032,6.78.009,10.17.012,1.729,0,1.733,0,1.653,1.679-.037.779-.092,1.557-.148,2.482-.865,0-1.68.01-2.494,0-3.662-.055-7.337.056-10.982-.224C2.891,80.345-.019,76.471,0,73.039Q.177,40.415,0,7.791A8.1,8.1,0,0,1,6.252.241c.3-.06.6-.16.9-.241Z" transform="translate(0)" fill="#12263f"/>
          <path id="Trazado_605148" data-name="Trazado 605148" d="M39.152,161.509c1.655,0,3.311.039,4.965-.016.9-.03,1.249.209,1.249,1.183,0,3.114.039,3.114-3.081,3.114-2.759,0-5.517-.019-8.275.011-.745.008-1.092-.2-1.037-1a18.517,18.517,0,0,0,0-2.362c-.045-.745.285-.952.977-.94,1.733.03,3.468.01,5.2.009" transform="translate(-25.152 -123.208)" fill="#12263f"/>
          <path id="Trazado_605149" data-name="Trazado 605149" d="M39.153,33.805c1.733,0,3.465.023,5.2-.01.707-.013.949.238.978.955.137,3.335.157,3.334-3.2,3.334-2.678,0-5.356-.03-8.032.017-.88.015-1.142-.269-1.144-1.148,0-3.149-.036-3.149,3.132-3.149h3.071" transform="translate(-25.138 -25.784)" fill="#12263f"/>
          <path id="Trazado_605150" data-name="Trazado 605150" d="M39.12,127.52c1.733,0,3.466.031,5.2-.014.787-.02,1,.285,1.016,1.033.085,3.247.105,3.246-3.185,3.246-2.678,0-5.355-.024-8.032.014-.836.012-1.255-.195-1.171-1.119a14.441,14.441,0,0,0,0-2.242c-.048-.747.281-.943.973-.93,1.732.034,3.465.011,5.2.011" transform="translate(-25.128 -97.28)" fill="#12263f"/>
          <path id="Trazado_605151" data-name="Trazado 605151" d="M32.987,195.878a3.134,3.134,0,0,1,.662-.174c3.62-.011,7.24-.029,10.859.024.283,0,.558.526.833.812.02.021,0,.076,0,.115.169,3.283.169,3.283-3.1,3.283-2.754,0-5.509-.023-8.262.014-.778.01-1.044-.254-1.006-1.02.051-1.013.013-2.03.013-3.055" transform="translate(-25.155 -149.303)" fill="#12263f"/>
          <path id="Trazado_605152" data-name="Trazado 605152" d="M112.966,33.836c0,1.318.041,2.452-.032,3.579a.977.977,0,0,1-.681.666q-5.425.064-10.85,0c-.25,0-.5-.431-.741-.666-.02-.02,0-.076-.007-.115-.356-3.462-.356-3.462,3.049-3.462Z" transform="translate(-76.678 -25.815)" fill="#12263f"/>
          <path id="Trazado_605153" data-name="Trazado 605153" d="M243.749,38.083c-1.73,0-3.46-.028-5.189.012-.764.018-1.067-.237-1.014-1.015a17.885,17.885,0,0,0,0-2.356c-.048-.748.281-.934.971-.929q5.189.035,10.379,0c.7,0,.955.232.993.945.178,3.345.2,3.344-3.074,3.344h-3.066" transform="translate(-181.23 -25.784)" fill="#12263f"/>
          <path id="Trazado_605154" data-name="Trazado 605154" d="M169.81,38.44V34.275h12.147c0,1.214.027,2.415-.027,3.614a.8.8,0,0,1-.576.528c-3.8.032-7.605.023-11.544.023" transform="translate(-129.556 -26.15)" fill="#12263f"/>
          <path id="Trazado_605155" data-name="Trazado 605155" d="M33.335,97.667v-4a6.831,6.831,0,0,1,.824-.1c3.463-.007,6.926.018,10.389-.021.832-.009,1.069.263,1.078,1.079.034,3.11.061,3.11-3.056,3.11q-3.955,0-7.91,0c-.42,0-.841-.039-1.326-.063" transform="translate(-25.433 -71.368)" fill="#12263f"/>
          <rect id="Rectángulo_299863" data-name="Rectángulo 299863" width="12.208" height="3.927" transform="translate(7.882 58.675)" fill="#12263f"/>
          <rect id="Rectángulo_299864" data-name="Rectángulo 299864" width="12.152" height="3.941" transform="translate(7.931 66.707)" fill="#12263f"/>
          <path id="Trazado_605156" data-name="Trazado 605156" d="M163.313,85.7q19.931,0,39.863,0,3.513,0,4.339,2.871a5.155,5.155,0,0,1,.149,1.4q.01,31.981,0,63.963a4,4,0,0,1-4.341,4.345q-40.04.016-80.081,0c-2.714,0-4.308-1.642-4.309-4.373q-.011-31.922,0-63.845c0-2.833,1.541-4.363,4.4-4.365q19.991-.015,39.981,0Zm-.006,12.028v.009q-18.749,0-37.5,0c-2.344,0-2.9.563-2.9,2.934q0,11.232,0,22.465c0,2.3.576,2.884,2.855,2.886q37.5.018,75,.024c2.371,0,2.953-.586,2.954-2.92q0-11.232,0-22.465c0-2.369-.56-2.932-2.906-2.933q-18.749,0-37.5,0m.027,48.528c3.113,0,6.226.005,9.339,0,2.034,0,2.813-.762,2.819-2.761q.017-5.376,0-10.752c-.006-1.947-.777-2.76-2.7-2.766q-9.516-.027-19.032,0c-1.861.006-2.632.828-2.638,2.7q-.018,5.435,0,10.87c.007,1.925.8,2.7,2.756,2.7,3.152.01,6.3,0,9.457,0m28.257,0c3.151,0,6.3.008,9.453,0,1.919-.007,2.657-.728,2.664-2.623q.02-5.492,0-10.984c-.006-1.953-.731-2.67-2.741-2.674q-9.394-.019-18.788,0c-2,0-2.721.732-2.728,2.691q-.017,5.433,0,10.866c.006,2.038.715,2.72,2.805,2.724q4.667.009,9.335,0m-56.646-.008v.008c3.154,0,6.308.006,9.462,0,2.016,0,2.743-.7,2.749-2.666q.017-5.5,0-10.994c-.007-1.835-.731-2.6-2.577-2.6q-9.521-.034-19.042,0c-1.918.006-2.622.744-2.628,2.665q-.018,5.438,0,10.876c.006,1.989.721,2.709,2.694,2.716,3.114.011,6.229,0,9.343,0m40.469,4.071h-24.2v3.955h24.2Zm-52.454,3.917h24.124v-3.921H122.96Zm80.693-3.938H179.528v3.916h24.125ZM155.265,93.7h12.067V89.736H155.265Zm28.213-3.943H171.438v3.966h12.041ZM122.97,93.673h12V89.726h-12Zm16.168,0h11.971V89.72H139.138Z" transform="translate(-90.737 -65.378)" fill="#e8e8e8"/>
          <path id="Trazado_605157" data-name="Trazado 605157" d="M176.1,136.482q18.749,0,37.5,0c2.346,0,2.9.563,2.906,2.933q0,11.232,0,22.465c0,2.334-.583,2.92-2.954,2.92q-37.5-.006-75-.024c-2.279,0-2.854-.59-2.855-2.886q-.005-11.232,0-22.464c0-2.371.559-2.934,2.9-2.934q18.749,0,37.5,0ZM168.7,150.626l-28.651-9.04v18.079l28.651-9.04m43.477,9.051V141.57l-28.689,9.057,28.689,9.05m-11.983-19H152.186a2.219,2.219,0,0,0,.356.2c7.531,2.374,15.06,4.759,22.6,7.088a3.7,3.7,0,0,0,2.037-.03c3.724-1.123,7.424-2.323,11.132-3.5l11.882-3.765m-47.921,19.8h47.639c-5.867-1.852-11.488-3.628-17.109-5.4-2.211-.7-4.427-1.928-6.639-1.924-2.254,0-4.509,1.216-6.756,1.921-5.655,1.775-11.305,3.563-17.135,5.4" transform="translate(-103.528 -104.129)" fill="#12263f"/>
          <path id="Trazado_605158" data-name="Trazado 605158" d="M266.91,288.752c-3.152,0-6.3.007-9.457,0-1.958-.006-2.749-.776-2.756-2.7q-.019-5.435,0-10.871c.006-1.877.777-2.7,2.638-2.7q9.516-.033,19.032,0c1.924.005,2.695.819,2.7,2.766q.016,5.376,0,10.752c-.006,2-.785,2.756-2.819,2.761-3.113.007-6.226,0-9.339,0m-.035-4.354c2.243,0,4.486-.023,6.728.012.79.012,1.145-.213,1.123-1.066-.047-1.847-.04-3.7,0-5.544.015-.778-.29-1.024-1.045-1.02q-6.787.034-13.574,0c-.854-.006-1.081.336-1.064,1.124.039,1.808.043,3.619,0,5.426-.02.833.3,1.1,1.108,1.085,2.242-.038,4.485-.013,6.728-.013" transform="translate(-194.314 -207.87)" fill="#12263f"/>
          <path id="Trazado_605159" data-name="Trazado 605159" d="M386.354,288.758q-4.667,0-9.335,0c-2.09,0-2.8-.686-2.805-2.724q-.016-5.433,0-10.866c.006-1.959.731-2.687,2.728-2.691q9.394-.02,18.788,0c2.01,0,2.735.721,2.742,2.674q.018,5.492,0,10.984c-.007,1.9-.745,2.616-2.664,2.623-3.151.011-6.3,0-9.453,0m-.1-4.354c2.324,0,4.649-.018,6.973.01.74.009,1.077-.215,1.06-1.01-.038-1.85-.044-3.7,0-5.552.021-.853-.333-1.073-1.125-1.069q-6.8.038-13.592,0c-.848-.006-1.211.225-1.182,1.132.056,1.77.063,3.545,0,5.315-.036.968.35,1.211,1.247,1.191,2.205-.048,4.412-.016,6.618-.016" transform="translate(-285.5 -207.877)" fill="#12263f"/>
          <path id="Trazado_605160" data-name="Trazado 605160" d="M147.724,288.783c-3.114,0-6.229.008-9.343,0-1.972-.007-2.688-.726-2.694-2.716q-.016-5.438,0-10.876c.006-1.921.71-2.66,2.628-2.665q9.521-.029,19.042,0c1.847.007,2.571.769,2.577,2.6q.02,5.5,0,10.994c-.006,1.962-.733,2.661-2.749,2.666-3.154.008-6.308,0-9.462,0v-.008m.117-11.954c-2.285,0-4.571.023-6.855-.013-.8-.013-1.142.222-1.12,1.072.047,1.81.054,3.624,0,5.433-.028.912.343,1.135,1.186,1.129q6.8-.044,13.592,0c.794,0,1.143-.222,1.121-1.072-.047-1.81-.054-3.624,0-5.433.028-.912-.343-1.144-1.187-1.128-2.245.042-4.491.014-6.737.014" transform="translate(-103.516 -207.91)" fill="#12263f"/>
          <rect id="Rectángulo_299865" data-name="Rectángulo 299865" width="24.197" height="3.955" transform="translate(60.481 84.944)" fill="#12263f"/>
          <rect id="Rectángulo_299866" data-name="Rectángulo 299866" width="24.124" height="3.921" transform="translate(32.223 84.94)" fill="#12263f"/>
          <rect id="Rectángulo_299867" data-name="Rectángulo 299867" width="24.125" height="3.916" transform="translate(88.791 84.923)" fill="#12263f"/>
          <rect id="Rectángulo_299868" data-name="Rectángulo 299868" width="12.067" height="3.959" transform="translate(64.529 24.358)" fill="#12263f"/>
          <rect id="Rectángulo_299869" data-name="Rectángulo 299869" width="12.041" height="3.966" transform="translate(80.701 24.374)" fill="#12263f"/>
          <rect id="Rectángulo_299870" data-name="Rectángulo 299870" width="12.002" height="3.948" transform="translate(32.234 24.347)" fill="#12263f"/>
          <rect id="Rectángulo_299871" data-name="Rectángulo 299871" width="11.971" height="3.957" transform="translate(48.401 24.342)" fill="#12263f"/>
          <path id="Trazado_605161" data-name="Trazado 605161" d="M182.73,167.053l-28.651,9.04V158.013l28.651,9.04" transform="translate(-117.554 -120.556)" fill="#fffae7"/>
          <path id="Trazado_605162" data-name="Trazado 605162" d="M366.012,176.05,337.323,167l28.689-9.058Z" transform="translate(-257.36 -120.502)" fill="#fffae7"/>
          <path id="Trazado_605163" data-name="Trazado 605163" d="M253.275,154.185l-11.882,3.765c-3.708,1.174-7.408,2.374-11.132,3.5a3.7,3.7,0,0,1-2.037.03c-7.545-2.33-15.073-4.714-22.6-7.088a2.22,2.22,0,0,1-.356-.2Z" transform="translate(-156.605 -117.635)" fill="#fffae7"/>
          <path id="Trazado_605164" data-name="Trazado 605164" d="M205.646,214.143c5.83-1.839,11.48-3.627,17.135-5.4,2.247-.706,4.5-1.917,6.756-1.921,2.212,0,4.427,1.227,6.639,1.924,5.621,1.771,11.242,3.547,17.109,5.4Z" transform="translate(-156.897 -157.793)" fill="#fffae7"/>
          <path id="Trazado_605165" data-name="Trazado 605165" d="M280.88,298.3c-2.243,0-4.486-.025-6.728.013-.809.014-1.128-.252-1.108-1.084.044-1.808.04-3.618,0-5.427-.017-.788.21-1.13,1.064-1.124q6.787.046,13.574,0c.755,0,1.06.242,1.045,1.021-.037,1.848-.044,3.7,0,5.544.022.853-.334,1.078-1.123,1.066-2.242-.035-4.485-.012-6.728-.012" transform="translate(-208.318 -221.77)" fill="#b2ebf2"/>
          <path id="Trazado_605166" data-name="Trazado 605166" d="M399.716,298.3c-2.206,0-4.413-.032-6.618.016-.9.02-1.282-.224-1.247-1.191.065-1.77.058-3.545,0-5.315-.028-.907.334-1.138,1.182-1.132q6.8.046,13.592,0c.792,0,1.146.215,1.125,1.069-.046,1.849-.04,3.7,0,5.552.016.794-.32,1.019-1.06,1.01-2.324-.028-4.649-.01-6.973-.01" transform="translate(-298.96 -221.77)" fill="#b2ebf2"/>
          <path id="Trazado_605167" data-name="Trazado 605167" d="M161.3,290.688c2.246,0,4.492.028,6.737-.014.844-.016,1.215.216,1.187,1.128-.056,1.81-.049,3.623,0,5.433.022.85-.327,1.076-1.121,1.072q-6.8-.037-13.592,0c-.842.005-1.214-.217-1.186-1.129.056-1.81.049-3.623,0-5.433-.022-.85.323-1.084,1.12-1.072,2.284.036,4.57.013,6.855.013" transform="translate(-116.978 -221.768)" fill="#b2ebf2"/>
        </g>
      </g>
    </g>
  </g>
</svg>
