<svg xmlns="http://www.w3.org/2000/svg" xmlns:xlink="http://www.w3.org/1999/xlink" width="205.962" height="176.901" viewBox="0 0 205.962 176.901">
  <defs>
    <clipPath id="clip-path">
      <rect id="Rectángulo_299904" data-name="Rectángulo 299904" width="114" height="94.997" fill="#12263f"/>
    </clipPath>
  </defs>
  <g id="Grupo_888650" data-name="Grupo 888650" transform="translate(44.926 44.403)">
    <rect id="Rectángulo_49533" data-name="Rectángulo 49533" width="144.8" height="111.233" transform="translate(16.236 21.265)" fill="#ffde96"/>
    <g id="Grupo_169217" data-name="Grupo 169217" transform="translate(-44.926 -44.403)">
      <rect id="Rectángulo_49754" data-name="Rectángulo 49754" width="166.13" height="153.889" transform="translate(0 0)" fill="none"/>
      <g id="Grupo_888652" data-name="Grupo 888652" transform="translate(33 53.45)">
        <g id="Grupo_888651" data-name="Grupo 888651" clip-path="url(#clip-path)">
          <path id="Trazado_605193" data-name="Trazado 605193" d="M56.9,94.992q-21.593,0-43.185,0C5.834,94.983.041,89.3.028,81.425q-.056-34.053,0-68.106A13.119,13.119,0,0,1,13.461.013q43.424-.027,86.848,0c8.055.005,13.671,5.673,13.678,13.781q.028,33.7,0,67.394c-.007,8.2-5.647,13.787-13.9,13.8q-21.593.027-43.186.005M3.942,19c-.043.722-.095,1.181-.1,1.64,0,20.256-.034,40.513.02,60.769.015,5.776,4.131,9.732,10,9.739q42.843.047,85.686.024c6.89,0,10.62-3.86,10.622-10.828q.009-32.52,0-65.04c0-7.91-3.523-11.469-11.4-11.477q-15.9-.017-31.806,0c-17.8,0-35.6-.02-53.406.019-6.21.014-10.482,5.1-9.44,11.385h102.1V19Z" transform="translate(0 0)" fill="#12263f"/>
          <path id="Trazado_605194" data-name="Trazado 605194" d="M8.152,23.187H110.435V19.422H8.336c-1.042-6.28,3.23-11.372,9.44-11.385,17.8-.04,35.6-.016,53.406-.019q15.9,0,31.806-.005c7.878.009,11.4,3.567,11.4,11.477q0,32.521,0,65.041c0,6.968-3.732,10.824-10.622,10.828q-42.843.027-85.686-.024c-5.871-.007-9.987-3.963-10-9.739-.053-20.256-.022-40.512-.02-60.769,0-.459.052-.918.1-1.64M59.32,34.507c0-1.628-.086-3.048.02-4.454.167-2.229-.7-3.108-3-3.1q-20.765.1-41.532,0c-2.285-.01-3.045.853-3.022,3.091.084,7.989.031,15.98.02,23.971,0,3.058.328,3.4,3.4,3.4q13.291,0,26.582,0c4.984,0,9.968-.024,14.952-.015,1.319,0,2.513-.3,2.531-1.831.067-5.669.027-11.338.027-17.016h-3.85V53.249c-5.329,1.869-6.925-2.48-9.727-5.283,4.178-1.721,6.532-4.473,5.924-9.016a7.492,7.492,0,0,0-5.656-6.066c-4.379-.9-7.37,1.093-9.28,5.043-.592-.612-1.036-1.058-1.466-1.517-2.338-2.5-2.77-2.509-5.024-.013q-6.282,6.958-12.543,13.934c-.544.605-1.059,1.236-1.832,2.141V30.99H55.385c.084,1.263.155,2.341.234,3.517Zm3.765,24.651c0,2.369.027,4.738-.009,7.106-.027,1.8.828,2.57,2.6,2.559,4.659-.03,9.317-.019,13.975,0,1.65.005,2.478-.72,2.468-2.425q-.037-7.106,0-14.213c.008-1.7-.8-2.416-2.471-2.406-4.658.028-9.317.052-13.975-.011-1.989-.027-2.656.917-2.606,2.762.06,2.209.014,4.421.018,6.632M82.123,36.624h-.01c0-2.369-.035-4.739.012-7.107.036-1.813-.8-2.557-2.586-2.541q-6.989.063-13.978,0c-1.874-.019-2.485.91-2.469,2.644.04,4.58.052,9.162,0,13.742-.025,1.94.828,2.679,2.718,2.656,4.58-.054,9.161-.044,13.741,0,1.787.019,2.63-.7,2.589-2.526-.052-2.289-.013-4.58-.013-6.871M63.105,82.269c0,2.29.033,4.58-.011,6.869-.032,1.691.733,2.46,2.416,2.453q7.106-.031,14.211,0c1.7.008,2.411-.809,2.4-2.475q-.043-6.986,0-13.974c.015-1.775-.706-2.6-2.537-2.581q-6.986.073-13.973,0c-1.826-.015-2.561.823-2.522,2.6.052,2.367.013,4.736.012,7.1M59.219,76.53H11.935v3.544H59.219Zm.054,7.575H11.993V87.62H59.273ZM23.362,64.838H59.22V61.3H23.362Zm-.029,7.6H59.127V68.885H23.333Zm41.59-60.492H38.51V15.5H64.923ZM110.5,30.93H93.671v3.564H110.5Zm-.01,7.574H93.65v3.544h16.845Zm0,15.208H93.653V57.23h16.838ZM93.6,64.833h16.889V61.3H93.6Zm16.85,11.7H93.61v3.539h16.837Zm.066,7.6H93.594v3.544h16.919ZM19.4,61.3H11.981v3.512H19.4Zm-.082,7.621H12.006v3.563h7.308Zm15.2-56.965h-3.52v3.529h3.52ZM86.095,34.438h3.432v-3.6H86.095Zm-70.314-19h3.544V11.908H15.781Zm73.745,23.1H86.069V42.15h3.457Zm-66.155-23.1h3.537V11.907H23.371ZM85.933,57.244h3.6V53.758h-3.6Zm3.678,4.065H86.045v3.527h3.567Zm.013,15.233H86.1v3.519h3.53Zm-.045,7.584H86.073v3.549H89.58Z" transform="translate(-4.21 -4.191)" fill="#f6f6f6"/>
          <path id="Trazado_605195" data-name="Trazado 605195" d="M63.424,55.3h-3.7c-.078-1.176-.15-2.254-.234-3.517H19.95V73.271c.773-.905,1.288-1.536,1.832-2.141Q28.047,64.157,34.324,57.2c2.254-2.5,2.686-2.485,5.024.013.43.46.875.906,1.466,1.517,1.91-3.95,4.9-5.942,9.28-5.043a7.492,7.492,0,0,1,5.657,6.066c.608,4.543-1.746,7.294-5.924,9.016,2.8,2.8,4.4,7.152,9.727,5.283V59.359H63.4c0,5.677.041,11.347-.027,17.016-.018,1.533-1.213,1.833-2.531,1.831-4.984-.009-9.968.013-14.952.015q-13.291.005-26.582,0c-3.076,0-3.408-.346-3.4-3.4.01-7.99.064-15.981-.02-23.971-.023-2.238.737-3.1,3.022-3.091q20.766.1,41.532,0c2.3-.011,3.169.868,3,3.1-.105,1.406-.02,2.826-.02,4.454M24.2,74.259h25.27L36.834,60.227,24.2,74.259m27.783-13.11a3.768,3.768,0,1,0-3.881,3.707,3.9,3.9,0,0,0,3.881-3.707" transform="translate(-8.314 -24.988)" fill="#12263f"/>
          <path id="Trazado_605196" data-name="Trazado 605196" d="M123.475,104.99c0-2.211.044-4.423-.016-6.632-.05-1.845.617-2.789,2.606-2.762,4.658.063,9.317.04,13.975.011,1.668-.01,2.479.706,2.471,2.406q-.033,7.107,0,14.213c.009,1.7-.818,2.43-2.468,2.425-4.658-.015-9.317-.026-13.975,0-1.771.011-2.626-.759-2.6-2.559.035-2.368.009-4.737.007-7.106m15.01-5.424h-11v11.169h11Z" transform="translate(-64.602 -50.022)" fill="#12263f"/>
          <path id="Trazado_605197" data-name="Trazado 605197" d="M142.54,57.442c0,2.291-.04,4.582.013,6.871.041,1.826-.8,2.545-2.589,2.526-4.58-.049-9.161-.058-13.741,0-1.891.022-2.743-.717-2.718-2.656.057-4.58.045-9.161,0-13.742-.016-1.734.594-2.663,2.469-2.644q6.989.068,13.978,0c1.786-.016,2.622.727,2.586,2.541-.047,2.368-.012,4.738-.012,7.107Zm-15.124,5.435h11.137V51.834H127.416Z" transform="translate(-64.627 -25.009)" fill="#12263f"/>
          <path id="Trazado_605198" data-name="Trazado 605198" d="M123.527,153.124c0-2.368.04-4.738-.013-7.1-.039-1.776.7-2.615,2.522-2.6q6.986.06,13.973,0c1.831-.019,2.551.807,2.537,2.581q-.057,6.986,0,13.974c.01,1.666-.7,2.483-2.4,2.475q-7.105-.033-14.211,0c-1.683.007-2.448-.762-2.416-2.453.044-2.289.011-4.579.011-6.869m3.944,5.334h11.121V147.371H127.471Z" transform="translate(-64.631 -75.046)" fill="#12263f"/>
          <rect id="Rectángulo_299879" data-name="Rectángulo 299879" width="47.284" height="3.544" transform="translate(7.725 72.34)" fill="#12263f"/>
          <rect id="Rectángulo_299880" data-name="Rectángulo 299880" width="47.281" height="3.515" transform="translate(7.783 79.915)" fill="#12263f"/>
          <rect id="Rectángulo_299881" data-name="Rectángulo 299881" width="35.858" height="3.541" transform="translate(19.152 57.106)" fill="#12263f"/>
          <rect id="Rectángulo_299882" data-name="Rectángulo 299882" width="35.794" height="3.556" transform="translate(19.123 64.695)" fill="#12263f"/>
          <rect id="Rectángulo_299883" data-name="Rectángulo 299883" width="26.413" height="3.547" transform="translate(34.301 7.758)" fill="#12263f"/>
          <rect id="Rectángulo_299884" data-name="Rectángulo 299884" width="16.833" height="3.564" transform="translate(89.462 26.739)" fill="#12263f"/>
          <rect id="Rectángulo_299885" data-name="Rectángulo 299885" width="16.845" height="3.544" transform="translate(89.44 34.314)" fill="#12263f"/>
          <rect id="Rectángulo_299886" data-name="Rectángulo 299886" width="16.838" height="3.517" transform="translate(89.443 49.523)" fill="#12263f"/>
          <rect id="Rectángulo_299887" data-name="Rectángulo 299887" width="16.889" height="3.531" transform="translate(89.387 57.112)" fill="#12263f"/>
          <rect id="Rectángulo_299888" data-name="Rectángulo 299888" width="16.837" height="3.539" transform="translate(89.4 72.341)" fill="#12263f"/>
          <rect id="Rectángulo_299889" data-name="Rectángulo 299889" width="16.919" height="3.544" transform="translate(89.384 79.937)" fill="#12263f"/>
          <rect id="Rectángulo_299890" data-name="Rectángulo 299890" width="7.416" height="3.512" transform="translate(7.771 57.109)" fill="#12263f"/>
          <rect id="Rectángulo_299891" data-name="Rectángulo 299891" width="7.308" height="3.563" transform="translate(7.796 64.73)" fill="#12263f"/>
          <rect id="Rectángulo_299892" data-name="Rectángulo 299892" width="3.52" height="3.529" transform="translate(26.783 7.766)" fill="#12263f"/>
          <rect id="Rectángulo_299893" data-name="Rectángulo 299893" width="3.432" height="3.601" transform="translate(81.885 26.647)" fill="#12263f"/>
          <rect id="Rectángulo_299894" data-name="Rectángulo 299894" width="3.544" height="3.528" transform="translate(11.571 7.717)" fill="#12263f"/>
          <rect id="Rectángulo_299895" data-name="Rectángulo 299895" width="3.457" height="3.612" transform="translate(81.859 34.347)" fill="#12263f"/>
          <rect id="Rectángulo_299896" data-name="Rectángulo 299896" width="3.537" height="3.529" transform="translate(19.161 7.717)" fill="#12263f"/>
          <rect id="Rectángulo_299897" data-name="Rectángulo 299897" width="3.605" height="3.486" transform="translate(81.723 49.567)" fill="#12263f"/>
          <rect id="Rectángulo_299898" data-name="Rectángulo 299898" width="3.567" height="3.527" transform="translate(81.835 57.118)" fill="#12263f"/>
          <rect id="Rectángulo_299899" data-name="Rectángulo 299899" width="3.53" height="3.519" transform="translate(81.885 72.351)" fill="#12263f"/>
          <rect id="Rectángulo_299900" data-name="Rectángulo 299900" width="3.507" height="3.549" transform="translate(81.863 79.936)" fill="#12263f"/>
          <path id="Trazado_605199" data-name="Trazado 605199" d="M33.333,87.95,45.962,73.919,58.6,87.95Z" transform="translate(-17.442 -38.68)" fill="#b2ebf2"/>
          <path id="Trazado_605200" data-name="Trazado 605200" d="M83.341,71.651a3.768,3.768,0,1,1-3.769-3.828,3.9,3.9,0,0,1,3.769,3.828" transform="translate(-39.667 -35.49)" fill="#fb8c00"/>
          <rect id="Rectángulo_299901" data-name="Rectángulo 299901" width="11" height="11.169" transform="translate(62.883 49.544)" fill="#fffae7"/>
          <rect id="Rectángulo_299902" data-name="Rectángulo 299902" width="11.137" height="11.043" transform="translate(62.789 26.825)" fill="#dee4f0"/>
          <rect id="Rectángulo_299903" data-name="Rectángulo 299903" width="11.121" height="11.087" transform="translate(62.84 72.325)" fill="#b2ebf2"/>
        </g>
      </g>
    </g>
  </g>
</svg>
