<svg xmlns="http://www.w3.org/2000/svg" xmlns:xlink="http://www.w3.org/1999/xlink" width="144" height="144" viewBox="0 0 144 144">
  <defs>
    <clipPath id="clip-path">
      <rect id="Rect치ngulo_56866" data-name="Rect치ngulo 56866" width="103.816" height="133.191" fill="none"/>
    </clipPath>
    <linearGradient id="linear-gradient" x1="0.5" x2="0.5" y2="1" gradientUnits="objectBoundingBox">
      <stop offset="0" stop-color="#f5f5f5"/>
      <stop offset="0.25" stop-color="#f5f5f5"/>
      <stop offset="1" stop-color="#a7b3cf"/>
    </linearGradient>
    <linearGradient id="linear-gradient-2" x1="0.5" x2="0.5" y2="1" gradientUnits="objectBoundingBox">
      <stop offset="0" stop-color="#fdbe41"/>
      <stop offset="1" stop-color="#d09f40"/>
    </linearGradient>
    <linearGradient id="linear-gradient-3" x1="0.5" x2="0.5" y2="1" gradientUnits="objectBoundingBox">
      <stop offset="0" stop-color="#278d7e"/>
      <stop offset="1" stop-color="#4fc1b1"/>
    </linearGradient>
  </defs>
  <g id="Grupo_889615" data-name="Grupo 889615" transform="translate(-8681 9803)">
    <g id="Grupo_889612" data-name="Grupo 889612" transform="translate(8700.423 -9797.307)">
      <g id="Grupo_176590" data-name="Grupo 176590" clip-path="url(#clip-path)">
        <path id="Trazado_219586" data-name="Trazado 219586" d="M79.938,116.3q0-17.368,0-34.734c.01-6.267,3.407-9.654,9.7-9.664q17.675-.029,35.349,0c5.986.011,9.537,3.519,9.545,9.548q.048,34.734,0,69.469c-.007,6.376-3.506,9.868-9.895,9.892q-17.368.062-34.734,0c-6.576-.02-9.961-3.476-9.969-10.086q-.019-17.213,0-34.427m50.107-32.84c.612-5.362-1.017-7.326-5.661-7.332Q107,76.1,89.626,76.133c-3.759.009-5.444,1.683-5.447,5.444q-.031,34.758,0,69.516c0,3.756,1.635,5.415,5.43,5.544,2.868.1,5.741.028,8.612.028q13.073,0,26.146,0c2.679,0,5.368-.707,5.641-3.6.435-4.615.116-9.3.116-14.13-11.394,0-22.461,0-33.528,0a36.915,36.915,0,0,1-5.829-.116c-.822-.132-1.476-1.3-2.206-2a12.8,12.8,0,0,1,2.236-2.043c.545-.31,1.4-.074,2.121-.074q16.917,0,33.835,0h3.4V87.677h-3.807q-17.071,0-34.143-.012c-1.634,0-3.625.111-3.572-2.271.05-2.271,2.014-1.915,3.488-1.918q17.072-.039,34.143-.015h3.788" transform="translate(-30.744 -27.649)"/>
        <path id="Trazado_219587" data-name="Trazado 219587" d="M80.662,19.955H4.237v3.217q0,17.22,0,34.44c0,4.85,1.554,6.374,6.456,6.378q14.3.012,28.6,0c.615,0,1.366-.224,1.817.048a23.192,23.192,0,0,1,2.707,2.177c-.85.665-1.695,1.9-2.553,1.91-10.966.126-21.935.169-32.9.03a8.461,8.461,0,0,1-8.28-8.644Q-.083,34.148.094,8.778A8.617,8.617,0,0,1,9.015.069Q42.533-.064,76.05.083c5.3.027,8.757,3.786,8.8,9.063.066,8.61.012,17.22.029,25.83,0,1.609-.017,3.532-2.116,3.2-.856-.136-1.948-2.152-2-3.356-.228-4.884-.095-9.786-.095-14.861M4.378,15.193H80.6c0-1.258,0-2.27,0-3.282.017-6.544-1.054-7.6-7.7-7.6H27.073c-5.742,0-11.484-.039-17.226.02-3.171.033-5.133,1.538-5.425,4.306a64.519,64.519,0,0,0-.044,6.559" transform="translate(0 0)"/>
        <path id="Trazado_219588" data-name="Trazado 219588" d="M37.15,188.683c2.725-2.869,4.9-5.176,7.1-7.462,1.055-1.1,2.421-2.159,3.558-.54.488.694.151,2.609-.507,3.352-2.51,2.834-5.327,5.394-7.983,8.1-1.43,1.458-2.737,1.568-4.187.03a63.158,63.158,0,0,1-4.691-4.858c-.528-.7-.137-2.091-.164-3.167,1.007.066,2.3-.236,2.961.275a33.7,33.7,0,0,1,3.918,4.268" transform="translate(-11.599 -69.174)" fill="#1565c0"/>
        <path id="Trazado_219589" data-name="Trazado 219589" d="M37.185,162.378c2.709-3.085,4.758-5.489,6.89-7.817,1.041-1.137,2.291-2.493,3.823-.786,1.416,1.577.174,2.783-.955,3.9-2.548,2.521-5.109,5.03-7.612,7.6-1.439,1.474-2.743,1.526-4.182.013a62.04,62.04,0,0,1-4.7-4.844c-.529-.7-.146-2.087-.178-3.161,1.007.066,2.335-.246,2.954.278,1.3,1.1,2.23,2.647,3.956,4.82" transform="translate(-11.604 -58.835)" fill="#1565c0"/>
        <path id="Trazado_219590" data-name="Trazado 219590" d="M36.993,135.151c2.7-2.873,4.772-5.129,6.905-7.324,1.057-1.088,2.244-2.551,3.846-.962,1.5,1.486.406,2.76-.759,3.907-2.554,2.517-5.122,5.021-7.62,7.594-1.55,1.6-2.95,1.545-4.449-.027a64.377,64.377,0,0,1-4.667-4.877c-.488-.634-.1-1.943-.109-2.944,1,.031,2.311-.326,2.937.174a33.951,33.951,0,0,1,3.916,4.46" transform="translate(-11.539 -48.526)" fill="#1565c0"/>
        <path id="Trazado_219591" data-name="Trazado 219591" d="M22.486,57.569a55.908,55.908,0,0,1,5.372,5.263c.606.775.327,2.241.45,3.392-1.086-.1-2.508.194-3.194-.383a44.308,44.308,0,0,1-6.275-6.308,3.791,3.791,0,0,1,.046-3.617,44.755,44.755,0,0,1,6.294-6.292c.682-.57,2.1-.26,3.182-.354-.081,1.081.246,2.512-.322,3.175a61.246,61.246,0,0,1-5.553,5.124" transform="translate(-7.078 -18.95)"/>
        <path id="Trazado_219592" data-name="Trazado 219592" d="M67.841,57.541a50.654,50.654,0,0,1-5.248-4.927c-.617-.761-.34-2.249-.468-3.407,1.079.116,2.488-.158,3.178.422a44.792,44.792,0,0,1,6.289,6.3,3.794,3.794,0,0,1-.006,3.622,44.418,44.418,0,0,1-6.3,6.283c-.679.566-2.1.244-3.18.329.073-1.076-.256-2.471.3-3.166a65.344,65.344,0,0,1,5.44-5.454" transform="translate(-23.875 -18.926)"/>
        <path id="Trazado_219593" data-name="Trazado 219593" d="M41.356,67.168c-.378-1.1-1.34-2.4-1.039-3.268,1.81-5.193,3.826-10.321,6.005-15.37.324-.751,1.878-.972,2.863-1.439.3,1.043,1.113,2.266.82,3.1-1.756,5-3.726,9.919-5.731,14.823a9.065,9.065,0,0,1-1.807,2.127Z" transform="translate(-15.485 -18.112)"/>
        <path id="Trazado_219594" data-name="Trazado 219594" d="M132.689,86.1H128.9q-17.071,0-34.143.015c-1.474,0-3.438-.353-3.488,1.918-.053,2.383,1.937,2.269,3.572,2.272q17.071.032,34.142.012h3.807v47.016H95.56c-.718,0-1.575-.235-2.121.074a12.818,12.818,0,0,0-2.236,2.043c.73.7,1.385,1.87,2.206,2a36.915,36.915,0,0,0,5.829.116c11.067,0,22.134,0,33.528,0,0,4.828.319,9.514-.116,14.13-.273,2.9-2.961,3.6-5.641,3.6q-13.073-.01-26.146,0c-2.871,0-5.745.07-8.612-.028-3.794-.129-5.426-1.789-5.429-5.545q-.033-34.758,0-69.516c0-3.761,1.688-5.434,5.447-5.444q17.38-.043,34.758-.006c4.645.006,6.273,1.97,5.661,7.333m-23.018,26.722c4.818,0,9.636-.042,14.453.02,2.049.026,3.068-.808,3.059-2.878-.014-3.28.01-6.561-.012-9.841-.014-2.037-1.036-2.849-3.106-2.835q-14.145.1-28.29,0c-2.457-.021-3.282,1.113-3.252,3.356.041,2.972.068,5.946-.009,8.917-.062,2.358.973,3.329,3.319,3.29,4.612-.077,9.225-.023,13.837-.025m.74,41v.013c1.223,0,2.551.294,3.639-.09.921-.324,1.566-1.433,2.334-2.194-.75-.639-1.45-1.743-2.26-1.83a31.8,31.8,0,0,0-7.016.009c-.82.095-1.516,1.264-2.268,1.943.735.716,1.357,1.746,2.237,2.066a10.236,10.236,0,0,0,3.334.083" transform="translate(-33.387 -30.291)" fill="url(#linear-gradient)"/>
        <path id="Trazado_219595" data-name="Trazado 219595" d="M7.073,17.878a64.519,64.519,0,0,1,.044-6.559c.292-2.769,2.254-4.273,5.425-4.306,5.741-.059,11.484-.02,17.226-.02H75.6c6.645,0,7.716,1.06,7.7,7.6,0,1.012,0,2.023,0,3.282Z" transform="translate(-2.695 -2.685)" fill="url(#linear-gradient-2)"/>
        <path id="Trazado_219596" data-name="Trazado 219596" d="M113.237,124.408c-4.613,0-9.226-.054-13.837.023-2.346.039-3.381-.932-3.32-3.289.077-2.971.05-5.945.009-8.917-.031-2.242.8-3.376,3.252-3.356q14.145.118,28.291,0c2.07-.014,3.092.8,3.106,2.836.022,3.28,0,6.56.012,9.84.009,2.071-1.01,2.905-3.059,2.878-4.817-.063-9.635-.02-14.453-.018m13-11H100.774c-1.1,6.749-1.1,6.749,5.361,6.749h20.1Z" transform="translate(-36.953 -41.873)"/>
        <path id="Trazado_219597" data-name="Trazado 219597" d="M121.682,198.067a10.236,10.236,0,0,1-3.334-.083c-.88-.321-1.5-1.35-2.237-2.066.752-.679,1.447-1.848,2.268-1.943a31.8,31.8,0,0,1,7.016-.009c.81.087,1.51,1.191,2.26,1.83-.767.761-1.412,1.87-2.334,2.194-1.089.383-2.416.09-3.639.09v-.013" transform="translate(-44.659 -74.531)"/>
        <path id="Trazado_219598" data-name="Trazado 219598" d="M128.831,116.239v6.749h-20.1c-6.461,0-6.461,0-5.361-6.749Z" transform="translate(-39.546 -44.708)" fill="url(#linear-gradient-3)"/>
      </g>
    </g>
    <rect id="Rect치ngulo_300219" data-name="Rect치ngulo 300219" width="144" height="144" transform="translate(8681 -9803)" fill="none"/>
  </g>
</svg>
