<svg xmlns="http://www.w3.org/2000/svg" xmlns:xlink="http://www.w3.org/1999/xlink" width="144" height="144" viewBox="0 0 144 144">
  <defs>
    <clipPath id="clip-path">
      <rect id="Rectángulo_52564" data-name="Rectángulo 52564" width="123.246" height="123.245" fill="#12263f"/>
    </clipPath>
    <linearGradient id="linear-gradient" x1="0.5" x2="0.5" y2="1" gradientUnits="objectBoundingBox">
      <stop offset="0" stop-color="#278d7e"/>
      <stop offset="1" stop-color="#4fc1b1"/>
    </linearGradient>
  </defs>
  <g id="Grupo_889618" data-name="Grupo 889618" transform="translate(-8620 9055)">
    <g id="Grupo_889611" data-name="Grupo 889611" transform="translate(8629.754 -9044.246)">
      <g id="Grupo_171273" data-name="Grupo 171273" clip-path="url(#clip-path)">
        <path id="Trazado_212301" data-name="Trazado 212301" d="M125.337,0a2.963,2.963,0,0,1,1.3,2.838c-.062,3.636-.02,7.274-.023,10.911,0,2.041-.636,2.679-2.672,2.679H36.27V41.006H32.188V34.916c-1.062,0-1.991.046-2.913-.013-.94-.059-1.31.281-1.274,1.247.058,1.578.016,3.159.016,4.833H23.955c0-2.127-.136-4.263.039-6.372a4.429,4.429,0,0,1,4.365-3.787c1.194-.027,2.389,0,3.775,0V29.409c0-8.857.019-17.715-.022-26.572A2.982,2.982,0,0,1,33.413,0h76.775V4.139H36.312v8.1h86.1V4.05H114.3V0Z" transform="translate(-17.754)" fill="#12263f"/>
        <path id="Trazado_212302" data-name="Trazado 212302" d="M150.109,0V4.05h8.117v8.189h-86.1v-8.1H146V0ZM76.19,10.183h3.978V6.273H76.19Zm8.277-.015h3.949V6.229H84.466Zm8.157.015H96.6V6.273H92.623ZM154.157,6.26h-3.94V10.2h3.94Z" transform="translate(-53.567)" fill="url(#linear-gradient)"/>
        <path id="Trazado_212303" data-name="Trazado 212303" d="M360.312,107.258a3,3,0,0,1-2.837,1.3c-9.112-.04-18.225-.021-27.337-.023-2.05,0-2.684-.63-2.687-2.661,0-2.7-.039-5.391.021-8.085a1.356,1.356,0,0,0-1.064-1.577c-1.86-.623-3.692-1.332-5.517-2.052-2.016-.8-2.271-2.619-.554-3.93,2.073-1.583,4.153-3.159,6.268-4.685a1.844,1.844,0,0,0,.864-1.688c-.006-4.009.077-4.07,4.082-4.07,8.642,0,17.284.019,25.926-.022a2.993,2.993,0,0,1,2.836,1.3Zm-4.149-23.277h-24.71c.559,2.239-.369,3.665-2.17,4.765-1.264.772-2.393,1.765-3.687,2.739l3.709,1.408c2.071.788,2.244,1.041,2.244,3.29q0,4.081,0,8.171h24.614Z" transform="translate(-237.066 -59.242)" fill="#12263f"/>
        <path id="Trazado_212304" data-name="Trazado 212304" d="M67.085,257.137H40.442v-4.1h88.532c1.788,0,1.789,0,1.79-1.731,0-2.1,0-4.191,0-6.39H28.063c0,2.458-.031,4.963.051,7.464.007.231.73.618,1.129.628,2.3.06,4.6.03,6.957.03v4.014c-2.9,0-5.8.172-8.67-.059a4.194,4.194,0,0,1-3.564-4.133c-.037-6.717-.014-13.434-.014-20.257h4.065v8.041H130.694V207.937h4.169v1.389q0,21.309,0,42.618c0,3.413-1.791,5.192-5.225,5.193q-18.1,0-36.2,0H91.611a35.983,35.983,0,0,0,.468,5.48,5.084,5.084,0,0,0,4.139,3.767c.83.193,1.688.277,2.51.5a7.057,7.057,0,0,1,5.322,6.86c.04,3.708-.186,3.939-3.852,3.939H57.581c-2.229,0-2.817-.584-2.821-2.786-.008-5,1.955-7.388,6.828-8.311,3.9-.739,5.494-2.659,5.5-6.62,0-.891,0-1.781,0-2.825m4.1,0c0,1.37-.014,2.562,0,3.754a9.415,9.415,0,0,1-2.081,6.054,10.322,10.322,0,0,1-7.163,3.789c-1.9.257-2.72,1.072-2.922,2.751H99.853c-.425-1.807-1.163-2.532-2.983-2.748-6.521-.772-9.669-5.9-9.254-10.74.079-.919.011-1.85.011-2.859H71.184Z" transform="translate(-17.784 -154.434)" fill="#12263f"/>
        <path id="Trazado_212305" data-name="Trazado 212305" d="M151.691,118.365A22.591,22.591,0,1,1,174.332,141a22.538,22.538,0,0,1-22.641-22.634m24.7-12.195c6.541,1.9,10.2,6.281,10.205,12.174.01,6.006-3.613,10.4-10.2,12.305V136.6c8.079.33,16.406-8.842,16.357-18.126-.061-11.615-9.67-18.058-16.358-18.262Zm-2.17,4.021a8.218,8.218,0,1,0,8.27,8.1,8.31,8.31,0,0,0-8.27-8.1M156.061,120.52c.541,8.263,8.062,15.606,16.1,16.107v-6a12.631,12.631,0,0,1-10.1-10.1Zm6-4.215a12.628,12.628,0,0,1,10.1-10.106v-6c-8.992.547-16.051,9.217-15.993,16.1Z" transform="translate(-112.66 -71.166)" fill="#12263f"/>
        <path id="Trazado_212306" data-name="Trazado 212306" d="M146.311,232.467V207.834h4.013c.02.412.056.823.056,1.234q.005,12.388,0,24.776c0,2.038-.637,2.674-2.677,2.674q-44.1,0-88.194,0c-3.413,0-3.793-.418-3.544-4.052Z" transform="translate(-41.521 -154.357)" fill="#12263f"/>
        <path id="Trazado_212307" data-name="Trazado 212307" d="M16.462,175.65q6.929,0,13.857,0c1.862,0,2.533.68,2.537,2.551.006,2.78.03,5.561-.017,8.34a1.214,1.214,0,0,0,.961,1.381c1.894.654,3.768,1.368,5.631,2.106,2.006.795,2.252,2.621.533,3.939-2.07,1.586-4.149,3.161-6.265,4.684a1.837,1.837,0,0,0-.859,1.688c.007,3.987-.085,4.058-4.1,4.058q-13.023,0-26.047,0C.642,204.4,0,203.768,0,201.745Q0,190,0,178.264c0-1.962.648-2.611,2.6-2.613q6.929-.006,13.858,0M28.72,200.255a5.6,5.6,0,0,0,.033-.881,3.322,3.322,0,0,1,1.747-3.525c1.43-.915,2.735-2.028,4.227-3.154-1.452-.549-2.738-1.087-4.058-1.52a2.5,2.5,0,0,1-1.931-2.759c.074-2.85.022-5.7.022-8.594H4.182v20.432Z" transform="translate(0 -130.453)" fill="#12263f"/>
        <path id="Trazado_212308" data-name="Trazado 212308" d="M113.937,84.478l-3.074,3.035c-.92-.984-1.8-2.018-2.786-2.934a2.531,2.531,0,0,0-1.539-.637c-3.456-.056-6.914-.029-10.445-.029v-4a9.332,9.332,0,0,1,.937-.09c3.638-.007,7.276-.051,10.912.036a3.707,3.707,0,0,1,2.138.867c1.327,1.133,2.516,2.429,3.858,3.756" transform="translate(-71.368 -59.268)" fill="#12263f"/>
        <path id="Trazado_212309" data-name="Trazado 212309" d="M313.359,260.759l3.158-3c.874.923,1.76,1.952,2.755,2.864a2.547,2.547,0,0,0,1.542.631c3.455.055,6.912.028,10.437.028v4.006c-.3.03-.628.089-.953.089-3.637.006-7.276.052-10.911-.036a3.753,3.753,0,0,1-2.134-.876c-1.338-1.122-2.543-2.4-3.895-3.706" transform="translate(-232.73 -191.436)" fill="#12263f"/>
        <rect id="Rectángulo_52555" data-name="Rectángulo 52555" width="10.098" height="3.945" transform="translate(24.755 28.851)" fill="#12263f"/>
        <rect id="Rectángulo_52556" data-name="Rectángulo 52556" width="10.052" height="3.988" transform="translate(88.432 61.716)" fill="#12263f"/>
        <rect id="Rectángulo_52557" data-name="Rectángulo 52557" width="3.978" height="3.911" transform="translate(22.623 6.273)" fill="#12263f"/>
        <rect id="Rectángulo_52558" data-name="Rectángulo 52558" width="3.949" height="3.94" transform="translate(30.9 6.229)" fill="#12263f"/>
        <rect id="Rectángulo_52559" data-name="Rectángulo 52559" width="3.978" height="3.911" transform="translate(39.056 6.273)" fill="#12263f"/>
        <rect id="Rectángulo_52560" data-name="Rectángulo 52560" width="3.94" height="3.936" transform="translate(96.651 6.26)" fill="#12263f"/>
        <path id="Trazado_212310" data-name="Trazado 212310" d="M374.633,96.147V116.52H350.019q0-4.1,0-8.172c0-2.249-.173-2.5-2.244-3.29-1.188-.452-2.377-.9-3.709-1.409,1.294-.973,2.423-1.966,3.687-2.738,1.8-1.1,2.729-2.526,2.17-4.765Zm-10.568,9.2c-.845-.936-1.516-1.771-2.283-2.5a1.94,1.94,0,0,0-2.877-.075c-2.082,2.021-4.1,4.112-6.189,6.223l3.035,2.919,4.6-4.856c.887.961,1.6,1.8,2.393,2.577a2.082,2.082,0,0,0,3.489-.236c1.227-1.591,2.416-3.212,3.62-4.821.784-1.047,1.564-2.1,2.383-3.2l-3.306-2.469-4.861,6.437" transform="translate(-255.536 -71.408)" fill="#b2ebf2"/>
        <path id="Trazado_212311" data-name="Trazado 212311" d="M172.424,399.15h16.443c0,1.009.067,1.941-.011,2.859-.414,4.844,2.733,9.969,9.254,10.74,1.82.215,2.559.941,2.983,2.748H160.26c.2-1.679,1.026-2.494,2.922-2.751a10.322,10.322,0,0,0,7.163-3.789,9.415,9.415,0,0,0,2.081-6.054c-.017-1.192,0-2.384,0-3.754" transform="translate(-119.024 -296.446)" fill="#d2e1f1"/>
        <path id="Trazado_212312" data-name="Trazado 212312" d="M247.7,118.851v-5.957c6.688.2,16.3,6.646,16.358,18.262.049,9.284-8.278,18.456-16.357,18.126V143.33c6.591-1.908,10.215-6.3,10.2-12.305-.01-5.893-3.664-10.273-10.2-12.174" transform="translate(-183.968 -83.846)" fill="#d8dbf7"/>
        <path id="Trazado_212313" data-name="Trazado 212313" d="M215.709,151.672a8.218,8.218,0,1,1-8.163,8.2,8.314,8.314,0,0,1,8.163-8.2" transform="translate(-154.143 -112.645)" fill="#12263f"/>
        <path id="Trazado_212314" data-name="Trazado 212314" d="M168.674,191.81h6a12.632,12.632,0,0,0,10.1,10.1v6c-8.041-.5-15.562-7.844-16.1-16.107" transform="translate(-125.273 -142.456)" fill="#d8dbf7"/>
        <path id="Trazado_212315" data-name="Trazado 212315" d="M174.994,128.946H169.1c-.058-6.887,7-15.557,15.993-16.1v6a12.628,12.628,0,0,0-10.1,10.106" transform="translate(-125.59 -83.807)" fill="#d8dbf7"/>
        <path id="Trazado_212316" data-name="Trazado 212316" d="M40.79,212.3H16.252V191.872H40.83c0,2.891.052,5.744-.022,8.594a2.5,2.5,0,0,0,1.931,2.759c1.32.433,2.606.971,4.057,1.52-1.492,1.126-2.8,2.238-4.227,3.154a3.322,3.322,0,0,0-1.747,3.525,5.6,5.6,0,0,1-.033.881M30.485,196H26.538v12.177h3.947Zm6.138,4.132H32.68v8.045h3.943Zm-16.263,8.019h3.933V202.14H20.359Z" transform="translate(-12.07 -142.502)" fill="#eeac3a"/>
        <path id="Trazado_212317" data-name="Trazado 212317" d="M389.032,113.342l4.86-6.437,3.306,2.469c-.82,1.1-1.6,2.148-2.383,3.2-1.2,1.609-2.393,3.23-3.62,4.821a2.082,2.082,0,0,1-3.489.236c-.789-.772-1.507-1.616-2.393-2.577l-4.6,4.856-3.035-2.919c2.091-2.111,4.107-4.2,6.189-6.223a1.94,1.94,0,0,1,2.877.075c.768.732,1.438,1.567,2.283,2.5" transform="translate(-280.503 -79.398)" fill="#12263f"/>
        <rect id="Rectángulo_52561" data-name="Rectángulo 52561" width="3.947" height="12.177" transform="translate(14.467 53.494)" fill="#12263f"/>
        <rect id="Rectángulo_52562" data-name="Rectángulo 52562" width="3.943" height="8.045" transform="translate(20.609 57.625)" fill="#12263f"/>
        <rect id="Rectángulo_52563" data-name="Rectángulo 52563" width="3.933" height="6.007" transform="translate(8.289 59.637)" fill="#12263f"/>
      </g>
    </g>
    <rect id="Rectángulo_300222" data-name="Rectángulo 300222" width="144" height="144" transform="translate(8620 -9055)" fill="none"/>
  </g>
</svg>
