<svg xmlns="http://www.w3.org/2000/svg" xmlns:xlink="http://www.w3.org/1999/xlink" width="294.494" height="230.359" viewBox="0 0 294.494 230.359">
  <defs>
    <linearGradient id="linear-gradient" x1="0.5" x2="0.5" y2="1" gradientUnits="objectBoundingBox">
      <stop offset="0" stop-color="#fff"/>
      <stop offset="1" stop-color="#d2e6ee"/>
    </linearGradient>
    <clipPath id="clip-path">
      <rect id="Rectángulo_28054" data-name="Rectángulo 28054" width="133.046" height="89.522" fill="none"/>
    </clipPath>
  </defs>
  <g id="Grupo_889607" data-name="Grupo 889607" transform="translate(-180.965 -392.137)">
    <g id="Grupo_888514" data-name="Grupo 888514" transform="translate(-797.35 -6630.436)">
      <rect id="Rectángulo_297788" data-name="Rectángulo 297788" width="232.809" height="203.998" transform="translate(1040 7036)" fill="#fff7ee"/>
    </g>
    <g id="Grupo_171539" data-name="Grupo 171539" transform="translate(168.692 392.137)">
      <g id="Grupo_39717" data-name="Grupo 39717" transform="translate(0 0)">
        <g id="Computer" transform="translate(41.98 73.712)">
          <g id="Grupo_39638" data-name="Grupo 39638">
            <g id="Grupo_39637" data-name="Grupo 39637" transform="translate(63.834 108.66)">
              <path id="Trazado_92884" data-name="Trazado 92884" d="M240.1,325.746v21.315H211.071V325.746h10.268v10.245a4.249,4.249,0,1,0,8.5,0V325.746Z" transform="translate(-190.867 -325.746)" fill="#afafaf"/>
              <path id="Trazado_92885" data-name="Trazado 92885" d="M211.071,325.746h10.268v4.321l-10.268-1.18Z" transform="translate(-190.867 -325.746)" fill="#2c2c30"/>
              <path id="Trazado_92886" data-name="Trazado 92886" d="M248.252,325.746v6.47l-10.261-1.18v-5.289Z" transform="translate(-199.022 -325.746)" fill="#2c2c30"/>
              <rect id="Rectángulo_27975" data-name="Rectángulo 27975" width="69.439" height="2.893" transform="translate(0 21.08)" fill="#afafaf"/>
            </g>
            <path id="Trazado_92887" data-name="Trazado 92887" d="M287.615,177.723v95.315a7.87,7.87,0,0,1-7.868,7.868H98.381a7.87,7.87,0,0,1-7.868-7.868V177.723a7.864,7.864,0,0,1,7.868-7.861H279.747A7.864,7.864,0,0,1,287.615,177.723Z" transform="translate(-90.511 -169.862)" fill="#afafaf"/>
            <rect id="Rectángulo_27976" data-name="Rectángulo 27976" width="197.107" height="89.522" transform="translate(0 9.891)" fill="url(#linear-gradient)"/>
            <path id="Trazado_92888" data-name="Trazado 92888" d="M233.465,319.525a2.778,2.778,0,1,1-2.778-2.778A2.778,2.778,0,0,1,233.465,319.525Z" transform="translate(-132.134 -214.36)" fill="#42444f"/>
          </g>
        </g>
        <path id="Trazado_92889" data-name="Trazado 92889" d="M123.983,169.862v24.282a5.684,5.684,0,0,1-2.829,4.907l-25.083,14.48a5.652,5.652,0,0,1-5.558.056v-37.05a6.678,6.678,0,0,1,6.681-6.676Z" transform="translate(-48.588 -88.262)" fill="#35363b" opacity="0.55" style="mix-blend-mode: multiply;isolation: isolate"/>
        <path id="Trazado_92890" data-name="Trazado 92890" d="M441.622,373.881H384.989a1.868,1.868,0,0,1-1.862-1.862h0a1.867,1.867,0,0,1,1.862-1.862h56.633a1.867,1.867,0,0,1,1.862,1.862h0A1.868,1.868,0,0,1,441.622,373.881Z" transform="translate(-137.176 -156.829)" fill="#e6eaf0"/>
        <g id="Grupo_39649" data-name="Grupo 39649" transform="translate(249.307 136.188)">
          <g id="Grupo_39647" data-name="Grupo 39647" transform="translate(0 0)">
            <g id="Grupo_39640" data-name="Grupo 39640" transform="translate(28.121 11.633)">
              <rect id="Rectángulo_27977" data-name="Rectángulo 27977" width="9.178" height="66.566" transform="matrix(0.992, -0.13, 0.13, 0.992, 0, 1.194)" fill="#42444f"/>
              <path id="Trazado_92891" data-name="Trazado 92891" d="M436.477,282.331A1.541,1.541,0,1,1,434.748,281,1.541,1.541,0,0,1,436.477,282.331Z" transform="translate(-429.836 -277.638)" fill="#e6eaf0"/>
              <ellipse id="Elipse_3770" data-name="Elipse 3770" cx="1.541" cy="1.541" rx="1.541" ry="1.541" transform="translate(3.802 8.838) rotate(-18.79)" fill="#e6eaf0"/>
              <g id="Grupo_39639" data-name="Grupo 39639" transform="translate(8.079 51.384)">
                <rect id="Rectángulo_27978" data-name="Rectángulo 27978" width="6.433" height="1.104" transform="matrix(0.992, -0.13, 0.13, 0.992, 0, 0.837)" fill="#e6eaf0"/>
                <rect id="Rectángulo_27979" data-name="Rectángulo 27979" width="6.433" height="1.104" transform="translate(0.277 2.95) rotate(-7.476)" fill="#e6eaf0"/>
                <rect id="Rectángulo_27980" data-name="Rectángulo 27980" width="6.433" height="1.104" transform="translate(0.555 5.064) rotate(-7.475)" fill="#e6eaf0"/>
                <rect id="Rectángulo_27981" data-name="Rectángulo 27981" width="6.433" height="1.104" transform="translate(0.832 7.177) rotate(-7.475)" fill="#e6eaf0"/>
              </g>
            </g>
            <g id="Grupo_39643" data-name="Grupo 39643" transform="translate(14.593 0)">
              <rect id="Rectángulo_27982" data-name="Rectángulo 27982" width="12.889" height="78.292" transform="translate(0 0.646) rotate(-2.871)" fill="#f4a338"/>
              <ellipse id="Elipse_3771" data-name="Elipse 3771" cx="3.207" cy="3.207" rx="3.207" ry="3.207" transform="translate(5.042 33.255)" fill="#e6eaf0"/>
              <g id="Grupo_39641" data-name="Grupo 39641" transform="translate(3.391 22.805)">
                <rect id="Rectángulo_27983" data-name="Rectángulo 27983" width="8.378" height="1.094" transform="translate(0 0.42) rotate(-2.871)" fill="#e6eaf0"/>
                <rect id="Rectángulo_27984" data-name="Rectángulo 27984" width="8.378" height="1.094" transform="translate(0.107 2.554) rotate(-2.871)" fill="#e6eaf0"/>
              </g>
              <g id="Grupo_39642" data-name="Grupo 39642" transform="translate(4.845 51.798)">
                <rect id="Rectángulo_27985" data-name="Rectángulo 27985" width="8.378" height="1.094" transform="translate(0 0.42) rotate(-2.871)" fill="#e6eaf0"/>
                <rect id="Rectángulo_27986" data-name="Rectángulo 27986" width="8.378" height="1.094" transform="translate(0.107 2.554) rotate(-2.871)" fill="#e6eaf0"/>
              </g>
            </g>
            <g id="Grupo_39646" data-name="Grupo 39646" transform="translate(0 6.232)">
              <rect id="Rectángulo_27987" data-name="Rectángulo 27987" width="14.794" height="72.607" fill="#afafaf"/>
              <ellipse id="Elipse_3772" data-name="Elipse 3772" cx="4.501" cy="4.501" rx="4.501" ry="4.501" transform="translate(2.896 5.71)" fill="#e6eaf0"/>
              <g id="Grupo_39644" data-name="Grupo 39644" transform="translate(2.7 47.733)">
                <rect id="Rectángulo_27988" data-name="Rectángulo 27988" width="9.395" height="1.094" fill="#e6eaf0"/>
                <rect id="Rectángulo_27989" data-name="Rectángulo 27989" width="9.395" height="1.094" transform="translate(0 2.137)" fill="#e6eaf0"/>
              </g>
              <g id="Grupo_39645" data-name="Grupo 39645" transform="translate(2.7 64.087)">
                <rect id="Rectángulo_27990" data-name="Rectángulo 27990" width="9.395" height="1.094" fill="#e6eaf0"/>
                <rect id="Rectángulo_27991" data-name="Rectángulo 27991" width="9.395" height="1.094" transform="translate(0 2.137)" fill="#e6eaf0"/>
              </g>
            </g>
          </g>
          <g id="Grupo_39648" data-name="Grupo 39648" transform="translate(39.427 26.346)">
            <rect id="Rectángulo_27992" data-name="Rectángulo 27992" width="6.145" height="52.338" transform="translate(0 1.123) rotate(-10.53)" fill="#e6eaf0"/>
            <rect id="Rectángulo_27993" data-name="Rectángulo 27993" width="1.904" height="30.102" transform="translate(4.342 13.821) rotate(-10.53)" fill="#6f7082"/>
          </g>
        </g>
        <g id="Document" transform="translate(253.198 48.385)">
          <g id="Artwork_6" data-name="Artwork 6">
            <g id="Grupo_39656" data-name="Grupo 39656">
              <g id="Grupo_39652" data-name="Grupo 39652" transform="translate(10.342)">
                <path id="Trazado_92892" data-name="Trazado 92892" d="M440.468,188.166H408.359V133.529h23.872l8.237,8.236Z" transform="translate(-408.359 -133.529)" fill="#d8dbf7"/>
                <g id="Grupo_39650" data-name="Grupo 39650" transform="translate(4.59 7.079)">
                  <rect id="Rectángulo_27994" data-name="Rectángulo 27994" width="22.966" height="1.572" fill="#555866"/>
                  <rect id="Rectángulo_27995" data-name="Rectángulo 27995" width="22.966" height="1.572" transform="translate(0 3.906)" fill="#555866"/>
                  <rect id="Rectángulo_27996" data-name="Rectángulo 27996" width="22.966" height="1.572" transform="translate(0 7.812)" fill="#555866"/>
                  <rect id="Rectángulo_27997" data-name="Rectángulo 27997" width="22.966" height="1.572" transform="translate(0 11.718)" fill="#555866"/>
                  <rect id="Rectángulo_27998" data-name="Rectángulo 27998" width="22.966" height="1.572" transform="translate(0 15.624)" fill="#555866"/>
                  <rect id="Rectángulo_27999" data-name="Rectángulo 27999" width="13.518" height="1.572" transform="translate(0 19.53)" fill="#42444f"/>
                </g>
                <g id="Grupo_39651" data-name="Grupo 39651" transform="translate(4.59 34.467)">
                  <rect id="Rectángulo_28000" data-name="Rectángulo 28000" width="22.966" height="1.572" fill="#555866"/>
                  <rect id="Rectángulo_28001" data-name="Rectángulo 28001" width="22.966" height="1.572" transform="translate(0 3.906)" fill="#555866"/>
                  <rect id="Rectángulo_28002" data-name="Rectángulo 28002" width="22.966" height="1.572" transform="translate(0 7.812)" fill="#555866"/>
                  <rect id="Rectángulo_28003" data-name="Rectángulo 28003" width="13.518" height="1.572" transform="translate(0 11.718)" fill="#42444f"/>
                </g>
                <path id="Trazado_92893" data-name="Trazado 92893" d="M450.843,141.765h-8.237v-8.236h0l8.237,8.236Z" transform="translate(-418.734 -133.529)" fill="#27282b"/>
              </g>
              <g id="Grupo_39655" data-name="Grupo 39655" transform="translate(0 9.457)">
                <path id="Trazado_92894" data-name="Trazado 92894" d="M425.632,201.733H393.523V147.1H417.4l8.237,8.237Z" transform="translate(-393.523 -147.096)" fill="#e6eaf0"/>
                <g id="Grupo_39653" data-name="Grupo 39653" transform="translate(4.59 7.079)">
                  <rect id="Rectángulo_28004" data-name="Rectángulo 28004" width="22.966" height="1.572" fill="#42444f"/>
                  <rect id="Rectángulo_28005" data-name="Rectángulo 28005" width="22.966" height="1.572" transform="translate(0 3.906)" fill="#42444f"/>
                  <rect id="Rectángulo_28006" data-name="Rectángulo 28006" width="22.966" height="1.572" transform="translate(0 7.812)" fill="#42444f"/>
                  <rect id="Rectángulo_28007" data-name="Rectángulo 28007" width="22.966" height="1.572" transform="translate(0 11.718)" fill="#42444f"/>
                  <rect id="Rectángulo_28008" data-name="Rectángulo 28008" width="22.966" height="1.572" transform="translate(0 15.624)" fill="#42444f"/>
                  <rect id="Rectángulo_28009" data-name="Rectángulo 28009" width="13.518" height="1.572" transform="translate(0 19.53)" fill="#42444f"/>
                </g>
                <g id="Grupo_39654" data-name="Grupo 39654" transform="translate(4.59 34.467)">
                  <rect id="Rectángulo_28010" data-name="Rectángulo 28010" width="22.966" height="1.572" fill="#42444f"/>
                  <rect id="Rectángulo_28011" data-name="Rectángulo 28011" width="22.966" height="1.572" transform="translate(0 3.906)" fill="#42444f"/>
                  <rect id="Rectángulo_28012" data-name="Rectángulo 28012" width="22.966" height="1.572" transform="translate(0 7.812)" fill="#42444f"/>
                  <rect id="Rectángulo_28013" data-name="Rectángulo 28013" width="13.518" height="1.572" transform="translate(0 11.718)" fill="#42444f"/>
                </g>
                <path id="Trazado_92895" data-name="Trazado 92895" d="M436.007,155.333H427.77V147.1h0l8.237,8.237Z" transform="translate(-403.898 -147.096)" fill="#c5cbd6"/>
              </g>
            </g>
          </g>
        </g>
        <g id="cloud" transform="translate(85.486)">
          <g id="Grupo_39657" data-name="Grupo 39657">
            <path id="Trazado_92896" data-name="Trazado 92896" d="M263.018,111.49a8.254,8.254,0,0,1-8.255,8.255h-87.58a14.258,14.258,0,1,1,5.22-27.532c0-.093-.006-.19-.006-.284a27.816,27.816,0,0,1,55.143-5.2,17.666,17.666,0,0,1,26.422,15.344c0,.4-.013.8-.041,1.2a7.682,7.682,0,0,1,.842-.044A8.254,8.254,0,0,1,263.018,111.49Z" transform="translate(-152.923 -64.115)" fill="#ced0d6"/>
            <path id="Trazado_92897" data-name="Trazado 92897" d="M220.418,121.37H167.183a14.258,14.258,0,1,1,5.22-27.532c0-.093-.006-.19-.006-.284a27.8,27.8,0,0,1,13.786-24.02A32.476,32.476,0,0,1,199.307,71.3c5.4,2.04,10.19,6.236,11.932,11.739s-.121,12.232-5.022,15.289a12.566,12.566,0,0,1,8.453,1.629c2.576,1.568,4.312,4.746,3.533,7.658a7.7,7.7,0,0,1-3.415,4.293,22.257,22.257,0,0,1-4.975,2.162,6.288,6.288,0,0,1,2.072-.294,3.4,3.4,0,0,1,2.639.933,2.086,2.086,0,0,1,.231,2.636c1.067-1.054,2.689-.187,3.833.784A5.645,5.645,0,0,1,220.418,121.37Z" transform="translate(-152.923 -65.74)" fill="#e6eaf0"/>
          </g>
        </g>
        <g id="Grupo_39675" data-name="Grupo 39675" transform="translate(68.271 83.602)">
          <g id="Grupo_39674" data-name="Grupo 39674" transform="translate(0)" clip-path="url(#clip-path)">
            <g id="Website" transform="translate(22.704 6.672)">
              <g id="Grupo_39673" data-name="Grupo 39673">
                <rect id="Rectángulo_28014" data-name="Rectángulo 28014" width="96.474" height="140.162" rx="5.44" transform="translate(4.062 3.125)" fill="#35363b"/>
                <rect id="Rectángulo_28015" data-name="Rectángulo 28015" width="96.474" height="140.162" rx="5.44" transform="translate(0 0)" fill="#e6eaf0"/>
                <path id="Trazado_92898" data-name="Trazado 92898" d="M257.272,197.416v3.1H160.8v-3.1a3.793,3.793,0,0,1,3.792-3.793h88.889A3.793,3.793,0,0,1,257.272,197.416Z" transform="translate(-160.798 -193.623)" fill="#dbdfe6"/>
                <path id="Trazado_92899" data-name="Trazado 92899" d="M257.272,385.721v2.468a3.792,3.792,0,0,1-3.793,3.792H164.59a3.792,3.792,0,0,1-3.792-3.792v-2.468Z" transform="translate(-160.798 -251.818)" fill="#dbdfe6"/>
                <g id="Grupo_39658" data-name="Grupo 39658" transform="translate(82.415 2.576)">
                  <ellipse id="Elipse_3773" data-name="Elipse 3773" cx="1.145" cy="1.145" rx="1.145" ry="1.145" transform="translate(8.009)" fill="#34909d"/>
                  <ellipse id="Elipse_3774" data-name="Elipse 3774" cx="1.145" cy="1.145" rx="1.145" ry="1.145" transform="translate(4.004)" fill="#e76700"/>
                  <ellipse id="Elipse_3775" data-name="Elipse 3775" cx="1.145" cy="1.145" rx="1.145" ry="1.145" fill="#ba0034"/>
                </g>
                <rect id="Rectángulo_28016" data-name="Rectángulo 28016" width="93.533" height="37.445" transform="translate(1.471 8.305)" fill="#6f7082"/>
                <rect id="Rectángulo_28017" data-name="Rectángulo 28017" width="25.762" height="22.366" transform="translate(4.16 49.619)" fill="#fff"/>
                <rect id="Rectángulo_28018" data-name="Rectángulo 28018" width="60.314" height="1.699" transform="translate(32.4 49.619)" fill="#fff"/>
                <rect id="Rectángulo_28019" data-name="Rectángulo 28019" width="60.314" height="1.699" transform="translate(32.4 53.771)" fill="#fff"/>
                <rect id="Rectángulo_28020" data-name="Rectángulo 28020" width="60.314" height="1.699" transform="translate(32.4 57.923)" fill="#fff"/>
                <rect id="Rectángulo_28021" data-name="Rectángulo 28021" width="60.314" height="1.699" transform="translate(32.4 62.074)" fill="#fff"/>
                <g id="Grupo_39659" data-name="Grupo 39659" transform="translate(75.118 68.217)">
                  <path id="Trazado_92900" data-name="Trazado 92900" d="M284.275,295.255H270.447a1.889,1.889,0,0,1-1.884-1.884h0a1.89,1.89,0,0,1,1.884-1.884h13.828a1.89,1.89,0,0,1,1.884,1.884h0A1.889,1.889,0,0,1,284.275,295.255Z" transform="translate(-268.563 -291.487)" fill="#12263f"/>
                  <path id="Trazado_92901" data-name="Trazado 92901" d="M282.573,294.67h-6.218a.85.85,0,0,1-.85-.85h0a.85.85,0,0,1,.85-.85h6.218a.85.85,0,0,1,.85.85h0A.85.85,0,0,1,282.573,294.67Z" transform="translate(-270.666 -291.937)" fill="#fff"/>
                </g>
                <g id="Grupo_39667" data-name="Grupo 39667" transform="translate(4.16 79.628)">
                  <g id="Grupo_39660" data-name="Grupo 39660">
                    <rect id="Rectángulo_28022" data-name="Rectángulo 28022" width="9.494" height="9.494" fill="#fff"/>
                    <rect id="Rectángulo_28023" data-name="Rectángulo 28023" width="9.494" height="0.975" transform="translate(0 10.456)" fill="#fff"/>
                    <rect id="Rectángulo_28024" data-name="Rectángulo 28024" width="9.494" height="0.975" transform="translate(0 12.392)" fill="#fff"/>
                    <rect id="Rectángulo_28025" data-name="Rectángulo 28025" width="6.3" height="0.975" transform="translate(0 14.328)" fill="#fff"/>
                  </g>
                  <g id="Grupo_39661" data-name="Grupo 39661" transform="translate(13.177)">
                    <rect id="Rectángulo_28026" data-name="Rectángulo 28026" width="9.494" height="9.494" fill="#fff"/>
                    <rect id="Rectángulo_28027" data-name="Rectángulo 28027" width="9.494" height="0.975" transform="translate(0 10.456)" fill="#fff"/>
                    <rect id="Rectángulo_28028" data-name="Rectángulo 28028" width="9.494" height="0.975" transform="translate(0 12.392)" fill="#fff"/>
                    <rect id="Rectángulo_28029" data-name="Rectángulo 28029" width="6.3" height="0.975" transform="translate(0 14.328)" fill="#fff"/>
                  </g>
                  <g id="Grupo_39662" data-name="Grupo 39662" transform="translate(26.353)">
                    <rect id="Rectángulo_28030" data-name="Rectángulo 28030" width="9.494" height="9.494" fill="#fff"/>
                    <rect id="Rectángulo_28031" data-name="Rectángulo 28031" width="9.494" height="0.975" transform="translate(0 10.456)" fill="#fff"/>
                    <rect id="Rectángulo_28032" data-name="Rectángulo 28032" width="9.494" height="0.975" transform="translate(0 12.392)" fill="#fff"/>
                    <rect id="Rectángulo_28033" data-name="Rectángulo 28033" width="6.3" height="0.975" transform="translate(0 14.328)" fill="#fff"/>
                  </g>
                  <g id="Grupo_39663" data-name="Grupo 39663" transform="translate(39.53)">
                    <rect id="Rectángulo_28034" data-name="Rectángulo 28034" width="9.494" height="9.494" fill="#fff"/>
                    <rect id="Rectángulo_28035" data-name="Rectángulo 28035" width="9.494" height="0.975" transform="translate(0 10.456)" fill="#fff"/>
                    <rect id="Rectángulo_28036" data-name="Rectángulo 28036" width="9.494" height="0.975" transform="translate(0 12.392)" fill="#fff"/>
                    <rect id="Rectángulo_28037" data-name="Rectángulo 28037" width="6.3" height="0.975" transform="translate(0 14.328)" fill="#fff"/>
                  </g>
                  <g id="Grupo_39664" data-name="Grupo 39664" transform="translate(52.707)">
                    <rect id="Rectángulo_28038" data-name="Rectángulo 28038" width="9.494" height="9.494" fill="#fff"/>
                    <rect id="Rectángulo_28039" data-name="Rectángulo 28039" width="9.494" height="0.975" transform="translate(0 10.456)" fill="#fff"/>
                    <rect id="Rectángulo_28040" data-name="Rectángulo 28040" width="9.494" height="0.975" transform="translate(0 12.392)" fill="#fff"/>
                    <rect id="Rectángulo_28041" data-name="Rectángulo 28041" width="6.3" height="0.975" transform="translate(0 14.328)" fill="#fff"/>
                  </g>
                  <g id="Grupo_39665" data-name="Grupo 39665" transform="translate(65.883)">
                    <rect id="Rectángulo_28042" data-name="Rectángulo 28042" width="9.494" height="9.494" fill="#fff"/>
                    <rect id="Rectángulo_28043" data-name="Rectángulo 28043" width="9.494" height="0.975" transform="translate(0 10.456)" fill="#fff"/>
                    <rect id="Rectángulo_28044" data-name="Rectángulo 28044" width="9.494" height="0.975" transform="translate(0 12.392)" fill="#fff"/>
                    <rect id="Rectángulo_28045" data-name="Rectángulo 28045" width="6.3" height="0.975" transform="translate(0 14.328)" fill="#fff"/>
                  </g>
                  <g id="Grupo_39666" data-name="Grupo 39666" transform="translate(79.06)">
                    <rect id="Rectángulo_28046" data-name="Rectángulo 28046" width="9.494" height="9.494" fill="#fff"/>
                    <rect id="Rectángulo_28047" data-name="Rectángulo 28047" width="9.494" height="0.975" transform="translate(0 10.456)" fill="#fff"/>
                    <rect id="Rectángulo_28048" data-name="Rectángulo 28048" width="9.494" height="0.975" transform="translate(0 12.392)" fill="#fff"/>
                    <rect id="Rectángulo_28049" data-name="Rectángulo 28049" width="6.3" height="0.975" transform="translate(0 14.328)" fill="#fff"/>
                  </g>
                </g>
                <g id="Grupo_39669" data-name="Grupo 39669" transform="translate(4.16 23.92)">
                  <g id="Grupo_39668" data-name="Grupo 39668">
                    <path id="Trazado_92902" data-name="Trazado 92902" d="M166.766,231.57,170.4,235.2v-7.263Z" transform="translate(-166.766 -227.939)" fill="#fff"/>
                  </g>
                  <path id="Trazado_92903" data-name="Trazado 92903" d="M288.6,227.939V235.2l3.632-3.632Z" transform="translate(-203.674 -227.939)" fill="#fff"/>
                </g>
                <g id="Grupo_39670" data-name="Grupo 39670" transform="translate(41.859 43.675)">
                  <path id="Trazado_92904" data-name="Trazado 92904" d="M222.169,256.94a.66.66,0,1,1-.66-.66A.66.66,0,0,1,222.169,256.94Z" transform="translate(-220.849 -256.28)" fill="#fff"/>
                  <ellipse id="Elipse_3776" data-name="Elipse 3776" cx="0.66" cy="0.66" rx="0.66" ry="0.66" transform="translate(2.859)" fill="#42444f"/>
                  <path id="Trazado_92905" data-name="Trazado 92905" d="M230.373,256.94a.66.66,0,1,1-.66-.66A.66.66,0,0,1,230.373,256.94Z" transform="translate(-223.334 -256.28)" fill="#fff"/>
                  <ellipse id="Elipse_3777" data-name="Elipse 3777" cx="0.66" cy="0.66" rx="0.66" ry="0.66" transform="translate(8.578)" fill="#fff"/>
                  <path id="Trazado_92906" data-name="Trazado 92906" d="M238.576,256.94a.66.66,0,1,1-.66-.66A.66.66,0,0,1,238.576,256.94Z" transform="translate(-225.819 -256.28)" fill="#fff"/>
                </g>
                <line id="Línea_308" data-name="Línea 308" x2="88.554" transform="translate(4.16 99.493)" fill="none" stroke="#fff" stroke-miterlimit="10" stroke-width="1.843"/>
                <line id="Línea_309" data-name="Línea 309" x2="88.554" transform="translate(4.16 75.806)" fill="none" stroke="#fff" stroke-miterlimit="10" stroke-width="1.843"/>
                <g id="Grupo_39671" data-name="Grupo 39671" transform="translate(4.16 104.431)">
                  <rect id="Rectángulo_28050" data-name="Rectángulo 28050" width="40.558" height="9.547" fill="#fff"/>
                  <rect id="Rectángulo_28051" data-name="Rectángulo 28051" width="41.618" height="9.547" transform="translate(46.936)" fill="#fff"/>
                </g>
                <g id="Grupo_39672" data-name="Grupo 39672" transform="translate(4.16 116.433)">
                  <rect id="Rectángulo_28052" data-name="Rectángulo 28052" width="40.558" height="9.547" fill="#fff"/>
                  <rect id="Rectángulo_28053" data-name="Rectángulo 28053" width="41.618" height="9.547" transform="translate(46.936)" fill="#fff"/>
                </g>
              </g>
            </g>
          </g>
        </g>
        <g id="Grupo_39679" data-name="Grupo 39679" transform="translate(0 39.505)">
          <g id="Grupo_39676" data-name="Grupo 39676" transform="translate(12.273 13.046)">
            <path id="Trazado_92907" data-name="Trazado 92907" d="M96.673,140.935V169.9a5.684,5.684,0,0,1-2.829,4.907l-25.082,14.48a5.668,5.668,0,0,1-5.664,0L38.021,174.8a5.673,5.673,0,0,1-2.835-4.907v-28.96a5.665,5.665,0,0,1,2.835-4.907L63.1,121.548a5.665,5.665,0,0,1,5.664,0l25.082,14.48A5.671,5.671,0,0,1,96.673,140.935Z" transform="translate(-32.285 -120.789)" fill="#00223d"/>
            <g id="Ribbon" transform="translate(2.901 36.444)">
              <path id="Trazado_92908" data-name="Trazado 92908" d="M96.673,182.354v12.663a5.581,5.581,0,0,1-.683,2.693H35.869a5.655,5.655,0,0,1-.683-2.693V182.354Z" transform="translate(-35.186 -182.354)" fill="#202124"/>
            </g>
            <g id="Ribbon-2" data-name="Ribbon" transform="translate(0 35.058)">
              <path id="Trazado_92909" data-name="Trazado 92909" d="M97.438,180.014H30.285l2.06,7.678-2.06,7.678H97.438l-1.957-7.678Z" transform="translate(-30.285 -180.014)" fill="#1565c0"/>
            </g>
            <text id="UX_experiencie" data-name="UX experiencie" transform="translate(32.133 44.791)" fill="#fff" font-size="6" font-family="Montserrat-BoldItalic, Montserrat" font-weight="700" font-style="italic" letter-spacing="0.05em"><tspan x="-25.566" y="0">UX experiencie</tspan></text>
          </g>
          <g id="gear" transform="translate(33.997 23.973)">
            <g id="Grupo_39678" data-name="Grupo 39678" transform="translate(0 0)">
              <g id="gear-2" data-name="gear">
                <path id="Trazado_92912" data-name="Trazado 92912" d="M83.127,148.909a8.178,8.178,0,0,0,0-3.036H80.489a5.574,5.574,0,0,0-.5-1.2l1.863-1.864a8.147,8.147,0,0,0-2.146-2.148l-1.865,1.865a5.514,5.514,0,0,0-1.2-.5V139.39a8.177,8.177,0,0,0-3.036,0v2.638a5.534,5.534,0,0,0-1.2.5l-1.865-1.865a8.125,8.125,0,0,0-2.145,2.148l1.863,1.864a5.484,5.484,0,0,0-.5,1.2H67.126a8.178,8.178,0,0,0,0,3.036h2.638a5.48,5.48,0,0,0,.5,1.2L68.4,151.973a8.123,8.123,0,0,0,2.145,2.148l1.865-1.865a5.6,5.6,0,0,0,1.2.5v2.637a8.178,8.178,0,0,0,3.036,0v-2.637a5.579,5.579,0,0,0,1.2-.5l1.865,1.865a8.113,8.113,0,0,0,2.146-2.146l-1.863-1.865a5.57,5.57,0,0,0,.5-1.2Zm-8,.125a1.643,1.643,0,1,1,1.643-1.643A1.643,1.643,0,0,1,75.126,149.034Z" transform="translate(-66.984 -139.248)" fill="#fff"/>
              </g>
              <g id="gear-3" data-name="gear" transform="translate(13.974 9.714)">
                <path id="Trazado_92913" data-name="Trazado 92913" d="M100.4,161.528a4.964,4.964,0,0,0,0-1.845H98.8a3.428,3.428,0,0,0-.3-.73l1.132-1.132a4.95,4.95,0,0,0-1.3-1.3L97.19,157.65a3.341,3.341,0,0,0-.73-.3v-1.6a4.964,4.964,0,0,0-1.845,0v1.6a3.365,3.365,0,0,0-.73.3l-1.133-1.133a4.932,4.932,0,0,0-1.3,1.3l1.132,1.132a3.368,3.368,0,0,0-.3.73h-1.6a4.964,4.964,0,0,0,0,1.845h1.6a3.368,3.368,0,0,0,.3.73l-1.132,1.132a4.933,4.933,0,0,0,1.3,1.3l1.133-1.133a3.427,3.427,0,0,0,.73.3v1.6a5,5,0,0,0,1.845,0v-1.6a3.4,3.4,0,0,0,.73-.3l1.134,1.133a4.939,4.939,0,0,0,1.3-1.3L98.5,162.258a3.428,3.428,0,0,0,.3-.73Zm-4.861.076a1,1,0,1,1,1-1A1,1,0,0,1,95.539,161.6Z" transform="translate(-90.591 -155.658)" fill="#fff"/>
              </g>
            </g>
          </g>
        </g>
        <g id="chat" transform="translate(218.021 29.479)">
          <g id="Grupo_39680" data-name="Grupo 39680">
            <path id="Trazado_92914" data-name="Trazado 92914" d="M362.228,106.406H349.711a6.652,6.652,0,0,0-.381,13.293l-4.113,4.891,7.753-4.879h9.258a6.652,6.652,0,1,0,0-13.3Z" transform="translate(-343.059 -106.406)" fill="#12263f"/>
            <path id="Trazado_92915" data-name="Trazado 92915" d="M352.219,112.867a2.163,2.163,0,1,0,2.163,2.163A2.163,2.163,0,0,0,352.219,112.867Zm5.871,0a2.163,2.163,0,1,0,2.163,2.163A2.163,2.163,0,0,0,358.09,112.867Zm5.87,0a2.163,2.163,0,1,0,2.163,2.163A2.163,2.163,0,0,0,363.959,112.867Z" transform="translate(-345.179 -108.363)" fill="#fff"/>
          </g>
        </g>
        <line id="Línea_310" data-name="Línea 310" y2="28.729" transform="translate(142.962 59.007)" fill="none" stroke="#6f7082" stroke-linecap="round" stroke-miterlimit="10" stroke-width="3.144" stroke-dasharray="0 5.24"/>
        <line id="Línea_311" data-name="Línea 311" y1="24.224" transform="translate(271.473 112.341)" fill="none" stroke="#6f7082" stroke-miterlimit="10" stroke-width="1.153" stroke-dasharray="2.096 1.048"/>
        <line id="Línea_312" data-name="Línea 312" x1="69.732" transform="translate(193.704 52.551)" fill="none" stroke="#6f7082" stroke-miterlimit="10" stroke-width="1.153" stroke-dasharray="2.096 1.048"/>
        <line id="Línea_313" data-name="Línea 313" y1="35.436" transform="translate(31.297 117.07)" fill="none" stroke="#6f7082" stroke-miterlimit="10" stroke-width="1.153" stroke-dasharray="2.096 1.048"/>
        <path id="Trazado_92916" data-name="Trazado 92916" d="M89.547,219.25l16.5,16.5A8.707,8.707,0,0,0,112.2,238.3h26.958" transform="translate(-48.238 -111.112)" fill="none" stroke="#6f7082" stroke-miterlimit="10" stroke-width="1.153" stroke-dasharray="2.096 1.048"/>
        <g id="Artwork_4" data-name="Artwork 4" transform="translate(203.617 102.296)">
          <g id="Grupo_39691" data-name="Grupo 39691">
            <rect id="Rectángulo_28101" data-name="Rectángulo 28101" width="43.768" height="57.017" rx="4.306" fill="#e6eaf0"/>
            <g id="Grupo_39690" data-name="Grupo 39690" transform="translate(28.491 2.28)">
              <path id="Trazado_92919" data-name="Trazado 92919" d="M379.258,215.663a1.523,1.523,0,1,1-1.523-1.522A1.523,1.523,0,0,1,379.258,215.663Z" transform="translate(-367.189 -214.141)" fill="#37a3a5"/>
              <path id="Trazado_92920" data-name="Trazado 92920" d="M372.785,215.663a1.522,1.522,0,1,1-1.522-1.522A1.522,1.522,0,0,1,372.785,215.663Z" transform="translate(-365.228 -214.141)" fill="#f8b85e"/>
              <path id="Trazado_92921" data-name="Trazado 92921" d="M366.312,215.663a1.522,1.522,0,1,1-1.522-1.522A1.523,1.523,0,0,1,366.312,215.663Z" transform="translate(-363.267 -214.141)" fill="#ba0034"/>
            </g>
          </g>
        </g>
        <path id="Trazado_92922" data-name="Trazado 92922" d="M334.447,285.152v29.77H290.68v-29.77a3,3,0,0,1,3-3h37.762A3,3,0,0,1,334.447,285.152Z" transform="translate(-109.17 -130.167)" fill="#35363b" opacity="0.25" style="mix-blend-mode: multiply;isolation: isolate"/>
        <g id="Artwork_4-2" data-name="Artwork 4" transform="translate(193.752 58.66)">
          <g id="Grupo_39693" data-name="Grupo 39693">
            <rect id="Rectángulo_28102" data-name="Rectángulo 28102" width="31.883" height="39.603" rx="4.306" fill="#6f7082"/>
            <g id="Grupo_39692" data-name="Grupo 39692" transform="translate(16.606 2.28)">
              <path id="Trazado_92923" data-name="Trazado 92923" d="M348.056,153.062a1.523,1.523,0,1,1-1.523-1.522A1.523,1.523,0,0,1,348.056,153.062Z" transform="translate(-335.987 -151.54)" fill="#37a3a5"/>
              <path id="Trazado_92924" data-name="Trazado 92924" d="M341.583,153.062a1.522,1.522,0,1,1-1.522-1.522A1.523,1.523,0,0,1,341.583,153.062Z" transform="translate(-334.026 -151.54)" fill="#f8b85e"/>
              <path id="Trazado_92925" data-name="Trazado 92925" d="M335.11,153.062a1.522,1.522,0,1,1-1.522-1.522A1.523,1.523,0,0,1,335.11,153.062Z" transform="translate(-332.065 -151.54)" fill="#ba0034"/>
            </g>
          </g>
        </g>
        <g id="Artwork_4-3" data-name="Artwork 4" transform="translate(179.453 153.312)">
          <g id="Grupo_39695" data-name="Grupo 39695">
            <rect id="Rectángulo_28103" data-name="Rectángulo 28103" width="43.768" height="39.603" rx="4.306" fill="#d9dde3"/>
            <g id="Grupo_39694" data-name="Grupo 39694" transform="translate(28.491 2.28)">
              <path id="Trazado_92926" data-name="Trazado 92926" d="M344.593,288.85a1.522,1.522,0,1,1-1.522-1.522A1.522,1.522,0,0,1,344.593,288.85Z" transform="translate(-332.524 -287.328)" fill="#37a3a5"/>
              <path id="Trazado_92927" data-name="Trazado 92927" d="M338.12,288.85a1.522,1.522,0,1,1-1.522-1.522A1.522,1.522,0,0,1,338.12,288.85Z" transform="translate(-330.563 -287.328)" fill="#f8b85e"/>
              <path id="Trazado_92928" data-name="Trazado 92928" d="M331.647,288.85a1.522,1.522,0,1,1-1.522-1.522A1.522,1.522,0,0,1,331.647,288.85Z" transform="translate(-328.602 -287.328)" fill="#ba0034"/>
            </g>
          </g>
        </g>
        <g id="Grupo_39696" data-name="Grupo 39696" transform="translate(196.342 66.294)">
          <g id="text" transform="translate(0 15.537)">
            <path id="Trazado_92929" data-name="Trazado 92929" d="M314.9,186.848h-2.939v1.271H314.9Zm10.609,3.94h8.031v-1.273h-8.031Zm8.029-9.278h-18.78v1.271h18.78Zm-21.577,11.946h7.29v-1.272h-7.29Zm5.606-9.277h-5.606v1.271h5.606Zm-1.765,3.94h11.369v-1.271H315.8Zm8.188,1.4h-12.03v1.273h12.03Zm4.083-1.4h10.04v-1.271H328.07Zm-8.987-2.669H338.11v-1.271H319.083Zm15.22-3.94v1.271h3.807V181.51Zm.754,9.278h3.053v-1.273h-3.053Zm-14.29,2.668h7.509v-1.272h-7.509Zm8.413,0H334.9v-1.272H329.18Z" transform="translate(-311.958 -181.51)" fill="#e6eaf0"/>
          </g>
          <rect id="Rectángulo_28104" data-name="Rectángulo 28104" width="25.899" height="13.181" transform="translate(0.374)" fill="#e6eaf0"/>
        </g>
        <g id="Grupo_39697" data-name="Grupo 39697" transform="translate(208.815 114.102)">
          <g id="text-2" data-name="text" transform="translate(0 19.856)">
            <path id="Trazado_92930" data-name="Trazado 92930" d="M333.607,263.113h-3.756v1.624h3.756Zm13.559,5.035h10.265v-1.626H347.166Zm10.261-11.857h-24v1.624h24Zm-27.576,15.268h9.316v-1.626h-9.316Zm7.165-11.856h-7.165v1.624h7.165Zm-2.256,5.035H349.29v-1.624H334.76Zm10.465,1.785H329.851v1.626h15.374Zm5.217-1.785h12.831v-1.624H350.443Zm-11.485-3.411h24.316V259.7H338.957Zm19.451-5.036v1.624h4.865v-1.624Zm.963,11.857h3.9v-1.626h-3.9Zm-18.264,3.411h9.6v-1.626h-9.6Zm10.753,0h7.309v-1.626h-7.309Z" transform="translate(-329.851 -256.291)" fill="#42444f"/>
          </g>
          <rect id="Rectángulo_28105" data-name="Rectángulo 28105" width="33.099" height="16.845" transform="translate(0.478)" fill="#42444f"/>
        </g>
        <g id="Grupo_39703" data-name="Grupo 39703" transform="translate(184.325 165.383)">
          <g id="gear-4" data-name="gear" transform="translate(0 0.656)">
            <g id="Grupo_39698" data-name="Grupo 39698">
              <g id="gear-5" data-name="gear">
                <path id="Trazado_92931" data-name="Trazado 92931" d="M310.562,311.8a8.028,8.028,0,0,0,0-2.979h-2.589a5.45,5.45,0,0,0-.487-1.179l1.829-1.829a8,8,0,0,0-2.107-2.108l-1.831,1.831a5.431,5.431,0,0,0-1.179-.488v-2.59a8.032,8.032,0,0,0-2.98,0v2.59a5.455,5.455,0,0,0-1.179.488l-1.83-1.831a7.968,7.968,0,0,0-2.105,2.108l1.829,1.829a5.425,5.425,0,0,0-.488,1.179h-2.588a8.03,8.03,0,0,0,0,2.979h2.588a5.437,5.437,0,0,0,.488,1.179l-1.829,1.829a7.979,7.979,0,0,0,2.105,2.108l1.83-1.83a5.528,5.528,0,0,0,1.179.489v2.589a8.032,8.032,0,0,0,2.98,0v-2.589a5.5,5.5,0,0,0,1.179-.489l1.831,1.83a7.988,7.988,0,0,0,2.107-2.107l-1.829-1.83a5.463,5.463,0,0,0,.487-1.179Zm-7.852.123a1.613,1.613,0,1,1,1.612-1.612A1.612,1.612,0,0,1,302.71,311.92Z" transform="translate(-294.718 -302.315)" fill="#6f7082"/>
              </g>
            </g>
          </g>
          <g id="Data_server" data-name="Data server" transform="translate(18.777)">
            <g id="Grupo_39702" data-name="Grupo 39702">
              <g id="Grupo_39699" data-name="Grupo 39699" transform="translate(0 11.038)">
                <path id="Trazado_92932" data-name="Trazado 92932" d="M321.655,319.251v3.911c0,.786,3.5,1.423,7.827,1.423s7.827-.638,7.827-1.423v-3.911Z" transform="translate(-321.655 -317.828)" fill="#fff"/>
                <ellipse id="Elipse_3779" data-name="Elipse 3779" cx="7.827" cy="1.423" rx="7.827" ry="1.423" fill="#6f7082"/>
              </g>
              <g id="Grupo_39700" data-name="Grupo 39700" transform="translate(0 5.519)">
                <path id="Trazado_92933" data-name="Trazado 92933" d="M321.655,311.334v3.91c0,.786,3.5,1.423,7.827,1.423s7.827-.637,7.827-1.423v-3.91Z" transform="translate(-321.655 -309.911)" fill="#fff"/>
                <ellipse id="Elipse_3780" data-name="Elipse 3780" cx="7.827" cy="1.423" rx="7.827" ry="1.423" fill="#6f7082"/>
              </g>
              <g id="Grupo_39701" data-name="Grupo 39701">
                <path id="Trazado_92934" data-name="Trazado 92934" d="M321.655,303.416v3.91c0,.786,3.5,1.423,7.827,1.423s7.827-.637,7.827-1.423v-3.91Z" transform="translate(-321.655 -301.993)" fill="#fff"/>
                <ellipse id="Elipse_3781" data-name="Elipse 3781" cx="7.827" cy="1.423" rx="7.827" ry="1.423" fill="#6f7082"/>
              </g>
            </g>
          </g>
        </g>
        <g id="Grupo_39711" data-name="Grupo 39711" transform="translate(20.92 152.706)">
          <g id="Grupo_39704" data-name="Grupo 39704">
            <rect id="Rectángulo_28106" data-name="Rectángulo 28106" width="42.965" height="77.653" rx="5" fill="url(#linear-gradient)"/>
            <path id="Trazado_92935" data-name="Trazado 92935" d="M93.432,288.525H83.8a.937.937,0,0,1-.935-.934h0a.937.937,0,0,1,.935-.935h9.631a.937.937,0,0,1,.934.935h0A.937.937,0,0,1,93.432,288.525Z" transform="translate(-67.134 -284.239)" fill="#42444f"/>
            <path id="Trazado_92936" data-name="Trazado 92936" d="M92.268,387.688a2.038,2.038,0,1,1-2.037-2.037A2.038,2.038,0,0,1,92.268,387.688Z" transform="translate(-68.748 -314.228)" fill="#42444f"/>
          </g>
          <rect id="Rectángulo_28107" data-name="Rectángulo 28107" width="36.896" height="56.928" transform="translate(3.034 9.655)" fill="#00223d"/>
          <g id="login" transform="translate(7.327 41.543)">
            <g id="Grupo_39707" data-name="Grupo 39707">
              <g id="Grupo_39705" data-name="Grupo 39705">
                <path id="Trazado_92937" data-name="Trazado 92937" d="M99.119,343.885v2.594a1.1,1.1,0,0,1-1.1,1.1H71.908a1,1,0,0,1-.157-.013,1.094,1.094,0,0,1-.943-1.087v-2.594a1.1,1.1,0,0,1,1.1-1.1H98.024a1.1,1.1,0,0,1,1.082.939A.931.931,0,0,1,99.119,343.885Z" transform="translate(-70.808 -342.785)" fill="#d7dbe0"/>
                <path id="Trazado_92938" data-name="Trazado 92938" d="M99.523,344.287v2.594a1.1,1.1,0,0,1-1.1,1.1H72.312a1,1,0,0,1-.157-.013.99.99,0,0,1-.013-.157v-2.6a1.1,1.1,0,0,1,1.1-1.1H99.354a.984.984,0,0,1,.156.013A.93.93,0,0,1,99.523,344.287Z" transform="translate(-71.212 -343.187)" fill="#fff"/>
              </g>
              <g id="Grupo_39706" data-name="Grupo 39706" transform="translate(0 6.708)">
                <path id="Trazado_92939" data-name="Trazado 92939" d="M99.119,353.509V356.1a1.1,1.1,0,0,1-1.1,1.1H71.908a.993.993,0,0,1-.157-.013,1.094,1.094,0,0,1-.943-1.087v-2.594a1.1,1.1,0,0,1,1.1-1.1H98.024a1.1,1.1,0,0,1,1.082.939A.932.932,0,0,1,99.119,353.509Z" transform="translate(-70.808 -352.409)" fill="#d7dbe0"/>
                <path id="Trazado_92940" data-name="Trazado 92940" d="M99.523,353.911v2.594a1.1,1.1,0,0,1-1.1,1.1H72.312a.992.992,0,0,1-.157-.013.991.991,0,0,1-.013-.157v-2.6a1.1,1.1,0,0,1,1.1-1.1H99.354a.984.984,0,0,1,.156.013A.93.93,0,0,1,99.523,353.911Z" transform="translate(-71.212 -352.811)" fill="#fff"/>
              </g>
            </g>
            <g id="Grupo_39708" data-name="Grupo 39708" transform="translate(8.211 2.381)">
              <ellipse id="Elipse_3782" data-name="Elipse 3782" cx="0.549" cy="0.549" rx="0.549" ry="0.549" transform="translate(0 0)" fill="#6f7082"/>
              <path id="Trazado_92941" data-name="Trazado 92941" d="M87.946,346.75a.549.549,0,1,1-.549-.549A.549.549,0,0,1,87.946,346.75Z" transform="translate(-83.878 -346.201)" fill="#6f7082"/>
              <path id="Trazado_92942" data-name="Trazado 92942" d="M92.2,346.75a.549.549,0,1,1-.549-.549A.549.549,0,0,1,92.2,346.75Z" transform="translate(-85.168 -346.201)" fill="#6f7082"/>
              <ellipse id="Elipse_3783" data-name="Elipse 3783" cx="0.549" cy="0.549" rx="0.549" ry="0.549" transform="translate(8.907 0)" fill="#6f7082"/>
              <path id="Trazado_92943" data-name="Trazado 92943" d="M100.723,346.75a.549.549,0,1,1-.549-.549A.549.549,0,0,1,100.723,346.75Z" transform="translate(-87.749 -346.201)" fill="#6f7082"/>
            </g>
            <g id="Grupo_39709" data-name="Grupo 39709" transform="translate(8.211 8.794)">
              <path id="Trazado_92944" data-name="Trazado 92944" d="M83.687,355.95a.549.549,0,1,1-.549-.549A.549.549,0,0,1,83.687,355.95Z" transform="translate(-82.588 -355.401)" fill="#6f7082"/>
              <path id="Trazado_92945" data-name="Trazado 92945" d="M87.946,355.95a.549.549,0,1,1-.549-.549A.549.549,0,0,1,87.946,355.95Z" transform="translate(-83.878 -355.401)" fill="#6f7082"/>
              <path id="Trazado_92946" data-name="Trazado 92946" d="M92.2,355.95a.549.549,0,1,1-.549-.549A.549.549,0,0,1,92.2,355.95Z" transform="translate(-85.168 -355.401)" fill="#6f7082"/>
              <path id="Trazado_92947" data-name="Trazado 92947" d="M96.464,355.95a.549.549,0,1,1-.549-.549A.549.549,0,0,1,96.464,355.95Z" transform="translate(-86.459 -355.401)" fill="#6f7082"/>
              <path id="Trazado_92948" data-name="Trazado 92948" d="M100.723,355.95a.549.549,0,1,1-.549-.549A.549.549,0,0,1,100.723,355.95Z" transform="translate(-87.749 -355.401)" fill="#6f7082"/>
            </g>
          </g>
          <g id="user_man_account" data-name="user man account" transform="translate(12.028 17.116)">
            <g id="Grupo_39710" data-name="Grupo 39710">
              <path id="Trazado_92949" data-name="Trazado 92949" d="M96.461,317.2a9.454,9.454,0,0,1-16.86,5.877c-.05-.063-.1-.128-.148-.194A9.455,9.455,0,1,1,96.461,317.2Z" transform="translate(-77.553 -307.742)" fill="#42444f"/>
              <path id="Trazado_92950" data-name="Trazado 92950" d="M95.3,324.541a9.456,9.456,0,0,1-14.812,0,7.614,7.614,0,0,1,6.2-5.768,3.211,3.211,0,1,1,2.421,0A7.614,7.614,0,0,1,95.3,324.541Z" transform="translate(-78.443 -309.21)" fill="#e6eaf0"/>
            </g>
          </g>
        </g>
        <g id="transform" transform="translate(91.626 134.588)">
          <g id="Grupo_39716" data-name="Grupo 39716">
            <rect id="Rectángulo_28108" data-name="Rectángulo 28108" width="31.805" height="31.805" transform="translate(0.902 0.902)" fill="none" stroke="#42444f" stroke-linecap="round" stroke-miterlimit="10" stroke-width="1.663" stroke-dasharray="0 3.327"/>
            <g id="Grupo_39715" data-name="Grupo 39715">
              <g id="Grupo_39712" data-name="Grupo 39712">
                <rect id="Rectángulo_28109" data-name="Rectángulo 28109" width="1.804" height="1.804" fill="#42444f"/>
                <rect id="Rectángulo_28110" data-name="Rectángulo 28110" width="1.804" height="1.804" transform="translate(15.903)" fill="#42444f"/>
                <rect id="Rectángulo_28111" data-name="Rectángulo 28111" width="1.804" height="1.804" transform="translate(31.805)" fill="#42444f"/>
              </g>
              <g id="Grupo_39713" data-name="Grupo 39713" transform="translate(0 15.903)">
                <rect id="Rectángulo_28112" data-name="Rectángulo 28112" width="1.804" height="1.804" fill="#42444f"/>
                <rect id="Rectángulo_28113" data-name="Rectángulo 28113" width="1.804" height="1.804" transform="translate(31.805)" fill="#42444f"/>
              </g>
              <g id="Grupo_39714" data-name="Grupo 39714" transform="translate(0 31.805)">
                <rect id="Rectángulo_28114" data-name="Rectángulo 28114" width="1.804" height="1.804" fill="#42444f"/>
                <rect id="Rectángulo_28115" data-name="Rectángulo 28115" width="1.804" height="1.804" transform="translate(15.903)" fill="#42444f"/>
                <rect id="Rectángulo_28116" data-name="Rectángulo 28116" width="1.804" height="1.804" transform="translate(31.805)" fill="#42444f"/>
              </g>
            </g>
          </g>
        </g>
      </g>
      <ellipse id="Elipse_3784" data-name="Elipse 3784" cx="2.773" cy="2.773" rx="2.773" ry="2.773" transform="translate(159.342 215.077)" fill="#6f7082"/>
      <ellipse id="Elipse_3785" data-name="Elipse 3785" cx="2.49" cy="2.49" rx="2.49" ry="2.49" transform="translate(218.593 203.84)" fill="#e6eaf0"/>
      <path id="Trazado_92951" data-name="Trazado 92951" d="M149.282,357.068a2.9,2.9,0,1,1-2.9-2.9A2.9,2.9,0,0,1,149.282,357.068Z" transform="translate(-64.574 -151.983)" fill="#e6eaf0"/>
      <ellipse id="Elipse_3786" data-name="Elipse 3786" cx="1.245" cy="1.245" rx="1.245" ry="1.245" transform="translate(95.533 219.379)" fill="#6f7082"/>
      <path id="Trazado_92952" data-name="Trazado 92952" d="M53.847,263.515a2.213,2.213,0,1,1-2.212-2.213A2.213,2.213,0,0,1,53.847,263.515Z" transform="translate(-36.082 -123.852)" fill="#e6eaf0"/>
      <path id="Trazado_92953" data-name="Trazado 92953" d="M323.219,97.791a2.766,2.766,0,1,1-2.766-2.766A2.766,2.766,0,0,1,323.219,97.791Z" transform="translate(-117.351 -73.479)" fill="#e6eaf0"/>
      <ellipse id="Elipse_3787" data-name="Elipse 3787" cx="1.798" cy="1.798" rx="1.798" ry="1.798" transform="translate(100.198 61.656)" fill="#e6eaf0"/>
      <path id="Trazado_92954" data-name="Trazado 92954" d="M126.469,111.127a2.213,2.213,0,1,1-2.213-2.213A2.214,2.214,0,0,1,126.469,111.127Z" transform="translate(-58.082 -77.687)" fill="#6f7082"/>
      <ellipse id="Elipse_3788" data-name="Elipse 3788" cx="2.237" cy="2.237" rx="2.237" ry="2.237" transform="translate(257.712 31.571)" fill="#6f7082"/>
    </g>
  </g>
</svg>
