<svg xmlns="http://www.w3.org/2000/svg" xmlns:xlink="http://www.w3.org/1999/xlink" width="144" height="144" viewBox="0 0 144 144">
  <defs>
    <clipPath id="clip-path">
      <rect id="Rectángulo_57567" data-name="Rectángulo 57567" width="131.188" height="120.477" fill="none"/>
    </clipPath>
    <linearGradient id="linear-gradient" x1="0.5" x2="0.5" y2="1" gradientUnits="objectBoundingBox">
      <stop offset="0" stop-color="#f5f5f5"/>
      <stop offset="0.25" stop-color="#f5f5f5"/>
      <stop offset="1" stop-color="#a7b3cf"/>
    </linearGradient>
    <linearGradient id="linear-gradient-2" x1="0.5" x2="0.5" y2="1" gradientUnits="objectBoundingBox">
      <stop offset="0" stop-color="#116eb9"/>
      <stop offset="1" stop-color="#1894f6"/>
    </linearGradient>
  </defs>
  <g id="Grupo_889617" data-name="Grupo 889617" transform="translate(-8632 9302)">
    <g id="Grupo_889614" data-name="Grupo 889614" transform="translate(8637.999 -9289.919)">
      <g id="Grupo_179358" data-name="Grupo 179358" clip-path="url(#clip-path)">
        <path id="Trazado_228251" data-name="Trazado 228251" d="M131.188,83.8a2.818,2.818,0,0,1-2.7,1.3c-6.659-.042-13.318-.02-19.977-.02h-1.5V86.72c0,8.28.016,16.56-.007,24.839-.013,4.5-2.528,7.793-6.608,8.715a9.352,9.352,0,0,1-2.032.184q-12.1.018-24.2.007a6.021,6.021,0,0,1-.767-.025,1.883,1.883,0,0,1-.313-3.681,5.756,5.756,0,0,1,1.519-.13q11.653-.011,23.307-.006c3.529,0,5.248-1.724,5.26-5.269.009-2.849,0-5.7,0-8.607H36.357q0,1.054,0,2.11c0,2.347-.02,4.695.007,7.042a4.429,4.429,0,0,0,4.742,4.717c7.9.02,15.794.007,23.691.008a10,10,0,0,1,1.151.023,1.962,1.962,0,0,1,1.868,1.918,1.862,1.862,0,0,1-1.994,1.885c-8.537.012-17.075.069-25.611-.043a8.051,8.051,0,0,1-7.654-7.845c-.1-4.864-.039-9.73-.041-14.6,0-7-.014-14,.017-21A1.705,1.705,0,0,0,31.6,75.2a14.055,14.055,0,0,1-5.558-5.951c-5.788-10.245-11.736-20.4-17.6-30.6a1.718,1.718,0,0,0-1.863-1.039,5.905,5.905,0,0,1-5.72-3.178A5.944,5.944,0,0,1,1.106,27.9a1.76,1.76,0,0,0,.216-1.848A11.039,11.039,0,0,1,20.267,15.175a1.633,1.633,0,0,0,1.591.719,5.911,5.911,0,0,1,5.887,3.087,6.172,6.172,0,0,1-.263,6.776,1.47,1.47,0,0,0-.206,1.194c1.612,2.9,3.292,5.759,5.24,8.6V34.263c0-8.579-.02-17.157.011-25.736A8.247,8.247,0,0,1,39.09.2,10.562,10.562,0,0,1,41.377.009q28.365-.015,56.73,0c5.384,0,8.876,3.48,8.892,8.9.029,9.646.009,19.291.009,28.937v1.677h1.477c6.659,0,13.318.02,19.977-.019a2.9,2.9,0,0,1,2.726,1.267V42.05a2.661,2.661,0,0,1-2.667,1.332c-6.651-.04-13.3-.019-19.953-.019h-1.48V81.235h1.457c6.651,0,13.3.023,19.953-.021a2.763,2.763,0,0,1,2.691,1.3ZM103.094,39.521c.034-.392.067-.6.067-.808,0-10.03.026-20.061-.012-30.091-.012-3.07-1.9-4.776-5.094-4.777q-28.3-.007-56.606,0c-3.377,0-5.088,1.731-5.09,5.145q-.009,16.326.021,32.652a4.32,4.32,0,0,0,.545,2.033c3.247,5.707,6.548,11.384,9.817,17.078a3.975,3.975,0,0,1,.612,1.522Q48.071,70.5,48.69,78.73a3.947,3.947,0,0,1-2.178,3.912,4.015,4.015,0,0,1-4.366-.17c-1.042-.666-2.043-1.395-3.066-2.09-.85-.577-1.705-1.147-2.619-1.76V98.729h66.591V85.076c-4.508,0-8.9.007-13.3,0-1.484,0-2.367-.747-2.364-1.929s.883-1.9,2.376-1.906q5.763-.012,11.526,0h1.793V43.363h-1.449c-4.055,0-8.111.011-12.166-.011a1.913,1.913,0,1,1-.055-3.815c1.407-.05,2.817-.015,4.226-.015h9.454M11.219,35.814,28.784,66.231l4.58-2.619c-.079-.146-.289-.557-.519-.956q-4.632-8.035-9.266-16.067a7.49,7.49,0,0,1-.589-1.132,1.892,1.892,0,0,1,3.116-1.965,5.189,5.189,0,0,1,.782,1.161q4.674,8.084,9.339,16.173c.219.379.469.74.5.792l4.6-2.578L23.743,28.589l-4.591,2.65c1.138,1.979,2.17,3.794,3.223,5.6a1.93,1.93,0,0,1-.2,2.571c-.944.953-2.317.7-3.1-.616-1.095-1.823-2.134-3.678-3.259-5.627l-4.595,2.652M24.766,22.6c-.029-2.431-2.018-3.53-3.81-2.511q-7.884,4.485-15.709,9.072a2.441,2.441,0,1,0,2.384,4.254c5.291-3.014,10.574-6.042,15.81-9.151.676-.4,1.053-1.308,1.325-1.664M44.277,71.618c-.2-2.593-.359-4.8-.57-7a1.484,1.484,0,0,0-.506-1.032,2.125,2.125,0,0,0-3.275,1.209,9.333,9.333,0,0,0-.4,1.733c-.323,2.168-1.272,2.687-3.375,1.932a8.865,8.865,0,0,0-2.586-.545c-1.131-.047-1.363.965-1.7,1.79-.317.777.144,1.141.718,1.526,1.766,1.185,3.488,2.437,5.272,3.592a1.554,1.554,0,0,0,1.31.111c1.546-.8,3.048-1.692,4.532-2.6a2.143,2.143,0,0,0,.583-.71M17.308,17.738A7.119,7.119,0,0,0,5.051,24.82l12.257-7.082m24.7,60.034L44.6,79.389l.288-.26-.262-2.853-2.615,1.5" transform="translate(0 0)"/>
        <path id="Trazado_228252" data-name="Trazado 228252" d="M463.9,130.389a2.813,2.813,0,0,1-2.7,1.292c-3.706-.054-7.413-.014-11.12-.023-1.577,0-2.5-.736-2.491-1.943s.906-1.892,2.514-1.894c3.749,0,7.5.034,11.248-.023a2.647,2.647,0,0,1,2.552,1.311Z" transform="translate(-332.708 -94.997)"/>
        <path id="Trazado_228253" data-name="Trazado 228253" d="M463.941,104.286a3.077,3.077,0,0,1-2.748,1.233c-3.619-.046-7.24-.016-10.86-.019a5.592,5.592,0,0,1-1.017-.059,1.862,1.862,0,0,1-1.674-1.94,1.818,1.818,0,0,1,1.908-1.821c2.469-.041,4.94-.018,7.41-.02,1.491,0,2.983.052,4.471-.017a2.418,2.418,0,0,1,2.51,1.361Z" transform="translate(-332.753 -75.553)"/>
        <path id="Trazado_228254" data-name="Trazado 228254" d="M463.98,266.719a3.339,3.339,0,0,1-2.924,1.155c-3.5-.053-7-.018-10.5-.021a9.689,9.689,0,0,1-1.15-.046,1.881,1.881,0,0,1,.021-3.749c.932-.082,1.876-.042,2.814-.043,2.988,0,5.977.031,8.963-.018a3.038,3.038,0,0,1,2.776,1.186Z" transform="translate(-332.791 -196.24)"/>
        <path id="Trazado_228255" data-name="Trazado 228255" d="M464.367,292.931a3.026,3.026,0,0,1-2.738,1.251c-3.662-.047-7.325,0-10.988-.034-.574-.005-1.369-.043-1.666-.4a3.2,3.2,0,0,1-.756-2.072c.07-.95.908-1.355,1.872-1.354q4.025,0,8.049,0c1.235,0,2.474.056,3.7-.016a2.42,2.42,0,0,1,2.522,1.343Z" transform="translate(-333.178 -215.793)"/>
        <path id="Trazado_228256" data-name="Trazado 228256" d="M256.138,417.045a5.39,5.39,0,1,1-.1-10.78,5.39,5.39,0,0,1,.1,10.78m1.5-5.432a1.463,1.463,0,0,0-1.543-1.487,1.44,1.44,0,0,0-1.548,1.489,1.546,1.546,0,1,0,3.091,0" transform="translate(-186.344 -301.995)"/>
        <path id="Trazado_228257" data-name="Trazado 228257" d="M208.388,50.65h-9.454c-1.409,0-2.819-.035-4.226.015a1.913,1.913,0,1,0,.055,3.815c4.055.023,8.111.01,12.166.011h1.449V92.364h-1.793c-3.842,0-7.684-.005-11.526,0-1.493,0-2.373.725-2.376,1.906s.88,1.925,2.364,1.929c4.395.011,8.789,0,13.3,0v13.652H141.755V89.751c.913.613,1.769,1.183,2.619,1.76,1.023.7,2.024,1.424,3.066,2.09a4.016,4.016,0,0,0,4.366.17,3.947,3.947,0,0,0,2.178-3.912q-.608-8.233-1.336-16.456a3.974,3.974,0,0,0-.612-1.521c-3.269-5.695-6.57-11.371-9.817-17.079a4.319,4.319,0,0,1-.545-2.033q-.05-16.326-.021-32.652c0-3.413,1.713-5.144,5.09-5.144q28.3-.007,56.606,0c3.194,0,5.082,1.708,5.094,4.777.038,10.03.014,20.061.012,30.091,0,.208-.034.416-.067.808m-47.812-.072a14.482,14.482,0,1,0,14.579-14.536,14.433,14.433,0,0,0-14.579,14.536m23.666,46.2h-6.669q-13,0-25.992,0c-1.536,0-2.4.685-2.442,1.862a1.928,1.928,0,0,0,2.173,1.966q16.837.017,33.675-.007a2.918,2.918,0,0,0,3.142-3.125c.047-1.791.023-3.584.014-5.377-.014-2.646-1.082-3.719-3.742-3.724q-9.347-.016-18.694,0a6.94,6.94,0,0,0-1.524.139A2.7,2.7,0,0,0,162,91.045a3.223,3.223,0,0,0,.951,2.025c.657.606,1.484.279,2.22-.235a2.979,2.979,0,0,1,1.551-.59c5.42-.042,10.841-.027,16.261-.023.407,0,.815.046,1.254.073Zm-9.21-26.206c-3.243,0-6.485-.015-9.728.005a3.062,3.062,0,0,0-3.373,3.306q-.034,2.815,0,5.631a3.055,3.055,0,0,0,3.254,3.32q9.856.057,19.712,0a3.041,3.041,0,0,0,3.238-3.33c.033-1.834.028-3.669,0-5.5-.032-2.3-1.176-3.416-3.506-3.426-3.2-.014-6.4,0-9.6,0m.032-50.986c-1.02,0-2.041-.03-3.059.008a1.9,1.9,0,1,0-.048,3.8c2.081.054,4.166.059,6.246-.008a1.9,1.9,0,1,0-.08-3.793c-1.018-.041-2.039-.009-3.059-.011" transform="translate(-105.294 -11.128)" fill="url(#linear-gradient)"/>
        <path id="Trazado_228258" data-name="Trazado 228258" d="M43.713,118.618l4.595-2.652c1.125,1.949,2.165,3.8,3.259,5.627.788,1.312,2.16,1.57,3.1.616a1.93,1.93,0,0,0,.2-2.571c-1.053-1.8-2.085-3.617-3.223-5.6l4.591-2.65,17.588,30.451-4.6,2.578c-.033-.052-.283-.413-.5-.792q-4.672-8.085-9.339-16.173A5.2,5.2,0,0,0,58.6,126.3a1.892,1.892,0,0,0-3.116,1.965,7.515,7.515,0,0,0,.589,1.132q4.631,8.035,9.266,16.067c.23.4.44.81.519.956l-4.58,2.619L43.713,118.618" transform="translate(-32.494 -82.803)" fill="#eeac3a"/>
        <path id="Trazado_228259" data-name="Trazado 228259" d="M35.975,79.7c-.273.356-.649,1.262-1.325,1.664-5.235,3.109-10.519,6.136-15.81,9.151a2.441,2.441,0,1,1-2.384-4.254q7.833-4.573,15.709-9.072c1.792-1.019,3.781.079,3.81,2.511" transform="translate(-11.208 -57.096)" fill="#d8dbf7"/>
        <path id="Trazado_228260" data-name="Trazado 228260" d="M136.261,254.7a2.144,2.144,0,0,1-.583.71c-1.484.913-2.986,1.8-4.532,2.6a1.554,1.554,0,0,1-1.31-.111c-1.785-1.155-3.506-2.407-5.272-3.592-.573-.385-1.035-.749-.718-1.526.336-.825.568-1.837,1.7-1.79a8.864,8.864,0,0,1,2.586.545c2.1.756,3.051.236,3.374-1.931a9.337,9.337,0,0,1,.4-1.733,2.125,2.125,0,0,1,3.275-1.209,1.485,1.485,0,0,1,.506,1.033c.212,2.2.366,4.408.57,7" transform="translate(-91.984 -183.078)" fill="#e8e8e8"/>
        <path id="Trazado_228261" data-name="Trazado 228261" d="M30.037,60.656,17.779,67.738a7.119,7.119,0,0,1,12.258-7.082" transform="translate(-12.728 -42.917)" fill="#e8e8e8"/>
        <path id="Trazado_228262" data-name="Trazado 228262" d="M163.684,298.69l2.615-1.5.262,2.853-.288.26-2.589-1.617" transform="translate(-121.674 -220.918)" fill="#fff"/>
        <path id="Trazado_228263" data-name="Trazado 228263" d="M268.8,422.8a1.546,1.546,0,1,1-3.091,0,1.44,1.44,0,0,1,1.548-1.489A1.463,1.463,0,0,1,268.8,422.8" transform="translate(-197.51 -313.179)" fill="#fff"/>
        <path id="Trazado_228264" data-name="Trazado 228264" d="M215.4,111.6a14.482,14.482,0,1,1,14.282,14.412A14.5,14.5,0,0,1,215.4,111.6m21.7,7.649c4.389-3.79,4.541-10.9.323-15.177a10.614,10.614,0,0,0-15.578.511c-3.781,4.308-3.365,11.484.849,14.646,3.962-3.67,9.663-4.222,14.406.02m-10.877,2.211c2.435,1.015,5.562.956,7.2-.094a5.658,5.658,0,0,0-7.2.094" transform="translate(-160.114 -72.154)"/>
        <path id="Trazado_228265" data-name="Trazado 228265" d="M205.931,309.382V304.9c-.44-.027-.847-.073-1.254-.073-5.42,0-10.841-.02-16.261.023a2.976,2.976,0,0,0-1.551.589c-.736.514-1.564.841-2.22.235a3.223,3.223,0,0,1-.951-2.025,2.7,2.7,0,0,1,2.178-2.521,6.952,6.952,0,0,1,1.524-.139q9.347-.013,18.694,0c2.66,0,3.728,1.078,3.742,3.724.01,1.792.033,3.585-.014,5.377a2.918,2.918,0,0,1-3.142,3.125q-16.837.036-33.675.007a1.928,1.928,0,0,1-2.173-1.966c.046-1.176.906-1.86,2.442-1.862q13-.014,25.992,0h6.669" transform="translate(-126.983 -223.729)"/>
        <path id="Trazado_228266" data-name="Trazado 228266" d="M233.731,231.608c3.2,0,6.4-.011,9.6,0,2.33.01,3.474,1.126,3.506,3.426.025,1.834.03,3.669,0,5.5a3.041,3.041,0,0,1-3.238,3.33q-9.856.059-19.712,0a3.055,3.055,0,0,1-3.254-3.319q-.033-2.815,0-5.631A3.062,3.062,0,0,1,224,231.614c3.243-.021,6.485-.005,9.728-.006m9.205,3.938H224.549v4.444h18.386Z" transform="translate(-163.992 -172.161)"/>
        <path id="Trazado_228267" data-name="Trazado 228267" d="M257.21,32.934c1.02,0,2.041-.032,3.059.009a1.9,1.9,0,1,1,.08,3.793c-2.08.068-4.165.062-6.246.008a1.888,1.888,0,0,1-1.947-1.939,1.869,1.869,0,0,1,1.994-1.866c1.018-.038,2.039-.008,3.059-.007" transform="translate(-187.439 -24.472)"/>
        <path id="Trazado_228268" data-name="Trazado 228268" d="M248.245,130.409c-4.742-4.242-10.444-3.69-14.406-.02-4.214-3.162-4.629-10.338-.849-14.646a10.614,10.614,0,0,1,15.578-.511c4.217,4.272,4.065,11.387-.323,15.176m-7.218-3.745a6.029,6.029,0,1,0-6.041-5.976,5.992,5.992,0,0,0,6.041,5.976" transform="translate(-171.266 -83.31)" fill="url(#linear-gradient-2)"/>
        <path id="Trazado_228269" data-name="Trazado 228269" d="M257.553,188.238a5.658,5.658,0,0,1,7.2-.095c-1.638,1.05-4.765,1.109-7.2.095" transform="translate(-191.451 -138.929)" fill="#fff"/>
        <rect id="Rectángulo_57566" data-name="Rectángulo 57566" width="18.386" height="4.444" transform="translate(60.557 63.385)" fill="#43a99b"/>
        <path id="Trazado_228270" data-name="Trazado 228270" d="M254.315,133.992a6.029,6.029,0,1,1,.034-12.059,6.029,6.029,0,0,1-.034,12.059m-.024-3.848a2.216,2.216,0,0,0,2.216-2.166,2.245,2.245,0,0,0-2.2-2.2,2.167,2.167,0,0,0-2.184,2.179,2.137,2.137,0,0,0,2.164,2.186" transform="translate(-184.554 -90.639)"/>
        <path id="Trazado_228271" data-name="Trazado 228271" d="M265.448,141.285a2.137,2.137,0,0,1-2.164-2.186,2.167,2.167,0,0,1,2.184-2.179,2.245,2.245,0,0,1,2.2,2.2,2.216,2.216,0,0,1-2.216,2.166" transform="translate(-195.711 -101.779)" fill="#fff"/>
      </g>
    </g>
    <rect id="Rectángulo_300221" data-name="Rectángulo 300221" width="144" height="144" transform="translate(8632 -9302)" fill="none"/>
  </g>
</svg>
