<svg xmlns="http://www.w3.org/2000/svg" xmlns:xlink="http://www.w3.org/1999/xlink" width="144" height="144" viewBox="0 0 144 144">
  <defs>
    <clipPath id="clip-path">
      <rect id="Rect치ngulo_55937" data-name="Rect치ngulo 55937" width="107.484" height="135.505" fill="#12263f"/>
    </clipPath>
    <linearGradient id="linear-gradient" x1="0.5" x2="0.5" y2="1" gradientUnits="objectBoundingBox">
      <stop offset="0" stop-color="#f5f5f5"/>
      <stop offset="0.25" stop-color="#f5f5f5"/>
      <stop offset="1" stop-color="#a7b3cf"/>
    </linearGradient>
  </defs>
  <g id="Grupo_889616" data-name="Grupo 889616" transform="translate(-8659 9540)">
    <g id="Grupo_889613" data-name="Grupo 889613" transform="translate(8676.873 -9535.55)">
      <g id="Grupo_175112" data-name="Grupo 175112" clip-path="url(#clip-path)">
        <path id="Trazado_217342" data-name="Trazado 217342" d="M107.382,11.069C106.635,4.478,102.95.334,97.559.021,92.01-.3,87.918,3.133,86.448,9.346a.546.546,0,0,0-.052.54c-.073,1.04-.208,2.079-.209,3.12q-.016,46.634,0,93.268c0,.85.107,1.7.164,2.549.02.374.039.746.06,1.12,2.369,8,5.547,15.724,8.3,23.594.332.95.843,1.732,1.965,1.791,1.262.065,1.867-.751,2.255-1.8,1.312-3.562,2.724-7.09,3.9-10.7,1.523-4.675,3.8-9.11,4.546-14.034.035-1.141.1-2.282.1-3.423q.009-34.581,0-69.162c-.005-8.381-.061-16.761-.094-25.142M.09,20.785C.06,21.831.005,22.877.005,23.923q-.007,44.3,0,88.6c0,6.762.055,13.525.085,20.287.109,3.365,2.737,2.627,4.62,2.632q36.2.088,72.4.03a23.209,23.209,0,0,0,2.835-.215,1.719,1.719,0,0,0,1.713-1.871c.046-.854.131-1.709.131-2.562q.009-40.3,0-80.6c-.011-15.147-.082-30.293-.125-45.44a1.575,1.575,0,0,0-.738-1.794C79.886,1.96,78.576,2.41,77.4,2.408q-29.4-.046-58.807-.013c-1.039,0-2.078.131-3.117.2a5.753,5.753,0,0,0-1.428.852Q7.6,10.527,1.241,17.675A3.8,3.8,0,0,0,.09,20.785" transform="translate(0 0)" fill="#12263f"/>
        <path id="Trazado_217343" data-name="Trazado 217343" d="M81.7,135.325a1.719,1.719,0,0,1-1.713,1.871,23.312,23.312,0,0,1-2.835.215q-36.2.017-72.4-.03c-1.883,0-4.51.734-4.62-2.633.817-.9.467-2,.468-3.008q.027-53,0-106c0-1.009.348-2.112-.468-3.009a3.8,3.8,0,0,1,1.151-3.111q6.348-7.16,12.8-14.226a5.771,5.771,0,0,1,1.428-.852,2.4,2.4,0,0,0,1.88.441q31.785-.025,63.57-.053A1.575,1.575,0,0,1,81.7,6.72c-.819.9-.469,2-.469,3.008q-.027,61.293,0,122.586c0,1.01-.346,2.111.465,3.011M77.22,8.966c-.754-.851-1.765-.546-2.677-.546q-26.2-.024-52.4,0c-.909,0-1.927-.317-2.66.575-.04,3.806-.091,7.612-.117,11.419-.031,4.654-.262,4.9-4.782,4.915-2.38.006-4.776.17-7.137-.046-2.406-.22-2.983.606-2.978,2.977q.121,50.712-.011,101.425c-.007,2.551.856,2.854,3.066,2.847q33.277-.1,66.556.043c2.673.015,3.475-.523,3.467-3.362q-.16-58.569-.082-117.139c0-1.036-.158-2.072-.242-3.108M15.166,14.347,8.3,20.353c8.189-.026,6.4,1.636,6.562-6.295,0-.056-.113-.114.309.288" transform="translate(-0.041 -1.941)" fill="#12263f"/>
        <path id="Trazado_217344" data-name="Trazado 217344" d="M150.772,108.824c-.057-.85-.164-1.7-.164-2.549q-.013-46.634,0-93.268c0-1.04.136-2.079.209-3.119.067-.047.2-.106.191-.141a2.234,2.234,0,0,0-.138-.4c1.47-6.213,5.562-9.647,11.11-9.325,5.391.312,9.076,4.457,9.824,11.048-.813.9-.465,2-.465,3.009q-.028,45.852,0,91.7c0,1.011-.342,2.11.458,3.013-.751,4.925-3.023,9.359-4.546,14.034-1.175,3.606-2.587,7.135-3.9,10.7-.387,1.05-.992,1.867-2.255,1.8-1.122-.058-1.632-.841-1.965-1.79-2.754-7.869-5.932-15.59-8.3-23.595.519-.4.48-.774-.06-1.119m15.412,2.837a18.444,18.444,0,0,0-9.71-.038c-.407,2.885.488,4.414,2.724,4.659,5.424.594,6.7-.251,6.986-4.621m-11.428-5.13c3.484.727,7.016.06,10.508.355,2.124.18,2.484-.764,2.481-2.647q-.074-42.542-.064-85.084c0-.872.676-2.406-1.076-2.388s-.989,1.544-.993,2.384c-.052,11.706-.034,23.412-.038,35.118a15.407,15.407,0,0,1-.074,2.563c-.2,1.148-.565,2.282-2.054,2.315-1.65.038-2.043-1.153-2.225-2.439a16.445,16.445,0,0,1-.055-2.28q0-15.846,0-31.692c0-6.25,0-6.25-6.339-5.958-1.053.782-.633,1.922-.634,2.908q-.033,41.945,0,83.889c0,1-.381,2.118.566,2.955m6.4-94.705c1.329,0,2.668-.105,3.985.022,2.6.252,2.6-1.109,1.943-2.933a6.179,6.179,0,0,0-6.111-4.2,6.368,6.368,0,0,0-5.758,4.711c-.524,1.657-.347,2.557,1.67,2.422,1.418-.095,2.847-.018,4.272-.018m-1.695,109.687A17.254,17.254,0,0,0,161.4,126.4c.31-1.857,1.875-3.276,1.072-4.89-.328-.66-1.9-.339-3.017,0" transform="translate(-64.422 0)" fill="#12263f"/>
        <path id="Trazado_217345" data-name="Trazado 217345" d="M142.293,136.956c-.81-.9-.464-2-.464-3.011q-.027-61.293,0-122.587c0-1.009-.351-2.111.469-3.008.044,15.146.114,30.293.126,45.44q.031,40.3,0,80.6c0,.854-.085,1.708-.131,2.562" transform="translate(-60.638 -3.572)" fill="#12263f"/>
        <path id="Trazado_217346" data-name="Trazado 217346" d="M.09,36.322c.816.9.468,2,.468,3.009q.027,53,0,106c0,1.009.35,2.112-.468,3.009-.03-6.762-.083-13.525-.085-20.287q-.015-44.3,0-88.6c0-1.046.055-2.093.085-3.139" transform="translate(0 -15.537)" fill="#12263f"/>
        <path id="Trazado_217347" data-name="Trazado 217347" d="M187.245,117.071c-.8-.9-.457-2-.458-3.014q-.027-45.852,0-91.7c0-1.009-.348-2.11.465-3.009.033,8.381.089,16.762.093,25.143q.02,34.581,0,69.162c0,1.141-.065,2.281-.1,3.423" transform="translate(-79.87 -8.274)" fill="#12263f"/>
        <path id="Trazado_217348" data-name="Trazado 217348" d="M92.487,4.713Q60.7,4.74,28.917,4.766a2.4,2.4,0,0,1-1.88-.441c1.039-.07,2.078-.2,3.117-.2q29.4-.018,58.807.013c1.181,0,2.49-.447,3.526.577" transform="translate(-11.566 -1.728)" fill="#12263f"/>
        <path id="Trazado_217349" data-name="Trazado 217349" d="M150.9,190.173c.54.345.579.718.06,1.119q-.03-.56-.06-1.119" transform="translate(-64.55 -81.35)" fill="#12263f"/>
        <path id="Trazado_217350" data-name="Trazado 217350" d="M151,16.333a2.235,2.235,0,0,1,.139.4c.006.035-.124.094-.191.141a.548.548,0,0,1,.052-.541" transform="translate(-64.549 -6.987)" fill="#12263f"/>
        <path id="Trazado_217351" data-name="Trazado 217351" d="M80.48,12.276c.084,1.036.241,2.071.241,3.107q.019,58.57.082,117.14c.008,2.838-.794,3.377-3.467,3.362q-33.277-.184-66.556-.043c-2.21.007-3.073-.3-3.065-2.847q.148-50.713.011-101.426c-.006-2.371.572-3.2,2.978-2.977,2.36.216,4.756.052,7.137.046,4.519-.011,4.751-.261,4.782-4.914.026-3.806.077-7.613.116-11.419l57.741-.028m-20.03,33.26a150.857,150.857,0,0,0-15.388.027c-2.253,1.8-2.081,3.134.564,4.368H60.442c2.578-1.591,2.581-2.964.007-4.4m0,30.879c-5.128-.159-10.257-.249-15.384.049a2.057,2.057,0,0,0-1.449,2.847c.592,1.952,2.2,1.688,3.717,1.519H58.162c1.6.195,3.317.432,3.971-1.51a2.07,2.07,0,0,0-1.683-2.906M45.065,113.925a116.946,116.946,0,0,0,15.933,0c1.371-.531,1.52-1.658,1.17-2.82a2.291,2.291,0,0,0-2.442-1.585c-4.476.009-8.952,0-13.429.013a2.275,2.275,0,0,0-2.429,1.6c-.331,1.167-.2,2.289,1.2,2.792M46.2,86.154c-1.423.037-1.883.917-1.889,2.177s.494,2.12,1.882,2.208l23.4.009a2.207,2.207,0,0,0,.568-4.368L46.2,86.154M70.156,59.637a2.04,2.04,0,0,0,1.753-2.623,1.86,1.86,0,0,0-2.312-1.76l-23.4.009c-2.707.758-2.4,2.227-.936,3.97a3.733,3.733,0,0,0,1.252.508c7.88-.011,15.76-.062,23.641-.1m.56,64.015c1.484-.493,1.376-1.7,1.117-2.817a2.079,2.079,0,0,0-2.216-1.48q-11.564-.055-23.128.011a1.941,1.941,0,0,0-2.1,1.592c-.168,1.128-.3,2.339,1.241,2.734,8.363.327,16.726.4,25.088-.04M37.487,62.584q.009-9.7.019-19.39a1.885,1.885,0,0,0-1.649-2.183L18.19,40.977c-1.726.046-1.917,1.313-1.924,2.576-.034,6.063,0,12.126-.023,18.189-.006,1.855.747,2.776,2.711,2.757,5.3-.053,10.608-.019,15.912-.01,1.348,0,2.465-.283,2.621-1.906m.02,64.042q0-9.694,0-19.389c-.038-1.963-1.423-2.265-2.928-2.275-5.029-.031-10.058.017-15.086-.025-2.233-.019-3.313.909-3.293,3.221q.074,8.682-.005,17.366c-.019,2.237.895,3.334,3.2,3.313,5.028-.045,10.058.014,15.086-.031,1.448-.013,2.931-.186,3.021-2.18M37.7,74.964c-.072-2.5-1.334-3.314-3.706-3.243-4.844.145-9.7.109-14.543.014-2.291-.045-3.37.9-3.37,3.155,0,5.8.013,11.6-.012,17.4-.01,2.257,1.032,3.265,3.3,3.239q7.414-.083,14.829,0c2.6.033,3.59-1.186,3.425-3.683-.1-1.515.1-3.054-.046-4.56-.332-3.316.306-6.165,3.064-8.376a2.679,2.679,0,0,0,.822-3.782c-1.106-1.749-2.42-.708-3.766-.161" transform="translate(-3.3 -5.251)" fill="#f6f6f6"/>
        <path id="Trazado_217352" data-name="Trazado 217352" d="M91.711,11.827l-57.74.029c.733-.892,1.752-.574,2.66-.575q26.2-.026,52.4,0c.911,0,1.924-.305,2.677.546" transform="translate(-14.532 -4.802)" fill="#12263f"/>
        <path id="Trazado_217353" data-name="Trazado 217353" d="M21.295,21.434c-.422-.4-.308-.344-.309-.288-.161,7.931,1.627,6.268-6.562,6.295l6.871-6.006" transform="translate(-6.17 -9.028)" fill="#12263f"/>
        <path id="Trazado_217354" data-name="Trazado 217354" d="M157.932,29.251c6.339-.292,6.339-.292,6.339,5.958q0,15.846,0,31.693a16.365,16.365,0,0,0,.055,2.28c.181,1.286.576,2.477,2.225,2.439,1.489-.034,1.859-1.168,2.054-2.316a15.4,15.4,0,0,0,.074-2.562c0-11.707-.014-23.413.038-35.118,0-.84-.748-2.366.993-2.384s1.075,1.516,1.076,2.388q.054,42.542.064,85.084c0,1.882-.358,2.826-2.481,2.646-3.492-.3-7.024.371-10.508-.355q.035-44.876.07-89.752" transform="translate(-67.528 -12.472)" fill="url(#linear-gradient)"/>
        <path id="Trazado_217355" data-name="Trazado 217355" d="M164.414,15.341c-1.424,0-2.854-.077-4.271.018-2.018.135-2.194-.765-1.67-2.422a6.368,6.368,0,0,1,5.758-4.711,6.18,6.18,0,0,1,6.112,4.2c.661,1.823.656,3.184-1.943,2.932-1.317-.128-2.656-.022-3.986-.022" transform="translate(-67.682 -3.516)" fill="#eeac3a"/>
        <path id="Trazado_217356" data-name="Trazado 217356" d="M157.45,29.322l-.07,89.752c-.946-.837-.565-1.956-.565-2.954q-.03-41.945,0-83.89c0-.986-.419-2.126.634-2.908" transform="translate(-67.046 -12.543)" fill="#12263f"/>
        <path id="Trazado_217357" data-name="Trazado 217357" d="M170.5,195.1c-.285,4.37-1.562,5.215-6.986,4.621-2.236-.245-3.131-1.775-2.724-4.659l9.71.038" transform="translate(-68.741 -83.442)" fill="url(#linear-gradient)"/>
        <path id="Trazado_217358" data-name="Trazado 217358" d="M166.081,212.063c1.115-.338,2.689-.659,3.017,0,.8,1.614-.762,3.033-1.072,4.89a17.253,17.253,0,0,1-1.945-4.891" transform="translate(-71.044 -90.55)" fill="#7f4fc7"/>
        <path id="Trazado_217359" data-name="Trazado 217359" d="M170.575,194.631l-9.71-.038a18.444,18.444,0,0,1,9.71.038" transform="translate(-68.813 -82.97)" fill="#12263f"/>
        <path id="Trazado_217360" data-name="Trazado 217360" d="M43.94,119.4c1.346-.547,2.66-1.587,3.766.161a2.678,2.678,0,0,1-.822,3.781c-2.758,2.211-3.4,5.06-3.064,8.376.15,1.506-.054,3.045.046,4.56.165,2.5-.829,3.716-3.425,3.683q-7.414-.093-14.829,0c-2.271.026-3.313-.982-3.3-3.239.025-5.8.013-11.6.012-17.4,0-2.258,1.079-3.2,3.37-3.155,4.846.1,9.7.13,14.542-.015,2.372-.071,3.634.743,3.706,3.244m-17.246,1.938c-1.257,3.172-.362,6.474-.523,9.71-.066,1.312-.652,2.835.614,3.994h7.4c-1.3-1.511-2.324-2.7-3.347-3.9-1.217-1.422-3.143-3-1.133-4.8,1.976-1.77,3.073.6,4.348,1.7.49.426.864,1.712,1.681.86,1.549-1.614,3.54-3,3.964-5.414.193-1.1.313-2.535-1.414-2.486-3.864.11-7.751-.5-11.592.333" transform="translate(-9.543 -49.685)" fill="#12263f"/>
        <path id="Trazado_217361" data-name="Trazado 217361" d="M43.848,195.894c-.09,1.994-1.572,2.166-3.021,2.18-5.029.045-10.058-.013-15.086.031-2.306.021-3.22-1.076-3.2-3.313q.073-8.682.005-17.366c-.019-2.312,1.06-3.239,3.293-3.221,5.028.042,10.058-.006,15.086.025,1.5.009,2.89.311,2.928,2.275-1.078,2.557-.466,5.239-.425,7.84.061,3.847-.674,7.738.421,11.549m-4.3-9.7c0-1.706-.081-3.418.024-5.118.093-1.506-.477-1.986-1.956-1.937-2.841.093-5.694.154-8.527-.017-2.007-.121-2.387.736-2.281,2.471.121,1.983.028,3.98.028,5.971,0,5.54,0,5.54,5.626,5.576,7.087.045,7.087.045,7.086-6.946" transform="translate(-9.642 -74.519)" fill="#12263f"/>
        <path id="Trazado_217362" data-name="Trazado 217362" d="M42.231,62.467A1.886,1.886,0,0,1,43.88,64.65c-1.02,2.172-.472,4.478-.426,6.7.086,4.229-.616,8.493.406,12.69-.156,1.623-1.273,1.908-2.62,1.906-5.3-.008-10.609-.043-15.913.01-1.964.019-2.717-.9-2.711-2.756.019-6.063-.01-12.126.023-18.189.007-1.264.2-2.53,1.924-2.576a69.31,69.31,0,0,0,17.667.033m-2.791,11.6H39.6c0-1.709-.039-3.418.013-5.125.038-1.242-.263-1.948-1.721-1.913-3.13.076-6.263.061-9.393,0-1.245-.022-1.662.457-1.627,1.673.068,2.276.019,4.555.019,6.833,0,5.669,0,5.727,5.519,5.642,2.34-.036,5.457,1.07,6.8-.509,1.118-1.317.229-4.339.229-6.606" transform="translate(-9.674 -26.707)" fill="#12263f"/>
        <path id="Trazado_217363" data-name="Trazado 217363" d="M72.971,203.717c-1.543-.395-1.408-1.606-1.241-2.733a1.942,1.942,0,0,1,2.1-1.593q11.564-.079,23.129-.011a2.079,2.079,0,0,1,2.216,1.48c.259,1.113.367,2.323-1.117,2.817-.631-.593-1.421-.429-2.165-.43q-10.388-.013-20.777,0c-.743,0-1.535-.159-2.146.471" transform="translate(-30.642 -85.276)" fill="#12263f"/>
        <path id="Trazado_217364" data-name="Trazado 217364" d="M96.84,87.36a1.86,1.86,0,0,1,2.312,1.76A2.04,2.04,0,0,1,97.4,91.743c-.619-.613-1.409-.455-2.152-.454q-11.371.015-22.742.05c-1.466-1.742-1.77-3.211.936-3.97.7.708,1.6.473,2.433.475q9.268.024,18.536,0c.83,0,1.731.231,2.429-.484" transform="translate(-30.542 -37.357)" fill="#12263f"/>
        <path id="Trazado_217365" data-name="Trazado 217365" d="M97.519,141.406a2.207,2.207,0,0,1-.568,4.369c-.794-.777-1.8-.476-2.714-.48q-8.983-.037-17.965,0c-.919,0-1.92-.292-2.719.471-1.388-.088-1.887-.94-1.882-2.208s.467-2.139,1.889-2.176c.9.8,2,.449,3,.454q8.684.05,17.368,0c1.2-.01,2.475.4,3.586-.425" transform="translate(-30.658 -60.478)" fill="#12263f"/>
        <path id="Trazado_217366" data-name="Trazado 217366" d="M71.978,186.615c-1.392-.5-1.527-1.625-1.2-2.793a2.276,2.276,0,0,1,2.43-1.6c4.476-.01,8.952,0,13.429-.013a2.291,2.291,0,0,1,2.442,1.585c.35,1.162.2,2.289-1.17,2.82a60.428,60.428,0,0,0-15.933,0" transform="translate(-30.213 -77.941)" fill="#12263f"/>
        <path id="Trazado_217367" data-name="Trazado 217367" d="M74.063,128.777c-1.518.169-3.126.433-3.718-1.519a2.058,2.058,0,0,1,1.449-2.847,52.054,52.054,0,0,0,15.384-.049,2.07,2.07,0,0,1,1.683,2.906c-.654,1.942-2.375,1.7-3.971,1.51a24.153,24.153,0,0,0-10.828,0" transform="translate(-30.029 -53.198)" fill="#12263f"/>
        <path id="Trazado_217368" data-name="Trazado 217368" d="M72.372,74.795c-2.645-1.235-2.817-2.567-.565-4.368A51.028,51.028,0,0,0,87.2,70.4c2.573,1.431,2.57,2.8-.007,4.4a46.933,46.933,0,0,0-14.817,0" transform="translate(-30.048 -30.115)" fill="#12263f"/>
        <path id="Trazado_217369" data-name="Trazado 217369" d="M73.971,206.613c.611-.63,1.4-.47,2.146-.471q10.389-.011,20.777,0c.743,0,1.534-.163,2.165.43-8.362.443-16.725.367-25.088.04" transform="translate(-31.642 -88.173)" fill="#12263f"/>
        <path id="Trazado_217370" data-name="Trazado 217370" d="M73.332,94.284q11.371-.027,22.741-.05c.742,0,1.533-.16,2.152.454-7.88.042-15.76.093-23.641.1a3.728,3.728,0,0,1-1.251-.508" transform="translate(-31.369 -40.302)" fill="#12263f"/>
        <path id="Trazado_217371" data-name="Trazado 217371" d="M98.931,141.406c-1.111.824-2.39.415-3.586.425q-8.684.069-17.368,0c-1.008-.006-2.1.342-3-.454l23.959.025" transform="translate(-32.071 -60.478)" fill="#12263f"/>
        <path id="Trazado_217372" data-name="Trazado 217372" d="M98.366,87.383c-.7.715-1.6.482-2.429.484q-9.268.024-18.536,0c-.83,0-1.73.233-2.433-.475Z" transform="translate(-32.069 -37.38)" fill="#12263f"/>
        <path id="Trazado_217373" data-name="Trazado 217373" d="M74.96,148.651c.8-.763,1.8-.467,2.719-.471q8.983-.036,17.965,0c.918,0,1.92-.3,2.714.48l-23.4-.009" transform="translate(-32.065 -63.363)" fill="#12263f"/>
        <path id="Trazado_217374" data-name="Trazado 217374" d="M59.306,197.613c-1.094-3.81-.36-7.7-.421-11.549-.041-2.6-.652-5.283.425-7.84q0,9.7,0,19.389" transform="translate(-25.099 -76.238)" fill="#12263f"/>
        <path id="Trazado_217375" data-name="Trazado 217375" d="M59.3,85.7c-1.022-4.2-.32-8.461-.406-12.69-.045-2.221-.593-4.527.426-6.7Q59.307,76,59.3,85.7" transform="translate(-25.111 -28.364)" fill="#12263f"/>
        <path id="Trazado_217376" data-name="Trazado 217376" d="M43.687,62.467a69.336,69.336,0,0,1-17.667-.033l17.667.033" transform="translate(-11.131 -26.707)" fill="#12263f"/>
        <path id="Trazado_217377" data-name="Trazado 217377" d="M72.985,189.515a60.426,60.426,0,0,1,15.933,0,116.949,116.949,0,0,1-15.933,0" transform="translate(-31.221 -80.842)" fill="#12263f"/>
        <path id="Trazado_217378" data-name="Trazado 217378" d="M88.371,124.253a52.074,52.074,0,0,1-15.384.049c5.127-.3,10.256-.208,15.384-.049" transform="translate(-31.221 -53.088)" fill="#12263f"/>
        <path id="Trazado_217379" data-name="Trazado 217379" d="M88.366,70.264a51.029,51.029,0,0,1-15.389.027,150.7,150.7,0,0,1,15.389-.027" transform="translate(-31.217 -29.978)" fill="#12263f"/>
        <path id="Trazado_217380" data-name="Trazado 217380" d="M73.964,77.64a46.933,46.933,0,0,1,14.817,0H73.964" transform="translate(-31.639 -32.96)" fill="#12263f"/>
        <path id="Trazado_217381" data-name="Trazado 217381" d="M76.951,131.618a24.153,24.153,0,0,1,10.828,0H76.951" transform="translate(-32.917 -56.039)" fill="#12263f"/>
        <path id="Trazado_217382" data-name="Trazado 217382" d="M29.972,124.879c3.841-.835,7.729-.223,11.592-.333,1.727-.049,1.607,1.388,1.414,2.486-.425,2.412-2.415,3.8-3.964,5.414-.817.851-1.191-.434-1.681-.86-1.276-1.106-2.372-3.471-4.348-1.7-2.01,1.8-.084,3.376,1.133,4.8,1.023,1.2,2.05,2.388,3.347,3.9h-7.4l-.091-13.7" transform="translate(-12.821 -53.228)" fill="url(#linear-gradient)"/>
        <path id="Trazado_217383" data-name="Trazado 217383" d="M29.437,125.213l.091,13.7c-1.266-1.158-.68-2.682-.614-3.994.161-3.236-.734-6.537.523-9.71" transform="translate(-12.286 -53.562)" fill="#12263f"/>
        <path id="Trazado_217384" data-name="Trazado 217384" d="M42.731,189.868c0,6.992,0,6.992-7.087,6.946-5.627-.036-5.627-.036-5.627-5.576,0-1.991.093-3.988-.027-5.971-.106-1.736.274-2.593,2.281-2.471,2.833.172,5.687.11,8.527.017,1.479-.049,2.049.431,1.956,1.937-.105,1.7-.024,3.412-.023,5.118" transform="translate(-12.822 -78.189)" fill="url(#linear-gradient)"/>
        <path id="Trazado_217385" data-name="Trazado 217385" d="M42.623,77.5c0,2.267.889,5.289-.229,6.606-1.34,1.579-4.457.473-6.8.509-5.518.085-5.519.027-5.519-5.642,0-2.278.049-4.557-.019-6.833-.035-1.216.382-1.7,1.627-1.673,3.13.057,6.264.072,9.393,0,1.459-.035,1.76.671,1.721,1.913-.052,1.707-.013,3.416-.013,5.125h-.164" transform="translate(-12.857 -30.142)" fill="url(#linear-gradient)"/>
      </g>
    </g>
    <rect id="Rect치ngulo_300220" data-name="Rect치ngulo 300220" width="144" height="144" transform="translate(8659 -9540)" fill="none"/>
  </g>
</svg>
