<svg xmlns="http://www.w3.org/2000/svg" xmlns:xlink="http://www.w3.org/1999/xlink" width="448.274" height="321.806" viewBox="0 0 448.274 321.806">
  <defs>
    <clipPath id="clip-path">
      <rect id="Rectángulo_59599" data-name="Rectángulo 59599" width="442.734" height="321.806" fill="none"/>
    </clipPath>
    <clipPath id="clip-path-4">
      <rect id="Rectángulo_59528" data-name="Rectángulo 59528" width="168.256" height="183.083" fill="#afafaf"/>
    </clipPath>
    <clipPath id="clip-path-5">
      <rect id="Rectángulo_59530" data-name="Rectángulo 59530" width="88.563" height="156.519" fill="#afafaf"/>
    </clipPath>
    <clipPath id="clip-path-6">
      <rect id="Rectángulo_59531" data-name="Rectángulo 59531" width="7.948" height="8.035" fill="none"/>
    </clipPath>
    <clipPath id="clip-path-9">
      <rect id="Rectángulo_59535" data-name="Rectángulo 59535" width="10.218" height="10.33" fill="none"/>
    </clipPath>
    <clipPath id="clip-path-12">
      <rect id="Rectángulo_59552" data-name="Rectángulo 59552" width="7.668" height="8.997" fill="none"/>
    </clipPath>
    <clipPath id="clip-path-15">
      <rect id="Rectángulo_59564" data-name="Rectángulo 59564" width="38.252" height="31.433" fill="#f4a338"/>
    </clipPath>
    <clipPath id="clip-path-17">
      <rect id="Rectángulo_59573" data-name="Rectángulo 59573" width="63.033" height="52.083" fill="none"/>
    </clipPath>
    <clipPath id="clip-path-18">
      <rect id="Rectángulo_59574" data-name="Rectángulo 59574" width="58.921" height="27.343" fill="none"/>
    </clipPath>
    <clipPath id="clip-path-19">
      <rect id="Rectángulo_59575" data-name="Rectángulo 59575" width="8.632" height="8.632" fill="none"/>
    </clipPath>
    <clipPath id="clip-path-21">
      <path id="Trazado_236867" data-name="Trazado 236867" d="M182.07,171.769c-.877,1.063-12.785,9.776-12.785,9.776l2.107,4.6s12.955-6.065,15.761-9.6c.717-.912,1.709-2.364,2.78-4.02,1.762-2.736,3.754-6.03,5.136-8.341,1.027-1.726,1.718-2.9,1.718-2.9l-7.332-11.564c-1.6,1.231-6.508,20.994-7.385,22.057" transform="translate(-169.285 -149.712)" fill="none"/>
    </clipPath>
    <clipPath id="clip-path-22">
      <rect id="Rectángulo_59586" data-name="Rectángulo 59586" width="5.141" height="16.753" fill="none"/>
    </clipPath>
    <clipPath id="clip-path-24">
      <rect id="Rectángulo_59587" data-name="Rectángulo 59587" width="8.287" height="9.309" fill="none"/>
    </clipPath>
    <clipPath id="clip-path-25">
      <rect id="Rectángulo_59588" data-name="Rectángulo 59588" width="7.08" height="8.692" fill="none"/>
    </clipPath>
    <clipPath id="clip-path-26">
      <rect id="Rectángulo_59589" data-name="Rectángulo 59589" width="11.335" height="7.811" fill="none"/>
    </clipPath>
    <clipPath id="clip-path-27">
      <rect id="Rectángulo_59590" data-name="Rectángulo 59590" width="11.816" height="6.035" fill="none"/>
    </clipPath>
    <clipPath id="clip-path-28">
      <rect id="Rectángulo_59591" data-name="Rectángulo 59591" width="7.748" height="58.581" fill="none"/>
    </clipPath>
    <clipPath id="clip-path-29">
      <rect id="Rectángulo_59592" data-name="Rectángulo 59592" width="11.257" height="2.548" fill="none"/>
    </clipPath>
    <clipPath id="clip-path-30">
      <path id="Trazado_236892" data-name="Trazado 236892" d="M192.065,148.919s5.14,13.976,5.906,39.38h27.921s5.152-31.388-3.7-45.462c0,0-.972-.06-2.621-.06-5.383,0-17.979.645-27.5,6.142" transform="translate(-192.065 -142.777)" fill="none"/>
    </clipPath>
    <clipPath id="clip-path-31">
      <rect id="Rectángulo_59594" data-name="Rectángulo 59594" width="7.078" height="18.608" fill="none"/>
    </clipPath>
    <clipPath id="clip-path-33">
      <rect id="Rectángulo_58805" data-name="Rectángulo 58805" width="1.129" height="1.129" fill="none"/>
    </clipPath>
  </defs>
  <g id="Grupo_888888" data-name="Grupo 888888" transform="translate(-938.261 -653.091)">
    <g id="Grupo_888877" data-name="Grupo 888877" transform="translate(-91.35 -6365)">
      <rect id="Rectángulo_297788" data-name="Rectángulo 297788" width="349.279" height="287.263" transform="translate(1040 7036)" fill="#f5fafe"/>
    </g>
    <g id="Grupo_182281" data-name="Grupo 182281" transform="translate(938.261 653.091)">
      <g id="Grupo_182280" data-name="Grupo 182280" clip-path="url(#clip-path)">
        <rect id="Rectángulo_59470" data-name="Rectángulo 59470" width="442.734" height="0.221" transform="translate(0 289.943)" fill="#ebebeb"/>
        <rect id="Rectángulo_59471" data-name="Rectángulo 59471" width="29.329" height="0.221" transform="translate(369.045 304.196)" fill="#ebebeb"/>
        <rect id="Rectángulo_59472" data-name="Rectángulo 59472" width="7.697" height="0.22" transform="translate(285.588 306.6)" fill="#ebebeb"/>
        <rect id="Rectángulo_59473" data-name="Rectángulo 59473" width="16.994" height="0.22" transform="translate(351.164 295.974)" fill="#ebebeb"/>
        <rect id="Rectángulo_59474" data-name="Rectángulo 59474" width="38.246" height="0.221" transform="translate(46.451 297.461)" fill="#ebebeb"/>
        <rect id="Rectángulo_59475" data-name="Rectángulo 59475" width="5.608" height="0.221" transform="translate(92.581 297.461)" fill="#ebebeb"/>
        <rect id="Rectángulo_59476" data-name="Rectángulo 59476" width="82.947" height="0.221" transform="translate(116.413 301.2)" fill="#ebebeb"/>
        <g id="Grupo_182179" data-name="Grupo 182179">
          <g id="Grupo_182178" data-name="Grupo 182178" clip-path="url(#clip-path)">
            <path id="Trazado_236831" data-name="Trazado 236831" d="M214.244,250.452H43.261a5.06,5.06,0,0,1-5.054-5.054V5.054A5.06,5.06,0,0,1,43.261,0H214.244A5.06,5.06,0,0,1,219.3,5.054V245.4a5.06,5.06,0,0,1-5.053,5.054M43.261.221a4.838,4.838,0,0,0-4.833,4.833V245.4a4.838,4.838,0,0,0,4.833,4.833H214.244a4.838,4.838,0,0,0,4.832-4.833V5.054A4.838,4.838,0,0,0,214.244.221Z" transform="translate(-4.376)" fill="#ebebeb"/>
            <path id="Trazado_236832" data-name="Trazado 236832" d="M430.542,250.452H259.558a5.059,5.059,0,0,1-5.053-5.054V5.054A5.06,5.06,0,0,1,259.558,0H430.542A5.06,5.06,0,0,1,435.6,5.054V245.4a5.06,5.06,0,0,1-5.054,5.054M259.558.221a4.838,4.838,0,0,0-4.832,4.833V245.4a4.838,4.838,0,0,0,4.832,4.833H430.542a4.838,4.838,0,0,0,4.833-4.833V5.054A4.838,4.838,0,0,0,430.542.221Z" transform="translate(-29.149)" fill="#ebebeb"/>
            <rect id="Rectángulo_59477" data-name="Rectángulo 59477" width="90.073" height="181.11" transform="translate(120.442 64.476)" fill="#fafafa"/>
            <rect id="Rectángulo_59478" data-name="Rectángulo 59478" width="94.23" height="8.887" transform="translate(118.364 62.018)" fill="#f0f0f0"/>
            <rect id="Rectángulo_59479" data-name="Rectángulo 59479" width="94.23" height="4.444" transform="translate(118.364 71.889)" fill="#f0f0f0"/>
            <rect id="Rectángulo_59480" data-name="Rectángulo 59480" width="94.23" height="4.444" transform="translate(118.364 78.484)" fill="#f0f0f0"/>
            <rect id="Rectángulo_59481" data-name="Rectángulo 59481" width="94.23" height="4.443" transform="translate(118.364 85.081)" fill="#f0f0f0"/>
            <rect id="Rectángulo_59482" data-name="Rectángulo 59482" width="94.23" height="4.444" transform="translate(118.364 91.675)" fill="#f0f0f0"/>
            <rect id="Rectángulo_59483" data-name="Rectángulo 59483" width="94.23" height="4.444" transform="translate(118.364 98.27)" fill="#f0f0f0"/>
            <rect id="Rectángulo_59484" data-name="Rectángulo 59484" width="94.23" height="4.444" transform="translate(118.364 104.865)" fill="#f0f0f0"/>
            <rect id="Rectángulo_59485" data-name="Rectángulo 59485" width="94.23" height="4.443" transform="translate(118.364 111.462)" fill="#f0f0f0"/>
            <rect id="Rectángulo_59486" data-name="Rectángulo 59486" width="94.23" height="4.444" transform="translate(118.364 118.056)" fill="#f0f0f0"/>
            <rect id="Rectángulo_59487" data-name="Rectángulo 59487" width="94.23" height="4.444" transform="translate(118.364 124.651)" fill="#f0f0f0"/>
            <rect id="Rectángulo_59488" data-name="Rectángulo 59488" width="94.23" height="4.443" transform="translate(118.364 131.247)" fill="#f0f0f0"/>
            <rect id="Rectángulo_59489" data-name="Rectángulo 59489" width="94.23" height="4.444" transform="translate(118.364 137.842)" fill="#f0f0f0"/>
            <rect id="Rectángulo_59490" data-name="Rectángulo 59490" width="94.23" height="4.444" transform="translate(118.364 144.437)" fill="#f0f0f0"/>
            <rect id="Rectángulo_59491" data-name="Rectángulo 59491" width="94.23" height="4.444" transform="translate(118.364 151.032)" fill="#f0f0f0"/>
            <rect id="Rectángulo_59492" data-name="Rectángulo 59492" width="94.23" height="4.444" transform="translate(118.364 157.627)" fill="#f0f0f0"/>
            <rect id="Rectángulo_59493" data-name="Rectángulo 59493" width="94.23" height="4.444" transform="translate(118.364 164.223)" fill="#f0f0f0"/>
            <rect id="Rectángulo_59494" data-name="Rectángulo 59494" width="94.23" height="4.444" transform="translate(118.364 170.818)" fill="#f0f0f0"/>
            <rect id="Rectángulo_59495" data-name="Rectángulo 59495" width="94.23" height="4.443" transform="translate(118.364 177.413)" fill="#f0f0f0"/>
            <rect id="Rectángulo_59496" data-name="Rectángulo 59496" width="94.23" height="4.444" transform="translate(118.364 184.007)" fill="#f0f0f0"/>
            <rect id="Rectángulo_59497" data-name="Rectángulo 59497" width="94.23" height="4.443" transform="translate(118.364 190.603)" fill="#f0f0f0"/>
            <rect id="Rectángulo_59498" data-name="Rectángulo 59498" width="94.23" height="4.443" transform="translate(118.364 197.199)" fill="#f0f0f0"/>
            <rect id="Rectángulo_59499" data-name="Rectángulo 59499" width="94.23" height="4.444" transform="translate(118.364 203.793)" fill="#f0f0f0"/>
            <rect id="Rectángulo_59500" data-name="Rectángulo 59500" width="94.23" height="4.444" transform="translate(118.364 210.388)" fill="#f0f0f0"/>
            <rect id="Rectángulo_59501" data-name="Rectángulo 59501" width="94.23" height="4.444" transform="translate(118.364 216.983)" fill="#f0f0f0"/>
            <rect id="Rectángulo_59502" data-name="Rectángulo 59502" width="94.23" height="4.444" transform="translate(118.364 223.579)" fill="#f0f0f0"/>
            <rect id="Rectángulo_59503" data-name="Rectángulo 59503" width="94.23" height="4.444" transform="translate(118.364 230.174)" fill="#f0f0f0"/>
            <rect id="Rectángulo_59504" data-name="Rectángulo 59504" width="94.23" height="4.444" transform="translate(118.364 236.769)" fill="#f0f0f0"/>
            <rect id="Rectángulo_59505" data-name="Rectángulo 59505" width="94.23" height="4.444" transform="translate(118.364 243.364)" fill="#f0f0f0"/>
            <rect id="Rectángulo_59506" data-name="Rectángulo 59506" width="90.073" height="181.11" transform="translate(232.22 64.476)" fill="#fafafa"/>
            <rect id="Rectángulo_59507" data-name="Rectángulo 59507" width="94.23" height="8.887" transform="translate(230.14 62.018)" fill="#f0f0f0"/>
            <rect id="Rectángulo_59508" data-name="Rectángulo 59508" width="94.23" height="0.817" transform="translate(230.14 71.89)" fill="#f0f0f0"/>
            <rect id="Rectángulo_59509" data-name="Rectángulo 59509" width="94.23" height="0.817" transform="translate(230.14 73.746)" fill="#f0f0f0"/>
            <rect id="Rectángulo_59510" data-name="Rectángulo 59510" width="94.23" height="0.817" transform="translate(230.14 75.601)" fill="#f0f0f0"/>
            <rect id="Rectángulo_59511" data-name="Rectángulo 59511" width="94.23" height="0.817" transform="translate(230.14 77.457)" fill="#f0f0f0"/>
            <rect id="Rectángulo_59512" data-name="Rectángulo 59512" width="94.23" height="0.817" transform="translate(230.14 79.312)" fill="#f0f0f0"/>
            <rect id="Rectángulo_59513" data-name="Rectángulo 59513" width="94.23" height="0.817" transform="translate(230.14 81.168)" fill="#f0f0f0"/>
            <rect id="Rectángulo_59514" data-name="Rectángulo 59514" width="94.23" height="0.817" transform="translate(230.14 83.024)" fill="#f0f0f0"/>
            <rect id="Rectángulo_59515" data-name="Rectángulo 59515" width="94.23" height="0.817" transform="translate(230.14 84.879)" fill="#f0f0f0"/>
            <rect id="Rectángulo_59516" data-name="Rectángulo 59516" width="94.23" height="0.817" transform="translate(230.14 86.735)" fill="#f0f0f0"/>
            <rect id="Rectángulo_59517" data-name="Rectángulo 59517" width="94.23" height="0.817" transform="translate(230.14 88.591)" fill="#f0f0f0"/>
            <rect id="Rectángulo_59518" data-name="Rectángulo 59518" width="94.23" height="0.817" transform="translate(230.14 90.446)" fill="#f0f0f0"/>
            <rect id="Rectángulo_59519" data-name="Rectángulo 59519" width="94.23" height="0.817" transform="translate(230.14 92.302)" fill="#f0f0f0"/>
            <rect id="Rectángulo_59520" data-name="Rectángulo 59520" width="94.23" height="0.817" transform="translate(230.14 94.157)" fill="#f0f0f0"/>
            <rect id="Rectángulo_59521" data-name="Rectángulo 59521" width="94.23" height="0.817" transform="translate(230.14 96.013)" fill="#f0f0f0"/>
            <rect id="Rectángulo_59522" data-name="Rectángulo 59522" width="94.23" height="0.817" transform="translate(230.14 97.869)" fill="#f0f0f0"/>
            <rect id="Rectángulo_59523" data-name="Rectángulo 59523" width="94.23" height="0.817" transform="translate(230.14 99.724)" fill="#f0f0f0"/>
            <rect id="Rectángulo_59524" data-name="Rectángulo 59524" width="94.23" height="0.817" transform="translate(230.14 101.58)" fill="#f0f0f0"/>
            <rect id="Rectángulo_59525" data-name="Rectángulo 59525" width="94.23" height="0.817" transform="translate(230.14 103.435)" fill="#f0f0f0"/>
            <path id="Trazado_236833" data-name="Trazado 236833" d="M261.694,39.592A13.432,13.432,0,1,1,248.263,26.16a13.432,13.432,0,0,1,13.432,13.432" transform="translate(-26.895 -2.996)" fill="#f0f0f0"/>
            <path id="Trazado_236834" data-name="Trazado 236834" d="M259.944,39.852a11.421,11.421,0,1,1-11.421-11.421,11.421,11.421,0,0,1,11.421,11.421" transform="translate(-27.156 -3.256)" fill="#fafafa"/>
            <path id="Trazado_236835" data-name="Trazado 236835" d="M248.707,32.481v7.983l-5.291-2.994" transform="translate(-27.879 -3.72)" fill="#f0f0f0"/>
            <path id="Trazado_236836" data-name="Trazado 236836" d="M248.707,32.481v7.983l-5.291-2.994" transform="translate(-27.879 -3.72)" fill="none" stroke="#e0e0e0" stroke-linecap="round" stroke-linejoin="round" stroke-width="2"/>
          </g>
        </g>
        <g id="Grupo_182205" data-name="Grupo 182205">
          <g id="Grupo_182204" data-name="Grupo 182204" clip-path="url(#clip-path)">
            <g id="Grupo_182182" data-name="Grupo 182182" transform="translate(223.235 87.489)" opacity="0.5">
              <g id="Grupo_182181" data-name="Grupo 182181" transform="translate(0 0)">
                <g id="Grupo_182283" data-name="Grupo 182283">
                  <path id="Trazado_236837" data-name="Trazado 236837" d="M417.129,281.888H255.344a3.236,3.236,0,0,1-3.236-3.235V102.041a3.236,3.236,0,0,1,3.236-3.236H417.129a3.236,3.236,0,0,1,3.236,3.236V278.653a3.236,3.236,0,0,1-3.236,3.235" transform="translate(-252.109 -98.805)" fill="#afafaf"/>
                </g>
              </g>
            </g>
            <path id="Trazado_236838" data-name="Trazado 236838" d="M411.129,277.888H249.344a3.236,3.236,0,0,1-3.236-3.235V98.041a3.236,3.236,0,0,1,3.236-3.236H411.129a3.236,3.236,0,0,1,3.236,3.236V274.653a3.236,3.236,0,0,1-3.236,3.235" transform="translate(-28.187 -10.858)" fill="#407bff"/>
            <g id="Grupo_182185" data-name="Grupo 182185" transform="translate(217.922 83.947)" opacity="0.8" style="isolation: isolate">
              <g id="Grupo_182184" data-name="Grupo 182184">
                <g id="Grupo_182183" data-name="Grupo 182183" clip-path="url(#clip-path-4)">
                  <path id="Trazado_236839" data-name="Trazado 236839" d="M411.129,277.888H249.344a3.236,3.236,0,0,1-3.236-3.235V98.041a3.236,3.236,0,0,1,3.236-3.236H411.129a3.236,3.236,0,0,1,3.236,3.236V274.653a3.236,3.236,0,0,1-3.236,3.235" transform="translate(-246.109 -94.805)" fill="#afafaf"/>
                </g>
              </g>
            </g>
            <g id="Grupo_182188" data-name="Grupo 182188" transform="translate(82.108 83.161)" opacity="0.5">
              <g id="Grupo_182187" data-name="Grupo 182187" transform="translate(0 0)">
                <g id="Grupo_182282" data-name="Grupo 182282">
                  <path id="Trazado_236840" data-name="Trazado 236840" d="M178.056,250.435H95.964a3.235,3.235,0,0,1-3.236-3.235V97.152a3.235,3.235,0,0,1,3.236-3.235h82.093a3.235,3.235,0,0,1,3.236,3.235V247.2a3.235,3.235,0,0,1-3.236,3.235" transform="translate(-92.728 -93.917)" fill="#12263f"/>
                </g>
              </g>
            </g>
            <path id="Trazado_236841" data-name="Trazado 236841" d="M172.056,244.435H89.964a3.235,3.235,0,0,1-3.236-3.235V91.152a3.235,3.235,0,0,1,3.236-3.235h82.093a3.235,3.235,0,0,1,3.235,3.235V241.2a3.235,3.235,0,0,1-3.235,3.235" transform="translate(-9.933 -10.069)" fill="#407bff"/>
            <g id="Grupo_182191" data-name="Grupo 182191" transform="translate(76.795 77.848)" opacity="0.8" style="isolation: isolate">
              <g id="Grupo_182190" data-name="Grupo 182190">
                <g id="Grupo_182189" data-name="Grupo 182189" clip-path="url(#clip-path-5)">
                  <path id="Trazado_236842" data-name="Trazado 236842" d="M172.056,244.435H89.964a3.235,3.235,0,0,1-3.236-3.235V91.152a3.235,3.235,0,0,1,3.236-3.235h82.093a3.235,3.235,0,0,1,3.235,3.235V241.2a3.235,3.235,0,0,1-3.235,3.235" transform="translate(-86.728 -87.917)" fill="#afafaf"/>
                </g>
              </g>
            </g>
            <path id="Trazado_236843" data-name="Trazado 236843" d="M393.406,56.948H90.139a3.411,3.411,0,0,1-3.411-3.411V39.767a3.411,3.411,0,0,1,3.411-3.411H393.406a3.411,3.411,0,0,1,3.411,3.411V53.538a3.411,3.411,0,0,1-3.411,3.411" transform="translate(-9.933 -4.164)" fill="#373f51"/>
            <g id="Grupo_182194" data-name="Grupo 182194" transform="translate(347.469 38.471)" opacity="0.6" style="isolation: isolate">
              <g id="Grupo_182193" data-name="Grupo 182193">
                <g id="Grupo_182192" data-name="Grupo 182192" clip-path="url(#clip-path-6)">
                  <path id="Trazado_236844" data-name="Trazado 236844" d="M400.36,47.464a3.974,3.974,0,1,1-3.974-4.017,4,4,0,0,1,3.974,4.017" transform="translate(-392.412 -43.447)" fill="#fff"/>
                </g>
              </g>
            </g>
            <g id="Grupo_182197" data-name="Grupo 182197" transform="translate(359.898 38.471)" opacity="0.6" style="isolation: isolate">
              <g id="Grupo_182196" data-name="Grupo 182196">
                <g id="Grupo_182195" data-name="Grupo 182195" clip-path="url(#clip-path-6)">
                  <path id="Trazado_236845" data-name="Trazado 236845" d="M414.4,47.464a3.974,3.974,0,1,1-3.974-4.017,4,4,0,0,1,3.974,4.017" transform="translate(-406.449 -43.447)" fill="#fff"/>
                </g>
              </g>
            </g>
            <g id="Grupo_182200" data-name="Grupo 182200" transform="translate(372.327 38.471)" opacity="0.6" style="isolation: isolate">
              <g id="Grupo_182199" data-name="Grupo 182199">
                <g id="Grupo_182198" data-name="Grupo 182198" clip-path="url(#clip-path-6)">
                  <path id="Trazado_236846" data-name="Trazado 236846" d="M428.434,47.464a3.974,3.974,0,1,1-3.974-4.017,4,4,0,0,1,3.974,4.017" transform="translate(-420.486 -43.447)" fill="#fff"/>
                </g>
              </g>
            </g>
            <g id="Grupo_182203" data-name="Grupo 182203" transform="translate(84.025 37.323)" opacity="0.6" style="isolation: isolate">
              <g id="Grupo_182202" data-name="Grupo 182202">
                <g id="Grupo_182201" data-name="Grupo 182201" clip-path="url(#clip-path-9)">
                  <rect id="Rectángulo_59534" data-name="Rectángulo 59534" width="10.217" height="10.33" transform="translate(0)" fill="#fff"/>
                </g>
              </g>
            </g>
          </g>
        </g>
        <rect id="Rectángulo_59537" data-name="Rectángulo 59537" width="95.485" height="18.266" transform="translate(64.347 102.796)" fill="#373f51"/>
        <rect id="Rectángulo_59541" data-name="Rectángulo 59541" width="7.627" height="7.627" transform="translate(70.466 108.116)" fill="#fff"/>
        <path id="Trazado_236847" data-name="Trazado 236847" d="M81.464,126.184l1.421,1.831,2.868-3.7" transform="translate(-9.33 -14.239)" fill="none" stroke="#12263f" stroke-linecap="round" stroke-linejoin="round" stroke-width="1.5"/>
        <g id="Grupo_182221" data-name="Grupo 182221">
          <g id="Grupo_182220" data-name="Grupo 182220" clip-path="url(#clip-path)">
            <path id="Trazado_236848" data-name="Trazado 236848" d="M173.835,130.073h-7.668v-5.184h7.668Zm-3.834-9a3.256,3.256,0,0,0-3.252,3.252h.885a2.367,2.367,0,1,1,4.734,0h.885A3.256,3.256,0,0,0,170,121.076" transform="translate(-19.031 -13.867)" fill="#fff"/>
            <rect id="Rectángulo_59542" data-name="Rectángulo 59542" width="95.485" height="18.266" transform="translate(50.316 136.56)" fill="#f4a338"/>
            <rect id="Rectángulo_59545" data-name="Rectángulo 59545" width="7.627" height="7.627" transform="translate(56.434 141.88)" fill="#fff"/>
            <rect id="Rectángulo_59546" data-name="Rectángulo 59546" width="7.668" height="5.184" transform="translate(133.104 144.786)" fill="#fff"/>
            <path id="Trazado_236849" data-name="Trazado 236849" d="M157.483,162.459H156.6a2.367,2.367,0,0,0-4.735,0h-.885a3.253,3.253,0,0,1,6.506,0" transform="translate(-17.292 -18.234)" fill="#fff"/>
            <rect id="Rectángulo_59547" data-name="Rectángulo 59547" width="95.485" height="18.266" transform="translate(64.842 171.91)" fill="#4adbd1"/>
            <rect id="Rectángulo_59550" data-name="Rectángulo 59550" width="7.627" height="7.627" transform="translate(70.961 177.23)" fill="#fff"/>
            <path id="Trazado_236850" data-name="Trazado 236850" d="M82.023,204.238l1.421,1.83,2.868-3.694" transform="translate(-9.394 -23.178)" fill="none" stroke="#4adbd1" stroke-linecap="round" stroke-linejoin="round" stroke-width="1.5"/>
            <g id="Grupo_182219" data-name="Grupo 182219" transform="translate(147.63 176.323)" opacity="0.6" style="isolation: isolate">
              <g id="Grupo_182218" data-name="Grupo 182218">
                <g id="Grupo_182217" data-name="Grupo 182217" clip-path="url(#clip-path-12)">
                  <rect id="Rectángulo_59551" data-name="Rectángulo 59551" width="7.668" height="5.184" transform="translate(0 3.814)" fill="#fff"/>
                  <path id="Trazado_236851" data-name="Trazado 236851" d="M173.888,202.383H173a2.367,2.367,0,1,0-4.735,0h-.885a3.253,3.253,0,1,1,6.506,0" transform="translate(-166.8 -199.13)" fill="#fff"/>
                </g>
              </g>
            </g>
          </g>
        </g>
        <rect id="Rectángulo_59554" data-name="Rectángulo 59554" width="74.563" height="48.496" transform="translate(289.519 152.002)" fill="#afafaf"/>
        <rect id="Rectángulo_59558" data-name="Rectángulo 59558" width="69.107" height="36.978" transform="translate(292.246 161.096)" fill="#f6f6f6"/>
        <rect id="Rectángulo_59559" data-name="Rectángulo 59559" width="51.12" height="1.591" transform="translate(297.878 166.62)" fill="#fff"/>
        <rect id="Rectángulo_59560" data-name="Rectángulo 59560" width="24.527" height="1.59" transform="translate(297.878 171.493)" fill="#fff"/>
        <rect id="Rectángulo_59561" data-name="Rectángulo 59561" width="30.892" height="1.59" transform="translate(297.878 176.365)" fill="#fff"/>
        <rect id="Rectángulo_59562" data-name="Rectángulo 59562" width="10.888" height="1.59" transform="translate(297.878 181.237)" fill="#fff"/>
        <rect id="Rectángulo_59563" data-name="Rectángulo 59563" width="7.051" height="1.591" transform="translate(297.878 186.108)" fill="#fff"/>
        <g id="Grupo_182234" data-name="Grupo 182234">
          <g id="Grupo_182233" data-name="Grupo 182233" clip-path="url(#clip-path)">
            <path id="Trazado_236852" data-name="Trazado 236852" d="M408.3,278.727v27.039a3.047,3.047,0,0,1-2.6,3.02,2.356,2.356,0,0,1-.458.039H370.507a3.059,3.059,0,0,1-3.059-3.059V278.727a2.933,2.933,0,0,1,.312-1.335,3.05,3.05,0,0,1,2.748-1.734h13.611a3.087,3.087,0,0,0,1.8-.584,3,3,0,0,0,1.111-1.52,3.065,3.065,0,0,1,2.913-2.115H397.2a3.057,3.057,0,0,1,2.913,2.115,3.06,3.06,0,0,0,2.913,2.1h2.222a3.066,3.066,0,0,1,3.059,3.069" transform="translate(-42.084 -31.088)" fill="#c17d23"/>
            <g id="Grupo_182229" data-name="Grupo 182229" transform="translate(325.364 246.304)" style="isolation: isolate">
              <g id="Grupo_182228" data-name="Grupo 182228">
                <g id="Grupo_182227" data-name="Grupo 182227" clip-path="url(#clip-path-15)">
                  <path id="Trazado_236853" data-name="Trazado 236853" d="M405.7,280.774v28.782l-.039.039H370.506a3.059,3.059,0,0,1-3.059-3.06V279.5a2.929,2.929,0,0,1,.312-1.335h35.329a2.612,2.612,0,0,1,2.612,2.612" transform="translate(-367.448 -278.162)" fill="#f4a338"/>
                </g>
              </g>
            </g>
            <path id="Trazado_236854" data-name="Trazado 236854" d="M315.982,234.718v33.816l-6.606,6.606H285.15V234.718Z" transform="translate(-32.659 -26.883)" fill="#afafaf"/>
            <path id="Trazado_236856" data-name="Trazado 236856" d="M319.116,272.908H312.51v6.606Z" transform="translate(-35.792 -31.257)" fill="#e8e8e8"/>
            <rect id="Rectángulo_59566" data-name="Rectángulo 59566" width="23.249" height="1.269" transform="translate(256.335 214.695)" fill="#e8e8e8"/>
            <rect id="Rectángulo_59567" data-name="Rectángulo 59567" width="19.558" height="1.269" transform="translate(256.336 218.58)" fill="#e8e8e8"/>
            <rect id="Rectángulo_59568" data-name="Rectángulo 59568" width="23.249" height="1.268" transform="translate(256.335 222.465)" fill="#e8e8e8"/>
            <rect id="Rectángulo_59569" data-name="Rectángulo 59569" width="8.682" height="1.269" transform="translate(256.336 226.35)" fill="#e8e8e8"/>
            <rect id="Rectángulo_59570" data-name="Rectángulo 59570" width="5.622" height="1.269" transform="translate(256.336 230.235)" fill="#e8e8e8"/>
          </g>
        </g>
        <rect id="Rectángulo_59572" data-name="Rectángulo 59572" width="63.034" height="52.084" transform="translate(241.072 78.761)" fill="#afafaf"/>
        <g id="Grupo_182245" data-name="Grupo 182245">
          <g id="Grupo_182244" data-name="Grupo 182244" clip-path="url(#clip-path)">
            <g id="Grupo_182237" data-name="Grupo 182237" transform="translate(241.072 78.762)" opacity="0.6" style="isolation: isolate">
              <g id="Grupo_182236" data-name="Grupo 182236">
                <g id="Grupo_182235" data-name="Grupo 182235" clip-path="url(#clip-path-17)">
                  <path id="Trazado_236857" data-name="Trazado 236857" d="M272.254,141.032h63.034V88.948H272.254Zm60.977-2.056H274.309V91h58.922Z" transform="translate(-272.254 -88.949)" fill="#fff"/>
                </g>
              </g>
            </g>
            <g id="Grupo_182240" data-name="Grupo 182240" transform="translate(243.128 101.445)" opacity="0.3" style="isolation: isolate">
              <g id="Grupo_182239" data-name="Grupo 182239">
                <g id="Grupo_182238" data-name="Grupo 182238" clip-path="url(#clip-path-18)">
                  <path id="Trazado_236858" data-name="Trazado 236858" d="M274.576,127.695l18.07-13.128,13.421,13.128,13.422-7.676,14.009,8.626v13.266H274.576Z" transform="translate(-274.576 -114.567)" fill="#fff"/>
                </g>
              </g>
            </g>
            <g id="Grupo_182243" data-name="Grupo 182243" transform="translate(277.06 88.333)" opacity="0.6" style="isolation: isolate">
              <g id="Grupo_182242" data-name="Grupo 182242">
                <g id="Grupo_182241" data-name="Grupo 182241" clip-path="url(#clip-path-19)">
                  <path id="Trazado_236859" data-name="Trazado 236859" d="M321.528,104.076a4.316,4.316,0,1,1-4.317-4.316,4.316,4.316,0,0,1,4.317,4.316" transform="translate(-312.896 -99.759)" fill="#fff"/>
                </g>
              </g>
            </g>
          </g>
        </g>
        <path id="Trazado_236860" data-name="Trazado 236860" d="M347.858,150.213v1.771h-1.771" transform="translate(-39.638 -17.204)" fill="none" stroke="#263238" stroke-miterlimit="10" stroke-width="1"/>
        <line id="Línea_1952" data-name="Línea 1952" x1="63.403" transform="translate(240.269 134.78)" fill="none" stroke="#263238" stroke-miterlimit="10" stroke-width="1" stroke-dasharray="4.181 3.136"/>
        <path id="Trazado_236861" data-name="Trazado 236861" d="M269.55,151.984H267.78v-1.771" transform="translate(-30.669 -17.204)" fill="none" stroke="#263238" stroke-miterlimit="10" stroke-width="1"/>
        <line id="Línea_1953" data-name="Línea 1953" y1="52.48" transform="translate(237.11 77.969)" fill="none" stroke="#263238" stroke-miterlimit="10" stroke-width="1" stroke-dasharray="3.855 2.891"/>
        <path id="Trazado_236862" data-name="Trazado 236862" d="M267.78,86.379V84.608h1.771" transform="translate(-30.669 -9.69)" fill="none" stroke="#263238" stroke-miterlimit="10" stroke-width="1"/>
        <line id="Línea_1954" data-name="Línea 1954" x2="63.403" transform="translate(241.658 74.918)" fill="none" stroke="#263238" stroke-miterlimit="10" stroke-width="1" stroke-dasharray="4.181 3.136"/>
        <path id="Trazado_236863" data-name="Trazado 236863" d="M346.087,84.608h1.771v1.771" transform="translate(-39.638 -9.69)" fill="none" stroke="#263238" stroke-miterlimit="10" stroke-width="1"/>
        <line id="Línea_1955" data-name="Línea 1955" y2="52.48" transform="translate(308.22 79.249)" fill="none" stroke="#263238" stroke-miterlimit="10" stroke-width="1" stroke-dasharray="3.855 2.891"/>
        <rect id="Rectángulo_59577" data-name="Rectángulo 59577" width="2.793" height="2.793" transform="translate(306.824 73.521)" fill="#263238"/>
        <rect id="Rectángulo_59578" data-name="Rectángulo 59578" width="2.793" height="2.793" transform="translate(306.824 133.383)" fill="#263238"/>
        <rect id="Rectángulo_59579" data-name="Rectángulo 59579" width="2.793" height="2.793" transform="translate(235.714 133.383)" fill="#263238"/>
        <rect id="Rectángulo_59580" data-name="Rectángulo 59580" width="2.793" height="2.793" transform="translate(235.714 73.521)" fill="#263238"/>
        <rect id="Rectángulo_59581" data-name="Rectángulo 59581" width="2.793" height="2.793" transform="translate(271.193 73.521)" fill="#263238"/>
        <rect id="Rectángulo_59582" data-name="Rectángulo 59582" width="2.793" height="2.793" transform="translate(271.269 133.383)" fill="#263238"/>
        <rect id="Rectángulo_59583" data-name="Rectángulo 59583" width="2.793" height="2.793" transform="translate(306.824 103.452)" fill="#263238"/>
        <rect id="Rectángulo_59584" data-name="Rectángulo 59584" width="2.793" height="2.793" transform="translate(235.714 103.452)" fill="#263238"/>
        <g id="Grupo_182247" data-name="Grupo 182247">
          <g id="Grupo_182246" data-name="Grupo 182246" clip-path="url(#clip-path)">
            <path id="Trazado_236864" data-name="Trazado 236864" d="M172.969,181.667l-9.42,7.651s-2.3.048-3.027.808-3.5,6.414-3.11,7.186,5.044,2.3,6.024,1.383,2.682-6.143,2.649-6.7l12.038-8.075Z" transform="translate(-18.024 -20.807)" fill="#ebb376"/>
            <path id="Trazado_236865" data-name="Trazado 236865" d="M169.284,181.545l2.107,4.6s12.954-6.065,15.761-9.6c.717-.912,1.709-2.364,2.78-4.02,1.762-2.736,3.754-6.03,5.136-8.341,1.027-1.727,1.718-2.9,1.718-2.9l-7.332-11.564c-1.6,1.231-6.508,20.994-7.385,22.057s-12.786,9.776-12.786,9.776" transform="translate(-19.388 -17.147)" fill="#e8e8e8"/>
          </g>
        </g>
        <g id="Grupo_182252" data-name="Grupo 182252" transform="translate(149.897 132.565)">
          <g id="Grupo_182251" data-name="Grupo 182251" clip-path="url(#clip-path-21)">
            <g id="Grupo_182250" data-name="Grupo 182250" transform="translate(20.643 6.057)" opacity="0.1" style="isolation: isolate">
              <g id="Grupo_182249" data-name="Grupo 182249">
                <g id="Grupo_182248" data-name="Grupo 182248" clip-path="url(#clip-path-22)">
                  <path id="Trazado_236866" data-name="Trazado 236866" d="M192.6,173.305c1.762-2.736,3.754-6.03,5.136-8.341l-3.409-8.412s-1.851,9.652-1.727,16.753" transform="translate(-192.598 -156.552)"/>
                </g>
              </g>
            </g>
          </g>
        </g>
        <g id="Grupo_182272" data-name="Grupo 182272">
          <g id="Grupo_182271" data-name="Grupo 182271" clip-path="url(#clip-path)">
            <path id="Trazado_236868" data-name="Trazado 236868" d="M260.048,130.9l9.285-7.207s.751-2.178,1.7-2.634,7.179-1.372,7.793-.76.64,5.5-.528,6.158-6.669.672-7.191.469l-10.141,7.409Z" transform="translate(-29.784 -13.755)" fill="#ebb376"/>
            <path id="Trazado_236869" data-name="Trazado 236869" d="M171.525,354l5.558.981,2.28-7.579,2.08-6.956-6.409-2.238-1.861,8.361Z" transform="translate(-19.645 -38.736)" fill="#ebb376"/>
            <g id="Grupo_182255" data-name="Grupo 182255" transform="translate(153.497 299.513)" opacity="0.2" style="isolation: isolate">
              <g id="Grupo_182254" data-name="Grupo 182254">
                <g id="Grupo_182253" data-name="Grupo 182253" clip-path="url(#clip-path-24)">
                  <path id="Trazado_236870" data-name="Trazado 236870" d="M173.351,346.747l6.194.816,2.093-7.032-6.4-2.277Z" transform="translate(-173.351 -338.253)"/>
                </g>
              </g>
            </g>
            <path id="Trazado_236871" data-name="Trazado 236871" d="M213.433,354.178h5.644L220,346.6l.839-7.069-6.7-1.018-.379,8.306Z" transform="translate(-24.445 -38.771)" fill="#ebb376"/>
            <g id="Grupo_182258" data-name="Grupo 182258" transform="translate(189.319 299.857)" opacity="0.2" style="isolation: isolate">
              <g id="Grupo_182257" data-name="Grupo 182257">
                <g id="Grupo_182256" data-name="Grupo 182256" clip-path="url(#clip-path-25)">
                  <path id="Trazado_236872" data-name="Trazado 236872" d="M213.806,347.334l6.241-.275.839-7.289-6.7-1.128Z" transform="translate(-213.806 -338.642)"/>
                </g>
              </g>
            </g>
            <path id="Trazado_236873" data-name="Trazado 236873" d="M172.76,323.57l9.138,1.611c9.22-22.973,15.78-42.15,20.411-58.064,2.5-8.587,4.473-16.223,5.966-23l-.385,25.009v56.411h9.215c22.572-107.142,6.575-132.05,6.575-132.05l-27-4.514a122.921,122.921,0,0,0-2.261,15.163l-1.218,8.955L182.64,267.613Z" transform="translate(-19.786 -21.644)" fill="#263238"/>
            <path id="Trazado_236874" data-name="Trazado 236874" d="M183.232,341.037,171.9,337.28l.154,4.821,9.374,2.989Z" transform="translate(-19.688 -38.629)" fill="#407bff"/>
            <g id="Grupo_182261" data-name="Grupo 182261" transform="translate(152.209 298.651)" opacity="0.6" style="isolation: isolate">
              <g id="Grupo_182260" data-name="Grupo 182260">
                <g id="Grupo_182259" data-name="Grupo 182259" clip-path="url(#clip-path-26)">
                  <path id="Trazado_236875" data-name="Trazado 236875" d="M183.232,341.037,171.9,337.28l.154,4.821,9.374,2.989Z" transform="translate(-171.897 -337.28)" fill="#fff"/>
                </g>
              </g>
            </g>
            <path id="Trazado_236876" data-name="Trazado 236876" d="M222.68,341.892l-11.816-1.729.99,4.72,9.751,1.315Z" transform="translate(-24.151 -38.959)" fill="#407bff"/>
            <g id="Grupo_182264" data-name="Grupo 182264" transform="translate(186.714 301.203)" opacity="0.6" style="isolation: isolate">
              <g id="Grupo_182263" data-name="Grupo 182263">
                <g id="Grupo_182262" data-name="Grupo 182262" clip-path="url(#clip-path-27)">
                  <path id="Trazado_236877" data-name="Trazado 236877" d="M222.68,341.892l-11.816-1.729.99,4.72,9.751,1.315Z" transform="translate(-210.865 -340.162)" fill="#fff"/>
                </g>
              </g>
            </g>
            <g id="Grupo_182267" data-name="Grupo 182267" transform="translate(181.279 191.098)" opacity="0.2" style="isolation: isolate">
              <g id="Grupo_182266" data-name="Grupo 182266">
                <g id="Grupo_182265" data-name="Grupo 182265" clip-path="url(#clip-path-28)">
                  <path id="Trazado_236878" data-name="Trazado 236878" d="M204.727,274.4c.426-1.426.879-2.829,1.28-4.206,2.261-7.794,3.773-14.8,5.544-21.1v-.017l.924-11.583s-5.777-12.726-3.615-21.68c-.2.509-4.023,10.264-2.521,20.011a283.885,283.885,0,0,1-1.612,38.57" transform="translate(-204.727 -215.816)"/>
                </g>
              </g>
            </g>
            <path id="Trazado_236879" data-name="Trazado 236879" d="M203.009,133.529a1.305,1.305,0,0,0,.236.129,9.965,9.965,0,0,0,3.679,1.242c3.768.367,6.2-.459,7.617-2.325h.008c1.96-2.78,1.96-7.253.947-12.515a20.064,20.064,0,0,0-1.966-6.045c-.01-.015-.018-.076-.028-.092-.042-.062-.079-.151-.12-.213a7.3,7.3,0,0,0-5.9-3.728,14.81,14.81,0,0,0-3.181.057c-10.358,1.239-9.99,18.614-1.294,23.491" transform="translate(-22.506 -12.589)" fill="#ebb376"/>
            <g id="Grupo_182270" data-name="Grupo 182270" transform="translate(180.739 119.696)" opacity="0.2" style="isolation: isolate">
              <g id="Grupo_182269" data-name="Grupo 182269">
                <g id="Grupo_182268" data-name="Grupo 182268" clip-path="url(#clip-path-29)">
                  <path id="Trazado_236880" data-name="Trazado 236880" d="M204.117,136.55a9.676,9.676,0,0,0,3.66,1.1c3.768.368,6.186-.577,7.6-2.47a10.4,10.4,0,0,1-6.632.316,5.422,5.422,0,0,0-4.625,1.056" transform="translate(-204.117 -135.178)"/>
                </g>
              </g>
            </g>
            <path id="Trazado_236881" data-name="Trazado 236881" d="M203.162,144.794c-.93,2.894,2.78,4.473,2.78,4.473,6.525-2.059,8.014-5.276,8.014-5.276-4.957-3.236-2.688-10.795-2.688-10.795l-1.115.419-7.6.727s1.68,4.175,1.865,5.107c0,.008.007.017.006.026.939,4.872-1.26,5.318-1.26,5.318" transform="translate(-23.198 -15.255)" fill="#ebb376"/>
            <path id="Trazado_236882" data-name="Trazado 236882" d="M212.8,113.637s1.514,7.18-4.954,11.19c0,0-1.971,7.92-6.3,8.592-5.905.916-12.224-6.834-11.289-15.687,1.212-11.48,17.962-14.581,22.546-4.094" transform="translate(-21.779 -12.281)" fill="#263238"/>
            <path id="Trazado_236883" data-name="Trazado 236883" d="M213.2,123.915c-.15-1.132-1.307-2.913-3.032-2.426-1.786.5-2.211,5.122,2.393,5.543.661.06.951-.756.638-3.117" transform="translate(-23.927 -13.905)" fill="#ebb376"/>
            <path id="Trazado_236884" data-name="Trazado 236884" d="M219.425,354.995h-6.3a.575.575,0,0,0-.559.451l-1.294,5.841a.968.968,0,0,0,.746,1.148,1.02,1.02,0,0,0,.213.02c2.578-.042,2.786-.2,6.025-.2,1.994,0,8.011.209,10.765.209s3.112-2.721,1.986-2.971c-5.057-1.1-8.864-2.629-10.482-4.081a1.581,1.581,0,0,0-1.1-.417" transform="translate(-24.195 -40.658)" fill="#263238"/>
            <path id="Trazado_236885" data-name="Trazado 236885" d="M220.975,355.837a.159.159,0,0,1-.117-.134.142.142,0,0,1,.075-.15c.234-.15,2.354-1.452,3.08-1.077a.467.467,0,0,1,.266.434.917.917,0,0,1-.325.834,1.955,1.955,0,0,1-1.261.334,7.824,7.824,0,0,1-1.719-.242m.451-.217a3.188,3.188,0,0,0,2.337-.117.643.643,0,0,0,.208-.56c-.008-.125-.058-.183-.1-.183a.365.365,0,0,0-.2-.042,6.366,6.366,0,0,0-2.245.9" transform="translate(-25.295 -40.591)" fill="#407bff"/>
            <path id="Trazado_236886" data-name="Trazado 236886" d="M220.934,355.679a.168.168,0,0,1-.075-.143c.008-.091.166-1.977.926-2.594a.833.833,0,0,1,.659-.2.51.51,0,0,1,.5.409c.134.692-1.177,2.137-1.852,2.5h-.075a.141.141,0,0,1-.083.025m1.051-2.554a3.677,3.677,0,0,0-.776,2.053c.676-.509,1.51-1.6,1.427-2.028-.008-.042-.025-.159-.225-.159h-.075a.537.537,0,0,0-.351.134" transform="translate(-25.295 -40.399)" fill="#407bff"/>
            <path id="Trazado_236887" data-name="Trazado 236887" d="M176.989,354.995h-6.3a.575.575,0,0,0-.559.451l-1.294,5.841a.968.968,0,0,0,.747,1.148,1.014,1.014,0,0,0,.213.02c2.578-.042,2.786-.2,6.024-.2,1.994,0,8.011.209,10.765.209s3.112-2.721,1.986-2.971c-5.057-1.1-8.863-2.629-10.481-4.081a1.583,1.583,0,0,0-1.1-.417" transform="translate(-19.335 -40.658)" fill="#263238"/>
            <path id="Trazado_236888" data-name="Trazado 236888" d="M178.539,355.837a.159.159,0,0,1-.117-.134.142.142,0,0,1,.075-.15c.234-.15,2.354-1.452,3.08-1.077a.467.467,0,0,1,.267.434.917.917,0,0,1-.325.834,1.956,1.956,0,0,1-1.261.334,7.824,7.824,0,0,1-1.719-.242m.451-.217a3.187,3.187,0,0,0,2.337-.117.643.643,0,0,0,.208-.56c-.008-.125-.058-.183-.1-.183a.364.364,0,0,0-.2-.042,6.366,6.366,0,0,0-2.245.9" transform="translate(-20.435 -40.591)" fill="#407bff"/>
            <path id="Trazado_236889" data-name="Trazado 236889" d="M178.5,355.679a.168.168,0,0,1-.075-.143c.008-.091.166-1.977.926-2.594a.833.833,0,0,1,.659-.2.51.51,0,0,1,.5.409c.133.692-1.177,2.137-1.852,2.5h-.075a.141.141,0,0,1-.083.025m1.051-2.554a3.677,3.677,0,0,0-.776,2.053c.676-.509,1.51-1.6,1.426-2.028-.008-.042-.025-.159-.225-.159H179.9a.537.537,0,0,0-.351.134" transform="translate(-20.435 -40.399)" fill="#407bff"/>
            <path id="Trazado_236890" data-name="Trazado 236890" d="M225.892,188.3s5.152-31.389-3.7-45.462c0,0-17.684-1.1-30.125,6.082,0,0,5.141,13.974,5.906,39.379Z" transform="translate(-21.997 -16.352)" fill="#afafaf"/>
          </g>
        </g>
        <g id="Grupo_182277" data-name="Grupo 182277" transform="translate(170.068 126.425)">
          <g id="Grupo_182276" data-name="Grupo 182276" clip-path="url(#clip-path-30)">
            <g id="Grupo_182275" data-name="Grupo 182275" transform="translate(28.434 2.892)" opacity="0.1" style="isolation: isolate">
              <g id="Grupo_182274" data-name="Grupo 182274">
                <g id="Grupo_182273" data-name="Grupo 182273" clip-path="url(#clip-path-31)">
                  <path id="Trazado_236891" data-name="Trazado 236891" d="M231.183,164.651c.381-4.259-.851-8.359-1.063-11.972a34.741,34.741,0,0,1-5.821-6.637s-1.611,12.715,6.884,18.608" transform="translate(-224.177 -146.043)"/>
                </g>
              </g>
            </g>
          </g>
        </g>
        <g id="Grupo_182279" data-name="Grupo 182279">
          <g id="Grupo_182278" data-name="Grupo 182278" clip-path="url(#clip-path)">
            <path id="Trazado_236893" data-name="Trazado 236893" d="M223.577,141.19s17.524-2.054,20.16-3.159c1.651-.692,14.531-9.11,14.531-9.11l3.02,4.5s-13.179,10.643-15.407,11.866c-5.226,2.871-16.968,6.918-16.968,6.918s-7.1-4.931-5.337-11.012" transform="translate(-25.574 -14.765)" fill="#f6f6f6"/>
            <path id="Trazado_236894" data-name="Trazado 236894" d="M211.146,118.018s7.284-7.284.415-12.188-13.774,1.494-13.774,1.494-16.442,3.971-12.942,14.9,5.787,11.861.581,17.467-10.526,13.911-5.2,19.216,23.922-.152,29.568-8.166-4.332-25.207,1.357-32.723" transform="translate(-20.388 -11.909)" fill="#263238"/>
            <path id="Trazado_236895" data-name="Trazado 236895" d="M198.721,193.8l-.112-2.977,28.355.72V194.3Z" transform="translate(-22.747 -21.855)"/>
            <rect id="Rectángulo_59595" data-name="Rectángulo 59595" width="1.142" height="2.933" transform="translate(183.821 169.171)" fill="#263238"/>
            <rect id="Rectángulo_59596" data-name="Rectángulo 59596" width="1.009" height="3.201" transform="translate(197.044 169.508)" fill="#263238"/>
            <rect id="Rectángulo_59597" data-name="Rectángulo 59597" width="0.964" height="3.429" transform="translate(176.641 169.014)" fill="#263238"/>
          </g>
        </g>
      </g>
    </g>
    <g id="Grupo_888881" data-name="Grupo 888881" transform="translate(-10750 12413.854)">
      <rect id="Rectángulo_300042" data-name="Rectángulo 300042" width="78.802" height="64.198" transform="translate(12045.807 -11692.356)" fill="#e0e0e0"/>
      <rect id="Rectángulo_300043" data-name="Rectángulo 300043" width="78.802" height="64.198" transform="translate(12040.203 -11688.275)" fill="#ebebeb"/>
      <rect id="Rectángulo_300044" data-name="Rectángulo 300044" width="80.904" height="65.91" transform="translate(12032.483 -11683.807)" fill="#fff"/>
      <g id="Grupo_888879" data-name="Grupo 888879" transform="translate(11909 -11749.994)">
        <path id="Trazado_605407" data-name="Trazado 605407" d="M300.374,183.5s-.009-.418-.013-1.215-.008-1.981-.014-3.519c-.007-3.082-.018-7.6-.032-13.355-.015-11.506-.037-27.968-.063-47.821l.122.122-80.9.024h-.007l.146-.146c-.006,23.834-.011,46.339-.016,65.91l-.13-.13,58.462.065,16.543.035,4.383.015,1.129.008c.255,0,.387.007.387.007s-.123.005-.372.007l-1.115.008-4.357.015-16.513.035-58.546.065h-.13V183.5c-.005-19.572-.01-42.077-.016-65.91v-.147h.154l80.9.024h.122v.123c-.026,19.885-.048,36.374-.063,47.9-.013,5.746-.024,10.252-.031,13.328-.006,1.528-.011,2.7-.014,3.5s-.014,1.189-.014,1.189" transform="translate(-95.986 -51.396)" fill="#263238"/>
        <path id="Trazado_605408" data-name="Trazado 605408" d="M236.152,134.384l-.868.318.868.316v.326l-1.241-.472v-.339l1.241-.472Z" transform="translate(-102.808 -58.671)" fill="#12263f"/>
        <path id="Trazado_605409" data-name="Trazado 605409" d="M239.457,133.578V135.4h-.423v-.749H238.2v.749h-.423v-1.826h.423v.72h.829v-.72Z" transform="translate(-104.065 -58.46)" fill="#12263f"/>
        <path id="Trazado_605410" data-name="Trazado 605410" d="M241.745,133.922h-.584v-.344h1.591v.344h-.584V135.4h-.423Z" transform="translate(-105.544 -58.46)" fill="#12263f"/>
        <path id="Trazado_605411" data-name="Trazado 605411" d="M246.053,135.4l0-1.1-.537.9h-.191l-.535-.879V135.4h-.4v-1.826h.35l.683,1.135.673-1.135h.346l.006,1.826Z" transform="translate(-106.957 -58.46)" fill="#12263f"/>
        <path id="Trazado_605412" data-name="Trazado 605412" d="M248.816,133.578h.423v1.482h.916v.344h-1.338Z" transform="translate(-108.894 -58.46)" fill="#12263f"/>
        <path id="Trazado_605413" data-name="Trazado 605413" d="M252.759,134.532v.339l-1.241.472v-.326l.868-.316-.868-.318v-.323Z" transform="translate(-110.076 -58.671)" fill="#12263f"/>
        <path id="Trazado_605414" data-name="Trazado 605414" d="M234.84,223.265l-.869.318.869.316v.326l-1.242-.472v-.339l1.242-.472Z" transform="translate(-102.234 -97.57)" fill="#e8505b"/>
        <path id="Trazado_605415" data-name="Trazado 605415" d="M236.794,221.8h.363l-.861,2.457h-.363Z" transform="translate(-103.256 -97.07)" fill="#e8505b"/>
        <path id="Trazado_605416" data-name="Trazado 605416" d="M239.962,222.459v1.826h-.423v-.748h-.829v.748h-.423v-1.826h.423v.72h.829v-.72Z" transform="translate(-104.286 -97.359)" fill="#e8505b"/>
        <path id="Trazado_605417" data-name="Trazado 605417" d="M242.25,222.8h-.584v-.344h1.591v.344h-.584v1.482h-.422Z" transform="translate(-105.765 -97.359)" fill="#e8505b"/>
        <path id="Trazado_605418" data-name="Trazado 605418" d="M246.558,224.285l0-1.1-.537.9h-.191l-.535-.878v1.072h-.4v-1.826h.35l.683,1.135.673-1.135h.347l.005,1.826Z" transform="translate(-107.178 -97.359)" fill="#e8505b"/>
        <path id="Trazado_605419" data-name="Trazado 605419" d="M249.322,222.459h.423v1.482h.916v.344h-1.338Z" transform="translate(-109.115 -97.359)" fill="#e8505b"/>
        <path id="Trazado_605420" data-name="Trazado 605420" d="M253.265,223.414v.339l-1.241.472V223.9l.868-.315-.868-.318v-.323Z" transform="translate(-110.298 -97.57)" fill="#e8505b"/>
        <path id="Trazado_605421" data-name="Trazado 605421" d="M246.4,143.356l-.926.357.926.358v.216l-1.169-.462V143.6l1.169-.462Z" transform="translate(-107.324 -62.645)"/>
        <path id="Trazado_605422" data-name="Trazado 605422" d="M249.672,142.536v1.826h-.261v-.814h-1.048v.814H248.1v-1.826h.261v.785h1.048v-.785Z" transform="translate(-108.581 -62.38)"/>
        <path id="Trazado_605423" data-name="Trazado 605423" d="M253.189,144.135v.227h-1.325v-1.826h1.289v.227h-1.028v.561h.915v.222h-.915v.59Z" transform="translate(-110.228 -62.38)"/>
        <path id="Trazado_605424" data-name="Trazado 605424" d="M255.917,143.905h-.971l-.2.457h-.269l.827-1.826h.258l.83,1.826h-.274Zm-.091-.209-.394-.895-.394.895Z" transform="translate(-111.371 -62.381)"/>
        <path id="Trazado_605425" data-name="Trazado 605425" d="M258.361,142.536h.769a.916.916,0,1,1,0,1.826h-.769Zm.754,1.6a.688.688,0,1,0,0-1.372h-.494v1.372Z" transform="translate(-113.071 -62.381)"/>
        <path id="Trazado_605426" data-name="Trazado 605426" d="M263.181,143.6v.224l-1.169.462v-.216l.928-.357-.928-.358v-.217Z" transform="translate(-114.669 -62.644)"/>
        <path id="Trazado_605427" data-name="Trazado 605427" d="M246.4,154.477l-.926.358.926.357v.216l-1.169-.462v-.224l1.169-.462Z" transform="translate(-107.324 -67.512)"/>
        <path id="Trazado_605428" data-name="Trazado 605428" d="M248.259,153.884h-.626v-.227h1.51v.227h-.626v1.6h-.258Z" transform="translate(-108.376 -67.248)"/>
        <rect id="Rectángulo_300045" data-name="Rectángulo 300045" width="0.261" height="1.826" transform="translate(141.05 86.409)"/>
        <path id="Trazado_605429" data-name="Trazado 605429" d="M252.416,153.884h-.626v-.227h1.51v.227h-.626v1.6h-.258Z" transform="translate(-110.195 -67.248)"/>
        <path id="Trazado_605430" data-name="Trazado 605430" d="M254.978,153.657h.261v1.6h.989v.227h-1.25Z" transform="translate(-111.591 -67.248)"/>
        <path id="Trazado_605431" data-name="Trazado 605431" d="M259.056,155.256v.227h-1.325v-1.826h1.288v.227h-1.028v.561h.916v.222h-.916v.589Z" transform="translate(-112.796 -67.248)"/>
        <path id="Trazado_605432" data-name="Trazado 605432" d="M261.827,154.722v.224l-1.169.462v-.216l.928-.358-.928-.357v-.216Z" transform="translate(-114.077 -67.512)"/>
        <path id="Trazado_605433" data-name="Trazado 605433" d="M264.779,153.657h.261v1.6h.989v.227h-1.249Z" transform="translate(-115.88 -67.248)"/>
        <path id="Trazado_605434" data-name="Trazado 605434" d="M267.208,155.127a.718.718,0,1,1,.719.707.688.688,0,0,1-.719-.707m1.184,0a.466.466,0,1,0-.464.488.453.453,0,0,0,.464-.488" transform="translate(-116.943 -67.582)"/>
        <path id="Trazado_605435" data-name="Trazado 605435" d="M271.119,154.423v.243a.443.443,0,0,0-.493.464v.689h-.25v-1.383h.24v.233a.528.528,0,0,1,.5-.246" transform="translate(-118.33 -67.583)"/>
        <path id="Trazado_605436" data-name="Trazado 605436" d="M273.365,155.211h-1.122a.469.469,0,0,0,.5.4.517.517,0,0,0,.4-.167l.138.162a.754.754,0,0,1-1.289-.483.677.677,0,0,1,.694-.7.667.667,0,0,1,.683.712.712.712,0,0,1-.005.075m-1.122-.18h.887a.447.447,0,0,0-.887,0" transform="translate(-119.037 -67.583)"/>
        <path id="Trazado_605437" data-name="Trazado 605437" d="M277.351,155.023v.8h-.25v-.767c0-.272-.13-.4-.358-.4a.4.4,0,0,0-.414.459v.713h-.251v-.767c0-.272-.13-.4-.357-.4a.4.4,0,0,0-.415.459v.713h-.25v-1.383h.24v.206a.561.561,0,0,1,.477-.219.512.512,0,0,1,.48.256.621.621,0,0,1,.531-.256.53.53,0,0,1,.566.6" transform="translate(-120.378 -67.583)"/>
        <path id="Trazado_605438" data-name="Trazado 605438" d="M281.121,153.557a.165.165,0,0,1,.17-.164.163.163,0,1,1-.17.164m.045.428h.25v1.382h-.25Z" transform="translate(-123.032 -67.132)"/>
        <path id="Trazado_605439" data-name="Trazado 605439" d="M283.925,155.127a.672.672,0,0,1-.7.707.591.591,0,0,1-.483-.224v.715h-.251v-1.888h.24v.218a.592.592,0,0,1,.493-.232.671.671,0,0,1,.7.7m-.253,0a.466.466,0,1,0-.467.488.456.456,0,0,0,.467-.488" transform="translate(-123.633 -67.582)"/>
        <path id="Trazado_605440" data-name="Trazado 605440" d="M285.343,155.673l.1-.2a.887.887,0,0,0,.485.144c.232,0,.329-.071.329-.188,0-.31-.874-.042-.874-.592,0-.248.222-.415.577-.415a1.006,1.006,0,0,1,.5.125l-.106.2a.726.726,0,0,0-.4-.109c-.219,0-.326.08-.326.19,0,.326.876.06.876.6,0,.25-.229.41-.6.41a.994.994,0,0,1-.571-.162" transform="translate(-124.88 -67.583)"/>
        <path id="Trazado_605441" data-name="Trazado 605441" d="M289.255,154.446v1.382h-.237v-.209a.562.562,0,0,1-.47.224.543.543,0,0,1-.594-.6v-.8h.251v.767c0,.271.135.407.373.407a.407.407,0,0,0,.428-.459v-.715Z" transform="translate(-126.022 -67.593)"/>
        <path id="Trazado_605442" data-name="Trazado 605442" d="M293.409,155.023v.8h-.25v-.767c0-.272-.13-.4-.358-.4a.4.4,0,0,0-.414.459v.713h-.251v-.767c0-.272-.13-.4-.357-.4a.4.4,0,0,0-.415.459v.713h-.25v-1.383h.24v.206a.562.562,0,0,1,.477-.219.512.512,0,0,1,.48.256.621.621,0,0,1,.531-.256.53.53,0,0,1,.566.6" transform="translate(-127.405 -67.583)"/>
        <path id="Trazado_605443" data-name="Trazado 605443" d="M298.314,154.477l-.926.358.926.357v.216l-1.169-.462v-.224l1.169-.462Z" transform="translate(-130.045 -67.512)"/>
        <path id="Trazado_605444" data-name="Trazado 605444" d="M300.264,153h.227l-.861,2.457H299.4Z" transform="translate(-131.033 -66.96)"/>
        <path id="Trazado_605445" data-name="Trazado 605445" d="M301.947,153.884h-.626v-.227h1.51v.227H302.2v1.6h-.258Z" transform="translate(-131.873 -67.248)"/>
        <rect id="Rectángulo_300046" data-name="Rectángulo 300046" width="0.261" height="1.826" transform="translate(171.242 86.409)"/>
        <path id="Trazado_605446" data-name="Trazado 605446" d="M306.1,153.884h-.626v-.227h1.51v.227h-.626v1.6H306.1Z" transform="translate(-133.692 -67.248)"/>
        <path id="Trazado_605447" data-name="Trazado 605447" d="M308.666,153.657h.261v1.6h.989v.227h-1.25Z" transform="translate(-135.087 -67.248)"/>
        <path id="Trazado_605448" data-name="Trazado 605448" d="M312.744,155.256v.227h-1.326v-1.826h1.289v.227H311.68v.561h.916v.222h-.916v.589Z" transform="translate(-136.292 -67.248)"/>
        <path id="Trazado_605449" data-name="Trazado 605449" d="M315.516,154.722v.224l-1.169.462v-.216l.928-.358-.928-.357v-.216Z" transform="translate(-137.574 -67.512)"/>
        <path id="Trazado_605450" data-name="Trazado 605450" d="M246.4,165.6l-.926.358.926.357v.216l-1.169-.462v-.224l1.169-.462Z" transform="translate(-107.324 -72.379)"/>
        <path id="Trazado_605451" data-name="Trazado 605451" d="M248.346,164.12h.227l-.861,2.457h-.227Z" transform="translate(-108.311 -71.827)"/>
        <path id="Trazado_605452" data-name="Trazado 605452" d="M251.3,164.778V166.6h-.261v-.814h-1.048v.814h-.261v-1.826h.261v.785h1.048v-.785Z" transform="translate(-109.295 -72.115)"/>
        <path id="Trazado_605453" data-name="Trazado 605453" d="M254.82,166.378v.227h-1.326v-1.826h1.288v.227h-1.027v.561h.916v.222h-.916v.589Z" transform="translate(-110.942 -72.115)"/>
        <path id="Trazado_605454" data-name="Trazado 605454" d="M257.548,166.148h-.971l-.2.457h-.269l.827-1.826h.258l.83,1.826h-.274Zm-.091-.209-.394-.894-.394.894Z" transform="translate(-112.085 -72.115)"/>
        <path id="Trazado_605455" data-name="Trazado 605455" d="M259.992,164.779h.769a.916.916,0,1,1,0,1.826h-.769Zm.754,1.6a.688.688,0,1,0,0-1.372h-.493v1.372Z" transform="translate(-113.785 -72.115)"/>
        <path id="Trazado_605456" data-name="Trazado 605456" d="M264.812,165.843v.224l-1.169.462v-.216l.928-.358-.928-.357v-.216Z" transform="translate(-115.383 -72.379)"/>
        <path id="Trazado_605457" data-name="Trazado 605457" d="M237.782,175.25l-.926.357.926.357v.217l-1.169-.462v-.225l1.169-.461Z" transform="translate(-103.554 -76.603)"/>
        <path id="Trazado_605458" data-name="Trazado 605458" d="M241.058,175.763c0,.313-.237.493-.7.493h-.871V174.43h.819c.42,0,.655.177.655.472a.433.433,0,0,1-.245.407.441.441,0,0,1,.342.454m-1.309-1.121v.584h.535c.265,0,.417-.1.417-.292s-.152-.292-.417-.292Zm1.045,1.1c0-.211-.156-.305-.446-.305h-.6v.608h.6c.29,0,.446-.091.446-.3" transform="translate(-104.812 -76.339)"/>
        <path id="Trazado_605459" data-name="Trazado 605459" d="M242.731,175.327a.971.971,0,1,1,.973.934.928.928,0,0,1-.973-.934m1.68,0a.709.709,0,1,0-.707.7.685.685,0,0,0,.707-.7" transform="translate(-106.231 -76.323)"/>
        <path id="Trazado_605460" data-name="Trazado 605460" d="M246.888,174.43h.769a.916.916,0,1,1,0,1.826h-.769Zm.754,1.6a.688.688,0,1,0,0-1.372h-.493v1.372Z" transform="translate(-108.05 -76.339)"/>
        <path id="Trazado_605461" data-name="Trazado 605461" d="M251.054,175.625v.631H250.8v-.636l-.725-1.19h.279l.584.963.587-.963h.258Z" transform="translate(-109.443 -76.339)"/>
        <path id="Trazado_605462" data-name="Trazado 605462" d="M254.566,175.495v.224l-1.169.462v-.216l.928-.357-.928-.357v-.217Z" transform="translate(-110.899 -76.603)"/>
        <path id="Trazado_605463" data-name="Trazado 605463" d="M237.782,186.371l-.926.358.926.357v.217l-1.169-.462v-.224l1.169-.462Z" transform="translate(-103.554 -81.47)"/>
        <path id="Trazado_605464" data-name="Trazado 605464" d="M241.058,185.552v1.826H240.8v-.814h-1.048v.814h-.261v-1.826h.261v.785H240.8v-.785Z" transform="translate(-104.811 -81.206)"/>
        <path id="Trazado_605465" data-name="Trazado 605465" d="M243.471,185.552v1.826h-.258v-1.6H242.8v-.227Z" transform="translate(-106.261 -81.206)"/>
        <path id="Trazado_605466" data-name="Trazado 605466" d="M245.956,186.617v.224l-1.169.462v-.216l.928-.358-.928-.358v-.216Z" transform="translate(-107.131 -81.47)"/>
        <path id="Trazado_605467" data-name="Trazado 605467" d="M248.949,185.552h.193v1.659h1.022v.167h-1.215Z" transform="translate(-108.952 -81.206)"/>
        <path id="Trazado_605468" data-name="Trazado 605468" d="M251.327,187.037a.7.7,0,1,1,.7.7.674.674,0,0,1-.7-.7m1.207,0a.511.511,0,1,0-.509.535.5.5,0,0,0,.509-.535" transform="translate(-109.993 -81.552)"/>
        <path id="Trazado_605469" data-name="Trazado 605469" d="M255.168,186.34v.18l-.044,0a.443.443,0,0,0-.461.506v.7h-.186v-1.372h.177v.268a.518.518,0,0,1,.514-.279" transform="translate(-111.371 -81.551)"/>
        <path id="Trazado_605470" data-name="Trazado 605470" d="M257.363,187.094h-1.148a.508.508,0,0,0,.54.477.54.54,0,0,0,.42-.181l.1.12a.726.726,0,0,1-1.25-.475.661.661,0,0,1,.67-.7.654.654,0,0,1,.665.7c0,.016,0,.037,0,.057m-1.148-.138h.973a.487.487,0,0,0-.973,0" transform="translate(-112.051 -81.551)"/>
        <path id="Trazado_605471" data-name="Trazado 605471" d="M261.339,186.927v.8h-.185v-.777c0-.29-.146-.439-.394-.439a.441.441,0,0,0-.459.5v.72h-.185v-.777c0-.29-.146-.439-.4-.439a.442.442,0,0,0-.459.5v.72h-.186v-1.372h.177v.251a.555.555,0,0,1,.5-.261.493.493,0,0,1,.488.29.6.6,0,0,1,.543-.29.518.518,0,0,1,.553.587" transform="translate(-113.384 -81.551)"/>
        <path id="Trazado_605472" data-name="Trazado 605472" d="M265.13,185.487a.134.134,0,0,1,.136-.13.132.132,0,0,1,.136.128.136.136,0,0,1-.272,0m.042.433h.185v1.372h-.185Z" transform="translate(-116.034 -81.121)"/>
        <path id="Trazado_605473" data-name="Trazado 605473" d="M267.842,187.037a.664.664,0,0,1-.683.7.6.6,0,0,1-.522-.271v.764h-.186v-1.878h.178v.272a.6.6,0,0,1,.53-.282.664.664,0,0,1,.683.7m-.185,0a.512.512,0,1,0-.511.535.506.506,0,0,0,.511-.535" transform="translate(-116.612 -81.552)"/>
        <path id="Trazado_605474" data-name="Trazado 605474" d="M269.254,187.567l.083-.146a.833.833,0,0,0,.489.154c.26,0,.367-.089.367-.224,0-.358-.889-.076-.889-.618,0-.224.193-.391.543-.391a.929.929,0,0,1,.485.128l-.08.148a.706.706,0,0,0-.4-.117c-.248,0-.358.1-.358.227,0,.371.89.092.89.619,0,.237-.209.391-.566.391a.921.921,0,0,1-.558-.169" transform="translate(-117.839 -81.552)"/>
        <path id="Trazado_605475" data-name="Trazado 605475" d="M273.086,186.359v1.372h-.177v-.25a.546.546,0,0,1-.493.263.531.531,0,0,1-.579-.589v-.8h.185v.777a.384.384,0,0,0,.412.441.446.446,0,0,0,.467-.5v-.72Z" transform="translate(-118.969 -81.56)"/>
        <path id="Trazado_605476" data-name="Trazado 605476" d="M277.242,186.927v.8h-.185v-.777c0-.29-.146-.439-.394-.439a.441.441,0,0,0-.459.5v.72h-.186v-.777c0-.29-.146-.439-.4-.439a.442.442,0,0,0-.459.5v.72h-.185v-1.372h.177v.251a.555.555,0,0,1,.5-.261.493.493,0,0,1,.488.29.6.6,0,0,1,.543-.29.518.518,0,0,1,.553.587" transform="translate(-120.344 -81.551)"/>
        <path id="Trazado_605477" data-name="Trazado 605477" d="M282.252,185.357v1.936h-.177v-.271a.6.6,0,0,1-.53.284.7.7,0,0,1,0-1.4.6.6,0,0,1,.522.271v-.824Zm-.182,1.25a.511.511,0,1,0-.508.535.5.5,0,0,0,.508-.535" transform="translate(-122.919 -81.121)"/>
        <path id="Trazado_605478" data-name="Trazado 605478" d="M284,187.037a.7.7,0,1,1,.7.7.675.675,0,0,1-.7-.7m1.208,0a.511.511,0,1,0-.508.535.5.5,0,0,0,.508-.535" transform="translate(-124.294 -81.552)"/>
        <rect id="Rectángulo_300047" data-name="Rectángulo 300047" width="0.185" height="1.936" transform="translate(161.483 104.236)"/>
        <path id="Trazado_605479" data-name="Trazado 605479" d="M288.157,187.037a.7.7,0,1,1,.7.7.674.674,0,0,1-.7-.7m1.207,0a.511.511,0,1,0-.509.535.5.5,0,0,0,.509-.535" transform="translate(-126.111 -81.552)"/>
        <path id="Trazado_605480" data-name="Trazado 605480" d="M292,186.34v.18l-.044,0a.443.443,0,0,0-.461.506v.7h-.186v-1.372h.177v.268a.518.518,0,0,1,.514-.279" transform="translate(-127.49 -81.551)"/>
        <path id="Trazado_605481" data-name="Trazado 605481" d="M294.041,187.567l.083-.146a.829.829,0,0,0,.488.154c.26,0,.368-.089.368-.224,0-.358-.89-.076-.89-.618,0-.224.193-.391.543-.391a.929.929,0,0,1,.485.128l-.08.148a.705.705,0,0,0-.4-.117c-.249,0-.358.1-.358.227,0,.371.89.092.89.619,0,.237-.209.391-.566.391a.918.918,0,0,1-.558-.169" transform="translate(-128.687 -81.552)"/>
        <path id="Trazado_605482" data-name="Trazado 605482" d="M296.572,185.487a.134.134,0,0,1,.136-.13.131.131,0,0,1,.136.128.136.136,0,0,1-.271,0m.042.433h.185v1.372h-.185Z" transform="translate(-129.794 -81.121)"/>
        <path id="Trazado_605483" data-name="Trazado 605483" d="M298.448,187.415a.441.441,0,0,1-.29.1.363.363,0,0,1-.4-.4v-.829h-.245v-.157h.245v-.3h.185v.3h.417v.157h-.417v.819a.22.22,0,0,0,.237.251.305.305,0,0,0,.2-.071Z" transform="translate(-130.206 -81.326)"/>
        <path id="Trazado_605484" data-name="Trazado 605484" d="M301.934,186.873v.85h-.177v-.214a.516.516,0,0,1-.472.227c-.31,0-.5-.161-.5-.4,0-.211.135-.389.53-.389h.436v-.083c0-.235-.133-.363-.389-.363a.7.7,0,0,0-.457.162l-.083-.138a.869.869,0,0,1,.558-.186.488.488,0,0,1,.556.533m-.185.438v-.224h-.431c-.265,0-.352.1-.352.245,0,.159.128.258.347.258a.439.439,0,0,0,.436-.279" transform="translate(-131.637 -81.551)"/>
        <path id="Trazado_605485" data-name="Trazado 605485" d="M305.985,186.927v.8H305.8v-.777c0-.29-.146-.439-.394-.439a.441.441,0,0,0-.459.5v.72h-.185v-.777c0-.29-.146-.439-.4-.439a.442.442,0,0,0-.459.5v.72h-.186v-1.372h.177v.251a.555.555,0,0,1,.5-.261.493.493,0,0,1,.488.29.6.6,0,0,1,.543-.29.518.518,0,0,1,.553.587" transform="translate(-132.923 -81.551)"/>
        <path id="Trazado_605486" data-name="Trazado 605486" d="M309.734,187.094h-1.148a.508.508,0,0,0,.54.477.54.54,0,0,0,.42-.181l.1.12a.725.725,0,0,1-1.249-.475.661.661,0,0,1,.67-.7.654.654,0,0,1,.665.7c0,.016,0,.037,0,.057m-1.148-.138h.973a.487.487,0,0,0-.973,0" transform="translate(-134.971 -81.551)"/>
        <path id="Trazado_605487" data-name="Trazado 605487" d="M312,187.415a.44.44,0,0,1-.29.1.363.363,0,0,1-.4-.4v-.829h-.245v-.157h.245v-.3h.186v.3h.417v.157H311.5v.819a.22.22,0,0,0,.237.251.306.306,0,0,0,.2-.071Z" transform="translate(-136.138 -81.326)"/>
        <path id="Trazado_605488" data-name="Trazado 605488" d="M313.441,188.457a.427.427,0,0,1-.036.151l-.11.36h-.125l.089-.378a.131.131,0,0,1-.095-.133.138.138,0,1,1,.277,0" transform="translate(-137.056 -82.416)"/>
        <path id="Trazado_605489" data-name="Trazado 605489" d="M315.324,187.037a.675.675,0,0,1,.707-.7.6.6,0,0,1,.537.271l-.138.094a.465.465,0,0,0-.4-.2.535.535,0,0,0,0,1.07.462.462,0,0,0,.4-.2l.138.094a.6.6,0,0,1-.537.271.677.677,0,0,1-.707-.7" transform="translate(-138.001 -81.552)"/>
        <path id="Trazado_605490" data-name="Trazado 605490" d="M317.891,187.037a.7.7,0,1,1,.7.7.675.675,0,0,1-.7-.7m1.208,0a.511.511,0,1,0-.508.535.5.5,0,0,0,.508-.535" transform="translate(-139.125 -81.552)"/>
        <path id="Trazado_605491" data-name="Trazado 605491" d="M322.305,186.927v.8h-.185v-.777a.383.383,0,0,0-.412-.439.45.45,0,0,0-.48.5v.72h-.186v-1.372h.177v.253a.577.577,0,0,1,.522-.264.525.525,0,0,1,.563.587" transform="translate(-140.504 -81.551)"/>
        <path id="Trazado_605492" data-name="Trazado 605492" d="M323.842,187.567l.083-.146a.83.83,0,0,0,.488.154c.26,0,.368-.089.368-.224,0-.358-.89-.076-.89-.618,0-.224.193-.391.543-.391a.929.929,0,0,1,.485.128l-.081.148a.7.7,0,0,0-.4-.117c-.249,0-.358.1-.358.227,0,.371.89.092.89.619,0,.237-.209.391-.566.391a.918.918,0,0,1-.558-.169" transform="translate(-141.729 -81.552)"/>
        <path id="Trazado_605493" data-name="Trazado 605493" d="M327.533,187.094h-1.148a.508.508,0,0,0,.54.477.54.54,0,0,0,.42-.181l.1.12a.726.726,0,0,1-1.25-.475.661.661,0,0,1,.67-.7.654.654,0,0,1,.665.7c0,.016,0,.037,0,.057m-1.148-.138h.973a.487.487,0,0,0-.973,0" transform="translate(-142.761 -81.551)"/>
        <path id="Trazado_605494" data-name="Trazado 605494" d="M329,187.037a.675.675,0,0,1,.707-.7.6.6,0,0,1,.537.271l-.138.094a.465.465,0,0,0-.4-.2.535.535,0,0,0,0,1.07.462.462,0,0,0,.4-.2l.138.094a.6.6,0,0,1-.537.271.677.677,0,0,1-.707-.7" transform="translate(-143.985 -81.552)"/>
        <path id="Trazado_605495" data-name="Trazado 605495" d="M332.437,187.415a.44.44,0,0,1-.29.1.363.363,0,0,1-.4-.4v-.829H331.5v-.157h.245v-.3h.185v.3h.417v.157h-.417v.819a.22.22,0,0,0,.237.251.307.307,0,0,0,.2-.071Z" transform="translate(-145.081 -81.326)"/>
        <path id="Trazado_605496" data-name="Trazado 605496" d="M334.763,187.094h-1.148a.508.508,0,0,0,.54.477.541.541,0,0,0,.42-.181l.1.12a.725.725,0,0,1-1.25-.475.668.668,0,1,1,1.336,0c0,.016,0,.037,0,.057m-1.148-.138h.972a.487.487,0,0,0-.972,0" transform="translate(-145.925 -81.551)"/>
        <path id="Trazado_605497" data-name="Trazado 605497" d="M337.03,187.415a.441.441,0,0,1-.29.1.363.363,0,0,1-.4-.4v-.829h-.245v-.157h.245v-.3h.186v.3h.417v.157h-.417v.819a.22.22,0,0,0,.237.251.305.305,0,0,0,.2-.071Z" transform="translate(-147.091 -81.326)"/>
        <path id="Trazado_605498" data-name="Trazado 605498" d="M339.582,186.359v1.372H339.4v-.25a.547.547,0,0,1-.493.263.531.531,0,0,1-.579-.589v-.8h.185v.777a.384.384,0,0,0,.412.441.446.446,0,0,0,.467-.5v-.72Z" transform="translate(-148.07 -81.56)"/>
        <path id="Trazado_605499" data-name="Trazado 605499" d="M342.56,187.094h-1.148a.508.508,0,0,0,.54.477.54.54,0,0,0,.42-.181l.1.12a.726.726,0,0,1-1.25-.475.661.661,0,0,1,.67-.7.654.654,0,0,1,.665.7c0,.016,0,.037,0,.057m-1.148-.138h.973a.487.487,0,0,0-.973,0" transform="translate(-149.338 -81.551)"/>
        <path id="Trazado_605500" data-name="Trazado 605500" d="M344.964,186.34v.18l-.044,0a.444.444,0,0,0-.462.506v.7h-.185v-1.372h.177v.268a.518.518,0,0,1,.514-.279" transform="translate(-150.671 -81.551)"/>
        <path id="Trazado_605501" data-name="Trazado 605501" d="M237.709,192.434v.85h-.177v-.214a.516.516,0,0,1-.472.227c-.31,0-.5-.161-.5-.4,0-.211.136-.389.53-.389h.435v-.083c0-.235-.133-.363-.389-.363a.7.7,0,0,0-.457.162l-.083-.138a.87.87,0,0,1,.558-.186.488.488,0,0,1,.556.533m-.185.438v-.224h-.431c-.266,0-.352.1-.352.245,0,.159.128.258.348.258a.438.438,0,0,0,.435-.279" transform="translate(-103.529 -83.985)"/>
        <path id="Trazado_605502" data-name="Trazado 605502" d="M240.65,190.917v1.936h-.177v-.271a.594.594,0,0,1-.53.284.7.7,0,0,1,0-1.4.6.6,0,0,1,.522.271v-.824Zm-.182,1.25a.511.511,0,1,0-.51.535.5.5,0,0,0,.51-.535" transform="translate(-104.712 -83.554)"/>
        <path id="Trazado_605503" data-name="Trazado 605503" d="M242.573,191.048a.134.134,0,0,1,.136-.13.132.132,0,1,1,0,.263.134.134,0,0,1-.136-.133m.042.433h.186v1.372h-.186Z" transform="translate(-106.162 -83.555)"/>
        <path id="Trazado_605504" data-name="Trazado 605504" d="M245.284,192.6a.664.664,0,0,1-.684.7.6.6,0,0,1-.521-.271v.764h-.186v-1.878h.178v.272a.6.6,0,0,1,.529-.282.664.664,0,0,1,.684.7m-.185,0a.512.512,0,1,0-.511.535.505.505,0,0,0,.511-.535" transform="translate(-106.739 -83.985)"/>
        <path id="Trazado_605505" data-name="Trazado 605505" d="M246.961,191.048a.134.134,0,0,1,.136-.13.132.132,0,1,1,0,.263.134.134,0,0,1-.136-.133m.042.433h.186v1.372H247Z" transform="translate(-108.082 -83.555)"/>
        <path id="Trazado_605506" data-name="Trazado 605506" d="M247.944,193.127l.083-.146a.829.829,0,0,0,.488.154c.26,0,.368-.089.368-.224,0-.358-.89-.076-.89-.618,0-.224.193-.391.543-.391a.929.929,0,0,1,.485.128l-.081.149a.7.7,0,0,0-.4-.118c-.249,0-.358.1-.358.227,0,.371.89.091.89.619,0,.237-.209.391-.566.391a.918.918,0,0,1-.558-.169" transform="translate(-108.512 -83.985)"/>
        <path id="Trazado_605507" data-name="Trazado 605507" d="M250.3,192.6a.675.675,0,0,1,.707-.7.6.6,0,0,1,.537.271l-.138.094a.468.468,0,0,0-.4-.2.535.535,0,0,0,0,1.07.465.465,0,0,0,.4-.2l.138.094a.6.6,0,0,1-.537.271.677.677,0,0,1-.707-.7" transform="translate(-109.545 -83.985)"/>
        <path id="Trazado_605508" data-name="Trazado 605508" d="M253.082,191.048a.134.134,0,0,1,.136-.13.132.132,0,1,1,0,.263.134.134,0,0,1-.136-.133m.042.433h.186v1.372h-.186Z" transform="translate(-110.761 -83.555)"/>
        <path id="Trazado_605509" data-name="Trazado 605509" d="M255.666,192.488v.8h-.185v-.778a.383.383,0,0,0-.412-.438.45.45,0,0,0-.48.5v.72H254.4v-1.372h.177v.253a.577.577,0,0,1,.522-.264.525.525,0,0,1,.563.587" transform="translate(-111.339 -83.985)"/>
        <path id="Trazado_605510" data-name="Trazado 605510" d="M258.712,191.911v1.205a.6.6,0,0,1-.686.687.959.959,0,0,1-.639-.211l.095-.141a.814.814,0,0,0,.54.188c.346,0,.506-.159.506-.5v-.175a.617.617,0,0,1-.535.266.665.665,0,1,1,0-1.33.619.619,0,0,1,.543.274v-.264Zm-.18.652a.521.521,0,1,0-.522.5.491.491,0,0,0,.522-.5" transform="translate(-112.608 -83.985)"/>
        <path id="Trazado_605511" data-name="Trazado 605511" d="M263.031,192.655h-1.148a.508.508,0,0,0,.54.477.54.54,0,0,0,.42-.181l.1.12a.725.725,0,0,1-1.249-.475.668.668,0,1,1,1.336,0c0,.016,0,.037,0,.057m-1.148-.138h.972a.487.487,0,0,0-.972,0" transform="translate(-114.532 -83.985)"/>
        <rect id="Rectángulo_300048" data-name="Rectángulo 300048" width="0.185" height="1.936" transform="translate(148.878 107.363)"/>
        <path id="Trazado_605512" data-name="Trazado 605512" d="M265.913,191.048a.134.134,0,0,1,.136-.13.132.132,0,1,1,0,.263.134.134,0,0,1-.136-.133m.042.433h.185v1.372h-.185Z" transform="translate(-116.376 -83.555)"/>
        <path id="Trazado_605513" data-name="Trazado 605513" d="M267.791,192.975a.44.44,0,0,1-.29.1.363.363,0,0,1-.4-.4v-.829h-.245v-.157h.245v-.3h.186v.3h.417v.157h-.417v.819a.22.22,0,0,0,.237.251.306.306,0,0,0,.2-.071Z" transform="translate(-116.789 -83.76)"/>
        <path id="Trazado_605514" data-name="Trazado 605514" d="M269.23,194.019a.419.419,0,0,1-.037.151l-.11.36h-.125l.088-.378a.131.131,0,0,1-.093-.133.138.138,0,1,1,.276,0" transform="translate(-117.707 -84.85)"/>
        <path id="Trazado_605515" data-name="Trazado 605515" d="M271.02,193.127l.084-.146a.829.829,0,0,0,.488.154c.261,0,.367-.089.367-.224,0-.358-.889-.076-.889-.618,0-.224.193-.391.543-.391a.929.929,0,0,1,.485.128l-.08.149a.7.7,0,0,0-.4-.118c-.248,0-.358.1-.358.227,0,.371.89.091.89.619,0,.237-.209.391-.566.391a.921.921,0,0,1-.558-.169" transform="translate(-118.612 -83.985)"/>
        <path id="Trazado_605516" data-name="Trazado 605516" d="M274.712,192.655h-1.148a.508.508,0,0,0,.54.477.54.54,0,0,0,.42-.181l.1.12a.725.725,0,0,1-1.25-.475.668.668,0,1,1,1.336,0c0,.016,0,.037,0,.057m-1.148-.138h.973a.487.487,0,0,0-.973,0" transform="translate(-119.644 -83.985)"/>
        <path id="Trazado_605517" data-name="Trazado 605517" d="M277.567,190.917v1.936h-.177v-.271a.594.594,0,0,1-.53.284.7.7,0,0,1,0-1.4.6.6,0,0,1,.522.271v-.824Zm-.182,1.25a.511.511,0,1,0-.51.535.5.5,0,0,0,.51-.535" transform="translate(-120.868 -83.554)"/>
        <path id="Trazado_605518" data-name="Trazado 605518" d="M281.923,190.917v1.936h-.177v-.271a.6.6,0,0,1-.53.284.7.7,0,0,1,0-1.4.6.6,0,0,1,.522.271v-.824Zm-.182,1.25a.511.511,0,1,0-.509.535.5.5,0,0,0,.509-.535" transform="translate(-122.775 -83.554)"/>
        <path id="Trazado_605519" data-name="Trazado 605519" d="M283.846,191.048a.134.134,0,0,1,.136-.13.132.132,0,1,1,0,.263.134.134,0,0,1-.136-.133m.042.433h.186v1.372h-.186Z" transform="translate(-124.225 -83.555)"/>
        <path id="Trazado_605520" data-name="Trazado 605520" d="M286.114,192.434v.85h-.177v-.214a.515.515,0,0,1-.472.227c-.311,0-.5-.161-.5-.4,0-.211.136-.389.53-.389h.436v-.083c0-.235-.133-.363-.389-.363a.7.7,0,0,0-.457.162l-.083-.138a.869.869,0,0,1,.558-.186.488.488,0,0,1,.556.533m-.185.438v-.224H285.5c-.265,0-.352.1-.352.245,0,.159.128.258.347.258a.439.439,0,0,0,.436-.279" transform="translate(-124.714 -83.985)"/>
        <path id="Trazado_605521" data-name="Trazado 605521" d="M290.166,192.488v.8h-.185v-.778c0-.289-.146-.438-.394-.438a.441.441,0,0,0-.459.5v.72h-.186v-.778c0-.289-.146-.438-.4-.438a.442.442,0,0,0-.459.5v.72H287.9v-1.372h.177v.25a.556.556,0,0,1,.5-.261.493.493,0,0,1,.488.29.6.6,0,0,1,.543-.29.518.518,0,0,1,.553.587" transform="translate(-126 -83.985)"/>
        <path id="Trazado_605522" data-name="Trazado 605522" d="M293.838,191.932l-.926.358.926.357v.216l-1.169-.462v-.224l1.169-.462Z" transform="translate(-128.086 -83.904)"/>
        <path id="Trazado_605523" data-name="Trazado 605523" d="M295.787,190.454h.227l-.861,2.458h-.227Z" transform="translate(-129.074 -83.352)"/>
        <path id="Trazado_605524" data-name="Trazado 605524" d="M298.744,191.112v1.826h-.261v-.814h-1.048v.814h-.261v-1.826h.261v.785h1.048v-.785Z" transform="translate(-130.058 -83.64)"/>
        <path id="Trazado_605525" data-name="Trazado 605525" d="M301.157,191.112v1.826H300.9v-1.6h-.412v-.227Z" transform="translate(-131.508 -83.64)"/>
        <path id="Trazado_605526" data-name="Trazado 605526" d="M303.644,192.177v.224l-1.169.462v-.216l.928-.358-.928-.357v-.216Z" transform="translate(-132.378 -83.904)"/>
        <path id="Trazado_605527" data-name="Trazado 605527" d="M237.782,203.054l-.926.357.926.357v.217l-1.169-.462V203.3l1.169-.461Z" transform="translate(-103.554 -88.771)"/>
        <path id="Trazado_605528" data-name="Trazado 605528" d="M240.961,202.871c0,.4-.287.637-.761.637h-.451v.553h-.261v-1.826h.712c.475,0,.761.24.761.637m-.26,0c0-.261-.175-.41-.509-.41h-.443v.82h.443c.334,0,.509-.149.509-.41" transform="translate(-104.812 -88.507)"/>
        <path id="Trazado_605529" data-name="Trazado 605529" d="M243.825,203.3v.224l-1.169.462v-.217l.928-.357-.928-.357v-.217Z" transform="translate(-106.198 -88.771)"/>
        <path id="Trazado_605530" data-name="Trazado 605530" d="M247.769,203.054l-.926.357.926.357v.217l-1.169-.462V203.3l1.169-.461Z" transform="translate(-107.924 -88.771)"/>
        <rect id="Rectángulo_300049" data-name="Rectángulo 300049" width="0.261" height="1.826" transform="translate(140.292 113.727)"/>
        <path id="Trazado_605531" data-name="Trazado 605531" d="M252.6,204.06l0-1.331-.66,1.108h-.12l-.659-1.1v1.323h-.251v-1.826h.214l.762,1.283.751-1.283h.214l0,1.826Z" transform="translate(-109.81 -88.507)"/>
        <path id="Trazado_605532" data-name="Trazado 605532" d="M256.484,203.12h.25v.712a1.076,1.076,0,0,1-.691.232.934.934,0,1,1,.707-1.586l-.162.161a.725.725,0,0,0-.53-.211.7.7,0,1,0,0,1.4.773.773,0,0,0,.427-.117Z" transform="translate(-111.631 -88.491)"/>
        <path id="Trazado_605533" data-name="Trazado 605533" d="M259.862,203.835l.1-.2a.937.937,0,0,0,.6.211c.316,0,.451-.123.451-.282,0-.446-1.106-.164-1.106-.842,0-.282.22-.522.7-.522a1.074,1.074,0,0,1,.587.161l-.085.209a.94.94,0,0,0-.5-.149c-.31,0-.444.13-.444.29,0,.446,1.106.167,1.106.837,0,.279-.224.519-.707.519a1.084,1.084,0,0,1-.7-.229" transform="translate(-113.728 -88.491)"/>
        <path id="Trazado_605534" data-name="Trazado 605534" d="M264.258,204.06l-.394-.561c-.037,0-.075.005-.115.005H263.3v.556h-.261v-1.826h.712c.475,0,.761.24.761.637a.576.576,0,0,1-.4.576l.434.613Zm-.008-1.189c0-.261-.175-.41-.509-.41H263.3v.822h.443c.333,0,.509-.151.509-.412" transform="translate(-115.118 -88.507)"/>
        <path id="Trazado_605535" data-name="Trazado 605535" d="M266.141,203.131a.924.924,0,0,1,.968-.934.9.9,0,0,1,.694.285l-.17.164a.677.677,0,0,0-.514-.216.7.7,0,1,0,0,1.4.678.678,0,0,0,.514-.219l.17.164a.906.906,0,0,1-.7.287.923.923,0,0,1-.966-.934" transform="translate(-116.476 -88.491)"/>
        <path id="Trazado_605536" data-name="Trazado 605536" d="M269.578,203.125h1.169v.206h-1.169Zm0,.618h1.169v.206h-1.169Z" transform="translate(-117.98 -88.897)"/>
        <path id="Trazado_605537" data-name="Trazado 605537" d="M273.5,202.234h.219l-.018.7h-.186Zm.472,0h.219l-.019.7h-.185Z" transform="translate(-119.698 -88.507)"/>
        <path id="Trazado_605538" data-name="Trazado 605538" d="M275.511,202.234h.261v1.6h.989v.227h-1.25Z" transform="translate(-120.577 -88.507)"/>
        <path id="Trazado_605539" data-name="Trazado 605539" d="M277.938,203.7a.719.719,0,1,1,.72.707.688.688,0,0,1-.72-.707m1.184,0a.466.466,0,1,0-.931,0,.466.466,0,1,0,.931,0" transform="translate(-121.639 -88.842)"/>
        <path id="Trazado_605540" data-name="Trazado 605540" d="M281.851,203v.242a.5.5,0,0,0-.057,0,.412.412,0,0,0-.436.467v.688h-.25v-1.382h.24v.232a.528.528,0,0,1,.5-.245" transform="translate(-123.026 -88.842)"/>
        <path id="Trazado_605541" data-name="Trazado 605541" d="M284.1,203.787h-1.122a.469.469,0,0,0,.5.4.515.515,0,0,0,.4-.167l.138.162a.754.754,0,0,1-1.289-.483.677.677,0,0,1,.694-.7.666.666,0,0,1,.683.712.754.754,0,0,1-.005.075m-1.122-.18h.887a.446.446,0,0,0-.887,0" transform="translate(-123.734 -88.842)"/>
        <path id="Trazado_605542" data-name="Trazado 605542" d="M288.083,203.6v.8h-.25v-.767c0-.271-.13-.4-.358-.4a.4.4,0,0,0-.415.459v.712h-.251v-.767c0-.271-.13-.4-.357-.4a.4.4,0,0,0-.415.459v.712h-.25v-1.382h.24v.206a.56.56,0,0,1,.477-.219.513.513,0,0,1,.48.255.62.62,0,0,1,.531-.255.53.53,0,0,1,.566.6" transform="translate(-125.075 -88.842)"/>
        <path id="Trazado_605543" data-name="Trazado 605543" d="M291.854,202.134a.165.165,0,0,1,.17-.165.163.163,0,1,1-.17.165m.044.428h.25v1.382h-.25Z" transform="translate(-127.729 -88.391)"/>
        <path id="Trazado_605544" data-name="Trazado 605544" d="M294.658,203.7a.672.672,0,0,1-.7.707.589.589,0,0,1-.483-.224v.715h-.251v-1.888h.24v.219a.589.589,0,0,1,.493-.232.671.671,0,0,1,.7.7m-.253,0a.466.466,0,1,0-.467.488.457.457,0,0,0,.467-.488" transform="translate(-128.33 -88.842)"/>
        <path id="Trazado_605545" data-name="Trazado 605545" d="M296.076,204.249l.1-.2a.893.893,0,0,0,.485.143c.232,0,.329-.07.329-.188,0-.31-.874-.042-.874-.592,0-.248.222-.415.576-.415a1,1,0,0,1,.5.125l-.106.2a.723.723,0,0,0-.4-.11c-.219,0-.326.081-.326.191,0,.326.876.06.876.6,0,.25-.229.409-.6.409a1,1,0,0,1-.571-.162" transform="translate(-129.577 -88.842)"/>
        <path id="Trazado_605546" data-name="Trazado 605546" d="M299.986,203.023v1.382h-.238V204.2a.562.562,0,0,1-.469.224.543.543,0,0,1-.595-.6v-.8h.25v.767c0,.271.136.407.373.407a.407.407,0,0,0,.428-.459v-.715Z" transform="translate(-130.719 -88.853)"/>
        <path id="Trazado_605547" data-name="Trazado 605547" d="M304.14,203.6v.8h-.25v-.767c0-.271-.13-.4-.358-.4a.4.4,0,0,0-.414.459v.712h-.251v-.767c0-.271-.13-.4-.357-.4a.4.4,0,0,0-.415.459v.712h-.25v-1.382h.24v.206a.559.559,0,0,1,.477-.219.513.513,0,0,1,.48.255.621.621,0,0,1,.532-.255.53.53,0,0,1,.566.6" transform="translate(-132.102 -88.842)"/>
        <path id="Trazado_605548" data-name="Trazado 605548" d="M306.612,202.234h.219l-.018.7h-.185Zm.472,0h.219l-.018.7H307.1Z" transform="translate(-134.188 -88.507)"/>
        <path id="Trazado_605549" data-name="Trazado 605549" d="M309.611,203.3v.224l-1.169.462v-.217l.928-.357-.928-.357v-.217Z" transform="translate(-134.99 -88.771)"/>
        <path id="Trazado_605550" data-name="Trazado 605550" d="M312.309,203.054l-.926.357.926.357v.217l-1.169-.462V203.3l1.169-.461Z" transform="translate(-136.17 -88.771)"/>
        <path id="Trazado_605551" data-name="Trazado 605551" d="M314.258,201.575h.227l-.861,2.458H313.4Z" transform="translate(-137.158 -88.219)"/>
        <path id="Trazado_605552" data-name="Trazado 605552" d="M317.119,202.871c0,.4-.287.637-.763.637h-.45v.553h-.261v-1.826h.711c.475,0,.763.24.763.637m-.262,0c0-.261-.175-.41-.508-.41h-.443v.82h.443c.333,0,.508-.149.508-.41" transform="translate(-138.141 -88.507)"/>
        <path id="Trazado_605553" data-name="Trazado 605553" d="M319.982,203.3v.224l-1.169.462v-.217l.928-.357-.928-.357v-.217Z" transform="translate(-139.528 -88.771)"/>
        <path id="Trazado_605554" data-name="Trazado 605554" d="M237.782,214.175l-.926.358.926.357v.216l-1.169-.462v-.224l1.169-.462Z" transform="translate(-103.554 -93.638)"/>
        <path id="Trazado_605555" data-name="Trazado 605555" d="M239.731,212.7h.227l-.861,2.457h-.227Z" transform="translate(-104.541 -93.086)"/>
        <path id="Trazado_605556" data-name="Trazado 605556" d="M242.689,214.688c0,.313-.237.493-.7.493h-.871v-1.826h.819c.42,0,.655.178.655.472a.433.433,0,0,1-.245.407.442.442,0,0,1,.342.454m-1.309-1.122v.584h.535c.265,0,.417-.1.417-.292s-.152-.292-.417-.292Zm1.045,1.1c0-.211-.156-.305-.446-.305h-.6v.608h.6c.29,0,.446-.091.446-.3" transform="translate(-105.525 -93.374)"/>
        <path id="Trazado_605557" data-name="Trazado 605557" d="M244.362,214.252a.971.971,0,1,1,.973.934.928.928,0,0,1-.973-.934m1.68,0a.709.709,0,1,0-.707.7.686.686,0,0,0,.707-.7" transform="translate(-106.945 -93.358)"/>
        <path id="Trazado_605558" data-name="Trazado 605558" d="M248.519,213.356h.769a.916.916,0,1,1,0,1.826h-.769Zm.754,1.6a.688.688,0,1,0,0-1.372h-.493v1.372Z" transform="translate(-108.764 -93.375)"/>
        <path id="Trazado_605559" data-name="Trazado 605559" d="M252.685,214.55v.631h-.259v-.636l-.725-1.19h.279l.584.963.587-.963h.258Z" transform="translate(-110.157 -93.374)"/>
        <path id="Trazado_605560" data-name="Trazado 605560" d="M256.2,214.421v.224l-1.169.462v-.216l.928-.358-.928-.357v-.217Z" transform="translate(-111.613 -93.639)"/>
        <path id="Trazado_605561" data-name="Trazado 605561" d="M300.712,127.336c0,.081-18.048.146-40.305.146s-40.31-.065-40.31-.146,18.044-.146,40.31-.146,40.305.065,40.305.146" transform="translate(-96.325 -55.664)" fill="#263238"/>
        <path id="Trazado_605562" data-name="Trazado 605562" d="M223.585,121.927a.518.518,0,1,1-.518-.518.519.519,0,0,1,.518.518" transform="translate(-97.398 -53.134)" fill="#263238"/>
        <path id="Trazado_605563" data-name="Trazado 605563" d="M227.128,121.927a.519.519,0,1,1-.518-.518.519.519,0,0,1,.518.518" transform="translate(-98.948 -53.134)" fill="#263238"/>
        <path id="Trazado_605564" data-name="Trazado 605564" d="M230.671,121.927a.518.518,0,1,1-.518-.518.519.519,0,0,1,.518.518" transform="translate(-100.499 -53.134)" fill="#263238"/>
        <path id="Trazado_605565" data-name="Trazado 605565" d="M229.087,188.309c-.082,0-.147-13.683-.147-30.556s.065-30.559.147-30.559.146,13.68.146,30.559-.065,30.556-.146,30.556" transform="translate(-100.195 -55.666)" fill="#e0e0e0"/>
        <rect id="Rectángulo_300051" data-name="Rectángulo 300051" width="30.122" height="21.472" transform="translate(197.176 103.13)" fill="#afafaf"/>
        <path id="Trazado_605573" data-name="Trazado 605573" d="M365.651,201.122v4.262h-.986v-1.747h-1.936v1.747h-.986v-4.262h.986v1.68h1.936v-1.68Z" transform="translate(-158.316 -88.02)" fill="#fff"/>
        <path id="Trazado_605574" data-name="Trazado 605574" d="M371,201.925h-1.364v-.8h3.714v.8h-1.364v3.458H371Z" transform="translate(-161.77 -88.02)" fill="#fff"/>
        <path id="Trazado_605575" data-name="Trazado 605575" d="M377.181,201.122h.986v3.458H380.3v.8h-3.123Z" transform="translate(-165.073 -88.02)" fill="#fff"/>
        <path id="Trazado_605576" data-name="Trazado 605576" d="M387.6,205.383l-.006-2.557-1.254,2.107h-.444l-1.248-2.052v2.5h-.925v-4.261h.815l1.6,2.648,1.571-2.648h.81l.012,4.261Z" transform="translate(-167.935 -88.021)" fill="#fff"/>
        <path id="Trazado_605577" data-name="Trazado 605577" d="M380.976,188.983c0,.052-6.8.1-15.185.1s-15.186-.043-15.186-.1,6.8-.1,15.186-.1,15.185.043,15.185.1" transform="translate(-153.442 -82.666)" fill="#fff"/>
        <path id="Trazado_605578" data-name="Trazado 605578" d="M354.368,185.993a.409.409,0,1,1-.405-.356.383.383,0,0,1,.405.356" transform="translate(-154.734 -81.244)" fill="#fff"/>
        <path id="Trazado_605579" data-name="Trazado 605579" d="M357,185.993a.409.409,0,1,1-.405-.356.383.383,0,0,1,.405.356" transform="translate(-155.884 -81.244)" fill="#fff"/>
        <path id="Trazado_605580" data-name="Trazado 605580" d="M359.626,185.993a.409.409,0,1,1-.405-.356.383.383,0,0,1,.405.356" transform="translate(-157.035 -81.244)" fill="#fff"/>
      </g>
    </g>
    <g id="Grupo_888882" data-name="Grupo 888882" transform="translate(-10737 12570.433)">
      <path id="Trazado_605604" data-name="Trazado 605604" d="M235.293,73.022a6.057,6.057,0,0,1,6.29-6.15,5.783,5.783,0,0,1,4.314,1.68l-.554.572a5.078,5.078,0,0,0-3.725-1.438,5.337,5.337,0,1,0,0,10.672,5.1,5.1,0,0,0,3.725-1.455l.554.571a5.793,5.793,0,0,1-4.314,1.7,6.057,6.057,0,0,1-6.29-6.15" transform="translate(11809.89 -11775.12)" fill="#12263f"/>
      <path id="Trazado_605605" data-name="Trazado 605605" d="M250.256,77.526l.4-.658a5.768,5.768,0,0,0,4,1.525c2.426,0,3.5-1.057,3.5-2.374,0-3.638-7.572-1.455-7.572-5.925,0-1.716,1.317-3.223,4.3-3.223a6.509,6.509,0,0,1,3.656,1.091l-.33.711a5.987,5.987,0,0,0-3.326-1.022c-2.356,0-3.414,1.091-3.414,2.426,0,3.638,7.571,1.49,7.571,5.89,0,1.715-1.368,3.2-4.365,3.2a6.216,6.216,0,0,1-4.418-1.645" transform="translate(11807.193 -11775.119)" fill="#12263f"/>
      <path id="Trazado_605606" data-name="Trazado 605606" d="M263.125,77.526l.4-.658a5.768,5.768,0,0,0,4,1.525c2.426,0,3.5-1.057,3.5-2.374,0-3.638-7.572-1.455-7.572-5.925,0-1.716,1.317-3.223,4.3-3.223a6.507,6.507,0,0,1,3.656,1.091l-.329.711a5.987,5.987,0,0,0-3.327-1.022c-2.356,0-3.413,1.091-3.413,2.426,0,3.638,7.571,1.49,7.571,5.89,0,1.715-1.368,3.2-4.365,3.2a6.215,6.215,0,0,1-4.418-1.645" transform="translate(11804.875 -11775.119)" fill="#12263f"/>
      <path id="Trazado_605607" data-name="Trazado 605607" d="M274.513,85.891s-.012-.224-.018-.643-.011-1.049-.019-1.845c-.01-1.628-.025-3.993-.043-7.018-.021-6.063-.052-14.762-.089-25.382l.169.17-54.015.044h0l.213-.214c-.006,12.39-.011,24.187-.016,34.888l-.2-.2,38.859.1,11.145.053,2.975.024.771.011a2.594,2.594,0,0,1,.269.011,1.856,1.856,0,0,1-.246.011l-.749.011-2.935.024-11.1.053-38.988.1h-.2v-.2c0-10.7-.011-22.5-.016-34.888V50.79h.217l54.015.044h.17V51c-.037,10.665-.067,19.4-.089,25.487-.019,3.008-.034,5.361-.044,6.98q-.012,1.174-.019,1.813c-.006.407-.018.608-.018.608" transform="translate(11812.595 -11772.223)" fill="#12263f"/>
      <path id="Trazado_605608" data-name="Trazado 605608" d="M274.555,57.318c0,.118-12.1.213-27.02.213s-27.021-.1-27.021-.213,12.1-.213,27.021-.213,27.02.1,27.02.213" transform="translate(11812.553 -11773.36)" fill="#12263f"/>
      <path id="Trazado_605609" data-name="Trazado 605609" d="M225.122,54.132a.665.665,0,1,1-.659-.579.623.623,0,0,1,.659.579" transform="translate(11811.96 -11772.72)" fill="#12263f"/>
      <path id="Trazado_605610" data-name="Trazado 605610" d="M228.052,54.132a.664.664,0,1,1-.659-.579.623.623,0,0,1,.659.579" transform="translate(11811.432 -11772.72)" fill="#12263f"/>
      <path id="Trazado_605611" data-name="Trazado 605611" d="M230.982,54.132a.664.664,0,1,1-.659-.579.623.623,0,0,1,.659.579" transform="translate(11810.903 -11772.72)" fill="#12263f"/>
    </g>
    <g id="Grupo_888883" data-name="Grupo 888883" transform="translate(-10924.984 12449.194)">
      <g id="Grupo_888880" data-name="Grupo 888880" transform="translate(11924.984 -11737.697)">
        <rect id="Rectángulo_300053" data-name="Rectángulo 300053" width="48.182" height="34.346" transform="translate(0.02)" fill="#4adbd1"/>
        <path id="Trazado_605593" data-name="Trazado 605593" d="M77,28.084c0,.117-10.876.211-24.289.211s-24.292-.094-24.292-.211,10.874-.211,24.292-.211S77,27.967,77,28.084" transform="translate(-28.424 -22.989)" fill="#fff"/>
        <path id="Trazado_605594" data-name="Trazado 605594" d="M32.987,24.92a.654.654,0,1,1-.649-.57.613.613,0,0,1,.649.57" transform="translate(-29.033 -22.33)" fill="#fff"/>
        <path id="Trazado_605595" data-name="Trazado 605595" d="M35.895,24.92a.654.654,0,1,1-.649-.57.613.613,0,0,1,.649.57" transform="translate(-29.578 -22.33)" fill="#fff"/>
        <path id="Trazado_605596" data-name="Trazado 605596" d="M38.8,24.92a.654.654,0,1,1-.649-.57.613.613,0,0,1,.649.57" transform="translate(-30.121 -22.33)" fill="#fff"/>
        <path id="Trazado_605597" data-name="Trazado 605597" d="M48.622,44.216c0,2.061-1.494,3.306-3.956,3.306h-2.6V50.58H41.041V40.9h3.625c2.462,0,3.956,1.245,3.956,3.32m-1.024,0c0-1.55-1.024-2.435-2.961-2.435H42.064v4.842h2.574c1.937,0,2.961-.885,2.961-2.407" transform="translate(-30.782 -25.423)" fill="#fff"/>
        <path id="Trazado_605598" data-name="Trazado 605598" d="M61.175,40.9v9.685h-1.01V46.111h-6.06v4.469H53.082V40.9h1.024v4.317h6.06V40.9Z" transform="translate(-33.031 -25.423)" fill="#fff"/>
        <path id="Trazado_605599" data-name="Trazado 605599" d="M74.49,44.216c0,2.061-1.494,3.306-3.956,3.306h-2.6V50.58H66.909V40.9h3.625c2.462,0,3.956,1.245,3.956,3.32m-1.024,0c0-1.55-1.024-2.435-2.961-2.435H67.932v4.842h2.574c1.937,0,2.961-.885,2.961-2.407" transform="translate(-35.614 -25.423)" fill="#fff"/>
      </g>
    </g>
    <g id="Grupo_888887" data-name="Grupo 888887" transform="translate(-10945 12193.161)">
      <path id="Trazado_605612" data-name="Trazado 605612" d="M0,0H70.415V47.148H0Z" transform="translate(11918.545 -11329.036)" fill="#fff"/>
      <path id="Trazado_605613" data-name="Trazado 605613" d="M87.29,130.554s-.007-.295-.011-.858-.007-1.4-.012-2.487c-.006-2.183-.015-5.383-.025-9.482-.013-8.191-.031-19.966-.053-34.32l.1.1-70.41.025h-.006L17,83.406c0,16.8-.007,32.769-.01,47.148l-.116-.116,50.73.057,14.493.031,3.855.014,1,.007c.224,0,.342.007.342.007s-.109,0-.328.007l-.982.007-3.832.014-14.467.031-50.806.057h-.116v-.116c0-14.379-.007-30.351-.01-47.148V83.28h.132l70.41.025h.1v.1c-.022,14.381-.04,26.176-.053,34.383-.011,4.089-.02,7.283-.026,9.46,0,1.08-.008,1.906-.011,2.469s-.011.836-.011.836" transform="translate(11901.67 -11412.441)" fill="#e0e0e0"/>
      <path id="Trazado_605614" data-name="Trazado 605614" d="M16.973,90.888c0-.07,15.751-.127,35.177-.127s35.18.057,35.18.127-15.748.126-35.18.126-35.177-.056-35.177-.126" transform="translate(11901.572 -11415.716)" fill="#e0e0e0"/>
      <g id="Grupo_888884" data-name="Grupo 888884" transform="translate(11920.194 -11327.516)" opacity="0.3">
        <g id="Grupo_181138" data-name="Grupo 181138">
          <g id="Grupo_181137" data-name="Grupo 181137" clip-path="url(#clip-path-33)">
            <path id="Trazado_234092" data-name="Trazado 234092" d="M21.035,86.772a.564.564,0,1,1-.564-.565.565.565,0,0,1,.564.565" transform="translate(-19.906 -86.208)" fill="#e0e0e0"/>
          </g>
        </g>
      </g>
      <g id="Grupo_888885" data-name="Grupo 888885" transform="translate(11922.128 -11327.516)" opacity="0.3">
        <g id="Grupo_181141" data-name="Grupo 181141">
          <g id="Grupo_181140" data-name="Grupo 181140" clip-path="url(#clip-path-33)">
            <path id="Trazado_234093" data-name="Trazado 234093" d="M24.474,86.772a.564.564,0,1,1-.565-.565.565.565,0,0,1,.565.565" transform="translate(-23.345 -86.208)" fill="#e0e0e0"/>
          </g>
        </g>
      </g>
      <g id="Grupo_888886" data-name="Grupo 888886" transform="translate(11924.034 -11327.516)" opacity="0.3">
        <g id="Grupo_181144" data-name="Grupo 181144">
          <g id="Grupo_181143" data-name="Grupo 181143" clip-path="url(#clip-path-33)">
            <path id="Trazado_234094" data-name="Trazado 234094" d="M27.864,86.772a.564.564,0,1,1-.564-.565.565.565,0,0,1,.564.565" transform="translate(-26.735 -86.208)" fill="#e0e0e0"/>
          </g>
        </g>
      </g>
      <rect id="Rectángulo_300055" data-name="Rectángulo 300055" width="18.783" height="18.783" transform="translate(11924.599 -11319.912)" fill="#e0e0e0"/>
      <path id="Trazado_605615" data-name="Trazado 605615" d="M99.552,109.072c0,.07-7.326.127-16.36.127s-16.362-.057-16.362-.127,7.324-.126,16.362-.126,16.36.056,16.36.126" transform="translate(11879.752 -11423.675)" fill="#e0e0e0"/>
      <path id="Trazado_605616" data-name="Trazado 605616" d="M99.552,115.279c0,.07-7.326.126-16.36.126s-16.362-.056-16.362-.126,7.324-.126,16.362-.126,16.36.056,16.36.126" transform="translate(11879.752 -11426.391)" fill="#e0e0e0"/>
      <path id="Trazado_605617" data-name="Trazado 605617" d="M99.552,121.486c0,.07-7.326.126-16.36.126s-16.362-.056-16.362-.126,7.324-.126,16.362-.126,16.36.056,16.36.126" transform="translate(11879.752 -11429.107)" fill="#e0e0e0"/>
      <path id="Trazado_605618" data-name="Trazado 605618" d="M86.169,127.693a4.347,4.347,0,0,1-.76.049l-2.072.04c-1.75.022-4.168.037-6.837.037s-5.089-.014-6.838-.037l-2.072-.04a4.347,4.347,0,0,1-.76-.049,4.42,4.42,0,0,1,.76-.049l2.072-.04c1.749-.023,4.168-.037,6.838-.037s5.087.014,6.837.037l2.072.04a4.42,4.42,0,0,1,.76.049" transform="translate(11879.752 -11431.824)" fill="#e0e0e0"/>
      <rect id="Rectángulo_300056" data-name="Rectángulo 300056" width="8.827" height="8.827" transform="translate(11925.774 -11294.795)" fill="#e0e0e0"/>
      <rect id="Rectángulo_300057" data-name="Rectángulo 300057" width="8.827" height="8.827" transform="translate(11941.782 -11294.795)" fill="#e0e0e0"/>
      <rect id="Rectángulo_300058" data-name="Rectángulo 300058" width="8.827" height="8.827" transform="translate(11957.791 -11294.795)" fill="#e0e0e0"/>
      <rect id="Rectángulo_300059" data-name="Rectángulo 300059" width="8.827" height="8.827" transform="translate(11973.8 -11294.795)" fill="#e0e0e0"/>
    </g>
    <g id="Grupo_888889" data-name="Grupo 888889" transform="translate(-26 -820.295)">
      <path id="Trazado_231293" data-name="Trazado 231293" d="M274.332,240.456a29.945,29.945,0,0,1-21.172-34.679c-.275.739-.53,1.49-.749,2.262a29.949,29.949,0,1,0,57.616,16.377c.219-.772.4-1.544.552-2.318a29.946,29.946,0,0,1-36.247,18.358" transform="translate(953.76 1488.316)" fill="#263238"/>
      <path id="Trazado_231294" data-name="Trazado 231294" d="M289.155,186.6a29.945,29.945,0,0,1,21.172,34.679c.274-.74.53-1.49.749-2.262A29.949,29.949,0,1,0,253.46,202.64c-.219.772-.4,1.544-.552,2.317A29.945,29.945,0,0,1,289.155,186.6" transform="translate(953.699 1489.232)" fill="#455a64"/>
      <path id="Trazado_231296" data-name="Trazado 231296" d="M301.836,237.757c.378.257,28.74,26.414,39.179,36.195a4.551,4.551,0,1,0,6.217-6.649l-38.925-35.956Z" transform="translate(951.899 1487.376)" fill="#263238"/>
    </g>
  </g>
</svg>
