<svg xmlns="http://www.w3.org/2000/svg" xmlns:xlink="http://www.w3.org/1999/xlink" width="205.962" height="176.901" viewBox="0 0 205.962 176.901">
  <defs>
    <clipPath id="clip-path">
      <rect id="Rectángulo_300064" data-name="Rectángulo 300064" width="130.304" height="130.412" fill="#12263f"/>
    </clipPath>
  </defs>
  <g id="Grupo_169367" data-name="Grupo 169367" transform="translate(44.926 44.403)">
    <rect id="Rectángulo_49533" data-name="Rectángulo 49533" width="144.8" height="111.233" transform="translate(16.236 21.265)" fill="#ffde96"/>
    <g id="Grupo_169217" data-name="Grupo 169217" transform="translate(-44.926 -44.403)">
      <rect id="Rectángulo_49754" data-name="Rectángulo 49754" width="166.13" height="153.889" transform="translate(0 0)" fill="none"/>
      <g id="Grupo_888891" data-name="Grupo 888891" transform="translate(35.827 14.341)">
        <g id="Grupo_888890" data-name="Grupo 888890" clip-path="url(#clip-path)">
          <path id="Trazado_605619" data-name="Trazado 605619" d="M44.831,85.5l.739.157a3.931,3.931,0,0,1,3.324,3.98q.019,18.326,0,36.652a3.958,3.958,0,0,1-4.075,4.093q-6.093.057-12.188,0a4.008,4.008,0,0,1-4.122-4.148c-.025-1.324-.006-2.649-.006-3.974q0-15.676,0-31.353c0-3.565.642-4.44,4.074-5.474,0-1.255,0-2.544,0-3.833s-.023-2.591.011-3.886c.015-.584-.189-.8-.772-.9A37.683,37.683,0,0,1,9.2,63.734C1.97,55.11-1.161,45.112.387,33.924,2.419,19.23,10.433,8.807,24.027,3a38.655,38.655,0,0,1,38.7,66.049A38.085,38.085,0,0,1,45.713,76.8c-.684.127-.911.366-.9,1.071.044,2.527.017,5.055.017,7.634M4.088,38.758A34.611,34.611,0,1,0,38.507,4.132,34.681,34.681,0,0,0,4.088,38.758m28.6,83.485v4H44.749V89.672H32.691V93.7c1.177,0,2.265-.027,3.35.022.224.01.614.3.623.474.056,1.166.029,2.336.029,3.635h-4.03v20.317H36.68c0,1.294.021,2.493-.028,3.69-.006.141-.4.374-.618.382-1.085.04-2.173.018-3.347.018m4.077-36.751h3.92V77.473h-3.92Z" transform="translate(0 0)" fill="#12263f"/>
          <path id="Trazado_605620" data-name="Trazado 605620" d="M373.263,119.907H326.514v-4.032h50.828v89.5h-77.3v-4.005h73.226Z" transform="translate(-247.037 -95.407)" fill="#12263f"/>
          <path id="Trazado_605621" data-name="Trazado 605621" d="M490.021,187.413c-3.412,0-6.824.024-10.236-.005a7.135,7.135,0,0,1-3.832-13.148,6.865,6.865,0,0,1,3.753-1.118c6.824-.005,13.648-.061,20.471.017a7.005,7.005,0,0,1,7.111,7.022,7.077,7.077,0,0,1-7.032,7.22c-3.411.057-6.823.012-10.235.013m-.1-4.082v0c3.353,0,6.707.026,10.06-.01a3.047,3.047,0,1,0,.122-6.088q-10.149-.035-20.3,0a2.918,2.918,0,0,0-2.627,1.516,3.053,3.053,0,0,0,2.857,4.581c3.294.029,6.589.007,9.884.007" transform="translate(-389.169 -142.537)" fill="#12263f"/>
          <rect id="Rectángulo_300060" data-name="Rectángulo 300060" width="54.863" height="3.947" transform="translate(63.188 83.631)" fill="#12263f"/>
          <path id="Trazado_605622" data-name="Trazado 605622" d="M391.865,426.8h47.691c1.2,0,1.2,0,1.2,1.178,0,.932,0,1.865,0,2.868-.42.018-.734.044-1.049.044q-23.386,0-46.771.019c-.834,0-1.152-.2-1.085-1.067.074-.959.017-1.928.017-3.044" transform="translate(-322.624 -351.412)" fill="#12263f"/>
          <path id="Trazado_605623" data-name="Trazado 605623" d="M497.586,288.832v3.986c-.362.017-.676.044-.991.044q-17.3,0-34.61.017c-.778,0-1.116-.164-1.054-1.012.073-.987.017-1.984.017-3.035Z" transform="translate(-379.505 -237.812)" fill="#12263f"/>
          <path id="Trazado_605624" data-name="Trazado 605624" d="M489.91,381.114c0,1.207,0,2.374,0,3.542,0,.627-.485.472-.834.473q-5.731.015-11.461.011-7.584,0-15.168,0c-.316,0-.632-.027-1.009-.045v-3.981Z" transform="translate(-379.927 -313.793)" fill="#12263f"/>
          <path id="Trazado_605625" data-name="Trazado 605625" d="M461.51,338.489v-3.937c.3-.016.609-.046.922-.046,6.146,0,12.293.012,18.439-.02.777,0,1.038.2.982.986-.069.96-.016,1.929-.016,3.016Z" transform="translate(-379.987 -275.401)" fill="#12263f"/>
          <rect id="Rectángulo_300061" data-name="Rectángulo 300061" width="12.114" height="3.969" transform="translate(105.963 59.162)" fill="#12263f"/>
          <path id="Trazado_605626" data-name="Trazado 605626" d="M611.95,519.51c0,1.2.023,2.341-.023,3.48a.725.725,0,0,1-.492.508c-3.846.014-7.691-.007-11.537-.024-.026,0-.052-.025-.132-.064v-3.9Z" transform="translate(-493.821 -427.742)" fill="#12263f"/>
          <path id="Trazado_605627" data-name="Trazado 605627" d="M322.978,523.189v-4.062c1.246,0,2.465-.018,3.682.025.13,0,.347.358.354.556.037.967.037,1.938,0,2.905-.008.2-.227.546-.358.551-1.217.043-2.436.025-3.677.025" transform="translate(-265.926 -427.423)" fill="#12263f"/>
          <rect id="Rectángulo_300062" data-name="Rectángulo 300062" width="3.946" height="3.961" transform="translate(65.257 91.748)" fill="#12263f"/>
          <path id="Trazado_605628" data-name="Trazado 605628" d="M415.072,519.255h3.991V523.3c-1.2,0-2.393.012-3.583-.016-.138,0-.387-.224-.39-.348-.03-1.217-.018-2.436-.018-3.679" transform="translate(-341.75 -427.532)" fill="#12263f"/>
          <path id="Trazado_605629" data-name="Trazado 605629" d="M23.142,58.013a34.611,34.611,0,1,1,34.715,34.6,34.7,34.7,0,0,1-34.715-34.6M27.2,58A30.554,30.554,0,1,0,58.14,27.44,30.595,30.595,0,0,0,27.2,58" transform="translate(-19.054 -19.255)" fill="#f3f9ff"/>
          <path id="Trazado_605630" data-name="Trazado 605630" d="M184.931,540.212c1.174,0,2.262.021,3.347-.018.22-.008.612-.24.618-.382.05-1.2.028-2.4.028-3.69h-4.017V515.8h4.03c0-1.3.027-2.469-.029-3.635-.008-.175-.4-.464-.623-.474-1.085-.05-2.174-.022-3.35-.022V507.64h12.058v36.569H184.931Z" transform="translate(-152.244 -417.968)" fill="#b0c0d2"/>
          <rect id="Rectángulo_300063" data-name="Rectángulo 300063" width="3.92" height="8.019" transform="translate(36.764 77.473)" fill="#26aab7"/>
          <path id="Trazado_605631" data-name="Trazado 605631" d="M508.917,202.428c-3.295,0-6.59.022-9.884-.007a3.053,3.053,0,0,1-2.857-4.581,2.918,2.918,0,0,1,2.627-1.516q10.149-.02,20.3,0a3.047,3.047,0,1,1-.122,6.088c-3.353.036-6.707.01-10.06.01Z" transform="translate(-408.168 -161.634)" fill="#b2ebf2"/>
          <path id="Trazado_605632" data-name="Trazado 605632" d="M46.124,76.887a30.553,30.553,0,1,1,30.381,30.567A30.639,30.639,0,0,1,46.124,76.887m4.1,0a26.463,26.463,0,1,0,26.55-26.452A26.477,26.477,0,0,0,50.22,76.884" transform="translate(-37.976 -38.145)" fill="#12263f"/>
          <path id="Trazado_605633" data-name="Trazado 605633" d="M69.31,96.012a26.463,26.463,0,1,1,26.929,26.5,26.506,26.506,0,0,1-26.929-26.5M97.78,114.3a3.731,3.731,0,0,0,.041-.774c-.173-1,.208-1.352,1.233-1.591,6.69-1.56,10.9-5.724,12.6-12.385.36-1.407.317-1.414,1.814-1.472a4.028,4.028,0,0,0,.567-.1V94a8.232,8.232,0,0,0-1.021.007c-.771.1-1.11-.138-1.275-.979A16.352,16.352,0,0,0,99.757,80.24c-.593-.158-1.431-.09-1.733-.466-.332-.414-.173-1.22-.235-1.854,0-.049-.06-.094-.124-.186H93.824c-.032.218-.071.387-.078.557-.062,1.519-.075,1.465-1.53,1.844A16.1,16.1,0,0,0,79.838,92.671c-.1.419-.182.844-.286,1.328-.522,0-.989.023-1.454-.006-.487-.03-.694.142-.679.65.027.941.022,1.883,0,2.825-.009.453.164.642.622.621.516-.023,1.034-.005,1.54-.005.053.288.077.431.106.574,1.429,6.95,5.554,11.38,12.41,13.228,1.551.418,1.563.366,1.645,1.942a4.605,4.605,0,0,0,.078.475Z" transform="translate(-57.067 -57.273)" fill="#b2ebf2"/>
          <path id="Trazado_605634" data-name="Trazado 605634" d="M135.579,152.4h-3.956a4.645,4.645,0,0,1-.077-.475c-.081-1.576-.094-1.524-1.645-1.942-6.855-1.848-10.981-6.278-12.409-13.227-.029-.143-.053-.286-.106-.574-.506,0-1.024-.018-1.541.005-.458.021-.63-.168-.622-.621.018-.941.023-1.884,0-2.825-.015-.509.192-.68.679-.65.464.029.932.006,1.454.006.1-.484.182-.909.286-1.328a16.1,16.1,0,0,1,12.377-12.537c1.456-.379,1.468-.325,1.53-1.844.007-.17.046-.338.078-.557h3.841c.064.093.119.137.124.186.062.635-.1,1.44.235,1.854.3.376,1.139.308,1.733.466a16.351,16.351,0,0,1,11.985,12.785c.165.841.505,1.081,1.276.979a8.266,8.266,0,0,1,1.021-.007v3.983a4.039,4.039,0,0,1-.567.1c-1.5.058-1.454.066-1.814,1.472-1.7,6.661-5.914,10.824-12.6,12.385-1.026.239-1.407.591-1.233,1.591a3.746,3.746,0,0,1-.041.774m-13.927-16.217c.558,5.319,5.753,9.583,9.886,9.828v-3.7h4.116v3.737c5.343-.632,9.6-5.819,9.783-9.9h-3.7V132.07h3.774c-.7-5.462-5.873-9.63-9.917-9.826v3.681h-4.1V122.15c-5.858.878-9.68,6.27-9.808,9.97h3.682v4.059Z" transform="translate(-94.865 -95.368)" fill="#12263f"/>
          <path id="Trazado_605635" data-name="Trazado 605635" d="M151.64,165.649h3.723V161.59H151.68c.129-3.7,3.95-9.093,9.808-9.97v3.774h4.1v-3.681c4.044.2,9.22,4.363,9.917,9.826H171.73v4.083h3.7c-.185,4.078-4.44,9.265-9.783,9.9v-3.737h-4.116v3.7c-4.134-.246-9.328-4.51-9.886-9.828" transform="translate(-124.854 -124.837)" fill="#f6f6f6"/>
        </g>
      </g>
    </g>
  </g>
</svg>
