<svg xmlns="http://www.w3.org/2000/svg" width="382.292" height="223.262" viewBox="0 0 382.292 223.262">
  <g id="Grupo_888968" data-name="Grupo 888968" transform="translate(-1020 -5652.758)">
    <g id="Grupo_888591" data-name="Grupo 888591" transform="translate(0.697 2672.614)">
      <g id="Grupo_885767" data-name="Grupo 885767" transform="translate(1066.738 2950.867)">
        <rect id="Rectángulo_32196" data-name="Rectángulo 32196" width="330.94" height="169.882" transform="translate(0 29.277)" fill="#fb8c00" opacity="0.065"/>
      </g>
      <g id="Grupo_182853" data-name="Grupo 182853" transform="translate(1019.303 2994.454)">
        <g id="Grupo_50301" data-name="Grupo 50301" transform="translate(0 0)">
          <g id="Grupo_50275" data-name="Grupo 50275" transform="translate(13.114 113.067)">
            <path id="Trazado_100403" data-name="Trazado 100403" d="M2710.629,1779.892v78.158a6.984,6.984,0,0,1-.067.965,6.882,6.882,0,0,1-6.825,5.927H2590.352a6.88,6.88,0,0,1-2.28-.386,6.81,6.81,0,0,1-1.461-.716,6.891,6.891,0,0,1-3.151-5.79v-78.158a6.892,6.892,0,0,1,6.892-6.891h113.385A6.892,6.892,0,0,1,2710.629,1779.892Z" transform="translate(-2567.232 -1773)" fill="#12263f"/>
            <path id="Trazado_100500" data-name="Trazado 100500" d="M10.134.007H95.354a22.9,22.9,0,0,1,22.9,22.9V65.793a22.9,22.9,0,0,1-22.9,22.9H9.209C-3.44,88.7.023,90.033.023,77.384V10.5C.023-2.147-2.515.007,10.134.007Z" transform="translate(20.672 4.459)" fill="#fff"/>
            <path id="Trazado_100404" data-name="Trazado 100404" d="M2691.094,1905.077c-1.172,0-2.125-.672-2.125-1.5v-39.951c0-.825.954-1.5,2.125-1.5h99.339c1.171,0,2.124.672,2.124,1.5v39.951c0,.826-.953,1.5-2.124,1.5Z" transform="translate(-2660.95 -1852.171)" fill="#edf4f9"/>
            <path id="Trazado_100405" data-name="Trazado 100405" d="M2710.629,2514.305v3.318a6.883,6.883,0,0,1-3.152,5.789H2586.611a6.885,6.885,0,0,1-3.151-5.789v-3.318Z" transform="translate(-2567.232 -2431.472)" opacity="0.2" style="mix-blend-mode: multiply;isolation: isolate"/>
            <rect id="Rectángulo_29036" data-name="Rectángulo 29036" width="24.79" height="3.787" transform="translate(67.417 86.015)" fill="#172735"/>
            <path id="Trazado_100406" data-name="Trazado 100406" d="M2597.853,2544.284v1.884a6.249,6.249,0,0,1-6.249,6.249H2444.476a6.249,6.249,0,0,1-6.249-6.249v-1.884a1.516,1.516,0,0,1,1.517-1.516h66.993l1.276,2.212a2.742,2.742,0,0,0,2.375,1.372h15.3a2.741,2.741,0,0,0,2.375-1.372l1.276-2.212h66.992A1.516,1.516,0,0,1,2597.853,2544.284Z" transform="translate(-2438.227 -2456.754)" fill="#12263f"/>
            <g id="Grupo_50274" data-name="Grupo 50274" transform="translate(28.018 58.678)">
              <rect id="Rectángulo_29037" data-name="Rectángulo 29037" width="14.468" height="14.468" rx="2" fill="#edf4f9"/>
              <rect id="Rectángulo_29038" data-name="Rectángulo 29038" width="27.095" height="1.197" transform="translate(17.794 0.466)" fill="#edf4f9"/>
              <rect id="Rectángulo_29039" data-name="Rectángulo 29039" width="27.095" height="1.197" transform="translate(17.794 3.127)" fill="#edf4f9"/>
              <rect id="Rectángulo_29040" data-name="Rectángulo 29040" width="12.406" height="1.197" transform="translate(17.794 5.787)" fill="#edf4f9"/>
              <rect id="Rectángulo_29041" data-name="Rectángulo 29041" width="24.347" height="1.197" transform="translate(17.794 9.646)" fill="#edf4f9"/>
            </g>
            <rect id="Rectángulo_29042" data-name="Rectángulo 29042" width="14.468" height="14.468" rx="2" transform="translate(83.321 58.678)" fill="#edf4f9"/>
            <rect id="Rectángulo_29043" data-name="Rectángulo 29043" width="27.095" height="1.197" transform="translate(101.116 59.07)" fill="#edf4f9"/>
            <rect id="Rectángulo_29044" data-name="Rectángulo 29044" width="27.095" height="1.197" transform="translate(101.116 61.731)" fill="#edf4f9"/>
            <rect id="Rectángulo_29045" data-name="Rectángulo 29045" width="12.406" height="1.197" transform="translate(101.116 64.392)" fill="#edf4f9"/>
            <rect id="Rectángulo_29046" data-name="Rectángulo 29046" width="24.347" height="1.197" transform="translate(101.116 68.25)" fill="#edf4f9"/>
          </g>
          <g id="Grupo_50282" data-name="Grupo 50282" transform="translate(0 115.318)">
            <path id="Trazado_100407" data-name="Trazado 100407" d="M2486.813,2541.067s-4.976,2.882-13.473-.991a13.966,13.966,0,0,1,8.321-2.289C2486.284,2538.139,2486.813,2541.067,2486.813,2541.067Z" transform="translate(-2456.301 -2454.552)"/>
            <path id="Trazado_100408" data-name="Trazado 100408" d="M2334.73,2515.56s-6.075,2.577-13.868-3.169c0,0,4.094-4.095,7.99-4.095S2334.73,2515.56,2334.73,2515.56Z" transform="translate(-2320.862 -2428.385)"/>
            <g id="Grupo_50277" data-name="Grupo 50277" transform="translate(5.621 82.333)">
              <g id="Grupo_50276" data-name="Grupo 50276" transform="translate(0.168)">
                <path id="Trazado_100409" data-name="Trazado 100409" d="M2380.329,2537.21s1.452-4.557,1.673-5.2-4.8-2.047-4.8-2.047.924,4.536.55,6.516-.11,2.488-.11,2.488Z" transform="translate(-2376.696 -2529.968)" fill="#ebc4a1"/>
                <path id="Trazado_100410" data-name="Trazado 100410" d="M2372.887,2589.58a1.288,1.288,0,0,0,.627.418c.285.067,8.443-.213,8.75-.5.034-.031.2.015.237-.023a2.368,2.368,0,0,0,.666-1.1c-.021-.264-6.141-2.07-6.56-2.62a2.546,2.546,0,0,0-2.884-.265,13.837,13.837,0,0,1-.976,3.044c-.049.1.05.422,0,.512C2372.59,2589.295,2372.678,2589.367,2372.887,2589.58Z" transform="translate(-2372.666 -2578.969)" fill="#12263f"/>
              </g>
              <path id="Trazado_100411" data-name="Trazado 100411" d="M2371.35,2616.591a3.005,3.005,0,0,0,.8.663c.285.067,8.606-.4,8.914-.683.033-.031.069-.067.105-.1-2.145-.152-7.276-.548-9.754-.946-.049.1-.1.19-.154.28A.649.649,0,0,0,2371.35,2616.591Z" transform="translate(-2371.166 -2605.96)" fill="#e1f0ff"/>
            </g>
            <g id="Grupo_50279" data-name="Grupo 50279" transform="translate(22.447 81.524)">
              <g id="Grupo_50278" data-name="Grupo 50278" transform="translate(0.075)">
                <path id="Trazado_100412" data-name="Trazado 100412" d="M2535.464,2530.272s1.953-4.366,2.244-4.976-4.54-2.57-4.54-2.57.411,4.611-.182,6.537-.387,2.459-.387,2.459Z" transform="translate(-2531.431 -2522.726)" fill="#ebc4a1"/>
                <path id="Trazado_100413" data-name="Trazado 100413" d="M2522.75,2583.354a1.988,1.988,0,0,0,.671.605c.276.1,8.126.6,8.465.353.036-.027.329.074.369.04.337-.283.778-.787.784-1.023.01-.265-5.871-2.743-6.225-3.337a2.546,2.546,0,0,0-2.836-.585,13.816,13.816,0,0,1-1.31,2.916c-.059.092-.121.177-.184.26C2522.3,2582.819,2522.567,2583.118,2522.75,2583.354Z" transform="translate(-2522.423 -2572.869)" fill="#12263f"/>
              </g>
              <path id="Trazado_100414" data-name="Trazado 100414" d="M2521.885,2608.375a2.975,2.975,0,0,0,.719.748c.276.1,8.6.569,8.935.318.037-.027.076-.059.117-.093-2.114-.39-7.169-1.357-9.588-2.029-.059.092-.12.178-.184.261A.647.647,0,0,0,2521.885,2608.375Z" transform="translate(-2521.747 -2597.865)" fill="#e1f0ff"/>
            </g>
            <path id="Trazado_100415" data-name="Trazado 100415" d="M2738.357,1997.847s2.775,5.284-.7,9.818c0,0-2.247-3.39-1.41-5.987S2737.345,1998.331,2738.357,1997.847Z" transform="translate(-2689.662 -1974.974)" fill="#002c3d"/>
            <path id="Trazado_100416" data-name="Trazado 100416" d="M2320.862,2166.192c9.51-.991,13.868,3.169,13.868,3.169,1.094-1.805,2.364-7.189,3.427-12.584.952-4.824,1.744-9.655,2.106-11.94.138-.863.213-1.364.213-1.364l1.656,2.209,1.911,2.547c-.133,5.283-6.143,19.481-6.143,19.481,9.774-2.442,13.473.991,13.473.991,1.086-1.117,2.756-4.975,4.236-8.914a78.048,78.048,0,0,0,3.2-9.906c-.242-2.808-11.226-18.492-12.415-21.574a33.588,33.588,0,0,1-1.631-5.548c-.095-.123-.193-.241-.288-.357-6.323-7.564-15.122-1.669-15.122-1.669s-.352,16.114-1.056,22.368S2320.862,2166.192,2320.862,2166.192Z" transform="translate(-2320.862 -2082.186)" fill="#12263f"/>
            <path id="Trazado_100417" data-name="Trazado 100417" d="M2457.787,1843.951a3.8,3.8,0,0,1-.781,2.64c-.953,1.092-.39,1.949-.244,2.065s4.458.213,4.458.213l.218-.516.293-.688-.545-.612a1.272,1.272,0,0,1-.21-.542,5.48,5.48,0,0,1-.08-1.476.007.007,0,0,0,0,0c.026.021.46.4,1.1.966.581.509,1.539-1.682,1.495-2.714a13.6,13.6,0,0,0-.11-1.433,1.222,1.222,0,0,0,.884-.116.292.292,0,0,0,.146-.372,3.537,3.537,0,0,1-.532-2.453,2.719,2.719,0,0,1,.141-.416c.391-.907-3.151-1.9-5.568-1.544-1.266.19-2.222.75-2.142,1.89A10.853,10.853,0,0,0,2457.787,1843.951Z" transform="translate(-2441.177 -1831.996)" fill="#ebc4a1"/>
            <path id="Trazado_100418" data-name="Trazado 100418" d="M2320.862,2166.192c9.51-.991,13.868,3.169,13.868,3.169,1.094-1.805,2.364-7.189,3.427-12.584a2.208,2.208,0,0,0-.624.542,28.734,28.734,0,0,0-1.379,2.825,4.106,4.106,0,0,1-7.094-.131c-1.331-2.383-.054-5.3.963-7.828a38.909,38.909,0,0,0,2.789-14.318c.007-2.694-.262-5.422.272-8.064s2.075-5.278,4.6-6.236c1.789-.683,3.747-.421,5.6-.8a7.519,7.519,0,0,0,1.2-.365c-6.323-7.564-15.122-1.669-15.122-1.669s-.352,16.114-1.056,22.368S2320.862,2166.192,2320.862,2166.192Z" transform="translate(-2320.862 -2082.186)" fill="#12263f" opacity="0.3" style="mix-blend-mode: multiply;isolation: isolate"/>
            <path id="Trazado_100419" data-name="Trazado 100419" d="M2392.7,2185.538a10.918,10.918,0,0,1-9.477,4.592s.66-3.239,4.919-4.592S2392.7,2185.538,2392.7,2185.538Z" transform="translate(-2376.25 -2141.158)" fill="#002c3d"/>
            <path id="Trazado_100420" data-name="Trazado 100420" d="M2733.124,2015.5c.018.552.139,1.114.211,1.662a1.737,1.737,0,0,0,.228.77,1.276,1.276,0,0,0,.979.467c.375.023.75-.041,1.123-.038a4.681,4.681,0,0,1,2.286.739c.126.075.251.152.374.231.558.36,1.09.755,1.657,1.094a9.683,9.683,0,0,0,2.977,1.161.267.267,0,0,0,.29-.391.229.229,0,0,0-.071-.079,7.386,7.386,0,0,0-1.6-.9c.043.016.085.031.128.044q1.373.478,2.746.953c.2.07.457.119.578-.051a.336.336,0,0,0-.049-.393.965.965,0,0,0-.352-.229q-1.183-.543-2.368-1.089l2.872,1.024c.254.09.607.144.727-.095a.375.375,0,0,0-.093-.421,1.108,1.108,0,0,0-.392-.231l-2.763-1.148c.811.275,1.623.553,2.434.827.26.09.6.16.771-.057a.468.468,0,0,0-.085-.6,1.372,1.372,0,0,0-.585-.288l-4.032-1.228a9.488,9.488,0,0,0,1.546.2.958.958,0,0,0,.4-.044.34.34,0,0,0,.224-.313c-.011-.188-.213-.3-.386-.368a5.269,5.269,0,0,0-3.053-.578c-.447.1-.86.311-1.3.422a4.26,4.26,0,0,1-2.79-.64c-.123-.064-.24-.119-.352-.167a3.947,3.947,0,0,1-.862-.475,1.416,1.416,0,0,0-.946-.377C2733.24,2014.931,2733.114,2015.175,2733.124,2015.5Z" transform="translate(-2687.057 -1990.119)" fill="#ebc4a1"/>
            <path id="Trazado_100421" data-name="Trazado 100421" d="M2733.124,2015.5c.018.552.139,1.114.211,1.662a1.737,1.737,0,0,0,.228.77,1.276,1.276,0,0,0,.979.467c.375.023.75-.041,1.123-.038a4.681,4.681,0,0,1,2.286.739c.126.075.251.152.374.231a4.4,4.4,0,0,0-1.525-1.292,2.706,2.706,0,0,1-1.387-1.625,2.924,2.924,0,0,1-.013-.665,3.947,3.947,0,0,1-.862-.475,1.416,1.416,0,0,0-.946-.377C2733.24,2014.931,2733.114,2015.175,2733.124,2015.5Z" transform="translate(-2687.057 -1990.119)" fill="#1a1a1a" opacity="0.3" style="mix-blend-mode: multiply;isolation: isolate"/>
            <g id="Grupo_50281" data-name="Grupo 50281" transform="translate(10.268 42.962)">
              <g id="Grupo_50280" data-name="Grupo 50280">
                <path id="Trazado_100422" data-name="Trazado 100422" d="M2455.531,2258.728a1.858,1.858,0,0,0,1.64-.41.291.291,0,0,0-.3-.309c-.319-.022-1.2.33-1.849,0v.518Z" transform="translate(-2450.3 -2249.026)" fill="#ebc4a1"/>
                <path id="Trazado_100423" data-name="Trazado 100423" d="M2456.954,2257.521s1.142,1.589,1.72,1.754.941.248,1.057.446a1.509,1.509,0,0,1,.124.473.188.188,0,0,1-.21.212,3.923,3.923,0,0,1-1.273-.354s-1.26-.72-1.417-1.075A4.388,4.388,0,0,1,2456.954,2257.521Z" transform="translate(-2451.953 -2248.594)" fill="#ebc4a1"/>
                <path id="Trazado_100424" data-name="Trazado 100424" d="M2462.522,2264.718a1.856,1.856,0,0,0,1.639-.41.29.29,0,0,0-.3-.308c-.318-.022-1.2.331-1.849,0v.517Z" transform="translate(-2456.511 -2254.347)" fill="#ebc4a1"/>
                <path id="Trazado_100425" data-name="Trazado 100425" d="M2412.754,2179.445s1.9,3.031,2.486,4.382a2.612,2.612,0,0,1,.156.442,44.239,44.239,0,0,0,3.284,6.634c.231.067.249-.644.249-.958a10.906,10.906,0,0,0-.455-1.292c-.156-.408-.326-.87-.479-1.32-.07-.208-.134-.414-.193-.609-.015-.054-.031-.108-.046-.159v0c-.18-.645-.259-1.171-.1-1.338.5-.513,1.3.758,1.369.825a1.82,1.82,0,0,0,.909.231,9.42,9.42,0,0,0-1.405-2.312,15.344,15.344,0,0,1-1.682-1.222,16.108,16.108,0,0,1-.786-3.316c-.175-.983-.306-1.8-.306-1.8Z" transform="translate(-2412.754 -2177.629)" fill="#ebc4a1"/>
              </g>
              <path id="Trazado_100426" data-name="Trazado 100426" d="M2412.754,2179.445s1.9,3.031,2.486,4.382a1.677,1.677,0,0,0,.046-.349,6.458,6.458,0,0,0-.237-1.513,2.483,2.483,0,0,1,.059-1.51,2.887,2.887,0,0,1,.956-1.025c-.175-.983-.306-1.8-.306-1.8Z" transform="translate(-2412.754 -2177.629)" fill="#1a1a1a" opacity="0.3" style="mix-blend-mode: multiply;isolation: isolate"/>
            </g>
            <path id="Trazado_100427" data-name="Trazado 100427" d="M2356.337,1944.7c.331,1.716,3.337,7.1,2.875,13.439,0,0,3.963-4.987,9.477-4.592l-1.459-3.642-.809-2.013a17.149,17.149,0,0,1,9.729,1.849,5.339,5.339,0,0,1-.5-2.835,9.782,9.782,0,0,1,.144-1.261c.205-1.158.483-3.066.732-4.956.333-2.56.616-5.09.59-5.7v-.01c0-.306.7-.033,1.682.493,2.266,1.228,6.022,3.832,6.022,3.832s15.453,2.684,15.41,2.553-1.233-7.618.7-9.819c0,0-1.79-.241-4.268-.494a94.617,94.617,0,0,0-9.469-.562s-9.376-4.492-11.447-5.2-2.817-1.564-3.5-1.564c0,0-.155.9-.681.814s-3.128-1.253-3.5-1.276a.249.249,0,0,0-.2.046,2.614,2.614,0,0,1-.926.791c-1.036.593-2,.529-3.083,1.453s-4.139,5.812-7.53,17.7C2356.337,1943.75,2356.009,1942.979,2356.337,1944.7Z" transform="translate(-2352.244 -1909.165)" fill="#dee7f3"/>
            <path id="Trazado_100428" data-name="Trazado 100428" d="M2433.16,2005.494a39.764,39.764,0,0,0,1.627,4.448,17.149,17.149,0,0,1,9.729,1.849,5.347,5.347,0,0,1-.5-2.835,26.591,26.591,0,0,0-6.15-1.379c-2.861-.38-2.322.031-2.554-2.522-.228-2.5,1.346-11.115,1.406-11.437C2436.6,1993.993,2433.113,2004.844,2433.16,2005.494Z" transform="translate(-2420.611 -1971.218)" fill="#1a1a1a" opacity="0.3" style="mix-blend-mode: multiply;isolation: isolate"/>
            <path id="Trazado_100429" data-name="Trazado 100429" d="M2489.575,1904.805a5.5,5.5,0,0,1-.079-1.477l-.987-.82A5.587,5.587,0,0,0,2489.575,1904.805Z" transform="translate(-2469.776 -1890.289)" fill="#1a1a1a" opacity="0.3" style="mix-blend-mode: multiply;isolation: isolate"/>
            <path id="Trazado_100430" data-name="Trazado 100430" d="M2454.427,1839.434a1.874,1.874,0,0,1,1.2.12c-.223-.309-.4-.54-.4-.54s1-1.682,1.284-2.057c2.417-.359,5.958.637,5.568,1.544a2.723,2.723,0,0,0-.142.416,3.091,3.091,0,0,1-1.741.229c-2.494-.265-3.169-.693-3.236.347a5.323,5.323,0,0,0,.609,2.424l.036.069a3.978,3.978,0,0,1-.854-.709c-.455-.344-.957-.658-1.134-.531-.352.253.231,1.321.462,1.442s-.1,1.761-.1,1.761-.958-1.2-.98-1.255S2453.506,1839.729,2454.427,1839.434Z" transform="translate(-2439.234 -1831.996)" fill="#1a1a1a" opacity="0.3" style="mix-blend-mode: multiply;isolation: isolate"/>
            <path id="Trazado_100431" data-name="Trazado 100431" d="M2443,1799.756c-.043,3.346,3.106,5.349,3.106,5.349l-.231-1.269-.033-.185c-.75-.285-1.146-1.872-.442-2.2.629-.3,1.179.514,1.289.693-.123-.236-.814-1.639.01-2.565.9-1.012,2.047.331,5.244.311s1.252-5.175,1.252-5.175c-.727,1.146-2.335.55-2.335.55a3.134,3.134,0,0,0,.66-2.114,3.345,3.345,0,0,1-.193.288,4.779,4.779,0,0,1-3.724,2.09C2445.023,1795.551,2443.04,1796.41,2443,1799.756Z" transform="translate(-2429.348 -1793.15)" fill="#1a1a1a"/>
            <path id="Trazado_100432" data-name="Trazado 100432" d="M2356.337,1945.074c.331,1.715,3.337,7.1,2.875,13.44,0,0,3.963-4.987,9.477-4.592l-1.459-3.642a.422.422,0,0,0-.259.208c-.925,1.718-5.876,1.554-6.043.2s-1.816-4.59-2.145-6.6,1.849-6.539,2.443-9.082,2.378-7,4.589-8.452,2.062-2.365,2.062-2.365a2.615,2.615,0,0,1-.926.791c-1.036.594-2,.529-3.083,1.454s-4.139,5.812-7.53,17.7C2356.337,1944.126,2356.009,1943.355,2356.337,1945.074Z" transform="translate(-2352.244 -1909.542)" fill="#1a1a1a" opacity="0.3" style="mix-blend-mode: multiply;isolation: isolate"/>
            <path id="Trazado_100433" data-name="Trazado 100433" d="M2533.842,1961.621c1.577,1.857,4.736,5.4,6.9,6.708a10.424,10.424,0,0,0,6.444,1.937c2.4.125,7.671-.855,6.415-6.128,2.478.252,4.269.493,4.269.493-1.937,2.2-.75,9.688-.7,9.819s-15.409-2.553-15.409-2.553-3.758-2.6-6.022-3.832c-.982-.526-1.682-.8-1.682-.493-.005-.246-.124-4.754-1.184-7.114a.008.008,0,0,1,0-.005A4.2,4.2,0,0,1,2533.842,1961.621Z" transform="translate(-2509.178 -1941.758)" fill="#1a1a1a" opacity="0.3" style="mix-blend-mode: multiply;isolation: isolate"/>
            <path id="Trazado_100434" data-name="Trazado 100434" d="M2460.767,1923.807s4.444,3.146,4.8,2.232a2.012,2.012,0,0,0-.418-1.816s-.154.9-.681.814-3.128-1.253-3.5-1.276A.251.251,0,0,0,2460.767,1923.807Z" transform="translate(-2445.134 -1909.165)" fill="#1a1a1a" opacity="0.3" style="mix-blend-mode: multiply;isolation: isolate"/>
            <path id="Trazado_100435" data-name="Trazado 100435" d="M2473.34,2265.657c9.774-2.442,13.473.992,13.473.992,1.087-1.118,2.756-4.976,4.236-8.915a.742.742,0,0,0-.093-.052c-1.081-.532-2.367.1-3.332.817s-1.957,1.605-3.161,1.613a7.678,7.678,0,0,1-2.3-.617,2.323,2.323,0,0,0-2.268.242,41.84,41.84,0,0,0,3.108-6.321,13.958,13.958,0,0,0,.82-6.927,22.284,22.284,0,0,0-3.393-8.833,26.809,26.809,0,0,1-4.315-8.842c-.157,3.912.583,7.8-.193,11.667a11.683,11.683,0,0,0-.218,2.3c.138-.863.213-1.365.213-1.365l1.656,2.209,1.911,2.548C2479.349,2251.46,2473.34,2265.657,2473.34,2265.657Z" transform="translate(-2456.301 -2180.134)" fill="#1a1a1a" opacity="0.3" style="mix-blend-mode: multiply;isolation: isolate"/>
            <path id="Trazado_100436" data-name="Trazado 100436" d="M2443,1802.042c-.043,3.346,3.106,5.35,3.106,5.35l-.231-1.269c-.121-.067-.239-.139-.352-.213a3.738,3.738,0,0,1-1.445-3.791,4.806,4.806,0,0,1,2.607-3.238,30.7,30.7,0,0,0,3.089-1.3,4.223,4.223,0,0,0,1.266-1.292,4.129,4.129,0,0,0,.288-.565,4.779,4.779,0,0,1-3.724,2.09C2445.023,1797.838,2443.04,1798.7,2443,1802.042Z" transform="translate(-2429.348 -1795.437)" fill="#1a1a1a" opacity="0.3" style="mix-blend-mode: multiply;isolation: isolate"/>
          </g>
          <g id="Grupo_50284" data-name="Grupo 50284" transform="translate(16.107 40.968)">
            <path id="Trazado_100437" data-name="Trazado 100437" d="M2520.549,1127.775h-51.157c-2.419,0-4.381,2.358-4.381,5.268v38.074c0,2.909,1.962,5.268,4.381,5.268h51.157c2.419,0,4.381-2.359,4.381-5.268v-38.074C2524.93,1130.133,2522.968,1127.775,2520.549,1127.775Z" transform="translate(-2465.01 -1127.775)" fill="#d7e9f9"/>
            <path id="Trazado_100438" data-name="Trazado 100438" d="M2524.926,1133.045v2.088h-59.92v-2.088c0-2.909,1.962-5.267,4.381-5.267h51.157C2522.964,1127.778,2524.926,1130.136,2524.926,1133.045Z" transform="translate(-2465.006 -1127.778)" fill="#26aab7"/>
            <g id="Grupo_50283" data-name="Grupo 50283" transform="translate(9.061 16.339)">
              <rect id="Rectángulo_29047" data-name="Rectángulo 29047" width="7.365" height="14.347" rx="2" transform="translate(0 10.879)" fill="#f5ca56"/>
              <rect id="Rectángulo_29048" data-name="Rectángulo 29048" width="7.365" height="17.861" rx="2" transform="translate(11.477 7.365)" fill="#f5ca56"/>
              <rect id="Rectángulo_29049" data-name="Rectángulo 29049" width="7.365" height="21.4" rx="2" transform="translate(22.955 3.826)" fill="#dbdada"/>
              <rect id="Rectángulo_29050" data-name="Rectángulo 29050" width="7.365" height="25.226" rx="2" transform="translate(34.433)" fill="#dbdada"/>
            </g>
            <circle id="Elipse_4018" data-name="Elipse 4018" cx="1.433" cy="1.433" r="1.433" transform="translate(2.946 2.567)" fill="#d8e5ed"/>
            <circle id="Elipse_4019" data-name="Elipse 4019" cx="1.433" cy="1.433" r="1.433" transform="translate(6.85 2.567)" fill="#d8e5ed"/>
            <circle id="Elipse_4020" data-name="Elipse 4020" cx="1.433" cy="1.433" r="1.433" transform="translate(10.754 2.567)" fill="#d8e5ed"/>
          </g>
          <path id="Trazado_100439" data-name="Trazado 100439" d="M3362.783,1860.531v1.884a6.249,6.249,0,0,1-6.249,6.249h-53.92a17.536,17.536,0,0,1-1.485-2.509q-.289-.594-.531-1.213a17.413,17.413,0,0,1-1.206-5.927c0-.161-.007-.321-.007-.483V1773h40.278a6.892,6.892,0,0,1,6.892,6.891v79.123h14.711A1.517,1.517,0,0,1,3362.783,1860.531Z" transform="translate(-3190.043 -1659.934)" opacity="0.05" style="mix-blend-mode: multiply;isolation: isolate"/>
          <g id="Grupo_50287" data-name="Grupo 50287" transform="translate(116.755 15.401)">
            <g id="Grupo_50285" data-name="Grupo 50285">
              <path id="Trazado_100440" data-name="Trazado 100440" d="M3820.073,939.692q-.2-.52-.386-1.046a31.815,31.815,0,0,1,.511-22.3,12,12,0,1,0-21.436,0,31.8,31.8,0,0,1,.51,22.3q-.182.525-.385,1.046-.311.8-.67,1.593l-.73,1.614h23.99l-.733-1.614Q3820.386,940.5,3820.073,939.692ZM3809.479,905.8a5.335,5.335,0,1,1-5.334,5.336A5.336,5.336,0,0,1,3809.479,905.8Z" transform="translate(-3749.24 -898.965)" fill="#12263f"/>
              <path id="Trazado_100441" data-name="Trazado 100441" d="M3821.473,1180.423h-23.989l.731-1.615a31.753,31.753,0,0,0,2.821-12.44h16.885a31.74,31.74,0,0,0,2.821,12.44Z" transform="translate(-3749.239 -1136.488)" fill="#1a1a1a" opacity="0.2" style="mix-blend-mode: multiply;isolation: isolate"/>
              <path id="Trazado_100442" data-name="Trazado 100442" d="M3486.21,1225.038V1362.8a10.143,10.143,0,0,1-10.131,10.132H3375.863a10.143,10.143,0,0,1-10.131-10.132V1225.038a10.143,10.143,0,0,1,10.131-10.131h100.215A10.142,10.142,0,0,1,3486.21,1225.038Z" transform="translate(-3365.732 -1179.603)" fill="#12263f"/>
              <rect id="Rectángulo_29051" data-name="Rectángulo 29051" width="109.63" height="147.178" rx="2" transform="translate(5.424 40.728)" fill="#fff"/>
              <path id="Trazado_100443" data-name="Trazado 100443" d="M3706.218,1261.979l-3.755-6.3a3.269,3.269,0,0,0-2.8-1.594h-42.977a3.256,3.256,0,0,0-2.393,1.046,3.155,3.155,0,0,0-.411.548l-3.756,6.3a3.264,3.264,0,0,0,2.8,4.935h50.489A3.264,3.264,0,0,0,3706.218,1261.979Zm-14.118.89h-27.86a1.186,1.186,0,0,1,0-2.372h27.86a1.186,1.186,0,1,1,0,2.372Z" transform="translate(-3617.931 -1214.4)" fill="#12263f"/>
            </g>
            <g id="Grupo_50286" data-name="Grupo 50286" transform="translate(16.06 63.187)">
              <rect id="Rectángulo_29052" data-name="Rectángulo 29052" width="19.578" height="19.578" rx="2" fill="#dee7f3"/>
              <rect id="Rectángulo_29053" data-name="Rectángulo 29053" width="19.578" height="19.578" rx="2" transform="translate(0 38.797)" fill="#dee7f3"/>
              <rect id="Rectángulo_29054" data-name="Rectángulo 29054" width="19.578" height="19.578" rx="2" transform="translate(0 77.594)" fill="#dee7f3"/>
            </g>
            <rect id="Rectángulo_29055" data-name="Rectángulo 29055" width="60.994" height="1.585" transform="translate(42.546 66.623)" fill="#edf4f9"/>
            <rect id="Rectángulo_29056" data-name="Rectángulo 29056" width="60.994" height="1.585" transform="translate(42.546 72.184)" fill="#edf4f9"/>
            <rect id="Rectángulo_29057" data-name="Rectángulo 29057" width="60.994" height="1.585" transform="translate(42.546 77.745)" fill="#edf4f9"/>
            <rect id="Rectángulo_29058" data-name="Rectángulo 29058" width="60.994" height="1.585" transform="translate(42.546 105.42)" fill="#edf4f9"/>
            <rect id="Rectángulo_29059" data-name="Rectángulo 29059" width="60.994" height="1.585" transform="translate(42.546 110.981)" fill="#edf4f9"/>
            <rect id="Rectángulo_29060" data-name="Rectángulo 29060" width="60.994" height="1.585" transform="translate(42.546 116.542)" fill="#edf4f9"/>
            <rect id="Rectángulo_29061" data-name="Rectángulo 29061" width="60.994" height="1.585" transform="translate(42.546 144.217)" fill="#edf4f9"/>
            <rect id="Rectángulo_29062" data-name="Rectángulo 29062" width="60.994" height="1.585" transform="translate(42.546 149.778)" fill="#edf4f9"/>
            <rect id="Rectángulo_29063" data-name="Rectángulo 29063" width="60.994" height="1.585" transform="translate(42.546 155.339)" fill="#edf4f9"/>
          </g>
          <g id="Grupo_50292" data-name="Grupo 50292" transform="translate(98.297 0)">
            <g id="Grupo_50288" data-name="Grupo 50288" transform="translate(31.149)">
              <path id="Trazado_100444" data-name="Trazado 100444" d="M3510.6,813.976c-.142.163-4.984,1.263-4.984,1.263l-.364-.533-.49-.709.476-.815a1.493,1.493,0,0,0,.113-.659,4.3,4.3,0,0,0-.021-.474,7.706,7.706,0,0,0-.228-1.209s0,0,0,0c-.025.03-.427.559-1.024,1.345-.54.706-2.124-1.546-2.311-2.722a15.368,15.368,0,0,1-.2-1.643,1.407,1.407,0,0,1-1.024.073.339.339,0,0,1-.252-.387,4.075,4.075,0,0,0,.038-2.89,3.224,3.224,0,0,0-.255-.437c-.648-.933,3.12-2.871,5.93-3.02,1.473-.076,2.68.337,2.852,1.641a12.487,12.487,0,0,1-.488,6.1,4.375,4.375,0,0,0,1.489,2.8C3511.174,812.713,3510.737,813.811,3510.6,813.976Z" transform="translate(-3497.681 -796.68)" fill="#ebc4a1"/>
              <path id="Trazado_100445" data-name="Trazado 100445" d="M3508.921,803.542a2.157,2.157,0,0,0-1.328.411c.181-.4.323-.7.323-.7s-1.514-1.669-1.922-2.027c-2.811.149-6.58,2.087-5.931,3.021a3.168,3.168,0,0,1,.255.437,3.562,3.562,0,0,0,2.018-.142c2.755-.871,3.418-1.51,3.732-.351a6.116,6.116,0,0,1-.13,2.876l-.024.086a4.586,4.586,0,0,0,.8-1c.435-.492.928-.962,1.157-.859.455.2.042,1.544-.191,1.734s.516,1.965.516,1.965.806-1.574.819-1.641S3510.027,803.663,3508.921,803.542Z" transform="translate(-3497.678 -796.747)" fill="#1a1a1a" opacity="0.3" style="mix-blend-mode: multiply;isolation: isolate"/>
              <path id="Trazado_100446" data-name="Trazado 100446" d="M3492.106,766.639c.817,3.767-2.277,6.751-2.277,6.751l-.031-1.485,0-.216c.781-.494.863-2.376-.007-2.586-.777-.189-1.212.85-1.3,1.079.085-.295.543-2.036-.6-2.894-1.253-.935-2.234.844-5.848,1.555s-2.6-5.555-2.6-5.555c1.084,1.126,2.761.085,2.761.085a3.6,3.6,0,0,1-1.23-2.234,3.781,3.781,0,0,0,.283.28,5.5,5.5,0,0,0,4.683,1.505C3488.854,762.358,3491.289,762.871,3492.106,766.639Z" transform="translate(-3479.312 -761.138)" fill="#1a1a1a"/>
              <path id="Trazado_100447" data-name="Trazado 100447" d="M3507.572,768.867c.818,3.767-2.277,6.751-2.277,6.751l-.03-1.485c.121-.1.237-.212.348-.321a4.307,4.307,0,0,0,.762-4.611,5.541,5.541,0,0,0-3.687-3.057,35.291,35.291,0,0,1-3.786-.758,4.861,4.861,0,0,1-1.726-1.168,4.776,4.776,0,0,1-.455-.572,5.506,5.506,0,0,0,4.684,1.505C3504.319,764.587,3506.754,765.1,3507.572,768.867Z" transform="translate(-3494.777 -763.367)" fill="#1a1a1a" opacity="0.3" style="mix-blend-mode: multiply;isolation: isolate"/>
              <path id="Trazado_100448" data-name="Trazado 100448" d="M3546.651,874.079a6.738,6.738,0,0,1-.728,2.748,7.745,7.745,0,0,0-.229-1.209v0Z" transform="translate(-3538.276 -861.459)" fill="#1a1a1a" opacity="0.3" style="mix-blend-mode: multiply;isolation: isolate"/>
            </g>
            <path id="Trazado_100449" data-name="Trazado 100449" d="M3355.616,1069.335s-.878,2.04-.337,2.04,1.628-2.392,2.145-2.59l.155-.069-.064-.607-.865-.1Z" transform="translate(-3337.833 -1033.716)" fill="#ebc4a1"/>
            <path id="Trazado_100450" data-name="Trazado 100450" d="M3333.629,1029.667l-1.317.87s-.325.06-.748.162a5.123,5.123,0,0,0-1.85.689,3.477,3.477,0,0,1-2.227,1.066c-.735-.079-.213-1.009-.039-.964s1.531-.973,1.4-1.69-2.419-.272-2.4,1.337c.155,2.389-.7,1.955-.7,1.955-.582-.057-.33-3.276-.33-3.525s1.627-1.376,1.724-1.433a8.734,8.734,0,0,1,2.4.336,5,5,0,0,0,1.651.088c.458-.033.813-.087.813-.087l.729-.023Z" transform="translate(-3311.416 -998.288)" fill="#ebc4a1"/>
            <path id="Trazado_100451" data-name="Trazado 100451" d="M3380,1032.257l-1.318.87s-.325.06-.747.162a2.791,2.791,0,0,0-.369-2.143c.457-.033.813-.087.813-.087l.73-.024Z" transform="translate(-3357.788 -1000.877)" fill="#1a1a1a" opacity="0.2"/>
            <path id="Trazado_100452" data-name="Trazado 100452" d="M3403,926.242l-1.864,5.694a48.373,48.373,0,0,1-8.482.421c-3.4-.261-7.764-.841-8.147-.892l-.027,0a2.11,2.11,0,0,0-.388-2.169,28.115,28.115,0,0,1,6.131-.4h0c3,.007,5.915.132,5.915.132a49.626,49.626,0,0,1,1.584-6.224,51.437,51.437,0,0,1,2.423-6.221h1.19Z" transform="translate(-3363.584 -899.212)" fill="#5b7393"/>
            <path id="Trazado_100453" data-name="Trazado 100453" d="M3386.157,1369.244l.8,3.743,2.968-.127-.5-4.691Z" transform="translate(-3365.417 -1300.339)" fill="#ebc4a1"/>
            <g id="Grupo_50289" data-name="Grupo 50289" transform="translate(12.85 71.498)">
              <path id="Trazado_100454" data-name="Trazado 100454" d="M3328.452,1427.528a1.608,1.608,0,0,1-.521,1.3c-1.266,1.006-12.419.239-12.383-.458a1.122,1.122,0,0,1,.528-.927C3319.037,1428.012,3324.174,1428.674,3328.452,1427.528Z" transform="translate(-3315.548 -1424.483)" fill="#e1e1e1"/>
              <path id="Trazado_100455" data-name="Trazado 100455" d="M3332.648,1404.034c-4.279,1.146-9.416.484-12.377-.09l.03-.015a29.74,29.74,0,0,1,7.434-2.94s1.193,1.215,4.239.285A7.494,7.494,0,0,1,3332.648,1404.034Z" transform="translate(-3319.744 -1400.989)" fill="#5b7393"/>
            </g>
            <path id="Trazado_100456" data-name="Trazado 100456" d="M3352.718,1218.8a2.775,2.775,0,0,0-.72-.368,3.844,3.844,0,0,0-.969-.224,5.348,5.348,0,0,0-2.218.243,8.11,8.11,0,0,0-.9.346s-.887-2.676-1.853-6.033a67.351,67.351,0,0,1-2.373-10.6,9.317,9.317,0,0,1,2.937-3.8,9.653,9.653,0,0,1,5.173-1.95s.258,2.781.522,6.463C3352.7,1208.19,3353.084,1215.377,3352.718,1218.8Z" transform="translate(-3327.692 -1147.777)" fill="#12263f"/>
            <path id="Trazado_100457" data-name="Trazado 100457" d="M3376.059,1218.8a2.77,2.77,0,0,0-.72-.368,3.842,3.842,0,0,0-.97-.224c-.109-4.9-2.708-14.228-4.4-19.848a9.654,9.654,0,0,1,5.174-1.95s.258,2.781.521,6.463C3376.037,1208.19,3376.426,1215.377,3376.059,1218.8Z" transform="translate(-3351.034 -1147.777)" fill="#12263f" opacity="0.2" style="mix-blend-mode: multiply;isolation: isolate"/>
            <g id="Grupo_50290" data-name="Grupo 50290" transform="translate(0 39.893)">
              <path id="Trazado_100458" data-name="Trazado 100458" d="M3264.041,1360.952l-2.113,3.191,2.168,2.031,3-3.644Z" transform="translate(-3255.069 -1333.821)" fill="#ebc4a1"/>
              <path id="Trazado_100459" data-name="Trazado 100459" d="M3209.187,1363.978a1.386,1.386,0,0,1-1.091.508c-1.389-.112-7.958-7.164-7.525-7.581a.969.969,0,0,1,.879-.273C3202.976,1358.738,3205.819,1362.18,3209.187,1363.978Z" transform="translate(-3200.55 -1329.967)" fill="#e1e1e1"/>
              <path id="Trazado_100460" data-name="Trazado 100460" d="M3216.333,1364.13c-3.368-1.8-6.212-5.241-7.737-7.347l.027.009a25.638,25.638,0,0,1,6.411,2.528s.036,1.467,2.5,2.676A6.471,6.471,0,0,1,3216.333,1364.13Z" transform="translate(-3207.697 -1330.118)" fill="#5b7393"/>
              <path id="Trazado_100461" data-name="Trazado 100461" d="M3302.871,1129.381c-11.932,2.239-18.362,1.619-18.362,1.619s-3.879,10.3-11.322,17.735a1.67,1.67,0,0,0-.048-.2,2.442,2.442,0,0,0-2.615-1.83,2.156,2.156,0,0,0-.235.015s3.141-16.579,8.721-21.689c0,0,12.086-3.87,19.216-4.873,3.474-.493,6.267-.982,8.217-1.352,2.052-.393,3.173-.659,3.173-.659S3314.8,1127.139,3302.871,1129.381Z" transform="translate(-3262.498 -1118.149)" fill="#12263f"/>
            </g>
            <path id="Trazado_100462" data-name="Trazado 100462" d="M3406.083,926.242l-1.865,5.694a48.367,48.367,0,0,1-8.482.421c-3.564-.273-8.173-.9-8.173-.9,2.622-1.448,12.009-1.446,12.009-1.446s.156-.962.544-2.516a31.982,31.982,0,0,0,.694-4.7,51.69,51.69,0,0,1,2.422-6.221h1.19Z" transform="translate(-3366.667 -899.212)" fill="#1a1a1a" opacity="0.2"/>
            <path id="Trazado_100463" data-name="Trazado 100463" d="M3325.9,1129.381c-11.932,2.239-18.362,1.619-18.362,1.619s-3.879,10.3-11.321,17.735c.3-.434.582-.868.859-1.3.132-.208.262-.412.388-.62a60.639,60.639,0,0,0,7.375-17.879s20.39-.145,24.109-3.244c2.245-1.87,1.482-4.829.524-6.881,2.052-.393,3.173-.659,3.173-.659S3337.837,1127.139,3325.9,1129.381Z" transform="translate(-3285.531 -1078.256)" fill="#1a1a1a" opacity="0.2" style="mix-blend-mode: multiply;isolation: isolate"/>
            <path id="Trazado_100464" data-name="Trazado 100464" d="M3516.707,912.993a14.766,14.766,0,0,1-9.091,1.674c-.967.063-1.82.2-2.6.321a7.381,7.381,0,0,1-2.98.038c-1.548-.414-1.65-.26-1.342-2.48.193-1.374.644-4.591,1.01-7.785.224-1.964.414-3.92.5-5.435.207-3.977.932-9.454,1.4-10.02s1.615-2.066,2.2-2.066c0,0,.984,2.589,3.661-1.365,0,0,2.05.841,2.463,1.82s1.59,3.113,1.59,4.351S3512.525,904.778,3516.707,912.993Z" transform="translate(-3467.031 -871.936)" fill="#5b7393"/>
            <path id="Trazado_100465" data-name="Trazado 100465" d="M3335.682,1110.384l-11.809-3.85a.809.809,0,0,0-1.03.988l1.833,6.513a.808.808,0,0,0,.987.562l9.977-2.663A.809.809,0,0,0,3335.682,1110.384Z" transform="translate(-3309.15 -1067.902)" fill="#1a1a1a"/>
            <path id="Trazado_100466" data-name="Trazado 100466" d="M3335.641,1111.936l-9.977,2.663a.809.809,0,0,1-.988-.563l-1.832-6.512a.808.808,0,0,1,.92-1.015,6.2,6.2,0,0,0,10.678,3.473l1.24.4A.809.809,0,0,1,3335.641,1111.936Z" transform="translate(-3309.151 -1067.905)" fill="#1a1a1a" opacity="0.2"/>
            <g id="Grupo_50291" data-name="Grupo 50291" transform="translate(8.768 22.645)">
              <path id="Trazado_100467" data-name="Trazado 100467" d="M3280.319,963.954a.217.217,0,0,0-.262-.152l-.879.223a.215.215,0,0,0-.155.265l4.011,14.786,1.3-.328Z" transform="translate(-3279.015 -963.795)" fill="#1a1a1a"/>
              <path id="Trazado_100468" data-name="Trazado 100468" d="M3323.8,1095.071l-17.83-5.8a.193.193,0,0,1-.124-.244l.311-.958a.194.194,0,0,1,.244-.124l17.831,5.8a.194.194,0,0,1,.124.244l-.311.958A.194.194,0,0,1,3323.8,1095.071Z" transform="translate(-3302.841 -1074.065)" fill="#1a1a1a"/>
              <rect id="Rectángulo_29064" data-name="Rectángulo 29064" width="9.478" height="0.342" transform="translate(4.672 14.812) rotate(18.013)" fill="#e1e1e1"/>
              <rect id="Rectángulo_29065" data-name="Rectángulo 29065" width="0.956" height="0.342" transform="translate(14.79 18.103) rotate(18.013)" fill="#e1e1e1"/>
              <rect id="Rectángulo_29066" data-name="Rectángulo 29066" width="0.956" height="0.342" transform="matrix(0.951, 0.309, -0.309, 0.951, 16.092, 18.526)" fill="#e1e1e1"/>
              <path id="Trazado_100469" data-name="Trazado 100469" d="M3312.4,1094.391a.155.155,0,1,1-.1-.2A.155.155,0,0,1,3312.4,1094.391Z" transform="translate(-3308.398 -1079.618)" fill="#e1e1e1"/>
            </g>
            <path id="Trazado_100470" data-name="Trazado 100470" d="M3335.811,1052.525s-1.3.864-1.374.979a2.39,2.39,0,0,1-.582.229c-.365.114-.853.247-1.338.358-.027.006-.051.015-.072.018s-.045.009-.066.015l-.021,0a10.036,10.036,0,0,1-1,.177c-1.045.117-1.88,1.144-2.266,1.346a1.242,1.242,0,0,1-1.085.072c-.208-.078.781-.888,1.615-1.536a8.922,8.922,0,0,1-2.552,1.415.693.693,0,0,1-.328,0c-.85-.277,1.109-1.566,2.387-2.551a21.43,21.43,0,0,1,4.348-2.05c.328-.124.534-.2.534-.2l1.59.5Z" transform="translate(-3312.456 -1018.434)" fill="#ebc4a1"/>
            <path id="Trazado_100471" data-name="Trazado 100471" d="M3383.375,1052.525s-1.3.864-1.375.979a2.361,2.361,0,0,1-.582.229c-.364.114-.853.247-1.338.358a2.07,2.07,0,0,0,1.275-1.47,1.66,1.66,0,0,0-.315-1.624c.328-.124.534-.2.534-.2l1.59.5Z" transform="translate(-3360.02 -1018.434)" fill="#1a1a1a" opacity="0.2"/>
            <path id="Trazado_100472" data-name="Trazado 100472" d="M3511.675,931.594c-2.145,7.54-5.8,10.205-6.4,12.591a17.145,17.145,0,0,0-.261,4,7.384,7.384,0,0,1-2.98.038c-1.548-.413-1.65-.26-1.342-2.48.193-1.374.644-4.592,1.01-7.785a4.09,4.09,0,0,0,.388-.482c.724-1.133,4.268-8.465,4.358-9.344s.709-3.305.709-3.305l4.273-1.58S3513.824,924.054,3511.675,931.594Z" transform="translate(-3467.031 -905.131)" fill="#1a1a1a" opacity="0.2"/>
            <path id="Trazado_100473" data-name="Trazado 100473" d="M3416.871,918.974a16.541,16.541,0,0,1-.612,1.949c-2.142,5.733-7.671,13.79-7.671,13.79-4.92.112-14.721-2.224-14.721-2.224a1.919,1.919,0,0,0-.276-2.57,1.729,1.729,0,0,0-.151-.133,6.227,6.227,0,0,1,1.8-.484,65.3,65.3,0,0,1,10.172-.155s3.758-9.453,4.727-12.448S3418.215,913.347,3416.871,918.974Z" transform="translate(-3371.887 -897.419)" fill="#5b7393"/>
          </g>
          <path id="Trazado_100474" data-name="Trazado 100474" d="M4076.278,1666.587v97.422a10.143,10.143,0,0,1-10.132,10.132h-34.139a14.77,14.77,0,0,1-1.979-7.384v-85.373a14.816,14.816,0,0,1,14.8-14.8Z" transform="translate(-3839.044 -1565.411)" opacity="0.05" style="mix-blend-mode: multiply;isolation: isolate"/>
          <g id="Grupo_50293" data-name="Grupo 50293" transform="translate(214.607 38.161)">
            <path id="Trazado_100475" data-name="Trazado 100475" d="M5054.017,1904.575l34.144,34.143c3.885,3.885,3.337,10.729-1.22,15.288h0c-4.56,4.559-11.4,5.106-15.289,1.222l-34.143-34.143Z" transform="translate(-4948.554 -1814.967)" fill="#00223d"/>
            <rect id="Rectángulo_29067" data-name="Rectángulo 29067" width="16.655" height="18.144" transform="translate(75.546 87.977) rotate(-45)" fill="#12263f"/>
            <path id="Trazado_100476" data-name="Trazado 100476" d="M4929.3,1784.588l5.922,5.922a55.167,55.167,0,0,1-11.877,11.676l-5.821-5.821Z" transform="translate(-4841.975 -1708.387)" fill="#1a1a1a" opacity="0.2" style="mix-blend-mode: multiply;isolation: isolate"/>
            <circle id="Elipse_4021" data-name="Elipse 4021" cx="49.501" cy="49.501" r="49.501" fill="#12263f"/>
            <circle id="Elipse_4022" data-name="Elipse 4022" cx="40.901" cy="40.901" r="40.901" transform="translate(8.6 8.6)" fill="#fff" style="mix-blend-mode: screen;isolation: isolate"/>
            <path id="Trazado_100477" data-name="Trazado 100477" d="M4429.681,1249.994a40.907,40.907,0,0,1-78.093,17.041,40.921,40.921,0,0,0,54.234-54.234A40.906,40.906,0,0,1,4429.681,1249.994Z" transform="translate(-4339.281 -1200.493)" fill="#1a1a1a" opacity="0.2" style="mix-blend-mode: multiply;isolation: isolate"/>
            <rect id="Rectángulo_29068" data-name="Rectángulo 29068" width="23.349" height="6.188" transform="translate(88.953 106.118) rotate(-45)" fill="#1a1a1a" opacity="0.2" style="mix-blend-mode: multiply;isolation: isolate"/>
            <path id="Trazado_100478" data-name="Trazado 100478" d="M5008.358,1857.747l-17.677,17.678a1.957,1.957,0,0,1-2.768,0l-3.367-3.366a1.96,1.96,0,0,1,0-2.769l17.677-17.677a1.957,1.957,0,0,1,2.769,0l3.366,3.366A1.957,1.957,0,0,1,5008.358,1857.747Z" transform="translate(-4901.002 -1767.413)" fill="#d8e5ed"/>
          </g>
          <g id="Grupo_50294" data-name="Grupo 50294" transform="translate(198.398 108.59)">
            <rect id="Rectángulo_29069" data-name="Rectángulo 29069" width="59.762" height="100.141" rx="2" fill="#12263f"/>
            <rect id="Rectángulo_29070" data-name="Rectángulo 29070" width="54.588" height="94.967" rx="2" transform="translate(2.587 2.587)" fill="#fff"/>
            <path id="Trazado_100479" data-name="Trazado 100479" d="M4228.152,1745.256H4211.09l4.62,4.62a2.11,2.11,0,0,0,1.492.619h21.9a2.109,2.109,0,0,0,1.493-.619l4.62-4.62Z" transform="translate(-4198.271 -1743.879)" fill="#12263f"/>
            <rect id="Rectángulo_29071" data-name="Rectángulo 29071" width="50.394" height="34.026" rx="2" transform="translate(4.684 11.255)" fill="#edf4f9"/>
            <rect id="Rectángulo_29072" data-name="Rectángulo 29072" width="14.468" height="14.468" rx="2" transform="translate(6.187 57.521)" fill="#edf4f9"/>
            <rect id="Rectángulo_29073" data-name="Rectángulo 29073" width="14.468" height="14.468" rx="2" transform="translate(6.187 75.954)" fill="#edf4f9"/>
            <rect id="Rectángulo_29074" data-name="Rectángulo 29074" width="27.095" height="1.197" transform="translate(23.981 57.986)" fill="#edf4f9"/>
            <rect id="Rectángulo_29075" data-name="Rectángulo 29075" width="27.095" height="1.197" transform="translate(23.981 60.647)" fill="#edf4f9"/>
            <rect id="Rectángulo_29076" data-name="Rectángulo 29076" width="50.394" height="1.197" transform="translate(4.684 47.788)" fill="#edf4f9"/>
            <rect id="Rectángulo_29077" data-name="Rectángulo 29077" width="27.095" height="1.197" transform="translate(4.684 50.449)" fill="#edf4f9"/>
            <rect id="Rectángulo_29078" data-name="Rectángulo 29078" width="12.406" height="1.197" transform="translate(23.981 63.308)" fill="#edf4f9"/>
            <rect id="Rectángulo_29079" data-name="Rectángulo 29079" width="24.347" height="1.197" transform="translate(23.981 67.166)" fill="#edf4f9"/>
            <rect id="Rectángulo_29080" data-name="Rectángulo 29080" width="27.095" height="1.197" transform="translate(23.981 76.346)" fill="#edf4f9"/>
            <rect id="Rectángulo_29081" data-name="Rectángulo 29081" width="27.095" height="1.197" transform="translate(23.981 79.007)" fill="#edf4f9"/>
            <rect id="Rectángulo_29082" data-name="Rectángulo 29082" width="12.406" height="1.197" transform="translate(23.981 81.668)" fill="#edf4f9"/>
            <rect id="Rectángulo_29083" data-name="Rectángulo 29083" width="24.347" height="1.197" transform="translate(23.981 85.526)" fill="#edf4f9"/>
          </g>
          <g id="Grupo_50300" data-name="Grupo 50300" transform="translate(69.911 97.473)">
            <rect id="Rectángulo_29086" data-name="Rectángulo 29086" width="48.64" height="12.593" rx="2" fill="#26aab7"/>
            <g id="Grupo_50298" data-name="Grupo 50298" transform="translate(3.328 3.293)">
              <path id="Trazado_100490" data-name="Trazado 100490" d="M2979.451,1662.916l.746,2.295h2.412l-1.952,1.419.745,2.295-1.952-1.418-1.952,1.418.745-2.295-1.952-1.419h2.413Z" transform="translate(-2976.292 -1662.916)" fill="#f5ca56"/>
              <path id="Trazado_100491" data-name="Trazado 100491" d="M3059.25,1662.916l.745,2.295h2.413l-1.952,1.419.746,2.295-1.952-1.418-1.952,1.418.746-2.295-1.953-1.419h2.413Z" transform="translate(-3047.173 -1662.916)" fill="#f5ca56"/>
              <path id="Trazado_100492" data-name="Trazado 100492" d="M3139.048,1662.916l.745,2.295h2.413l-1.952,1.419.746,2.295-1.952-1.418-1.952,1.418.745-2.295-1.951-1.419h2.413Z" transform="translate(-3118.056 -1662.916)" fill="#f5ca56"/>
              <path id="Trazado_100493" data-name="Trazado 100493" d="M3218.847,1662.916l.745,2.295H3222l-1.951,1.419.745,2.295-1.952-1.418-1.952,1.418.745-2.295-1.952-1.419h2.413Z" transform="translate(-3188.938 -1662.916)" fill="#f5ca56"/>
              <path id="Trazado_100494" data-name="Trazado 100494" d="M3298.646,1662.916l.745,2.295h2.413l-1.953,1.419.746,2.295-1.952-1.418-1.953,1.418.746-2.295-1.951-1.419h2.413Z" transform="translate(-3259.821 -1662.916)" fill="#d8e5ed"/>
            </g>
            <rect id="Rectángulo_29087" data-name="Rectángulo 29087" width="48.64" height="12.593" rx="2" transform="translate(8.741 15.492)" fill="#26aab7"/>
            <g id="Grupo_50299" data-name="Grupo 50299" transform="translate(12.069 18.784)">
              <path id="Trazado_100495" data-name="Trazado 100495" d="M3057.677,1801.557l.745,2.295h2.414l-1.952,1.418.746,2.295-1.952-1.418-1.952,1.418.746-2.295-1.952-1.418h2.413Z" transform="translate(-3054.518 -1801.557)" fill="#f5ca56"/>
              <path id="Trazado_100496" data-name="Trazado 100496" d="M3137.475,1801.557l.745,2.295h2.413l-1.951,1.418.745,2.295-1.952-1.418-1.952,1.418.746-2.295-1.952-1.418h2.414Z" transform="translate(-3125.4 -1801.557)" fill="#f5ca56"/>
              <path id="Trazado_100497" data-name="Trazado 100497" d="M3217.275,1801.557l.745,2.295h2.414l-1.952,1.418.745,2.295-1.952-1.418-1.953,1.418.746-2.295-1.952-1.418h2.413Z" transform="translate(-3196.282 -1801.557)" fill="#f5ca56"/>
              <path id="Trazado_100498" data-name="Trazado 100498" d="M3297.073,1801.557l.745,2.295h2.413l-1.952,1.418.746,2.295-1.952-1.418-1.952,1.418.746-2.295-1.952-1.418h2.413Z" transform="translate(-3267.164 -1801.557)" fill="#f5ca56"/>
              <path id="Trazado_100499" data-name="Trazado 100499" d="M3376.872,1801.557l.746,2.295h2.412l-1.952,1.418.746,2.295-1.952-1.418-1.952,1.418.746-2.295-1.952-1.418h2.413Z" transform="translate(-3338.046 -1801.557)" fill="#f5ca56"/>
            </g>
          </g>
          <g id="Grupo_50457" data-name="Grupo 50457" transform="translate(237.82 143.153)">
            <rect id="Rectángulo_29086-2" data-name="Rectángulo 29086" width="48.64" height="12.593" rx="2" fill="#7d6eb2"/>
            <g id="Grupo_50298-2" data-name="Grupo 50298" transform="translate(3.328 3.293)">
              <path id="Trazado_100490-2" data-name="Trazado 100490" d="M2979.451,1662.916l.746,2.295h2.412l-1.952,1.419.745,2.295-1.952-1.418-1.952,1.418.745-2.295-1.952-1.419h2.413Z" transform="translate(-2976.292 -1662.916)" fill="#f5ca56"/>
              <path id="Trazado_100491-2" data-name="Trazado 100491" d="M3059.25,1662.916l.745,2.295h2.413l-1.952,1.419.746,2.295-1.952-1.418-1.952,1.418.746-2.295-1.953-1.419h2.413Z" transform="translate(-3047.173 -1662.916)" fill="#f5ca56"/>
              <path id="Trazado_100492-2" data-name="Trazado 100492" d="M3139.048,1662.916l.745,2.295h2.413l-1.952,1.419.746,2.295-1.952-1.418-1.952,1.418.745-2.295-1.951-1.419h2.413Z" transform="translate(-3118.056 -1662.916)" fill="#f5ca56"/>
              <path id="Trazado_100493-2" data-name="Trazado 100493" d="M3218.847,1662.916l.745,2.295H3222l-1.951,1.419.745,2.295-1.952-1.418-1.952,1.418.745-2.295-1.952-1.419h2.413Z" transform="translate(-3188.938 -1662.916)" fill="#f5ca56"/>
              <path id="Trazado_100494-2" data-name="Trazado 100494" d="M3298.646,1662.916l.745,2.295h2.413l-1.953,1.419.746,2.295-1.952-1.418-1.953,1.418.746-2.295-1.951-1.419h2.413Z" transform="translate(-3259.821 -1662.916)" fill="#d8e5ed"/>
            </g>
            <rect id="Rectángulo_29087-2" data-name="Rectángulo 29087" width="48.64" height="12.593" rx="2" transform="translate(8.741 15.492)" fill="#7d6eb2"/>
            <g id="Grupo_50299-2" data-name="Grupo 50299" transform="translate(12.069 18.784)">
              <path id="Trazado_100495-2" data-name="Trazado 100495" d="M3057.677,1801.557l.745,2.295h2.414l-1.952,1.418.746,2.295-1.952-1.418-1.952,1.418.746-2.295-1.952-1.418h2.413Z" transform="translate(-3054.518 -1801.557)" fill="#f5ca56"/>
              <path id="Trazado_100496-2" data-name="Trazado 100496" d="M3137.475,1801.557l.745,2.295h2.413l-1.951,1.418.745,2.295-1.952-1.418-1.952,1.418.746-2.295-1.952-1.418h2.414Z" transform="translate(-3125.4 -1801.557)" fill="#f5ca56"/>
              <path id="Trazado_100497-2" data-name="Trazado 100497" d="M3217.275,1801.557l.745,2.295h2.414l-1.952,1.418.745,2.295-1.952-1.418-1.953,1.418.746-2.295-1.952-1.418h2.413Z" transform="translate(-3196.282 -1801.557)" fill="#f5ca56"/>
              <path id="Trazado_100498-2" data-name="Trazado 100498" d="M3297.073,1801.557l.745,2.295h2.413l-1.952,1.418.746,2.295-1.952-1.418-1.952,1.418.746-2.295-1.952-1.418h2.413Z" transform="translate(-3267.164 -1801.557)" fill="#f5ca56"/>
              <path id="Trazado_100499-2" data-name="Trazado 100499" d="M3376.872,1801.557l.746,2.295h2.412l-1.952,1.418.746,2.295-1.952-1.418-1.952,1.418.746-2.295-1.952-1.418h2.413Z" transform="translate(-3338.046 -1801.557)" fill="#f5ca56"/>
            </g>
          </g>
        </g>
      </g>
    </g>
    <g id="Grupo_888967" data-name="Grupo 888967" transform="translate(1013.801 252.627)">
      <rect id="Rectángulo_300161" data-name="Rectángulo 300161" width="124.712" height="26.715" rx="3.608" transform="translate(230.7 5515.84)" fill="#1565c0"/>
      <g id="Grupo_888952" data-name="Grupo 888952" transform="translate(260.961 5522.809)">
        <rect id="Rectángulo_26550" data-name="Rectángulo 26550" width="83.885" height="1.808" rx="0.794" fill="#e6eef3"/>
        <rect id="Rectángulo_26551" data-name="Rectángulo 26551" width="83.885" height="1.808" rx="0.794" transform="translate(0 5.484)" fill="#e6eef3"/>
        <rect id="Rectángulo_26552" data-name="Rectángulo 26552" width="64.946" height="1.808" rx="0.794" transform="translate(0 10.968)" fill="#e6eef3"/>
      </g>
      <circle id="Elipse_8140" data-name="Elipse 8140" cx="9.615" cy="9.615" r="9.615" transform="translate(232.074 5529.197) rotate(-45)" fill="#e6eef3"/>
      <g id="Grupo_888953" data-name="Grupo 888953" transform="translate(241.258 5523.372)">
        <path id="Trazado_68967" data-name="Trazado 68967" d="M377.35,131.662a2.908,2.908,0,1,0,2.279,2.278A2.909,2.909,0,0,0,377.35,131.662Zm1.035,5.757a3.309,3.309,0,0,1-3.219,0,4.411,4.411,0,0,0-2.8,4.108v.1a6.775,6.775,0,0,0,8.826,0v-.1A4.414,4.414,0,0,0,378.386,137.419Z" transform="translate(-372.365 -131.607)" fill="#cbd9e4"/>
      </g>
    </g>
    <g id="Grupo_888578" data-name="Grupo 888578" transform="translate(129.459 4127.195)">
      <rect id="Rectángulo_299819" data-name="Rectángulo 299819" width="65.53" height="16.922" transform="translate(1084.012 1531.899)" fill="#1565c0"/>
      <path id="Trazado_605119" data-name="Trazado 605119" d="M35.966,141.858l-4.081,11.259H28.746l-2.532-6.99-2.616,6.99H20.459L16.4,141.858h3.076l2.658,7.617,2.762-7.617h2.763l2.679,7.617,2.741-7.617Z" transform="translate(1071.104 1392.744)" fill="#fff"/>
      <path id="Trazado_605120" data-name="Trazado 605120" d="M53.1,141.858l-4.081,11.259H45.885l-2.532-6.99-2.616,6.99H37.6l-4.06-11.259h3.076l2.658,7.617,2.762-7.617H44.8l2.679,7.617,2.742-7.617Z" transform="translate(1073.302 1392.744)" fill="#fff"/>
      <path id="Trazado_605121" data-name="Trazado 605121" d="M70.243,141.858l-4.081,11.259H63.023l-2.532-6.99-2.616,6.99H54.736l-4.06-11.259h3.076l2.658,7.617,2.762-7.617h2.762l2.679,7.617,2.742-7.617Z" transform="translate(1075.501 1392.744)" fill="#fff"/>
      <line id="Línea_2084" data-name="Línea 2084" x2="6.94" transform="translate(1080.542 1531.899)" fill="none" stroke="#38356e" stroke-miterlimit="10" stroke-width="1"/>
      <line id="Línea_2085" data-name="Línea 2085" x2="6.94" transform="translate(1080.542 1548.821)" fill="none" stroke="#38356e" stroke-miterlimit="10" stroke-width="1"/>
      <line id="Línea_2086" data-name="Línea 2086" y2="16.922" transform="translate(1084.012 1531.899)" fill="none" stroke="#38356e" stroke-miterlimit="10" stroke-width="1"/>
    </g>
    <g id="Grupo_888579" data-name="Grupo 888579" transform="translate(248 4000.149)">
      <path id="Trazado_605122" data-name="Trazado 605122" d="M113.344,111.86H10.744a2.077,2.077,0,0,1-2.077-2.076V46.275A2.077,2.077,0,0,1,10.744,44.2h102.6a2.076,2.076,0,0,1,2.076,2.076v63.509a2.076,2.076,0,0,1-2.076,2.076" transform="translate(1031.502 1643.618)" fill="#12263f"/>
      <path id="Trazado_605123" data-name="Trazado 605123" d="M10.229,108.844V51.669a1.636,1.636,0,0,1,1.636-1.636H112.4a1.637,1.637,0,0,1,1.637,1.636v57.175a1.637,1.637,0,0,1-1.637,1.636H11.865a1.636,1.636,0,0,1-1.636-1.636" transform="translate(1031.412 1643.283)" fill="#fff"/>
      <path id="Trazado_605124" data-name="Trazado 605124" d="M119.473,47.036a1.352,1.352,0,1,1-1.352-1.352,1.352,1.352,0,0,1,1.352,1.352" transform="translate(1025.289 1643.533)" fill="#fff"/>
      <path id="Trazado_605125" data-name="Trazado 605125" d="M114.734,47.036a1.352,1.352,0,1,1-1.352-1.352,1.352,1.352,0,0,1,1.352,1.352" transform="translate(1025.562 1643.533)" fill="#fff"/>
      <path id="Trazado_605126" data-name="Trazado 605126" d="M110,47.036a1.352,1.352,0,1,1-1.352-1.352A1.352,1.352,0,0,1,110,47.036" transform="translate(1025.834 1643.533)" fill="#fff"/>
      <path id="Trazado_605127" data-name="Trazado 605127" d="M25.1,61.18a5.465,5.465,0,1,1-5.466-5.466A5.466,5.466,0,0,1,25.1,61.18" transform="translate(1031.185 1642.957)" fill="#1565c0"/>
      <rect id="Rectángulo_299820" data-name="Rectángulo 299820" width="81.496" height="2.582" transform="translate(1058.8 1698.714)" fill="#e8e8e8"/>
      <rect id="Rectángulo_299821" data-name="Rectángulo 299821" width="55.466" height="2.582" transform="translate(1058.8 1702.845)" fill="#e8e8e8"/>
      <rect id="Rectángulo_299822" data-name="Rectángulo 299822" width="28.842" height="2.582" transform="translate(1058.8 1707.232)" fill="#e8e8e8"/>
      <path id="Trazado_605128" data-name="Trazado 605128" d="M25.1,79.647a5.465,5.465,0,1,1-5.466-5.466A5.466,5.466,0,0,1,25.1,79.647" transform="translate(1031.185 1641.895)" fill="#fb8c00"/>
      <rect id="Rectángulo_299823" data-name="Rectángulo 299823" width="81.496" height="2.582" transform="translate(1058.8 1716.12)" fill="#e8e8e8"/>
      <rect id="Rectángulo_299824" data-name="Rectángulo 299824" width="55.466" height="2.582" transform="translate(1058.8 1720.251)" fill="#e8e8e8"/>
      <rect id="Rectángulo_299825" data-name="Rectángulo 299825" width="28.842" height="2.582" transform="translate(1058.8 1724.637)" fill="#e8e8e8"/>
      <path id="Trazado_605129" data-name="Trazado 605129" d="M25.1,98.114a5.465,5.465,0,1,1-5.466-5.466A5.466,5.466,0,0,1,25.1,98.114" transform="translate(1031.185 1640.834)" fill="#26aab7"/>
      <rect id="Rectángulo_299826" data-name="Rectángulo 299826" width="81.496" height="2.582" transform="translate(1058.8 1733.525)" fill="#e8e8e8"/>
      <rect id="Rectángulo_299827" data-name="Rectángulo 299827" width="55.466" height="2.582" transform="translate(1058.8 1737.657)" fill="#e8e8e8"/>
      <rect id="Rectángulo_299828" data-name="Rectángulo 299828" width="28.842" height="2.582" transform="translate(1058.8 1742.043)" fill="#e8e8e8"/>
      <path id="Trazado_605130" data-name="Trazado 605130" d="M127.217,121.336v1.414H125.8" transform="translate(1024.77 1639.186)" fill="none" stroke="#38356e" stroke-linejoin="round" stroke-width="0.5"/>
      <line id="Línea_2087" data-name="Línea 2087" x1="110.653" transform="translate(1037.119 1761.935)" fill="none" stroke="#38356e" stroke-linejoin="round" stroke-width="0.5" stroke-dasharray="2.972 2.972"/>
      <path id="Trazado_605131" data-name="Trazado 605131" d="M3.859,122.75H2.445v-1.414" transform="translate(1031.859 1639.186)" fill="none" stroke="#38356e" stroke-linejoin="round" stroke-width="0.5"/>
      <line id="Línea_2088" data-name="Línea 2088" y1="72.814" transform="translate(1034.305 1684.852)" fill="none" stroke="#12263f" stroke-linejoin="round" stroke-width="0.5" stroke-dasharray="3.03 3.03"/>
      <path id="Trazado_605132" data-name="Trazado 605132" d="M2.445,39.452V38.038H3.859" transform="translate(1031.859 1643.973)" fill="none" stroke="#38356e" stroke-linejoin="round" stroke-width="0.5"/>
      <line id="Línea_2089" data-name="Línea 2089" x2="110.653" transform="translate(1038.52 1682.011)" fill="none" stroke="#38356e" stroke-linejoin="round" stroke-width="0.5" stroke-dasharray="2.972 2.972"/>
      <path id="Trazado_605133" data-name="Trazado 605133" d="M125.8,38.038h1.414v1.414" transform="translate(1024.77 1643.973)" fill="none" stroke="#38356e" stroke-linejoin="round" stroke-width="0.5"/>
      <line id="Línea_2090" data-name="Línea 2090" y2="72.814" transform="translate(1151.987 1686.28)" fill="none" stroke="#38356e" stroke-linejoin="round" stroke-width="0.5" stroke-dasharray="3.03 3.03"/>
      <rect id="Rectángulo_299829" data-name="Rectángulo 299829" width="4.609" height="4.609" transform="translate(1032 1679.706)" fill="#12263f"/>
      <rect id="Rectángulo_299830" data-name="Rectángulo 299830" width="4.609" height="4.609" transform="translate(1149.683 1679.706)" fill="#12263f"/>
      <rect id="Rectángulo_299831" data-name="Rectángulo 299831" width="4.609" height="4.609" transform="translate(1149.683 1759.631)" fill="#12263f"/>
      <rect id="Rectángulo_299832" data-name="Rectángulo 299832" width="4.609" height="4.609" transform="translate(1032.707 1759.631)" fill="#12263f"/>
      <path id="Trazado_605134" data-name="Trazado 605134" d="M84.209,103.154V101.74h1.414" transform="translate(1027.161 1640.311)" fill="none" stroke="#38356e" stroke-linejoin="round" stroke-width="0.5"/>
    </g>
  </g>
</svg>
