<svg xmlns="http://www.w3.org/2000/svg" xmlns:xlink="http://www.w3.org/1999/xlink" width="205.962" height="176.9" viewBox="0 0 205.962 176.9">
  <defs>
    <clipPath id="clip-path">
      <rect id="Rectángulo_300082" data-name="Rectángulo 300082" width="119.362" height="119.348" fill="#12263f"/>
    </clipPath>
  </defs>
  <g id="Grupo_888874" data-name="Grupo 888874" transform="translate(44.926 44.403)">
    <rect id="Rectángulo_49533" data-name="Rectángulo 49533" width="144.8" height="111.233" transform="translate(16.236 21.265)" fill="#ffde96"/>
    <g id="Grupo_169217" data-name="Grupo 169217" transform="translate(-44.926 -44.403)">
      <rect id="Rectángulo_49754" data-name="Rectángulo 49754" width="166.13" height="153.889" transform="translate(0 0)" fill="none"/>
      <g id="Grupo_888899" data-name="Grupo 888899" transform="translate(33.663 4.662)">
        <g id="Grupo_888898" data-name="Grupo 888898" clip-path="url(#clip-path)">
          <path id="Trazado_605690" data-name="Trazado 605690" d="M5.142,119.348a3.879,3.879,0,0,0-.494-.248,6.409,6.409,0,0,1-4.63-6.4Q0,101.161.014,89.624q0-26.454,0-52.909a6.576,6.576,0,0,1,.031-1.163,1.643,1.643,0,0,1,1.665-1.5,1.646,1.646,0,0,1,1.768,1.51,7.335,7.335,0,0,1,.032,1.279q0,37.584,0,75.168c0,2.858.98,3.838,3.837,3.838H41.156a8.65,8.65,0,0,1,.14-10.13c-6.4-3.6-7.783-7.7-4.494-13.45-3.9-1.474-6.238-4.218-6.126-8.478.106-4.018,2.477-6.532,6.181-7.934a8.737,8.737,0,0,1-.178-10.182H35.217q-12.528,0-25.056,0c-2.118,0-2.631-.506-2.631-2.6q0-19.171,0-38.341c0-2.106.5-2.594,2.617-2.594q11.829,0,23.657,0a6.03,6.03,0,0,1,1.047.03,1.73,1.73,0,0,1,.108,3.412,5.01,5.01,0,0,1-1.16.052q-9.09,0-18.18,0h-1.59L32.609,41.591,51.071,25.747c-.452-.051-.727-.108-1-.109-2.292-.007-4.584,0-6.876-.007-1.341-.007-2.152-.692-2.14-1.767s.818-1.72,2.179-1.723q6.06-.012,12.12,0c1.736,0,2.294.555,2.295,2.3q.007,18.064,0,36.127v1.5h4V17.73H3.511v1.245c0,2.836.017,5.672-.01,8.507a1.743,1.743,0,1,1-3.476.028C.012,20.324-.039,13.136.058,5.951A6.287,6.287,0,0,1,6.023.015C6.41-.007,6.8,0,7.188,0Q32.652,0,58.115,0c4.473,0,7.1,2.614,7.1,7.085q.008,26.746,0,53.491v1.531h5.669V60.782c0-4.04-.01-8.08,0-12.12.016-5.059,3.593-8.812,8.4-8.839a8.541,8.541,0,0,1,8.534,8.759c.046,2.99.06,5.983,0,8.973A12.22,12.22,0,0,0,91.6,66.872c2.672,2.656,5.289,5.368,7.933,8.052.23.234.489.439.915.818,0-1.462-.014-2.689,0-3.917.021-1.434.619-2.056,2.074-2.061,4.895-.018,9.789.007,14.684-.02a2.574,2.574,0,0,1,2.151,1.119v48.485H101.646a2.341,2.341,0,0,1-1.215-2.415c.063-1.72.017-3.444.017-5.366-2.461,1.309-4.7,2.6-7.021,3.709-2.465,1.181-4.981,2.273-7.533,3.249a24.463,24.463,0,0,1-3.828.823H70.177c-.77-.588-1.438-1.234-1.03-2.329.4-1.074,1.3-1.184,2.29-1.176q4.253.033,8.507,0a19.96,19.96,0,0,0,9.187-2.242c3.511-1.825,6.985-3.72,10.5-5.545a1.39,1.39,0,0,0,.838-1.45c-.025-8.429,0-16.858-.047-25.287a2.643,2.643,0,0,0-.72-1.684C96.2,76.16,92.641,72.742,89.109,69.3A15.069,15.069,0,0,1,84.342,58.05c.009-3.03.019-6.06-.012-9.089a7.721,7.721,0,0,0-.293-2.178A4.928,4.928,0,0,0,74.4,48.316c-.03,5.049-.005,10.1-.014,15.149,0,1.59-.591,2.194-2.174,2.206-2.447.02-4.894.005-7.342.006-7.031,0-14.061-.023-21.092.015a4.941,4.941,0,1,0,.012,9.872c1.554.018,3.107-.007,4.661.007,1.447.013,2.23.673,2.2,1.817-.031,1.108-.749,1.669-2.193,1.673-2.952.009-5.9-.011-8.856.007-3.142.019-5.47,2.159-5.47,4.993,0,2.87,2.278,4.95,5.464,4.963,2.952.012,5.9,0,8.856,0,1.434,0,2.165.566,2.2,1.666.035,1.146-.749,1.813-2.191,1.825-1.709.015-3.419-.029-5.127.017a4.856,4.856,0,0,0-4.677,4.489,4.913,4.913,0,0,0,4.653,5.347c1.549.088,3.108,0,4.659.063a1.681,1.681,0,0,1,1.792,1.743,1.655,1.655,0,0,1-1.679,1.727q-.406.041-.809.106A4.732,4.732,0,0,0,43.4,109.16a4.965,4.965,0,0,0,4.789,6.679c4.583.046,9.167.023,13.751,0,1,0,1.9.114,2.287,1.183.4,1.088-.258,1.746-1.046,2.322ZM61.726,14.067c0-2.311,0-4.551,0-6.79,0-2.766-1.023-3.779-3.8-3.779H7.261c-.349,0-.7-.014-1.048.018A2.763,2.763,0,0,0,3.568,6.022c-.1,2.663-.028,5.332-.028,8.045Zm42.305,101.7h11.751V73.31H104.031ZM11.119,27.749v32.3L29.925,43.9,11.119,27.749m42.92,32.236V27.807L35.3,43.9,54.038,59.986m-2.9,2.124L32.608,46.2,14.095,62.11Z" transform="translate(0 0)" fill="#12263f"/>
          <path id="Trazado_605691" data-name="Trazado 605691" d="M175.182,261.467c.788-.577,1.444-1.235,1.046-2.322-.391-1.069-1.291-1.187-2.287-1.183-4.584.019-9.168.042-13.751,0a4.966,4.966,0,0,1-4.789-6.679,4.732,4.732,0,0,1,3.866-3.149c.268-.044.538-.078.809-.106a1.655,1.655,0,0,0,1.679-1.727,1.681,1.681,0,0,0-1.791-1.743c-1.551-.066-3.11.025-4.659-.063a4.913,4.913,0,0,1-4.653-5.347,4.856,4.856,0,0,1,4.677-4.489c1.708-.046,3.418,0,5.127-.017,1.442-.012,2.227-.679,2.191-1.825-.034-1.1-.766-1.663-2.2-1.666-2.952-.006-5.9.008-8.856,0-3.186-.013-5.464-2.093-5.464-4.963,0-2.834,2.329-4.974,5.47-4.993,2.952-.018,5.9,0,8.856-.007,1.444,0,2.162-.565,2.193-1.673.032-1.144-.75-1.8-2.2-1.817-1.554-.014-3.108.011-4.661-.007a4.941,4.941,0,1,1-.012-9.872c7.03-.038,14.061-.014,21.092-.015,2.447,0,4.895.014,7.342-.006,1.583-.013,2.171-.617,2.174-2.206.008-5.05-.017-10.1.014-15.149a4.928,4.928,0,0,1,9.639-1.533,7.72,7.72,0,0,1,.293,2.178c.032,3.029.022,6.06.012,9.089a15.07,15.07,0,0,0,4.766,11.249c3.533,3.444,7.09,6.861,10.589,10.338a2.644,2.644,0,0,1,.72,1.684c.045,8.429.022,16.858.047,25.287a1.39,1.39,0,0,1-.838,1.45c-3.511,1.825-6.985,3.72-10.5,5.545a19.963,19.963,0,0,1-9.187,2.242q-4.253.029-8.507,0c-.992-.008-1.889.1-2.29,1.176-.408,1.095.26,1.74,1.03,2.329Z" transform="translate(-111.997 -142.119)" fill="#f6f6f6"/>
          <path id="Trazado_605692" data-name="Trazado 605692" d="M42.848,379.132c2.755,0,5.511-.008,8.266,0,1.35.006,2.138.684,2.114,1.768-.023,1.045-.788,1.715-2.069,1.718q-8.382.019-16.764,0c-1.255,0-2.055-.707-2.071-1.733-.017-1.071.789-1.748,2.142-1.754,2.794-.011,5.588,0,8.382,0" transform="translate(-24.774 -290.581)" fill="#12263f"/>
          <path id="Trazado_605693" data-name="Trazado 605693" d="M42.828,298.414c2.755,0,5.511-.007,8.267,0,1.348.005,2.145.677,2.138,1.757s-.8,1.732-2.161,1.733q-8.267.01-16.533,0c-1.37,0-2.175-.634-2.209-1.7-.035-1.1.8-1.789,2.231-1.793,2.755-.008,5.511,0,8.267,0" transform="translate(-24.779 -228.716)" fill="#12263f"/>
          <path id="Trazado_605694" data-name="Trazado 605694" d="M42.787,342.158c-2.754,0-5.508.008-8.263,0-1.377-.006-2.172-.646-2.184-1.707s.8-1.773,2.145-1.777q8.321-.024,16.642,0c1.368,0,2.134.7,2.112,1.793s-.77,1.684-2.189,1.69c-2.754.012-5.508,0-8.263,0" transform="translate(-24.786 -259.563)" fill="#12263f"/>
          <path id="Trazado_605695" data-name="Trazado 605695" d="M73.267,25.536H15.082c0-2.713-.068-5.382.028-8.045a2.763,2.763,0,0,1,2.645-2.507c.347-.032.7-.018,1.048-.018q25.334,0,50.668,0c2.773,0,3.791,1.013,3.8,3.779,0,2.24,0,4.479,0,6.791M23.2,22v.008c.773,0,1.548.032,2.319-.008a1.72,1.72,0,0,0,.158-3.436c-1.659-.075-3.326-.075-4.984,0a1.662,1.662,0,0,0-1.583,1.81,1.635,1.635,0,0,0,1.655,1.617c.81.038,1.623.008,2.435.008" transform="translate(-11.541 -11.469)" fill="#f3f9ff"/>
          <rect id="Rectángulo_300081" data-name="Rectángulo 300081" width="11.751" height="42.456" transform="translate(104.031 73.311)" fill="#b2ebf2"/>
          <path id="Trazado_605696" data-name="Trazado 605696" d="M47.606,118.815l18.806,16.147L47.606,151.113Z" transform="translate(-36.487 -91.065)" fill="#dee4f0"/>
          <path id="Trazado_605697" data-name="Trazado 605697" d="M169.872,151.238l-18.741-16.087,18.741-16.092Z" transform="translate(-115.833 -91.252)" fill="#dee4f0"/>
          <path id="Trazado_605698" data-name="Trazado 605698" d="M97.394,213.731H60.349l18.513-15.907,18.532,15.907" transform="translate(-46.254 -151.621)" fill="#dee4f0"/>
          <path id="Trazado_605699" data-name="Trazado 605699" d="M60.349,108.772H97.394L78.881,124.679,60.349,108.772" transform="translate(-46.254 -83.368)" fill="#dee4f0"/>
          <path id="Trazado_605700" data-name="Trazado 605700" d="M36.452,33.623c-.812,0-1.625.03-2.435-.008A1.635,1.635,0,0,1,32.362,32a1.662,1.662,0,0,1,1.583-1.81c1.658-.077,3.326-.076,4.984,0a1.72,1.72,0,0,1-.158,3.436c-.771.04-1.546.008-2.319.008v-.008" transform="translate(-24.796 -23.094)" fill="#12263f"/>
        </g>
      </g>
    </g>
  </g>
</svg>
